<svg width="1047" height="556" xmlns="http://www.w3.org/2000/svg" xmlns:xlink="http://www.w3.org/1999/xlink" overflow="hidden"><defs><clipPath id="clip0"><rect x="76" y="56" width="1047" height="556"/></clipPath></defs><g clip-path="url(#clip0)" transform="translate(-76 -56)"><path d="M1071.21 610 251.786 610C224.29 610 202 587.71 202 560.214L202 57 1121 57 1121 560.214C1121 587.71 1098.71 610 1071.21 610Z" stroke="#000000" stroke-width="2" stroke-miterlimit="8" fill="#FFFFFF" fill-rule="evenodd"/><path d="M77 438.576C77 437.153 78.1534 436 79.5762 436L200.424 436C201.847 436 203 437.153 203 438.576L203 506.424C203 507.847 201.847 509 200.424 509L79.5762 509C78.1534 509 77 507.847 77 506.424Z" fill="#FFFFFF" fill-rule="evenodd" fill-opacity="0"/></g></svg>