<svg width="97" height="98" xmlns="http://www.w3.org/2000/svg" xmlns:xlink="http://www.w3.org/1999/xlink" overflow="hidden"><defs><clipPath id="clip0"><rect x="842" y="331" width="97" height="98"/></clipPath><clipPath id="clip1"><rect x="843" y="332" width="96" height="96"/></clipPath><clipPath id="clip2"><rect x="843" y="332" width="96" height="96"/></clipPath><clipPath id="clip3"><rect x="843" y="332" width="96" height="96"/></clipPath></defs><g clip-path="url(#clip0)" transform="translate(-842 -331)"><path d="M879 380.5C879 362.551 889.074 348 901.5 348 913.926 348 924 362.551 924 380.5 924 398.449 913.926 413 901.5 413 889.074 413 879 398.449 879 380.5Z" fill="#FFFFFF" fill-rule="evenodd"/><path d="M862 380.5C862 362.551 872.074 348 884.5 348 896.926 348 907 362.551 907 380.5 907 398.449 896.926 413 884.5 413 872.074 413 862 398.449 862 380.5Z" fill="#FFFFFF" fill-rule="evenodd"/><g clip-path="url(#clip1)"><g clip-path="url(#clip2)"><g clip-path="url(#clip3)"><path d="M898.125 390.329 897.915 390.329C895.899 396.349 891.952 399.358 886.073 399.357 882.551 399.466 879.186 397.9 877 395.137 874.705 392.324 873.557 388.537 873.557 383.778 873.557 377.479 875.132 372.245 878.282 368.078 881.136 364.055 885.801 361.71 890.732 361.821 892.608 361.796 894.444 362.362 895.981 363.438 897.394 364.349 898.447 365.722 898.962 367.322L899.088 367.322C899.172 366.539 899.382 364.929 899.718 362.493L906.689 362.493C905.374 377.272 904.717 384.801 904.717 385.08 904.717 390.623 906.159 393.394 909.043 393.395 911.673 393.395 913.856 391.848 915.593 388.754 917.33 385.66 918.196 381.65 918.193 376.724 918.193 369.445 915.848 363.503 911.159 358.898 906.47 354.293 899.97 351.99 891.659 351.99 884.156 351.789 876.932 354.835 871.838 360.347 866.603 365.916 863.985 372.886 863.985 381.259 863.985 389.518 866.504 396.181 871.543 401.247 876.582 406.313 883.371 408.846 891.91 408.847 897.848 409.006 903.747 407.828 909.168 405.4L909.168 411.867C904.269 413.938 898.152 414.974 890.818 414.975 880.515 414.975 872.215 411.895 865.918 405.736 859.621 399.577 856.471 391.516 856.468 381.553 856.468 371.307 859.799 362.81 866.462 356.063 873.125 349.316 881.635 345.942 891.994 345.943 901.708 345.943 909.749 348.771 916.118 354.426 922.487 360.081 925.671 367.458 925.671 376.556 925.671 383.219 923.942 388.686 920.485 392.956 917.028 397.226 912.808 399.359 907.825 399.356 901.385 399.357 898.152 396.348 898.125 390.329ZM891.448 367.779C888.368 367.779 885.884 369.291 883.995 372.314 882 375.737 881.017 379.655 881.16 383.614 881.021 386.143 881.69 388.651 883.071 390.774 884.216 392.457 886.136 393.446 888.171 393.399 891.25 393.399 893.685 391.81 895.478 388.632 897.271 385.454 898.167 381.247 898.167 376.01 898.167 370.523 895.927 367.78 891.448 367.779Z"/></g></g></g></g></svg>