<svg width="96" height="96" xmlns="http://www.w3.org/2000/svg" xmlns:xlink="http://www.w3.org/1999/xlink" overflow="hidden"><defs><clipPath id="clip0"><rect x="584" y="2" width="96" height="96"/></clipPath></defs><g clip-path="url(#clip0)" transform="translate(-584 -2)"><path d="M632 18C649.673 18 664 32.3269 664 50 664 67.6731 649.673 82 632 82 614.327 82 600 67.6731 600 50 600.02 32.3351 614.335 18.0198 632 18M632 12C611.013 12 594 29.0132 594 50 594 70.9868 611.013 88 632 88 652.987 88 670 70.9868 670 50 670 29.0132 652.987 12 632 12Z" stroke="#D9D9D9" fill="#F2F2F2"/></g></svg>