<svg width="558" height="455" xmlns="http://www.w3.org/2000/svg" xmlns:xlink="http://www.w3.org/1999/xlink" overflow="hidden"><defs><clipPath id="clip0"><rect x="2276" y="1168" width="558" height="455"/></clipPath><linearGradient x1="2555" y1="1247.87" x2="2555" y2="1525.13" gradientUnits="userSpaceOnUse" spreadMethod="reflect" id="stroke1"><stop offset="0" stop-color="#F6F8FC"/><stop offset="0.79"/><stop offset="1"/></linearGradient></defs><g clip-path="url(#clip0)" transform="translate(-2276 -1168)"><path d="M2296.5 1386.5C2296.5 1321.33 2412.23 1268.5 2555 1268.5 2697.77 1268.5 2813.5 1321.33 2813.5 1386.5 2813.5 1451.67 2697.77 1504.5 2555 1504.5 2412.23 1504.5 2296.5 1451.67 2296.5 1386.5Z" stroke="url(#stroke1)" stroke-width="41.25" stroke-miterlimit="8" fill="none" fill-rule="evenodd"/><path d="M2387.5 1451.59 2598.33 1451.59 2598.33 1367.5 2766.5 1485 2598.33 1602.5 2598.33 1518.41 2387.5 1518.41Z" stroke="#FFFFFF" stroke-width="20.625" stroke-miterlimit="8" fill-rule="evenodd"/><path d="M0 60.4708 139.058 60.4708 139.058 0 260 84.5001 139.058 169 139.058 108.529 0 108.529Z" stroke="#FFFFFF" stroke-width="20.625" stroke-miterlimit="8" fill="#D9D9D9" fill-rule="evenodd" transform="matrix(-1 0 0 1 2653.5 1188.5)"/></g></svg>