<svg width="97" height="63" xmlns="http://www.w3.org/2000/svg" xmlns:xlink="http://www.w3.org/1999/xlink" overflow="hidden"><defs><clipPath id="clip0"><rect x="983" y="361" width="97" height="63"/></clipPath><clipPath id="clip1"><rect x="983" y="370" width="96" height="53"/></clipPath><clipPath id="clip2"><rect x="983" y="370" width="96" height="53"/></clipPath><clipPath id="clip3"><rect x="983" y="325" width="96" height="98"/></clipPath><clipPath id="clip4"><rect x="1034" y="361" width="39" height="20"/></clipPath><clipPath id="clip5"><rect x="1034" y="361" width="39" height="20"/></clipPath><clipPath id="clip6"><rect x="982" y="326" width="97" height="97"/></clipPath><clipPath id="clip7"><rect x="997" y="362" width="32" height="25"/></clipPath><clipPath id="clip8"><rect x="997" y="362" width="32" height="25"/></clipPath><clipPath id="clip9"><rect x="983" y="327" width="97" height="96"/></clipPath></defs><g clip-path="url(#clip0)" transform="translate(-983 -361)"><path d="M1005.07 365.24 1014.82 367.281 1012.8 376.968 1003.04 374.927Z" stroke="#FFFFFF" stroke-width="1.33333" stroke-miterlimit="8" fill="#FFFFFF" fill-rule="evenodd"/><path d="M1013.22 366.824 1022.68 369.969 1019.56 379.361 1010.1 376.216Z" stroke="#FFFFFF" stroke-width="1.33333" stroke-miterlimit="8" fill="#FFFFFF" fill-rule="evenodd"/><rect x="993.5" y="377.5" width="76.9999" height="30" stroke="#FFFFFF" stroke-width="1.33333" stroke-miterlimit="8" fill="#FFFFFF"/><rect x="995.5" y="402.5" width="75.9999" height="5" stroke="#FFFFFF" stroke-width="1.33333" stroke-miterlimit="8" fill="#FFFFFF"/><rect x="992.5" y="397.5" width="10" height="10" stroke="#FFFFFF" stroke-width="1.33333" stroke-miterlimit="8" fill="#FFFFFF"/><path d="M1002.86 404.822 1013.49 381.61 1040.52 393.992 1029.88 417.203Z" stroke="#FFFFFF" stroke-width="1.33333" stroke-miterlimit="8" fill="#FFFFFF" fill-rule="evenodd"/><rect x="1004.5" y="379.5" width="15" height="30" stroke="#FFFFFF" stroke-width="1.33333" stroke-miterlimit="8" fill="#FFFFFF"/><path d="M1050.26 388.888 1058.33 402.573 1032.72 417.673 1024.65 403.989Z" stroke="#FFFFFF" stroke-width="1.33333" stroke-miterlimit="8" fill="#FFFFFF" fill-rule="evenodd"/><path d="M1062.29 395.415 1064.72 406.946 1035.64 413.088 1033.2 401.557Z" stroke="#FFFFFF" stroke-width="1.33333" stroke-miterlimit="8" fill="#FFFFFF" fill-rule="evenodd"/><path d="M1004.24 365.432 1022.75 370.24 1018.51 386.578 999.994 381.77Z" stroke="#FFFFFF" stroke-width="1.33333" stroke-miterlimit="8" fill="#FFFFFF" fill-rule="evenodd"/><rect x="999.5" y="372.5" width="19" height="17" stroke="#FFFFFF" stroke-width="1.33333" stroke-miterlimit="8" fill="#FFFFFF"/><rect x="1045.5" y="372.5" width="19" height="17" stroke="#FFFFFF" stroke-width="1.33333" stroke-miterlimit="8" fill="#FFFFFF"/><path d="M1043.71 368.244 1059.56 366.757 1061.14 383.563 1045.29 385.05Z" stroke="#FFFFFF" stroke-width="1.33333" stroke-miterlimit="8" fill="#FFFFFF" fill-rule="evenodd"/><path d="M1029.97 378.643 1042.54 368.883 1052.89 382.217 1040.31 391.978Z" stroke="#FFFFFF" stroke-width="1.33333" stroke-miterlimit="8" fill="#FFFFFF" fill-rule="evenodd"/><path d="M1022.22 370.777 1034.32 381.121 1023.36 393.952 1011.26 383.608Z" stroke="#FFFFFF" stroke-width="1.33333" stroke-miterlimit="8" fill="#FFFFFF" fill-rule="evenodd"/><path d="M1012.51 366.496 1019.55 368.578 1017.96 373.952 1010.92 371.869Z" stroke="#FFFFFF" stroke-width="1.33333" stroke-miterlimit="8" fill="#FFFFFF" fill-rule="evenodd"/><rect x="1051.5" y="366.5" width="8" height="6" stroke="#FFFFFF" stroke-width="1.33333" stroke-miterlimit="8" fill="#FFFFFF"/><rect x="1061.5" y="376.5" width="7" height="6" stroke="#FFFFFF" stroke-width="1.33333" stroke-miterlimit="8" fill="#FFFFFF"/><rect x="994.5" y="377.5" width="8" height="5" stroke="#FFFFFF" stroke-width="1.33333" stroke-miterlimit="8" fill="#FFFFFF"/><rect x="1046.5" y="367.5" width="8" height="5" stroke="#FFFFFF" stroke-width="1.33333" stroke-miterlimit="8" fill="#FFFFFF"/><rect x="1000.5" y="402.5" width="8" height="6" stroke="#FFFFFF" stroke-width="1.33333" stroke-miterlimit="8" fill="#FFFFFF"/><g clip-path="url(#clip1)"><g clip-path="url(#clip2)"><g clip-path="url(#clip3)"><path d="M85.1277 47.7922 85.113 47.7922C84.4286 47.7976 83.5546 47.8198 82.5304 47.8735L82.16 43.916C82.16 43.916 81.7906 43.8894 81.1029 43.8894 80.4112 43.8894 79.3729 43.9251 78.0868 44.0352L77.515 37.41C76.2461 37.2203 74.9639 37.133 73.681 37.149 64.0406 37.1649 54.8305 41.1423 48.2091 48.149L47.7914 48.149C41.1696 41.1426 31.9596 37.1653 22.3192 37.149 21.0363 37.1329 19.7541 37.2202 18.4852 37.41L17.9136 44.0348C16.6272 43.9248 15.5891 43.889 14.8977 43.889 14.2103 43.889 13.8405 43.9156 13.8405 43.9156L13.4705 47.8731C12.4462 47.8194 11.572 47.7972 10.8877 47.7918L10.8729 47.7918C9.88944 47.7916 9.06778 48.5407 8.9773 49.52L6.1028 80.5574C6.00212 81.6061 6.77061 82.5378 7.81927 82.6385 7.87934 82.6442 7.93965 82.6472 8 82.6472 8.0208 82.6472 8.0416 82.6472 8.0625 82.6463 8.6416 82.6277 9.3248 82.6148 10.101 82.6148 17.1016 82.6148 31.5647 83.6822 43.539 91.5048 44.166 91.9207 44.9007 92.1448 45.6531 92.1498L50.3982 92.1498C51.12 92.1455 51.8262 91.939 52.4366 91.5536 65.0615 83.6867 79.2534 82.6152 86.0496 82.6152 86.7627 82.6152 87.3949 82.6269 87.9348 82.644L87.9888 82.6449C89.0452 82.6474 89.9035 81.7931 89.906 80.7367 89.9062 80.676 89.9034 80.6153 89.8978 80.5549L87.0229 49.52C86.9322 48.541 86.1109 47.7922 85.1277 47.7922ZM44.632 89.83C32.3584 81.8122 17.7288 80.615 10.1005 80.615 9.4205 80.615 8.7488 80.625 8.1033 80.6443L10.9606 49.793C11.5634 49.7988 12.3491 49.8193 13.2832 49.8684L10.6069 78.459C10.6069 78.459 10.9299 78.4426 11.5269 78.4426 15.4343 78.4426 31.0774 79.148 44.6729 89.7626 44.7668 89.8359 44.9667 89.9626 44.9542 89.9839 44.8385 89.9522 44.7294 89.9001 44.632 89.83ZM46.9837 89.0551C33.8949 78.2484 18.7883 76.6425 12.8026 76.4624L15.6635 45.9C16.2307 45.9153 16.9335 45.9527 17.7422 46.0218L15.3759 73.4451C15.3759 73.4451 33.8346 75.6885 47 88.7691L47 89.0473C47 89.0589 46.9926 89.0623 46.9837 89.0549ZM46.9837 86.0059C36.0624 75.9993 22.4987 72.6811 17.5285 71.7649L20.337 39.2177C20.8751 39.1794 21.5438 39.1496 22.3194 39.1496 31.5138 39.1638 40.2892 42.9965 46.5481 49.7317L47 50.209 47 85.999C47 86.0108 46.9925 86.0139 46.9835 86.0057ZM49 50.21 49.4524 49.7322C55.7111 42.9965 64.4866 39.1635 73.6812 39.1494 74.4568 39.1494 75.1255 39.1794 75.6635 39.2175L78.472 71.7647C73.502 72.6809 59.9378 75.9991 49.0165 86.0057 49.0075 86.0139 49 86.0108 49 85.9986ZM49 89.0478 49 88.7696C62.1654 75.689 80.6245 73.4456 80.6245 73.4456L78.2581 46.022C79.0664 45.9529 79.7695 45.9155 80.3369 45.9002L83.1978 76.4624C77.2122 76.6424 62.1056 78.2479 49.0163 89.0549 49.0074 89.0623 49 89.0589 49 89.0473ZM86.0491 80.6153C78.6391 80.6153 64.2817 81.8153 51.3777 89.8567 51.2532 89.9424 51.1152 90.0067 50.9694 90.0467 50.9474 90.0134 51.1907 89.8677 51.3011 89.7814 64.9035 79.1475 80.5648 78.4432 84.4734 78.4434 85.0698 78.4434 85.3934 78.4598 85.3934 78.4598L82.717 49.8684C83.651 49.8193 84.437 49.7984 85.0397 49.793L87.8969 80.6414C87.3615 80.6255 86.7422 80.6148 86.0491 80.6148Z" transform="matrix(1 0 0 1.01229 983 325.819)"/><path d="M73.9136 14.1494C74.6629 11.5138 76.5093 9.32757 78.9823 8.1477 76.5101 6.96842 74.6639 4.78365 73.9136 2.1494 73.1655 4.78486 71.3186 6.97045 68.8448 8.1477 71.3194 9.32554 73.1665 11.5126 73.9136 14.1494ZM73.9148 6.5225C74.3505 7.11007 74.8417 7.65441 75.3815 8.148 74.8416 8.64163 74.3505 9.18604 73.9148 9.7737 73.4792 9.18592 72.988 8.6415 72.4479 8.148 72.9879 7.65452 73.4792 7.11017 73.9148 6.5225Z" transform="matrix(1 0 0 1.01229 983 325.819)"/><path d="M9.9313 36.1494C10.6806 33.5137 12.5269 31.3275 15 30.1477 12.5278 28.9685 10.6816 26.7837 9.9313 24.1494 9.18312 26.7849 7.33617 28.9705 4.8624 30.1477 7.33704 31.3255 9.18416 33.5126 9.9313 36.1494ZM9.9325 28.5227C10.3682 29.1102 10.8594 29.6545 11.3992 30.148 10.8593 30.6416 10.3681 31.186 9.9325 31.7737 9.49694 31.1859 9.0057 30.6415 8.4656 30.148 9.00554 29.6545 9.49677 29.1102 9.9325 28.5227Z" transform="matrix(1 0 0 1.01229 983 325.819)"/><path d="M19.776 14.1494C20.4005 11.9531 21.9391 10.1313 24 9.1482 21.9399 8.16532 20.4014 6.34463 19.776 4.1494 19.1525 6.34561 17.6134 8.16697 15.552 9.1482 17.6142 10.1297 19.1534 11.9521 19.776 14.1494ZM19.777 8.3367C20.0076 8.62074 20.2539 8.89166 20.5148 9.1482 20.2539 9.40489 20.0076 9.67598 19.777 9.9602 19.5464 9.67597 19.3001 9.40488 19.0392 9.1482 19.3001 8.89166 19.5464 8.62074 19.777 8.3367Z" transform="matrix(1 0 0 1.01229 983 325.819)"/><path d="M85.776 30.1494C86.4005 27.9531 87.9391 26.1313 90 25.1482 87.9399 24.1653 86.4014 22.3446 85.776 20.1494 85.1525 22.3456 83.6134 24.167 81.552 25.1482 83.6142 26.1297 85.1534 27.9521 85.776 30.1494ZM85.777 24.3367C86.0076 24.6207 86.2539 24.8917 86.5148 25.1482 86.2539 25.4049 86.0076 25.676 85.777 25.9602 85.5464 25.676 85.3001 25.4049 85.0392 25.1482 85.3001 24.8917 85.5464 24.6207 85.777 24.3367Z" transform="matrix(1 0 0 1.01229 983 325.819)"/><path d="M48 9.1494C48.5523 9.1494 49 8.70168 49 8.1494L49 4.1494C49 3.59712 48.5523 3.1494 48 3.1494 47.4477 3.1494 47 3.59712 47 4.1494L47 8.1494C47 8.70168 47.4477 9.1494 48 9.1494Z" transform="matrix(1 0 0 1.01229 983 325.819)"/><path d="M48 39.1494C48.5523 39.1494 49 38.7017 49 38.1494L49 28.1494C49 27.5971 48.5523 27.1494 48 27.1494 47.4477 27.1494 47 27.5971 47 28.1494L47 38.1494C47 38.7017 47.4477 39.1494 48 39.1494Z" transform="matrix(1 0 0 1.01229 983 325.819)"/><path d="M48 23.1494C48.5523 23.1494 49 22.7017 49 22.1494L49 14.1494C49 13.5971 48.5523 13.1494 48 13.1494 47.4477 13.1494 47 13.5971 47 14.1494L47 22.1494C47 22.7017 47.4477 23.1494 48 23.1494Z" transform="matrix(1 0 0 1.01229 983 325.819)"/><path d="M61.7607 18.4461C62.3003 18.5639 62.8332 18.222 62.951 17.6825 62.9511 17.6822 62.9511 17.682 62.9512 17.6817L64.2266 11.8186C64.344 11.2787 64.0016 10.7458 63.4617 10.6284 62.9218 10.511 62.3889 10.8534 62.2715 11.3933L60.9961 17.2564C60.8787 17.7961 61.221 18.3287 61.7607 18.4461Z" transform="matrix(1 0 0 1.01229 983 325.819)"/><path d="M58.7881 32.1267C59.327 32.2444 59.8593 31.9029 59.977 31.364 59.9772 31.3633 59.9773 31.3625 59.9775 31.3618L61.6768 23.5444C61.7941 23.0045 61.4515 22.4718 60.9117 22.3544 60.3718 22.2371 59.839 22.5797 59.7217 23.1196L58.0225 30.937C57.9052 31.4767 58.2477 32.0093 58.7874 32.1265 58.7876 32.1266 58.7879 32.1266 58.7881 32.1267Z" transform="matrix(1 0 0 1.01229 983 325.819)"/><path d="M68.999 30.1494C69.328 30.1499 69.6362 29.9885 69.8232 29.7178L76.6432 19.8445C76.9571 19.3898 76.843 18.7668 76.3883 18.4529 75.9336 18.139 75.3106 18.2531 74.9967 18.7078L68.1767 28.5811C67.8628 29.0355 67.9768 29.6584 68.4312 29.9722 68.5981 30.0875 68.7961 30.1493 68.9989 30.1494Z" transform="matrix(1 0 0 1.01229 983 325.819)"/><path d="M33.8984 21.59 36.0225 31.3617C36.1398 31.9016 36.6725 32.2441 37.2124 32.1268 37.7523 32.0095 38.0948 31.4768 37.9775 30.9369L35.8535 21.1652C35.7362 20.6253 35.2034 20.2827 34.6636 20.4 34.1237 20.5174 33.7811 21.0501 33.8984 21.59Z" transform="matrix(1 0 0 1.01229 983 325.819)"/><path d="M32.624 15.7273C32.7414 16.2672 33.2743 16.6096 33.8142 16.4922 34.3541 16.3748 34.6965 15.8419 34.5791 15.302L33.7285 11.3933C33.6111 10.8534 33.0782 10.511 32.5383 10.6284 31.9984 10.7458 31.656 11.2787 31.7734 11.8186Z" transform="matrix(1 0 0 1.01229 983 325.819)"/><path d="M19.6113 18.4534C19.1572 18.7674 19.0431 19.3899 19.3564 19.8445L26.1764 29.7178C26.4903 30.1724 27.1133 30.2865 27.5679 29.9727 28.0226 29.6588 28.1367 29.0357 27.8228 28.5811L21.0028 18.7078C20.689 18.2533 20.0662 18.1393 19.6117 18.4531 19.6116 18.4532 19.6114 18.4533 19.6113 18.4534Z" transform="matrix(1 0 0 1.01229 983 325.819)"/></g></g></g><g clip-path="url(#clip4)"><g clip-path="url(#clip5)"><g clip-path="url(#clip6)"><path d="M85.125 47.7907 85.1103 47.7907C84.4259 47.7961 83.5519 47.8183 82.5278 47.872L82.1574 43.9146C82.1574 43.9146 81.788 43.888 81.1003 43.888 80.4086 43.888 79.3704 43.9237 78.0843 44.0338L77.5125 37.4088C76.2437 37.2191 74.9615 37.1318 73.6786 37.1478 64.0386 37.1637 54.8287 41.141 48.2076 48.1475L47.7899 48.1475C41.1683 41.1413 31.9586 37.1641 22.3185 37.1478 21.0356 37.1317 19.7535 37.219 18.4846 37.4088L17.913 44.0334C16.6267 43.9234 15.5886 43.8876 14.8972 43.8876 14.2098 43.8876 13.8401 43.9142 13.8401 43.9142L13.4701 47.8716C12.4458 47.8179 11.5716 47.7957 10.8874 47.7903L10.8726 47.7903C9.88912 47.7901 9.06749 48.5391 8.97701 49.5184L6.1026 80.5548C6.00193 81.6035 6.77039 82.5352 7.81902 82.6358 7.87909 82.6416 7.9394 82.6446 7.99974 82.6446 8.02054 82.6446 8.04134 82.6446 8.06224 82.6437 8.64132 82.6251 9.3245 82.6122 10.1007 82.6122 17.1011 82.6122 31.5637 83.6795 43.5376 91.5019 44.1646 91.9178 44.8993 92.1418 45.6516 92.1469L50.3966 92.1469C51.1184 92.1425 51.8245 91.9361 52.4349 91.5507 65.0594 83.684 79.2509 82.6125 86.0468 82.6125 86.7599 82.6125 87.3921 82.6243 87.932 82.6413L87.986 82.6423C89.0423 82.6448 89.9006 81.7905 89.9031 80.7341 89.9033 80.6734 89.9005 80.6127 89.8949 80.5523L87.0201 49.5184C86.9294 48.5394 86.1081 47.7907 85.125 47.7907ZM44.6306 89.8271C32.3574 81.8096 17.7282 80.6124 10.1002 80.6124 9.4202 80.6124 8.74852 80.6224 8.10304 80.6417L10.9602 49.7914C11.563 49.7972 12.3487 49.8177 13.2828 49.8668L10.6066 78.4565C10.6066 78.4565 10.9296 78.4401 11.5265 78.4401 15.4338 78.4401 31.0764 79.1455 44.6715 89.7597 44.7654 89.833 44.9653 89.9597 44.9528 89.981 44.8371 89.9493 44.728 89.8972 44.6306 89.8271ZM46.9822 89.0522C33.8938 78.2459 18.7877 76.64 12.8022 76.46L15.663 45.8985C16.2302 45.9138 16.933 45.9512 17.7416 46.0203L15.3754 73.4427C15.3754 73.4427 33.8335 75.6861 46.9985 88.7663L46.9985 89.0444C46.9985 89.056 46.9911 89.0594 46.9822 89.052ZM46.9822 86.0031C36.0612 75.9969 22.498 72.6788 17.5279 71.7626L20.3363 39.2164C20.8744 39.1781 21.5431 39.1483 22.3187 39.1483 31.5128 39.1625 40.2879 42.9951 46.5466 49.7301L46.9985 50.2074 46.9985 85.9962C46.9985 86.008 46.991 86.0111 46.982 86.0029ZM48.9984 50.2084 49.4508 49.7306C55.7093 42.9951 64.4845 39.1622 73.6788 39.1481 74.4544 39.1481 75.1231 39.1781 75.6611 39.2162L78.4695 71.7624C73.4996 72.6786 59.9359 75.9967 49.0149 86.0029 49.0059 86.0111 48.9984 86.008 48.9984 85.9958ZM48.9984 89.0449 48.9984 88.7668C62.1634 75.6866 80.6219 73.4433 80.6219 73.4433L78.2556 46.0205C79.0639 45.9514 79.7669 45.914 80.3343 45.8987L83.1951 76.46C77.2097 76.6399 62.1036 78.2454 49.0147 89.052 49.0058 89.0594 48.9984 89.056 48.9984 89.0444ZM86.0463 80.6127C78.6366 80.6127 64.2796 81.8127 51.3761 89.8538 51.2516 89.9395 51.1136 90.0038 50.9678 90.0438 50.9458 90.0105 51.1891 89.8648 51.2995 89.7785 64.9014 79.145 80.5622 78.4407 84.4707 78.4409 85.0671 78.4409 85.3907 78.4573 85.3907 78.4573L82.7144 49.8668C83.6483 49.8177 84.4343 49.7968 85.037 49.7914L87.8941 80.6388C87.3587 80.6229 86.7394 80.6122 86.0463 80.6122Z" transform="matrix(1.00159 0 0 1 982.626 326.395)"/><path d="M73.9112 14.1489C74.6605 11.5134 76.5069 9.32727 78.9798 8.14744 76.5077 6.9682 74.6615 4.7835 73.9112 2.14933 73.1632 4.78471 71.3163 6.97023 68.8426 8.14744 71.3171 9.32524 73.1642 11.5122 73.9112 14.1489ZM73.9124 6.52229C74.3481 7.10984 74.8393 7.65416 75.3791 8.14774 74.8392 8.64135 74.3481 9.18575 73.9124 9.77339 73.4769 9.18563 72.9857 8.64122 72.4456 8.14774 72.9856 7.65427 73.4769 7.10994 73.9124 6.52229Z" transform="matrix(1.00159 0 0 1 982.626 326.395)"/><path d="M9.93098 36.1482C10.6803 33.5126 12.5265 31.3265 14.9995 30.1467 12.5274 28.9676 10.6813 26.7828 9.93098 24.1486 9.18283 26.784 7.33594 28.9696 4.86224 30.1467 7.33681 31.3245 9.18387 33.5115 9.93098 36.1482ZM9.93218 28.5218C10.3679 29.1093 10.8591 29.6535 11.3988 30.147 10.859 30.6406 10.3678 31.185 9.93218 31.7727 9.49664 31.1849 9.00541 30.6405 8.46533 30.147 9.00525 29.6535 9.49647 29.1093 9.93218 28.5218Z" transform="matrix(1.00159 0 0 1 982.626 326.395)"/><path d="M19.7754 14.1489C20.3998 11.9527 21.9384 10.131 23.9992 9.14791 21.9392 8.16506 20.4007 6.34443 19.7754 4.14927 19.1519 6.34541 17.6128 8.16671 15.5515 9.14791 17.6136 10.1294 19.1528 11.9517 19.7754 14.1489ZM19.7764 8.33643C20.007 8.62046 20.2533 8.89138 20.5141 9.14791 20.2533 9.40459 20.007 9.67567 19.7764 9.95988 19.5458 9.67566 19.2995 9.40458 19.0386 9.14791 19.2995 8.89138 19.5458 8.62046 19.7764 8.33643Z" transform="matrix(1.00159 0 0 1 982.626 326.395)"/><path d="M85.7733 30.1484C86.3977 27.9522 87.9363 26.1305 89.9971 25.1474 87.9371 24.1645 86.3986 22.3439 85.7733 20.1488 85.1498 22.3449 83.6107 24.1662 81.5494 25.1474 83.6115 26.1289 85.1507 27.9512 85.7733 30.1484ZM85.7743 24.3359C86.0048 24.6199 86.2511 24.8909 86.512 25.1474 86.2511 25.4041 86.0048 25.6752 85.7743 25.9594 85.5437 25.6752 85.2974 25.4041 85.0365 25.1474 85.2974 24.8909 85.5437 24.6199 85.7743 24.3359Z" transform="matrix(1.00159 0 0 1 982.626 326.395)"/><path d="M47.9985 9.14911C48.5507 9.14911 48.9984 8.7014 48.9984 8.14914L48.9984 4.14927C48.9984 3.597 48.5507 3.1493 47.9985 3.1493 47.4462 3.1493 46.9985 3.597 46.9985 4.14927L46.9985 8.14914C46.9985 8.7014 47.4462 9.14911 47.9985 9.14911Z" transform="matrix(1.00159 0 0 1 982.626 326.395)"/><path d="M47.9985 39.1481C48.5507 39.1481 48.9984 38.7005 48.9984 38.1482L48.9984 28.1485C48.9984 27.5962 48.5507 27.1485 47.9985 27.1485 47.4462 27.1485 46.9985 27.5962 46.9985 28.1485L46.9985 38.1482C46.9985 38.7005 47.4462 39.1481 47.9985 39.1481Z" transform="matrix(1.00159 0 0 1 982.626 326.395)"/><path d="M47.9985 23.1487C48.5507 23.1487 48.9984 22.701 48.9984 22.1487L48.9984 14.1489C48.9984 13.5967 48.5507 13.149 47.9985 13.149 47.4462 13.149 46.9985 13.5967 46.9985 14.1489L46.9985 22.1487C46.9985 22.701 47.4462 23.1487 47.9985 23.1487Z" transform="matrix(1.00159 0 0 1 982.626 326.395)"/><path d="M61.7587 18.4455C62.2983 18.5633 62.8312 18.2214 62.949 17.6819 62.9491 17.6816 62.9491 17.6814 62.9492 17.6811L64.2245 11.8182C64.3419 11.2783 63.9996 10.7455 63.4597 10.6281 62.9198 10.5107 62.3869 10.8531 62.2695 11.3929L60.9941 17.2558C60.8768 17.7955 61.219 18.3281 61.7587 18.4455Z" transform="matrix(1.00159 0 0 1 982.626 326.395)"/><path d="M58.7862 32.1257C59.3251 32.2434 59.8574 31.9019 59.9751 31.363 59.9753 31.3623 59.9754 31.3615 59.9756 31.3608L61.6748 23.5436C61.7921 23.0038 61.4495 22.4711 60.9098 22.3537 60.3699 22.2364 59.8371 22.579 59.7198 23.1189L58.0206 30.936C57.9033 31.4757 58.2458 32.0083 58.7855 32.1255 58.7857 32.1256 58.786 32.1256 58.7862 32.1257Z" transform="matrix(1.00159 0 0 1 982.626 326.395)"/><path d="M68.9968 30.1484C69.3258 30.1489 69.634 29.9875 69.821 29.7168L76.6407 19.8439C76.9546 19.3892 76.8405 18.7662 76.3859 18.4523 75.9312 18.1384 75.3082 18.2525 74.9943 18.7072L68.1745 28.5802C67.8606 29.0346 67.9746 29.6574 68.429 29.9712 68.5959 30.0865 68.7939 30.1483 68.9967 30.1484Z" transform="matrix(1.00159 0 0 1 982.626 326.395)"/><path d="M33.8973 21.5893 36.0213 31.3607C36.1386 31.9006 36.6713 32.2431 37.2112 32.1258 37.7511 32.0085 38.0936 31.4758 37.9763 30.9359L35.8524 21.1645C35.7351 20.6246 35.2023 20.2821 34.6625 20.3993 34.1226 20.5167 33.78 21.0494 33.8973 21.5893Z" transform="matrix(1.00159 0 0 1 982.626 326.395)"/><path d="M32.623 15.7268C32.7404 16.2667 33.2732 16.6091 33.8131 16.4917 34.353 16.3743 34.6954 15.8414 34.578 15.3015L33.7274 11.3929C33.61 10.8531 33.0771 10.5107 32.5373 10.6281 31.9974 10.7455 31.655 11.2783 31.7724 11.8182Z" transform="matrix(1.00159 0 0 1 982.626 326.395)"/><path d="M19.6107 18.4528C19.1566 18.7668 19.0425 19.3893 19.3558 19.8439L26.1756 29.7168C26.4895 30.1714 27.1124 30.2855 27.567 29.9717 28.0217 29.6579 28.1358 29.0348 27.8219 28.5802L21.0021 18.7072C20.6883 18.2527 20.0656 18.1387 19.6111 18.4525 19.611 18.4526 19.6108 18.4527 19.6107 18.4528Z" transform="matrix(1.00159 0 0 1 982.626 326.395)"/></g></g></g><g clip-path="url(#clip7)"><g clip-path="url(#clip8)"><g clip-path="url(#clip9)"><path d="M84.7718 47.5924 84.7572 47.5924C84.0756 47.5978 83.2053 47.6199 82.1854 47.6733L81.8165 43.7324C81.8165 43.7324 81.4486 43.7059 80.7638 43.7059 80.075 43.7059 79.0411 43.7415 77.7603 43.8511L77.1909 37.2536C75.9273 37.0647 74.6505 36.9778 73.3729 36.9937 63.7729 37.0095 54.6013 40.9703 48.0075 47.9477L47.5916 47.9477C40.9975 40.9706 31.826 37.0099 22.2259 36.9937 20.9484 36.9777 19.6715 37.0646 18.4079 37.2536L17.8387 43.8507C16.5577 43.7412 15.5239 43.7055 14.8354 43.7055 14.1509 43.7055 13.7826 43.732 13.7826 43.732L13.4142 47.673C12.3942 47.6195 11.5236 47.5974 10.8422 47.592L10.8274 47.592C9.84809 47.5918 9.02987 48.3378 8.93977 49.313L6.07728 80.2206C5.97703 81.2649 6.7423 82.1927 7.78658 82.293 7.8464 82.2987 7.90646 82.3017 7.96655 82.3017 7.98727 82.3017 8.00798 82.3017 8.02879 82.3008 8.60547 82.2822 9.28581 82.2694 10.0588 82.2694 17.0301 82.2694 31.4327 83.3323 43.357 91.1222 43.9813 91.5364 44.713 91.7596 45.4622 91.7645L50.1875 91.7645C50.9063 91.7603 51.6095 91.5546 52.2174 91.1708 64.7895 83.3368 78.9221 82.2698 85.6898 82.2698 86.4 82.2698 87.0295 82.2814 87.5672 82.2985L87.6209 82.2994C88.6729 82.3019 89.5276 81.4511 89.5301 80.3992 89.5303 80.3387 89.5275 80.2783 89.5219 80.2181L86.6591 49.313C86.5687 48.3381 85.7509 47.5924 84.7718 47.5924ZM44.4454 89.4544C32.2231 81.4702 17.6547 80.278 10.0583 80.278 9.38111 80.278 8.71222 80.2879 8.06942 80.3071L10.9148 49.5848C11.5151 49.5906 12.2975 49.611 13.2277 49.6599L10.5626 78.131C10.5626 78.131 10.8842 78.1146 11.4787 78.1146 15.3698 78.1146 30.9475 78.8171 44.4861 89.3873 44.5796 89.4603 44.7787 89.5865 44.7663 89.6077 44.651 89.5761 44.5424 89.5242 44.4454 89.4544ZM46.7873 88.6828C33.7532 77.9212 18.7097 76.3221 12.7491 76.1427L15.598 45.7081C16.1628 45.7233 16.8627 45.7606 17.668 45.8294L15.3116 73.138C15.3116 73.138 33.6931 75.3721 46.8035 88.398L46.8035 88.675C46.8035 88.6866 46.7961 88.6899 46.7873 88.6826ZM46.7873 85.6463C35.9116 75.6816 22.4046 72.3772 17.4552 71.4649L20.252 39.0537C20.7878 39.0156 21.4537 38.9859 22.2261 38.9859 31.382 39.0001 40.1208 42.8167 46.3535 49.5238L46.8035 49.9991 46.8035 85.6395C46.8035 85.6512 46.796 85.6543 46.7871 85.6461ZM48.7951 50.0001 49.2456 49.5243C55.4782 42.8167 64.217 38.9998 73.3731 38.9857 74.1455 38.9857 74.8114 39.0156 75.3472 39.0535L78.1439 71.4647C73.1947 72.377 59.6872 75.6814 48.8116 85.6461 48.8026 85.6543 48.7951 85.6512 48.7951 85.639ZM48.7951 88.6755 48.7951 88.3985C61.9055 75.3726 80.2874 73.1385 80.2874 73.1385L77.9309 45.8296C78.7358 45.7608 79.436 45.7235 80.001 45.7083L82.85 76.1427C76.8894 76.322 61.8459 77.9208 48.8114 88.6826 48.8025 88.6899 48.7951 88.6866 48.7951 88.675ZM85.6893 80.2783C78.3103 80.2783 64.0129 81.4732 51.1629 89.481 51.0389 89.5664 50.9015 89.6304 50.7563 89.6702 50.7344 89.6371 50.9767 89.492 51.0866 89.406 64.6321 78.8166 80.228 78.1152 84.1202 78.1154 84.7141 78.1154 85.0364 78.1318 85.0364 78.1318L82.3712 49.6599C83.3013 49.611 84.084 49.5902 84.6842 49.5848L87.5294 80.3043C86.9963 80.2884 86.3795 80.2778 85.6893 80.2778Z" transform="matrix(1.0121 0 0 1 983.229 327.344)"/><path d="M73.6046 14.0902C74.3507 11.4657 76.1894 9.28857 78.6521 8.11364 76.1902 6.93929 74.3517 4.76365 73.6046 2.14041 72.8596 4.76486 71.0204 6.94131 68.557 8.11364 71.0212 9.28655 72.8606 11.4645 73.6046 14.0902ZM73.6058 6.49523C74.0397 7.08034 74.5288 7.62241 75.0663 8.11393 74.5287 8.6055 74.0397 9.14763 73.6058 9.73284 73.172 9.14752 72.6828 8.60537 72.145 8.11393 72.6827 7.62252 73.172 7.08044 73.6058 6.49523Z" transform="matrix(1.0121 0 0 1 983.229 327.344)"/><path d="M9.88978 35.9983C10.6359 33.3736 12.4745 31.1965 14.9373 30.0217 12.4754 28.8474 10.6369 26.6717 9.88978 24.0484 9.14473 26.6729 7.3055 28.8494 4.84207 30.0217 7.30637 31.1945 9.14576 33.3725 9.88978 35.9983ZM9.89097 28.4035C10.3249 28.9885 10.814 29.5305 11.3515 30.022 10.8139 30.5135 10.3248 31.0556 9.89097 31.6409 9.45723 31.0555 8.96805 30.5134 8.43021 30.022 8.96789 29.5305 9.45707 28.9885 9.89097 28.4035Z" transform="matrix(1.0121 0 0 1 983.229 327.344)"/><path d="M19.6933 14.0902C20.3152 11.9031 21.8474 10.0889 23.8997 9.10995 21.8482 8.13118 20.3161 6.3181 19.6933 4.13205 19.0724 6.31908 17.5398 8.13283 15.487 9.10995 17.5406 10.0873 19.0733 11.9021 19.6933 14.0902ZM19.6943 8.30185C19.924 8.5847 20.1692 8.85449 20.429 9.10995 20.1692 9.36557 19.924 9.63553 19.6943 9.91856 19.4647 9.63552 19.2194 9.36556 18.9596 9.10995 19.2194 8.85449 19.4647 8.5847 19.6943 8.30185Z" transform="matrix(1.0121 0 0 1 983.229 327.344)"/><path d="M85.4174 30.0233C86.0393 27.8362 87.5714 26.022 89.6237 25.0431 87.5722 24.0643 86.0402 22.2512 85.4174 20.0652 84.7965 22.2522 83.2638 24.066 81.211 25.0431 83.2646 26.0205 84.7974 27.8352 85.4174 30.0233ZM85.4184 24.235C85.648 24.5178 85.8933 24.7876 86.1531 25.0431 85.8933 25.2987 85.648 25.5687 85.4184 25.8517 85.1887 25.5687 84.9435 25.2987 84.6837 25.0431 84.9435 24.7876 85.1887 24.5178 85.4184 24.235Z" transform="matrix(1.0121 0 0 1 983.229 327.344)"/><path d="M47.7993 9.11115C48.3493 9.11115 48.7951 8.6653 48.7951 8.11533L48.7951 4.13205C48.7951 3.58208 48.3493 3.13623 47.7993 3.13623 47.2493 3.13623 46.8035 3.58208 46.8035 4.13205L46.8035 8.11533C46.8035 8.6653 47.2493 9.11115 47.7993 9.11115Z" transform="matrix(1.0121 0 0 1 983.229 327.344)"/><path d="M47.7993 38.9857C48.3493 38.9857 48.7951 38.5399 48.7951 37.9899L48.7951 28.0317C48.7951 27.4817 48.3493 27.0359 47.7993 27.0359 47.2493 27.0359 46.8035 27.4817 46.8035 28.0317L46.8035 37.9899C46.8035 38.5399 47.2493 38.9857 47.7993 38.9857Z" transform="matrix(1.0121 0 0 1 983.229 327.344)"/><path d="M47.7993 23.0526C48.3493 23.0526 48.7951 22.6068 48.7951 22.0568L48.7951 14.0902C48.7951 13.5403 48.3493 13.0944 47.7993 13.0944 47.2493 13.0944 46.8035 13.5403 46.8035 14.0902L46.8035 22.0568C46.8035 22.6068 47.2493 23.0526 47.7993 23.0526Z" transform="matrix(1.0121 0 0 1 983.229 327.344)"/><path d="M61.5025 18.369C62.0398 18.4863 62.5705 18.1458 62.6878 17.6086 62.6879 17.6083 62.6879 17.6081 62.688 17.6078L63.9581 11.7692C64.075 11.2315 63.734 10.7009 63.1964 10.584 62.6587 10.4671 62.1281 10.808 62.0112 11.3457L60.7411 17.1843C60.6242 17.7217 60.965 18.2521 61.5025 18.369Z" transform="matrix(1.0121 0 0 1 983.229 327.344)"/><path d="M58.5423 31.9924C59.079 32.1096 59.609 31.7695 59.7262 31.2329 59.7264 31.2322 59.7265 31.2314 59.7267 31.2307L61.4189 23.446C61.5358 22.9083 61.1946 22.3778 60.657 22.2609 60.1194 22.1441 59.5888 22.4853 59.472 23.0229L57.7799 30.8077C57.6631 31.3451 58.0042 31.8755 58.5416 31.9922 58.5418 31.9923 58.5421 31.9923 58.5423 31.9924Z" transform="matrix(1.0121 0 0 1 983.229 327.344)"/><path d="M68.7105 30.0233C69.0382 30.0238 69.3451 29.8631 69.5313 29.5936L76.3228 19.7615C76.6354 19.3087 76.5217 18.6883 76.0689 18.3758 75.6161 18.0632 74.9957 18.1768 74.6831 18.6296L67.8917 28.4616C67.5791 28.9141 67.6926 29.5344 68.1451 29.8469 68.3113 29.9617 68.5085 30.0233 68.7104 30.0233Z" transform="matrix(1.0121 0 0 1 983.229 327.344)"/><path d="M33.7567 21.4997 35.8719 31.2306C35.9887 31.7682 36.5192 32.1093 37.0568 31.9925 37.5945 31.8757 37.9355 31.3452 37.8187 30.8076L35.7036 21.0767C35.5868 20.5391 35.0562 20.1979 34.5187 20.3147 33.981 20.4316 33.6399 20.9621 33.7567 21.4997Z" transform="matrix(1.0121 0 0 1 983.229 327.344)"/><path d="M32.4876 15.6615C32.6045 16.1992 33.1352 16.5402 33.6728 16.4233 34.2105 16.3063 34.5514 15.7757 34.4345 15.238L33.5875 11.3457C33.4706 10.808 32.9399 10.4671 32.4023 10.584 31.8646 10.7009 31.5237 11.2315 31.6406 11.7692Z" transform="matrix(1.0121 0 0 1 983.229 327.344)"/><path d="M19.5293 18.3762C19.0771 18.6889 18.9635 19.3088 19.2755 19.7615L26.067 29.5936C26.3795 30.0463 26.9999 30.1599 27.4526 29.8474 27.9054 29.5348 28.0191 28.9143 27.7065 28.4616L20.915 18.6296C20.6025 18.177 19.9823 18.0635 19.5297 18.3759 19.5296 18.376 19.5294 18.3762 19.5293 18.3762Z" transform="matrix(1.0121 0 0 1 983.229 327.344)"/></g></g></g></g></svg>