<svg width="97" height="97" xmlns="http://www.w3.org/2000/svg" xmlns:xlink="http://www.w3.org/1999/xlink" overflow="hidden"><defs><clipPath id="clip0"><rect x="493" y="189" width="97" height="97"/></clipPath><clipPath id="clip1"><rect x="493" y="190" width="96" height="96"/></clipPath><clipPath id="clip2"><rect x="493" y="190" width="96" height="96"/></clipPath><clipPath id="clip3"><rect x="493" y="190" width="96" height="96"/></clipPath></defs><g clip-path="url(#clip0)" transform="translate(-493 -189)"><rect x="503.5" y="216.5" width="77" height="52" stroke="#FFFFFF" stroke-width="1.33333" stroke-miterlimit="8" fill="#FFFFFF"/><rect x="538" y="229" width="7" height="28" fill="#002060"/><path d="M551.718 233.009 554.956 238.674 530.815 252.469 527.578 246.804Z" fill="#002060" fill-rule="evenodd"/><path d="M555.063 246.502 551.902 252.21 527.578 238.743 530.738 233.034Z" fill="#002060" fill-rule="evenodd"/><g clip-path="url(#clip1)"><g clip-path="url(#clip2)"><g clip-path="url(#clip3)"><path d="M577 214.984 554 214.984 554 209C553.997 206.24 551.76 204.003 549 204L533 204C530.24 204.003 528.003 206.24 528 209L528 214.984 505 214.984C502.794 214.991 501.007 216.778 501 218.984L501 267C501.007 269.206 502.794 270.993 505 271L577 271C579.206 270.993 580.993 269.206 581 267L581 218.985C580.993 216.778 579.207 214.991 577 214.984ZM530 209C530 207.343 531.343 206 533 206L549 206C550.657 206 552 207.343 552 209L552 214.977 530 214.977ZM579 267C579 268.105 578.105 269 577 269L505 269C503.895 269 503 268.105 503 267L503 218.985C503 217.88 503.895 216.985 505 216.985L577 216.985C578.105 216.985 579 217.88 579 218.985Z"/><path d="M545.731 258 536.265 258 536.265 251.191 530.365 254.563 525.632 246.363 531.516 243 525.634 239.639 530.359 231.369 536.265 234.744 536.265 228 545.731 228 545.731 234.809 551.631 231.437 556.364 239.637 550.48 243 556.362 246.361 551.637 254.631 545.731 251.256ZM538.265 256 543.731 256 543.731 247.81 550.893 251.9 553.634 247.1 546.449 243 553.63 238.9 550.9 234.161 543.735 238.255 543.735 230 538.265 230 538.265 238.19 531.1 234.1 528.358 238.9 535.547 243 528.366 247.1 531.1 251.839 538.265 247.745Z"/></g></g></g></g></svg>