<svg width="96" height="96" xmlns="http://www.w3.org/2000/svg" xmlns:xlink="http://www.w3.org/1999/xlink" overflow="hidden"><defs><clipPath id="clip0"><rect x="530" y="302" width="96" height="96"/></clipPath></defs><g clip-path="url(#clip0)" transform="translate(-530 -302)"><path d="M618 349C618 345.7 615.3 343 612 343L593 343C591.4 343 590.1 341.7 590 340.1 590.1 338.3 593 334.7 593 321 593 317.7 590.3 315 587 315 583.7 315 581 317.7 581 321 581 336.2 563.3 344.8 563 345L563 377C570.1 377 570.6 385 584 385 588.5 385 602 385 602 385 605.3 385 608 382.3 608 379 608 377.4 607.4 376 606.4 375 606.6 375 606.8 375 607 375 610.3 375 613 372.3 613 369 613 367.4 612.4 365.9 611.3 364.8 614 364.2 616 361.8 616 359 616 357.3 615.3 355.7 614.1 354.6 616.4 353.8 618 351.6 618 349Z" fill="#F2F2F2"/><path d="M553 340 538 340 538 382 553 382C555.2 382 557 380.2 557 378L557 344C557 341.8 555.2 340 553 340Z" fill="#F2F2F2"/></g></svg>