<svg width="97" height="98" xmlns="http://www.w3.org/2000/svg" xmlns:xlink="http://www.w3.org/1999/xlink" overflow="hidden"><defs><clipPath id="clip0"><rect x="885" y="241" width="97" height="98"/></clipPath><clipPath id="clip1"><rect x="885" y="242" width="96" height="96"/></clipPath><clipPath id="clip2"><rect x="885" y="242" width="96" height="96"/></clipPath><clipPath id="clip3"><rect x="885" y="242" width="96" height="96"/></clipPath></defs><g clip-path="url(#clip0)" transform="translate(-885 -241)"><rect x="897.5" y="262.5" width="72" height="58" stroke="#FFFFFF" stroke-width="1.33333" stroke-miterlimit="8" fill="#FFFFFF"/><g clip-path="url(#clip1)"><g clip-path="url(#clip2)"><g clip-path="url(#clip3)"><path d="M963 307.6 949.31 285.78C949.065 285.38 948.629 285.137 948.16 285.14 947.689 285.14 947.251 285.382 947 285.78L943 292.2 951.58 306.08C952.306 307.178 952.462 308.557 952 309.79L961.7 309.79C962.494 309.83 963.17 309.218 963.21 308.424 963.224 308.134 963.151 307.847 963 307.6Z"/><path d="M948.1 307.73 926.35 272.34C926.071 271.979 925.636 271.775 925.18 271.79L925 271.79 924.82 271.79C924.364 271.775 923.929 271.979 923.65 272.34L901.9 307.73C901.592 308.161 901.549 308.728 901.79 309.2 902.033 309.628 902.513 309.862 903 309.79L947 309.79C947.487 309.862 947.967 309.628 948.21 309.2 948.451 308.728 948.408 308.161 948.1 307.73ZM928.64 288.92 925.18 292 921.72 288.92 916 292.38 925 277.79 933.76 292Z"/><path d="M915 274C915 275.657 913.657 277 912 277 910.343 277 909 275.657 909 274 909 272.343 910.343 271 912 271 913.657 271 915 272.343 915 274Z"/><path d="M899 316 899 266 967 266 967 316ZM973 322 973 260 893 260 893 322Z"/></g></g></g></g></svg>