<svg width="97" height="97" xmlns="http://www.w3.org/2000/svg" xmlns:xlink="http://www.w3.org/1999/xlink" overflow="hidden"><defs><clipPath id="clip0"><rect x="670" y="205" width="97" height="97"/></clipPath><clipPath id="clip1"><rect x="671" y="205" width="96" height="96"/></clipPath><clipPath id="clip2"><rect x="671" y="205" width="96" height="96"/></clipPath><clipPath id="clip3"><rect x="671" y="205" width="96" height="96"/></clipPath></defs><g clip-path="url(#clip0)" transform="translate(-670 -205)"><rect x="694.5" y="220.5" width="33" height="65" stroke="#FFFFFF" stroke-width="1.33333" stroke-miterlimit="8" fill="#FFFFFF"/><g clip-path="url(#clip1)"><g clip-path="url(#clip2)"><g clip-path="url(#clip3)"><path d="M707.315 296 681 285.1 681 219.999 707.315 209.099 707.315 296Z"/><path d="M734.068 230.866 734.068 243.366 711.315 243.366 711.315 259.366 734.068 259.366 734.068 271.866 758.068 251.366 734.068 230.866Z"/><path d="M722.068 239.366 728.068 239.366 728.068 219.366 711.315 219.366 711.315 225.366 722.068 225.366 722.068 239.366Z"/><path d="M722.068 263.366 722.068 279.366 711.315 279.366 711.315 285.366 728.068 285.366 728.068 263.366 722.068 263.366Z"/></g></g></g></g></svg>