<svg width="98" height="97" xmlns="http://www.w3.org/2000/svg" xmlns:xlink="http://www.w3.org/1999/xlink" overflow="hidden"><defs><clipPath id="clip0"><rect x="722" y="101" width="98" height="97"/></clipPath><clipPath id="clip1"><rect x="723" y="101" width="96" height="96"/></clipPath><clipPath id="clip2"><rect x="723" y="101" width="96" height="96"/></clipPath><clipPath id="clip3"><rect x="723" y="101" width="96" height="96"/></clipPath></defs><g clip-path="url(#clip0)" transform="translate(-722 -101)"><rect x="753.5" y="135.5" width="35" height="39" stroke="#FFFFFF" stroke-width="1.33333" stroke-miterlimit="8" fill="#FFFFFF"/><g clip-path="url(#clip1)"><g clip-path="url(#clip2)"><g clip-path="url(#clip3)"><path d="M769 115 773 115 773 127 769 127Z"/><path d="M800.909 121.97 792.919 129.96 790.09 127.132 798.081 119.141Z"/><path d="M751.859 127.081 749.031 129.91 741.041 121.919 743.869 119.091Z"/><path d="M795 143 805 143 805 147 795 147Z"/><path d="M737 143 747 143 747 147 737 147Z"/><path d="M755 171 758.4 137 783.5 137 787 171 755 171ZM799 171 793 171 789.4 134.6C789.2 132.6 787.5 131 785.4 131L756.6 131C754.5 131 752.8 132.6 752.6 134.6L749 171 743 171 743 177 737 177 737 183 805 183 805 177 799 177 799 171Z"/><path d="M775.8 141 778.3 167 782.4 167 779.8 141Z"/></g></g></g></g></svg>