<svg width="98" height="97" xmlns="http://www.w3.org/2000/svg" xmlns:xlink="http://www.w3.org/1999/xlink" overflow="hidden"><defs><clipPath id="clip0"><rect x="524" y="245" width="98" height="97"/></clipPath><clipPath id="clip1"><rect x="525" y="246" width="96" height="96"/></clipPath><clipPath id="clip2"><rect x="525" y="246" width="96" height="96"/></clipPath><clipPath id="clip3"><rect x="525" y="246" width="96" height="96"/></clipPath></defs><g clip-path="url(#clip0)" transform="translate(-524 -245)"><rect x="548.5" y="257.5" width="32" height="75" stroke="#FFFFFF" stroke-width="1.33333" stroke-miterlimit="8" fill="#FFFFFF"/><rect x="570.5" y="278.5" width="33" height="54" stroke="#FFFFFF" stroke-width="1.33333" stroke-miterlimit="8" fill="#FFFFFF"/><path d="M554.895 280.843 577.041 257.346 598.889 277.936 576.743 301.434Z" stroke="#FFFFFF" stroke-width="1.33333" stroke-miterlimit="8" fill="#FFFFFF" fill-rule="evenodd"/><g clip-path="url(#clip1)"><g clip-path="url(#clip2)"><g clip-path="url(#clip3)"><path d="M548 328 548 260 573 260 573 281 598 281 598 328 548 328ZM579 262.5 591.5 275 579 275 579 262.5ZM579 254 542 254 542 334 604 334 604 276 579 254Z"/><path d="M554 291 592 291 592 295 554 295Z"/><path d="M554 283 567 283 567 287 554 287Z"/><path d="M554 299 592 299 592 303 554 303Z"/><path d="M554 307 592 307 592 311 554 311Z"/><path d="M554 315 592 315 592 319 554 319Z"/></g></g></g></g></svg>