<svg width="558" height="455" xmlns="http://www.w3.org/2000/svg" xmlns:xlink="http://www.w3.org/1999/xlink" overflow="hidden"><defs><clipPath id="clip0"><rect x="2934" y="1225" width="558" height="455"/></clipPath><linearGradient x1="258.5" y1="-20.625" x2="258.5" y2="256.625" gradientUnits="userSpaceOnUse" spreadMethod="reflect" id="stroke1"><stop offset="0" stop-color="#F6F8FC"/><stop offset="0.79"/><stop offset="1"/></linearGradient></defs><g clip-path="url(#clip0)" transform="translate(-2934 -1225)"><path d="M0 118C-3.29105e-14 52.8303 115.734-1.5023e-14 258.5-3.00459e-14 401.266-6.00918e-14 517 52.8303 517 118 517 183.169 401.266 236 258.5 236 115.734 236-1.64552e-13 183.169 0 118Z" stroke="url(#stroke1)" stroke-width="41.25" stroke-miterlimit="8" fill="none" fill-rule="evenodd" transform="matrix(1 0 0 -1 2954.5 1562.5)"/><path d="M3045.5 1508.59 3257.33 1508.59 3257.33 1424.5 3425.5 1542 3257.33 1659.5 3257.33 1575.41 3045.5 1575.41Z" stroke="#FFFFFF" stroke-width="20.625" stroke-miterlimit="8" fill="#D9D9D9" fill-rule="evenodd"/><path d="M0 60.4708 138.058 60.4708 138.058 0 259 84.5002 138.058 169 138.058 108.529 0 108.529Z" stroke="#FFFFFF" stroke-width="20.625" stroke-miterlimit="8" fill-rule="evenodd" transform="matrix(-1 0 0 1 3311.5 1245.5)"/></g></svg>