<svg height='300px' width='300px'  fill="#1A1A1A" xmlns="http://www.w3.org/2000/svg" xmlns:xlink="http://www.w3.org/1999/xlink" version="1.1" x="0px" y="0px" viewBox="0 0 100 100" enable-background="new 0 0 100 100" xml:space="preserve"><g><g><path fill="#1A1A1A" d="M52.027,48.54c-0.004-0.041-0.009-0.082-0.016-0.126c-0.006-0.047-0.014-0.092-0.028-0.164l-1.221-5.299    l8.587-12.139c0.006-0.013,0.014-0.022,0.021-0.031l0.025-0.041c0.043-0.061,0.08-0.123,0.117-0.18l0.042-0.079    c0.03-0.054,0.057-0.106,0.084-0.167c0.016-0.028,0.028-0.057,0.033-0.069l0.049-0.119c0.023-0.063,0.047-0.126,0.065-0.189    c0.01-0.028,0.02-0.06,0.028-0.101c0.016-0.06,0.032-0.116,0.046-0.186c0.008-0.035,0.013-0.069,0.018-0.104l-0.989-0.154    l0.998,0.11c0.007-0.044,0.013-0.088,0.02-0.139c0.003-0.047,0.006-0.095,0.01-0.139l-0.999-0.057l1.002,0.013    c0.001-0.035,0.003-0.069,0.003-0.101c0-0.057,0-0.11-0.003-0.177c-0.003-0.035-0.003-0.069-0.008-0.12    c-0.005-0.053-0.012-0.106-0.022-0.186c-0.005-0.031-0.01-0.062-0.016-0.095c-0.008-0.041-0.016-0.082-0.03-0.142l-0.008-0.034    c-0.009-0.035-0.019-0.073-0.026-0.104c-0.016-0.05-0.031-0.101-0.041-0.129c-0.016-0.048-0.033-0.098-0.06-0.164    c-0.017-0.038-0.032-0.079-0.041-0.095c-0.022-0.05-0.044-0.098-0.079-0.17l-0.054-0.098c-0.025-0.044-0.052-0.091-0.085-0.145    c-0.019-0.028-0.038-0.057-0.069-0.098c-0.028-0.044-0.059-0.085-0.101-0.142c-0.027-0.032-0.054-0.063-0.082-0.095l-0.753,0.658    l0.727-0.69c-0.027-0.031-0.054-0.062-0.071-0.081c-0.044-0.045-0.09-0.089-0.141-0.136c-0.029-0.028-0.06-0.057-0.073-0.066    c-0.056-0.05-0.114-0.095-0.156-0.126c-0.021-0.016-0.039-0.031-0.06-0.044l-0.068-0.047c-0.034-0.025-0.075-0.048-0.124-0.079    c-0.035-0.022-0.071-0.044-0.097-0.057c-0.029-0.02-0.061-0.035-0.118-0.063c-0.036-0.016-0.07-0.034-0.105-0.05l-17.965-7.591    L33.241,6.519C32.709,5.581,31.707,5,30.63,5c-0.521,0-1.033,0.137-1.485,0.394c-0.698,0.397-1.199,1.043-1.41,1.817    c-0.213,0.772-0.11,1.582,0.286,2.281l7.479,13.123c0.392,0.687,1.047,1.197,1.812,1.408l15.001,6.335l-7.232,10.221    c-0.014,0.021-0.029,0.044-0.044,0.069l-0.08,0.126c-0.022,0.037-0.041,0.072-0.076,0.135c-0.021,0.041-0.042,0.086-0.062,0.126    c-0.021,0.045-0.041,0.089-0.063,0.143c-0.016,0.041-0.031,0.081-0.057,0.154c-0.016,0.041-0.028,0.082-0.044,0.132    c-0.013,0.041-0.022,0.079-0.034,0.129c-0.01,0.041-0.021,0.086-0.032,0.143c-0.009,0.047-0.017,0.094-0.024,0.147    c-0.007,0.048-0.013,0.092-0.017,0.126c-0.006,0.051-0.009,0.102-0.011,0.151l-0.002,0.038c-0.001,0.038-0.003,0.075-0.003,0.113    c0,0.051,0.003,0.101,0.005,0.157c0.003,0.048,0.007,0.092,0.011,0.139c0.004,0.048,0.01,0.098,0.02,0.148    c0.006,0.044,0.013,0.085,0.023,0.142l0.874,3.79l-21.093,5.709l-0.057,0.019c-0.049,0.016-0.098,0.031-0.145,0.048l-0.036,0.012    c-0.033,0.013-0.064,0.022-0.087,0.032c-0.054,0.021-0.107,0.047-0.147,0.065c-0.045,0.022-0.089,0.041-0.118,0.057    c-0.048,0.025-0.094,0.051-0.125,0.069c-0.05,0.032-0.101,0.061-0.145,0.092c-0.038,0.025-0.076,0.051-0.121,0.085    c-0.04,0.028-0.078,0.057-0.107,0.079c-0.03,0.025-0.062,0.05-0.09,0.078l0.665,0.747l-0.693-0.722    c-0.031,0.028-0.064,0.057-0.11,0.101c-0.025,0.025-0.047,0.051-0.074,0.079c-0.036,0.038-0.072,0.079-0.108,0.12    c-0.028,0.034-0.054,0.065-0.08,0.101l0.795,0.608l-0.822-0.574c-0.021,0.032-0.044,0.061-0.066,0.092    c-0.026,0.038-0.052,0.079-0.075,0.116l0.851,0.526l-0.869-0.498c-0.021,0.035-0.041,0.066-0.057,0.095    c-0.025,0.048-0.048,0.095-0.079,0.154c-0.016,0.032-0.031,0.063-0.051,0.107c-0.019,0.041-0.034,0.085-0.052,0.129l-0.052,0.139    c-0.016,0.048-0.028,0.095-0.051,0.177c-0.009,0.041-0.021,0.078-0.025,0.101c-0.011,0.044-0.019,0.092-0.031,0.164    c-0.01,0.05-0.016,0.101-0.023,0.157l-0.011,0.11c-0.004,0.051-0.007,0.101-0.008,0.164l-0.002,0.069    c0,12.224,9.946,22.17,22.17,22.17c1.657,0,3.004-1.349,3.004-3.003c0-1.657-1.347-3.005-3.004-3.005    c-8.021,0-14.896-6.043-16.005-13.906l21.483-5.816c0.04-0.009,0.079-0.021,0.129-0.037c0.043-0.017,0.086-0.028,0.127-0.041    c0.047-0.02,0.096-0.038,0.132-0.057c0.051-0.02,0.101-0.041,0.151-0.063c0.038-0.019,0.075-0.041,0.142-0.075    c0.039-0.022,0.079-0.045,0.103-0.061c0.046-0.024,0.091-0.057,0.134-0.085c0.038-0.025,0.074-0.054,0.12-0.085    c0.041-0.031,0.08-0.062,0.109-0.088c0.038-0.031,0.076-0.063,0.123-0.107c0.033-0.031,0.064-0.062,0.095-0.091    c0.033-0.035,0.066-0.069,0.101-0.107c0.035-0.038,0.066-0.079,0.087-0.101c0.03-0.035,0.057-0.073,0.096-0.123    c0.028-0.038,0.056-0.079,0.076-0.11c0.026-0.038,0.052-0.079,0.091-0.142l0.074-0.136c0.018-0.035,0.036-0.069,0.052-0.104    c0.021-0.041,0.038-0.086,0.061-0.133c0.019-0.047,0.037-0.095,0.044-0.116c0.019-0.045,0.033-0.089,0.051-0.148    c0.016-0.047,0.029-0.098,0.04-0.136c0.013-0.054,0.025-0.106,0.033-0.147c0.012-0.054,0.021-0.104,0.027-0.139    c0.008-0.051,0.013-0.104,0.019-0.154c0.007-0.051,0.01-0.098,0.013-0.154c0.003-0.051,0.003-0.102,0.003-0.139    c0.002-0.051,0.002-0.102,0-0.143C52.037,48.666,52.034,48.619,52.027,48.54z M58.893,28.705L58.893,28.705L58.893,28.705    L58.893,28.705z M23.286,54.607L23.286,54.607L23.286,54.607L23.286,54.607z"></path><path fill="#1A1A1A" d="M29.76,25.637c0.451-0.665,0.614-1.466,0.46-2.253c-0.151-0.788-0.602-1.469-1.267-1.916    c-0.499-0.337-1.08-0.517-1.679-0.517c-1.002,0-1.933,0.495-2.492,1.323c-1.329,1.97-3.112,3.415-5.023,4.077    c-1.599,0.555-3.083,0.46-4.158-0.268c-0.5-0.338-1.079-0.514-1.68-0.514c-1,0-1.933,0.494-2.492,1.323    c-0.926,1.373-0.563,3.241,0.809,4.171c0.652,0.441,1.357,0.8,2.095,1.067c1.081,0.392,2.235,0.59,3.431,0.59    c0.002,0,0.002,0,0.002,0c1.296,0,2.629-0.233,3.959-0.693C24.854,30.944,27.709,28.677,29.76,25.637z"></path><path fill="#1A1A1A" d="M62.27,54.844c-0.617-0.617-1.437-0.957-2.309-0.957c-0.873,0-1.692,0.34-2.31,0.957    c-0.617,0.615-0.955,1.438-0.955,2.31c0,0.873,0.338,1.692,0.955,2.31c1.729,1.727,2.681,4.023,2.681,6.465    c0,2.438-0.951,4.735-2.681,6.465c-0.617,0.617-0.955,1.437-0.955,2.31c0,0.872,0.338,1.691,0.955,2.309    c0.617,0.614,1.437,0.955,2.31,0.955c0.872,0,1.691-0.341,2.309-0.955c2.962-2.961,4.594-6.899,4.594-11.083    S65.231,57.806,62.27,54.844z"></path><path fill="#1A1A1A" d="M69.754,47.797c-0.616-0.614-1.437-0.955-2.308-0.955c-0.873,0-1.693,0.341-2.31,0.955    c-0.617,0.617-0.958,1.437-0.958,2.309c0,0.873,0.341,1.692,0.958,2.31c3.903,3.903,6.052,9.086,6.052,14.6    c0,5.51-2.148,10.695-6.052,14.6c-1.272,1.272-1.272,3.343,0,4.618c0.616,0.614,1.437,0.955,2.31,0.955    c0.871,0,1.691-0.341,2.308-0.955c5.137-5.139,7.966-11.962,7.966-19.218S74.891,52.935,69.754,47.797z"></path><path fill="#1A1A1A" d="M77.878,39.986c-0.616-0.617-1.438-0.958-2.309-0.958c-0.872,0-1.691,0.341-2.308,0.958    c-1.272,1.272-1.272,3.343,0,4.615c5.991,5.992,9.291,13.954,9.291,22.413s-3.3,16.42-9.291,22.409    c-1.274,1.276-1.272,3.346-0.001,4.619C73.876,94.66,74.697,95,75.571,95c0.871,0,1.691-0.34,2.307-0.957    c7.227-7.225,11.206-16.824,11.206-27.028S85.104,47.211,77.878,39.986z"></path></g></g></svg>