<svg width="819" height="1473" xmlns="http://www.w3.org/2000/svg" xmlns:xlink="http://www.w3.org/1999/xlink" overflow="hidden"><defs><clipPath id="clip0"><rect x="645" y="-243" width="819" height="1473"/></clipPath><clipPath id="clip1"><rect x="646" y="-242" width="817" height="1471"/></clipPath><clipPath id="clip2"><rect x="646" y="-242" width="817" height="1471"/></clipPath><clipPath id="clip3"><rect x="646" y="-242" width="817" height="1471"/></clipPath><clipPath id="clip4"><rect x="624" y="-270" width="796" height="823"/></clipPath><clipPath id="clip5"><rect x="624" y="-270" width="796" height="823"/></clipPath><clipPath id="clip6"><rect x="624" y="-270" width="796" height="823"/></clipPath><clipPath id="clip7"><rect x="624" y="-270" width="796" height="823"/></clipPath><clipPath id="clip8"><rect x="1014" y="373" width="141" height="86"/></clipPath><clipPath id="clip9"><rect x="1013" y="372" width="142" height="87"/></clipPath><clipPath id="clip10"><rect x="-1294" y="-1458" width="7639" height="2244"/></clipPath><clipPath id="clip11"><rect x="-1294" y="-1458" width="7639" height="2244"/></clipPath><clipPath id="clip12"><rect x="-1294" y="-1458" width="7639" height="2244"/></clipPath><clipPath id="clip13"><rect x="-1294" y="-1458" width="7639" height="2244"/></clipPath></defs><g clip-path="url(#clip0)" transform="translate(-645 243)"><g clip-path="url(#clip1)"><g clip-path="url(#clip2)"><g clip-path="url(#clip3)"><path d="M933.957 1136.28C896.883 1155.45 861.585 1214.74 861.182 1222.86 860.78 1230.98 838.316 1349.74 842.106 1361.6 847.39 1378.14 850.545 1396.6 878.244 1398.65 905.945 1400.7 910.558 1378.65 919.354 1362.72 953.146 1301.49 959.1 1167.78 951.993 1155.48 944.887 1143.18 940.999 1132.63 933.957 1136.28Z" stroke="#1A1919" stroke-width="8.04558" fill="#FFFFFF" transform="matrix(1 0 0 1.02846 303.325 -521.207)"/><path d="M645.952 1105.06C644.512 1134.15 641.623 1142.69 646.448 1149.84 665.401 1177.9 708.407 1214.84 744.056 1219.09 760.908 1221.1 797.93 1212.94 799.144 1202.16 800.357 1191.37 785.603 1105.87 785.603 1105.87L645.954 1105.06Z" stroke="#1A1919" stroke-width="8.04558" fill="#666666" transform="matrix(1 0 0 1.02846 303.325 -521.207)"/><path d="M554.611 676.371C554.611 700.441 535.527 719.954 511.986 719.954 488.444 719.954 469.36 700.441 469.36 676.371 469.36 652.301 488.444 632.788 511.986 632.788 535.527 632.788 554.611 652.301 554.611 676.371Z" stroke="#1A1919" stroke-width="8.04614" fill="#1A1A1A" transform="matrix(0.998706 0.0508598 -0.0494523 1.02713 494.576 -18.7483)"/><path d="M554.611 676.371C554.611 700.441 535.527 719.954 511.986 719.954 488.444 719.954 469.36 700.441 469.36 676.371 469.36 652.301 488.444 632.788 511.986 632.788 535.527 632.788 554.611 652.301 554.611 676.371Z" stroke="#1A1919" stroke-width="8.04614" fill="#1A1A1A" transform="matrix(0.998706 0.0508598 -0.0494523 1.02713 552.298 -42.4412)"/><path d="M677.062 1052.36C663.095 1041.75 634.777 1047.37 631.446 1069.77 628.982 1086.34 633.441 1139.03 646.434 1150.53 659.427 1162.02 636.268 1109.34 671.443 1111.08 693.258 1112.16 778.474 1242.87 810.777 1227.83 822.265 1222.48 694.682 1043.39 677.064 1052.36Z" stroke="#1A1919" stroke-width="8.04558" fill="#999999" transform="matrix(1 0 0 1.02846 303.325 -521.207)"/><path d="M380.195 463.663C380.195 480.164 367.113 493.54 350.975 493.54 334.836 493.54 321.754 480.164 321.754 463.663 321.754 447.163 334.837 433.786 350.975 433.786 367.113 433.786 380.195 447.163 380.195 463.663Z" stroke="#1A1919" stroke-width="8.04614" fill="#1A1A1A" transform="matrix(-0.998706 0.0508599 0.0494525 1.02713 1189.97 676.935)"/><path d="M820.917 1639.26C824.272 1653.67 826.673 1660.73 835.169 1666.41 858.4 1671.21 940.386 1677.59 958.99 1671.86 966.562 1667.28 969.745 1665.66 969.398 1653.39 969.038 1640.65 965.876 1627.79 961.77 1615.72 956.426 1600.02 938.164 1605.1 927.74 1604.54 895.129 1602.78 870.984 1625.99 837.686 1629.24 826.072 1630.37 819.83 1634.6 820.916 1639.26Z" stroke="#1A1919" stroke-width="8.04558" fill="#FFFFFF" transform="matrix(-1 0 0 1.02846 1830.56 -514.85)"/><path d="M462.078 563.523C462.078 583.577 446.178 599.835 426.564 599.835 406.95 599.835 391.05 583.577 391.05 563.523 391.05 543.468 406.95 527.211 426.564 527.211 446.178 527.211 462.078 543.468 462.078 563.523Z" stroke="#1A1919" stroke-width="8.04614" fill="#1A1A1A" transform="matrix(-0.998706 0.0508591 0.0494516 1.02713 1329.45 316.357)"/><path d="M932.563 1358.63C930.496 1397.58 865.447 1467.87 858.956 1475.69 852.467 1483.5 844.389 1495.99 843.009 1510.16 841.629 1524.33 826.027 1592.93 825.2 1609.64 824.329 1627.23 833.867 1629.68 846.517 1631.04 869.821 1633.54 903.936 1616.08 923.819 1603.67 936.304 1595.88 952.738 1586.57 954.548 1571.97 960.942 1520.33 959.751 1428.16 954.309 1357.67 953.306 1344.68 933.637 1338.39 932.563 1358.63Z" stroke="#1A1919" stroke-width="8.04558" fill="#FFFFFF" transform="matrix(-1 0 0 1.02846 1830.56 -514.85)"/><path d="M971.611 1608.74C970.304 1635.12 979.952 1678.63 992.546 1678.94 1019.64 1679.61 1093.47 1686.8 1113.36 1690.35 1138.92 1694.92 1145.67 1679.17 1151.9 1665.13 1158.64 1649.96 1155.89 1627.69 1144.17 1615.93 1110.49 1582.16 1057.31 1591.78 1009.65 1593.67 999.301 1594.08 972.12 1598.39 971.608 1608.74Z" stroke="#1A1919" stroke-width="8.04558" fill="#FFFFFF" transform="matrix(-1 0 0 1.02846 1830.56 -514.85)"/><path d="M901.614 1423.07C883.083 1448.99 862.491 1471.45 858.983 1475.67 852.493 1483.49 844.392 1495.95 843.012 1510.13 841.633 1524.3 825.992 1592.89 825.165 1609.6 824.294 1627.19 833.857 1629.69 846.507 1631.05 867.063 1633.25 896.001 1619.92 916.192 1608.23L920.207 1427.18C920.207 1427.18 910.603 1434.92 901.614 1423.07Z" stroke="#1A1919" stroke-width="8.04558" fill="#999999" transform="matrix(-1 0 0 1.02846 1830.56 -514.85)"/><path d="M918.376 1604.74C890.313 1607.19 867.723 1626.35 837.697 1629.28 826.083 1630.41 819.839 1634.61 820.924 1639.27 824.279 1653.68 826.692 1660.73 835.188 1666.41 858.419 1671.21 940.418 1677.6 959.022 1671.87 966.594 1667.28 969.765 1665.69 969.418 1653.42 969.057 1640.68 965.91 1627.77 961.804 1615.7 961.455 1614.68 960.966 1613.81 960.513 1612.96 945.995 1618.14 922.173 1622.95 918.376 1604.74Z" stroke="#1A1919" stroke-width="8.04558" fill="#999999" transform="matrix(-1 0 0 1.02846 1830.56 -514.85)"/><path d="M1057.24 1620.33C1027.15 1618.95 991.684 1619.22 971.715 1620.79 973.118 1646.56 981.769 1678.7 992.581 1678.97 1019.67 1679.63 1093.46 1686.76 1113.35 1690.32 1118.91 1691.31 1123.55 1691.3 1127.52 1690.6 1123.56 1665 1116.84 1631.32 1108.28 1626.8 1102.14 1623.56 1081.48 1621.44 1057.24 1620.33Z" stroke="#1A1919" stroke-width="8.04558" fill="#999999" transform="matrix(-1 0 0 1.02846 1830.56 -514.85)"/><path d="M655.446 1214.69C657.616 1225.65 705.165 1360.91 693.137 1384.73 681.108 1408.55 647.312 1461.12 626.268 1447.87 605.224 1434.62 574.805 1336.83 581.089 1319.51 587.372 1302.19 599.892 1171.9 599.892 1171.9 623.279 1182.83 638.781 1194.74 655.446 1214.69Z" stroke="#1A1919" stroke-width="8.04558" fill="#FFFFFF" transform="matrix(1 0 0 1.02846 303.325 -521.207)"/><path d="M599.181 1166.61C593.081 1163.91 593.037 1170.71 592.666 1175.02 584.678 1270.1 566.746 1397.42 625.618 1450.71 639.732 1459.6 661.158 1436.54 676.331 1414.74 649.03 1338.53 634.414 1258.52 617.025 1179.82 610.644 1175.6 606.375 1169.97 599.182 1166.61Z" stroke="#1A1919" stroke-width="8.04558" fill="#999999" transform="matrix(1 0 0 1.02846 303.325 -521.207)"/><path d="M936.505 1135.55C935.711 1135.59 934.833 1135.81 933.952 1136.27 896.878 1155.44 861.596 1214.75 861.194 1222.87 861.13 1224.15 860.403 1228.77 859.433 1234.7L910.799 1256.45 954.596 1183.69C954.644 1168.91 953.795 1158.47 952.051 1155.45 945.833 1144.69 942.065 1135.3 936.506 1135.55Z" stroke="#1A1919" stroke-width="8.04558" fill="#CCCCCC" transform="matrix(1 0 0 1.02846 303.325 -521.207)"/><path d="M554.611 676.371C554.611 700.441 535.527 719.954 511.986 719.954 488.444 719.954 469.36 700.441 469.36 676.371 469.36 652.301 488.444 632.788 511.986 632.788 535.527 632.788 554.611 652.301 554.611 676.371Z" stroke="#1A1919" stroke-width="8.04614" fill="#1A1A1A" transform="matrix(0.998706 0.0508598 -0.0494523 1.02713 721.48 -30.8843)"/><path d="M666.469 1047.08C728.835 1047.45 914.718 1045.81 919.794 1052.84 924.871 1059.87 918.608 1108.88 906.037 1138.96 894.966 1165.44 855.282 1232.46 826.804 1232.68 786.308 1232.99 748.898 1149.07 739.563 1132.07 719.659 1095.82 666.469 1047.08 666.469 1047.08Z" stroke="#1A1919" stroke-width="8.04558" fill="#D7D8D6" transform="matrix(1 0 0 1.02846 303.325 -521.207)"/><path d="M862.754 1218.07C853.907 1265.16 843.42 1313.51 842.136 1361.63 847.42 1378.17 850.529 1396.61 878.231 1398.66 889.029 1399.46 896.33 1396.59 901.727 1391.85 897.339 1385 897.095 1372.69 896.761 1366.03 895.795 1346.8 928.621 1226.62 928.621 1226.62 928.621 1226.62 886.72 1249.9 862.755 1218.07Z" stroke="#1A1919" stroke-width="8.04558" fill="#999999" transform="matrix(1 0 0 1.02846 303.325 -521.207)"/><path d="M380.195 463.663C380.195 480.164 367.113 493.54 350.975 493.54 334.836 493.54 321.754 480.164 321.754 463.663 321.754 447.163 334.837 433.786 350.975 433.786 367.113 433.786 380.195 447.163 380.195 463.663Z" stroke="#1A1919" stroke-width="8.04614" fill="#1A1A1A" transform="matrix(0.998706 0.0508599 -0.0494525 1.02713 943.914 670.578)"/><path d="M820.917 1639.26C824.272 1653.67 826.673 1660.73 835.169 1666.41 858.4 1671.21 940.386 1677.59 958.99 1671.86 966.562 1667.28 969.745 1665.66 969.398 1653.39 969.038 1640.65 965.876 1627.79 961.77 1615.72 956.426 1600.02 938.164 1605.1 927.74 1604.54 895.129 1602.78 870.984 1625.99 837.686 1629.24 826.072 1630.37 819.83 1634.6 820.916 1639.26Z" stroke="#1A1919" stroke-width="8.04558" fill="#FFFFFF" transform="matrix(1 0 0 1.02846 303.325 -521.207)"/><path d="M462.078 563.523C462.078 583.577 446.178 599.835 426.564 599.835 406.95 599.835 391.05 583.577 391.05 563.523 391.05 543.468 406.95 527.211 426.564 527.211 446.178 527.211 462.078 543.468 462.078 563.523Z" stroke="#1A1919" stroke-width="8.04614" fill="#1A1A1A" transform="matrix(0.998706 0.0508591 -0.0494516 1.02713 804.43 310)"/><path d="M932.563 1358.63C930.496 1397.58 865.447 1467.87 858.956 1475.69 852.467 1483.5 844.389 1495.99 843.009 1510.16 841.629 1524.33 826.027 1592.93 825.2 1609.64 824.329 1627.23 833.867 1629.68 846.517 1631.04 869.821 1633.54 903.936 1616.08 923.819 1603.67 936.304 1595.88 952.738 1586.57 954.548 1571.97 960.942 1520.33 959.751 1428.16 954.309 1357.67 953.306 1344.68 933.637 1338.39 932.563 1358.63Z" stroke="#1A1919" stroke-width="8.04558" fill="#FFFFFF" transform="matrix(1 0 0 1.02846 303.325 -521.207)"/><path d="M971.611 1608.74C970.304 1635.12 979.952 1678.63 992.546 1678.94 1019.64 1679.61 1093.47 1686.8 1113.36 1690.35 1138.92 1694.92 1145.67 1679.17 1151.9 1665.13 1158.64 1649.96 1155.89 1627.69 1144.17 1615.93 1110.49 1582.16 1057.31 1591.78 1009.65 1593.67 999.301 1594.08 972.12 1598.39 971.608 1608.74Z" stroke="#1A1919" stroke-width="8.04558" fill="#FFFFFF" transform="matrix(1 0 0 1.02846 303.325 -521.207)"/><path d="M901.614 1423.07C883.083 1448.99 862.491 1471.45 858.983 1475.67 852.493 1483.49 844.392 1495.95 843.012 1510.13 841.633 1524.3 825.992 1592.89 825.165 1609.6 824.294 1627.19 833.857 1629.69 846.507 1631.05 867.063 1633.25 896.001 1619.92 916.192 1608.23L920.207 1427.18C920.207 1427.18 910.603 1434.92 901.614 1423.07Z" stroke="#1A1919" stroke-width="8.04558" fill="#999999" transform="matrix(1 0 0 1.02846 303.325 -521.207)"/><path d="M918.376 1604.74C890.313 1607.19 867.723 1626.35 837.697 1629.28 826.083 1630.41 819.839 1634.61 820.924 1639.27 824.279 1653.68 826.692 1660.73 835.188 1666.41 858.419 1671.21 940.418 1677.6 959.022 1671.87 966.594 1667.28 969.765 1665.69 969.418 1653.42 969.057 1640.68 965.91 1627.77 961.804 1615.7 961.455 1614.68 960.966 1613.81 960.513 1612.96 945.995 1618.14 922.173 1622.95 918.376 1604.74Z" stroke="#1A1919" stroke-width="8.04558" fill="#999999" transform="matrix(1 0 0 1.02846 303.325 -521.207)"/><path d="M1057.24 1620.33C1027.15 1618.95 991.684 1619.22 971.715 1620.79 973.118 1646.56 981.769 1678.7 992.581 1678.97 1019.67 1679.63 1093.46 1686.76 1113.35 1690.32 1118.91 1691.31 1123.55 1691.3 1127.52 1690.6 1123.56 1665 1116.84 1631.32 1108.28 1626.8 1102.14 1623.56 1081.48 1621.44 1057.24 1620.33Z" stroke="#1A1919" stroke-width="8.04558" fill="#999999" transform="matrix(1 0 0 1.02846 303.325 -521.207)"/><path d="M535.264 649.346C535.264 652.213 531.281 654.536 526.368 654.536 521.454 654.536 517.471 652.213 517.471 649.346 517.471 646.48 521.454 644.157 526.368 644.157 531.281 644.157 535.264 646.48 535.264 649.346Z" stroke="#1A1919" stroke-width="8.06673" fill="#FFFFFF" transform="matrix(0.950804 0.309792 -0.301219 0.977865 679.027 -127.476)"/><path d="M535.264 649.346C535.264 652.213 531.281 654.536 526.368 654.536 521.454 654.536 517.471 652.213 517.471 649.346 517.471 646.48 521.454 644.157 526.368 644.157 531.281 644.157 535.264 646.48 535.264 649.346Z" stroke="#1A1919" stroke-width="8.06673" fill="#FFFFFF" transform="matrix(0.950804 0.309792 -0.301219 0.977865 915.406 -132.165)"/><g clip-path="url(#clip4)"><path d="M907.963-56.1452C870.49-48.7985 843.922-12.485 847.515 28.5212 851.104 69.5375 883.579 100.668 921.762 101.383M1250.79-134.454C1273.78-69.664 1276.19 77.9487 1233.71 140.42 1195.36 196.819 1155 215.386 1087.53 215.386 1020.06 215.386 979.7 196.819 941.348 140.42 898.867 77.9487 901.281-69.664 924.275-134.454 951.763-211.919 1017.14-235.039 1086.28-235.039 1155.42-235.039 1223.3-211.919 1250.79-134.454ZM1265.72-56.2551C1303.26-49.2383 1330.15-13.1598 1326.91 27.8766 1323.67 68.9228 1291.47 100.333 1253.3 101.383M1063 240.749 935.105 283.915C935.105 283.915 923.441 411.981 965.092 553.587M879.996 390.321C872.209 379.316 867.636 365.887 867.636 351.384 867.636 314.121 897.842 283.915 935.105 283.915M935.105 418.853C927.704 418.853 920.582 417.664 913.915 415.465M1111.9 214.986 1113 239.77C1113 239.77 1106.14 246.432 1089.5 246.432L1085.58 246.432C1068.92 246.432 1062.07 239.77 1062.07 239.77L1062.96 215.201M1111.63 240.6 1239.97 283.915C1239.97 283.915 1251.63 411.981 1209.98 553.587M1239.97 418.853C1277.23 418.853 1307.44 388.652 1307.44 351.384 1307.44 314.121 1277.23 283.915 1239.97 283.915M1171.66 263.094C1171.66 263.094 1141.68 289.747 1088.37 289.747L1086.7 289.747C1033.39 289.747 1003.41 263.094 1003.41 263.094M787.388 470.105C787.868 469.635 788.357 469.17 788.857 468.72M820.543 458.165C841.918 460.049 858.68 477.996 858.68 499.861 858.68 522.976 839.939 541.717 816.824 541.717 793.71 541.717 774.969 522.976 774.969 499.861 774.969 488.222 779.716 477.696 787.388 470.105M760.16 320.698C805.19 311.487 814.96 289.612 819.153 263.549 823.132 238.79 820.653 223.477 813.666 215.701 804.095 205.051 751.884 194.466 735.636 191.472 719.389 188.483 708.409 196.725 717.625 216.041 727.07 235.827 755.722 234.083 772.765 234.422 772.765 234.422 754.833 249.116 750.795 272.22 743.738 312.602 760.16 320.698 760.16 320.698ZM680.122 273.959C680.122 273.959 679.067 299.388 704.166 317.185 722.183 329.959 741.564 326.51 760.16 320.698M719.384 193.731C718.969 185.12 720.039 177.428 723.152 172.436 731.263 159.412 751.714 159.821 756.952 167.678 764.503 179.013 766.842 196.844 766.842 196.844M758.026 251.909C758.026 251.909 749.925 258.272 736.836 244.273 732.993 240.165 729.389 233.633 726.456 226.056M720.363 177.368C711.293 173.06 688.843 176.889 686.874 195.605 684.93 213.957 695.135 251.23 710.738 261.665 726.341 272.105 737.706 258.651 740.904 248.946M707.609 259.576C707.884 268.297 703.946 281.961 686.759 276.813 669.572 271.67 656.323 245.667 652.739 221.538 649.696 201.058 672.77 193.661 685.664 201.128M758.711 170.941C758.711 170.941 746.871 65.3794 752.059 46.1682 757.546 25.8675 788.033 24.4381 792.031 47.8924 796.029 71.3467 802.441 207.799 802.441 207.799M780.906 318.039 822.657 469.665C822.657 469.665 814.426 485.388 790.896 478.931L750.919 325.536M859.305 491.32 919.278 408.028C919.278 408.028 919.278 376.792 883.459 384.704L835.981 460.504M1259.12 416.774 1282.86 555.461M1295.98 391.161 1321.59 555.461" stroke="#1A1919" stroke-width="12.9941" stroke-linecap="round" stroke-linejoin="round" fill="none"/></g><path d="M1265.72-56.2551C1303.26-49.2383 1330.15-13.1598 1326.91 27.8765 1323.67 68.9228 1291.47 100.333 1253.3 101.383" fill="#DF516C"/><path d="M1239.97 283.915C1277.23 283.915 1307.44 314.121 1307.44 351.384 1307.44 388.652 1277.23 418.853 1239.97 418.853L1212.48 418.024 1219.98 303.906 1239.97 283.915" fill="#9E9F9E"/><g clip-path="url(#clip5)"><path d="M935.105 418.853C927.704 418.853 920.582 417.664 913.915 415.465L879.996 390.321C872.209 379.316 867.636 365.887 867.636 351.384 867.636 314.121 897.842 283.915 935.105 283.915L966.756 364.713 935.105 418.853" fill="#9E9F9E"/><path d="M1209.98 553.587C1251.63 411.981 1239.97 283.915 1239.97 283.915L1111.63 240.6 1063 240.749 935.105 283.915C935.105 283.915 923.441 411.981 965.092 553.587L1209.98 553.587" fill="#D7D8D6"/></g><path d="M787.388 470.105C787.868 469.635 788.358 469.17 788.857 468.72" fill="#D7D8D6"/><path d="M820.543 458.165C841.918 460.049 858.68 477.996 858.68 499.861 858.68 522.976 839.939 541.717 816.825 541.717 793.71 541.717 774.969 522.976 774.969 499.861 774.969 488.222 779.716 477.696 787.388 470.105" fill="#9E9F9E"/><path d="M760.16 320.698C803.056 310.867 814.341 291.106 818.744 267.057 823.257 242.394 820.653 223.477 813.666 215.701 804.095 205.051 751.884 194.466 735.637 191.472 719.389 188.483 708.409 196.725 717.625 216.041 727.07 235.827 755.722 234.082 772.765 234.422 772.765 234.422 754.833 249.116 750.795 272.22 743.738 312.602 760.16 320.698 760.16 320.698" fill="#9E9F9E"/><path d="M719.384 193.731C718.969 185.12 720.039 177.428 723.152 172.436 731.264 159.412 751.714 159.821 756.952 167.678 764.503 179.013 766.842 196.845 766.842 196.845" fill="#9E9F9E"/><path d="M720.364 177.368C711.293 173.06 688.843 176.889 686.874 195.605 684.93 213.957 695.135 251.23 710.738 261.665 726.341 272.105 737.706 258.651 740.904 248.946" fill="#9E9F9E"/><path d="M685.664 201.128C672.77 193.661 649.696 201.058 652.739 221.538 656.323 245.667 669.572 271.67 686.759 276.813 703.946 281.961 707.884 268.297 707.609 259.576" fill="#9E9F9E"/><path d="M680.122 273.959C680.122 273.959 681.311 298.243 704.166 317.185 722.912 332.728 741.564 326.51 760.16 320.698L798.438 245.717 781.516 223.103 707.175 224.042C707.175 224.042 678.682 262.659 680.122 273.959" fill="#9E9F9E"/><path d="M802.441 207.799C802.441 207.799 796.444 70.0773 792.446 46.623 788.447 23.1687 761.095 26.9469 752.474 44.8938 743.863 62.8406 757.672 160.001 757.672 160.001L763.084 198.429 802.441 207.799" fill="#9E9F9E"/><path d="M780.906 318.039 822.657 469.665C822.657 469.665 814.426 485.388 790.896 478.931L750.92 325.536" fill="#FFFFFE"/><g clip-path="url(#clip6)"><path d="M859.305 491.32 919.278 408.028C919.278 408.028 919.278 376.792 883.459 384.704L835.981 460.504 859.305 491.32" fill="#FFFFFE"/><path d="M1295.98 391.161 1321.59 555.461 1282.86 555.461 1259.12 416.774 1295.98 391.161" fill="#FFFFFE"/></g><path d="M1063.26 214.127 1062.07 239.77 1003.41 263.094C1003.41 263.094 1033.39 289.747 1086.7 289.747L1088.37 289.747C1141.68 289.747 1171.66 263.094 1171.66 263.094L1113 239.77 1111.74 214.127" fill="#9E9F9E"/><path d="M921.762 101.383C883.579 100.668 851.104 69.5375 847.516 28.5212 843.922-12.4851 870.49-48.7985 907.963-56.1452L920.942-45.1002 931.772 89.0037 921.762 101.383" fill="#DF516C"/><path d="M855.012 47.6775C851.419 6.67117 877.987-29.6372 915.46-36.9839L922.052-31.3765 920.942-45.1002 907.963-56.1452C870.49-48.7985 843.922-12.4851 847.516 28.5212 848.55 40.3258 852.033 51.2659 857.301 60.9414 856.222 56.6534 855.412 52.2404 855.012 47.6775" fill="#EA8C9B"/><path d="M1323.39 47.6775C1326.98 6.67117 1300.41-29.6372 1262.94-36.9839L1256.35-31.3765 1257.45-45.1002 1270.44-56.1452C1307.91-48.7985 1334.48-12.4851 1330.89 28.5212 1329.85 40.3258 1326.37 51.2659 1321.09 60.9414 1322.18 56.6534 1322.99 52.2404 1323.39 47.6775" fill="#EA8C9B"/><path d="M1250.79-134.454C1273.78-69.664 1276.2 77.9487 1233.71 140.42 1195.36 196.819 1155 215.386 1087.53 215.386 1020.06 215.386 979.7 196.819 941.348 140.42 898.867 77.9487 901.281-69.664 924.276-134.454 951.763-211.919 1017.14-235.039 1086.28-235.039 1155.42-235.039 1223.3-211.919 1250.79-134.454" fill="#D7D8D6"/><path d="M932.762-110.121C961.589-187.585 1030.16-210.705 1102.67-210.705 1149.79-210.705 1196.34-200.924 1231.08-172.832 1197.53-219.841 1142.32-235.039 1086.28-235.039 1017.14-235.039 951.763-211.919 924.276-134.454 903.8-76.7508 899.672 46.593 929.018 117.031 908.088 45.2236 913.59-58.604 932.762-110.121" fill="#FFFFFE"/><path d="M1059.58 13.0283C1059.58 42.6648 1035.62 66.6888 1006.06 66.6888 976.507 66.6888 952.553 42.6648 952.553 13.0283 952.553-16.6082 976.507-40.6272 1006.06-40.6272 1035.62-40.6272 1059.58-16.6082 1059.58 13.0283" fill="#FFFFFE"/><path d="M1115.48 13.0283C1115.48 42.6648 1139.45 66.6888 1169 66.6888 1198.56 66.6888 1222.52 42.6648 1222.52 13.0283 1222.52-16.6082 1198.56-40.6272 1169-40.6272 1139.45-40.6272 1115.48-16.6082 1115.48 13.0283" fill="#FFFFFE"/><path d="M1185.62 459.495C1185.62 464.173 1181.79 468.001 1177.12 468.001L997.957 468.001C993.279 468.001 989.456 464.173 989.456 459.495L989.456 371.55C989.456 366.872 993.279 363.049 997.957 363.049L1177.12 363.049C1181.79 363.049 1185.62 366.872 1185.62 371.55L1185.62 459.495" fill="#FFFFFE"/><path d="M1185.62 459.495C1185.62 464.173 1181.79 468.001 1177.12 468.001L997.957 468.001C993.279 468.001 989.456 464.173 989.456 459.495L989.456 371.55C989.456 366.872 993.279 363.049 997.957 363.049L1177.12 363.049C1181.79 363.049 1185.62 366.872 1185.62 371.55Z" stroke="#1A1919" stroke-width="5.99727" fill="none"/><path d="M1030.24 412.511 1040.69 412.511C1044.02 412.511 1046.72 409.807 1046.72 406.474L1046.72 395.039C1046.72 393.685 1045.64 392.605 1044.29 392.605L1030.24 392.605ZM1046.72 457.9 1046.72 431.243C1046.72 427.909 1044.02 425.3 1040.69 425.3L1030.24 425.3 1030.24 457.9 1017.45 457.9 1017.45 379.816 1047.44 379.816C1054.1 379.816 1059.51 385.219 1059.51 391.886L1059.51 406.834C1059.51 413.501 1054.1 418.903 1047.44 418.903 1054.1 418.903 1059.51 424.221 1059.51 430.883L1059.51 457.9 1046.72 457.9" fill="#1A1919"/><path d="M1101.38 439.169 1101.38 398.642C1101.38 395.309 1098.68 392.605 1095.35 392.605L1090.84 392.605C1087.51 392.605 1084.9 395.309 1084.9 398.642L1084.9 439.169C1084.9 442.502 1087.51 445.111 1090.84 445.111L1095.35 445.111C1098.68 445.111 1101.38 442.502 1101.38 439.169ZM1090.13 379.816 1096.16 379.816C1106.07 379.816 1114.17 387.922 1114.17 397.828L1114.17 439.889C1114.17 449.884 1106.07 457.9 1096.16 457.9L1090.13 457.9C1080.13 457.9 1072.11 449.884 1072.11 439.889L1072.11 397.828C1072.11 387.922 1080.13 379.816 1090.13 379.816" fill="#1A1919"/><path d="M1126.78 392.605 1126.78 379.816 1139.11 379.816C1145.78 379.816 1151.18 385.219 1151.18 391.886L1151.18 457.9 1138.39 457.9 1138.39 395.039C1138.39 393.685 1137.31 392.605 1135.96 392.605L1126.78 392.605" fill="#1A1919"/><path d="M1010.15 378.642C1010.15 381.94 1007.47 384.609 1004.17 384.609 1000.87 384.609 998.192 381.94 998.192 378.642 998.192 375.338 1000.87 372.664 1004.17 372.664 1007.47 372.664 1010.15 375.338 1010.15 378.642" fill="#1A1919"/><path d="M1010.15 453.632C1010.15 456.931 1007.47 459.6 1004.17 459.6 1000.87 459.6 998.192 456.931 998.192 453.632 998.192 450.329 1000.87 447.655 1004.17 447.655 1007.47 447.655 1010.15 450.329 1010.15 453.632" fill="#1A1919"/><path d="M1177.51 378.642C1177.51 381.94 1174.84 384.609 1171.54 384.609 1168.23 384.609 1165.56 381.94 1165.56 378.642 1165.56 375.338 1168.23 372.664 1171.54 372.664 1174.84 372.664 1177.51 375.338 1177.51 378.642" fill="#1A1919"/><path d="M1177.51 453.632C1177.51 456.931 1174.84 459.6 1171.54 459.6 1168.23 459.6 1165.56 456.931 1165.56 453.632 1165.56 450.329 1168.23 447.655 1171.54 447.655 1174.84 447.655 1177.51 450.329 1177.51 453.632" fill="#1A1919"/><path d="M750.605 326.19 780.591 315.57 784.024 328.999C784.024 328.999 775.593 346.181 754.978 349.305L750.605 326.19" fill="#CBCCCB"/><path d="M1259.12 416.774 1295.98 391.161 1298.35 417.099C1298.35 417.099 1283.99 433.966 1264 437.715L1259.12 416.774" fill="#CBCCCB"/><path d="M1061.71 216.036 1113.36 216.451 1113.35 229.36C1113.35 229.36 1092.11 243.518 1061.71 237.481L1061.71 216.036" fill="#777776"/><path d="M1024.86-183.122C1030.09-173.082 1021.32-158.159 1005.27-149.797 989.221-141.441 971.974-142.801 966.741-152.851 961.509-162.896 970.28-177.81 986.327-186.171 1002.38-194.532 1019.63-193.168 1024.86-183.122" fill="#FFFFFE"/><path d="M915.829 305.81C919.478 311.857 914.615 321.483 904.954 327.32 895.294 333.157 884.509 332.987 880.855 326.94 877.207 320.898 882.075 311.272 891.735 305.435 901.391 299.598 912.181 299.763 915.829 305.81" fill="#D7D8D6"/><path d="M935.106 283.915 1003.41 263.094 1015.9 274.754 933.436 308.903C933.436 308.903 929.273 294.745 935.106 283.915" fill="#F2F1F0"/><path d="M1171.66 263.094 1239.97 283.915 1240.8 309.738C1240.8 309.738 1171.66 278.917 1154.17 276.418L1171.66 263.094" fill="#F2F1F0"/><path d="M755.602 119.41C755.602 119.41 757.132 62.1959 767.682 50.6861 781.426 35.698 793.085 53.185 793.085 53.185 793.085 53.185 790.172 30.2804 769.761 30.2804 749.355 30.2804 750.605 66.0991 750.19 74.4303 749.77 82.7615 755.602 119.41 755.602 119.41" fill="#D7D8D6"/><path d="M656.248 230.794C656.248 230.794 668.557 204.991 686.674 213.537 687.893 200.993 703.751 186.464 716.245 195.62L720.983 192.357 728.74 191.247C728.74 191.247 729.364 168.972 756.437 173.345L746.067 160.801C746.067 160.801 729.199 163.87 729.075 164.439 728.95 165.009 722.598 174.959 722.598 174.959L700.628 176.054C700.628 176.054 686.994 185.195 686.994 189.928 686.994 193.166 686.874 195.605 686.874 195.605 686.874 195.605 662.83 198.669 662.73 198.744 655.678 204.136 652.614 205.406 653.014 212.587 653.419 219.869 656.248 230.794 656.248 230.794" fill="#D7D8D6"/><path d="M717.625 216.041C715.516 208.984 711.093 196.28 720.983 192.357 730.874 188.433 762.055 198.589 762.055 198.589 762.055 198.589 720.713 195.995 717.625 216.041" fill="#D7D8D6"/><path d="M907.963-56.1452C870.49-48.7985 843.922-12.4851 847.516 28.5212 851.104 69.5375 883.579 100.668 921.762 101.383M1250.79-134.454C1273.78-69.664 1276.2 77.9487 1233.71 140.42 1195.36 196.819 1155 215.386 1087.53 215.386 1020.06 215.386 979.7 196.819 941.348 140.42 898.867 77.9487 901.281-69.664 924.276-134.454 951.763-211.919 1017.14-235.039 1086.28-235.039 1155.42-235.039 1223.3-211.919 1250.79-134.454ZM1151.25 204.141 1152.5 121.924 1020.48 121.924 1021.73 202.892M1152.5 125.072 1020.48 125.072" stroke="#1A1919" stroke-width="7.99635" stroke-linecap="round" stroke-linejoin="round" fill="none"/><path d="M881.665-45.2051C881.665-45.2051 869.416 16.5317 893.06 95.0959" stroke="#1A1919" stroke-width="4.99772" stroke-linecap="round" stroke-linejoin="round" fill="none"/><path d="M1265.72-56.2551C1303.26-49.2383 1330.15-13.1598 1326.91 27.8765 1323.67 68.9228 1291.47 100.333 1253.3 101.383" stroke="#1A1919" stroke-width="7.99635" stroke-linecap="round" stroke-linejoin="round" fill="none"/><path d="M1292.12-45.545C1292.12-45.545 1304.9 16.0819 1281.94 94.846" stroke="#1A1919" stroke-width="4.99772" stroke-linecap="round" stroke-linejoin="round" fill="none"/><path d="M1059.81 13.0283C1059.81 42.3399 1036.05 66.1041 1006.74 66.1041 977.426 66.1041 953.672 42.3399 953.672 13.0283 953.672-16.2783 977.426-40.0375 1006.74-40.0375 1036.05-40.0375 1059.81-16.2783 1059.81 13.0283Z" stroke="#1A1919" stroke-width="7.99635" stroke-linecap="round" stroke-linejoin="round" fill="none"/><path d="M1039.8 13.0283C1039.8 31.29 1025 46.0932 1006.74 46.0932 988.481 46.0932 973.673 31.29 973.673 13.0283 973.673-5.22839 988.481-20.0316 1006.74-20.0316 1025-20.0316 1039.8-5.22839 1039.8 13.0283" fill="#1A1919"/><path d="M1115.25 13.0283C1115.25 42.3399 1139.02 66.1041 1168.32 66.1041 1197.63 66.1041 1221.4 42.3399 1221.4 13.0283 1221.4-16.2783 1197.63-40.0375 1168.32-40.0375 1139.02-40.0375 1115.25-16.2783 1115.25 13.0283Z" stroke="#1A1919" stroke-width="7.99635" stroke-linecap="round" stroke-linejoin="round" fill="none"/><path d="M1135.26 13.0283C1135.26 31.29 1150.07 46.0932 1168.32 46.0932 1186.58 46.0932 1201.38 31.29 1201.38 13.0283 1201.38-5.22839 1186.58-20.0316 1168.32-20.0316 1150.07-20.0316 1135.26-5.22839 1135.26 13.0283" fill="#1A1919"/><g clip-path="url(#clip7)"><path d="M1063 240.749 935.105 283.915C935.105 283.915 923.441 411.981 965.092 553.587M879.996 390.321C872.209 379.316 867.636 365.887 867.636 351.384 867.636 314.121 897.842 283.915 935.105 283.915M935.105 418.853C927.704 418.853 920.582 417.664 913.915 415.465M1111.9 214.986 1113 239.77C1113 239.77 1106.14 246.432 1089.5 246.432L1085.58 246.432C1068.92 246.432 1062.07 239.77 1062.07 239.77L1062.96 215.201M1111.63 240.6 1239.97 283.915C1239.97 283.915 1254.75 418.228 1213.1 559.834M1239.97 418.853C1277.23 418.853 1307.44 388.652 1307.44 351.384 1307.44 314.121 1277.23 283.915 1239.97 283.915M1171.66 263.094C1171.66 263.094 1141.68 289.747 1088.37 289.747L1086.7 289.747C1033.39 289.747 1003.41 263.094 1003.41 263.094" stroke="#1A1919" stroke-width="7.99635" stroke-linecap="round" stroke-linejoin="round" fill="none"/></g><path d="M1037.74-6.88763C1037.74-1.73499 1033.57 2.44812 1028.41 2.44812 1023.26 2.44812 1019.07-1.73499 1019.07-6.88763 1019.07-12.0453 1023.26-16.2234 1028.41-16.2234 1033.57-16.2234 1037.74-12.0453 1037.74-6.88763" fill="#FFFFFE"/><path d="M1199.84-6.88763C1199.84-1.73499 1195.66 2.44812 1190.51 2.44812 1185.34 2.44812 1181.16-1.73499 1181.16-6.88763 1181.16-12.0453 1185.34-16.2234 1190.51-16.2234 1195.66-16.2234 1199.84-12.0453 1199.84-6.88763" fill="#FFFFFE"/><path d="M787.388 470.105C787.868 469.635 788.358 469.17 788.857 468.72M820.543 458.165C841.918 460.049 858.68 477.996 858.68 499.861 858.68 522.976 839.939 541.717 816.825 541.717 793.71 541.717 774.969 522.976 774.969 499.861 774.969 488.222 779.716 477.696 787.388 470.105M760.16 320.698C805.19 311.487 814.96 289.612 819.153 263.549 823.132 238.79 820.653 223.477 813.666 215.701 804.095 205.051 751.884 194.466 735.637 191.472 719.389 188.483 708.409 196.725 717.625 216.041 727.07 235.827 755.722 234.082 772.765 234.422 772.765 234.422 754.833 249.116 750.795 272.22 743.738 312.602 760.16 320.698 760.16 320.698ZM680.122 273.959C680.122 273.959 679.067 299.388 704.166 317.185 722.183 329.959 741.564 326.51 760.16 320.698M719.299 191.977C718.879 183.366 720.039 177.428 723.152 172.436 731.264 159.412 751.714 159.821 756.952 167.678 764.503 179.013 766.842 196.845 766.842 196.845M758.026 251.909C758.026 251.909 749.925 258.271 736.836 244.273 732.993 240.165 729.784 234.982 726.856 227.411M720.364 177.368C711.293 173.06 688.843 176.889 686.874 195.605 684.93 213.957 695.135 251.23 710.738 261.665 726.341 272.105 737.706 258.651 740.904 248.946M707.609 259.576C707.884 268.297 703.946 281.961 686.759 276.813 669.572 271.67 656.323 245.667 652.739 221.538 649.696 201.058 672.77 193.661 685.664 201.128M758.711 170.941C758.711 170.941 746.871 65.3794 752.059 46.1682 757.547 25.8674 788.033 24.4381 792.031 47.8924 796.029 71.3467 802.441 207.799 802.441 207.799" stroke="#1A1919" stroke-width="7.99761" stroke-linecap="round" stroke-linejoin="round" fill="none"/><path d="M771.635 234.982C771.635 234.982 801.866 221.158 814.95 214.996" stroke="#1A1919" stroke-width="5.99727" stroke-linecap="round" stroke-linejoin="round" fill="none"/><path d="M780.906 318.039 822.657 469.665C822.657 469.665 814.426 485.388 790.896 478.931L750.92 325.536M859.305 491.32 919.278 408.028C919.278 408.028 919.278 376.792 883.459 384.704L835.981 460.504M1259.12 416.774 1282.86 555.461M1295.98 391.161 1321.59 555.461" stroke="#1A1919" stroke-width="7.99761" stroke-linecap="round" stroke-linejoin="round" fill="none"/><path d="M1301.21 590.237 1312.44 736.158 1365.75 722.127 1337.69 584.624Z" stroke="#1A1919" stroke-width="10.4645" fill="#FFFFFE"/><path d="M1348.65 562.696C1348.65 584.998 1330.62 603.077 1308.37 603.077 1286.12 603.077 1268.09 584.998 1268.09 562.696 1268.09 540.394 1286.12 522.315 1308.37 522.315 1330.62 522.315 1348.65 540.394 1348.65 562.696Z" stroke="#1A1919" stroke-width="7.99635" stroke-linecap="round" stroke-linejoin="round" fill="#9E9F9E"/><path d="M965.927-68.1947 1040.89-68.1947M1130.85-68.1947 1205.81-68.1947" stroke="#1A1919" stroke-width="14.9932" stroke-linecap="round" fill="none"/><path d="M753.064 110.349C753.064 110.349 766.822 97.7996 796.194 106.596" stroke="#1A1919" stroke-width="5.99727" stroke-linecap="round" stroke-linejoin="round" fill="none"/><path d="M918.468-111.555 1255.79-111.555" stroke="#1A1919" stroke-width="5.99727" fill="none"/><path d="M1332.69 705.583C1289.79 715.413 1278.51 735.174 1274.11 759.223 1269.59 783.887 1272.2 802.803 1279.18 810.58 1288.75 821.23 1340.97 831.815 1357.21 834.809 1373.46 837.797 1384.44 829.556 1375.22 810.24 1365.78 790.454 1337.13 792.198 1320.08 791.858 1320.08 791.858 1338.02 777.165 1342.05 754.061 1349.11 713.679 1332.69 705.583 1332.69 705.583" fill="#9E9F9E"/><path d="M1373.47 832.55C1373.88 841.161 1372.81 848.852 1369.7 853.845 1361.59 866.869 1341.14 866.459 1335.9 858.603 1328.35 847.268 1326.01 829.436 1326.01 829.436" fill="#9E9F9E"/><path d="M1372.49 848.912C1381.56 853.22 1404.01 849.392 1405.98 830.676 1407.92 812.324 1397.71 775.051 1382.11 764.616 1366.51 754.176 1355.14 767.629 1351.95 777.335" fill="#9E9F9E"/><path d="M1407.19 825.153C1420.08 832.62 1443.15 825.223 1440.11 804.742 1436.53 780.613 1423.28 754.61 1406.09 749.468 1388.9 744.32 1384.97 757.984 1385.24 766.705" fill="#9E9F9E"/><path d="M1412.73 752.321C1412.73 752.321 1411.54 728.037 1388.68 709.096 1369.94 693.553 1351.29 699.77 1332.69 705.583L1294.41 780.563 1311.33 803.178 1385.67 802.239C1385.67 802.239 1414.17 763.621 1412.73 752.321" fill="#9E9F9E"/><path d="M1290.41 818.481C1290.41 818.481 1290.16 825.794 1294.16 849.248 1298.15 872.703 1325.51 868.924 1334.13 850.978 1342.74 833.031 1335.18 866.279 1335.18 866.279L1329.77 827.852 1290.41 818.481" fill="#9E9F9E"/><path d="M1325.53 833.467C1325.53 833.467 1329.47 846.84 1318.92 856.756 1305.18 869.67 1293.52 854.604 1293.52 854.604 1293.52 854.604 1296.43 874.338 1316.84 874.338 1337.25 874.338 1329.75 850.505 1330.17 843.327 1330.58 836.149 1333.29 853.479 1333.29 853.479" fill="#D7D8D6"/><path d="M1436.6 795.487C1436.6 795.487 1424.29 821.29 1406.18 812.744 1404.96 825.288 1389.1 839.816 1376.6 830.661L1371.87 833.924 1364.11 835.034C1364.11 835.034 1363.48 857.308 1336.41 852.935L1346.78 865.48C1346.78 865.48 1363.65 862.411 1363.77 861.841 1363.9 861.272 1370.25 851.321 1370.25 851.321L1392.22 850.227C1392.22 850.227 1405.86 841.086 1405.86 836.353 1405.86 833.115 1405.98 830.676 1405.98 830.676 1405.98 830.676 1430.02 827.612 1430.12 827.537 1437.17 822.145 1440.23 820.875 1439.84 813.693 1439.43 806.412 1436.6 795.487 1436.6 795.487" fill="#D7D8D6"/><path d="M1375.22 810.24C1377.33 817.297 1381.76 830.001 1371.87 833.924 1361.98 837.847 1330.79 827.692 1330.79 827.692 1330.79 827.692 1372.14 830.286 1375.22 810.24" fill="#D7D8D6"/><path d="M1332.69 705.583C1287.66 714.793 1277.89 736.668 1273.7 762.732 1269.72 787.49 1272.2 802.803 1279.18 810.58 1288.75 821.23 1340.97 831.815 1357.21 834.809 1373.46 837.797 1384.44 829.556 1375.22 810.24 1365.78 790.454 1337.13 792.198 1320.08 791.858 1320.08 791.858 1338.02 777.165 1342.05 754.061 1349.11 713.679 1332.69 705.583 1332.69 705.583ZM1412.73 752.321C1412.73 752.321 1413.78 726.893 1388.68 709.096 1370.67 696.322 1351.29 699.77 1332.69 705.583M1373.55 834.304C1373.97 842.915 1372.81 848.852 1369.7 853.845 1361.59 866.869 1341.14 866.459 1335.9 858.603 1328.35 847.268 1326.01 829.436 1326.01 829.436M1334.82 774.371C1334.82 774.371 1342.92 768.009 1356.01 782.008 1359.86 786.116 1363.07 791.299 1365.99 798.87M1372.49 848.912C1381.56 853.22 1404.01 849.392 1405.98 830.676 1407.92 812.324 1397.71 775.051 1382.11 764.616 1366.51 754.176 1355.14 767.629 1351.95 777.335M1385.24 766.705C1384.97 757.984 1388.9 744.32 1406.09 749.468 1423.28 754.61 1436.53 780.613 1440.11 804.742 1443.15 825.223 1420.08 832.62 1407.19 825.153M1334.14 855.339C1334.14 855.339 1334.14 855.339 1333.76 859.855 1328.27 880.156 1297.79 881.585 1293.79 858.131 1289.79 834.676 1290.41 818.481 1290.41 818.481" stroke="#1A1919" stroke-width="7.99635" stroke-linecap="round" stroke-linejoin="round" fill="none"/><path d="M1321.21 791.299C1321.21 791.299 1290.98 805.122 1277.9 811.284" stroke="#1A1919" stroke-width="5.99727" stroke-linecap="round" stroke-linejoin="round" fill="none"/><path d="M1213 557.93 1221.2 529.217" stroke="#1A1919" stroke-width="10.4645" fill="none"/></g></g></g><g clip-path="url(#clip8)"><g clip-path="url(#clip9)"><path d="M2620.47 3188.13C2516.44 3241.93 2417.4 3408.28 2416.28 3431.06 2415.15 3453.84 2352.12 3787.07 2362.75 3820.34 2377.58 3866.74 2386.43 3918.55 2464.15 3924.29 2541.87 3930.04 2554.81 3868.17 2579.49 3823.46 2674.3 3651.68 2691.01 3276.5 2671.07 3242 2651.13 3207.5 2640.22 3177.91 2620.46 3188.13Z" stroke="#1A1919" stroke-width="22.574" fill="#FFFFFF" transform="matrix(-3.42674 0 0 1 9434.18 -2142.58)"/><path d="M1812.39 3100.54C1808.35 3182.15 1800.24 3206.13 1813.78 3226.18 1866.96 3304.92 1987.62 3408.55 2087.65 3420.49 2134.93 3426.13 2238.8 3403.24 2242.21 3372.97 2245.61 3342.69 2204.22 3102.81 2204.22 3102.81L1812.39 3100.54Z" stroke="#1A1919" stroke-width="22.574" fill="#666666" transform="matrix(-3.42674 0 0 1 9434.18 -2142.58)"/><path d="M1557.74 1899.73C1557.74 1967.34 1504.14 2022.14 1438.02 2022.14 1371.9 2022.14 1318.3 1967.34 1318.3 1899.73 1318.3 1832.12 1371.9 1777.32 1438.02 1777.32 1504.14 1777.32 1557.74 1832.12 1557.74 1899.73Z" stroke="#1A1919" stroke-width="22.5993" fill="#1A1A1A" transform="matrix(-3.41872 0.0494005 0.169283 0.997658 7595.37 -771.813)"/><path d="M1557.74 1899.73C1557.74 1967.34 1504.14 2022.14 1438.02 2022.14 1371.9 2022.14 1318.3 1967.34 1318.3 1899.73 1318.3 1832.12 1371.9 1777.32 1438.02 1777.32 1504.14 1777.32 1557.74 1832.12 1557.74 1899.73Z" stroke="#1A1919" stroke-width="22.5993" fill="#1A1A1A" transform="matrix(-3.41872 0.0494005 0.169283 0.997658 7040.4 -836.45)"/><path d="M1899.68 2952.68C1860.49 2922.91 1781.04 2938.67 1771.69 3001.52 1764.78 3048.02 1777.29 3195.86 1813.74 3228.11 1850.2 3260.35 1785.22 3112.54 1883.91 3117.43 1945.12 3120.46 2184.21 3487.2 2274.85 3445.01 2307.08 3430 1949.11 2927.5 1899.68 2952.68Z" stroke="#1A1919" stroke-width="22.574" fill="#999999" transform="matrix(-3.42674 0 0 1 9434.18 -2142.58)"/><path d="M1067.86 1302.3C1067.86 1348.64 1031.11 1386.21 985.786 1386.21 940.459 1386.21 903.714 1348.64 903.714 1302.3 903.714 1255.95 940.459 1218.38 985.786 1218.38 1031.11 1218.38 1067.86 1255.95 1067.86 1302.3Z" stroke="#1A1919" stroke-width="22.5993" fill="#1A1A1A" transform="matrix(3.41872 0.0494006 -0.169283 0.997658 909.437 1126.09)"/><path d="M2303.3 4599.38C2312.71 4639.8 2319.45 4659.61 2343.29 4675.56 2408.47 4689.03 2638.5 4706.94 2690.7 4690.86 2711.95 4677.98 2720.88 4673.45 2719.9 4639.03 2718.89 4603.28 2710.02 4567.19 2698.5 4533.33 2683.51 4489.27 2632.27 4503.54 2603.02 4501.97 2511.52 4497.03 2443.78 4562.15 2350.35 4571.27 2317.77 4574.45 2300.25 4586.31 2303.3 4599.38Z" stroke="#1A1919" stroke-width="22.574" fill="#FFFFFF" transform="matrix(3.42674 0 0 1 -5249.59 -2125.24)"/><path d="M1297.84 1582.77C1297.84 1639.1 1253.18 1684.76 1198.1 1684.76 1143.01 1684.76 1098.35 1639.1 1098.35 1582.77 1098.35 1526.45 1143.01 1480.78 1198.1 1480.78 1253.18 1480.78 1297.84 1526.45 1297.84 1582.77Z" stroke="#1A1919" stroke-width="22.5993" fill="#1A1A1A" transform="matrix(3.41872 0.0493998 -0.16928 0.997658 -431.645 142.395)"/><path d="M2616.55 3812C2610.75 3921.27 2428.24 4118.5 2410.03 4140.43 2391.82 4162.36 2369.16 4197.39 2365.29 4237.15 2361.41 4276.92 2317.64 4469.39 2315.32 4516.27 2312.87 4565.61 2339.64 4572.49 2375.13 4576.31 2440.51 4583.33 2536.23 4534.35 2592.02 4499.52 2627.05 4477.66 2673.16 4451.55 2678.24 4410.57 2696.18 4265.7 2692.84 4007.08 2677.57 3809.32 2674.75 3772.85 2619.57 3755.21 2616.55 3812Z" stroke="#1A1919" stroke-width="22.574" fill="#FFFFFF" transform="matrix(3.42674 0 0 1 -5249.59 -2125.24)"/><path d="M2726.11 4513.75C2722.45 4587.77 2749.51 4709.85 2784.85 4710.72 2860.87 4712.58 3068.03 4732.75 3123.83 4742.73 3195.55 4755.54 3214.49 4711.35 3231.97 4671.98 3250.88 4629.4 3243.17 4566.9 3210.27 4533.91 3115.78 4439.17 2966.56 4466.17 2832.84 4471.47 2803.8 4472.62 2727.54 4484.72 2726.1 4513.75Z" stroke="#1A1919" stroke-width="22.574" fill="#FFFFFF" transform="matrix(3.42674 0 0 1 -5249.59 -2125.24)"/><path d="M2529.72 3992.81C2477.72 4065.52 2419.95 4128.54 2410.11 4140.4 2391.9 4162.32 2369.17 4197.3 2365.3 4237.06 2361.42 4276.82 2317.54 4469.28 2315.22 4516.15 2312.78 4565.5 2339.61 4572.52 2375.1 4576.33 2432.78 4582.53 2513.97 4545.12 2570.62 4512.32L2581.88 4004.34C2581.88 4004.34 2554.94 4026.06 2529.72 3992.81Z" stroke="#1A1919" stroke-width="22.574" fill="#999999" transform="matrix(3.42674 0 0 1 -5249.59 -2125.24)"/><path d="M2576.75 4502.53C2498.01 4509.39 2434.63 4563.15 2350.38 4571.37 2317.8 4574.55 2300.27 4586.34 2303.32 4599.41 2312.73 4639.83 2319.5 4659.61 2343.34 4675.56 2408.52 4689.03 2638.59 4706.96 2690.79 4690.88 2712.04 4678 2720.93 4673.53 2719.96 4639.11 2718.95 4603.36 2710.12 4567.15 2698.6 4533.29 2697.62 4530.41 2696.25 4527.97 2694.97 4525.57 2654.24 4540.13 2587.4 4553.63 2576.75 4502.53Z" stroke="#1A1919" stroke-width="22.574" fill="#999999" transform="matrix(3.42674 0 0 1 -5249.59 -2125.24)"/><path d="M2966.37 4546.25C2881.94 4542.39 2782.43 4543.14 2726.4 4547.55 2730.34 4619.87 2754.61 4710.04 2784.95 4710.79 2860.96 4712.65 3068.01 4732.66 3123.81 4742.63 3139.39 4745.42 3152.43 4745.39 3163.56 4743.42 3152.44 4671.6 3133.58 4577.1 3109.56 4564.41 3092.35 4555.32 3034.38 4549.37 2966.37 4546.26Z" stroke="#1A1919" stroke-width="22.574" fill="#999999" transform="matrix(3.42674 0 0 1 -5249.59 -2125.24)"/><path d="M1839.03 3408.15C1845.12 3438.89 1978.53 3818.41 1944.78 3885.23 1911.03 3952.05 1816.21 4099.56 1757.16 4062.39 1698.12 4025.22 1612.77 3750.82 1630.4 3702.23 1648.03 3653.63 1683.15 3288.08 1683.15 3288.08 1748.78 3318.74 1792.27 3352.16 1839.03 3408.14Z" stroke="#1A1919" stroke-width="22.574" fill="#FFFFFF" transform="matrix(-3.42674 0 0 1 9434.18 -2142.58)"/><path d="M1681.16 3273.23C1664.05 3265.66 1663.92 3284.73 1662.88 3296.82 1640.47 3563.59 1590.16 3920.83 1755.34 4070.35 1794.94 4095.29 1855.05 4030.6 1897.63 3969.43 1821.03 3755.6 1780.02 3531.12 1731.23 3310.29 1713.32 3298.47 1701.35 3282.66 1681.17 3273.23Z" stroke="#1A1919" stroke-width="22.574" fill="#999999" transform="matrix(-3.42674 0 0 1 9434.18 -2142.58)"/><path d="M2627.61 3186.09C2625.39 3186.2 2622.92 3186.82 2620.45 3188.09 2516.43 3241.9 2417.44 3408.3 2416.31 3431.08 2416.13 3434.67 2414.09 3447.65 2411.37 3464.27L2555.49 3525.32 2678.37 3321.16C2678.51 3279.68 2676.12 3250.4 2671.23 3241.93 2653.79 3211.74 2643.21 3185.38 2627.62 3186.09Z" stroke="#1A1919" stroke-width="22.574" fill="#CCCCCC" transform="matrix(-3.42674 0 0 1 9434.18 -2142.58)"/><path d="M1557.74 1899.73C1557.74 1967.34 1504.14 2022.14 1438.02 2022.14 1371.9 2022.14 1318.3 1967.34 1318.3 1899.73 1318.3 1832.12 1371.9 1777.32 1438.02 1777.32 1504.14 1777.32 1557.74 1832.12 1557.74 1899.73Z" stroke="#1A1919" stroke-width="22.5993" fill="#1A1A1A" transform="matrix(-3.41872 0.0494005 0.169283 0.997658 5413.77 -804.921)"/><path d="M1869.95 2937.86C2044.94 2938.91 2566.48 2934.29 2580.73 2954.02 2594.97 2973.76 2577.4 3111.27 2542.13 3195.64 2511.07 3269.94 2399.72 3458 2319.82 3458.61 2206.2 3459.48 2101.23 3224.02 2075.04 3176.32 2019.19 3074.61 1869.96 2937.85 1869.96 2937.85Z" stroke="#1A1919" stroke-width="22.574" fill="#D7D8D6" transform="matrix(-3.42674 0 0 1 9434.18 -2142.58)"/><path d="M2420.69 3417.63C2395.86 3549.75 2366.44 3685.41 2362.84 3820.42 2377.66 3866.81 2386.39 3918.56 2464.11 3924.32 2494.41 3926.56 2514.89 3918.5 2530.04 3905.21 2517.72 3885.98 2517.04 3851.44 2516.1 3832.75 2513.39 3778.8 2605.49 3441.61 2605.49 3441.61 2605.49 3441.61 2487.93 3506.93 2420.69 3417.63Z" stroke="#1A1919" stroke-width="22.574" fill="#999999" transform="matrix(-3.42674 0 0 1 9434.18 -2142.58)"/><path d="M1067.86 1302.3C1067.86 1348.64 1031.11 1386.21 985.786 1386.21 940.459 1386.21 903.714 1348.64 903.714 1302.3 903.714 1255.95 940.459 1218.38 985.786 1218.38 1031.11 1218.38 1067.86 1255.95 1067.86 1302.3Z" stroke="#1A1919" stroke-width="22.5993" fill="#1A1A1A" transform="matrix(-3.41872 0.0494006 0.169283 0.997658 3275.16 1108.75)"/><path d="M2303.3 4599.38C2312.71 4639.8 2319.45 4659.61 2343.29 4675.56 2408.47 4689.03 2638.5 4706.94 2690.7 4690.86 2711.95 4677.98 2720.88 4673.45 2719.9 4639.03 2718.89 4603.28 2710.02 4567.19 2698.5 4533.33 2683.51 4489.27 2632.27 4503.54 2603.02 4501.97 2511.52 4497.03 2443.78 4562.15 2350.35 4571.27 2317.77 4574.45 2300.25 4586.31 2303.3 4599.38Z" stroke="#1A1919" stroke-width="22.574" fill="#FFFFFF" transform="matrix(-3.42674 0 0 1 9434.18 -2142.58)"/><path d="M1297.84 1582.77C1297.84 1639.1 1253.18 1684.76 1198.1 1684.76 1143.01 1684.76 1098.35 1639.1 1098.35 1582.77 1098.35 1526.45 1143.01 1480.78 1198.1 1480.78 1253.18 1480.78 1297.84 1526.45 1297.84 1582.77Z" stroke="#1A1919" stroke-width="22.5993" fill="#1A1A1A" transform="matrix(-3.41872 0.0493998 0.16928 0.997658 4616.24 125.052)"/><path d="M2616.55 3812C2610.75 3921.27 2428.24 4118.5 2410.03 4140.43 2391.82 4162.36 2369.16 4197.39 2365.29 4237.15 2361.41 4276.92 2317.64 4469.39 2315.32 4516.27 2312.87 4565.61 2339.64 4572.49 2375.13 4576.31 2440.51 4583.33 2536.23 4534.35 2592.02 4499.52 2627.05 4477.66 2673.16 4451.55 2678.24 4410.57 2696.18 4265.7 2692.84 4007.08 2677.57 3809.32 2674.75 3772.85 2619.57 3755.21 2616.55 3812Z" stroke="#1A1919" stroke-width="22.574" fill="#FFFFFF" transform="matrix(-3.42674 0 0 1 9434.18 -2142.58)"/><path d="M2726.11 4513.75C2722.45 4587.77 2749.51 4709.85 2784.85 4710.72 2860.87 4712.58 3068.03 4732.75 3123.83 4742.73 3195.55 4755.54 3214.49 4711.35 3231.97 4671.98 3250.88 4629.4 3243.17 4566.9 3210.27 4533.91 3115.78 4439.17 2966.56 4466.17 2832.84 4471.47 2803.8 4472.62 2727.54 4484.72 2726.1 4513.75Z" stroke="#1A1919" stroke-width="22.574" fill="#FFFFFF" transform="matrix(-3.42674 0 0 1 9434.18 -2142.58)"/><path d="M2529.72 3992.81C2477.72 4065.52 2419.95 4128.54 2410.11 4140.4 2391.9 4162.32 2369.17 4197.3 2365.3 4237.06 2361.42 4276.82 2317.54 4469.28 2315.22 4516.15 2312.78 4565.5 2339.61 4572.52 2375.1 4576.33 2432.78 4582.53 2513.97 4545.12 2570.62 4512.32L2581.88 4004.34C2581.88 4004.34 2554.94 4026.06 2529.72 3992.81Z" stroke="#1A1919" stroke-width="22.574" fill="#999999" transform="matrix(-3.42674 0 0 1 9434.18 -2142.58)"/><path d="M2576.75 4502.53C2498.01 4509.39 2434.63 4563.15 2350.38 4571.37 2317.8 4574.55 2300.27 4586.34 2303.32 4599.41 2312.73 4639.83 2319.5 4659.61 2343.34 4675.56 2408.52 4689.03 2638.59 4706.96 2690.79 4690.88 2712.04 4678 2720.93 4673.53 2719.96 4639.11 2718.95 4603.36 2710.12 4567.15 2698.6 4533.29 2697.62 4530.41 2696.25 4527.97 2694.97 4525.57 2654.24 4540.13 2587.4 4553.63 2576.75 4502.53Z" stroke="#1A1919" stroke-width="22.574" fill="#999999" transform="matrix(-3.42674 0 0 1 9434.18 -2142.58)"/><path d="M2966.37 4546.25C2881.94 4542.39 2782.43 4543.14 2726.4 4547.55 2730.34 4619.87 2754.61 4710.04 2784.95 4710.79 2860.96 4712.65 3068.01 4732.66 3123.81 4742.63 3139.39 4745.42 3152.43 4745.39 3163.56 4743.42 3152.44 4671.6 3133.58 4577.1 3109.56 4564.41 3092.35 4555.32 3034.38 4549.37 2966.37 4546.26Z" stroke="#1A1919" stroke-width="22.574" fill="#999999" transform="matrix(-3.42674 0 0 1 9434.18 -2142.58)"/><path d="M1564.59 1898.05C1564.59 1906.43 1552.94 1913.22 1538.58 1913.22 1524.22 1913.22 1512.58 1906.43 1512.58 1898.05 1512.58 1889.67 1524.22 1882.88 1538.58 1882.88 1552.94 1882.88 1564.59 1889.67 1564.59 1898.05Z" stroke="#1A1919" stroke-width="23.5792" fill="#FFFFFF" transform="matrix(-3.12746 0.289137 0.990796 0.912665 5821.95 -1068.44)"/><path d="M1564.59 1898.05C1564.59 1906.43 1552.94 1913.22 1538.58 1913.22 1524.22 1913.22 1512.58 1906.43 1512.58 1898.05 1512.58 1889.67 1524.22 1882.88 1538.58 1882.88 1552.94 1882.88 1564.59 1889.67 1564.59 1898.05Z" stroke="#1A1919" stroke-width="23.5792" fill="#FFFFFF" transform="matrix(-3.12746 0.289137 0.990796 0.912665 3549.25 -1081.23)"/><g clip-path="url(#clip10)"><path d="M773.561 590.233C671.33 610.275 598.85 709.343 608.653 821.213 618.442 933.11 707.038 1018.04 811.205 1019.99M1708.82 376.595C1771.56 553.352 1778.14 956.057 1662.25 1126.49 1557.62 1280.35 1447.51 1331 1263.44 1331 1079.38 1331 969.269 1280.35 864.638 1126.49 748.746 956.057 755.331 553.352 818.063 376.595 893.052 165.262 1071.42 102.19 1260.04 102.19 1448.65 102.19 1633.84 165.262 1708.82 376.595ZM1749.56 589.933C1851.97 609.075 1925.33 707.502 1916.49 819.454 1907.67 931.433 1819.82 1017.13 1715.68 1019.99M1196.53 1400.2 847.609 1517.96C847.609 1517.96 815.786 1867.34 929.415 2253.66M697.263 1808.25C676.02 1778.22 663.545 1741.59 663.545 1702.02 663.545 1600.36 745.951 1517.96 847.609 1517.96M847.609 1886.09C827.416 1886.09 807.987 1882.84 789.799 1876.84M1329.93 1329.91 1332.94 1397.52C1332.94 1397.52 1314.22 1415.7 1268.8 1415.7L1258.11 1415.7C1212.68 1415.7 1193.98 1397.52 1193.98 1397.52L1196.42 1330.5M1329.18 1399.79 1679.31 1517.96C1679.31 1517.96 1711.12 1867.34 1597.5 2253.66M1679.31 1886.09C1780.96 1886.09 1863.37 1803.69 1863.37 1702.02 1863.37 1600.36 1780.96 1517.96 1679.31 1517.96M1492.97 1461.16C1492.97 1461.16 1411.17 1533.87 1265.73 1533.87L1261.18 1533.87C1115.74 1533.87 1033.95 1461.16 1033.95 1461.16M444.617 2025.91C445.926 2024.62 447.262 2023.36 448.626 2022.13M535.068 1993.33C593.382 1998.47 639.112 2047.44 639.112 2107.09 639.112 2170.14 587.983 2221.27 524.924 2221.27 461.865 2221.27 410.736 2170.14 410.736 2107.09 410.736 2075.33 423.689 2046.62 444.617 2025.91M370.337 1618.31C493.183 1593.18 519.838 1533.5 531.278 1462.4 542.13 1394.85 535.368 1353.08 516.307 1331.86 490.197 1302.81 347.759 1273.93 303.433 1265.76 259.108 1257.61 229.153 1280.09 254.295 1332.79 280.064 1386.77 358.23 1382.01 404.723 1382.94 404.723 1382.94 355.803 1423.02 344.786 1486.05 325.535 1596.22 370.337 1618.31 370.337 1618.31ZM151.983 1490.8C151.983 1490.8 149.106 1560.17 217.578 1608.72 266.73 1643.57 319.604 1634.16 370.337 1618.31M259.094 1271.92C257.963 1248.43 260.88 1227.45 269.375 1213.83 291.503 1178.3 347.295 1179.42 361.584 1200.85 382.186 1231.77 388.566 1280.42 388.566 1280.42M364.515 1430.64C364.515 1430.64 342.414 1448 306.706 1409.81 296.221 1398.6 286.39 1380.78 278.387 1360.11M261.767 1227.29C237.02 1215.53 175.775 1225.98 170.403 1277.04 165.099 1327.1 192.94 1428.79 235.507 1457.26 278.073 1485.74 309.078 1449.04 317.804 1422.56M226.972 1451.56C227.722 1475.35 216.978 1512.63 170.089 1498.58 123.2 1484.55 87.0556 1413.61 77.2797 1347.79 68.9764 1291.91 131.926 1271.73 167.103 1292.1M366.383 1209.75C366.383 1209.75 334.083 921.766 348.236 869.356 363.206 813.973 446.376 810.073 457.284 874.06 468.191 938.046 485.684 1310.31 485.684 1310.31M426.934 1611.05 540.835 2024.71C540.835 2024.71 518.379 2067.6 454.189 2049.98L345.127 1631.5M640.816 2083.78 804.429 1856.55C804.429 1856.55 804.429 1771.34 706.711 1792.92L577.185 1999.71M1731.57 1880.41 1796.33 2258.77M1832.12 1810.54 1902 2258.77" stroke="#1A1919" stroke-width="35.4494" stroke-linecap="round" stroke-linejoin="round" fill="none" transform="matrix(-3.52427 0 0 1 6347.05 -1464.07)"/></g><path d="M-432.62 730.751C-330.212 749.894-256.859 848.32-265.694 960.272-274.515 1072.25-362.362 1157.94-466.501 1160.81" fill="#DF516C" transform="matrix(-3.52427 0 0 1 -1343.56 -1604.89)"/><path d="M-502.878 1658.78C-401.22 1658.78-318.814 1741.18-318.814 1842.84-318.814 1944.51-401.22 2026.9-502.878 2026.9L-577.867 2024.64-557.415 1713.31-502.878 1658.78" fill="#9E9F9E" transform="matrix(-3.52427 0 0 1 -1343.56 -1604.89)"/><g clip-path="url(#clip11)"><path d="M847.609 1886.09C827.416 1886.09 807.987 1882.84 789.799 1876.84L697.263 1808.25C676.02 1778.22 663.545 1741.59 663.545 1702.02 663.545 1600.36 745.951 1517.96 847.609 1517.96L933.956 1738.38 847.609 1886.09" fill="#9E9F9E" transform="matrix(-3.52427 0 0 1 6347.05 -1464.07)"/><path d="M1597.5 2253.66C1711.12 1867.34 1679.31 1517.96 1679.31 1517.96L1329.18 1399.79 1196.53 1400.2 847.609 1517.96C847.609 1517.96 815.786 1867.34 929.415 2253.66L1597.5 2253.66" fill="#D7D8D6" transform="matrix(-3.52427 0 0 1 6347.05 -1464.07)"/></g><path d="M-1737.57 2166.72C-1736.26 2165.44-1734.92 2164.18-1733.56 2162.95" fill="#D7D8D6" transform="matrix(-3.52427 0 0 1 -1343.56 -1604.89)"/><path d="M-1647.12 2134.15C-1588.8 2139.29-1543.07 2188.25-1543.07 2247.9-1543.07 2310.96-1594.2 2362.09-1657.26 2362.09-1720.32 2362.09-1771.45 2310.96-1771.45 2247.9-1771.45 2216.15-1758.5 2187.44-1737.57 2166.72" fill="#9E9F9E" transform="matrix(-3.52427 0 0 1 -1343.56 -1604.89)"/><path d="M-1811.85 1759.12C-1694.82 1732.31-1664.04 1678.4-1652.02 1612.79-1639.71 1545.5-1646.82 1493.9-1665.88 1472.68-1691.99 1443.63-1834.43 1414.75-1878.75 1406.58-1923.08 1398.43-1953.03 1420.91-1927.89 1473.61-1902.12 1527.59-1823.95 1522.83-1777.46 1523.75-1777.46 1523.75-1826.38 1563.84-1837.4 1626.87-1856.65 1737.04-1811.85 1759.12-1811.85 1759.12" fill="#9E9F9E" transform="matrix(-3.52427 0 0 1 -1343.56 -1604.89)"/><path d="M-1923.09 1412.74C-1924.22 1389.25-1921.3 1368.27-1912.81 1354.65-1890.68 1319.12-1834.89 1320.23-1820.6 1341.67-1800 1372.59-1793.62 1421.24-1793.62 1421.24" fill="#9E9F9E" transform="matrix(-3.52427 0 0 1 -1343.56 -1604.89)"/><path d="M-1920.42 1368.1C-1945.16 1356.35-2006.41 1366.8-2011.78 1417.86-2017.09 1467.92-1989.24 1569.61-1946.68 1598.08-1904.11 1626.56-1873.11 1589.85-1864.38 1563.38" fill="#9E9F9E" transform="matrix(-3.52427 0 0 1 -1343.56 -1604.89)"/><path d="M-2015.08 1432.92C-2050.26 1412.55-2113.21 1432.73-2104.9 1488.6-2095.13 1554.43-2058.98 1625.37-2012.1 1639.4-1965.21 1653.44-1954.46 1616.17-1955.21 1592.38" fill="#9E9F9E" transform="matrix(-3.52427 0 0 1 -1343.56 -1604.89)"/><path d="M-2030.2 1631.62C-2030.2 1631.62-2026.96 1697.87-1964.61 1749.54-1913.46 1791.94-1862.58 1774.98-1811.85 1759.12L-1707.42 1554.57-1753.59 1492.87-1956.4 1495.44C-1956.4 1495.44-2034.13 1600.79-2030.2 1631.62" fill="#9E9F9E" transform="matrix(-3.52427 0 0 1 -1343.56 -1604.89)"/><path d="M-1696.5 1451.12C-1696.5 1451.12-1712.86 1075.4-1723.77 1011.41-1734.68 947.429-1809.3 957.736-1832.82 1006.7-1856.31 1055.66-1818.64 1320.72-1818.64 1320.72L-1803.87 1425.56-1696.5 1451.12" fill="#9E9F9E" transform="matrix(-3.52427 0 0 1 -1343.56 -1604.89)"/><path d="M-1755.25 1751.87-1641.35 2165.52C-1641.35 2165.52-1663.8 2208.42-1728 2190.8L-1837.06 1772.32" fill="#FFFFFE" transform="matrix(-3.52427 0 0 1 -1343.56 -1604.89)"/><g clip-path="url(#clip12)"><path d="M640.816 2083.78 804.429 1856.55C804.429 1856.55 804.429 1771.34 706.711 1792.92L577.185 1999.71 640.816 2083.78" fill="#FFFFFE" transform="matrix(-3.52427 0 0 1 6347.05 -1464.07)"/><path d="M1832.12 1810.54 1902 2258.77 1796.33 2258.77 1731.57 1880.41 1832.12 1810.54" fill="#FFFFFE" transform="matrix(-3.52427 0 0 1 6347.05 -1464.07)"/></g><path d="M-984.949 1468.39-988.207 1538.34-1148.23 1601.97C-1148.23 1601.97-1066.44 1674.69-921.004 1674.69L-916.45 1674.69C-771.012 1674.69-689.219 1601.97-689.219 1601.97L-849.246 1538.34-852.682 1468.39" fill="#9E9F9E" transform="matrix(-3.52427 0 0 1 -1343.56 -1604.89)"/><path d="M-1370.98 1160.81C-1475.15 1158.86-1563.74 1073.93-1573.53 962.031-1583.33 850.161-1510.85 751.094-1408.62 731.051L-1373.22 761.183-1343.67 1127.03-1370.98 1160.81" fill="#DF516C" transform="matrix(-3.52427 0 0 1 -1343.56 -1604.89)"/><path d="M-1553.08 1014.29C-1562.88 902.422-1490.4 803.368-1388.17 783.325L-1370.19 798.623-1373.22 761.183-1408.62 731.051C-1510.85 751.094-1583.33 850.161-1573.53 962.031-1570.71 994.236-1561.21 1024.08-1546.84 1050.48-1549.78 1038.78-1551.99 1026.74-1553.08 1014.29" fill="#EA8C9B" transform="matrix(-3.52427 0 0 1 -1343.56 -1604.89)"/><path d="M-275.293 1014.29C-265.489 902.422-337.97 803.368-440.2 783.325L-458.184 798.623-455.171 761.183-419.749 731.051C-317.518 751.094-245.038 850.161-254.841 962.031-257.663 994.236-267.166 1024.08-281.551 1050.48-278.592 1038.78-276.383 1026.74-275.293 1014.29" fill="#EA8C9B" transform="matrix(-3.52427 0 0 1 -1343.56 -1604.89)"/><path d="M-473.359 517.414C-410.627 694.17-404.042 1096.88-519.934 1267.31-624.565 1421.17-734.676 1471.82-918.74 1471.82-1102.8 1471.82-1212.92 1421.17-1317.55 1267.31-1433.44 1096.88-1426.85 694.17-1364.12 517.414-1289.13 306.081-1110.77 243.008-922.149 243.008-733.531 243.008-548.348 306.081-473.359 517.414" fill="#D7D8D6" transform="matrix(-3.52427 0 0 1 -1343.56 -1604.89)"/><path d="M-1340.97 583.8C-1262.33 372.467-1075.26 309.394-877.442 309.394-748.897 309.394-621.906 336.076-527.12 412.715-618.647 284.47-769.266 243.008-922.149 243.008-1110.77 243.008-1289.13 306.081-1364.12 517.414-1419.98 674.836-1431.24 1011.33-1351.18 1203.5-1408.28 1007.6-1393.27 724.343-1340.97 583.8" fill="#FFFFFE" transform="matrix(-3.52427 0 0 1 -1343.56 -1604.89)"/><path d="M-994.997 919.765C-994.997 1000.62-1060.36 1066.16-1140.99 1066.16-1221.63 1066.16-1286.98 1000.62-1286.98 919.765-1286.98 838.913-1221.63 773.386-1140.99 773.386-1060.36 773.386-994.997 838.913-994.997 919.765" fill="#FFFFFE" transform="matrix(-3.52427 0 0 1 -1343.56 -1604.89)"/><path d="M-842.483 919.765C-842.483 1000.62-777.093 1066.16-696.472 1066.16-615.839 1066.16-550.475 1000.62-550.475 919.765-550.475 838.913-615.839 773.386-696.472 773.386-777.093 773.386-842.483 838.913-842.483 919.765" fill="#FFFFFE" transform="matrix(-3.52427 0 0 1 -1343.56 -1604.89)"/><path d="M-651.152 2137.78C-651.152 2150.54-661.596 2160.98-674.344 2160.98L-1163.11 2160.98C-1175.87 2160.98-1186.3 2150.54-1186.3 2137.78L-1186.3 1897.85C-1186.3 1885.09-1175.87 1874.66-1163.11 1874.66L-674.344 1874.66C-661.596 1874.66-651.152 1885.09-651.152 1897.85L-651.152 2137.78" fill="#FFFFFE" transform="matrix(-3.52427 0 0 1 -1343.56 -1604.89)"/><path d="M-651.152 2137.78C-651.152 2150.54-661.596 2160.98-674.344 2160.98L-1163.11 2160.98C-1175.87 2160.98-1186.3 2150.54-1186.3 2137.78L-1186.3 1897.85C-1186.3 1885.09-1175.87 1874.66-1163.11 1874.66L-674.344 1874.66C-661.596 1874.66-651.152 1885.09-651.152 1897.85Z" stroke="#1A1919" stroke-width="16.3613" fill="none" transform="matrix(-3.52427 0 0 1 -1343.56 -1604.89)"/><path d="M-1075.04 2009.6-1046.54 2009.6C-1037.44 2009.6-1030.08 2002.23-1030.08 1993.13L-1030.08 1961.94C-1030.08 1958.24-1033.02 1955.3-1036.7 1955.3L-1075.04 1955.3ZM-1030.08 2133.43-1030.08 2060.7C-1030.08 2051.61-1037.44 2044.49-1046.54 2044.49L-1075.04 2044.49-1075.04 2133.43-1109.92 2133.43-1109.92 1920.41-1028.12 1920.41C-1009.94 1920.41-995.175 1935.14-995.175 1953.33L-995.175 1994.11C-995.175 2012.3-1009.94 2027.04-1028.12 2027.04-1009.94 2027.04-995.175 2041.55-995.175 2059.72L-995.175 2133.43-1030.08 2133.43" fill="#1A1919" transform="matrix(-3.52427 0 0 1 -1343.56 -1604.89)"/><path d="M-880.959 2082.33-880.959 1971.77C-880.959 1962.67-888.322 1955.3-897.416 1955.3L-909.701 1955.3C-918.795 1955.3-925.912 1962.67-925.912 1971.77L-925.912 2082.33C-925.912 2091.42-918.795 2098.54-909.701 2098.54L-897.416 2098.54C-888.322 2098.54-880.959 2091.42-880.959 2082.33ZM-911.65 1920.41-895.194 1920.41C-868.17 1920.41-846.055 1942.52-846.055 1969.54L-846.055 2084.29C-846.055 2111.56-868.17 2133.43-895.194 2133.43L-911.65 2133.43C-938.933 2133.43-960.802 2111.56-960.802 2084.29L-960.802 1969.54C-960.802 1942.52-938.933 1920.41-911.65 1920.41" fill="#1A1919" transform="matrix(-3.52427 0 0 1 -1343.56 -1604.89)"/><path d="M-811.669 1955.3-811.669 1920.41-778.02 1920.41C-759.831 1920.41-745.093 1935.14-745.093 1953.33L-745.093 2133.43-779.983 2133.43-779.983 1961.94C-779.983 1958.24-782.928 1955.3-786.623 1955.3L-811.669 1955.3" fill="#1A1919" transform="matrix(-3.52427 0 0 1 -1343.56 -1604.89)"/><path d="M-1129.86 1917.2C-1129.86 1926.2-1137.16 1933.48-1146.16 1933.48-1155.16 1933.48-1162.47 1926.2-1162.47 1917.2-1162.47 1908.19-1155.16 1900.9-1146.16 1900.9-1137.16 1900.9-1129.86 1908.19-1129.86 1917.2" fill="#1A1919" transform="matrix(-3.52427 0 0 1 -1343.56 -1604.89)"/><path d="M-1129.86 2121.79C-1129.86 2130.78-1137.16 2138.07-1146.16 2138.07-1155.16 2138.07-1162.47 2130.78-1162.47 2121.79-1162.47 2112.77-1155.16 2105.48-1146.16 2105.48-1137.16 2105.48-1129.86 2112.77-1129.86 2121.79" fill="#1A1919" transform="matrix(-3.52427 0 0 1 -1343.56 -1604.89)"/><path d="M-673.267 1917.2C-673.267 1926.2-680.561 1933.48-689.56 1933.48-698.572 1933.48-705.866 1926.2-705.866 1917.2-705.866 1908.19-698.572 1900.9-689.56 1900.9-680.561 1900.9-673.267 1908.19-673.267 1917.2" fill="#1A1919" transform="matrix(-3.52427 0 0 1 -1343.56 -1604.89)"/><path d="M-673.267 2121.79C-673.267 2130.78-680.561 2138.07-689.56 2138.07-698.572 2138.07-705.866 2130.78-705.866 2121.79-705.866 2112.77-698.572 2105.48-689.56 2105.48-680.561 2105.48-673.267 2112.77-673.267 2121.79" fill="#1A1919" transform="matrix(-3.52427 0 0 1 -1343.56 -1604.89)"/><path d="M-1837.92 1774.11-1756.11 1745.14-1746.74 1781.77C-1746.74 1781.77-1769.74 1828.65-1825.99 1837.17L-1837.92 1774.11" fill="#CBCCCB" transform="matrix(-3.52427 0 0 1 -1343.56 -1604.89)"/><path d="M-450.617 2021.23-350.064 1951.36-343.587 2022.12C-343.587 2022.12-382.786 2068.13-437.324 2078.36L-450.617 2021.23" fill="#CBCCCB" transform="matrix(-3.52427 0 0 1 -1343.56 -1604.89)"/><path d="M-989.175 1473.59-848.278 1474.73-848.291 1509.94C-848.291 1509.94-906.237 1548.57-989.175 1532.1L-989.175 1473.59" fill="#777776" transform="matrix(-3.52427 0 0 1 -1343.56 -1604.89)"/><path d="M-1089.7 384.642C-1075.45 412.034-1099.37 452.746-1143.15 475.556-1186.94 498.353-1233.99 494.644-1248.27 467.226-1262.54 439.82-1238.62 399.135-1194.84 376.325-1151.04 353.515-1103.99 357.237-1089.7 384.642" fill="#FFFFFE" transform="matrix(-3.52427 0 0 1 -1343.56 -1604.89)"/><path d="M-1387.16 1718.51C-1377.21 1735.01-1390.48 1761.27-1416.83 1777.19-1443.19 1793.12-1472.61 1792.65-1482.58 1776.15-1492.53 1759.67-1479.25 1733.41-1452.89 1717.49-1426.55 1701.56-1397.12 1702.01-1387.16 1718.51" fill="#D7D8D6" transform="matrix(-3.52427 0 0 1 -1343.56 -1604.89)"/><path d="M-1334.58 1658.78-1148.23 1601.97-1114.15 1633.78-1339.13 1726.95C-1339.13 1726.95-1350.49 1688.32-1334.58 1658.78" fill="#F2F1F0" transform="matrix(-3.52427 0 0 1 -1343.56 -1604.89)"/><path d="M-689.219 1601.97-502.878 1658.78-500.601 1729.22C-500.601 1729.22-689.219 1645.14-736.939 1638.32L-689.219 1601.97" fill="#F2F1F0" transform="matrix(-3.52427 0 0 1 -1343.56 -1604.89)"/><path d="M-1824.28 1209.99C-1824.28 1209.99-1820.11 1053.9-1791.33 1022.5-1753.83 981.61-1722.02 1029.32-1722.02 1029.32-1722.02 1029.32-1729.97 966.83-1785.66 966.83-1841.32 966.83-1837.92 1064.55-1839.05 1087.28-1840.19 1110.01-1824.28 1209.99-1824.28 1209.99" fill="#D7D8D6" transform="matrix(-3.52427 0 0 1 -1343.56 -1604.89)"/><path d="M-2095.33 1513.86C-2095.33 1513.86-2061.75 1443.46-2012.33 1466.78-2009 1432.55-1965.74 1392.92-1931.65 1417.9L-1918.73 1408.99-1897.57 1405.97C-1897.57 1405.97-1895.86 1345.2-1822 1357.13L-1850.3 1322.91C-1850.3 1322.91-1896.31 1331.28-1896.65 1332.83-1896.99 1334.39-1914.32 1361.53-1914.32 1361.53L-1974.26 1364.52C-1974.26 1364.52-2011.45 1389.46-2011.45 1402.37-2011.45 1411.2-2011.78 1417.86-2011.78 1417.86-2011.78 1417.86-2077.38 1426.21-2077.65 1426.42-2096.89 1441.13-2105.25 1444.59-2104.16 1464.19-2103.05 1484.05-2095.33 1513.86-2095.33 1513.86" fill="#D7D8D6" transform="matrix(-3.52427 0 0 1 -1343.56 -1604.89)"/><path d="M-1927.89 1473.61C-1933.64 1454.36-1945.71 1419.7-1918.73 1408.99-1891.74 1398.29-1806.68 1426-1806.68 1426-1806.68 1426-1919.46 1418.92-1927.89 1473.61" fill="#D7D8D6" transform="matrix(-3.52427 0 0 1 -1343.56 -1604.89)"/><path d="M-1408.62 731.051C-1510.85 751.094-1583.33 850.161-1573.53 962.031-1563.74 1073.93-1475.15 1158.86-1370.98 1160.81M-473.359 517.414C-410.627 694.17-404.042 1096.88-519.934 1267.31-624.565 1421.17-734.676 1471.82-918.74 1471.82-1102.8 1471.82-1212.92 1421.17-1317.55 1267.31-1433.44 1096.88-1426.85 694.17-1364.12 517.414-1289.13 306.081-1110.77 243.008-922.149 243.008-733.531 243.008-548.348 306.081-473.359 517.414ZM-744.902 1441.14-741.493 1216.84-1101.66 1216.84-1098.25 1437.73M-741.493 1225.43-1101.66 1225.43" stroke="#1A1919" stroke-width="21.815" stroke-linecap="round" stroke-linejoin="round" fill="none" transform="matrix(-3.52427 0 0 1 -1343.56 -1604.89)"/><path d="M-1480.37 760.897C-1480.37 760.897-1513.79 929.322-1449.28 1143.65" stroke="#1A1919" stroke-width="13.6344" stroke-linecap="round" stroke-linejoin="round" fill="none" transform="matrix(-3.52427 0 0 1 -1343.56 -1604.89)"/><path d="M-432.62 730.751C-330.212 749.894-256.859 848.32-265.694 960.272-274.515 1072.25-362.362 1157.94-466.501 1160.81" stroke="#1A1919" stroke-width="21.815" stroke-linecap="round" stroke-linejoin="round" fill="none" transform="matrix(-3.52427 0 0 1 -1343.56 -1604.89)"/><path d="M-360.603 759.97C-360.603 759.97-325.74 928.095-388.363 1142.97" stroke="#1A1919" stroke-width="13.6344" stroke-linecap="round" stroke-linejoin="round" fill="none" transform="matrix(-3.52427 0 0 1 -1343.56 -1604.89)"/><path d="M-994.37 919.765C-994.37 999.73-1059.19 1064.56-1139.15 1064.56-1219.12 1064.56-1283.92 999.73-1283.92 919.765-1283.92 839.813-1219.12 774.995-1139.15 774.995-1059.19 774.995-994.37 839.813-994.37 919.765Z" stroke="#1A1919" stroke-width="21.815" stroke-linecap="round" stroke-linejoin="round" fill="none" transform="matrix(-3.52427 0 0 1 -1343.56 -1604.89)"/><path d="M-1048.96 919.765C-1048.96 969.585-1089.33 1009.97-1139.15 1009.97-1188.96 1009.97-1229.36 969.585-1229.36 919.765-1229.36 869.958-1188.96 829.573-1139.15 829.573-1089.33 829.573-1048.96 869.958-1048.96 919.765" fill="#1A1919" transform="matrix(-3.52427 0 0 1 -1343.56 -1604.89)"/><path d="M-843.124 919.765C-843.124 999.73-778.279 1064.56-698.327 1064.56-618.375 1064.56-553.543 999.73-553.543 919.765-553.543 839.813-618.375 774.995-698.327 774.995-778.279 774.995-843.124 839.813-843.124 919.765Z" stroke="#1A1919" stroke-width="21.815" stroke-linecap="round" stroke-linejoin="round" fill="none" transform="matrix(-3.52427 0 0 1 -1343.56 -1604.89)"/><path d="M-788.518 919.765C-788.518 969.585-748.133 1009.97-698.327 1009.97-648.52 1009.97-608.135 969.585-608.135 919.765-608.135 869.958-648.52 829.573-698.327 829.573-748.133 829.573-788.518 869.958-788.518 919.765" fill="#1A1919" transform="matrix(-3.52427 0 0 1 -1343.56 -1604.89)"/><g clip-path="url(#clip13)"><path d="M1196.53 1400.2 847.609 1517.96C847.609 1517.96 815.786 1867.34 929.415 2253.66M697.263 1808.25C676.02 1778.22 663.545 1741.59 663.545 1702.02 663.545 1600.36 745.951 1517.96 847.609 1517.96M847.609 1886.09C827.416 1886.09 807.987 1882.84 789.799 1876.84M1329.93 1329.91 1332.94 1397.52C1332.94 1397.52 1314.22 1415.7 1268.8 1415.7L1258.11 1415.7C1212.68 1415.7 1193.98 1397.52 1193.98 1397.52L1196.42 1330.5M1329.18 1399.79 1679.31 1517.96C1679.31 1517.96 1719.64 1884.38 1606.02 2270.7M1679.31 1886.09C1780.96 1886.09 1863.37 1803.69 1863.37 1702.02 1863.37 1600.36 1780.96 1517.96 1679.31 1517.96M1492.97 1461.16C1492.97 1461.16 1411.17 1533.87 1265.73 1533.87L1261.18 1533.87C1115.74 1533.87 1033.95 1461.16 1033.95 1461.16" stroke="#1A1919" stroke-width="21.815" stroke-linecap="round" stroke-linejoin="round" fill="none" transform="matrix(-3.52427 0 0 1 6347.05 -1464.07)"/></g><path d="M-1054.58 865.432C-1054.58 879.489-1065.95 890.901-1080.04 890.901-1094.09 890.901-1105.52 879.489-1105.52 865.432-1105.52 851.361-1094.09 839.963-1080.04 839.963-1065.95 839.963-1054.58 851.361-1054.58 865.432" fill="#FFFFFE" transform="matrix(-3.52427 0 0 1 -1343.56 -1604.89)"/><path d="M-612.348 865.432C-612.348 879.489-623.747 890.901-637.804 890.901-651.902 890.901-663.314 879.489-663.314 865.432-663.314 851.361-651.902 839.963-637.804 839.963-623.747 839.963-612.348 851.361-612.348 865.432" fill="#FFFFFE" transform="matrix(-3.52427 0 0 1 -1343.56 -1604.89)"/><path d="M-1737.57 2166.72C-1736.26 2165.44-1734.92 2164.18-1733.56 2162.95M-1647.12 2134.15C-1588.8 2139.29-1543.07 2188.25-1543.07 2247.9-1543.07 2310.96-1594.2 2362.09-1657.26 2362.09-1720.32 2362.09-1771.45 2310.96-1771.45 2247.9-1771.45 2216.15-1758.5 2187.44-1737.57 2166.72M-1811.85 1759.12C-1689 1734-1662.35 1674.32-1650.91 1603.22-1640.05 1535.67-1646.82 1493.9-1665.88 1472.68-1691.99 1443.63-1834.43 1414.75-1878.75 1406.58-1923.08 1398.43-1953.03 1420.91-1927.89 1473.61-1902.12 1527.59-1823.95 1522.83-1777.46 1523.75-1777.46 1523.75-1826.38 1563.84-1837.4 1626.87-1856.65 1737.04-1811.85 1759.12-1811.85 1759.12ZM-2030.2 1631.62C-2030.2 1631.62-2033.08 1700.99-1964.61 1749.54-1915.45 1784.39-1862.58 1774.98-1811.85 1759.12M-1923.32 1407.96C-1924.47 1384.47-1921.3 1368.27-1912.81 1354.65-1890.68 1319.12-1834.89 1320.23-1820.6 1341.67-1800 1372.59-1793.62 1421.24-1793.62 1421.24M-1817.67 1571.46C-1817.67 1571.46-1839.77 1588.82-1875.48 1550.63-1885.96 1539.42-1894.72 1525.28-1902.71 1504.63M-1920.42 1368.1C-1945.16 1356.35-2006.41 1366.8-2011.78 1417.86-2017.09 1467.92-1989.24 1569.61-1946.68 1598.08-1904.11 1626.56-1873.11 1589.85-1864.38 1563.38M-1955.21 1592.38C-1954.46 1616.17-1965.21 1653.44-2012.1 1639.4-2058.98 1625.37-2095.13 1554.43-2104.9 1488.6-2113.21 1432.73-2050.26 1412.55-2015.08 1432.92M-1815.8 1350.57C-1815.8 1350.57-1848.1 1062.58-1833.95 1010.17-1818.98 954.791-1735.81 950.892-1724.9 1014.88-1713.99 1078.86-1696.5 1451.12-1696.5 1451.12" stroke="#1A1919" stroke-width="21.8185" stroke-linecap="round" stroke-linejoin="round" fill="none" transform="matrix(-3.52427 0 0 1 -1343.56 -1604.89)"/><path d="M-1780.54 1525.28C-1780.54 1525.28-1698.07 1487.57-1662.37 1470.76" stroke="#1A1919" stroke-width="16.3613" stroke-linecap="round" stroke-linejoin="round" fill="none" transform="matrix(-3.52427 0 0 1 -1343.56 -1604.89)"/><path d="M-1755.25 1751.87-1641.35 2165.52C-1641.35 2165.52-1663.8 2208.42-1728 2190.8L-1837.06 1772.32M-1541.37 2224.6-1377.76 1997.37C-1377.76 1997.37-1377.76 1912.16-1475.47 1933.74L-1605 2140.53M-450.617 2021.23-385.854 2399.59M-350.064 1951.36-280.187 2399.59" stroke="#1A1919" stroke-width="21.8185" stroke-linecap="round" stroke-linejoin="round" fill="none" transform="matrix(-3.52427 0 0 1 -1343.56 -1604.89)"/><path d="M-335.797 2494.46-305.174 2892.55-159.718 2854.27-236.274 2479.15Z" stroke="#1A1919" stroke-width="28.5485" fill="#FFFFFE" transform="matrix(-3.52427 0 0 1 -1343.56 -1604.89)"/><path d="M-206.374 2419.32C-206.374 2480.17-255.575 2529.49-316.269 2529.49-376.963 2529.49-426.164 2480.17-426.164 2419.32-426.164 2358.48-376.963 2309.16-316.269 2309.16-255.575 2309.16-206.374 2358.48-206.374 2419.32Z" stroke="#1A1919" stroke-width="21.815" stroke-linecap="round" stroke-linejoin="round" fill="#9E9F9E" transform="matrix(-3.52427 0 0 1 -1343.56 -1604.89)"/><path d="M-1250.49 698.179-1045.98 698.179M-800.571 698.179-596.055 698.179" stroke="#1A1919" stroke-width="40.9032" stroke-linecap="round" fill="none" transform="matrix(-3.52427 0 0 1 -1343.56 -1604.89)"/><path d="M-1831.21 1185.27C-1831.21 1185.27-1793.67 1151.03-1713.54 1175.03" stroke="#1A1919" stroke-width="16.3613" stroke-linecap="round" stroke-linejoin="round" fill="none" transform="matrix(-3.52427 0 0 1 -1343.56 -1604.89)"/><path d="M-1379.96 579.887-459.698 579.887" stroke="#1A1919" stroke-width="16.3613" fill="none" transform="matrix(-3.52427 0 0 1 -1343.56 -1604.89)"/><path d="M2816.12 1199.73C2933.14 1172.91 2963.93 1119 2975.94 1053.4 2988.25 986.11 2981.15 934.504 2962.09 913.289 2935.98 884.234 2793.54 855.356 2749.21 847.189 2704.89 839.036 2674.93 861.519 2700.07 914.216 2725.84 968.194 2804.01 963.436 2850.5 964.363 2850.5 964.363 2801.58 1004.45 2790.57 1067.48 2771.31 1177.65 2816.12 1199.73 2816.12 1199.73" fill="#9E9F9E" transform="matrix(3.52427 0 0 -1 -10387.5 2403.98)"/><path d="M2704.87 853.352C2703.74 829.86 2706.66 808.876 2715.15 795.256 2737.28 759.724 2793.07 760.842 2807.36 782.276 2827.96 813.199 2834.35 861.846 2834.35 861.846" fill="#9E9F9E" transform="matrix(3.52427 0 0 -1 -10387.5 2403.98)"/><path d="M2707.55 808.713C2682.8 796.96 2621.55 807.404 2616.18 858.465 2610.88 908.53 2638.72 1010.22 2681.29 1038.68 2723.85 1067.17 2754.86 1030.46 2763.58 1003.98" fill="#9E9F9E" transform="matrix(3.52427 0 0 -1 -10387.5 2403.98)"/><path d="M2612.88 873.531C2577.71 853.161 2514.76 873.34 2523.06 929.214 2532.83 995.04 2568.98 1065.98 2615.87 1080.01 2662.76 1094.05 2673.5 1056.78 2672.75 1032.98" fill="#9E9F9E" transform="matrix(3.52427 0 0 -1 -10387.5 2403.98)"/><path d="M2597.76 1072.22C2597.76 1072.22 2601.01 1138.47 2663.36 1190.15 2714.5 1232.55 2765.38 1215.59 2816.12 1199.73L2920.54 995.177 2874.38 933.481 2671.56 936.044C2671.56 936.044 2593.83 1041.4 2597.76 1072.22" fill="#9E9F9E" transform="matrix(3.52427 0 0 -1 -10387.5 2403.98)"/><path d="M2931.46 891.733C2931.46 891.733 2932.14 871.782 2921.24 807.796 2910.33 743.81 2835.71 754.117 2812.19 803.078 2788.7 852.04 2809.33 761.333 2809.33 761.333L2824.09 866.168 2931.46 891.733" fill="#9E9F9E" transform="matrix(3.52427 0 0 -1 -10387.5 2403.98)"/><path d="M2835.64 850.85C2835.64 850.85 2824.9 814.367 2853.68 787.313 2891.17 752.084 2922.98 793.187 2922.98 793.187 2922.98 793.187 2915.03 739.35 2859.35 739.35 2803.68 739.35 2824.13 804.368 2823 823.95 2821.86 843.532 2814.48 796.255 2814.48 796.255" fill="#D7D8D6" transform="matrix(3.52427 0 0 -1 -10387.5 2403.98)"/><path d="M2532.63 954.464C2532.63 954.464 2566.21 884.07 2615.64 907.385 2618.96 873.163 2662.22 833.527 2696.31 858.506L2709.24 849.602 2730.4 846.576C2730.4 846.576 2732.1 785.807 2805.96 797.737L2777.67 763.515C2777.67 763.515 2731.65 771.886 2731.31 773.441 2730.97 774.995 2713.64 802.141 2713.64 802.141L2653.7 805.127C2653.7 805.127 2616.51 830.064 2616.51 842.976 2616.51 851.811 2616.18 858.465 2616.18 858.465 2616.18 858.465 2550.59 866.823 2550.31 867.027 2531.08 881.739 2522.72 885.202 2523.81 904.794 2524.91 924.66 2532.63 954.464 2532.63 954.464" fill="#D7D8D6" transform="matrix(3.52427 0 0 -1 -10387.5 2403.98)"/><path d="M2700.07 914.216C2694.32 894.964 2682.25 860.305 2709.24 849.602 2736.22 838.899 2821.28 866.604 2821.28 866.604 2821.28 866.604 2708.5 859.528 2700.07 914.216" fill="#D7D8D6" transform="matrix(3.52427 0 0 -1 -10387.5 2403.98)"/><path d="M2816.12 1199.73C2938.96 1174.61 2965.62 1114.93 2977.06 1043.82 2987.91 976.279 2981.15 934.504 2962.09 913.289 2935.98 884.234 2793.54 855.356 2749.21 847.189 2704.89 839.036 2674.93 861.519 2700.07 914.216 2725.84 968.194 2804.01 963.436 2850.5 964.363 2850.5 964.363 2801.58 1004.45 2790.57 1067.48 2771.31 1177.65 2816.12 1199.73 2816.12 1199.73ZM2597.76 1072.22C2597.76 1072.22 2594.88 1141.6 2663.36 1190.15 2712.51 1225 2765.38 1215.59 2816.12 1199.73M2704.64 848.566C2703.5 825.074 2706.66 808.876 2715.15 795.256 2737.28 759.724 2793.07 760.842 2807.36 782.276 2827.96 813.199 2834.35 861.846 2834.35 861.846M2810.29 1012.07C2810.29 1012.07 2788.19 1029.43 2752.48 991.236 2742 980.029 2733.25 965.89 2725.26 945.234M2707.55 808.713C2682.8 796.96 2621.55 807.404 2616.18 858.465 2610.88 908.53 2638.72 1010.22 2681.29 1038.68 2723.85 1067.17 2754.86 1030.46 2763.58 1003.98M2672.75 1032.98C2673.5 1056.78 2662.76 1094.05 2615.87 1080.01 2568.98 1065.98 2532.83 995.04 2523.06 929.214 2514.76 873.34 2577.71 853.161 2612.88 873.531M2812.16 791.179C2812.16 791.179 2812.16 791.179 2813.19 778.86 2828.16 723.477 2911.33 719.578 2922.24 783.564 2933.14 847.55 2931.46 891.733 2931.46 891.733" stroke="#1A1919" stroke-width="21.815" stroke-linecap="round" stroke-linejoin="round" fill="none" transform="matrix(3.52427 0 0 -1 -10387.5 2403.98)"/><path d="M2847.42 965.89C2847.42 965.89 2929.9 928.177 2965.59 911.366" stroke="#1A1919" stroke-width="16.3613" stroke-linecap="round" stroke-linejoin="round" fill="none" transform="matrix(3.52427 0 0 -1 -10387.5 2403.98)"/><path d="M-576.457 2406.32-554.076 2327.99" stroke="#1A1919" stroke-width="28.5485" fill="none" transform="matrix(-3.52427 0 0 1 -1343.56 -1604.89)"/></g></g><text font-family="Calibri,Calibri_MSFontService,sans-serif" font-weight="400" font-size="59" transform="translate(997.332 437)">GODOT</text></g></svg>