<svg width="378" height="664" xmlns="http://www.w3.org/2000/svg" xmlns:xlink="http://www.w3.org/1999/xlink" overflow="hidden"><defs><clipPath id="clip0"><rect x="152" y="-3" width="378" height="664"/></clipPath><clipPath id="clip1"><rect x="185" y="-3" width="345" height="663"/></clipPath><clipPath id="clip2"><rect x="185" y="-3" width="345" height="663"/></clipPath><clipPath id="clip3"><rect x="9" y="-3" width="521" height="663"/></clipPath><clipPath id="clip4"><rect x="9" y="-3" width="521" height="663"/></clipPath><clipPath id="clip5"><rect x="152" y="383" width="135" height="277"/></clipPath><clipPath id="clip6"><rect x="152" y="383" width="135" height="277"/></clipPath><clipPath id="clip7"><rect x="152" y="-2" width="521" height="662"/></clipPath><clipPath id="clip8"><rect x="152" y="-2" width="521" height="662"/></clipPath></defs><g clip-path="url(#clip0)" transform="translate(-152 3)"><g clip-path="url(#clip1)"><g clip-path="url(#clip2)"><g clip-path="url(#clip3)"><g clip-path="url(#clip4)"><path d="M340.447 662.796C339.856 662.784 339.265 662.778 338.674 662.772 336.372 661.584 336.871 659.934 338.059 658.326 339.771 656.01 341.603 653.778 343.308 651.456 348.605 644.238 353.53 636.768 358.08 629.058 365.6 617.016 372.424 604.584 379.223 592.13 389.907 572.565 399.618 552.506 409.558 532.565 418.247 515.132 426.31 497.396 434.518 479.731 435.61 477.381 435.373 475.767 433.173 474.085 425.079 467.893 417.134 461.507 409.119 455.212 405.178 452.118 404.924 451.097 407.541 446.725 412.519 438.407 417.527 430.108 422.504 421.789 424.354 418.696 424.323 418.237 421.271 416.29 415.378 412.529 409.896 408.154 403.82 404.674 395.941 398.795 387.714 393.432 379.369 388.13 380.621 391.943 381.421 395.723 382.075 399.545 383.204 408.105 382.863 416.675 382.377 425.249 381.92 433.318 381.245 441.365 380.411 449.404 378.01 472.561 374.495 495.552 370.305 518.444 365.52 544.582 359.923 570.549 353.46 596.321 350.716 607.26 348.056 618.234 344.784 629.04 341.83 639.228 339.1 649.482 335.989 659.628 335.64 660.768 335.428 661.956 334.43 662.766 332.048 662.778 329.667 662.784 327.286 662.79 325.633 661.542 325.386 659.586 324.871 657.804 322.169 648.462 319.361 639.156 316.838 629.76 310.569 607.326 305.009 584.72 299.995 561.978 293.581 532.883 288.113 503.614 284.131 474.085 282.129 459.242 280.473 444.362 279.449 429.403 278.867 420.904 279.204 412.429 278.992 403.945 278.954 402.436 279.178 400.958 279.576 399.511 280.114 395.781 280.973 392.119 281.941 388.209 271.332 394.363 261.025 400.913 250.915 407.78 245.867 410.635 241.162 414.031 236.217 417.043 234.304 418.208 234.262 419.397 235.365 421.214 240.601 429.84 245.777 438.502 250.955 447.162 253.347 451.162 253.232 452.066 249.578 454.905 241.375 461.279 233.327 467.854 225.063 474.147 222.981 475.732 222.605 477.202 223.758 479.471 234.806 501.199 245.406 523.152 256.664 544.777 262.613 556.205 268.584 567.619 274.699 578.959 283.803 595.84 293.074 612.624 303.25 628.89 309.059 638.82 315.43 648.372 322.531 657.432 324.694 660.186 324.673 661.068 322.444 662.784 321.854 662.784 321.264 662.784 320.674 662.778 318.989 662.19 317.956 660.87 316.917 659.514 309.289 649.566 302.657 638.952 296.096 628.296 286.184 611.856 276.949 595.042 267.835 578.152 252.355 549.469 237.683 520.376 223.219 491.176 221.135 486.968 219.242 482.665 217.154 478.456 215.581 475.284 215.801 474.272 218.606 472.024 226.796 465.461 235.108 459.05 243.318 452.51 246.158 450.248 246.218 450.22 244.411 447.19 239.391 438.777 234.204 430.465 229.217 422.031 226.526 417.48 226.733 416.529 231.06 413.485 241.208 407.293 251.017 400.571 261.489 394.117 244.336 399.069 227.721 404.313 211.577 410.941 203.522 414.248 195.673 418.013 188.384 422.808 181.295 427.47 175.849 433.958 170.094 440.042 164.195 446.278 158.411 452.633 152.668 459.019 144.386 468.226 136.4 477.728 127.687 486.503 123.407 490.814 123.137 494.898 124.805 499.94 126.172 507.317 127.675 514.656 129.993 521.809 130.919 524.668 130.288 526.415 128.318 527.12 126.283 527.848 124.382 526.765 123.279 524.041 121.736 520.231 120.762 516.248 119.929 512.227 114.733 487.149 111.2 461.811 107.914 436.429 106.901 428.602 106.048 420.758 105.084 412.925 104.856 411.073 104.385 409.418 102.368 408.338 103.052 411.395 103.798 414.251 104.452 417.124 105.132 420.112 104.661 422.837 103.351 425.551 100.667 431.113 96.452 435.317 91.601 438.941 83.992 444.626 75.683 448.849 66.368 451.035 61.516 452.174 56.634 451.966 51.747 451.819 48.888 451.734 47.242 450.008 46.469 447.305 45.518 443.977 44.658 440.62 43.617 436.99 41.669 439.396 40.973 441.788 41.24 444.482 41.909 450.034 42.912 455.531 43.971 461.017 49.193 488.063 55.18 514.945 61.472 541.76 63.516 550.468 66.145 558.923 72.324 565.766 79.838 573.867 88.936 576.02 99.362 572.816 108.281 570.075 116.701 566.105 124.925 561.764 141.821 552.845 158.237 543.112 173.98 532.267 176.779 530.338 179.51 528.315 182.295 526.369 184.343 524.938 185.017 523.085 184.695 520.669 183.19 509.377 181.852 498.064 180.365 486.77 179.974 483.802 179.477 480.832 179.471 477.831 179.465 474.923 180.7 473.345 182.764 473.326 184.829 473.306 186.115 474.786 186.466 477.6 190.931 513.489 195.457 549.37 200.146 585.23 200.819 590.38 201.638 595.513 202.114 600.69 204.887 620.25 207.338 639.852 210.186 659.394 210.359 660.582 210.59 661.788 209.637 662.796 204.321 663.036 204.311 663.036 203.555 657.888 199.193 628.152 195.409 598.333 191.581 568.522 189.996 556.183 188.384 543.848 186.761 531.322 179.75 536.027 173.075 540.725 166.187 545.086 147.384 556.988 128.284 568.367 107.554 576.7 99.754 579.836 91.79 581.815 83.326 579.706 73.075 577.153 66.454 570.283 61.556 561.386 56.909 552.947 55.315 543.532 53.178 534.325 47.158 508.384 41.356 482.392 36.599 456.181 35.887 452.254 35.153 448.315 34.751 444.349 34.222 439.133 36.63 434.836 39.845 431.027 41.423 429.158 42.245 427.5 41.581 424.936 40.635 421.285 42.989 418.601 45.281 416.254 47.071 414.419 47.171 412.798 46.498 410.432 43.654 400.43 38.635 391.867 31.473 384.253 21.82 373.992 12.784 363.154 5.954 350.712 2.119 343.726-0.784 336.446 0.19 328.195 0.402 326.39 0.712 324.549 1.696 323.068 3.77 319.945 4.726 316.471 5.7 312.923 7.03 308.084 9.99 304.33 13.744 300.939 18.094 297.009 21.563 292.124 26.557 288.857 27.713 288.101 26.961 287.246 26.692 286.488 19.758 266.962 13.178 247.3 4.628 228.386 2.546 223.783 1.275 219.018 2.02 213.876 3.237 205.48 11.089 201.722 18.331 206.167 23.72 209.474 27.113 214.52 29.902 220.006 36.643 233.267 40.326 247.572 43.972 261.874 45.376 267.379 46.528 272.951 47.662 278.521 48.052 280.432 48.601 281.404 50.89 281.248 56.237 280.883 61.432 281.879 66.381 283.963 73.521 286.969 76.715 290.521 81.327 300.446 82.235 300.119 82.562 299.231 83.126 298.582 84.972 296.464 86.982 294.537 89.426 293.108 92.321 291.416 95.4 290.42 98.473 292.314 101.624 294.257 101.789 297.561 101.474 300.848 100.979 306.016 100.452 311.182 99.85 316.339 98.776 325.534 99.909 334.647 100.478 343.814 101.396 358.598 97.481 371.879 86.327 382.355 85.625 383.014 85.175 383.615 85.367 384.661 85.891 387.507 86.327 390.368 86.789 393.226 86.978 394.402 87.622 394.387 88.698 394.337 93.31 394.123 97.481 394.942 99.433 399.936 99.877 401.074 101.068 400.939 101.969 401.225 107.477 402.98 110.867 406.144 111.503 412.409 113.924 436.251 117.335 459.969 121.097 483.619 122.075 484.052 122.347 483.224 122.773 482.75 139.727 463.877 156.654 444.977 174.097 426.548 182.168 418.021 192.322 412.707 202.799 407.945 222.368 399.049 242.941 393.007 263.485 386.9 269.408 385.139 275.255 383.076 281.251 381.619 286.175 380.422 289.966 377.962 292.835 373.577 290.182 372.263 287.455 370.901 284.717 369.559 253.328 354.17 233.433 329.1 222.885 296.156 222.672 295.49 222.419 294.836 222.241 294.163 221.056 289.664 220.33 285.56 213.525 286.241 208.671 286.727 204.398 283.081 200.937 279.485 190.907 269.066 185.245 256.279 181.449 242.576 178.989 233.695 178.343 224.661 180.883 215.665 183.061 207.949 187.204 201.662 194.897 198.405 196.426 197.758 196.092 196.978 195.721 195.899 188.602 175.203 185.823 153.85 185.606 132.029 185.399 111.148 192.28 92.945 205.127 76.734 218.421 59.959 235.069 47.172 253.225 36.208 278.859 20.729 306.079 9.113 335.556 3.237 349.427 0.472 363.397-1.076 377.487 1.688 386.753 3.506 395.284 7.01 402.285 13.514 410.102 20.777 414.489 29.466 412.608 40.487 412.45 41.41 412.455 41.911 413.66 42.008 443.253 44.384 460.602 61.701 470.474 88.358 478.312 109.524 480.032 131.281 477.593 153.541 475.969 168.373 473.082 182.92 468.011 196.984 467.59 198.15 467.705 198.679 468.823 199.345 477.589 204.58 481.123 212.895 482.065 222.569 483.391 236.166 479.274 248.599 473.494 260.608 469.882 268.113 465.682 275.258 459.319 280.827 454.901 284.694 449.894 287.31 443.788 286.482 441.817 286.215 441.973 287.457 441.663 288.543 437.843 301.911 432.829 314.762 425.767 326.804 414.882 345.365 398.663 357.992 380.227 368.189 376.57 370.211 372.75 371.939 368.909 373.85 371.5 377.139 374.306 379.687 378.548 381.086 404.839 389.762 431.395 397.67 457.183 407.827 463.118 410.165 469.069 412.462 475.028 414.737 491.007 420.836 500.368 432.529 504.916 448.831 509.195 464.173 512.001 479.747 513.817 495.52 517.936 531.305 518.768 567.25 518.747 603.228 518.737 622.212 518.302 641.184 517.595 660.15 517.517 662.25 517.112 663.348 514.778 662.904 513.907 662.742 512.988 662.826 512.091 662.802 510.29 659.718 511.114 656.37 511.316 653.16 511.499 650.274 511.624 647.388 511.725 644.496 512.516 621.948 512.558 599.384 512.2 576.835 511.989 563.584 511.511 550.321 510.791 537.072 509.777 518.426 507.803 499.88 505.681 481.351 503.818 471.55 502.108 461.709 499.213 452.127 497.473 446.369 495.253 440.816 492.291 435.577 489.815 431.199 486.298 427.971 481.788 425.662 470.563 419.914 458.91 415.193 447.126 410.75 431.416 404.828 415.353 399.945 399.382 394.415 406.666 399.389 413.776 404.412 421.081 409.15 423.39 411.072 426.062 412.479 428.438 414.302 431.338 416.528 431.57 417.749 429.712 420.88 424.508 429.639 419.21 438.343 413.997 447.097 412.129 450.233 412.143 450.221 414.891 452.416 423.007 458.899 431.235 465.239 439.323 471.757 442.354 474.2 442.629 475.503 441.033 478.986 433.086 496.322 424.987 513.586 416.725 530.777 410.32 544.103 403.771 557.356 397.017 570.502 386.886 590.218 376.481 609.792 365 628.776 358.591 639.168 352.1 649.518 344.594 659.178 343.458 660.636 342.506 662.364 340.447 662.796" fill="#2F201B" transform="matrix(1.00193 0 0 1 9.99879 -3)"/></g><path d="M506.137 480.441C507.385 484.146 507.303 488.057 507.779 491.867 509.617 506.591 510.872 521.368 511.573 536.2 512.005 545.362 512.362 554.523 512.73 563.686 513.571 584.663 513.25 605.64 513.133 626.616 513.066 638.682 512.456 650.742 512.091 662.802 493.469 662.796 474.848 662.796 456.227 662.79 455.305 661.722 455.716 660.516 455.876 659.346 458.856 637.662 461.791 615.972 464.621 594.265 466.74 578.012 468.817 561.752 470.956 545.501 471.186 543.749 471.652 542.202 472.924 540.933 483.139 530.747 489.358 518.164 494.483 504.931 496.689 499.235 498.451 493.4 499.813 487.448 500.086 486.253 500.741 484.99 499.664 483.615 498.614 484.362 498.594 485.507 498.336 486.511 494.761 500.422 489.98 513.845 482.374 526.133 480.37 529.369 478.229 532.503 475.633 535.3 474.974 536.01 474.322 537.196 473.252 536.776 472.036 536.299 472.288 534.931 472.415 533.864 473.173 527.513 474.071 521.179 474.859 514.832 477.81 491.028 480.964 467.25 483.859 443.439 483.955 442.643 484.105 441.845 483.82 441.065 483.562 440.36 483.085 439.874 482.29 439.834 481.611 439.799 481.162 440.201 480.853 440.741 480.241 441.808 480.104 443.005 479.955 444.199 475.283 481.689 470.585 519.175 465.682 556.636 463.814 570.904 462.037 585.185 460.151 599.452 459.967 600.846 459.821 602.238 459.103 603.486 456.623 605.964 453.264 606.87 450.197 608.184 429.097 617.244 407.077 623.172 384.452 626.844 378.757 627.768 373.043 628.734 367.268 629.16 366.281 629.232 365.276 629.52 364.452 628.68 368.303 621.822 372.122 614.94 376.012 608.106 381.688 598.127 387.152 588.037 392.345 577.802 399.212 564.268 406.258 550.82 412.846 537.152 422.29 517.559 431.387 497.799 440.641 478.115 441.644 475.981 441.605 474.408 439.418 472.738 430.708 466.085 422.23 459.128 413.523 452.472 411.445 450.883 411.416 449.72 412.679 447.668 418.379 438.409 423.911 429.048 429.592 419.777 430.729 417.922 430.355 416.734 428.778 415.448 426.241 413.381 423.084 412.166 420.886 409.648 421.75 408.829 422.749 409.069 423.707 409.352 439.903 414.142 455.906 419.426 471.189 426.744 481.705 431.779 489.385 439.375 494.42 449.933 498.946 459.424 503.039 469.029 505.489 479.281 505.592 479.71 505.455 480.317 506.137 480.441" fill="#6C6969" transform="matrix(1.00193 0 0 1 9.99879 -3)"/><path d="M296.654 628.086C302.974 637.692 308.771 647.646 315.808 656.772 317.381 658.812 319.049 660.78 320.674 662.778 315.089 662.814 309.505 662.874 303.92 662.88 273.588 662.886 243.256 662.886 212.923 662.88 211.828 662.88 210.732 662.826 209.637 662.796 208.743 656.202 207.841 649.608 206.957 643.008 205.85 634.734 204.752 626.46 203.66 618.186 202.882 612.276 202.12 606.366 201.351 600.462 202.373 599.761 203.283 600.336 204.146 600.78 228.074 613.056 253.527 620.592 279.937 625.134 284.455 625.908 288.983 626.64 293.545 627.132 294.638 627.252 295.731 627.396 296.654 628.086" fill="#5D5B5A" transform="matrix(1.00193 0 0 1 9.99879 -3)"/><path d="M364.452 628.68C377.242 627.174 389.974 625.326 402.554 622.512 418.691 618.894 434.399 613.932 449.666 607.584 452.697 606.324 455.636 604.848 458.618 603.468 459.649 604.44 459.36 605.658 459.209 606.828 456.97 624.198 454.618 641.55 452.128 658.884 451.933 660.24 451.901 661.686 450.883 662.802 426.341 662.826 401.798 662.868 377.255 662.874 364.986 662.88 352.717 662.826 340.447 662.796 346.772 656.1 351.578 648.288 356.66 640.68 359.309 636.714 361.858 632.682 364.452 628.68" fill="#5D5B5A" transform="matrix(1.00193 0 0 1 9.99879 -3)"/><path d="M450.883 662.802C451.322 655.956 452.699 649.23 453.566 642.438 454.623 634.17 455.771 625.914 456.853 617.646 457.47 612.924 458.032 608.196 458.618 603.468 460.031 592.922 461.457 582.376 462.857 571.826 464.61 558.617 466.373 545.41 468.072 532.193 469.189 523.511 470.186 514.813 471.265 506.125 472.319 497.636 473.409 489.151 474.484 480.664 475.609 471.784 476.723 462.902 477.862 454.024 478.406 449.784 479.008 445.551 479.558 441.311 479.8 439.447 480.682 438.2 482.689 438.605 484.748 439.022 485.212 440.621 484.97 442.529 482.784 459.796 480.632 477.067 478.413 494.33 476.701 507.646 474.902 520.95 473.159 534.262 473.071 534.938 473.148 535.637 473.148 536.738 477.609 532.226 480.852 527.28 483.752 522.095 490.325 510.346 494.824 497.814 497.794 484.703 498.055 483.55 498.173 481.702 499.986 482.084 502.174 482.546 501.41 484.534 501.114 485.825 498.906 495.469 495.892 504.859 491.761 513.862 486.988 524.264 481.349 534.107 472.954 542.099 472.067 542.945 471.986 543.958 471.845 545.075 470.564 555.236 469.215 565.39 467.901 575.547 466.613 585.51 465.356 595.478 464.059 605.442 463.006 613.53 461.935 621.612 460.834 629.694 459.532 639.252 458.189 648.804 456.862 658.356 456.657 659.838 456.439 661.314 456.227 662.79 454.445 662.796 452.664 662.796 450.883 662.802" fill="#2F201B" transform="matrix(1.00193 0 0 1 9.99879 -3)"/><path d="M317.608 629.868C320.223 638.844 322.832 647.82 325.455 656.796 326.041 658.8 326.674 660.792 327.286 662.79 325.672 662.79 324.058 662.784 322.444 662.784 324.394 660.99 323.342 659.55 322.048 657.93 314.837 648.894 308.449 639.294 302.697 629.268 302.917 629.076 303.097 628.794 303.403 628.758 308.214 628.14 312.952 628.488 317.608 629.868" fill="#5D5B5A" transform="matrix(1.00193 0 0 1 9.99879 -3)"/><path d="M358.533 629.322C354.91 636.522 350.119 642.984 345.58 649.596 343.507 652.614 341.173 655.458 338.869 658.308 337.648 659.814 337.321 661.218 338.674 662.772 337.259 662.772 335.845 662.772 334.43 662.766 337.633 651.6 340.836 640.428 344.039 629.262 347.948 628.746 351.911 629.004 355.823 628.452 356.781 628.314 357.81 628.476 358.533 629.322" fill="#5D5B5A" transform="matrix(1.00193 0 0 1 9.99879 -3)"/><path d="M294.302 82.798C288.07 87.661 282.241 92.465 276.814 97.724 268.094 106.175 260.221 115.294 254.481 126.1 253.648 127.669 252.722 129.2 254.335 130.696 256.066 132.301 257.605 131.18 259.146 130.126 285.351 112.2 312.941 96.89 342.869 86.047 357.09 80.895 371.647 77.14 386.771 75.757 389.129 75.541 390.991 76.003 392.893 77.337 405.842 86.417 415.537 98.351 423.265 111.973 429.893 123.656 435.556 135.885 437.865 149.132 441.847 171.978 443.861 195.062 444.405 218.278 444.98 242.827 442.287 266.924 435.239 290.466 429.808 308.609 422.578 326.036 409.04 339.674 388.571 360.295 364.169 373.823 334.807 376.838 323.15 378.035 311.991 375.016 301.201 370.801 283.034 363.706 266.558 353.874 253.199 339.494 241.372 326.763 234.062 311.334 228.445 295.1 221.377 274.673 217.756 253.625 217.315 231.976 216.748 204.205 219.563 176.723 223.626 149.322 223.816 148.043 224.18 146.821 224.887 145.676 241.174 119.269 262.265 97.976 290.348 84.125 291.468 83.573 292.526 82.745 294.302 82.798" fill="#FCE3CD" transform="matrix(1.00193 0 0 1 9.99879 -3)"/><path d="M296.654 628.086C287.705 627.696 278.971 625.83 270.219 624.15 252.783 620.796 235.874 615.624 219.486 608.82 213.343 606.27 207.389 603.258 201.35 600.462 199.145 583.892 196.873 567.333 194.752 550.754 192.632 534.174 190.669 517.573 188.626 500.983 187.642 492.985 186.625 484.991 185.638 476.993 185.413 475.171 184.546 473.873 182.617 473.958 180.544 474.05 180.019 475.6 180.217 477.38 180.889 483.412 181.588 489.442 182.333 495.466 183.408 504.154 184.503 512.84 185.654 521.519 185.966 523.868 185.162 525.361 183.204 526.775 165.857 539.308 147.699 550.511 128.807 560.554 118.571 565.995 108.311 571.415 96.993 574.253 87.037 576.749 78.577 573.8 71.666 566.276 66.394 550.862 62.54 535.052 58.767 519.232 53.317 496.38 47.959 473.502 43.82 450.364 43.386 447.937 42.187 446.128 40.487 444.515 40.018 440.987 40.797 438.842 43.976 435.198 45.056 439.165 46.201 442.964 47.105 446.819 47.813 449.84 49.538 450.976 52.602 451.153 68.276 452.06 81.391 446.101 93.257 436.492 96.24 434.077 98.768 431.329 100.962 428.2 103.7 424.295 104.792 420.188 103.316 415.495 102.482 412.843 101.922 410.107 101.142 407.026 103.873 407.729 105.53 409.042 105.844 411.738 107.074 422.312 108.167 432.904 109.553 443.458 110.977 454.305 112.618 465.125 114.278 475.939 116.423 489.905 118.729 503.848 122.081 517.588 122.671 520.001 123.533 522.355 124.381 524.696 125.026 526.48 126.442 527.224 128.207 526.536 129.91 525.872 130.098 524.485 129.502 522.806 126.823 515.272 125.363 507.439 123.923 499.604 127.254 493.876 131.794 489.064 135.925 483.955 143.89 474.103 151.993 464.345 160.675 455.12 167.438 447.932 174.242 440.747 181.857 434.404 186.53 430.51 191.986 428.003 197.447 425.582 207.308 421.21 217.515 417.709 227.712 414.208 228.849 413.818 230.062 412.903 231.324 414.011 231.127 414.233 230.964 414.503 230.729 414.671 227.353 417.08 227.255 417.29 229.405 420.881 234.785 429.867 240.16 438.858 245.684 447.755 246.944 449.786 246.878 450.784 244.865 452.324 236.003 459.106 227.347 466.159 218.533 473.006 216.746 474.395 216.555 475.69 217.483 477.602 230.257 503.923 243.344 530.082 256.927 555.997 264.526 570.495 272.197 584.953 280.169 599.248 285.562 608.916 291.152 618.474 296.654 628.086" fill="#6C6969" transform="matrix(1.00193 0 0 1 9.99879 -3)"/><path d="M465.928 92.267C468.338 98.805 469.78 105.596 471.276 112.381 473.511 122.516 473.518 132.818 472.942 143.042 471.989 159.953 469.07 176.576 463.699 192.714 462.689 195.748 461.501 197.819 457.699 197.365 455.129 197.057 453.01 198.758 451.05 200.347 450.586 200.723 450.059 201.2 449.459 200.944 448.769 200.649 449.108 199.901 449.075 199.352 448.27 185.868 446.512 172.486 445.073 159.065 443.381 143.3 438.11 128.865 431.198 114.893 424.599 101.554 415.865 89.702 404.849 79.634 401.549 76.618 397.968 73.909 394.202 71.455 392.042 70.047 389.708 69.884 387.297 70.121 365.292 72.289 344.449 78.646 324.255 87.454 304.457 96.089 285.515 106.286 267.377 117.997 267.131 118.154 266.823 118.215 266.127 117.984 268.452 115.171 270.644 112.235 273.125 109.568 285.001 96.799 298.384 85.834 313.134 76.535 313.724 76.163 314.285 75.743 314.879 75.378 316.376 74.458 316.926 73.135 316.193 71.55 315.49 70.028 314.101 69.88 312.601 70.25 296.228 74.296 281.329 81.536 267.539 91.139 258.007 97.777 249.488 105.601 241.61 114.095 233.536 122.8 226.472 132.305 220.296 142.454 217.55 146.966 217.634 152.185 216.917 157.156 215.557 166.579 214.405 176.035 213.387 185.501 212.888 190.145 212.902 194.843 212.633 199.514 212.593 200.224 212.659 202.043 211.458 200.909 208.684 198.289 205.317 197.497 201.856 196.706 201.959 195.248 201.271 193.971 200.92 192.614 197.602 180.713 196.43 168.532 195.523 156.25 194.742 145.673 195.148 135.271 197.538 124.992 200.903 110.524 208.493 98.269 218.135 87.182 234.661 68.178 255.223 54.465 277.027 42.41 296.448 31.673 316.798 23.186 338.325 17.665 351.351 14.325 364.549 11.988 378.06 12.946 387.336 13.603 395.906 16.394 402.704 23.21 403.219 24.127 404.116 24.749 404.626 25.672 407.746 30.877 408.58 36.317 406.485 42.135 404.786 46.852 405.572 47.89 410.58 47.856 411.252 51.442 413.717 52.913 416.998 53.987 437.321 60.645 452.758 73.652 464.65 91.159 464.984 91.651 465.21 92.233 465.928 92.267" fill="#5A3229" transform="matrix(1.00193 0 0 1 9.99879 -3)"/><path d="M317.608 629.868C312.613 630.288 307.687 628.95 302.696 629.268 296.273 619.506 290.618 609.288 284.903 599.104 263.137 560.326 243.323 520.535 223.606 480.694 221.317 476.069 221.344 476.106 225.248 473.066 233.351 466.756 241.433 460.419 249.499 454.062 252.677 451.557 252.635 451.327 250.445 447.709 244.915 438.575 239.42 429.42 233.933 420.26 233.454 419.459 232.565 418.531 233.894 417.707 239.453 414.26 244.72 410.351 250.493 407.245 259.423 403.921 268.72 401.815 277.809 399.023 278.654 398.764 279.512 398.437 280.412 398.837 279.392 408.581 279.77 418.315 280.286 428.08 280.805 437.926 281.755 447.725 282.904 457.499 284.308 469.439 285.998 481.35 287.824 493.234 290.647 511.606 294.079 529.876 297.886 548.069 303.145 573.196 309.131 598.152 315.836 622.932 316.459 625.236 317.019 627.552 317.608 629.868" fill="#6C6969" transform="matrix(1.00193 0 0 1 9.99879 -3)"/><path d="M358.533 629.322C354.592 628.92 350.738 630.312 346.795 629.886 345.852 629.784 344.797 630.186 344.039 629.262 346.937 618.078 349.912 606.912 352.718 595.709 358.694 571.85 363.959 547.828 368.486 523.657 371.874 505.571 374.896 487.417 377.167 469.141 378.934 454.912 380.57 440.688 381.404 426.362 381.938 417.178 382.18 408.035 381.267 398.877 381.628 398.693 382.024 398.545 382.415 398.635 389.675 400.319 397.084 401.437 404.041 404.282 405.935 404.45 407.188 405.807 408.637 406.786 413.267 409.915 417.797 413.203 422.528 416.171 424.948 417.689 425.167 419.036 423.706 421.407 418.158 430.414 412.828 439.556 407.29 448.57 405.934 450.775 406.383 452.221 408.254 453.677 416.987 460.474 425.631 467.387 434.457 474.06 436.882 475.893 436.317 477.572 435.327 479.676 428.95 493.226 422.608 506.792 416.239 520.345 407.442 539.066 398.109 557.523 388.642 575.908 379.547 593.569 370.022 611.004 359.677 627.978 359.374 628.476 358.918 628.878 358.533 629.322" fill="#6C6969" transform="matrix(1.00193 0 0 1 9.99879 -3)"/><path d="M61.415 362.897C61.675 364.677 61.894 366.464 62.205 368.234 62.543 370.157 63.311 371.852 65.678 371.405 68.026 370.961 68.107 369.243 67.722 367.231 65.741 356.851 68.193 347.705 75.538 339.649 76.298 341.122 76.283 342.496 76.568 343.8 76.937 345.493 78.023 346.406 79.821 346.148 81.722 345.877 82.294 344.532 82.022 342.87 81.214 337.935 80.563 332.984 80.428 327.985 80.17 318.439 80.863 309.154 87.886 301.648 89.332 300.101 90.857 298.663 92.698 297.64 95.267 296.213 96.169 296.782 95.944 299.699 95.699 302.884 95.293 306.057 94.969 309.236 93.865 320.083 93.571 330.854 94.808 341.797 96.337 355.303 93.165 367.819 83.056 377.796 81.266 379.562 79.259 381.05 77.101 382.315 75.551 383.222 74.53 384.358 75.269 386.193 75.929 387.831 77.234 388.391 78.923 387.623 80.186 387.047 80.236 388.01 80.37 388.761 81.877 397.212 83.429 405.653 85.86 413.9 86.164 414.932 85.57 415.384 84.947 415.873 76.912 422.18 67.477 424.865 57.598 426.349 55.507 426.664 55.865 424.72 55.628 423.665 53.983 416.36 52.016 409.159 49.504 402.098 47.164 395.523 43.743 389.663 39.041 384.462 30.467 374.975 21.899 365.459 14.881 354.71 11.11 348.935 7.752 342.958 6.106 336.142 4.321 328.749 6.455 322.789 12.707 318.657 24.406 310.925 37.157 309.527 50.553 313.207 54.05 314.168 56.015 316.489 56.675 320.155 57.695 325.812 58.21 331.414 56.758 337.075 55.672 341.305 53.354 344.051 48.88 345.087 45.081 345.967 41.351 347.122 37.411 346.966 34.34 346.845 33.679 345.76 34.898 342.934 36.916 338.26 41.081 336.072 45.387 334.079 46.283 333.665 47.305 333.464 47.897 332.552 48.496 331.631 48.538 330.649 48.038 329.711 47.405 328.523 46.319 328.059 45.013 328.24 39.573 328.994 34.135 329.755 28.703 330.559 26.983 330.814 25.94 331.877 26.141 333.649 26.347 335.461 27.637 336.079 29.377 335.985 30.326 335.933 31.308 335.599 32.409 336.188 30.703 338.581 29.192 341.015 28.85 343.974 28.353 348.269 30.315 351.031 34.49 352.162 37.905 353.088 41.241 352.151 44.612 352.036 45.766 351.793 46.76 352.28 47.686 352.823 51.7 355.17 55.837 357.322 59.401 360.382 60.254 361.114 60.929 361.91 61.415 362.897" fill="#FCE3CD" transform="matrix(1.00193 0 0 1 9.99879 -3)"/><path d="M330.356 654.306C326.5 640.356 322.603 626.664 318.953 612.912 316.113 602.214 313.577 591.431 310.916 580.684 309.618 575.441 311.423 570.382 312.015 565.281 313.74 550.421 315.769 535.597 317.681 520.759 319.593 505.921 321.506 491.083 323.423 476.246 324.689 466.453 325.956 456.659 327.238 446.869 327.595 444.14 327.223 441.551 326.324 438.931 324.35 433.175 322.62 427.337 320.692 421.565 320.227 420.176 320.347 419.246 321.397 418.135 324.137 415.231 326.76 412.21 329.33 409.153 330.451 407.819 331.24 407.842 332.384 409.12 335.115 412.171 337.926 415.151 340.768 418.099 341.582 418.943 341.528 419.608 341.235 420.717 339.325 427.949 337.519 435.209 335.809 442.49 335.084 445.576 336.095 448.656 336.42 451.712 338.087 467.384 339.899 483.04 341.686 498.7 343.607 515.549 345.563 532.394 347.491 549.242 348.534 558.359 349.494 567.487 350.604 576.597 351.082 580.517 349.769 584.097 348.886 587.761 343.814 608.808 338.156 629.7 332.035 650.46 331.678 651.672 331.584 653.022 330.356 654.306" fill="#03B09F" transform="matrix(1.00193 0 0 1 9.99879 -3)"/><path d="M402.835 23.912C394.628 16.785 385.021 13.665 374.222 13.558 356.309 13.381 339.225 17.595 322.445 23.237 294.113 32.762 267.971 46.57 244.019 64.434 229.511 75.254 216.659 87.742 207.27 103.407 200.969 113.92 197.223 125.266 196.379 137.577 195.128 155.839 197.279 173.768 201.187 191.555 201.294 192.04 201.289 192.549 201.335 193.047 201.551 193.643 201.3 193.76 200.773 193.592 195.43 177.702 192.61 161.357 191.548 144.638 190.868 133.924 190.774 123.289 193.189 112.772 196.447 98.585 203.798 86.594 213.255 75.751 231.757 54.537 255.174 40.174 280.115 28.018 300.405 18.129 321.589 10.798 343.958 7.31 356.456 5.362 369.017 4.591 381.364 8.339 390.444 11.096 398.52 15.442 403.693 23.883 403.415 24.137 403.13 24.146 402.835 23.912" fill="#A77B74" transform="matrix(1.00193 0 0 1 9.99879 -3)"/><path d="M306.923 563.818C303.404 547.258 299.945 530.687 296.958 514.02 293.581 495.184 290.775 476.264 288.377 457.282 288.252 456.29 288.22 455.389 289.034 454.525 292.171 451.193 295.226 447.783 298.311 444.402 305.542 441.736 313.108 440.416 320.618 438.872 321.012 438.791 321.407 438.921 321.766 439.115 322.915 441.494 323.393 443.934 323.039 446.622 320.088 469.06 317.189 491.506 314.305 513.953 312.171 530.565 310.083 547.182 307.974 563.797 307.633 564.238 307.282 564.233 306.923 563.818" fill="#FEFEFE" transform="matrix(1.00193 0 0 1 9.99879 -3)"/><path d="M353.14 563.208C351.646 549.611 350.176 536.012 348.654 522.419 346.544 503.568 344.395 484.721 342.261 465.874 341.554 459.623 340.915 453.363 340.102 447.127 339.76 444.509 339.911 442.031 340.938 439.608 341.216 439.498 341.515 439.326 341.798 439.39 350.043 441.24 358.424 442.556 366.359 445.625 366.526 445.729 366.721 445.804 366.854 445.94 374.106 453.338 373.839 453.302 372.03 466.63 367.543 499.684 361.53 532.45 354.256 564.995 354.212 565.189 354.212 565.392 354.193 565.591 352.585 565.352 353.854 563.842 353.14 563.208" fill="#FEFEFE" transform="matrix(1.00193 0 0 1 9.99879 -3)"/><path d="M326.357 406.202C313.388 420.776 300.731 435.001 287.609 449.747 287.024 443.639 286.377 438.147 285.996 432.637 285.362 423.471 284.756 414.286 285.297 405.1 285.835 395.968 288.262 387.455 294.218 380.528 301.592 393.182 312.459 401.303 326.357 406.202" fill="#FEFEFE" transform="matrix(1.00193 0 0 1 9.99879 -3)"/><path d="M373.842 447.17C360.953 433.441 348.265 419.928 335.356 406.178 349.063 401.343 360.086 393.455 367.946 381.272 373.418 387.85 375.754 395.933 376.256 404.468 377.078 418.453 375.687 432.382 374.296 446.29 374.278 446.469 374.124 446.635 373.842 447.17" fill="#FEFEFE" transform="matrix(1.00193 0 0 1 9.99879 -3)"/><path d="M231.324 414.011C216.284 418.69 201.322 423.655 187.54 431.395 179.105 436.132 172.791 443.556 166.153 450.44 151.743 465.385 138.717 481.527 125.776 497.734 125.224 498.425 124.854 499.291 123.923 499.604 121.73 494.056 123.454 489.989 127.523 485.603 144.236 467.591 160.49 449.154 177.332 431.252 184.765 423.352 193.925 418.213 203.564 413.731 222.631 404.864 242.708 398.858 262.811 392.935 262.979 392.885 263.191 392.989 263.392 393.023 263.381 393.202 263.438 393.475 263.352 393.532 252.771 400.507 242.242 407.564 231.324 414.011" fill="#C1C2C2" transform="matrix(1.00193 0 0 1 9.99879 -3)"/><path d="M7.382 216.158C7.424 215.851 7.447 214.834 7.71 213.885 8.807 209.923 11.738 208.727 15.284 210.836 18.91 212.994 21.332 216.301 23.435 219.847 27.789 227.188 30.554 235.203 33.074 243.292 36.722 255.001 39.608 266.911 42.166 278.905 42.596 280.924 42.49 282.149 40.028 282.524 38.19 282.805 36.303 283.439 34.69 284.357 32.465 285.625 31.972 284.609 31.305 282.71 25.627 266.549 19.95 250.386 13.435 234.535 12.11 231.311 10.608 228.161 9.25 224.95 8.156 222.365 7.345 219.698 7.382 216.158" fill="#FCE3CD" transform="matrix(1.00193 0 0 1 9.99879 -3)"/><path d="M214.426 263.308C215.612 268.655 216.806 274.001 217.981 279.35 218.423 281.362 216.861 281.186 215.766 281.144 212.779 281.033 210.17 279.782 207.805 278.036 203.888 275.147 200.83 271.455 198.337 267.329 190.229 253.915 184.116 239.859 185.078 223.692 185.353 219.058 186.609 214.668 189.05 210.667 190.913 207.613 193.352 205.182 196.635 203.669 204.014 200.268 212.104 205.759 211.795 213.907 211.686 216.789 211.778 219.679 211.778 223.406 209.374 220.606 207.718 218.269 205.34 216.638 202.557 214.73 199.588 213.485 196.161 213.478 194.216 213.475 192.715 214.117 192.727 216.296 192.737 218.27 194.023 219.092 195.928 218.977 196.953 218.915 197.907 219.161 198.835 219.56 198.922 219.982 198.823 220.384 198.505 220.646 194.166 224.246 194.475 229.036 195.19 233.87 195.952 239.021 197.175 244.102 199.269 248.857 202.286 255.705 206.567 261.437 214.426 263.308" fill="#FCE3CD" transform="matrix(1.00193 0 0 1 9.99879 -3)"/><path d="M462.879 219.559C463.79 219.085 464.762 218.947 465.779 218.976 467.637 219.029 468.95 218.333 468.932 216.274 468.914 214.046 467.44 213.454 465.502 213.481 460.231 213.555 456.22 216.132 452.812 219.88 452.016 220.754 451.333 221.733 450.565 222.705 448.474 217.144 449.713 209.554 453.278 205.764 456.426 202.418 460.224 201.574 464.429 203.38 469.844 205.706 472.991 210.056 474.866 215.438 477.513 223.034 477.25 230.756 475.48 238.457 472.54 251.252 467.293 262.999 458.963 273.23 455.966 276.911 452.385 279.929 447.533 280.951 444.136 281.666 443.593 281.137 444.268 277.923 445.291 273.054 446.288 268.18 447.296 263.308 452.141 261.933 456.116 259.381 458.902 255.059 464.24 246.776 466.555 237.623 466.83 227.888 466.898 225.512 465.998 223.417 464.25 221.717 463.637 221.121 462.747 220.649 462.879 219.559" fill="#FCE3CD" transform="matrix(1.00193 0 0 1 9.99879 -3)"/><path d="M506.137 480.441C505.395 482.143 505.413 480.575 505.303 480.217 503.04 472.886 500.681 465.586 497.626 458.541 494.606 451.58 491.316 444.767 486.442 438.841 481.198 432.466 474.054 428.898 466.808 425.55 452.666 419.016 437.836 414.365 422.944 409.912 422.29 409.717 421.573 409.731 420.886 409.648 412.592 404.9 405.094 398.975 396.903 393.746 398.068 393.295 398.902 393.508 399.757 393.788 424.847 402.018 450.041 409.963 474.08 421.057 475.437 421.684 476.729 422.482 478.13 422.975 488.742 426.71 494.006 435.128 497.618 445.036 501.802 456.516 504.229 468.415 506.137 480.441" fill="#C1C2C2" transform="matrix(1.00193 0 0 1 9.99879 -3)"/><path d="M48.617 430.822C65.878 434.984 88.78 424.521 95.974 409.358 96.598 411.944 96.92 414.382 97.783 416.61 99.159 420.16 98.171 423.137 95.915 425.738 85.148 438.157 71.83 445.445 55.094 445.823 53.105 445.868 52.343 445.112 51.91 443.295 50.948 439.255 49.801 435.26 48.617 430.822" fill="#FEFEFE" transform="matrix(1.00193 0 0 1 9.99879 -3)"/><path d="M462.879 219.559C467.361 222.266 468.233 226.562 467.614 231.224 466.391 240.432 464.417 249.457 458.461 256.971 455.642 260.525 452.431 263.693 447.296 263.308 448.995 253.457 448.382 243.265 451.569 233.639 453.016 229.27 455.03 225.176 458.573 222.051 459.833 220.939 461.125 219.837 462.879 219.559" fill="#E8B59F" transform="matrix(1.00193 0 0 1 9.99879 -3)"/><path d="M214.426 263.308C208.694 263.801 205.504 259.93 202.517 256.067 197.893 250.087 196.121 242.912 194.678 235.66 194.27 233.613 194.088 231.55 193.994 229.453 193.805 225.21 195.199 221.87 198.835 219.56 202.491 220.7 204.885 223.359 206.748 226.481 209.798 231.59 211.681 237.091 212.201 243.092 212.786 249.844 213.671 256.57 214.426 263.308" fill="#E8B59F" transform="matrix(1.00193 0 0 1 9.99879 -3)"/><path d="M12.263 311.712C14.011 307.726 16.726 305.027 20.43 303.637 31.749 299.387 43.439 298.055 55.42 299.948 59.94 300.662 63.253 303.084 65.321 307.281 68.294 313.315 70.292 319.487 68.693 326.294 67.904 329.652 66.289 332.524 63.087 334.895 63.201 330.767 63.313 327.047 62.818 323.323 61.287 311.804 57.587 308.009 45.96 306.439 34.604 304.906 23.695 306.242 13.414 311.565 13.195 311.678 12.896 311.637 12.263 311.712" fill="#FCE3CD" transform="matrix(1.00193 0 0 1 9.99879 -3)"/><path d="M40.487 444.515C43.472 444.796 44.048 447.174 44.474 449.416 51.283 485.262 59.378 520.807 69.25 555.94 70.031 558.722 70.985 561.455 71.833 564.22 72.044 564.907 72.766 565.679 71.666 566.276 65.205 558.999 62.547 550.048 60.404 540.85 53.708 512.103 47.24 483.308 41.89 454.274 41.294 451.045 40.948 447.769 40.487 444.515" fill="#C1C2C2" transform="matrix(1.00193 0 0 1 9.99879 -3)"/><path d="M465.928 92.267C464.98 94.39 464.738 92.255 464.512 91.942 460.894 86.914 457.1 82.058 452.797 77.569 442.134 66.443 429.524 58.544 414.835 53.915 411.071 52.729 410.29 51.502 410.58 47.856 415.005 46.848 419.303 47.859 423.505 48.968 443.303 54.197 456.039 67.154 463.417 85.864 464.258 87.997 465.091 90.133 465.928 92.267" fill="#A77B74" transform="matrix(1.00193 0 0 1 9.99879 -3)"/><path d="M315.914 395.11C310.412 391.729 305.852 387.327 301.904 382.247 301.199 381.339 300.807 380.464 300.893 379.257 301.019 377.495 301.363 376.775 303.402 377.509 321.394 383.986 339.464 384.166 357.574 377.944 357.847 377.851 358.165 377.892 358.462 377.87 358.687 379.002 357.794 379.497 357.11 379.982 344.925 388.631 331.706 394.531 316.511 395.119 316.315 395.126 316.115 395.099 315.914 395.11" fill="#E8B59F" transform="matrix(1.00193 0 0 1 9.99879 -3)"/><path d="M27.383 295.142C39.375 286.151 51.66 284.043 64.823 289.43 73.154 292.839 77.328 300.981 76.289 310.465 76.023 312.893 75.518 315.295 74.934 317.726 73.842 314.1 72.896 310.485 71.464 306.995 68 298.556 61.526 294.627 52.744 293.899 45.545 293.302 38.391 293.566 31.282 294.918 30.27 295.111 29.209 295.046 27.383 295.142" fill="#FCE3CD" transform="matrix(1.00193 0 0 1 9.99879 -3)"/><path d="M315.914 395.11C319.41 393.449 323.299 393.88 326.972 393.034 338.648 390.342 349.113 385.309 358.462 377.87 359.358 377.482 360.254 377.095 361.163 376.701 362.189 379.356 361.442 381.306 359.71 383.291 352.754 391.266 344.417 397.126 334.39 400.595 331.918 401.45 329.593 401.514 327.141 400.574 323.235 399.076 319.38 397.502 315.914 395.11" fill="#FCE3CD" transform="matrix(1.00193 0 0 1 9.99879 -3)"/><path d="M366.359 445.625C357.806 443.958 349.312 442.037 340.938 439.608 342.227 434.133 343.517 428.659 344.96 422.532 352.348 430.505 359.354 438.065 366.359 445.625" fill="#D5DFE5" transform="matrix(1.00193 0 0 1 9.99879 -3)"/><path d="M321.766 439.115C313.984 441.037 306.269 443.263 298.311 444.402 304.372 437.45 310.432 430.499 316.849 423.139 318.59 428.798 320.178 433.957 321.766 439.115" fill="#D5DFE5" transform="matrix(1.00193 0 0 1 9.99879 -3)"/><path d="M280.412 398.837C273.187 401.588 265.627 403.222 258.243 405.443 255.715 406.204 253.284 407.555 250.493 407.245 260.487 400.721 270.467 394.176 280.5 387.713 281.24 387.236 282.221 386.705 283.511 387.108 282.264 390.985 280.902 394.804 280.412 398.837" fill="#C1C2C2" transform="matrix(1.00193 0 0 1 9.99879 -3)"/><path d="M61.415 362.897C56.282 358.553 50.589 355.075 44.612 352.036 46.907 351.388 49.199 350.729 51.498 350.094 55.113 349.096 58.086 347.187 59.935 343.859 60.487 342.867 61.262 342.495 62.206 342.139 64.752 341.176 66.556 339.031 68.956 337.828L69.061 337.907C68.957 338.273 68.951 338.713 68.737 338.994 63.361 346.067 61.261 354.135 61.415 362.897" fill="#E8B59F" transform="matrix(1.00193 0 0 1 9.99879 -3)"/><path d="M404.041 404.282C398.299 403.7 392.914 401.532 387.271 400.499 385.238 400.127 383.266 399.427 381.267 398.877 380.426 394.892 379.637 390.892 377.829 387.143 378.995 386.529 379.93 387.273 380.773 387.842 388.353 392.963 395.903 398.129 403.446 403.306 403.732 403.502 403.846 403.951 404.041 404.282" fill="#C1C2C2" transform="matrix(1.00193 0 0 1 9.99879 -3)"/><path d="M94.868 404.929C92.569 404.318 90.826 404.576 89.897 407.353 89.471 405.621 89.062 404.358 88.872 403.063 88.713 401.978 87.322 400.435 89.411 399.903 91.358 399.408 93.212 399.913 94.181 401.917 94.559 402.7 94.591 403.651 94.868 404.929" fill="#F7F6F6" transform="matrix(1.00193 0 0 1 9.99879 -3)"/><path d="M69.061 337.907C69.061 337.907 68.955 337.826 68.956 337.827 70.894 334.327 73.796 331.289 74.14 327.025 75.455 327.038 74.834 328.052 74.933 328.643 75.106 329.663 74.702 330.742 75.212 331.74 73.549 334.182 71.408 336.147 69.061 337.907" fill="#D9A995" transform="matrix(1.00193 0 0 1 9.99879 -3)"/><path d="M49.971 425.308C48.207 423.945 46.088 422.983 49.07 420.616 49.609 422.119 50.149 423.469 49.971 425.308" fill="#EEEDED" transform="matrix(1.00193 0 0 1 9.99879 -3)"/><path d="M75.212 331.74C74.216 330.313 75.395 328.392 74.14 327.025 74.068 326.218 74.176 325.495 75.212 324.945 75.212 327.312 75.212 329.526 75.212 331.74" fill="#6C5247" transform="matrix(1.00193 0 0 1 9.99879 -3)"/><path d="M200.774 193.592C200.96 193.411 201.147 193.229 201.334 193.047 201.871 194.215 202.617 195.353 201.856 196.706 201.495 195.668 201.134 194.63 200.774 193.592" fill="#855D57" transform="matrix(1.00193 0 0 1 9.99879 -3)"/><path d="M353.14 563.208C353.807 563.862 353.321 565.027 354.193 565.591 354.206 566.09 354.363 567.073 353.517 566.209 352.786 565.462 352.89 564.263 353.14 563.208" fill="#898280" transform="matrix(1.00193 0 0 1 9.99879 -3)"/><path d="M306.923 563.818C307.273 563.811 307.624 563.804 307.974 563.797 308.188 564.468 308.214 565.124 307.816 565.777 306.98 565.353 306.725 564.691 306.923 563.818" fill="#8F8987" transform="matrix(1.00193 0 0 1 9.99879 -3)"/><path d="M402.835 23.912C403.12 23.903 403.405 23.893 403.691 23.882 404.349 24.299 404.656 24.898 404.626 25.672 403.859 25.259 403.238 24.697 402.835 23.912" fill="#865E57" transform="matrix(1.00193 0 0 1 9.99879 -3)"/><path d="M408.89 213.581C410.675 219.763 408.44 225.243 405.392 230.287 400.208 238.868 392.246 243.218 382.3 242.095 371.905 240.92 365.017 234.668 361.484 224.765 359.455 219.078 359.471 213.295 360.259 207.419 360.422 206.201 361.346 205.852 362.033 205.191 363.666 202.512 364.779 199.555 366.491 196.913 367.419 195.482 368.408 194.168 370.051 193.502 382.069 189.368 393.565 189.794 404.239 197.413 406.565 199.455 407.005 202.368 407.544 205.133 408.088 207.925 408.572 210.744 408.89 213.581" fill="#FEFEFE" transform="matrix(1.00193 0 0 1 9.99879 -3)"/><path d="M300.844 205.178C302.089 214.215 302.357 223.086 296.893 231.12 291.489 239.064 283.912 243.106 274.465 242.119 264.269 241.054 257.456 234.974 253.711 225.428 252.604 222.608 252.34 219.633 251.737 216.719 251.476 215.459 251.785 214.356 252.826 213.52 253.625 208.242 253.498 202.729 256.742 198.066 267.485 189.64 279.294 189.365 291.678 193.505 294.547 194.855 295.639 197.636 296.813 200.236 297.744 202.297 298.912 204.008 300.844 205.178" fill="#FEFEFE" transform="matrix(1.00193 0 0 1 9.99879 -3)"/><path d="M394.561 150.435C403.333 150.677 411.106 153.078 416.743 160.29 418.243 162.209 419.303 164.354 419.605 166.784 420.004 169.993 418.269 171.759 415.033 171.406 412.541 171.134 410.219 170.183 407.888 169.301 401.164 166.758 394.465 164.245 387.034 164.748 380.695 165.178 374.679 166.879 368.674 168.742 366.391 169.449 364.094 170.118 361.781 170.717 360.938 170.936 359.878 171.209 359.257 170.379 358.528 169.406 359.242 168.47 359.779 167.647 361.493 165.02 363.791 162.943 366.24 161.035 374.577 154.543 383.89 150.646 394.561 150.435" fill="#2F201B" transform="matrix(1.00193 0 0 1 9.99879 -3)"/><path d="M268.379 150.436C280.31 151.013 291.349 156.27 300.398 165.839 300.673 166.129 300.982 166.408 301.175 166.748 301.789 167.834 303.193 168.878 302.398 170.183 301.565 171.548 300.046 170.779 298.831 170.474 292.552 168.902 286.501 166.543 280.091 165.385 272.056 163.934 264.422 165.095 256.923 168.043 253.962 169.207 250.96 170.327 247.889 171.134 243.227 172.361 240.865 169.843 242.289 165.213 243.876 160.054 247.558 156.608 252.124 154.032 256.761 151.415 261.833 150.532 268.379 150.436" fill="#2F201B" transform="matrix(1.00193 0 0 1 9.99879 -3)"/><path d="M415.609 243.473C422.239 243.323 428.344 243.869 434.123 246.412 434.395 246.532 434.722 246.551 434.965 246.708 436.972 248 439.378 249.137 439.359 251.933 439.34 254.635 437.036 255.844 434.974 256.745 427.412 260.045 419.387 260.786 411.282 260.104 406.865 259.732 402.371 259.221 398.255 257.259 395.829 256.103 392.836 255.122 392.801 251.971 392.766 248.769 395.5 247.219 398.158 246.202 403.895 244.006 409.886 243.19 415.609 243.473" fill="#F7BAB3" transform="matrix(1.00193 0 0 1 9.99879 -3)"/><path d="M245.741 243.469C251.96 243.316 258.059 243.912 263.834 246.449 264.374 246.687 264.904 246.962 265.405 247.274 270.275 250.296 270.273 253.543 265.281 256.398 262.412 258.039 259.213 258.828 255.952 259.363 246.488 260.915 237.161 260.703 228.062 257.317 227.782 257.213 227.47 257.172 227.216 257.025 225.085 255.785 222.334 254.843 222.377 251.885 222.421 248.891 224.974 247.573 227.361 246.502 233.207 243.88 239.417 243.287 245.741 243.469" fill="#F7BAB3" transform="matrix(1.00193 0 0 1 9.99879 -3)"/><path d="M330.923 324.825C313.773 324.587 299.102 318.939 287.132 306.772 286.365 305.993 285.617 305.168 285.012 304.263 284.081 302.871 283.941 301.339 285.425 300.287 286.807 299.307 288.301 299.549 289.421 300.902 291.274 303.141 293.348 305.15 295.583 306.997 317.819 325.375 352.499 322.888 371.788 301.498 373.249 299.878 374.813 298.903 376.618 300.538 378.391 302.146 377.313 303.814 376.022 305.217 365.567 316.581 352.555 322.826 337.275 324.469 335.096 324.703 332.894 324.719 330.923 324.825" fill="#2F201B" transform="matrix(1.00193 0 0 1 9.99879 -3)"/><path d="M300.844 205.178C298.89 205.281 297.813 204.405 297.092 202.519 295.922 199.459 294.376 196.552 291.919 194.258 288.256 191.694 284.852 188.762 280.241 187.793 273.442 186.365 264.21 187.459 259.476 195.4 258.806 196.524 257.757 197.345 257.119 198.485 255.153 202.103 254.568 206.08 254.182 210.091 254.055 211.402 253.915 212.626 252.826 213.52 249.276 213.898 248.486 213.23 248.674 209.693 248.974 204.051 250.415 198.692 253.042 193.68 261.288 177.937 281.974 178.223 292.153 186.541 296.735 190.285 300.049 194.923 302.276 200.384 303.104 202.416 302.978 204.074 300.844 205.178" fill="#2F201B" transform="matrix(1.00193 0 0 1 9.99879 -3)"/><path d="M369.692 194.207C367.218 196.475 365.784 199.412 364.489 202.421 363.964 203.642 363.459 204.803 362.033 205.191 358.95 204.582 358.066 203.258 359.233 200.443 365.723 184.792 379.454 177.649 395.081 182.336 404.788 185.248 409.324 192.959 411.727 202.175 412.376 204.664 412.721 207.261 412.922 209.831 413.176 213.079 412.283 213.797 408.889 213.581 407.501 212.747 407.506 211.336 407.351 209.966 406.876 205.768 406.438 201.555 404.014 197.894 403.268 197.092 402.587 196.235 402.007 195.307 395.491 184.891 380.008 185.42 373.336 191.663 372.242 192.686 371.051 193.565 369.692 194.207" fill="#2F201B" transform="matrix(1.00193 0 0 1 9.99879 -3)"/><path d="M330.435 268.045C333.664 267.866 336.731 267.989 339.625 269.299 340.927 269.889 342.161 270.609 342.248 272.227 342.332 273.805 341.119 274.519 339.912 274.989 333.629 277.437 327.326 277.321 321.068 274.884 319.94 274.445 318.923 273.723 318.901 272.308 318.88 270.885 319.943 270.277 321.001 269.67 323.989 267.956 327.256 267.873 330.435 268.045" fill="#D6A393" transform="matrix(1.00193 0 0 1 9.99879 -3)"/><path d="M392.608 200.929C390.007 201.551 388.598 202.885 388.565 205.351 388.542 207.092 389.18 208.55 390.816 209.256 392.846 210.133 394.489 209.348 395.76 207.623 399.785 215.974 395.147 231.388 383.806 233.356 377.746 234.408 372.202 231.61 368.724 225.857 363.96 217.976 364.756 207.115 370.593 200.343 376.696 193.264 386.409 193.407 392.608 200.929" fill="#2F201B" transform="matrix(1.00193 0 0 1 9.99879 -3)"/><path d="M369.692 194.207C379.153 182.791 396.943 183.996 403.643 196.516 403.861 196.925 403.895 197.432 404.014 197.894 400.676 196.225 397.553 194.167 393.884 193.119 386.704 191.066 379.634 191.485 372.559 193.511 371.614 193.781 370.648 193.976 369.692 194.207" fill="#E4EBF6" transform="matrix(1.00193 0 0 1 9.99879 -3)"/><path d="M291.36 200.959C288.638 201.488 287.085 202.823 287.079 205.427 287.075 207.157 287.819 208.594 289.433 209.275 291.649 210.208 293.252 209.119 294.496 207.281 298.218 215.198 294.629 227.139 287.255 231.563 281.193 235.2 273.988 233.886 269.217 228.272 262.699 220.604 262.745 208.043 269.318 200.363 275.377 193.283 285.11 193.405 291.36 200.959" fill="#2F201B" transform="matrix(1.00193 0 0 1 9.99879 -3)"/><path d="M257.119 198.485C262.139 184.245 280.221 183.765 288.836 191.063 289.966 192.02 291.175 192.92 291.919 194.258 287.951 193.499 284.165 192.058 280.038 191.811 271.538 191.302 263.976 193.574 257.119 198.485" fill="#E4EBF6" transform="matrix(1.00193 0 0 1 9.99879 -3)"/></g></g></g><g clip-path="url(#clip5)"><g clip-path="url(#clip6)"><g clip-path="url(#clip7)"><g clip-path="url(#clip8)"><path d="M339.632 661.21C339.043 661.198 338.453 661.192 337.864 661.186 335.567 660.001 336.065 658.355 337.25 656.751 338.958 654.44 340.786 652.214 342.487 649.897 347.771 642.696 352.684 635.244 357.223 627.553 364.725 615.54 371.533 603.137 378.316 590.713 388.974 571.195 398.662 551.184 408.578 531.291 417.246 513.899 425.29 496.206 433.478 478.583 434.568 476.239 434.331 474.629 432.137 472.951 424.062 466.773 416.136 460.403 408.14 454.123 404.208 451.036 403.955 450.018 406.566 445.656 411.532 437.358 416.528 429.079 421.493 420.78 423.339 417.694 423.308 417.236 420.263 415.294 414.384 411.542 408.915 407.177 402.854 403.706 394.994 397.841 386.786 392.491 378.461 387.201 379.71 391.005 380.508 394.776 381.161 398.589 382.287 407.128 381.947 415.678 381.462 424.231 381.006 432.281 380.333 440.309 379.501 448.329 377.105 471.43 373.599 494.366 369.419 517.203 364.645 543.279 359.062 569.184 352.614 594.894 349.877 605.807 347.223 616.755 343.959 627.535 341.012 637.698 338.289 647.928 335.185 658.05 334.837 659.187 334.625 660.372 333.63 661.18 331.253 661.192 328.878 661.198 326.503 661.204 324.854 659.959 324.607 658.008 324.094 656.23 321.398 646.91 318.597 637.627 316.08 628.253 309.826 605.873 304.279 583.321 299.277 560.633 292.879 531.608 287.424 502.409 283.451 472.951 281.454 458.143 279.802 443.299 278.78 428.376 278.2 419.897 278.536 411.442 278.324 402.978 278.287 401.473 278.51 399.999 278.907 398.555 279.444 394.834 280.301 391.181 281.266 387.28 270.683 393.419 260.4 399.954 250.315 406.804 245.279 409.652 240.585 413.04 235.652 416.045 233.743 417.207 233.701 418.393 234.802 420.206 240.025 428.811 245.189 437.453 250.355 446.092 252.741 450.082 252.626 450.984 248.981 453.816 240.797 460.175 232.769 466.734 224.524 473.012 222.447 474.594 222.072 476.06 223.223 478.324 234.244 500 244.819 521.9 256.05 543.473 261.985 554.874 267.941 566.261 274.042 577.574 283.124 594.414 292.373 611.158 302.524 627.385 308.319 637.291 314.675 646.821 321.759 655.859 323.917 658.606 323.896 659.486 321.672 661.198 321.084 661.198 320.495 661.198 319.907 661.192 318.226 660.605 317.195 659.289 316.159 657.936 308.549 648.012 301.933 637.423 295.388 626.793 285.499 610.392 276.286 593.618 267.194 576.769 251.751 548.154 237.114 519.131 222.685 490.001 220.606 485.803 218.717 481.51 216.634 477.311 215.065 474.147 215.285 473.137 218.083 470.895 226.253 464.347 234.545 457.952 242.736 451.427 245.569 449.171 245.629 449.143 243.826 446.12 238.818 437.727 233.644 429.435 228.669 421.021 225.984 416.481 226.19 415.532 230.507 412.496 240.631 406.318 250.416 399.613 260.863 393.174 243.751 398.114 227.176 403.346 211.071 409.958 203.035 413.257 195.205 417.013 187.933 421.796 180.861 426.447 175.428 432.92 169.687 438.989 163.802 445.21 158.032 451.55 152.303 457.921 144.041 467.106 136.074 476.585 127.381 485.339 123.112 489.64 122.842 493.714 124.506 498.744 125.87 506.103 127.369 513.424 129.682 520.56 130.606 523.413 129.976 525.155 128.011 525.859 125.981 526.585 124.084 525.505 122.984 522.787 121.445 518.986 120.473 515.013 119.642 511.001 114.458 485.983 110.934 460.706 107.656 435.385 106.645 427.576 105.794 419.751 104.833 411.937 104.605 410.089 104.135 408.438 102.123 407.361 102.805 410.411 103.55 413.26 104.202 416.126 104.88 419.107 104.411 421.825 103.104 424.533 100.426 430.081 96.2212 434.275 91.3818 437.891 83.791 443.562 75.5019 447.775 66.2092 449.956 61.3688 451.092 56.4985 450.885 51.6232 450.738 48.771 450.653 47.129 448.931 46.3578 446.235 45.4091 442.915 44.5511 439.566 43.5126 435.944 41.5693 438.345 40.875 440.731 41.1413 443.418 41.8087 448.957 42.8093 454.441 43.8658 459.914 49.0753 486.895 55.048 513.713 61.3249 540.464 63.364 549.151 65.9867 557.586 72.1509 564.412 79.647 572.494 88.7232 574.642 99.1242 571.445 108.022 568.711 116.422 564.75 124.626 560.42 141.482 551.522 157.858 541.812 173.564 530.993 176.356 529.069 179.08 527.051 181.859 525.109 183.902 523.682 184.574 521.833 184.253 519.423 182.752 508.158 181.417 496.872 179.933 485.605 179.543 482.644 179.048 479.681 179.042 476.688 179.036 473.787 180.268 472.212 182.327 472.193 184.387 472.173 185.67 473.65 186.02 476.457 190.474 512.26 194.989 548.055 199.667 583.83 200.338 588.967 201.156 594.088 201.63 599.253 204.397 618.766 206.842 638.321 209.683 657.816 209.856 659.001 210.086 660.204 209.135 661.21 203.832 661.449 203.822 661.449 203.068 656.314 198.716 626.649 194.941 596.901 191.123 567.162 189.541 554.852 187.933 542.547 186.314 530.051 179.32 534.744 172.661 539.431 165.789 543.782 147.031 555.655 127.977 567.007 107.297 575.32 99.5153 578.449 91.5704 580.423 83.1266 578.319 72.9001 575.772 66.295 568.918 61.4087 560.043 56.7728 551.624 55.1826 542.231 53.0508 533.046 47.0452 507.168 41.257 481.238 36.5114 455.089 35.8011 451.172 35.0689 447.242 34.6678 443.286 34.1401 438.082 36.5424 433.796 39.7497 429.996 41.3239 428.131 42.1439 426.477 41.4815 423.919 40.5378 420.277 42.8861 417.599 45.1726 415.258 46.9584 413.427 47.0581 411.81 46.3867 409.45 43.5495 399.472 38.5426 390.929 31.3977 383.334 21.7678 373.097 12.7534 362.285 5.93975 349.873 2.11393 342.904-0.782124 335.641 0.189545 327.41 0.401038 325.609 0.710296 323.772 1.69194 322.295 3.76098 319.179 4.71469 315.714 5.68636 312.174 7.01318 307.347 9.96609 303.602 13.7111 300.219 18.0507 296.298 21.5114 291.425 26.4935 288.166 27.6467 287.412 26.8965 286.559 26.6281 285.802 19.7107 266.323 13.1465 246.708 4.61693 227.84 2.53991 223.248 1.27195 218.494 2.01517 213.364 3.22925 204.988 11.0625 201.239 18.2871 205.674 23.6632 208.973 27.0481 214.007 29.8305 219.48 36.5553 232.709 40.2295 246.98 43.8668 261.247 45.2674 266.739 46.4167 272.298 47.548 277.855 47.937 279.761 48.4847 280.731 50.7682 280.575 56.1024 280.211 61.285 281.204 66.2222 283.284 73.3451 286.282 76.5314 289.826 81.1324 299.727 82.0382 299.401 82.3644 298.515 82.9271 297.868 84.7687 295.755 86.7739 293.832 89.212 292.407 92.1001 290.719 95.1717 289.725 98.2374 291.615 101.381 293.553 101.545 296.849 101.231 300.128 100.737 305.284 100.212 310.437 99.6111 315.582 98.5396 324.755 99.6699 333.846 100.238 342.991 101.153 357.74 97.2477 370.989 86.1204 381.44 85.4201 382.098 84.9712 382.697 85.1627 383.741 85.6855 386.58 86.1204 389.434 86.5813 392.285 86.7699 393.458 87.4123 393.443 88.4858 393.393 93.0867 393.18 97.2477 393.997 99.1951 398.979 99.638 400.114 100.826 399.98 101.725 400.265 107.22 402.016 110.602 405.172 111.236 411.422 113.651 435.207 117.054 458.868 120.807 482.462 121.783 482.894 122.054 482.068 122.479 481.595 139.393 462.767 156.279 443.912 173.68 425.527 181.732 417.021 191.862 411.719 202.314 406.969 221.836 398.094 242.36 392.067 262.855 385.974 268.763 384.217 274.596 382.159 280.578 380.706 285.49 379.512 289.272 377.058 292.134 372.683 289.488 371.372 286.767 370.013 284.036 368.675 252.722 353.323 232.874 328.313 222.352 295.447 222.139 294.783 221.887 294.13 221.709 293.459 220.527 288.971 219.803 284.877 213.014 285.556 208.172 286.041 203.909 282.404 200.456 278.816 190.45 268.422 184.802 255.666 181.015 241.996 178.561 233.136 177.916 224.123 180.45 215.149 182.623 207.451 186.756 201.179 194.431 197.93 195.956 197.285 195.623 196.507 195.253 195.43 188.151 174.784 185.378 153.482 185.162 131.713 184.955 110.882 191.82 92.7226 204.636 76.5504 217.898 59.8155 234.507 47.0591 252.619 36.1214 278.192 20.6794 305.347 9.09119 334.753 3.22925 348.591 0.470871 362.527-1.07343 376.584 1.68396 385.828 3.49761 394.338 6.99323 401.322 13.4817 409.121 20.7273 413.497 29.3955 411.621 40.3901 411.463 41.3109 411.468 41.8107 412.67 41.9075 442.192 44.2778 459.5 61.5534 469.348 88.1466 477.167 109.262 478.883 130.967 476.45 153.174 474.83 167.97 471.95 182.482 466.891 196.513 466.471 197.676 466.586 198.204 467.701 198.868 476.446 204.09 479.972 212.386 480.911 222.036 482.234 235.601 478.127 248.004 472.361 259.984 468.758 267.471 464.568 274.599 458.22 280.155 453.813 284.013 448.818 286.623 442.726 285.796 440.76 285.53 440.915 286.769 440.606 287.853 436.795 301.189 431.793 314.009 424.748 326.022 413.889 344.539 397.709 357.135 379.317 367.308 375.669 369.325 371.858 371.049 368.026 372.955 370.611 376.237 373.41 378.778 377.642 380.174 403.87 388.829 430.363 396.718 456.089 406.851 462.01 409.184 467.947 411.475 473.891 413.745 489.832 419.829 499.171 431.494 503.708 447.757 507.977 463.062 510.776 478.599 512.588 494.334 516.697 530.034 517.527 565.893 517.506 601.785 517.496 620.723 517.062 639.65 516.356 658.57 516.279 660.665 515.875 661.761 513.546 661.318 512.677 661.156 511.76 661.24 510.866 661.216 509.069 658.139 509.891 654.799 510.093 651.597 510.275 648.718 510.4 645.839 510.501 642.954 511.29 620.46 511.332 597.95 510.974 575.455 510.764 562.235 510.287 549.004 509.569 535.787 508.557 517.186 506.588 498.684 504.471 480.199 502.612 470.422 500.907 460.604 498.018 451.045 496.283 445.301 494.068 439.761 491.113 434.535 488.643 430.167 485.134 426.947 480.635 424.643 469.437 418.909 457.812 414.199 446.056 409.767 430.384 403.859 414.359 398.988 398.426 393.471 405.693 398.433 412.786 403.444 420.073 408.171 422.377 410.088 425.043 411.492 427.413 413.311 430.306 415.531 430.537 416.749 428.684 419.873 423.492 428.611 418.207 437.294 413.006 446.027 411.143 449.156 411.157 449.144 413.898 451.333 421.995 457.801 430.203 464.126 438.272 470.628 441.296 473.065 441.57 474.365 439.978 477.84 432.05 495.134 423.97 512.357 415.728 529.507 409.338 542.801 402.805 556.022 396.067 569.137 385.96 588.806 375.58 608.333 364.127 627.271 357.733 637.639 351.257 647.964 343.769 657.601 342.636 659.055 341.686 660.779 339.632 661.21" fill="#2F201B" transform="matrix(-1.00606 0 0 1 672.894 -1.41356)"/></g><path d="M504.926 479.291C506.171 482.988 506.089 486.889 506.564 490.69 508.398 505.379 509.65 520.12 510.349 534.917 510.78 544.057 511.136 553.196 511.503 562.337 512.342 583.264 512.022 604.191 511.905 625.117 511.838 637.154 511.23 649.185 510.866 661.216 492.288 661.21 473.712 661.21 455.135 661.204 454.216 660.139 454.626 658.935 454.785 657.768 457.758 636.136 460.686 614.498 463.509 592.843 465.623 576.629 467.695 560.408 469.829 544.196 470.059 542.448 470.523 540.905 471.792 539.639 481.983 529.477 488.187 516.924 493.3 503.723 495.501 498.04 497.258 492.219 498.617 486.282 498.889 485.089 499.543 483.829 498.468 482.458 497.421 483.203 497.401 484.345 497.144 485.347 493.577 499.225 488.808 512.615 481.22 524.874 479.221 528.102 477.085 531.229 474.495 534.019 473.837 534.727 473.187 535.911 472.12 535.492 470.907 535.016 471.158 533.651 471.285 532.587 472.041 526.251 472.937 519.932 473.723 513.6 476.667 489.853 479.813 466.132 482.701 442.378 482.797 441.584 482.947 440.788 482.662 440.01 482.405 439.306 481.929 438.821 481.136 438.782 480.459 438.747 480.011 439.148 479.702 439.686 479.092 440.751 478.955 441.945 478.807 443.136 474.146 480.536 469.459 517.933 464.568 555.304 462.704 569.538 460.931 583.785 459.05 598.018 458.866 599.408 458.721 600.797 458.004 602.042 455.53 604.514 452.179 605.418 449.12 606.729 428.07 615.767 406.103 621.681 383.532 625.344 377.851 626.266 372.15 627.23 366.389 627.654 365.405 627.726 364.402 628.014 363.58 627.176 367.422 620.334 371.232 613.469 375.112 606.651 380.775 596.696 386.226 586.63 391.406 576.419 398.257 562.918 405.286 549.502 411.858 535.867 421.28 516.321 430.355 496.608 439.587 476.971 440.587 474.842 440.548 473.273 438.367 471.607 429.677 464.97 421.22 458.029 412.534 451.389 410.46 449.804 410.432 448.644 411.692 446.597 417.378 437.36 422.897 428.021 428.564 418.773 429.698 416.922 429.325 415.737 427.752 414.454 425.221 412.392 422.072 411.18 419.879 408.668 420.741 407.851 421.737 408.09 422.693 408.372 438.85 413.151 454.815 418.422 470.062 425.723 480.552 430.746 488.214 438.324 493.237 448.856 497.752 458.325 501.835 467.907 504.279 478.134 504.382 478.562 504.246 479.168 504.926 479.291" fill="#6C6969" transform="matrix(-1.00606 0 0 1 672.894 -1.41356)"/><path d="M295.944 626.583C302.249 636.166 308.032 646.096 315.052 655.2 316.622 657.236 318.286 659.199 319.907 661.192 314.335 661.228 308.764 661.288 303.193 661.294 272.933 661.3 242.674 661.3 212.414 661.294 211.321 661.294 210.228 661.24 209.135 661.21 208.244 654.632 207.344 648.054 206.462 641.469 205.357 633.215 204.262 624.961 203.173 616.707 202.397 610.811 201.636 604.915 200.869 599.025 201.889 598.326 202.797 598.899 203.658 599.342 227.528 611.589 252.92 619.107 279.267 623.638 283.774 624.41 288.292 625.141 292.843 625.631 293.933 625.751 295.023 625.895 295.944 626.583" fill="#5D5B5A" transform="matrix(-1.00606 0 0 1 672.894 -1.41356)"/><path d="M363.58 627.176C376.339 625.673 389.041 623.83 401.591 621.022 417.689 617.413 433.36 612.463 448.59 606.13 451.614 604.873 454.546 603.401 457.521 602.024 458.549 602.994 458.261 604.209 458.11 605.376 455.877 622.704 453.53 640.015 451.046 657.307 450.852 658.66 450.82 660.103 449.804 661.216 425.321 661.24 400.837 661.282 376.352 661.288 364.113 661.294 351.873 661.24 339.632 661.21 345.942 654.53 350.737 646.737 355.807 639.147 358.449 635.19 360.992 631.168 363.58 627.176" fill="#5D5B5A" transform="matrix(-1.00606 0 0 1 672.894 -1.41356)"/><path d="M449.804 661.216C450.242 654.386 451.616 647.677 452.481 640.901 453.535 632.653 454.68 624.416 455.76 616.168 456.375 611.457 456.936 606.741 457.521 602.024 458.93 591.503 460.353 580.982 461.749 570.458 463.498 557.28 465.257 544.105 466.952 530.92 468.066 522.258 469.061 513.581 470.137 504.914 471.189 496.445 472.276 487.981 473.349 479.514 474.471 470.655 475.582 461.794 476.719 452.938 477.261 448.708 477.862 444.485 478.411 440.255 478.652 438.395 479.532 437.151 481.534 437.556 483.588 437.971 484.051 439.567 483.81 441.47 481.629 458.696 479.482 475.925 477.268 493.147 475.56 506.431 473.766 519.703 472.027 532.984 471.939 533.658 472.016 534.355 472.016 535.454 476.466 530.953 479.701 526.018 482.594 520.846 489.152 509.125 493.64 496.623 496.603 483.543 496.863 482.393 496.981 480.549 498.79 480.93 500.972 481.391 500.21 483.375 499.915 484.663 497.712 494.283 494.705 503.651 490.584 512.632 485.823 523.01 480.197 532.829 471.822 540.802 470.937 541.646 470.857 542.656 470.716 543.771 469.438 553.907 468.092 564.037 466.781 574.17 465.496 584.109 464.242 594.053 462.949 603.993 461.898 612.062 460.83 620.125 459.731 628.187 458.432 637.722 457.093 647.252 455.769 656.781 455.564 658.259 455.347 659.732 455.135 661.204 453.358 661.21 451.581 661.21 449.804 661.216" fill="#2F201B" transform="matrix(-1.00606 0 0 1 672.894 -1.41356)"/><path d="M316.848 628.361C319.457 637.315 322.06 646.27 324.676 655.224 325.261 657.224 325.892 659.211 326.503 661.204 324.893 661.204 323.283 661.198 321.672 661.198 323.618 659.408 322.568 657.972 321.277 656.356 314.084 647.341 307.711 637.764 301.973 627.762 302.192 627.571 302.372 627.289 302.677 627.253 307.476 626.637 312.203 626.984 316.848 628.361" fill="#5D5B5A" transform="matrix(-1.00606 0 0 1 672.894 -1.41356)"/><path d="M357.675 627.816C354.061 634.999 349.281 641.445 344.753 648.042 342.685 651.052 340.357 653.89 338.058 656.733 336.84 658.235 336.514 659.636 337.864 661.186 336.452 661.186 335.041 661.186 333.63 661.18 336.825 650.041 340.02 638.896 343.216 627.756 347.115 627.242 351.069 627.499 354.972 626.948 355.927 626.811 356.954 626.972 357.675 627.816" fill="#5D5B5A" transform="matrix(-1.00606 0 0 1 672.894 -1.41356)"/><path d="M293.598 82.5999C287.381 87.4512 281.566 92.2437 276.152 97.4902 267.452 105.921 259.598 115.018 253.872 125.798 253.041 127.364 252.117 128.891 253.726 130.383 255.453 131.984 256.989 130.866 258.526 129.815 284.668 111.932 312.192 96.6582 342.049 85.8411 356.236 80.7014 370.758 76.9554 385.846 75.5757 388.198 75.3602 390.055 75.8211 391.953 77.1519 404.871 86.2102 414.543 98.1157 422.252 111.705 428.864 123.36 434.514 135.56 436.817 148.775 440.79 171.566 442.799 194.595 443.342 217.756 443.915 242.246 441.229 266.285 434.198 289.771 428.78 307.871 421.567 325.256 408.061 338.861 387.641 359.433 363.298 372.928 334.006 375.936 322.377 377.13 311.244 374.119 300.48 369.914 282.357 362.836 265.92 353.027 252.593 338.682 240.794 325.981 233.502 310.589 227.898 294.394 220.847 274.016 217.235 253.018 216.795 231.421 216.229 203.716 219.038 176.3 223.091 148.965 223.28 147.689 223.644 146.47 224.349 145.327 240.597 118.984 261.637 97.7416 289.653 83.9237 290.771 83.373 291.826 82.547 293.598 82.5999" fill="#FCE3CD" transform="matrix(-1.00606 0 0 1 672.894 -1.41356)"/><path d="M295.944 626.583C287.017 626.194 278.303 624.333 269.572 622.657 252.178 619.311 235.31 614.151 218.961 607.363 212.833 604.819 206.893 601.815 200.868 599.025 198.668 582.495 196.402 565.975 194.286 549.436 192.171 532.896 190.213 516.335 188.175 499.784 187.193 491.805 186.178 483.831 185.194 475.852 184.969 474.034 184.104 472.739 182.18 472.824 180.112 472.916 179.588 474.462 179.786 476.238 180.456 482.255 181.153 488.271 181.897 494.28 182.969 502.948 184.062 511.613 185.21 520.271 185.521 522.614 184.719 524.104 182.766 525.515 165.46 538.018 147.346 549.194 128.499 559.213 118.287 564.641 108.052 570.048 96.7609 572.879 86.8287 575.369 78.389 572.427 71.4945 564.921 66.2351 549.544 62.3904 533.772 58.6264 517.99 53.1894 495.192 47.8442 472.369 43.7151 449.286 43.2822 446.865 42.0861 445.06 40.3901 443.451 39.9222 439.932 40.6994 437.792 43.8708 434.157 44.9482 438.114 46.0905 441.904 46.9923 445.75 47.6986 448.764 49.4195 449.897 52.4761 450.073 68.1126 450.978 81.1962 445.034 93.0339 435.448 96.0097 433.038 98.5317 430.297 100.72 427.175 103.452 423.28 104.541 419.183 103.069 414.501 102.237 411.855 101.678 409.126 100.9 406.052 103.624 406.753 105.277 408.063 105.591 410.753 106.818 421.301 107.908 431.868 109.291 442.397 110.711 453.218 112.349 464.012 114.005 474.8 116.144 488.733 118.445 502.642 121.789 516.349 122.377 518.757 123.237 521.105 124.083 523.44 124.727 525.22 126.139 525.962 127.9 525.276 129.599 524.614 129.787 523.23 129.192 521.555 126.52 514.039 125.063 506.225 123.626 498.409 126.95 492.694 131.479 487.894 135.6 482.797 143.546 472.969 151.629 463.234 160.291 454.031 167.037 446.86 173.825 439.692 181.422 433.365 186.084 429.48 191.527 426.979 196.975 424.564 206.812 420.202 216.995 416.71 227.167 413.217 228.301 412.828 229.512 411.915 230.77 413.02 230.574 413.242 230.411 413.511 230.177 413.679 226.809 416.082 226.711 416.292 228.856 419.874 234.223 428.838 239.585 437.808 245.096 446.684 246.353 448.71 246.287 449.705 244.279 451.242 235.438 458.007 226.803 465.044 218.01 471.874 216.227 473.26 216.037 474.552 216.963 476.459 229.706 502.717 242.762 528.814 256.312 554.667 263.893 569.13 271.546 583.553 279.499 597.814 284.879 607.459 290.455 616.994 295.944 626.583" fill="#6C6969" transform="matrix(-1.00606 0 0 1 672.894 -1.41356)"/><path d="M464.813 92.0462C467.217 98.5686 468.656 105.343 470.148 112.112 472.378 122.223 472.385 132.5 471.81 142.7 470.86 159.57 467.948 176.153 462.589 192.253 461.582 195.28 460.397 197.346 456.604 196.893 454.04 196.585 451.926 198.282 449.971 199.868 449.508 200.243 448.982 200.719 448.384 200.463 447.695 200.169 448.033 199.423 448 198.875 447.197 185.423 445.444 172.073 444.008 158.684 442.32 142.957 437.062 128.557 430.166 114.618 423.583 101.311 414.87 89.4874 403.88 79.4435 400.588 76.4347 397.016 73.7321 393.259 71.284 391.104 69.8794 388.776 69.7168 386.37 69.9532 364.418 72.116 343.625 78.4578 323.479 87.2447 303.728 95.8591 284.832 106.032 266.737 117.715 266.492 117.871 266.185 117.932 265.49 117.702 267.81 114.895 269.996 111.966 272.471 109.306 284.319 96.5674 297.67 85.6286 312.385 76.3519 312.973 75.9808 313.533 75.5618 314.126 75.1976 315.619 74.2798 316.168 72.96 315.436 71.3788 314.735 69.8604 313.349 69.7128 311.853 70.0819 295.519 74.1182 280.656 81.3409 266.899 90.9209 257.39 97.543 248.891 105.348 241.032 113.822 232.977 122.506 225.93 131.988 219.769 142.113 217.029 146.614 217.113 151.821 216.398 156.78 215.041 166.18 213.892 175.614 212.876 185.057 212.379 189.69 212.393 194.377 212.124 199.037 212.084 199.745 212.15 201.56 210.952 200.428 208.185 197.815 204.826 197.024 201.373 196.235 201.476 194.781 200.789 193.507 200.439 192.153 197.129 180.281 195.96 168.129 195.055 155.876 194.276 145.324 194.681 134.947 197.065 124.693 200.422 110.26 207.994 98.0339 217.613 86.9734 234.099 68.0149 254.612 54.3347 276.364 42.3085 295.739 31.5972 316.04 23.1305 337.515 17.6227 350.51 14.2907 363.677 11.9593 377.155 12.915 386.409 13.5704 394.959 16.3548 401.74 23.1545 402.254 24.0693 403.149 24.6898 403.658 25.6106 406.77 30.8031 407.602 36.2301 405.512 42.0342 403.817 46.7399 404.602 47.7754 409.598 47.7415 410.268 51.3189 412.727 52.7864 416 53.8578 436.275 60.4999 451.675 73.4758 463.538 90.9409 463.871 91.4317 464.097 92.0123 464.813 92.0462" fill="#5A3229" transform="matrix(-1.00606 0 0 1 672.894 -1.41356)"/><path d="M316.848 628.361C311.865 628.78 306.951 627.445 301.972 627.762 295.564 618.024 289.923 607.83 284.221 597.67 262.507 558.985 242.741 519.289 223.071 479.544 220.787 474.93 220.814 474.967 224.709 471.934 232.793 465.639 240.855 459.317 248.902 452.976 252.072 450.477 252.03 450.247 249.846 446.638 244.329 437.526 238.847 428.392 233.373 419.254 232.895 418.455 232.009 417.53 233.334 416.707 238.88 413.269 244.134 409.369 249.894 406.271 258.802 402.954 268.077 400.854 277.144 398.068 277.987 397.81 278.843 397.484 279.741 397.883 278.723 407.603 279.101 417.314 279.615 427.056 280.133 436.878 281.081 446.654 282.227 456.404 283.628 468.316 285.314 480.198 287.135 492.054 289.952 510.382 293.375 528.608 297.173 546.758 302.42 571.824 308.391 596.721 315.08 621.441 315.702 623.74 316.26 626.05 316.848 628.361" fill="#6C6969" transform="matrix(-1.00606 0 0 1 672.894 -1.41356)"/><path d="M357.675 627.816C353.744 627.415 349.899 628.804 345.965 628.379 345.024 628.277 343.972 628.678 343.216 627.756 346.107 616.599 349.075 605.46 351.874 594.284 357.836 570.482 363.088 546.517 367.604 522.404 370.984 504.361 373.999 486.251 376.264 468.018 378.027 453.823 379.659 439.633 380.491 425.342 381.024 416.18 381.266 407.059 380.355 397.923 380.715 397.739 381.11 397.591 381.5 397.681 388.743 399.361 396.134 400.476 403.074 403.315 404.964 403.482 406.214 404.836 407.659 405.813 412.278 408.934 416.797 412.214 421.517 415.175 423.931 416.69 424.15 418.033 422.692 420.399 417.157 429.384 411.84 438.504 406.315 447.497 404.963 449.696 405.411 451.139 407.277 452.591 415.989 459.372 424.613 466.269 433.417 472.926 435.837 474.754 435.273 476.429 434.285 478.528 427.924 492.046 421.597 505.579 415.243 519.1 406.467 537.776 397.156 556.189 387.712 574.53 378.639 592.149 369.137 609.542 358.816 626.475 358.514 626.972 358.059 627.373 357.675 627.816" fill="#6C6969" transform="matrix(-1.00606 0 0 1 672.894 -1.41356)"/><path d="M61.268 362.029C61.5274 363.804 61.7459 365.587 62.0562 367.353 62.3933 369.271 63.1595 370.962 65.5208 370.516 67.8632 370.073 67.944 368.359 67.56 366.352 65.5837 355.997 68.0298 346.873 75.3573 338.836 76.1154 340.306 76.1005 341.676 76.3848 342.977 76.7529 344.666 77.8363 345.577 79.63 345.32 81.5265 345.049 82.0971 343.708 81.8257 342.05 81.0197 337.126 80.3702 332.187 80.2355 327.2 79.9782 317.677 80.6695 308.414 87.6757 300.926 89.1182 299.383 90.6396 297.948 92.4762 296.928 95.039 295.504 95.9389 296.072 95.7144 298.982 95.47 302.159 95.065 305.325 94.7418 308.496 93.6404 319.317 93.3471 330.062 94.5811 340.979 96.1065 354.453 92.9421 366.939 82.8573 376.892 81.0715 378.654 79.0694 380.138 76.9165 381.4 75.3702 382.305 74.3517 383.438 75.0889 385.269 75.7473 386.903 77.0492 387.462 78.7341 386.695 79.9941 386.121 80.044 387.082 80.1777 387.831 81.6811 396.262 83.2294 404.682 85.6545 412.91 85.9578 413.939 85.3652 414.39 84.7437 414.878 76.728 421.17 67.3155 423.848 57.4602 425.329 55.3742 425.643 55.7313 423.704 55.4949 422.651 53.8538 415.364 51.8915 408.18 49.3855 401.136 47.0511 394.577 43.6383 388.731 38.9476 383.542 30.3941 374.078 21.8466 364.585 14.8454 353.861 11.0834 348.1 7.73345 342.137 6.09139 335.338 4.31066 327.962 6.43955 322.017 12.6766 317.895 24.3476 310.181 37.0681 308.786 50.432 312.458 53.9207 313.416 55.881 315.732 56.5394 319.389 57.5569 325.032 58.0707 330.621 56.6222 336.268 55.5388 340.488 53.2263 343.228 48.763 344.261 44.9731 345.139 41.2521 346.291 37.3215 346.136 34.2578 346.015 33.5984 344.933 34.8145 342.113 36.8277 337.451 40.9827 335.268 45.2784 333.28 46.1723 332.867 47.1918 332.666 47.7824 331.756 48.38 330.837 48.4219 329.858 47.923 328.922 47.2916 327.737 46.2082 327.274 44.9053 327.455 39.4783 328.207 34.0533 328.966 28.6343 329.768 26.9184 330.022 25.8779 331.083 26.0784 332.851 26.284 334.658 27.5709 335.275 29.3067 335.181 30.2534 335.129 31.2331 334.796 32.3315 335.384 30.6295 337.771 29.1221 340.199 28.781 343.151 28.2852 347.436 30.2425 350.191 34.4075 351.319 37.8143 352.243 41.1423 351.308 44.5052 351.194 45.6565 350.951 46.6481 351.437 47.5719 351.979 51.5763 354.32 55.7034 356.467 59.2589 359.52 60.1098 360.25 60.7832 361.044 61.268 362.029" fill="#FCE3CD" transform="matrix(-1.00606 0 0 1 672.894 -1.41356)"/><path d="M329.565 652.74C325.719 638.824 321.831 625.164 318.19 611.445 315.357 600.773 312.827 590.016 310.172 579.295 308.877 574.064 310.678 569.017 311.268 563.928 312.989 549.104 315.013 534.315 316.921 519.513 318.828 504.71 320.737 489.908 322.649 475.106 323.912 465.337 325.176 455.566 326.455 445.8 326.811 443.077 326.44 440.494 325.543 437.881 323.574 432.138 321.848 426.314 319.925 420.556 319.461 419.171 319.58 418.243 320.628 417.134 323.361 414.237 325.978 411.224 328.542 408.174 329.66 406.843 330.447 406.866 331.589 408.141 334.313 411.185 337.117 414.158 339.953 417.099 340.765 417.941 340.711 418.604 340.418 419.71 338.513 426.925 336.711 434.168 335.005 441.431 334.282 444.51 335.291 447.582 335.615 450.631 337.278 466.266 339.086 481.884 340.868 497.507 342.785 514.315 344.736 531.12 346.66 547.928 347.7 557.023 348.658 566.129 349.765 575.217 350.242 579.128 348.932 582.699 348.051 586.355 342.991 607.351 337.347 628.193 331.241 648.904 330.884 650.113 330.791 651.459 329.565 652.74" fill="#03B09F" transform="matrix(-1.00606 0 0 1 672.894 -1.41356)"/><path d="M401.871 23.8548C393.684 16.7448 384.1 13.6323 373.327 13.5256 355.456 13.349 338.413 17.5529 321.673 23.1814 293.409 32.6836 267.33 46.4586 243.435 64.2798 228.962 75.0739 216.141 87.532 206.774 103.16 200.488 113.647 196.751 124.966 195.909 137.248 194.661 155.466 196.807 173.352 200.706 191.097 200.812 191.58 200.807 192.088 200.853 192.585 201.069 193.18 200.818 193.296 200.293 193.129 194.962 177.277 192.149 160.971 191.09 144.292 190.411 133.604 190.318 122.994 192.727 112.502 195.977 98.3491 203.31 86.3868 212.745 75.5697 231.202 54.4065 254.563 40.0779 279.445 27.951 299.686 18.0856 320.819 10.7722 343.135 7.29251 355.603 5.34917 368.134 4.58001 380.451 8.31905 389.51 11.0694 397.566 15.4051 402.727 23.8259 402.45 24.0792 402.165 24.0882 401.871 23.8548" fill="#A77B74" transform="matrix(-1.00606 0 0 1 672.894 -1.41356)"/><path d="M306.189 562.469C302.678 545.948 299.227 529.417 296.247 512.79 292.879 493.999 290.079 475.124 287.687 456.188 287.562 455.198 287.53 454.299 288.342 453.437 291.472 450.113 294.52 446.712 297.597 443.339 304.811 440.679 312.359 439.362 319.851 437.822 320.244 437.741 320.638 437.871 320.996 438.064 322.142 440.438 322.619 442.872 322.266 445.553 319.322 467.938 316.43 490.33 313.553 512.723 311.424 529.295 309.341 545.873 307.237 562.448 306.897 562.888 306.547 562.883 306.189 562.469" fill="#FEFEFE" transform="matrix(-1.00606 0 0 1 672.894 -1.41356)"/><path d="M352.295 561.86C350.805 548.296 349.338 534.729 347.82 521.169 345.715 502.363 343.571 483.561 341.442 464.759 340.737 458.523 340.099 452.278 339.288 446.057 338.947 443.445 339.098 440.973 340.122 438.556 340.4 438.446 340.698 438.275 340.98 438.339 349.205 440.184 357.566 441.497 365.482 444.559 365.649 444.662 365.844 444.737 365.976 444.873 373.211 452.253 372.944 452.217 371.14 465.513 366.664 498.488 360.665 531.176 353.408 563.643 353.364 563.837 353.364 564.039 353.345 564.238 351.741 563.999 353.007 562.493 352.295 561.86" fill="#FEFEFE" transform="matrix(-1.00606 0 0 1 672.894 -1.41356)"/><path d="M325.576 405.23C312.638 419.769 300.011 433.96 286.921 448.671 286.337 442.577 285.692 437.099 285.312 431.602 284.679 422.458 284.075 413.295 284.614 404.131 285.151 395.021 287.572 386.528 293.514 379.617 300.87 392.241 311.711 400.343 325.576 405.23" fill="#FEFEFE" transform="matrix(-1.00606 0 0 1 672.894 -1.41356)"/><path d="M372.947 446.1C360.089 432.404 347.432 418.923 334.554 405.206 348.228 400.383 359.224 392.514 367.066 380.36 372.524 386.922 374.855 394.986 375.356 403.5 376.176 417.452 374.788 431.347 373.4 445.222 373.382 445.401 373.229 445.566 372.947 446.1" fill="#FEFEFE" transform="matrix(-1.00606 0 0 1 672.894 -1.41356)"/><path d="M230.77 413.02C215.766 417.688 200.84 422.641 187.091 430.363 178.676 435.088 172.378 442.495 165.755 449.362 151.38 464.271 138.385 480.375 125.475 496.543 124.924 497.232 124.555 498.096 123.626 498.409 121.439 492.874 123.159 488.817 127.218 484.441 143.891 466.472 160.106 448.079 176.908 430.22 184.323 422.339 193.461 417.212 203.077 412.741 222.098 403.895 242.127 397.904 262.182 391.995 262.35 391.945 262.561 392.049 262.762 392.083 262.751 392.261 262.808 392.533 262.722 392.59 252.166 399.549 241.662 406.589 230.77 413.02" fill="#C1C2C2" transform="matrix(-1.00606 0 0 1 672.894 -1.41356)"/><path d="M7.36434 215.641C7.40624 215.335 7.42918 214.32 7.69155 213.373 8.78593 209.421 11.7099 208.228 15.2474 210.331 18.8648 212.484 21.281 215.783 23.3789 219.321 27.7225 226.644 30.4809 234.64 32.9949 242.71 36.6341 254.391 39.5132 266.272 42.0651 278.238 42.4941 280.252 42.3883 281.474 39.9322 281.848 38.0986 282.128 36.2161 282.761 34.607 283.677 32.3873 284.942 31.8955 283.928 31.2301 282.034 25.5657 265.911 19.9023 249.787 13.4029 233.974 12.081 230.758 10.5826 227.615 9.22787 224.412 8.13648 221.833 7.32742 219.172 7.36434 215.641" fill="#FCE3CD" transform="matrix(-1.00606 0 0 1 672.894 -1.41356)"/><path d="M213.913 262.678C215.096 268.012 216.287 273.345 217.459 278.682 217.9 280.689 216.342 280.513 215.25 280.471 212.27 280.361 209.667 279.113 207.308 277.371 203.4 274.489 200.349 270.805 197.862 266.689 189.774 253.307 183.675 239.285 184.635 223.157 184.909 218.534 186.162 214.154 188.598 210.163 190.456 207.116 192.889 204.691 196.164 203.182 203.526 199.789 211.596 205.267 211.288 213.395 211.179 216.27 211.271 219.153 211.271 222.871 208.873 220.078 207.221 217.747 204.849 216.12 202.072 214.216 199.11 212.974 195.692 212.967 193.751 212.964 192.254 213.605 192.266 215.778 192.276 217.748 193.559 218.568 195.459 218.453 196.482 218.391 197.433 218.637 198.359 219.035 198.446 219.456 198.347 219.857 198.03 220.118 193.701 223.709 194.01 228.488 194.723 233.31 195.483 238.449 196.703 243.518 198.792 248.262 201.802 255.093 206.073 260.811 213.913 262.678" fill="#FCE3CD" transform="matrix(-1.00606 0 0 1 672.894 -1.41356)"/><path d="M461.771 219.034C462.68 218.561 463.65 218.423 464.664 218.452 466.518 218.505 467.828 217.811 467.81 215.757 467.792 213.534 466.322 212.943 464.388 212.97 459.13 213.044 455.128 215.615 451.729 219.354 450.934 220.226 450.253 221.202 449.487 222.172 447.401 216.624 448.637 209.053 452.193 205.272 455.334 201.934 459.123 201.092 463.318 202.893 468.72 205.214 471.859 209.553 473.73 214.923 476.37 222.5 476.108 230.204 474.342 237.886 471.409 250.651 466.175 262.37 457.865 272.576 454.875 276.248 451.303 279.259 446.462 280.279 443.073 280.992 442.532 280.464 443.205 277.258 444.225 272.401 445.22 267.538 446.226 262.678 451.059 261.306 455.025 258.76 457.804 254.449 463.129 246.186 465.439 237.054 465.713 227.343 465.781 224.972 464.883 222.882 463.139 221.186 462.528 220.592 461.64 220.121 461.771 219.034" fill="#FCE3CD" transform="matrix(-1.00606 0 0 1 672.894 -1.41356)"/><path d="M504.926 479.291C504.186 480.989 504.204 479.425 504.094 479.068 501.836 471.754 499.483 464.472 496.435 457.444 493.422 450.499 490.14 443.703 485.278 437.791 480.047 431.431 472.92 427.872 465.691 424.532 451.583 418.013 436.788 413.373 421.932 408.931 421.28 408.737 420.564 408.751 419.879 408.668 411.605 403.931 404.125 398.02 395.953 392.804 397.115 392.354 397.948 392.566 398.8 392.846 423.83 401.056 448.964 408.982 472.946 420.049 474.299 420.675 475.588 421.471 476.986 421.963 487.573 425.689 492.824 434.087 496.427 443.971 500.601 455.424 503.022 467.294 504.926 479.291" fill="#C1C2C2" transform="matrix(-1.00606 0 0 1 672.894 -1.41356)"/><path d="M48.5007 429.791C65.7204 433.943 88.5676 423.505 95.7443 408.378 96.3669 410.958 96.6881 413.39 97.549 415.613 98.9217 419.155 97.9361 422.125 95.6855 424.719 84.9443 437.109 71.6581 444.379 54.9622 444.756 52.9779 444.801 52.2178 444.047 51.7858 442.234 50.8261 438.204 49.6818 434.219 48.5007 429.791" fill="#FEFEFE" transform="matrix(-1.00606 0 0 1 672.894 -1.41356)"/><path d="M461.771 219.034C466.243 221.734 467.113 226.02 466.495 230.671 465.275 239.857 463.306 248.86 457.364 256.356 454.552 259.902 451.348 263.062 446.226 262.678 447.921 252.851 447.309 242.683 450.488 233.08 451.932 228.721 453.941 224.637 457.476 221.52 458.733 220.41 460.022 219.311 461.771 219.034" fill="#E8B59F" transform="matrix(-1.00606 0 0 1 672.894 -1.41356)"/><path d="M213.913 262.678C208.195 263.17 205.012 259.308 202.032 255.454 197.419 249.489 195.652 242.331 194.212 235.096 193.805 233.054 193.624 230.996 193.53 228.904 193.341 224.671 194.732 221.339 198.359 219.035 202.006 220.172 204.395 222.825 206.253 225.939 209.296 231.036 211.174 236.524 211.693 242.51 212.277 249.246 213.16 255.956 213.913 262.678" fill="#E8B59F" transform="matrix(-1.00606 0 0 1 672.894 -1.41356)"/><path d="M12.2337 310.966C13.9775 306.99 16.686 304.297 20.3811 302.91 31.673 298.671 43.3351 297.342 55.2874 299.23 59.7966 299.943 63.1016 302.359 65.1647 306.546 68.1306 312.565 70.1238 318.723 68.5286 325.513 67.7415 328.863 66.1304 331.728 62.936 334.094 63.0498 329.976 63.1615 326.264 62.6677 322.549 61.1404 311.058 57.4492 307.272 45.85 305.706 34.5212 304.176 23.6383 305.509 13.3819 310.819 13.1634 310.932 12.8651 310.891 12.2337 310.966" fill="#FCE3CD" transform="matrix(-1.00606 0 0 1 672.894 -1.41356)"/><path d="M40.3901 443.451C43.368 443.732 43.9426 446.104 44.3676 448.341 51.1603 484.101 59.2359 519.561 69.0843 554.61 69.8634 557.385 70.8151 560.112 71.6611 562.87 71.8716 563.555 72.5919 564.325 71.4945 564.921 65.049 557.661 62.3973 548.732 60.2595 539.556 53.5795 510.878 47.127 482.152 41.7898 453.187 41.1952 449.966 40.85 446.698 40.3901 443.451" fill="#C1C2C2" transform="matrix(-1.00606 0 0 1 672.894 -1.41356)"/><path d="M464.813 92.0462C463.867 94.1641 463.626 92.0342 463.4 91.722 459.791 86.706 456.006 81.8616 451.714 77.3834 441.076 66.284 428.496 58.4039 413.842 53.786 410.087 52.6028 409.308 51.3788 409.598 47.7415 414.012 46.7359 418.3 47.7445 422.492 48.8508 442.242 54.0673 454.948 66.9933 462.308 85.6585 463.147 87.7864 463.978 89.9173 464.813 92.0462" fill="#A77B74" transform="matrix(-1.00606 0 0 1 672.894 -1.41356)"/><path d="M315.158 394.165C309.669 390.792 305.12 386.4 301.182 381.332 300.478 380.427 300.087 379.554 300.173 378.349 300.299 376.592 300.642 375.873 302.676 376.606 320.625 383.067 338.652 383.247 356.718 377.04 356.991 376.947 357.308 376.988 357.604 376.966 357.829 378.095 356.938 378.589 356.255 379.073 344.1 387.701 330.912 393.587 315.754 394.174 315.558 394.181 315.359 394.154 315.158 394.165" fill="#E8B59F" transform="matrix(-1.00606 0 0 1 672.894 -1.41356)"/><path d="M27.3175 294.436C39.2808 285.466 51.5364 283.363 64.6679 288.737 72.979 292.138 77.143 300.261 76.1065 309.722 75.8411 312.144 75.3373 314.541 74.7547 316.966 73.6653 313.348 72.7216 309.742 71.293 306.26 67.8373 297.842 61.3788 293.922 52.6178 293.196 45.436 292.6 38.2991 292.864 31.2071 294.212 30.1976 294.405 29.1391 294.34 27.3175 294.436" fill="#FCE3CD" transform="matrix(-1.00606 0 0 1 672.894 -1.41356)"/><path d="M315.158 394.165C318.646 392.508 322.525 392.938 326.19 392.094 337.838 389.408 348.278 384.387 357.604 376.966 358.498 376.579 359.392 376.193 360.299 375.8 361.322 378.448 360.577 380.394 358.849 382.374 351.91 390.33 343.593 396.176 333.59 399.636 331.124 400.489 328.804 400.553 326.358 399.616 322.462 398.121 318.616 396.551 315.158 394.165" fill="#FCE3CD" transform="matrix(-1.00606 0 0 1 672.894 -1.41356)"/><path d="M365.482 444.559C356.95 442.896 348.476 440.979 340.122 438.556 341.408 433.094 342.695 427.633 344.135 421.521 351.505 429.475 358.494 437.017 365.482 444.559" fill="#D5DFE5" transform="matrix(-1.00606 0 0 1 672.894 -1.41356)"/><path d="M320.996 438.064C313.233 439.982 305.536 442.202 297.597 443.339 303.644 436.403 309.689 429.469 316.091 422.126 317.828 427.772 319.412 432.919 320.996 438.064" fill="#D5DFE5" transform="matrix(-1.00606 0 0 1 672.894 -1.41356)"/><path d="M279.741 397.883C272.533 400.627 264.991 402.257 257.625 404.473 255.103 405.232 252.678 406.58 249.894 406.271 259.864 399.762 269.82 393.233 279.829 386.785 280.567 386.309 281.546 385.78 282.833 386.182 281.589 390.049 280.23 393.859 279.741 397.883" fill="#C1C2C2" transform="matrix(-1.00606 0 0 1 672.894 -1.41356)"/><path d="M61.268 362.029C56.1473 357.695 50.4679 354.225 44.5052 351.194 46.7948 350.547 49.0813 349.89 51.3748 349.256 54.9811 348.261 57.947 346.356 59.7916 343.036 60.3423 342.047 61.1154 341.675 62.0572 341.32 64.5971 340.36 66.3967 338.22 68.791 337.02L68.8957 337.098C68.792 337.464 68.786 337.903 68.5725 338.183 63.2094 345.239 61.1144 353.288 61.268 362.029" fill="#E8B59F" transform="matrix(-1.00606 0 0 1 672.894 -1.41356)"/><path d="M403.074 403.315C397.346 402.734 391.974 400.571 386.344 399.541 384.316 399.17 382.349 398.471 380.355 397.923 379.516 393.947 378.729 389.957 376.925 386.217 378.088 385.604 379.021 386.346 379.862 386.914 387.424 392.023 394.956 397.176 402.481 402.341 402.766 402.536 402.88 402.984 403.074 403.315" fill="#C1C2C2" transform="matrix(-1.00606 0 0 1 672.894 -1.41356)"/><path d="M94.641 403.96C92.3475 403.351 90.6087 403.608 89.6819 406.378 89.2569 404.65 88.8489 403.39 88.6593 402.099 88.5007 401.016 87.1131 399.477 89.1971 398.946 91.1394 398.452 92.989 398.956 93.9556 400.955 94.3327 401.736 94.3647 402.685 94.641 403.96" fill="#F7F6F6" transform="matrix(-1.00606 0 0 1 672.894 -1.41356)"/><path d="M68.8957 337.098C68.8957 337.098 68.79 337.018 68.791 337.019 70.7244 333.527 73.6194 330.496 73.9626 326.242 75.2745 326.255 74.6549 327.267 74.7537 327.857 74.9263 328.874 74.5233 329.951 75.032 330.946 73.373 333.382 71.2371 335.343 68.8957 337.098" fill="#D9A995" transform="matrix(-1.00606 0 0 1 672.894 -1.41356)"/><path d="M49.8514 424.29C48.0916 422.931 45.9777 421.971 48.9526 419.61 49.4903 421.109 50.029 422.456 49.8514 424.29" fill="#EEEDED" transform="matrix(-1.00606 0 0 1 672.894 -1.41356)"/><path d="M75.032 330.946C74.0384 329.523 75.2146 327.606 73.9626 326.242 73.8908 325.437 73.9985 324.716 75.032 324.167 75.032 326.529 75.032 328.737 75.032 330.946" fill="#6C5247" transform="matrix(-1.00606 0 0 1 672.894 -1.41356)"/><path d="M200.294 193.129C200.479 192.948 200.666 192.767 200.852 192.585 201.388 193.75 202.132 194.886 201.373 196.235 201.013 195.2 200.653 194.164 200.294 193.129" fill="#855D57" transform="matrix(-1.00606 0 0 1 672.894 -1.41356)"/><path d="M352.295 561.86C352.96 562.513 352.476 563.675 353.345 564.238 353.358 564.735 353.515 565.716 352.671 564.854 351.942 564.109 352.046 562.913 352.295 561.86" fill="#898280" transform="matrix(-1.00606 0 0 1 672.894 -1.41356)"/><path d="M306.189 562.469C306.538 562.462 306.888 562.455 307.237 562.448 307.451 563.117 307.476 563.772 307.079 564.423 306.245 564 305.991 563.34 306.189 562.469" fill="#8F8987" transform="matrix(-1.00606 0 0 1 672.894 -1.41356)"/><path d="M401.871 23.8548C402.155 23.8458 402.44 23.8358 402.725 23.8249 403.381 24.2409 403.688 24.8384 403.658 25.6106 402.893 25.1986 402.273 24.6379 401.871 23.8548" fill="#865E57" transform="matrix(-1.00606 0 0 1 672.894 -1.41356)"/><path d="M407.912 213.07C409.692 219.237 407.463 224.704 404.422 229.736 399.25 238.296 391.307 242.636 381.385 241.516 371.015 240.344 364.144 234.106 360.619 224.227 358.595 218.554 358.611 212.785 359.397 206.923 359.56 205.708 360.481 205.359 361.167 204.7 362.796 202.027 363.906 199.077 365.614 196.442 366.54 195.014 367.526 193.703 369.166 193.039 381.155 188.915 392.623 189.34 403.272 196.941 405.592 198.978 406.031 201.884 406.569 204.642 407.112 207.427 407.594 210.24 407.912 213.07" fill="#FEFEFE" transform="matrix(-1.00606 0 0 1 672.894 -1.41356)"/><path d="M300.124 204.687C301.366 213.702 301.634 222.552 296.183 230.567 290.792 238.492 283.233 242.524 273.808 241.54 263.637 240.477 256.84 234.412 253.104 224.889 252 222.075 251.736 219.107 251.135 216.2 250.874 214.943 251.183 213.843 252.221 213.009 253.018 207.744 252.891 202.244 256.128 197.592 266.845 189.186 278.626 188.912 290.98 193.042 293.842 194.389 294.932 197.163 296.103 199.757 297.032 201.813 298.197 203.52 300.124 204.687" fill="#FEFEFE" transform="matrix(-1.00606 0 0 1 672.894 -1.41356)"/><path d="M393.617 150.075C402.368 150.316 410.122 152.712 415.746 159.906 417.242 161.821 418.3 163.961 418.601 166.385 418.999 169.586 417.268 171.348 414.04 170.996 411.554 170.725 409.237 169.776 406.912 168.896 400.204 166.359 393.521 163.852 386.108 164.354 379.784 164.783 373.782 166.48 367.792 168.338 365.514 169.044 363.223 169.711 360.915 170.309 360.074 170.527 359.017 170.799 358.397 169.971 357.67 169.001 358.382 168.067 358.918 167.246 360.628 164.625 362.921 162.553 365.364 160.65 373.681 154.173 382.971 150.286 393.617 150.075" fill="#2F201B" transform="matrix(-1.00606 0 0 1 672.894 -1.41356)"/><path d="M267.737 150.076C279.639 150.652 290.652 155.896 299.679 165.442 299.954 165.731 300.262 166.01 300.454 166.349 301.067 167.432 302.467 168.474 301.674 169.776 300.843 171.138 299.328 170.37 298.116 170.066 291.852 168.498 285.815 166.144 279.421 164.989 271.405 163.542 263.789 164.7 256.308 167.641 253.354 168.802 250.359 169.919 247.296 170.725 242.645 171.949 240.289 169.437 241.709 164.818 243.292 159.671 246.966 156.233 251.521 153.663 256.147 151.053 261.206 150.172 267.737 150.076" fill="#2F201B" transform="matrix(-1.00606 0 0 1 672.894 -1.41356)"/><path d="M414.615 242.89C421.229 242.741 427.319 243.285 433.084 245.822 433.356 245.942 433.682 245.961 433.924 246.118 435.926 247.407 438.327 248.541 438.308 251.33 438.289 254.026 435.99 255.232 433.933 256.131 426.389 259.423 418.383 260.162 410.298 259.482 405.891 259.111 401.408 258.601 397.302 256.643 394.882 255.49 391.896 254.512 391.861 251.368 391.826 248.174 394.554 246.627 397.205 245.613 402.929 243.422 408.905 242.608 414.615 242.89" fill="#F7BAB3" transform="matrix(-1.00606 0 0 1 672.894 -1.41356)"/><path d="M245.153 242.886C251.357 242.734 257.441 243.328 263.203 245.859 263.741 246.097 264.27 246.371 264.77 246.682 269.628 249.697 269.626 252.936 264.646 255.785 261.784 257.422 258.593 258.209 255.34 258.742 245.898 260.291 236.594 260.079 227.516 256.701 227.237 256.598 226.926 256.557 226.672 256.41 224.546 255.173 221.802 254.233 221.845 251.282 221.889 248.295 224.436 246.981 226.817 245.912 232.649 243.296 238.844 242.705 245.153 242.886" fill="#F7BAB3" transform="matrix(-1.00606 0 0 1 672.894 -1.41356)"/><path d="M330.131 324.048C313.022 323.81 298.386 318.176 286.445 306.038 285.68 305.261 284.934 304.438 284.33 303.535 283.401 302.146 283.262 300.618 284.742 299.568 286.121 298.591 287.611 298.832 288.728 300.182 290.577 302.416 292.646 304.42 294.876 306.262 317.059 324.596 351.656 322.115 370.898 300.777 372.356 299.16 373.916 298.188 375.717 299.819 377.486 301.423 376.41 303.087 375.122 304.487 364.692 315.823 351.711 322.054 336.468 323.693 334.294 323.926 332.097 323.942 330.131 324.048" fill="#2F201B" transform="matrix(-1.00606 0 0 1 672.894 -1.41356)"/><path d="M300.124 204.687C298.175 204.79 297.1 203.916 296.381 202.034 295.214 198.982 293.672 196.082 291.22 193.793 287.566 191.235 284.17 188.31 279.57 187.344 272.788 185.919 263.578 187.01 258.855 194.932 258.187 196.054 257.14 196.873 256.504 198.01 254.542 201.619 253.959 205.587 253.574 209.588 253.447 210.896 253.307 212.117 252.221 213.009 248.68 213.386 247.891 212.72 248.079 209.191 248.378 203.563 249.816 198.217 252.437 193.217 260.663 177.511 281.299 177.797 291.454 186.095 296.025 189.83 299.331 194.457 301.553 199.905 302.379 201.932 302.253 203.586 300.124 204.687" fill="#2F201B" transform="matrix(-1.00606 0 0 1 672.894 -1.41356)"/><path d="M368.807 193.742C366.339 196.005 364.909 198.935 363.617 201.937 363.093 203.155 362.589 204.313 361.167 204.7 358.091 204.092 357.209 202.772 358.373 199.963 364.848 184.35 378.546 177.224 394.136 181.9 403.819 184.805 408.345 192.497 410.742 201.691 411.389 204.174 411.733 206.765 411.934 209.329 412.187 212.569 411.296 213.285 407.911 213.07 406.526 212.238 406.531 210.83 406.376 209.464 405.902 205.276 405.465 201.073 403.047 197.42 402.303 196.62 401.624 195.765 401.045 194.84 394.545 184.449 379.099 184.976 372.443 191.204 371.351 192.225 370.163 193.102 368.807 193.742" fill="#2F201B" transform="matrix(-1.00606 0 0 1 672.894 -1.41356)"/><path d="M329.644 267.404C332.866 267.225 335.925 267.348 338.812 268.655 340.111 269.243 341.342 269.961 341.429 271.576 341.513 273.15 340.303 273.862 339.099 274.331 332.831 276.773 326.543 276.657 320.3 274.226 319.174 273.788 318.16 273.068 318.138 271.656 318.117 270.237 319.177 269.63 320.233 269.025 323.214 267.315 326.473 267.232 329.644 267.404" fill="#D6A393" transform="matrix(-1.00606 0 0 1 672.894 -1.41356)"/><path d="M391.669 200.448C389.074 201.069 387.668 202.4 387.635 204.86 387.612 206.596 388.249 208.051 389.881 208.755 391.906 209.63 393.545 208.847 394.813 207.126 398.828 215.457 394.201 230.834 382.888 232.798 376.842 233.847 371.311 231.056 367.842 225.317 363.089 217.454 363.883 206.619 369.706 199.864 375.795 192.802 385.484 192.944 391.669 200.448" fill="#2F201B" transform="matrix(-1.00606 0 0 1 672.894 -1.41356)"/><path d="M368.807 193.742C378.246 182.354 395.993 183.556 402.677 196.046 402.895 196.454 402.929 196.96 403.047 197.42 399.717 195.755 396.602 193.702 392.941 192.657 385.779 190.609 378.726 191.027 371.668 193.048 370.725 193.317 369.761 193.512 368.807 193.742" fill="#E4EBF6" transform="matrix(-1.00606 0 0 1 672.894 -1.41356)"/><path d="M290.663 200.478C287.947 201.006 286.398 202.338 286.392 204.935 286.388 206.661 287.13 208.095 288.74 208.774 290.951 209.705 292.55 208.619 293.791 206.785 297.504 214.683 293.924 226.596 286.568 231.009 280.52 234.637 273.332 233.326 268.573 227.726 262.07 220.076 262.116 207.545 268.674 199.884 274.718 192.821 284.428 192.942 290.663 200.478" fill="#2F201B" transform="matrix(-1.00606 0 0 1 672.894 -1.41356)"/><path d="M256.504 198.01C261.512 183.804 279.55 183.325 288.145 190.606 289.272 191.561 290.478 192.458 291.22 193.793 287.262 193.036 283.485 191.598 279.368 191.352 270.888 190.844 263.344 193.111 256.504 198.01" fill="#E4EBF6" transform="matrix(-1.00606 0 0 1 672.894 -1.41356)"/></g></g></g></g></svg>