<?xml version="1.0" encoding="UTF-8"?>
<!DOCTYPE svg PUBLIC "-//W3C//DTD SVG 1.1//EN" "http://www.w3.org/Graphics/SVG/1.1/DTD/svg11.dtd">
<svg version="1.1" xmlns="http://www.w3.org/2000/svg" xmlns:xlink="http://www.w3.org/1999/xlink" x="0" y="0" width="519" height="663" viewBox="0, 0, 519, 663">
  <defs>
    <clipPath id="Clip_1">
      <path d="M0,0.234 L518.748,0.234 L518.748,662.964 L0,662.964 z"/>
    </clipPath>
  </defs>
  <g id="Layer_1">
    <g clip-path="url(#Clip_1)">
      <path d="M340.447,662.796 C339.856,662.784 339.265,662.778 338.674,662.772 C336.372,661.584 336.871,659.934 338.059,658.326 C339.771,656.01 341.603,653.778 343.308,651.456 C348.605,644.238 353.53,636.768 358.08,629.058 C365.6,617.016 372.424,604.584 379.223,592.13 C389.907,572.565 399.618,552.506 409.558,532.565 C418.247,515.132 426.31,497.396 434.518,479.731 C435.61,477.381 435.373,475.767 433.173,474.085 C425.079,467.893 417.134,461.507 409.119,455.212 C405.178,452.118 404.924,451.097 407.541,446.725 C412.519,438.407 417.527,430.108 422.504,421.789 C424.354,418.696 424.323,418.237 421.271,416.29 C415.378,412.529 409.896,408.154 403.82,404.674 C395.941,398.795 387.714,393.432 379.369,388.13 C380.621,391.943 381.421,395.723 382.075,399.545 C383.204,408.105 382.863,416.675 382.377,425.249 C381.92,433.318 381.245,441.365 380.411,449.404 C378.01,472.561 374.495,495.552 370.305,518.444 C365.52,544.582 359.923,570.549 353.46,596.321 C350.716,607.26 348.056,618.234 344.784,629.04 C341.83,639.228 339.1,649.482 335.989,659.628 C335.64,660.768 335.428,661.956 334.43,662.766 C332.048,662.778 329.667,662.784 327.286,662.79 C325.633,661.542 325.386,659.586 324.871,657.804 C322.169,648.462 319.361,639.156 316.838,629.76 C310.569,607.326 305.009,584.72 299.995,561.978 C293.581,532.883 288.113,503.614 284.131,474.085 C282.129,459.242 280.473,444.362 279.449,429.403 C278.867,420.904 279.204,412.429 278.992,403.945 C278.954,402.436 279.178,400.958 279.576,399.511 C280.114,395.781 280.973,392.119 281.941,388.209 C271.332,394.363 261.025,400.913 250.915,407.78 C245.867,410.635 241.162,414.031 236.217,417.043 C234.304,418.208 234.262,419.397 235.365,421.214 C240.601,429.84 245.777,438.502 250.955,447.162 C253.347,451.162 253.232,452.066 249.578,454.905 C241.375,461.279 233.327,467.854 225.063,474.147 C222.981,475.732 222.605,477.202 223.758,479.471 C234.806,501.199 245.406,523.152 256.664,544.777 C262.613,556.205 268.584,567.619 274.699,578.959 C283.803,595.84 293.074,612.624 303.25,628.89 C309.059,638.82 315.43,648.372 322.531,657.432 C324.694,660.186 324.673,661.068 322.444,662.784 C321.854,662.784 321.264,662.784 320.674,662.778 C318.989,662.19 317.956,660.87 316.917,659.514 C309.289,649.566 302.657,638.952 296.096,628.296 C286.184,611.856 276.949,595.042 267.835,578.152 C252.355,549.469 237.683,520.376 223.219,491.176 C221.135,486.968 219.242,482.665 217.154,478.456 C215.581,475.284 215.801,474.272 218.606,472.024 C226.796,465.461 235.108,459.05 243.318,452.51 C246.158,450.248 246.218,450.22 244.411,447.19 C239.391,438.777 234.204,430.465 229.217,422.031 C226.526,417.48 226.733,416.529 231.06,413.485 C241.208,407.293 251.017,400.571 261.489,394.117 C244.336,399.069 227.721,404.313 211.577,410.941 C203.522,414.248 195.673,418.013 188.384,422.808 C181.295,427.47 175.849,433.958 170.094,440.042 C164.195,446.278 158.411,452.633 152.668,459.019 C144.386,468.226 136.4,477.728 127.687,486.503 C123.407,490.814 123.137,494.898 124.805,499.94 C126.172,507.317 127.675,514.656 129.993,521.809 C130.919,524.668 130.288,526.415 128.318,527.12 C126.283,527.848 124.382,526.765 123.279,524.041 C121.736,520.231 120.762,516.248 119.929,512.227 C114.733,487.149 111.2,461.811 107.914,436.429 C106.901,428.602 106.048,420.758 105.084,412.925 C104.856,411.073 104.385,409.418 102.368,408.338 C103.052,411.395 103.798,414.251 104.452,417.124 C105.132,420.112 104.661,422.837 103.351,425.551 C100.667,431.113 96.452,435.317 91.601,438.941 C83.992,444.626 75.683,448.849 66.368,451.035 C61.516,452.174 56.634,451.966 51.747,451.819 C48.888,451.734 47.242,450.008 46.469,447.305 C45.518,443.977 44.658,440.62 43.617,436.99 C41.669,439.396 40.973,441.788 41.24,444.482 C41.909,450.034 42.912,455.531 43.971,461.017 C49.193,488.063 55.18,514.945 61.472,541.76 C63.516,550.468 66.145,558.923 72.324,565.766 C79.838,573.867 88.936,576.02 99.362,572.816 C108.281,570.075 116.701,566.105 124.925,561.764 C141.821,552.845 158.237,543.112 173.98,532.267 C176.779,530.338 179.51,528.315 182.295,526.369 C184.343,524.938 185.017,523.085 184.695,520.669 C183.19,509.377 181.852,498.064 180.365,486.77 C179.974,483.802 179.477,480.832 179.471,477.831 C179.465,474.923 180.7,473.345 182.764,473.326 C184.829,473.306 186.115,474.786 186.466,477.6 C190.931,513.489 195.457,549.37 200.146,585.23 C200.819,590.38 201.638,595.513 202.114,600.69 C204.887,620.25 207.338,639.852 210.186,659.394 C210.359,660.582 210.59,661.788 209.637,662.796 C204.321,663.036 204.311,663.036 203.555,657.888 C199.193,628.152 195.409,598.333 191.581,568.522 C189.996,556.183 188.384,543.848 186.761,531.322 C179.75,536.027 173.075,540.725 166.187,545.086 C147.384,556.988 128.284,568.367 107.554,576.7 C99.754,579.836 91.79,581.815 83.326,579.706 C73.075,577.153 66.454,570.283 61.556,561.386 C56.909,552.947 55.315,543.532 53.178,534.325 C47.158,508.384 41.356,482.392 36.599,456.181 C35.887,452.254 35.153,448.315 34.751,444.349 C34.222,439.133 36.63,434.836 39.845,431.027 C41.423,429.158 42.245,427.5 41.581,424.936 C40.635,421.285 42.989,418.601 45.281,416.254 C47.071,414.419 47.171,412.798 46.498,410.432 C43.654,400.43 38.635,391.867 31.473,384.253 C21.82,373.992 12.784,363.154 5.954,350.712 C2.119,343.726 -0.784,336.446 0.19,328.195 C0.402,326.39 0.712,324.549 1.696,323.068 C3.77,319.945 4.726,316.471 5.7,312.923 C7.03,308.084 9.99,304.33 13.744,300.939 C18.094,297.009 21.563,292.124 26.557,288.857 C27.713,288.101 26.961,287.246 26.692,286.488 C19.758,266.962 13.178,247.3 4.628,228.386 C2.546,223.783 1.275,219.018 2.02,213.876 C3.237,205.48 11.089,201.722 18.331,206.167 C23.72,209.474 27.113,214.52 29.902,220.006 C36.643,233.267 40.326,247.572 43.972,261.874 C45.376,267.379 46.528,272.951 47.662,278.521 C48.052,280.432 48.601,281.404 50.89,281.248 C56.237,280.883 61.432,281.879 66.381,283.963 C73.521,286.969 76.715,290.521 81.327,300.446 C82.235,300.119 82.562,299.231 83.126,298.582 C84.972,296.464 86.982,294.537 89.426,293.108 C92.321,291.416 95.4,290.42 98.473,292.314 C101.624,294.257 101.789,297.561 101.474,300.848 C100.979,306.016 100.452,311.182 99.85,316.339 C98.776,325.534 99.909,334.647 100.478,343.814 C101.396,358.598 97.481,371.879 86.327,382.355 C85.625,383.014 85.175,383.615 85.367,384.661 C85.891,387.507 86.327,390.368 86.789,393.226 C86.978,394.402 87.622,394.387 88.698,394.337 C93.31,394.123 97.481,394.942 99.433,399.936 C99.877,401.074 101.068,400.939 101.969,401.225 C107.477,402.98 110.867,406.144 111.503,412.409 C113.924,436.251 117.335,459.969 121.097,483.619 C122.075,484.052 122.347,483.224 122.773,482.75 C139.727,463.877 156.654,444.977 174.097,426.548 C182.168,418.021 192.322,412.707 202.799,407.945 C222.368,399.049 242.941,393.007 263.485,386.9 C269.408,385.139 275.255,383.076 281.251,381.619 C286.175,380.422 289.966,377.962 292.835,373.577 C290.182,372.263 287.455,370.901 284.717,369.559 C253.328,354.17 233.433,329.1 222.885,296.156 C222.672,295.49 222.419,294.836 222.241,294.163 C221.056,289.664 220.33,285.56 213.525,286.241 C208.671,286.727 204.398,283.081 200.937,279.485 C190.907,269.066 185.245,256.279 181.449,242.576 C178.989,233.695 178.343,224.661 180.883,215.665 C183.061,207.949 187.204,201.662 194.897,198.405 C196.426,197.758 196.092,196.978 195.721,195.899 C188.602,175.203 185.823,153.85 185.606,132.029 C185.399,111.148 192.28,92.945 205.127,76.734 C218.421,59.959 235.069,47.172 253.225,36.208 C278.859,20.729 306.079,9.113 335.556,3.237 C349.427,0.472 363.397,-1.076 377.487,1.688 C386.753,3.506 395.284,7.01 402.285,13.514 C410.102,20.777 414.489,29.466 412.608,40.487 C412.45,41.41 412.455,41.911 413.66,42.008 C443.253,44.384 460.602,61.701 470.474,88.358 C478.312,109.524 480.032,131.281 477.593,153.541 C475.969,168.373 473.082,182.92 468.011,196.984 C467.59,198.15 467.705,198.679 468.823,199.345 C477.589,204.58 481.123,212.895 482.065,222.569 C483.391,236.166 479.274,248.599 473.494,260.608 C469.882,268.113 465.682,275.258 459.319,280.827 C454.901,284.694 449.894,287.31 443.788,286.482 C441.817,286.215 441.973,287.457 441.663,288.543 C437.843,301.911 432.829,314.762 425.767,326.804 C414.882,345.365 398.663,357.992 380.227,368.189 C376.57,370.211 372.75,371.939 368.909,373.85 C371.5,377.139 374.306,379.687 378.548,381.086 C404.839,389.762 431.395,397.67 457.183,407.827 C463.118,410.165 469.069,412.462 475.028,414.737 C491.007,420.836 500.368,432.529 504.916,448.831 C509.195,464.173 512.001,479.747 513.817,495.52 C517.936,531.305 518.768,567.25 518.747,603.228 C518.737,622.212 518.302,641.184 517.595,660.15 C517.517,662.25 517.112,663.348 514.778,662.904 C513.907,662.742 512.988,662.826 512.091,662.802 C510.29,659.718 511.114,656.37 511.316,653.16 C511.499,650.274 511.624,647.388 511.725,644.496 C512.516,621.948 512.558,599.384 512.2,576.835 C511.989,563.584 511.511,550.321 510.791,537.072 C509.777,518.426 507.803,499.88 505.681,481.351 C503.818,471.55 502.108,461.709 499.213,452.127 C497.473,446.369 495.253,440.816 492.291,435.577 C489.815,431.199 486.298,427.971 481.788,425.662 C470.563,419.914 458.91,415.193 447.126,410.75 C431.416,404.828 415.353,399.945 399.382,394.415 C406.666,399.389 413.776,404.412 421.081,409.15 C423.39,411.072 426.062,412.479 428.438,414.302 C431.338,416.528 431.57,417.749 429.712,420.88 C424.508,429.639 419.21,438.343 413.997,447.097 C412.129,450.233 412.143,450.221 414.891,452.416 C423.007,458.899 431.235,465.239 439.323,471.757 C442.354,474.2 442.629,475.503 441.033,478.986 C433.086,496.322 424.987,513.586 416.725,530.777 C410.32,544.103 403.771,557.356 397.017,570.502 C386.886,590.218 376.481,609.792 365,628.776 C358.591,639.168 352.1,649.518 344.594,659.178 C343.458,660.636 342.506,662.364 340.447,662.796" fill="#2F201B"/>
    </g>
    <path d="M506.137,480.441 C507.385,484.146 507.303,488.057 507.779,491.867 C509.617,506.591 510.872,521.368 511.573,536.2 C512.005,545.362 512.362,554.523 512.73,563.686 C513.571,584.663 513.25,605.64 513.133,626.616 C513.066,638.682 512.456,650.742 512.091,662.802 C493.469,662.796 474.848,662.796 456.227,662.79 C455.305,661.722 455.716,660.516 455.876,659.346 C458.856,637.662 461.791,615.972 464.621,594.265 C466.74,578.012 468.817,561.752 470.956,545.501 C471.186,543.749 471.652,542.202 472.924,540.933 C483.139,530.747 489.358,518.164 494.483,504.931 C496.689,499.235 498.451,493.4 499.813,487.448 C500.086,486.253 500.741,484.99 499.664,483.615 C498.614,484.362 498.594,485.507 498.336,486.511 C494.761,500.422 489.98,513.845 482.374,526.133 C480.37,529.369 478.229,532.503 475.633,535.3 C474.974,536.01 474.322,537.196 473.252,536.776 C472.036,536.299 472.288,534.931 472.415,533.864 C473.173,527.513 474.071,521.179 474.859,514.832 C477.81,491.028 480.964,467.25 483.859,443.439 C483.955,442.643 484.105,441.845 483.82,441.065 C483.562,440.36 483.085,439.874 482.29,439.834 C481.611,439.799 481.162,440.201 480.853,440.741 C480.241,441.808 480.104,443.005 479.955,444.199 C475.283,481.689 470.585,519.175 465.682,556.636 C463.814,570.904 462.037,585.185 460.151,599.452 C459.967,600.846 459.821,602.238 459.103,603.486 C456.623,605.964 453.264,606.87 450.197,608.184 C429.097,617.244 407.077,623.172 384.452,626.844 C378.757,627.768 373.043,628.734 367.268,629.16 C366.281,629.232 365.276,629.52 364.452,628.68 C368.303,621.822 372.122,614.94 376.012,608.106 C381.688,598.127 387.152,588.037 392.345,577.802 C399.212,564.268 406.258,550.82 412.846,537.152 C422.29,517.559 431.387,497.799 440.641,478.115 C441.644,475.981 441.605,474.408 439.418,472.738 C430.708,466.085 422.23,459.128 413.523,452.472 C411.445,450.883 411.416,449.72 412.679,447.668 C418.379,438.409 423.911,429.048 429.592,419.777 C430.729,417.922 430.355,416.734 428.778,415.448 C426.241,413.381 423.084,412.166 420.886,409.648 C421.75,408.829 422.749,409.069 423.707,409.352 C439.903,414.142 455.906,419.426 471.189,426.744 C481.705,431.779 489.385,439.375 494.42,449.933 C498.946,459.424 503.039,469.029 505.489,479.281 C505.592,479.71 505.455,480.317 506.137,480.441" fill="#6C6969"/>
    <path d="M296.654,628.086 C302.974,637.692 308.771,647.646 315.808,656.772 C317.381,658.812 319.049,660.78 320.674,662.778 C315.089,662.814 309.505,662.874 303.92,662.88 C273.588,662.886 243.256,662.886 212.923,662.88 C211.828,662.88 210.732,662.826 209.637,662.796 C208.743,656.202 207.841,649.608 206.957,643.008 C205.85,634.734 204.752,626.46 203.66,618.186 C202.882,612.276 202.12,606.366 201.351,600.462 C202.373,599.761 203.283,600.336 204.146,600.78 C228.074,613.056 253.527,620.592 279.937,625.134 C284.455,625.908 288.983,626.64 293.545,627.132 C294.638,627.252 295.731,627.396 296.654,628.086" fill="#5D5B5A"/>
    <path d="M364.452,628.68 C377.242,627.174 389.974,625.326 402.554,622.512 C418.691,618.894 434.399,613.932 449.666,607.584 C452.697,606.324 455.636,604.848 458.618,603.468 C459.649,604.44 459.36,605.658 459.209,606.828 C456.97,624.198 454.618,641.55 452.128,658.884 C451.933,660.24 451.901,661.686 450.883,662.802 C426.341,662.826 401.798,662.868 377.255,662.874 C364.986,662.88 352.717,662.826 340.447,662.796 C346.772,656.1 351.578,648.288 356.66,640.68 C359.309,636.714 361.858,632.682 364.452,628.68" fill="#5D5B5A"/>
    <path d="M450.883,662.802 C451.322,655.956 452.699,649.23 453.566,642.438 C454.623,634.17 455.771,625.914 456.853,617.646 C457.47,612.924 458.032,608.196 458.618,603.468 C460.031,592.922 461.457,582.376 462.857,571.826 C464.61,558.617 466.373,545.41 468.072,532.193 C469.189,523.511 470.186,514.813 471.265,506.125 C472.319,497.636 473.409,489.151 474.484,480.664 C475.609,471.784 476.723,462.902 477.862,454.024 C478.406,449.784 479.008,445.551 479.558,441.311 C479.8,439.447 480.682,438.2 482.689,438.605 C484.748,439.022 485.212,440.621 484.97,442.529 C482.784,459.796 480.632,477.067 478.413,494.33 C476.701,507.646 474.902,520.95 473.159,534.262 C473.071,534.938 473.148,535.637 473.148,536.738 C477.609,532.226 480.852,527.28 483.752,522.095 C490.325,510.346 494.824,497.814 497.794,484.703 C498.055,483.55 498.173,481.702 499.986,482.084 C502.174,482.546 501.41,484.534 501.114,485.825 C498.906,495.469 495.892,504.859 491.761,513.862 C486.988,524.264 481.349,534.107 472.954,542.099 C472.067,542.945 471.986,543.958 471.845,545.075 C470.564,555.236 469.215,565.39 467.901,575.547 C466.613,585.51 465.356,595.478 464.059,605.442 C463.006,613.53 461.935,621.612 460.834,629.694 C459.532,639.252 458.189,648.804 456.862,658.356 C456.657,659.838 456.439,661.314 456.227,662.79 C454.445,662.796 452.664,662.796 450.883,662.802" fill="#2F201B"/>
    <path d="M317.608,629.868 C320.223,638.844 322.832,647.82 325.455,656.796 C326.041,658.8 326.674,660.792 327.286,662.79 C325.672,662.79 324.058,662.784 322.444,662.784 C324.394,660.99 323.342,659.55 322.048,657.93 C314.837,648.894 308.449,639.294 302.697,629.268 C302.917,629.076 303.097,628.794 303.403,628.758 C308.214,628.14 312.952,628.488 317.608,629.868" fill="#5D5B5A"/>
    <path d="M358.533,629.322 C354.91,636.522 350.119,642.984 345.58,649.596 C343.507,652.614 341.173,655.458 338.869,658.308 C337.648,659.814 337.321,661.218 338.674,662.772 C337.259,662.772 335.845,662.772 334.43,662.766 C337.633,651.6 340.836,640.428 344.039,629.262 C347.948,628.746 351.911,629.004 355.823,628.452 C356.781,628.314 357.81,628.476 358.533,629.322" fill="#5D5B5A"/>
    <path d="M294.302,82.798 C288.07,87.661 282.241,92.465 276.814,97.724 C268.094,106.175 260.221,115.294 254.481,126.1 C253.648,127.669 252.722,129.2 254.335,130.696 C256.066,132.301 257.605,131.18 259.146,130.126 C285.351,112.2 312.941,96.89 342.869,86.047 C357.09,80.895 371.647,77.14 386.771,75.757 C389.129,75.541 390.991,76.003 392.893,77.337 C405.842,86.417 415.537,98.351 423.265,111.973 C429.893,123.656 435.556,135.885 437.865,149.132 C441.847,171.978 443.861,195.062 444.405,218.278 C444.98,242.827 442.287,266.924 435.239,290.466 C429.808,308.609 422.578,326.036 409.04,339.674 C388.571,360.295 364.169,373.823 334.807,376.838 C323.15,378.035 311.991,375.016 301.201,370.801 C283.034,363.706 266.558,353.874 253.199,339.494 C241.372,326.763 234.062,311.334 228.445,295.1 C221.377,274.673 217.756,253.625 217.315,231.976 C216.748,204.205 219.563,176.723 223.626,149.322 C223.816,148.043 224.18,146.821 224.887,145.676 C241.174,119.269 262.265,97.976 290.348,84.125 C291.468,83.573 292.526,82.745 294.302,82.798" fill="#FCE3CD"/>
    <path d="M296.654,628.086 C287.705,627.696 278.971,625.83 270.219,624.15 C252.783,620.796 235.874,615.624 219.486,608.82 C213.343,606.27 207.389,603.258 201.35,600.462 C199.145,583.892 196.873,567.333 194.752,550.754 C192.632,534.174 190.669,517.573 188.626,500.983 C187.642,492.985 186.625,484.991 185.638,476.993 C185.413,475.171 184.546,473.873 182.617,473.958 C180.544,474.05 180.019,475.6 180.217,477.38 C180.889,483.412 181.588,489.442 182.333,495.466 C183.408,504.154 184.503,512.84 185.654,521.519 C185.966,523.868 185.162,525.361 183.204,526.775 C165.857,539.308 147.699,550.511 128.807,560.554 C118.571,565.995 108.311,571.415 96.993,574.253 C87.037,576.749 78.577,573.8 71.666,566.276 C66.394,550.862 62.54,535.052 58.767,519.232 C53.317,496.38 47.959,473.502 43.82,450.364 C43.386,447.937 42.187,446.128 40.487,444.515 C40.018,440.987 40.797,438.842 43.976,435.198 C45.056,439.165 46.201,442.964 47.105,446.819 C47.813,449.84 49.538,450.976 52.602,451.153 C68.276,452.06 81.391,446.101 93.257,436.492 C96.24,434.077 98.768,431.329 100.962,428.2 C103.7,424.295 104.792,420.188 103.316,415.495 C102.482,412.843 101.922,410.107 101.142,407.026 C103.873,407.729 105.53,409.042 105.844,411.738 C107.074,422.312 108.167,432.904 109.553,443.458 C110.977,454.305 112.618,465.125 114.278,475.939 C116.423,489.905 118.729,503.848 122.081,517.588 C122.671,520.001 123.533,522.355 124.381,524.696 C125.026,526.48 126.442,527.224 128.207,526.536 C129.91,525.872 130.098,524.485 129.502,522.806 C126.823,515.272 125.363,507.439 123.923,499.604 C127.254,493.876 131.794,489.064 135.925,483.955 C143.89,474.103 151.993,464.345 160.675,455.12 C167.438,447.932 174.242,440.747 181.857,434.404 C186.53,430.51 191.986,428.003 197.447,425.582 C207.308,421.21 217.515,417.709 227.712,414.208 C228.849,413.818 230.062,412.903 231.324,414.011 C231.127,414.233 230.964,414.503 230.729,414.671 C227.353,417.08 227.255,417.29 229.405,420.881 C234.785,429.867 240.16,438.858 245.684,447.755 C246.944,449.786 246.878,450.784 244.865,452.324 C236.003,459.106 227.347,466.159 218.533,473.006 C216.746,474.395 216.555,475.69 217.483,477.602 C230.257,503.923 243.344,530.082 256.927,555.997 C264.526,570.495 272.197,584.953 280.169,599.248 C285.562,608.916 291.152,618.474 296.654,628.086" fill="#6C6969"/>
    <path d="M465.928,92.267 C468.338,98.805 469.78,105.596 471.276,112.381 C473.511,122.516 473.518,132.818 472.942,143.042 C471.989,159.953 469.07,176.576 463.699,192.714 C462.689,195.748 461.501,197.819 457.699,197.365 C455.129,197.057 453.01,198.758 451.05,200.347 C450.586,200.723 450.059,201.2 449.459,200.944 C448.769,200.649 449.108,199.901 449.075,199.352 C448.27,185.868 446.512,172.486 445.073,159.065 C443.381,143.3 438.11,128.865 431.198,114.893 C424.599,101.554 415.865,89.702 404.849,79.634 C401.549,76.618 397.968,73.909 394.202,71.455 C392.042,70.047 389.708,69.884 387.297,70.121 C365.292,72.289 344.449,78.646 324.255,87.454 C304.457,96.089 285.515,106.286 267.377,117.997 C267.131,118.154 266.823,118.215 266.127,117.984 C268.452,115.171 270.644,112.235 273.125,109.568 C285.001,96.799 298.384,85.834 313.134,76.535 C313.724,76.163 314.285,75.743 314.879,75.378 C316.376,74.458 316.926,73.135 316.193,71.55 C315.49,70.028 314.101,69.88 312.601,70.25 C296.228,74.296 281.329,81.536 267.539,91.139 C258.007,97.777 249.488,105.601 241.61,114.095 C233.536,122.8 226.472,132.305 220.296,142.454 C217.55,146.966 217.634,152.185 216.917,157.156 C215.557,166.579 214.405,176.035 213.387,185.501 C212.888,190.145 212.902,194.843 212.633,199.514 C212.593,200.224 212.659,202.043 211.458,200.909 C208.684,198.289 205.317,197.497 201.856,196.706 C201.959,195.248 201.271,193.971 200.92,192.614 C197.602,180.713 196.43,168.532 195.523,156.25 C194.742,145.673 195.148,135.271 197.538,124.992 C200.903,110.524 208.493,98.269 218.135,87.182 C234.661,68.178 255.223,54.465 277.027,42.41 C296.448,31.673 316.798,23.186 338.325,17.665 C351.351,14.325 364.549,11.988 378.06,12.946 C387.336,13.603 395.906,16.394 402.704,23.21 C403.219,24.127 404.116,24.749 404.626,25.672 C407.746,30.877 408.58,36.317 406.485,42.135 C404.786,46.852 405.572,47.89 410.58,47.856 C411.252,51.442 413.717,52.913 416.998,53.987 C437.321,60.645 452.758,73.652 464.65,91.159 C464.984,91.651 465.21,92.233 465.928,92.267" fill="#5A3229"/>
    <path d="M317.608,629.868 C312.613,630.288 307.687,628.95 302.696,629.268 C296.273,619.506 290.618,609.288 284.903,599.104 C263.137,560.326 243.323,520.535 223.606,480.694 C221.317,476.069 221.344,476.106 225.248,473.066 C233.351,466.756 241.433,460.419 249.499,454.062 C252.677,451.557 252.635,451.327 250.445,447.709 C244.915,438.575 239.42,429.42 233.933,420.26 C233.454,419.459 232.565,418.531 233.894,417.707 C239.453,414.26 244.72,410.351 250.493,407.245 C259.423,403.921 268.72,401.815 277.809,399.023 C278.654,398.764 279.512,398.437 280.412,398.837 C279.392,408.581 279.77,418.315 280.286,428.08 C280.805,437.926 281.755,447.725 282.904,457.499 C284.308,469.439 285.998,481.35 287.824,493.234 C290.647,511.606 294.079,529.876 297.886,548.069 C303.145,573.196 309.131,598.152 315.836,622.932 C316.459,625.236 317.019,627.552 317.608,629.868" fill="#6C6969"/>
    <path d="M358.533,629.322 C354.592,628.92 350.738,630.312 346.795,629.886 C345.852,629.784 344.797,630.186 344.039,629.262 C346.937,618.078 349.912,606.912 352.718,595.709 C358.694,571.85 363.959,547.828 368.486,523.657 C371.874,505.571 374.896,487.417 377.167,469.141 C378.934,454.912 380.57,440.688 381.404,426.362 C381.938,417.178 382.18,408.035 381.267,398.877 C381.628,398.693 382.024,398.545 382.415,398.635 C389.675,400.319 397.084,401.437 404.041,404.282 C405.935,404.45 407.188,405.807 408.637,406.786 C413.267,409.915 417.797,413.203 422.528,416.171 C424.948,417.689 425.167,419.036 423.706,421.407 C418.158,430.414 412.828,439.556 407.29,448.57 C405.934,450.775 406.383,452.221 408.254,453.677 C416.987,460.474 425.631,467.387 434.457,474.06 C436.882,475.893 436.317,477.572 435.327,479.676 C428.95,493.226 422.608,506.792 416.239,520.345 C407.442,539.066 398.109,557.523 388.642,575.908 C379.547,593.569 370.022,611.004 359.677,627.978 C359.374,628.476 358.918,628.878 358.533,629.322" fill="#6C6969"/>
    <path d="M61.415,362.897 C61.675,364.677 61.894,366.464 62.205,368.234 C62.543,370.157 63.311,371.852 65.678,371.405 C68.026,370.961 68.107,369.243 67.722,367.231 C65.741,356.851 68.193,347.705 75.538,339.649 C76.298,341.122 76.283,342.496 76.568,343.8 C76.937,345.493 78.023,346.406 79.821,346.148 C81.722,345.877 82.294,344.532 82.022,342.87 C81.214,337.935 80.563,332.984 80.428,327.985 C80.17,318.439 80.863,309.154 87.886,301.648 C89.332,300.101 90.857,298.663 92.698,297.64 C95.267,296.213 96.169,296.782 95.944,299.699 C95.699,302.884 95.293,306.057 94.969,309.236 C93.865,320.083 93.571,330.854 94.808,341.797 C96.337,355.303 93.165,367.819 83.056,377.796 C81.266,379.562 79.259,381.05 77.101,382.315 C75.551,383.222 74.53,384.358 75.269,386.193 C75.929,387.831 77.234,388.391 78.923,387.623 C80.186,387.047 80.236,388.01 80.37,388.761 C81.877,397.212 83.429,405.653 85.86,413.9 C86.164,414.932 85.57,415.384 84.947,415.873 C76.912,422.18 67.477,424.865 57.598,426.349 C55.507,426.664 55.865,424.72 55.628,423.665 C53.983,416.36 52.016,409.159 49.504,402.098 C47.164,395.523 43.743,389.663 39.041,384.462 C30.467,374.975 21.899,365.459 14.881,354.71 C11.11,348.935 7.752,342.958 6.106,336.142 C4.321,328.749 6.455,322.789 12.707,318.657 C24.406,310.925 37.157,309.527 50.553,313.207 C54.05,314.168 56.015,316.489 56.675,320.155 C57.695,325.812 58.21,331.414 56.758,337.075 C55.672,341.305 53.354,344.051 48.88,345.087 C45.081,345.967 41.351,347.122 37.411,346.966 C34.34,346.845 33.679,345.76 34.898,342.934 C36.916,338.26 41.081,336.072 45.387,334.079 C46.283,333.665 47.305,333.464 47.897,332.552 C48.496,331.631 48.538,330.649 48.038,329.711 C47.405,328.523 46.319,328.059 45.013,328.24 C39.573,328.994 34.135,329.755 28.703,330.559 C26.983,330.814 25.94,331.877 26.141,333.649 C26.347,335.461 27.637,336.079 29.377,335.985 C30.326,335.933 31.308,335.599 32.409,336.188 C30.703,338.581 29.192,341.015 28.85,343.974 C28.353,348.269 30.315,351.031 34.49,352.162 C37.905,353.088 41.241,352.151 44.612,352.036 C45.766,351.793 46.76,352.28 47.686,352.823 C51.7,355.17 55.837,357.322 59.401,360.382 C60.254,361.114 60.929,361.91 61.415,362.897" fill="#FCE3CD"/>
    <path d="M330.356,654.306 C326.5,640.356 322.603,626.664 318.953,612.912 C316.113,602.214 313.577,591.431 310.916,580.684 C309.618,575.441 311.423,570.382 312.015,565.281 C313.74,550.421 315.769,535.597 317.681,520.759 C319.593,505.921 321.506,491.083 323.423,476.246 C324.689,466.453 325.956,456.659 327.238,446.869 C327.595,444.14 327.223,441.551 326.324,438.931 C324.35,433.175 322.62,427.337 320.692,421.565 C320.227,420.176 320.347,419.246 321.397,418.135 C324.137,415.231 326.76,412.21 329.33,409.153 C330.451,407.819 331.24,407.842 332.384,409.12 C335.115,412.171 337.926,415.151 340.768,418.099 C341.582,418.943 341.528,419.608 341.235,420.717 C339.325,427.949 337.519,435.209 335.809,442.49 C335.084,445.576 336.095,448.656 336.42,451.712 C338.087,467.384 339.899,483.04 341.686,498.7 C343.607,515.549 345.563,532.394 347.491,549.242 C348.534,558.359 349.494,567.487 350.604,576.597 C351.082,580.517 349.769,584.097 348.886,587.761 C343.814,608.808 338.156,629.7 332.035,650.46 C331.678,651.672 331.584,653.022 330.356,654.306" fill="#03B09F"/>
    <path d="M402.835,23.912 C394.628,16.785 385.021,13.665 374.222,13.558 C356.309,13.381 339.225,17.595 322.445,23.237 C294.113,32.762 267.971,46.57 244.019,64.434 C229.511,75.254 216.659,87.742 207.27,103.407 C200.969,113.92 197.223,125.266 196.379,137.577 C195.128,155.839 197.279,173.768 201.187,191.555 C201.294,192.04 201.289,192.549 201.335,193.047 C201.551,193.643 201.3,193.76 200.773,193.592 C195.43,177.702 192.61,161.357 191.548,144.638 C190.868,133.924 190.774,123.289 193.189,112.772 C196.447,98.585 203.798,86.594 213.255,75.751 C231.757,54.537 255.174,40.174 280.115,28.018 C300.405,18.129 321.589,10.798 343.958,7.31 C356.456,5.362 369.017,4.591 381.364,8.339 C390.444,11.096 398.52,15.442 403.693,23.883 C403.415,24.137 403.13,24.146 402.835,23.912" fill="#A77B74"/>
    <path d="M306.923,563.818 C303.404,547.258 299.945,530.687 296.958,514.02 C293.581,495.184 290.775,476.264 288.377,457.282 C288.252,456.29 288.22,455.389 289.034,454.525 C292.171,451.193 295.226,447.783 298.311,444.402 C305.542,441.736 313.108,440.416 320.618,438.872 C321.012,438.791 321.407,438.921 321.766,439.115 C322.915,441.494 323.393,443.934 323.039,446.622 C320.088,469.06 317.189,491.506 314.305,513.953 C312.171,530.565 310.083,547.182 307.974,563.797 C307.633,564.238 307.282,564.233 306.923,563.818" fill="#FEFEFE"/>
    <path d="M353.14,563.208 C351.646,549.611 350.176,536.012 348.654,522.419 C346.544,503.568 344.395,484.721 342.261,465.874 C341.554,459.623 340.915,453.363 340.102,447.127 C339.76,444.509 339.911,442.031 340.938,439.608 C341.216,439.498 341.515,439.326 341.798,439.39 C350.043,441.24 358.424,442.556 366.359,445.625 C366.526,445.729 366.721,445.804 366.854,445.94 C374.106,453.338 373.839,453.302 372.03,466.63 C367.543,499.684 361.53,532.45 354.256,564.995 C354.212,565.189 354.212,565.392 354.193,565.591 C352.585,565.352 353.854,563.842 353.14,563.208" fill="#FEFEFE"/>
    <path d="M326.357,406.202 C313.388,420.776 300.731,435.001 287.609,449.747 C287.024,443.639 286.377,438.147 285.996,432.637 C285.362,423.471 284.756,414.286 285.297,405.1 C285.835,395.968 288.262,387.455 294.218,380.528 C301.592,393.182 312.459,401.303 326.357,406.202" fill="#FEFEFE"/>
    <path d="M373.842,447.17 C360.953,433.441 348.265,419.928 335.356,406.178 C349.063,401.343 360.086,393.455 367.946,381.272 C373.418,387.85 375.754,395.933 376.256,404.468 C377.078,418.453 375.687,432.382 374.296,446.29 C374.278,446.469 374.124,446.635 373.842,447.17" fill="#FEFEFE"/>
    <path d="M231.324,414.011 C216.284,418.69 201.322,423.655 187.54,431.395 C179.105,436.132 172.791,443.556 166.153,450.44 C151.743,465.385 138.717,481.527 125.776,497.734 C125.224,498.425 124.854,499.291 123.923,499.604 C121.73,494.056 123.454,489.989 127.523,485.603 C144.236,467.591 160.49,449.154 177.332,431.252 C184.765,423.352 193.925,418.213 203.564,413.731 C222.631,404.864 242.708,398.858 262.811,392.935 C262.979,392.885 263.191,392.989 263.392,393.023 C263.381,393.202 263.438,393.475 263.352,393.532 C252.771,400.507 242.242,407.564 231.324,414.011" fill="#C1C2C2"/>
    <path d="M7.382,216.158 C7.424,215.851 7.447,214.834 7.71,213.885 C8.807,209.923 11.738,208.727 15.284,210.836 C18.91,212.994 21.332,216.301 23.435,219.847 C27.789,227.188 30.554,235.203 33.074,243.292 C36.722,255.001 39.608,266.911 42.166,278.905 C42.596,280.924 42.49,282.149 40.028,282.524 C38.19,282.805 36.303,283.439 34.69,284.357 C32.465,285.625 31.972,284.609 31.305,282.71 C25.627,266.549 19.95,250.386 13.435,234.535 C12.11,231.311 10.608,228.161 9.25,224.95 C8.156,222.365 7.345,219.698 7.382,216.158" fill="#FCE3CD"/>
    <path d="M214.426,263.308 C215.612,268.655 216.806,274.001 217.981,279.35 C218.423,281.362 216.861,281.186 215.766,281.144 C212.779,281.033 210.17,279.782 207.805,278.036 C203.888,275.147 200.83,271.455 198.337,267.329 C190.229,253.915 184.116,239.859 185.078,223.692 C185.353,219.058 186.609,214.668 189.05,210.667 C190.913,207.613 193.352,205.182 196.635,203.669 C204.014,200.268 212.104,205.759 211.795,213.907 C211.686,216.789 211.778,219.679 211.778,223.406 C209.374,220.606 207.718,218.269 205.34,216.638 C202.557,214.73 199.588,213.485 196.161,213.478 C194.216,213.475 192.715,214.117 192.727,216.296 C192.737,218.27 194.023,219.092 195.928,218.977 C196.953,218.915 197.907,219.161 198.835,219.56 C198.922,219.982 198.823,220.384 198.505,220.646 C194.166,224.246 194.475,229.036 195.19,233.87 C195.952,239.021 197.175,244.102 199.269,248.857 C202.286,255.705 206.567,261.437 214.426,263.308" fill="#FCE3CD"/>
    <path d="M462.879,219.559 C463.79,219.085 464.762,218.947 465.779,218.976 C467.637,219.029 468.95,218.333 468.932,216.274 C468.914,214.046 467.44,213.454 465.502,213.481 C460.231,213.555 456.22,216.132 452.812,219.88 C452.016,220.754 451.333,221.733 450.565,222.705 C448.474,217.144 449.713,209.554 453.278,205.764 C456.426,202.418 460.224,201.574 464.429,203.38 C469.844,205.706 472.991,210.056 474.866,215.438 C477.513,223.034 477.25,230.756 475.48,238.457 C472.54,251.252 467.293,262.999 458.963,273.23 C455.966,276.911 452.385,279.929 447.533,280.951 C444.136,281.666 443.593,281.137 444.268,277.923 C445.291,273.054 446.288,268.18 447.296,263.308 C452.141,261.933 456.116,259.381 458.902,255.059 C464.24,246.776 466.555,237.623 466.83,227.888 C466.898,225.512 465.998,223.417 464.25,221.717 C463.637,221.121 462.747,220.649 462.879,219.559" fill="#FCE3CD"/>
    <path d="M506.137,480.441 C505.395,482.143 505.413,480.575 505.303,480.217 C503.04,472.886 500.681,465.586 497.626,458.541 C494.606,451.58 491.316,444.767 486.442,438.841 C481.198,432.466 474.054,428.898 466.808,425.55 C452.666,419.016 437.836,414.365 422.944,409.912 C422.29,409.717 421.573,409.731 420.886,409.648 C412.592,404.9 405.094,398.975 396.903,393.746 C398.068,393.295 398.902,393.508 399.757,393.788 C424.847,402.018 450.041,409.963 474.08,421.057 C475.437,421.684 476.729,422.482 478.13,422.975 C488.742,426.71 494.006,435.128 497.618,445.036 C501.802,456.516 504.229,468.415 506.137,480.441" fill="#C1C2C2"/>
    <path d="M48.617,430.822 C65.878,434.984 88.78,424.521 95.974,409.358 C96.598,411.944 96.92,414.382 97.783,416.61 C99.159,420.16 98.171,423.137 95.915,425.738 C85.148,438.157 71.83,445.445 55.094,445.823 C53.105,445.868 52.343,445.112 51.91,443.295 C50.948,439.255 49.801,435.26 48.617,430.822" fill="#FEFEFE"/>
    <path d="M462.879,219.559 C467.361,222.266 468.233,226.562 467.614,231.224 C466.391,240.432 464.417,249.457 458.461,256.971 C455.642,260.525 452.431,263.693 447.296,263.308 C448.995,253.457 448.382,243.265 451.569,233.639 C453.016,229.27 455.03,225.176 458.573,222.051 C459.833,220.939 461.125,219.837 462.879,219.559" fill="#E8B59F"/>
    <path d="M214.426,263.308 C208.694,263.801 205.504,259.93 202.517,256.067 C197.893,250.087 196.121,242.912 194.678,235.66 C194.27,233.613 194.088,231.55 193.994,229.453 C193.805,225.21 195.199,221.87 198.835,219.56 C202.491,220.7 204.885,223.359 206.748,226.481 C209.798,231.59 211.681,237.091 212.201,243.092 C212.786,249.844 213.671,256.57 214.426,263.308" fill="#E8B59F"/>
    <path d="M12.263,311.712 C14.011,307.726 16.726,305.027 20.43,303.637 C31.749,299.387 43.439,298.055 55.42,299.948 C59.94,300.662 63.253,303.084 65.321,307.281 C68.294,313.315 70.292,319.487 68.693,326.294 C67.904,329.652 66.289,332.524 63.087,334.895 C63.201,330.767 63.313,327.047 62.818,323.323 C61.287,311.804 57.587,308.009 45.96,306.439 C34.604,304.906 23.695,306.242 13.414,311.565 C13.195,311.678 12.896,311.637 12.263,311.712" fill="#FCE3CD"/>
    <path d="M40.487,444.515 C43.472,444.796 44.048,447.174 44.474,449.416 C51.283,485.262 59.378,520.807 69.25,555.94 C70.031,558.722 70.985,561.455 71.833,564.22 C72.044,564.907 72.766,565.679 71.666,566.276 C65.205,558.999 62.547,550.048 60.404,540.85 C53.708,512.103 47.24,483.308 41.89,454.274 C41.294,451.045 40.948,447.769 40.487,444.515" fill="#C1C2C2"/>
    <path d="M465.928,92.267 C464.98,94.39 464.738,92.255 464.512,91.942 C460.894,86.914 457.1,82.058 452.797,77.569 C442.134,66.443 429.524,58.544 414.835,53.915 C411.071,52.729 410.29,51.502 410.58,47.856 C415.005,46.848 419.303,47.859 423.505,48.968 C443.303,54.197 456.039,67.154 463.417,85.864 C464.258,87.997 465.091,90.133 465.928,92.267" fill="#A77B74"/>
    <path d="M315.914,395.11 C310.412,391.729 305.852,387.327 301.904,382.247 C301.199,381.339 300.807,380.464 300.893,379.257 C301.019,377.495 301.363,376.775 303.402,377.509 C321.394,383.986 339.464,384.166 357.574,377.944 C357.847,377.851 358.165,377.892 358.462,377.87 C358.687,379.002 357.794,379.497 357.11,379.982 C344.925,388.631 331.706,394.531 316.511,395.119 C316.315,395.126 316.115,395.099 315.914,395.11" fill="#E8B59F"/>
    <path d="M27.383,295.142 C39.375,286.151 51.66,284.043 64.823,289.43 C73.154,292.839 77.328,300.981 76.289,310.465 C76.023,312.893 75.518,315.295 74.934,317.726 C73.842,314.1 72.896,310.485 71.464,306.995 C68,298.556 61.526,294.627 52.744,293.899 C45.545,293.302 38.391,293.566 31.282,294.918 C30.27,295.111 29.209,295.046 27.383,295.142" fill="#FCE3CD"/>
    <path d="M315.914,395.11 C319.41,393.449 323.299,393.88 326.972,393.034 C338.648,390.342 349.113,385.309 358.462,377.87 C359.358,377.482 360.254,377.095 361.163,376.701 C362.189,379.356 361.442,381.306 359.71,383.291 C352.754,391.266 344.417,397.126 334.39,400.595 C331.918,401.45 329.593,401.514 327.141,400.574 C323.235,399.076 319.38,397.502 315.914,395.11" fill="#FCE3CD"/>
    <path d="M366.359,445.625 C357.806,443.958 349.312,442.037 340.938,439.608 C342.227,434.133 343.517,428.659 344.96,422.532 C352.348,430.505 359.354,438.065 366.359,445.625" fill="#D5DFE5"/>
    <path d="M321.766,439.115 C313.984,441.037 306.269,443.263 298.311,444.402 C304.372,437.45 310.432,430.499 316.849,423.139 C318.59,428.798 320.178,433.957 321.766,439.115" fill="#D5DFE5"/>
    <path d="M280.412,398.837 C273.187,401.588 265.627,403.222 258.243,405.443 C255.715,406.204 253.284,407.555 250.493,407.245 C260.487,400.721 270.467,394.176 280.5,387.713 C281.24,387.236 282.221,386.705 283.511,387.108 C282.264,390.985 280.902,394.804 280.412,398.837" fill="#C1C2C2"/>
    <path d="M61.415,362.897 C56.282,358.553 50.589,355.075 44.612,352.036 C46.907,351.388 49.199,350.729 51.498,350.094 C55.113,349.096 58.086,347.187 59.935,343.859 C60.487,342.867 61.262,342.495 62.206,342.139 C64.752,341.176 66.556,339.031 68.956,337.828 L69.061,337.907 C68.957,338.273 68.951,338.713 68.737,338.994 C63.361,346.067 61.261,354.135 61.415,362.897" fill="#E8B59F"/>
    <path d="M404.041,404.282 C398.299,403.7 392.914,401.532 387.271,400.499 C385.238,400.127 383.266,399.427 381.267,398.877 C380.426,394.892 379.637,390.892 377.829,387.143 C378.995,386.529 379.93,387.273 380.773,387.842 C388.353,392.963 395.903,398.129 403.446,403.306 C403.732,403.502 403.846,403.951 404.041,404.282" fill="#C1C2C2"/>
    <path d="M94.868,404.929 C92.569,404.318 90.826,404.576 89.897,407.353 C89.471,405.621 89.062,404.358 88.872,403.063 C88.713,401.978 87.322,400.435 89.411,399.903 C91.358,399.408 93.212,399.913 94.181,401.917 C94.559,402.7 94.591,403.651 94.868,404.929" fill="#F7F6F6"/>
    <path d="M69.061,337.907 C69.061,337.907 68.955,337.826 68.956,337.827 C70.894,334.327 73.796,331.289 74.14,327.025 C75.455,327.038 74.834,328.052 74.933,328.643 C75.106,329.663 74.702,330.742 75.212,331.74 C73.549,334.182 71.408,336.147 69.061,337.907" fill="#D9A995"/>
    <path d="M49.971,425.308 C48.207,423.945 46.088,422.983 49.07,420.616 C49.609,422.119 50.149,423.469 49.971,425.308" fill="#EEEDED"/>
    <path d="M75.212,331.74 C74.216,330.313 75.395,328.392 74.14,327.025 C74.068,326.218 74.176,325.495 75.212,324.945 C75.212,327.312 75.212,329.526 75.212,331.74" fill="#6C5247"/>
    <path d="M200.774,193.592 C200.96,193.411 201.147,193.229 201.334,193.047 C201.871,194.215 202.617,195.353 201.856,196.706 C201.495,195.668 201.134,194.63 200.774,193.592" fill="#855D57"/>
    <path d="M353.14,563.208 C353.807,563.862 353.321,565.027 354.193,565.591 C354.206,566.09 354.363,567.073 353.517,566.209 C352.786,565.462 352.89,564.263 353.14,563.208" fill="#898280"/>
    <path d="M306.923,563.818 C307.273,563.811 307.624,563.804 307.974,563.797 C308.188,564.468 308.214,565.124 307.816,565.777 C306.98,565.353 306.725,564.691 306.923,563.818" fill="#8F8987"/>
    <path d="M402.835,23.912 C403.12,23.903 403.405,23.893 403.691,23.882 C404.349,24.299 404.656,24.898 404.626,25.672 C403.859,25.259 403.238,24.697 402.835,23.912" fill="#865E57"/>
    <path d="M408.89,213.581 C410.675,219.763 408.44,225.243 405.392,230.287 C400.208,238.868 392.246,243.218 382.3,242.095 C371.905,240.92 365.017,234.668 361.484,224.765 C359.455,219.078 359.471,213.295 360.259,207.419 C360.422,206.201 361.346,205.852 362.033,205.191 C363.666,202.512 364.779,199.555 366.491,196.913 C367.419,195.482 368.408,194.168 370.051,193.502 C382.069,189.368 393.565,189.794 404.239,197.413 C406.565,199.455 407.005,202.368 407.544,205.133 C408.088,207.925 408.572,210.744 408.89,213.581" fill="#FEFEFE"/>
    <path d="M300.844,205.178 C302.089,214.215 302.357,223.086 296.893,231.12 C291.489,239.064 283.912,243.106 274.465,242.119 C264.269,241.054 257.456,234.974 253.711,225.428 C252.604,222.608 252.34,219.633 251.737,216.719 C251.476,215.459 251.785,214.356 252.826,213.52 C253.625,208.242 253.498,202.729 256.742,198.066 C267.485,189.64 279.294,189.365 291.678,193.505 C294.547,194.855 295.639,197.636 296.813,200.236 C297.744,202.297 298.912,204.008 300.844,205.178" fill="#FEFEFE"/>
    <path d="M394.561,150.435 C403.333,150.677 411.106,153.078 416.743,160.29 C418.243,162.209 419.303,164.354 419.605,166.784 C420.004,169.993 418.269,171.759 415.033,171.406 C412.541,171.134 410.219,170.183 407.888,169.301 C401.164,166.758 394.465,164.245 387.034,164.748 C380.695,165.178 374.679,166.879 368.674,168.742 C366.391,169.449 364.094,170.118 361.781,170.717 C360.938,170.936 359.878,171.209 359.257,170.379 C358.528,169.406 359.242,168.47 359.779,167.647 C361.493,165.02 363.791,162.943 366.24,161.035 C374.577,154.543 383.89,150.646 394.561,150.435" fill="#2F201B"/>
    <path d="M268.379,150.436 C280.31,151.013 291.349,156.27 300.398,165.839 C300.673,166.129 300.982,166.408 301.175,166.748 C301.789,167.834 303.193,168.878 302.398,170.183 C301.565,171.548 300.046,170.779 298.831,170.474 C292.552,168.902 286.501,166.543 280.091,165.385 C272.056,163.934 264.422,165.095 256.923,168.043 C253.962,169.207 250.96,170.327 247.889,171.134 C243.227,172.361 240.865,169.843 242.289,165.213 C243.876,160.054 247.558,156.608 252.124,154.032 C256.761,151.415 261.833,150.532 268.379,150.436" fill="#2F201B"/>
    <path d="M415.609,243.473 C422.239,243.323 428.344,243.869 434.123,246.412 C434.395,246.532 434.722,246.551 434.965,246.708 C436.972,248 439.378,249.137 439.359,251.933 C439.34,254.635 437.036,255.844 434.974,256.745 C427.412,260.045 419.387,260.786 411.282,260.104 C406.865,259.732 402.371,259.221 398.255,257.259 C395.829,256.103 392.836,255.122 392.801,251.971 C392.766,248.769 395.5,247.219 398.158,246.202 C403.895,244.006 409.886,243.19 415.609,243.473" fill="#F7BAB3"/>
    <path d="M245.741,243.469 C251.96,243.316 258.059,243.912 263.834,246.449 C264.374,246.687 264.904,246.962 265.405,247.274 C270.275,250.296 270.273,253.543 265.281,256.398 C262.412,258.039 259.213,258.828 255.952,259.363 C246.488,260.915 237.161,260.703 228.062,257.317 C227.782,257.213 227.47,257.172 227.216,257.025 C225.085,255.785 222.334,254.843 222.377,251.885 C222.421,248.891 224.974,247.573 227.361,246.502 C233.207,243.88 239.417,243.287 245.741,243.469" fill="#F7BAB3"/>
    <path d="M330.923,324.825 C313.773,324.587 299.102,318.939 287.132,306.772 C286.365,305.993 285.617,305.168 285.012,304.263 C284.081,302.871 283.941,301.339 285.425,300.287 C286.807,299.307 288.301,299.549 289.421,300.902 C291.274,303.141 293.348,305.15 295.583,306.997 C317.819,325.375 352.499,322.888 371.788,301.498 C373.249,299.878 374.813,298.903 376.618,300.538 C378.391,302.146 377.313,303.814 376.022,305.217 C365.567,316.581 352.555,322.826 337.275,324.469 C335.096,324.703 332.894,324.719 330.923,324.825" fill="#2F201B"/>
    <path d="M300.844,205.178 C298.89,205.281 297.813,204.405 297.092,202.519 C295.922,199.459 294.376,196.552 291.919,194.258 C288.256,191.694 284.852,188.762 280.241,187.793 C273.442,186.365 264.21,187.459 259.476,195.4 C258.806,196.524 257.757,197.345 257.119,198.485 C255.153,202.103 254.568,206.08 254.182,210.091 C254.055,211.402 253.915,212.626 252.826,213.52 C249.276,213.898 248.486,213.23 248.674,209.693 C248.974,204.051 250.415,198.692 253.042,193.68 C261.288,177.937 281.974,178.223 292.153,186.541 C296.735,190.285 300.049,194.923 302.276,200.384 C303.104,202.416 302.978,204.074 300.844,205.178" fill="#2F201B"/>
    <path d="M369.692,194.207 C367.218,196.475 365.784,199.412 364.489,202.421 C363.964,203.642 363.459,204.803 362.033,205.191 C358.95,204.582 358.066,203.258 359.233,200.443 C365.723,184.792 379.454,177.649 395.081,182.336 C404.788,185.248 409.324,192.959 411.727,202.175 C412.376,204.664 412.721,207.261 412.922,209.831 C413.176,213.079 412.283,213.797 408.889,213.581 C407.501,212.747 407.506,211.336 407.351,209.966 C406.876,205.768 406.438,201.555 404.014,197.894 C403.268,197.092 402.587,196.235 402.007,195.307 C395.491,184.891 380.008,185.42 373.336,191.663 C372.242,192.686 371.051,193.565 369.692,194.207" fill="#2F201B"/>
    <path d="M330.435,268.045 C333.664,267.866 336.731,267.989 339.625,269.299 C340.927,269.889 342.161,270.609 342.248,272.227 C342.332,273.805 341.119,274.519 339.912,274.989 C333.629,277.437 327.326,277.321 321.068,274.884 C319.94,274.445 318.923,273.723 318.901,272.308 C318.88,270.885 319.943,270.277 321.001,269.67 C323.989,267.956 327.256,267.873 330.435,268.045" fill="#D6A393"/>
    <path d="M392.608,200.929 C390.007,201.551 388.598,202.885 388.565,205.351 C388.542,207.092 389.18,208.55 390.816,209.256 C392.846,210.133 394.489,209.348 395.76,207.623 C399.785,215.974 395.147,231.388 383.806,233.356 C377.746,234.408 372.202,231.61 368.724,225.857 C363.96,217.976 364.756,207.115 370.593,200.343 C376.696,193.264 386.409,193.407 392.608,200.929" fill="#2F201B"/>
    <path d="M369.692,194.207 C379.153,182.791 396.943,183.996 403.643,196.516 C403.861,196.925 403.895,197.432 404.014,197.894 C400.676,196.225 397.553,194.167 393.884,193.119 C386.704,191.066 379.634,191.485 372.559,193.511 C371.614,193.781 370.648,193.976 369.692,194.207" fill="#E4EBF6"/>
    <path d="M291.36,200.959 C288.638,201.488 287.085,202.823 287.079,205.427 C287.075,207.157 287.819,208.594 289.433,209.275 C291.649,210.208 293.252,209.119 294.496,207.281 C298.218,215.198 294.629,227.139 287.255,231.563 C281.193,235.2 273.988,233.886 269.217,228.272 C262.699,220.604 262.745,208.043 269.318,200.363 C275.377,193.283 285.11,193.405 291.36,200.959" fill="#2F201B"/>
    <path d="M257.119,198.485 C262.139,184.245 280.221,183.765 288.836,191.063 C289.966,192.02 291.175,192.92 291.919,194.258 C287.951,193.499 284.165,192.058 280.038,191.811 C271.538,191.302 263.976,193.574 257.119,198.485" fill="#E4EBF6"/>
  </g>
</svg>
