<svg width="483" height="655" xmlns="http://www.w3.org/2000/svg" xmlns:xlink="http://www.w3.org/1999/xlink" overflow="hidden"><defs><clipPath id="clip0"><rect x="348" y="-67" width="483" height="655"/></clipPath><clipPath id="clip1"><rect x="387" y="-66" width="380" height="417"/></clipPath><clipPath id="clip2"><rect x="387" y="-66" width="380" height="418"/></clipPath><clipPath id="clip3"><rect x="387" y="-66" width="748" height="668"/></clipPath><clipPath id="clip4"><rect x="348" y="351" width="482" height="236"/></clipPath><clipPath id="clip5"><rect x="348" y="350" width="482" height="237"/></clipPath><clipPath id="clip6"><rect x="348" y="-71" width="482" height="659"/></clipPath><clipPath id="clip7"><rect x="348" y="-67" width="480" height="654"/></clipPath><clipPath id="clip8"><rect x="520" y="336" width="51" height="71"/></clipPath><clipPath id="clip9"><rect x="520" y="336" width="51" height="71"/></clipPath><clipPath id="clip10"><rect x="307" y="-71" width="475" height="660"/></clipPath><clipPath id="clip11"><rect x="309" y="-67" width="473" height="655"/></clipPath><clipPath id="clip12"><rect x="524" y="336" width="85" height="80"/></clipPath><clipPath id="clip13"><rect x="524" y="336" width="85" height="81"/></clipPath></defs><g clip-path="url(#clip0)" transform="translate(-348 67)"><g clip-path="url(#clip1)"><g clip-path="url(#clip2)"><g clip-path="url(#clip3)"><path d="M25.4477 664.669C25.4477 664.669 28.777 519.121 32.1064 497.802 35.4357 476.484 48.7611 460.169 62.0824 453.042 75.4038 445.916 133.334 428.026 133.334 428.026L223.318 428.026C223.318 428.026 281.247 445.916 294.569 453.042 307.89 460.169 321.215 476.484 324.545 497.802 327.874 519.121 337.199 664.669 337.199 664.669L25.4477 664.669" fill="#4B6BA5" transform="matrix(1.00027 0 0 1 387 -66)"/><path d="M106.383 600.057C78.7971 600.057 52.2743 597.439 27.4221 592.659 26.2311 630.381 25.4477 664.669 25.4477 664.669L337.199 664.669C337.199 664.669 331.295 572.539 327.207 524.153 283.985 569.425 201.319 600.057 106.383 600.057" fill="#3E5C8A" transform="matrix(1.00027 0 0 1 387 -66)"/><path d="M423.13 664.669C423.13 664.669 430.296 532.083 434.009 510.832 438.674 484.185 452.167 470.532 470.173 462.547 486.32 455.384 549.01 439.381 549.01 439.381L587.019 439.381C587.019 439.381 649.705 455.384 665.852 462.547 683.858 470.532 697.351 484.185 702.015 510.832 705.732 532.083 712.899 664.669 712.899 664.669L423.13 664.669" fill="#E77B8C" transform="matrix(1.00027 0 0 1 387 -66)"/><path d="M524.05 615.708C489.709 615.708 456.983 611.684 427.135 604.429 424.897 643.886 423.13 664.669 423.13 664.669L712.899 664.669C712.899 664.669 709.945 619.337 706.848 569.917 660.812 598.114 595.964 615.708 524.05 615.708" fill="#E3667B" transform="matrix(1.00027 0 0 1 387 -66)"/><path d="M206.819 458.034C206.819 458.034 191.331 483.262 179.84 483.262 168.35 483.262 152.862 458.034 152.862 458.034 152.862 458.034 154.609 448.29 156.359 445.792 158.106 443.294 166.851 433.678 166.851 433.678L192.33 432.303C192.33 432.303 204.569 438.174 205.692 442.171 206.819 446.168 206.819 458.034 206.819 458.034" fill="#FFFFFE" transform="matrix(1.00027 0 0 1 387 -66)"/><path d="M195.912 396.355 197.698 407.451C197.698 407.451 210.44 415.568 207.442 426.683 205.616 430.34 199.808 436.587 186.515 438.258 186.083 439.801 182.155 449.089 179.597 449.089 176.799 449.089 172.258 439.801 171.671 437.674 158.33 434.181 151.243 422.726 151.243 422.726L160.004 406.779 160.864 395.688" fill="#F8D2B5" transform="matrix(1.00027 0 0 1 387 -66)"/><path d="M161.015 387.658 197.075 387.658 197.454 410.748C197.454 410.748 186.171 426.06 157.358 429.557 152.986 430.089 152.027 422.395 152.162 422.387L159.86 408.41 161.015 387.658" fill="#CF957E" transform="matrix(1.00027 0 0 1 387 -66)"/><path d="M161.027 407.043C161.027 407.043 153.513 407.043 148.521 410.612 144.589 413.422 136.859 425.029 136.359 428.026 135.86 431.024 134.864 466.823 139.692 474.653 139.692 474.653 162.506 439.517 170.168 438.182 161.883 436.683 145.852 426.859 154.345 417.035L159.605 415.148 161.027 407.043" fill="#FFFFFE" transform="matrix(1.00027 0 0 1 387 -66)"/><path d="M198.645 407.043C198.645 407.043 206.163 407.043 211.155 410.612 215.084 413.422 222.818 425.029 223.318 428.026 223.817 431.024 224.812 466.823 219.984 474.653 219.984 474.653 197.171 439.517 189.513 438.182 197.79 436.683 213.821 426.859 205.328 417.035L198.825 415.648 198.645 407.043" fill="#FFFFFE" transform="matrix(1.00027 0 0 1 387 -66)"/><path d="M551.839 664.669 531.02 468.946 530.077 459.313C530.077 459.313 567.631 481.947 608.226 456.499L607.035 468.574 586.188 664.669 551.839 664.669" fill="#FFF7AD" transform="matrix(1.00027 0 0 1 387 -66)"/><path d="M587.019 439.381 583.782 415.232 555.125 417.479 551.839 439.381 529.285 445.037 531.356 458.702C531.356 458.702 545.157 468.59 569.014 468.59 592.867 468.59 607.855 458.034 607.855 458.034L609.345 445.125 587.019 439.381" fill="#F8D2B5" transform="matrix(1.00027 0 0 1 387 -66)"/><path d="M557.851 443.678C571.104 443.678 582.275 438.102 585.824 430.472L584.054 417.259C583.542 416.599 582.982 415.96 582.355 415.344L555.125 417.479 551.839 439.381 543.79 441.4C547.958 442.85 552.751 443.678 557.851 443.678" fill="#CF957E" transform="matrix(1.00027 0 0 1 387 -66)"/><path d="M162.314 402.499 161.027 421.116M161.027 407.043C161.027 407.043 153.513 407.043 148.521 410.612 144.589 413.422 136.859 425.029 136.359 428.026 135.86 431.024 134.864 466.823 139.692 474.653 139.692 474.653 162.506 439.517 170.168 438.182 161.883 436.683 145.852 426.859 154.345 417.035M197.346 402.698 198.645 421.116M198.645 407.043C198.645 407.043 206.163 407.043 211.155 410.612 215.084 413.422 222.818 425.029 223.318 428.026 223.817 431.024 224.812 466.823 219.984 474.653 219.984 474.653 197.171 439.517 189.513 438.182 197.79 436.683 213.821 426.859 205.328 417.035M169.908 438.386C169.908 438.386 173.649 449.125 179.597 449.089 182.858 449.065 189.285 438.098 189.285 438.242M65.5836 523.282 75.5757 664.669M293.07 523.282 283.078 664.669M223.318 428.026C223.318 428.026 281.247 445.916 294.569 453.042 307.89 460.169 321.215 476.484 324.545 497.802 327.874 519.121 337.199 664.669 337.199 664.669M133.334 428.026C133.334 428.026 75.4038 445.916 62.0824 453.042 48.7611 460.169 35.4357 476.484 32.1064 497.802 28.777 519.121 25.4477 664.669 25.4477 664.669M206.819 458.034C206.819 458.034 191.331 483.262 179.84 483.262 168.35 483.262 152.862 458.034 152.862 458.034M555.125 417.479 551.839 443.678M583.782 415.232 587.019 443.678M461.14 538.934 474.793 664.669M673.93 542.767 662.143 664.669M587.019 439.381C587.019 439.381 649.705 455.384 665.852 462.547 683.858 470.532 697.351 484.185 702.015 510.832 705.732 532.083 712.899 664.669 712.899 664.669M528.682 445.16 551.839 664.669M609.345 445.16 586.188 664.669M530.077 459.313C530.077 459.313 567.631 481.947 608.226 456.499" stroke="#1A1919" stroke-width="5.59553" stroke-linecap="round" stroke-linejoin="round" fill="none" transform="matrix(1.00027 0 0 1 387 -66)"/><path d="M531.356 473.186C531.356 473.186 567.683 493.834 606.951 470.616M490.34 456.499C490.34 456.499 532.259 506.26 535.852 517.95M647.683 456.499C647.683 456.499 605.764 506.26 602.175 517.95" stroke="#1A1919" stroke-width="4.79617" stroke-linecap="round" stroke-linejoin="round" fill="none" transform="matrix(1.00027 0 0 1 387 -66)"/><path d="M462.099 542.767 473.882 664.669M550.528 438.85C550.528 438.85 486.32 455.384 470.173 462.547 452.167 470.532 438.674 484.185 434.009 510.832 430.296 532.083 423.13 664.669 423.13 664.669" stroke="#1A1919" stroke-width="5.59553" stroke-linecap="round" stroke-linejoin="round" fill="none" transform="matrix(1.00027 0 0 1 387 -66)"/><path d="M488.342 456.499C488.342 456.499 530.261 506.26 533.854 517.95" stroke="#1A1919" stroke-width="4.79617" stroke-linecap="round" stroke-linejoin="round" fill="none" transform="matrix(1.00027 0 0 1 387 -66)"/><path d="M20.8553 234.057C-4.34053 115.903 70.9553 60.4997 70.9553 60.4997 52.8858 62.5101 45.1 49.7083 45.1 49.7083 103.333 10.052 164.836 26.1871 164.836 26.1871 157.802 18.4732 149.848 3.58114 149.848 3.58114 244.233 3.58114 279.829 58.1176 279.829 58.1176 279.829 58.1176 352.023 67.1104 364.013 154.792L344.529 146.047C344.529 146.047 358.754 182.202 343.766 233.545L339.037 247.255 28.8969 252.758 20.8553 234.057" fill="#4F3B31" transform="matrix(1.00027 0 0 1 387 -66)"/><path d="M62.614 60.3038C52.65 56.5708 45.5996 48.877 45.5996 48.877 103.833 9.21664 164.836 26.1871 164.836 26.1871 157.802 18.4732 149.848 3.58114 149.848 3.58114 199.269 3.58114 235.948 14.9561 255.948 31.339 235.844 19.0808 207.574 8.765 169.309 8.765 169.309 8.765 179.205 24.4964 182.866 33.2894 184.381 36.9425 185.184 41.5748 179.84 40.3638 161.995 36.311 119.357 27.6939 79.3886 49.2167 79.3886 49.2167 74.3366 52.57 79.3326 55.5676 84.3287 58.5652 87.9578 67.598 74.2607 79.7004 54.7203 96.9586 8.25741 138.042 27.3102 238.637L20.8553 234.057C-4.19265 143.302 31.7786 85.3478 63.917 66.6468 63.917 66.6468 67.7499 63.0337 66.7507 62.1983 65.7515 61.367 62.614 60.3038 62.614 60.3038" fill="#9B7B6D" transform="matrix(1.00027 0 0 1 387 -66)"/><path d="M44.2287 244.537C44.2287 244.537 36.1192 229.493 20.8553 234.057-10.9792 243.561-0.767387 309.533 51.8226 315.216" fill="#F8D2B5" transform="matrix(1.00027 0 0 1 387 -66)"/><path d="M315.588 244.789C315.588 244.789 323.698 229.745 338.957 234.301 370.784 243.813 362.331 309.781 308.905 315.468" fill="#F8D2B5" transform="matrix(1.00027 0 0 1 387 -66)"/><path d="M161.283 146.283C151.511 157.846 141.219 175.856 141.219 175.856 215.52 176.359 251.159 126.163 251.159 126.163 251.159 126.163 257.686 161.639 287.802 186.239L291.823 170.168C291.823 170.168 310.904 189.253 314.273 230.336 315.54 255.816 314.541 296.527 303.002 329.549 281.419 391.323 212.53 405.324 179.84 405.324 147.146 405.324 78.2615 391.323 56.6787 329.549 44.4765 294.641 44.0648 251.151 45.6396 226.131 52.8618 163.649 107.075 147.246 107.075 147.246L90.0121 172.85C116.623 171.343 159.792 146.747 159.792 146.747L161.283 146.283" fill="#F8D2B5" transform="matrix(1.00027 0 0 1 387 -66)"/><path d="M149.884 252.319C149.884 275.328 136.875 293.981 120.824 293.981 104.772 293.981 91.7507 275.328 91.7507 252.319 91.7507 229.313 104.772 210.668 120.824 210.668 136.875 210.668 149.884 229.313 149.884 252.319" fill="#FFFFFE" transform="matrix(1.00027 0 0 1 387 -66)"/><path d="M270.448 252.406C270.448 275.42 257.438 294.065 241.387 294.065 225.328 294.065 212.322 275.42 212.322 252.406 212.322 229.397 225.328 210.748 241.387 210.748 257.438 210.748 270.448 229.397 270.448 252.406" fill="#FFFFFE" transform="matrix(1.00027 0 0 1 387 -66)"/><path d="M103.593 295.8C103.593 301.763 93.0737 306.603 80.0841 306.603 67.1024 306.603 56.5708 301.763 56.5708 295.8 56.5708 289.833 67.1024 284.988 80.0841 284.988 93.0737 284.988 103.593 289.833 103.593 295.8" fill="#EC9896" transform="matrix(1.00027 0 0 1 387 -66)"/><path d="M303.33 295.8C303.33 301.763 292.798 306.603 279.817 306.603 266.819 306.603 256.299 301.763 256.299 295.8 256.299 289.833 266.819 284.988 279.817 284.988 292.798 284.988 303.33 289.833 303.33 295.8" fill="#EC9896" transform="matrix(1.00027 0 0 1 387 -66)"/><path d="M47.9737 294.405 45.6316 270.132C45.6316 270.132 39.0288 255.084 28.8969 252.758 15.8433 249.761 15.5796 269.868 24.5404 281.223 38.2654 298.602 47.9737 294.405 47.9737 294.405" fill="#CF957E" transform="matrix(1.00027 0 0 1 387 -66)"/><path d="M313.705 294.405 316.056 270.132C316.056 270.132 322.65 255.084 332.782 252.758 345.836 249.761 346.1 269.868 337.139 281.223 323.422 298.602 313.705 294.405 313.705 294.405" fill="#CF957E" transform="matrix(1.00027 0 0 1 387 -66)"/><path d="M123.385 220.876C130.112 220.876 136.539 222.211 142.454 224.573 137.13 216.055 129.425 210.668 120.824 210.668 111.103 210.668 102.526 217.518 97.2463 228.018 104.952 223.49 113.861 220.876 123.385 220.876" fill="#D2E0EB" transform="matrix(1.00027 0 0 1 387 -66)"/><path d="M239.005 220.964C232.279 220.964 225.86 222.294 219.94 224.657 225.26 216.139 232.974 210.748 241.567 210.748 251.287 210.748 259.864 217.606 265.14 228.098 257.438 223.581 248.53 220.964 239.005 220.964" fill="#D2E0EB" transform="matrix(1.00027 0 0 1 387 -66)"/><path d="M45.3918 106.919C99.7244 119.241 130.448 115.78 149.884 111.455 162.954 108.569 155.592 104.66 149.489 104.181 86.6548 99.2368 66.1792 78.1216 66.1792 78.1216L45.3918 106.919" fill="#9B7B6D" transform="matrix(1.00027 0 0 1 387 -66)"/><path d="M138.334 190.58C127.654 176.531 97.8499 179.097 89.6924 194.944M221.843 190.58C232.518 176.531 262.323 179.097 270.48 194.944" stroke="#1A1919" stroke-width="5.59553" stroke-linecap="round" stroke-linejoin="round" fill="none" transform="matrix(1.00027 0 0 1 387 -66)"/><path d="M146.707 228.174C134.517 199.932 83.4014 199.792 90.7076 266.439" stroke="#1A1919" stroke-width="6.70265" stroke-linecap="round" stroke-linejoin="round" fill="none" transform="matrix(1.00027 0 0 1 387 -66)"/><path d="M44.2287 244.537C44.2287 244.537 36.1192 229.493 20.8553 234.057-10.9792 243.561-0.767387 309.533 51.8226 315.216M22.1743 251.587C22.1743 251.587 32.6659 244.745 45.5476 271.647" stroke="#1A1919" stroke-width="5.59553" stroke-linecap="round" stroke-linejoin="round" fill="none" transform="matrix(1.00027 0 0 1 387 -66)"/><path d="M214.305 231.004C224.269 200.076 278.873 197.794 271.339 266.527" stroke="#1A1919" stroke-width="6.70265" stroke-linecap="round" stroke-linejoin="round" fill="none" transform="matrix(1.00027 0 0 1 387 -66)"/><path d="M315.588 244.789C315.588 244.789 323.698 229.745 338.957 234.301 370.784 243.813 362.331 309.781 308.905 315.468M338.082 252.095C338.082 252.095 327.59 245.248 314.713 272.155M179.84 301.203 179.84 293.522M168.326 139.209C157.286 147.75 141.219 175.856 141.219 175.856 215.52 176.359 251.159 126.163 251.159 126.163 251.159 126.163 257.686 161.639 287.802 186.239L291.823 170.168C291.823 170.168 310.904 189.253 314.273 230.336 315.54 255.816 314.541 296.527 303.002 329.549 281.419 391.323 212.53 405.324 179.84 405.324 147.146 405.324 78.2615 391.323 56.6787 329.549 44.4765 294.641 44.0648 251.151 45.6396 226.131 52.8618 163.649 107.075 147.246 107.075 147.246L90.0121 172.85C116.623 171.343 159.792 146.747 159.792 146.747M20.8553 234.057C-13.1855 107.162 70.9553 60.4997 70.9553 60.4997 52.8858 62.5101 45.4357 49.2087 45.4357 49.2087 103.669 9.55237 164.836 26.1871 164.836 26.1871 157.802 18.4732 150.684 3.91288 150.684 3.91288 251.939 0.583534 277.918 57.8698 277.918 57.8698 277.918 57.8698 354.521 66.5309 364.513 155.124L344.529 145.8C344.529 145.8 360.516 186.435 343.766 233.545" stroke="#1A1919" stroke-width="5.59553" stroke-linecap="round" stroke-linejoin="round" fill="none" transform="matrix(1.00027 0 0 1 387 -66)"/><path d="M145.36 258.338C145.36 274.005 137.334 286.715 127.434 286.715 117.538 286.715 109.513 274.005 109.513 258.338 109.513 242.658 117.538 229.956 127.434 229.956 137.334 229.956 145.36 242.658 145.36 258.338" fill="#1A1919" transform="matrix(1.00027 0 0 1 387 -66)"/><path d="M216.347 258.426C216.347 274.093 224.369 286.799 234.269 286.799 244.173 286.799 252.191 274.093 252.191 258.426 252.191 242.746 244.173 230.044 234.269 230.044 224.369 230.044 216.347 242.746 216.347 258.426" fill="#1A1919" transform="matrix(1.00027 0 0 1 387 -66)"/><path d="M145.048 248.833C145.048 252.051 142.674 254.649 139.744 254.649 136.827 254.649 134.453 252.051 134.453 248.833 134.453 245.62 136.827 243.018 139.744 243.018 142.674 243.018 145.048 245.62 145.048 248.833" fill="#FFFFFE" transform="matrix(1.00027 0 0 1 387 -66)"/><path d="M250.808 248.917C250.808 252.135 248.438 254.737 245.508 254.737 242.59 254.737 240.216 252.135 240.216 248.917 240.216 245.708 242.59 243.098 245.508 243.098 248.438 243.098 250.808 245.708 250.808 248.917" fill="#FFFFFE" transform="matrix(1.00027 0 0 1 387 -66)"/><path d="M631.672 410.124C676.939 408.114 685.968 382.666 685.968 382.666L694.414 414.965C712.851 400.352 719.865 346.319 721.844 326.419L733.163 261.583C765.729 98.949 661.66 90.8395 661.66 90.8395 638.498 42.1863 489.757 31.4229 428.098 136.131 391.196 198.809 408.034 257.974 408.034 257.974L428.578 331.963C432.475 349.469 438.941 387.531 427.311 408.13 427.311 408.13 456.048 402.551 459.297 393.841 459.297 393.841 465.596 406.344 501.488 408.358" fill="#4F3B31" transform="matrix(1.00027 0 0 1 387 -66)"/><path d="M443.138 403.885C445.156 384.349 441.132 361.615 438.366 349.201L417.83 275.212C417.83 275.212 400.992 216.035 437.89 153.366 499.541 48.6531 648.298 59.4205 671.452 108.078 671.452 108.078 705.153 110.72 728.202 142.966 706.64 94.3527 661.66 90.8395 661.66 90.8395 638.498 42.1863 489.757 31.4229 428.098 136.131 391.196 198.809 408.034 257.974 408.034 257.974L428.578 331.963C432.475 349.469 438.941 387.531 427.311 408.13 427.311 408.13 435.172 406.591 443.138 403.885" fill="#9B7B6D" transform="matrix(1.00027 0 0 1 387 -66)"/><path d="M436.835 266.475C436.835 266.475 428.933 251.811 414.049 256.259 383.034 265.524 392.986 329.825 444.249 335.368" fill="#F8D2B5" transform="matrix(1.00027 0 0 1 387 -66)"/><path d="M701.336 266.723C701.336 266.723 709.242 252.055 724.102 256.499 755.137 265.772 746.896 330.06 694.829 335.62" fill="#F8D2B5" transform="matrix(1.00027 0 0 1 387 -66)"/><path d="M438.214 248.53C474.121 130.104 629.473 153.421 629.473 153.421L646.708 130.128 640.461 156.691C640.461 156.691 688.043 198.198 700.061 252.626 701.288 277.462 700.317 317.147 689.07 349.333 668.023 409.549 600.892 423.198 569.014 423.198 537.151 423.198 470.013 409.549 448.973 349.333 437.095 315.308 436.675 272.918 438.214 248.53" fill="#F8D2B5" transform="matrix(1.00027 0 0 1 387 -66)"/><path d="M539.825 275.152C539.825 296.855 527.139 314.437 511.492 314.437 495.86 314.437 483.158 296.855 483.158 275.152 483.158 253.45 495.86 235.864 511.492 235.864 527.139 235.864 539.825 253.45 539.825 275.152" fill="#FFFFFE" transform="matrix(1.00027 0 0 1 387 -66)"/><path d="M657.339 275.236C657.339 296.927 644.653 314.521 629.006 314.521 613.362 314.521 600.68 296.927 600.68 275.236 600.68 253.53 613.362 235.944 629.006 235.944 644.653 235.944 657.339 253.53 657.339 275.236" fill="#FFFFFE" transform="matrix(1.00027 0 0 1 387 -66)"/><path d="M494.705 316.435C494.705 322.251 484.449 326.979 471.795 326.979 459.133 326.979 448.874 322.251 448.874 316.435 448.874 310.624 459.133 305.908 471.795 305.908 484.449 305.908 494.705 310.624 494.705 316.435" fill="#EC9896" transform="matrix(1.00027 0 0 1 387 -66)"/><path d="M689.397 316.435C689.397 322.251 679.126 326.979 666.468 326.979 653.81 326.979 643.542 322.251 643.542 316.435 643.542 310.624 653.81 305.908 666.468 305.908 679.126 305.908 689.397 310.624 689.397 316.435" fill="#EC9896" transform="matrix(1.00027 0 0 1 387 -66)"/><path d="M440.492 315.076 438.206 291.419C438.206 291.419 431.779 276.747 421.903 274.485 409.177 271.567 408.913 291.159 417.658 302.227 431.036 319.173 440.492 315.076 440.492 315.076" fill="#CF957E" transform="matrix(1.00027 0 0 1 387 -66)"/><path d="M699.505 315.076 701.8 291.419C701.8 291.419 708.222 276.747 718.099 274.485 730.824 271.567 731.08 291.159 722.343 302.227 708.97 319.173 699.505 315.076 699.505 315.076" fill="#CF957E" transform="matrix(1.00027 0 0 1 387 -66)"/><path d="M513.994 245.492C520.56 245.492 526.811 246.763 532.579 248.977 527.399 240.948 519.889 235.864 511.492 235.864 502.027 235.864 493.674 242.322 488.514 252.219 496.04 247.958 504.717 245.492 513.994 245.492" fill="#D2E0EB" transform="matrix(1.00027 0 0 1 387 -66)"/><path d="M626.703 245.572C620.129 245.572 613.874 246.831 608.114 249.057 613.29 241.028 620.812 235.944 629.186 235.944 638.666 235.944 647.015 242.402 652.159 252.307 644.653 248.034 635.98 245.572 626.703 245.572" fill="#D2E0EB" transform="matrix(1.00027 0 0 1 387 -66)"/><path d="M446.851 125.292C498.546 141.887 528.678 141.147 547.922 138.605 560.856 136.919 554.046 132.494 548.146 131.511 487.571 121.355 469.485 99.1049 469.485 99.1049L446.851 125.292" fill="#9B7B6D" transform="matrix(1.00027 0 0 1 387 -66)"/><path d="M408.034 257.974C408.034 257.974 391.196 198.809 428.098 136.131 489.757 31.4229 638.498 42.1863 661.66 90.8395 661.66 90.8395 765.729 98.949 733.163 261.583M428.578 331.963C432.475 349.469 438.941 387.531 427.311 408.13 427.311 408.13 456.048 402.551 459.297 393.841 459.297 393.841 465.596 406.344 501.488 408.358M721.844 326.419C719.865 346.319 712.851 400.352 694.414 414.965L685.968 382.666C685.968 382.666 676.939 408.114 631.672 410.124M528.57 208.106C515.916 194.94 489.109 196.895 481.16 212.354M609.957 208.106C622.075 196.251 649.425 196.895 657.371 212.354" stroke="#1A1919" stroke-width="5.59553" stroke-linecap="round" stroke-linejoin="round" fill="none" transform="matrix(1.00027 0 0 1 387 -66)"/><path d="M536.731 252.382C524.845 225.732 475.033 225.616 482.139 288.478" stroke="#1A1919" stroke-width="6.39489" stroke-linecap="round" stroke-linejoin="round" fill="none" transform="matrix(1.00027 0 0 1 387 -66)"/><path d="M436.835 266.475C436.835 266.475 428.933 251.811 414.049 256.259 383.034 265.524 392.986 329.825 444.249 335.368M415.348 273.346C415.348 273.346 425.58 266.675 438.122 292.902" stroke="#1A1919" stroke-width="5.59553" stroke-linecap="round" stroke-linejoin="round" fill="none" transform="matrix(1.00027 0 0 1 387 -66)"/><path d="M602.607 255.04C612.331 225.876 665.541 223.729 658.214 288.55" stroke="#1A1919" stroke-width="6.39489" stroke-linecap="round" stroke-linejoin="round" fill="none" transform="matrix(1.00027 0 0 1 387 -66)"/><path d="M701.336 266.723C701.336 266.723 709.242 252.055 724.102 256.499 755.137 265.772 746.896 330.06 694.829 335.62M723.254 273.833C723.254 273.833 713.047 267.171 700.485 293.394M569.014 321.771 569.014 314.293" stroke="#1A1919" stroke-width="5.59553" stroke-linecap="round" stroke-linejoin="round" fill="none" transform="matrix(1.00027 0 0 1 387 -66)"/><path d="M535.42 280.828C535.42 295.604 527.591 307.586 517.942 307.586 508.302 307.586 500.472 295.604 500.472 280.828 500.472 266.044 508.302 254.057 517.942 254.057 527.591 254.057 535.42 266.044 535.42 280.828" fill="#1A1919" transform="matrix(1.00027 0 0 1 387 -66)"/><path d="M604.605 280.904C604.605 295.688 612.423 307.666 622.067 307.666 631.728 307.666 639.549 295.688 639.549 280.904 639.549 266.123 631.728 254.133 622.067 254.133 612.423 254.133 604.605 266.123 604.605 280.904" fill="#1A1919" transform="matrix(1.00027 0 0 1 387 -66)"/><path d="M535.109 271.867C535.109 274.896 532.803 277.35 529.949 277.35 527.095 277.35 524.793 274.896 524.793 271.867 524.793 268.833 527.095 266.375 529.949 266.375 532.803 266.375 535.109 268.833 535.109 271.867" fill="#FFFFFE" transform="matrix(1.00027 0 0 1 387 -66)"/><path d="M638.194 271.947C638.194 274.972 635.872 277.414 633.034 277.414 630.181 277.414 627.871 274.972 627.871 271.947 627.871 268.917 630.181 266.463 633.034 266.463 635.872 266.463 638.194 268.917 638.194 271.947" fill="#FFFFFE" transform="matrix(1.00027 0 0 1 387 -66)"/><path d="M438.214 248.53C473.606 129.577 629.473 153.421 629.473 153.421L646.708 130.128 640.461 156.691C640.461 156.691 690.393 187.974 700.061 252.626 701.288 277.462 700.317 317.147 689.07 349.333 668.023 409.549 600.892 423.198 569.014 423.198 537.151 423.198 470.013 409.549 448.973 349.333 437.095 315.308 436.675 272.918 438.214 248.53Z" stroke="#1A1919" stroke-width="5.59553" stroke-linecap="round" stroke-linejoin="round" fill="none" transform="matrix(1.00027 0 0 1 387 -66)"/><path d="M700.609 152.782C705.473 157.274 694.613 176.983 682.887 189.693 671.148 202.402 667.655 198.274 662.803 193.785 657.931 189.293 653.534 186.147 665.261 173.43 676.991 160.72 695.74 148.298 700.609 152.782" fill="#E05652" transform="matrix(1.00027 0 0 1 387 -66)"/><path d="M700.609 152.782C705.473 157.274 694.613 176.983 682.887 189.693 671.148 202.402 667.655 198.274 662.803 193.785 657.931 189.293 653.534 186.147 665.261 173.43 676.991 160.72 695.74 148.298 700.609 152.782ZM469.193 266.087 480.292 270.244M670.477 266.087 659.381 270.244M130.068 333.506C137.13 346.06 151.427 360.612 179.768 360.612 209.101 360.612 223.382 345.024 230.172 332.203M524.581 353.961C532.251 366.431 545.68 378.518 568.914 378.518 593.074 378.518 606.636 365.444 614.134 352.463" stroke="#1A1919" stroke-width="5.59553" stroke-linecap="round" stroke-linejoin="round" fill="none" transform="matrix(1.00027 0 0 1 387 -66)"/><path d="M25.4477 664.669C25.4477 664.669 28.777 519.121 32.1064 497.802 35.4357 476.484 48.7611 460.169 62.0824 453.042 75.4038 445.916 133.334 428.026 133.334 428.026L223.318 428.026C223.318 428.026 281.247 445.916 294.569 453.042 307.89 460.169 321.215 476.484 324.545 497.802 327.874 519.121 337.199 664.669 337.199 664.669L25.4477 664.669" fill="#4B6BA5" transform="matrix(1.00027 0 0 1 387 -66)"/><path d="M106.383 600.057C78.7971 600.057 52.2743 597.439 27.4221 592.659 26.2311 630.381 25.4477 664.669 25.4477 664.669L337.199 664.669C337.199 664.669 331.295 572.539 327.207 524.153 283.985 569.425 201.319 600.057 106.383 600.057" fill="#3E5C8A" transform="matrix(1.00027 0 0 1 387 -66)"/><path d="M423.13 664.669C423.13 664.669 430.296 532.083 434.009 510.832 438.674 484.185 452.167 470.532 470.173 462.547 486.32 455.384 549.01 439.381 549.01 439.381L587.019 439.381C587.019 439.381 649.705 455.384 665.852 462.547 683.858 470.532 697.351 484.185 702.015 510.832 705.732 532.083 712.899 664.669 712.899 664.669L423.13 664.669" fill="#E77B8C" transform="matrix(1.00027 0 0 1 387 -66)"/><path d="M524.05 615.708C489.709 615.708 456.983 611.684 427.135 604.429 424.897 643.886 423.13 664.669 423.13 664.669L712.899 664.669C712.899 664.669 709.945 619.337 706.848 569.917 660.812 598.114 595.964 615.708 524.05 615.708" fill="#E3667B" transform="matrix(1.00027 0 0 1 387 -66)"/><path d="M206.819 458.034C206.819 458.034 191.331 483.262 179.84 483.262 168.35 483.262 152.862 458.034 152.862 458.034 152.862 458.034 154.609 448.29 156.359 445.792 158.106 443.294 166.851 433.678 166.851 433.678L192.33 432.303C192.33 432.303 204.569 438.174 205.692 442.171 206.819 446.168 206.819 458.034 206.819 458.034" fill="#FFFFFE" transform="matrix(1.00027 0 0 1 387 -66)"/><path d="M195.912 396.355 197.698 407.451C197.698 407.451 210.44 415.568 207.442 426.683 205.616 430.34 199.808 436.587 186.515 438.258 186.083 439.801 182.155 449.089 179.597 449.089 176.799 449.089 172.258 439.801 171.671 437.674 158.33 434.181 151.243 422.726 151.243 422.726L160.004 406.779 160.864 395.688" fill="#F8D2B5" transform="matrix(1.00027 0 0 1 387 -66)"/><path d="M161.015 387.658 197.075 387.658 197.454 410.748C197.454 410.748 186.171 426.06 157.358 429.557 152.986 430.089 152.027 422.395 152.162 422.387L159.86 408.41 161.015 387.658" fill="#CF957E" transform="matrix(1.00027 0 0 1 387 -66)"/><path d="M161.027 407.043C161.027 407.043 153.513 407.043 148.521 410.612 144.589 413.422 136.859 425.029 136.359 428.026 135.86 431.024 134.864 466.823 139.692 474.653 139.692 474.653 162.506 439.517 170.168 438.182 161.883 436.683 145.852 426.859 154.345 417.035L159.605 415.148 161.027 407.043" fill="#FFFFFE" transform="matrix(1.00027 0 0 1 387 -66)"/><path d="M198.645 407.043C198.645 407.043 206.163 407.043 211.155 410.612 215.084 413.422 222.818 425.029 223.318 428.026 223.817 431.024 224.812 466.823 219.984 474.653 219.984 474.653 197.171 439.517 189.513 438.182 197.79 436.683 213.821 426.859 205.328 417.035L198.825 415.648 198.645 407.043" fill="#FFFFFE" transform="matrix(1.00027 0 0 1 387 -66)"/><path d="M551.839 664.669 531.02 468.946 530.077 459.313C530.077 459.313 567.631 481.947 608.226 456.499L607.035 468.574 586.188 664.669 551.839 664.669" fill="#FFF7AD" transform="matrix(1.00027 0 0 1 387 -66)"/><path d="M587.019 439.381 583.782 415.232 555.125 417.479 551.839 439.381 529.285 445.037 531.356 458.702C531.356 458.702 545.157 468.59 569.014 468.59 592.867 468.59 607.855 458.034 607.855 458.034L609.345 445.125 587.019 439.381" fill="#F8D2B5" transform="matrix(1.00027 0 0 1 387 -66)"/><path d="M557.851 443.678C571.104 443.678 582.275 438.102 585.824 430.472L584.054 417.259C583.542 416.599 582.982 415.96 582.355 415.344L555.125 417.479 551.839 439.381 543.79 441.4C547.958 442.85 552.751 443.678 557.851 443.678" fill="#CF957E" transform="matrix(1.00027 0 0 1 387 -66)"/><path d="M162.314 402.499 161.027 421.116M161.027 407.043C161.027 407.043 153.513 407.043 148.521 410.612 144.589 413.422 136.859 425.029 136.359 428.026 135.86 431.024 134.864 466.823 139.692 474.653 139.692 474.653 162.506 439.517 170.168 438.182 161.883 436.683 145.852 426.859 154.345 417.035M197.346 402.698 198.645 421.116M198.645 407.043C198.645 407.043 206.163 407.043 211.155 410.612 215.084 413.422 222.818 425.029 223.318 428.026 223.817 431.024 224.812 466.823 219.984 474.653 219.984 474.653 197.171 439.517 189.513 438.182 197.79 436.683 213.821 426.859 205.328 417.035M169.908 438.386C169.908 438.386 173.649 449.125 179.597 449.089 182.858 449.065 189.285 438.098 189.285 438.242M65.5836 523.282 75.5757 664.669M293.07 523.282 283.078 664.669M223.318 428.026C223.318 428.026 281.247 445.916 294.569 453.042 307.89 460.169 321.215 476.484 324.545 497.802 327.874 519.121 337.199 664.669 337.199 664.669M133.334 428.026C133.334 428.026 75.4038 445.916 62.0824 453.042 48.7611 460.169 35.4357 476.484 32.1064 497.802 28.777 519.121 25.4477 664.669 25.4477 664.669M206.819 458.034C206.819 458.034 191.331 483.262 179.84 483.262 168.35 483.262 152.862 458.034 152.862 458.034M555.125 417.479 551.839 443.678M583.782 415.232 587.019 443.678M461.14 538.934 474.793 664.669M673.93 542.767 662.143 664.669M587.019 439.381C587.019 439.381 649.705 455.384 665.852 462.547 683.858 470.532 697.351 484.185 702.015 510.832 705.732 532.083 712.899 664.669 712.899 664.669M528.682 445.16 551.839 664.669M609.345 445.16 586.188 664.669M530.077 459.313C530.077 459.313 567.631 481.947 608.226 456.499" stroke="#1A1919" stroke-width="5.59553" stroke-linecap="round" stroke-linejoin="round" fill="none" transform="matrix(1.00027 0 0 1 387 -66)"/><path d="M531.356 473.186C531.356 473.186 567.683 493.834 606.951 470.616M490.34 456.499C490.34 456.499 532.259 506.26 535.852 517.95M647.683 456.499C647.683 456.499 605.764 506.26 602.175 517.95" stroke="#1A1919" stroke-width="4.79617" stroke-linecap="round" stroke-linejoin="round" fill="none" transform="matrix(1.00027 0 0 1 387 -66)"/><path d="M462.099 542.767 473.882 664.669M550.528 438.85C550.528 438.85 486.32 455.384 470.173 462.547 452.167 470.532 438.674 484.185 434.009 510.832 430.296 532.083 423.13 664.669 423.13 664.669" stroke="#1A1919" stroke-width="5.59553" stroke-linecap="round" stroke-linejoin="round" fill="none" transform="matrix(1.00027 0 0 1 387 -66)"/><path d="M488.342 456.499C488.342 456.499 530.261 506.26 533.854 517.95" stroke="#1A1919" stroke-width="4.79617" stroke-linecap="round" stroke-linejoin="round" fill="none" transform="matrix(1.00027 0 0 1 387 -66)"/><path d="M20.8553 234.057C-4.34053 115.903 70.9553 60.4997 70.9553 60.4997 52.8858 62.5101 45.1 49.7083 45.1 49.7083 103.333 10.052 164.836 26.1871 164.836 26.1871 157.802 18.4732 149.848 3.58114 149.848 3.58114 244.233 3.58114 279.829 58.1176 279.829 58.1176 279.829 58.1176 352.023 67.1104 364.013 154.792L344.529 146.047C344.529 146.047 358.754 182.202 343.766 233.545L339.037 247.255 28.8969 252.758 20.8553 234.057" fill="#4F3B31" transform="matrix(1.00027 0 0 1 387 -66)"/><path d="M62.614 60.3038C52.65 56.5708 45.5996 48.877 45.5996 48.877 103.833 9.21664 164.836 26.1871 164.836 26.1871 157.802 18.4732 149.848 3.58114 149.848 3.58114 199.269 3.58114 235.948 14.9561 255.948 31.339 235.844 19.0808 207.574 8.765 169.309 8.765 169.309 8.765 179.205 24.4964 182.866 33.2894 184.381 36.9425 185.184 41.5748 179.84 40.3638 161.995 36.311 119.357 27.6939 79.3886 49.2167 79.3886 49.2167 74.3366 52.57 79.3326 55.5676 84.3287 58.5652 87.9578 67.598 74.2607 79.7004 54.7203 96.9586 8.25741 138.042 27.3102 238.637L20.8553 234.057C-4.19265 143.302 31.7786 85.3478 63.917 66.6468 63.917 66.6468 67.7499 63.0337 66.7507 62.1983 65.7515 61.367 62.614 60.3038 62.614 60.3038" fill="#9B7B6D" transform="matrix(1.00027 0 0 1 387 -66)"/><path d="M44.2287 244.537C44.2287 244.537 36.1192 229.493 20.8553 234.057-10.9792 243.561-0.767387 309.533 51.8226 315.216" fill="#F8D2B5" transform="matrix(1.00027 0 0 1 387 -66)"/><path d="M315.588 244.789C315.588 244.789 323.698 229.745 338.957 234.301 370.784 243.813 362.331 309.781 308.905 315.468" fill="#F8D2B5" transform="matrix(1.00027 0 0 1 387 -66)"/><path d="M161.283 146.283C151.511 157.846 141.219 175.856 141.219 175.856 215.52 176.359 251.159 126.163 251.159 126.163 251.159 126.163 257.686 161.639 287.802 186.239L291.823 170.168C291.823 170.168 310.904 189.253 314.273 230.336 315.54 255.816 314.541 296.527 303.002 329.549 281.419 391.323 212.53 405.324 179.84 405.324 147.146 405.324 78.2615 391.323 56.6787 329.549 44.4765 294.641 44.0648 251.151 45.6396 226.131 52.8618 163.649 107.075 147.246 107.075 147.246L90.0121 172.85C116.623 171.343 159.792 146.747 159.792 146.747L161.283 146.283" fill="#F8D2B5" transform="matrix(1.00027 0 0 1 387 -66)"/><path d="M149.884 252.319C149.884 275.328 136.875 293.981 120.824 293.981 104.772 293.981 91.7507 275.328 91.7507 252.319 91.7507 229.313 104.772 210.668 120.824 210.668 136.875 210.668 149.884 229.313 149.884 252.319" fill="#FFFFFE" transform="matrix(1.00027 0 0 1 387 -66)"/><path d="M270.448 252.406C270.448 275.42 257.438 294.065 241.387 294.065 225.328 294.065 212.322 275.42 212.322 252.406 212.322 229.397 225.328 210.748 241.387 210.748 257.438 210.748 270.448 229.397 270.448 252.406" fill="#FFFFFE" transform="matrix(1.00027 0 0 1 387 -66)"/><path d="M103.593 295.8C103.593 301.763 93.0737 306.603 80.0841 306.603 67.1024 306.603 56.5708 301.763 56.5708 295.8 56.5708 289.833 67.1024 284.988 80.0841 284.988 93.0737 284.988 103.593 289.833 103.593 295.8" fill="#EC9896" transform="matrix(1.00027 0 0 1 387 -66)"/><path d="M303.33 295.8C303.33 301.763 292.798 306.603 279.817 306.603 266.819 306.603 256.299 301.763 256.299 295.8 256.299 289.833 266.819 284.988 279.817 284.988 292.798 284.988 303.33 289.833 303.33 295.8" fill="#EC9896" transform="matrix(1.00027 0 0 1 387 -66)"/><path d="M47.9737 294.405 45.6316 270.132C45.6316 270.132 39.0288 255.084 28.8969 252.758 15.8433 249.761 15.5796 269.868 24.5404 281.223 38.2654 298.602 47.9737 294.405 47.9737 294.405" fill="#CF957E" transform="matrix(1.00027 0 0 1 387 -66)"/><path d="M313.705 294.405 316.056 270.132C316.056 270.132 322.65 255.084 332.782 252.758 345.836 249.761 346.1 269.868 337.139 281.223 323.422 298.602 313.705 294.405 313.705 294.405" fill="#CF957E" transform="matrix(1.00027 0 0 1 387 -66)"/><path d="M123.385 220.876C130.112 220.876 136.539 222.211 142.454 224.573 137.13 216.055 129.425 210.668 120.824 210.668 111.103 210.668 102.526 217.518 97.2463 228.018 104.952 223.49 113.861 220.876 123.385 220.876" fill="#D2E0EB" transform="matrix(1.00027 0 0 1 387 -66)"/><path d="M239.005 220.964C232.279 220.964 225.86 222.294 219.94 224.657 225.26 216.139 232.974 210.748 241.567 210.748 251.287 210.748 259.864 217.606 265.14 228.098 257.438 223.581 248.53 220.964 239.005 220.964" fill="#D2E0EB" transform="matrix(1.00027 0 0 1 387 -66)"/><path d="M45.3918 106.919C99.7244 119.241 130.448 115.78 149.884 111.455 162.954 108.569 155.592 104.66 149.489 104.181 86.6548 99.2368 66.1792 78.1216 66.1792 78.1216L45.3918 106.919" fill="#9B7B6D" transform="matrix(1.00027 0 0 1 387 -66)"/><path d="M138.334 190.58C127.654 176.531 97.8499 179.097 89.6924 194.944M221.843 190.58C232.518 176.531 262.323 179.097 270.48 194.944" stroke="#1A1919" stroke-width="5.59553" stroke-linecap="round" stroke-linejoin="round" fill="none" transform="matrix(1.00027 0 0 1 387 -66)"/><path d="M146.707 228.174C134.517 199.932 83.4014 199.792 90.7076 266.439" stroke="#1A1919" stroke-width="6.70265" stroke-linecap="round" stroke-linejoin="round" fill="none" transform="matrix(1.00027 0 0 1 387 -66)"/><path d="M44.2287 244.537C44.2287 244.537 36.1192 229.493 20.8553 234.057-10.9792 243.561-0.767387 309.533 51.8226 315.216M22.1743 251.587C22.1743 251.587 32.6659 244.745 45.5476 271.647" stroke="#1A1919" stroke-width="5.59553" stroke-linecap="round" stroke-linejoin="round" fill="none" transform="matrix(1.00027 0 0 1 387 -66)"/><path d="M214.305 231.004C224.269 200.076 278.873 197.794 271.339 266.527" stroke="#1A1919" stroke-width="6.70265" stroke-linecap="round" stroke-linejoin="round" fill="none" transform="matrix(1.00027 0 0 1 387 -66)"/><path d="M315.588 244.789C315.588 244.789 323.698 229.745 338.957 234.301 370.784 243.813 362.331 309.781 308.905 315.468M338.082 252.095C338.082 252.095 327.59 245.248 314.713 272.155M179.84 301.203 179.84 293.522M168.326 139.209C157.286 147.75 141.219 175.856 141.219 175.856 215.52 176.359 251.159 126.163 251.159 126.163 251.159 126.163 257.686 161.639 287.802 186.239L291.823 170.168C291.823 170.168 310.904 189.253 314.273 230.336 315.54 255.816 314.541 296.527 303.002 329.549 281.419 391.323 212.53 405.324 179.84 405.324 147.146 405.324 78.2615 391.323 56.6787 329.549 44.4765 294.641 44.0648 251.151 45.6396 226.131 52.8618 163.649 107.075 147.246 107.075 147.246L90.0121 172.85C116.623 171.343 159.792 146.747 159.792 146.747M20.8553 234.057C-13.1855 107.162 70.9553 60.4997 70.9553 60.4997 52.8858 62.5101 45.4357 49.2087 45.4357 49.2087 103.669 9.55237 164.836 26.1871 164.836 26.1871 157.802 18.4732 150.684 3.91288 150.684 3.91288 251.939 0.583534 277.918 57.8698 277.918 57.8698 277.918 57.8698 354.521 66.5309 364.513 155.124L344.529 145.8C344.529 145.8 360.516 186.435 343.766 233.545" stroke="#1A1919" stroke-width="5.59553" stroke-linecap="round" stroke-linejoin="round" fill="none" transform="matrix(1.00027 0 0 1 387 -66)"/><path d="M145.36 258.338C145.36 274.005 137.334 286.715 127.434 286.715 117.538 286.715 109.513 274.005 109.513 258.338 109.513 242.658 117.538 229.956 127.434 229.956 137.334 229.956 145.36 242.658 145.36 258.338" fill="#1A1919" transform="matrix(1.00027 0 0 1 387 -66)"/><path d="M216.347 258.426C216.347 274.093 224.369 286.799 234.269 286.799 244.173 286.799 252.191 274.093 252.191 258.426 252.191 242.746 244.173 230.044 234.269 230.044 224.369 230.044 216.347 242.746 216.347 258.426" fill="#1A1919" transform="matrix(1.00027 0 0 1 387 -66)"/><path d="M145.048 248.833C145.048 252.051 142.674 254.649 139.744 254.649 136.827 254.649 134.453 252.051 134.453 248.833 134.453 245.62 136.827 243.018 139.744 243.018 142.674 243.018 145.048 245.62 145.048 248.833" fill="#FFFFFE" transform="matrix(1.00027 0 0 1 387 -66)"/><path d="M250.808 248.917C250.808 252.135 248.438 254.737 245.508 254.737 242.59 254.737 240.216 252.135 240.216 248.917 240.216 245.708 242.59 243.098 245.508 243.098 248.438 243.098 250.808 245.708 250.808 248.917" fill="#FFFFFE" transform="matrix(1.00027 0 0 1 387 -66)"/><path d="M631.672 410.124C676.939 408.114 685.968 382.666 685.968 382.666L694.414 414.965C712.851 400.352 719.865 346.319 721.844 326.419L733.163 261.583C765.729 98.949 661.66 90.8395 661.66 90.8395 638.498 42.1863 489.757 31.4229 428.098 136.131 391.196 198.809 408.034 257.974 408.034 257.974L428.578 331.963C432.475 349.469 438.941 387.531 427.311 408.13 427.311 408.13 456.048 402.551 459.297 393.841 459.297 393.841 465.596 406.344 501.488 408.358" fill="#4F3B31" transform="matrix(1.00027 0 0 1 387 -66)"/><path d="M443.138 403.885C445.156 384.349 441.132 361.615 438.366 349.201L417.83 275.212C417.83 275.212 400.992 216.035 437.89 153.366 499.541 48.6531 648.298 59.4205 671.452 108.078 671.452 108.078 705.153 110.72 728.202 142.966 706.64 94.3527 661.66 90.8395 661.66 90.8395 638.498 42.1863 489.757 31.4229 428.098 136.131 391.196 198.809 408.034 257.974 408.034 257.974L428.578 331.963C432.475 349.469 438.941 387.531 427.311 408.13 427.311 408.13 435.172 406.591 443.138 403.885" fill="#9B7B6D" transform="matrix(1.00027 0 0 1 387 -66)"/><path d="M436.835 266.475C436.835 266.475 428.933 251.811 414.049 256.259 383.034 265.524 392.986 329.825 444.249 335.368" fill="#F8D2B5" transform="matrix(1.00027 0 0 1 387 -66)"/><path d="M701.336 266.723C701.336 266.723 709.242 252.055 724.102 256.499 755.137 265.772 746.896 330.06 694.829 335.62" fill="#F8D2B5" transform="matrix(1.00027 0 0 1 387 -66)"/><path d="M438.214 248.53C474.121 130.104 629.473 153.421 629.473 153.421L646.708 130.128 640.461 156.691C640.461 156.691 688.043 198.198 700.061 252.626 701.288 277.462 700.317 317.147 689.07 349.333 668.023 409.549 600.892 423.198 569.014 423.198 537.151 423.198 470.013 409.549 448.973 349.333 437.095 315.308 436.675 272.918 438.214 248.53" fill="#F8D2B5" transform="matrix(1.00027 0 0 1 387 -66)"/><path d="M539.825 275.152C539.825 296.855 527.139 314.437 511.492 314.437 495.86 314.437 483.158 296.855 483.158 275.152 483.158 253.45 495.86 235.864 511.492 235.864 527.139 235.864 539.825 253.45 539.825 275.152" fill="#FFFFFE" transform="matrix(1.00027 0 0 1 387 -66)"/><path d="M657.339 275.236C657.339 296.927 644.653 314.521 629.006 314.521 613.362 314.521 600.68 296.927 600.68 275.236 600.68 253.53 613.362 235.944 629.006 235.944 644.653 235.944 657.339 253.53 657.339 275.236" fill="#FFFFFE" transform="matrix(1.00027 0 0 1 387 -66)"/><path d="M494.705 316.435C494.705 322.251 484.449 326.979 471.795 326.979 459.133 326.979 448.874 322.251 448.874 316.435 448.874 310.624 459.133 305.908 471.795 305.908 484.449 305.908 494.705 310.624 494.705 316.435" fill="#EC9896" transform="matrix(1.00027 0 0 1 387 -66)"/><path d="M689.397 316.435C689.397 322.251 679.126 326.979 666.468 326.979 653.81 326.979 643.542 322.251 643.542 316.435 643.542 310.624 653.81 305.908 666.468 305.908 679.126 305.908 689.397 310.624 689.397 316.435" fill="#EC9896" transform="matrix(1.00027 0 0 1 387 -66)"/><path d="M440.492 315.076 438.206 291.419C438.206 291.419 431.779 276.747 421.903 274.485 409.177 271.567 408.913 291.159 417.658 302.227 431.036 319.173 440.492 315.076 440.492 315.076" fill="#CF957E" transform="matrix(1.00027 0 0 1 387 -66)"/><path d="M699.505 315.076 701.8 291.419C701.8 291.419 708.222 276.747 718.099 274.485 730.824 271.567 731.08 291.159 722.343 302.227 708.97 319.173 699.505 315.076 699.505 315.076" fill="#CF957E" transform="matrix(1.00027 0 0 1 387 -66)"/><path d="M513.994 245.492C520.56 245.492 526.811 246.763 532.579 248.977 527.399 240.948 519.889 235.864 511.492 235.864 502.027 235.864 493.674 242.322 488.514 252.219 496.04 247.958 504.717 245.492 513.994 245.492" fill="#D2E0EB" transform="matrix(1.00027 0 0 1 387 -66)"/><path d="M626.703 245.572C620.129 245.572 613.874 246.831 608.114 249.057 613.29 241.028 620.812 235.944 629.186 235.944 638.666 235.944 647.015 242.402 652.159 252.307 644.653 248.034 635.98 245.572 626.703 245.572" fill="#D2E0EB" transform="matrix(1.00027 0 0 1 387 -66)"/><path d="M446.851 125.292C498.546 141.887 528.678 141.147 547.922 138.605 560.856 136.919 554.046 132.494 548.146 131.511 487.571 121.355 469.485 99.1049 469.485 99.1049L446.851 125.292" fill="#9B7B6D" transform="matrix(1.00027 0 0 1 387 -66)"/><path d="M408.034 257.974C408.034 257.974 391.196 198.809 428.098 136.131 489.757 31.4229 638.498 42.1863 661.66 90.8395 661.66 90.8395 765.729 98.949 733.163 261.583M428.578 331.963C432.475 349.469 438.941 387.531 427.311 408.13 427.311 408.13 456.048 402.551 459.297 393.841 459.297 393.841 465.596 406.344 501.488 408.358M721.844 326.419C719.865 346.319 712.851 400.352 694.414 414.965L685.968 382.666C685.968 382.666 676.939 408.114 631.672 410.124M528.57 208.106C515.916 194.94 489.109 196.895 481.16 212.354M609.957 208.106C622.075 196.251 649.425 196.895 657.371 212.354" stroke="#1A1919" stroke-width="5.59553" stroke-linecap="round" stroke-linejoin="round" fill="none" transform="matrix(1.00027 0 0 1 387 -66)"/><path d="M536.731 252.382C524.845 225.732 475.033 225.616 482.139 288.478" stroke="#1A1919" stroke-width="6.39489" stroke-linecap="round" stroke-linejoin="round" fill="none" transform="matrix(1.00027 0 0 1 387 -66)"/><path d="M436.835 266.475C436.835 266.475 428.933 251.811 414.049 256.259 383.034 265.524 392.986 329.825 444.249 335.368M415.348 273.346C415.348 273.346 425.58 266.675 438.122 292.902" stroke="#1A1919" stroke-width="5.59553" stroke-linecap="round" stroke-linejoin="round" fill="none" transform="matrix(1.00027 0 0 1 387 -66)"/><path d="M602.607 255.04C612.331 225.876 665.541 223.729 658.214 288.55" stroke="#1A1919" stroke-width="6.39489" stroke-linecap="round" stroke-linejoin="round" fill="none" transform="matrix(1.00027 0 0 1 387 -66)"/><path d="M701.336 266.723C701.336 266.723 709.242 252.055 724.102 256.499 755.137 265.772 746.896 330.06 694.829 335.62M723.254 273.833C723.254 273.833 713.047 267.171 700.485 293.394M569.014 321.771 569.014 314.293" stroke="#1A1919" stroke-width="5.59553" stroke-linecap="round" stroke-linejoin="round" fill="none" transform="matrix(1.00027 0 0 1 387 -66)"/><path d="M535.42 280.828C535.42 295.604 527.591 307.586 517.942 307.586 508.302 307.586 500.472 295.604 500.472 280.828 500.472 266.044 508.302 254.057 517.942 254.057 527.591 254.057 535.42 266.044 535.42 280.828" fill="#1A1919" transform="matrix(1.00027 0 0 1 387 -66)"/><path d="M604.605 280.904C604.605 295.688 612.423 307.666 622.067 307.666 631.728 307.666 639.549 295.688 639.549 280.904 639.549 266.123 631.728 254.133 622.067 254.133 612.423 254.133 604.605 266.123 604.605 280.904" fill="#1A1919" transform="matrix(1.00027 0 0 1 387 -66)"/><path d="M535.109 271.867C535.109 274.896 532.803 277.35 529.949 277.35 527.095 277.35 524.793 274.896 524.793 271.867 524.793 268.833 527.095 266.375 529.949 266.375 532.803 266.375 535.109 268.833 535.109 271.867" fill="#FFFFFE" transform="matrix(1.00027 0 0 1 387 -66)"/><path d="M638.194 271.947C638.194 274.972 635.872 277.414 633.034 277.414 630.181 277.414 627.871 274.972 627.871 271.947 627.871 268.917 630.181 266.463 633.034 266.463 635.872 266.463 638.194 268.917 638.194 271.947" fill="#FFFFFE" transform="matrix(1.00027 0 0 1 387 -66)"/><path d="M438.214 248.53C473.606 129.577 629.473 153.421 629.473 153.421L646.708 130.128 640.461 156.691C640.461 156.691 690.393 187.974 700.061 252.626 701.288 277.462 700.317 317.147 689.07 349.333 668.023 409.549 600.892 423.198 569.014 423.198 537.151 423.198 470.013 409.549 448.973 349.333 437.095 315.308 436.675 272.918 438.214 248.53Z" stroke="#1A1919" stroke-width="5.59553" stroke-linecap="round" stroke-linejoin="round" fill="none" transform="matrix(1.00027 0 0 1 387 -66)"/><path d="M700.609 152.782C705.473 157.274 694.613 176.983 682.887 189.693 671.148 202.402 667.655 198.274 662.803 193.785 657.931 189.293 653.534 186.147 665.261 173.43 676.991 160.72 695.74 148.298 700.609 152.782" fill="#E05652" transform="matrix(1.00027 0 0 1 387 -66)"/><path d="M700.609 152.782C705.473 157.274 694.613 176.983 682.887 189.693 671.148 202.402 667.655 198.274 662.803 193.785 657.931 189.293 653.534 186.147 665.261 173.43 676.991 160.72 695.74 148.298 700.609 152.782ZM469.193 266.087 480.292 270.244M670.477 266.087 659.381 270.244M130.068 333.506C137.13 346.06 151.427 360.612 179.768 360.612 209.101 360.612 223.382 345.024 230.172 332.203M524.581 353.961C532.251 366.431 545.68 378.518 568.914 378.518 593.074 378.518 606.636 365.444 614.134 352.463" stroke="#1A1919" stroke-width="5.59553" stroke-linecap="round" stroke-linejoin="round" fill="none" transform="matrix(1.00027 0 0 1 387 -66)"/></g></g></g><g clip-path="url(#clip4)"><g clip-path="url(#clip5)"><g clip-path="url(#clip6)"><path d="M252.337 413.746C252.337 413.746 259.227 419.502 261.41 422.71 281.93 429.357 322.255 443.177 337.473 453.797 348.859 461.736 358.904 468.573 349.665 548.407 347.878 563.762 342.649 602.852 334.958 613.112 329.911 619.836 319.983 626.284 309.059 626.284L307.783 654.289 133 654.289 129.431 629.346C115.145 629.346 105.546 618.159 105.546 618.159 88.3194 605.55 85.0062 526.06 84.5363 498.753 84.1191 474.381 96.3311 456.879 103.525 452.339 114.092 445.652 157.727 430.13 178.883 422.787 182.885 411.936 199.52 406.281 199.52 406.281L237.537 406.281 252.337 413.746" fill="#6AC7E5" transform="matrix(1 0 0 1.00138 348 -70.0639)"/><path d="M201.581 403.171 200.577 414.864 195.165 416.152C195.165 416.152 191.151 425.233 192.63 432.702 196.336 436.202 214.498 438.349 219.039 438.349 225.288 438.349 245.946 429.357 245.946 429.357L243.183 417.999 237.233 413.52 236.387 402.506" fill="#F8D2B5" transform="matrix(1 0 0 1.00138 348 -70.0639)"/><path d="M201.091 394.531 236.901 394.531 237.209 411.956C237.209 411.956 228.043 432.536 192.302 429.02L193.93 417.991 199.945 415.14 201.091 394.531" fill="#CF957E" transform="matrix(1 0 0 1.00138 348 -70.0639)"/><path d="M170.851 439.957C151.939 444.412 109.766 456.175 97.6354 472.793 85.0224 490.097 96.72 604.282 96.72 604.282 96.72 604.282 86.2861 540.759 85.3707 507.153 84.5363 476.062 87.0354 465.053 100.503 453.797 113.967 442.529 152.656 429.073 176.177 424.869L182.885 416.225 189.637 413.629 195.165 415.371C195.165 415.371 176.497 432.289 170.851 439.957" fill="#D9EFF6" transform="matrix(1 0 0 1.00138 348 -70.0639)"/><path d="M261.26 424.687C333.568 445.967 341.977 456.474 345.898 467.115 347.854 472.437 350.122 480.104 348.867 479.541 347.83 473.356 339.927 463.271 325.22 456.551 317.901 453.202 284.283 441.666 266.72 438.381 265.768 433.889 261.26 424.687 261.26 424.687" fill="#D9EFF6" transform="matrix(1 0 0 1.00138 348 -70.0639)"/><path d="M131.023 560.25 132.68 568.59 134.13 569.157C135.952 569.728 137.897 570.623 139.93 571.968 139.93 571.968 160.449 571.239 170.357 569.554L171.146 567.869C171.195 567.063 171.28 566.2 171.406 565.289 173.01 553.891 178.988 545.79 186.437 541.922L187.98 540.82C187.98 540.82 175.671 533.092 166.488 534.048 157.318 535.024 138.719 543.716 130.752 559.169L131.023 560.25" fill="#F7CCAA" transform="matrix(1 0 0 1.00138 348 -70.0639)"/><path d="M295.762 567.966C298.609 566.484 301.971 564.365 304.049 561.793 304.049 561.793 322.871 566.787 329.984 562.117 337.088 557.443 323.75 552.631 323.75 552.631 323.75 552.631 331.685 553.275 333.986 549.452 337.096 544.312 323.94 540.917 323.94 540.917 323.94 540.917 333.536 536.503 326.865 532.727 319.935 528.815 306.337 522.942 291.108 526.202 276.052 529.439 261.491 546.438 255.658 553.992 255.658 553.992 295.523 567.585 295.762 567.966" fill="#F7CCAA" transform="matrix(1 0 0 1.00138 348 -70.0639)"/><path d="M257.226 555.973 214.579 540.63C214.579 540.63 195.672 540.427 190.212 550.298L200.5 618.159 231.87 607.527 239.724 610.597 257.226 555.973" fill="#6AC7E5" transform="matrix(1 0 0 1.00138 348 -70.0639)"/><path d="M115.911 575.014C115.911 575.014 120.391 568.574 127.39 568.574 134.393 568.574 139.93 571.968 139.93 571.968L170.357 569.554 171.649 577.258 135.515 580.899C135.515 580.899 127.39 568.582 115.911 575.014" fill="#D9EFF6" transform="matrix(1 0 0 1.00138 348 -70.0639)"/><path d="M175.995 423.67C159.003 429.219 133.842 437.648 125.113 440.629 113.938 444.449 91.179 452.74 85.8203 474.539 79.0075 502.297 87.5539 569.801 92.4306 597.076 94.9338 611.111 108.989 635.065 149.906 628.735 190.062 622.517 227.472 605.748 227.472 605.748M263.468 424.869C278.981 429.924 298.087 436.255 305.815 438.904 316.994 442.727 342.167 450.192 347.522 472.004 354.339 499.773 345.614 567.18 340.758 594.46 338.242 608.491 330.142 629.273 285.648 622.465 245.48 616.3 175.124 580.899 175.124 580.899 175.124 580.899 171.738 575.014 172.645 566.881 174.383 551.327 190.949 537.491 205.709 541.509L299.533 570.133" stroke="#1A1919" stroke-width="5.67059" stroke-linecap="round" stroke-linejoin="round" fill="none" transform="matrix(1 0 0 1.00138 348 -70.0639)"/><path d="M195.7 590.693C195.7 590.693 189.904 582.75 191.557 574.734 195.7 554.62 210.322 543.4 225.082 547.418" stroke="#1A1919" stroke-width="4.05042" stroke-linecap="round" stroke-linejoin="round" fill="none" transform="matrix(1 0 0 1.00138 348 -70.0639)"/><path d="M190.212 543.052C190.212 543.052 173.621 532.634 164.358 533.606 155.103 534.579 136.353 543.344 128.317 558.93M114.68 499.004 130.262 568.432M320.745 496.545 312.506 527.114M114.68 573.548C114.68 573.548 123.935 562.83 137.573 571.85 137.573 571.85 161.66 571.065 171.649 569.364M293.615 568.067C296.479 566.589 299.873 564.458 301.971 561.858 301.971 561.858 320.939 566.897 328.108 562.19 335.282 557.467 321.826 552.615 321.826 552.615 321.826 552.615 329.826 553.267 332.151 549.419 335.29 544.231 322.017 540.812 322.017 540.812 322.017 540.812 331.701 536.361 324.965 532.545 317.99 528.6 304.272 522.674 288.908 525.971 273.363 529.313 258.968 546.685 253.382 553.992M321.826 552.615C321.826 552.615 311.145 547.831 305.333 548.038 294.478 548.423 286.94 554.62 286.94 554.62M322.017 540.812C322.017 540.812 308.298 536.195 302.024 535.931 296.061 535.705 288.673 536.13 279.463 544.206M130.262 630.051 131.161 653.333M309.059 626.284 309.436 653.333" stroke="#1A1919" stroke-width="5.67059" stroke-linecap="round" stroke-linejoin="round" fill="none" transform="matrix(1 0 0 1.00138 348 -70.0639)"/><path d="M191.557 431.528C191.557 431.528 220.861 448.288 246.274 429.397L243.527 445.599 218.905 479.541 194.278 445.599 191.557 431.528" fill="#FFF691" transform="matrix(1 0 0 1.00138 348 -70.0639)"/><path d="M201.926 403.207 200.22 420.664M200.22 412.458C200.22 412.458 191.516 415.132 191.516 430.495 191.516 438.191 194.278 445.599 194.278 445.599L165.496 482.976C165.496 482.976 170.227 442.209 171.491 436.052 173.686 425.399 182.67 416.152 185.234 413.949 192.828 407.436 200.265 406.281 200.265 406.281M235.88 403.207 237.581 420.664M237.581 412.458C237.581 412.458 246.29 415.132 246.29 430.495 246.29 438.191 243.527 445.599 243.527 445.599L272.306 482.976C272.306 482.976 267.587 442.209 266.315 436.052 264.116 425.399 255.136 416.152 252.572 413.949 244.978 407.436 237.537 406.281 237.537 406.281M243.527 445.599 218.905 479.541 194.278 445.599" stroke="#1A1919" stroke-width="5.67059" stroke-linecap="round" stroke-linejoin="round" fill="none" transform="matrix(1 0 0 1.00138 348 -70.0639)"/><path d="M195.7 445.793C195.7 445.793 220.566 460.01 242.122 443.983" stroke="#1A1919" stroke-width="4.05042" stroke-linecap="round" stroke-linejoin="round" fill="none" transform="matrix(1 0 0 1.00138 348 -70.0639)"/><path d="M191.548 431.528C191.548 431.528 220.853 448.288 246.266 429.397" stroke="#1A1919" stroke-width="5.67059" stroke-linecap="round" stroke-linejoin="round" fill="none" transform="matrix(1 0 0 1.00138 348 -70.0639)"/><path d="M25.6513 272.824C-23.8813 160.866 39.2972 90.2717 39.2972 90.2717 21.7953 96.0152 2.83529 84.909 2.83529 84.909 52.3598 33.4808 125.288 36.7333 125.288 36.7333 116.713 30.5523 108.43 10.8227 108.43 10.8227 202.051-8.78131 248.449 46.4745 248.449 46.4745 248.449 46.4745 317.865 32.9826 351.447 116.405L333.495 117.555C333.495 117.555 350.054 151.214 345.849 205.247L343.998 219.833 37.515 289.702 25.6513 272.824" fill="#40332C" transform="matrix(1 0 0 1.00138 348 -70.0639)"/><path d="M33.0028 276.032C-6.7804 180.207 31.3746 128.325 50.367 109.949 55.8067 104.687 54.7657 102.346 52.2828 102.212 44.6478 101.811 37.2801 100.118 33.5942 97.8338 19.2557 118.803-14.4154 182.273 25.6513 272.824L33.0028 276.032" fill="#8B7165" transform="matrix(1 0 0 1.00138 348 -70.0639)"/><path d="M143.875 39.848C138.419 31.889 125.328 18.3363 125.328 18.3363 163.285 10.3853 193.476 14.7516 215.956 22.7391 192.715 10.6324 156.674 0.376689 107.652 10.6405 107.652 10.6405 115.939 30.3701 124.51 36.5469 124.51 36.5469 51.578 33.2904 2.05761 84.7267 2.05761 84.7267 19.5514 89.9841 30.204 91.6246 66.6902 47.5884 121.172 47.1388 142.344 47.4912 147.901 47.5884 146.139 43.1532 143.875 39.848" fill="#8B7165" transform="matrix(1 0 0 1.00138 348 -70.0639)"/><path d="M51.0069 278.365C51.0069 278.365 39.844 265.132 25.6513 272.824-3.94511 288.864 19.8754 352.184 73.2316 346.89" fill="#F8D2B5" transform="matrix(1 0 0 1.00138 348 -70.0639)"/><path d="M320.226 222.255C320.226 222.255 325.143 205.652 341.232 206.997 374.777 209.828 380.091 277.012 328.283 293.749" fill="#F8D2B5" transform="matrix(1 0 0 1.00138 348 -70.0639)"/><path d="M146.71 156.593C139.415 170.093 132.955 190.098 132.955 190.098 206.758 175.169 231.684 117.968 231.684 117.968 231.684 117.968 245.528 151.802 280.512 169.952L281.16 153.175C281.16 153.175 304.045 168.145 315.929 208.192 322.474 233.203 329.935 273.788 325.35 308.942 316.771 374.704 251.357 402.895 218.921 409.688 186.489 416.472 115.255 416.898 81.0206 360.103 61.6636 328.015 52.2221 284.967 48.5929 259.81 42.7765 196.336 93.1516 168.809 93.1516 168.809L81.539 197.75C107.62 190.73 145.329 157.367 145.329 157.367L146.71 156.593" fill="#F8D2B5" transform="matrix(1 0 0 1.00138 348 -70.0639)"/><path d="M158.084 267.239C162.438 288.009 153.045 307.557 137.131 310.894 121.209 314.228 104.76 300.083 100.414 279.317 96.0638 258.542 105.457 239.011 121.379 235.67 137.293 232.34 153.738 246.468 158.084 267.239" fill="#FFFFFE" transform="matrix(1 0 0 1.00138 348 -70.0639)"/><path d="M277.689 242.276C282.039 263.051 272.658 282.598 256.736 285.931 240.806 289.261 224.373 275.129 220.023 254.358 215.669 233.576 225.053 214.044 240.984 210.703 256.91 207.369 273.335 221.501 277.689 242.276" fill="#FFFFFE" transform="matrix(1 0 0 1.00138 348 -70.0639)"/><path d="M120.549 316.885C121.788 322.798 112.351 329.785 99.4743 332.483 86.5899 335.18 75.1434 332.568 73.8999 326.646 72.6645 320.728 82.1061 313.737 94.9824 311.044 107.867 308.35 119.309 310.959 120.549 316.885" fill="#EC9896" transform="matrix(1 0 0 1.00138 348 -70.0639)"/><path d="M318.667 275.396C319.898 281.318 310.461 288.305 297.588 291.007 284.696 293.7 273.249 291.083 272.014 285.162 270.779 279.244 280.208 272.261 293.092 269.564 305.973 266.866 317.423 269.483 318.667 275.396" fill="#EC9896" transform="matrix(1 0 0 1.00138 348 -70.0639)"/><path d="M65.0862 327.051 57.7225 303.466C57.7225 303.466 48.0542 289.905 37.515 289.702 23.9461 289.439 27.8547 309.44 39.1068 318.841 56.3251 333.232 65.0862 327.051 65.0862 327.051" fill="#CF957E" transform="matrix(1 0 0 1.00138 348 -70.0639)"/><path d="M328.675 271.864 325.958 247.302C325.958 247.302 329.372 230.995 338.943 226.589 351.269 220.902 355.708 240.789 349.171 253.921 339.178 274.007 328.675 271.864 328.675 271.864" fill="#CF957E" transform="matrix(1 0 0 1.00138 348 -70.0639)"/><path d="M125.855 244.358C132.53 242.956 139.148 242.831 145.459 243.734 138.581 237.148 129.909 233.892 121.379 235.67 111.739 237.687 104.533 245.662 101.277 256.234 108.065 250.543 116.405 246.334 125.855 244.358" fill="#D2E0EB" transform="matrix(1 0 0 1.00138 348 -70.0639)"/><path d="M240.55 220.42C233.879 221.813 227.767 224.353 222.336 227.723 226.013 218.925 232.64 212.453 241.166 210.675 250.802 208.649 260.604 213.052 267.834 221.432 259.332 218.954 250 218.443 240.55 220.42" fill="#D2E0EB" transform="matrix(1 0 0 1.00138 348 -70.0639)"/><path d="M19.4542 148.468C75.9049 149.408 105.663 139.586 124.048 131.262 136.406 125.693 128.293 123.339 122.14 124.129 58.7959 132.279 34.0883 115.583 34.0883 115.583L19.4542 148.468" fill="#8B7165" transform="matrix(1 0 0 1.00138 348 -70.0639)"/><path d="M133.154 205.3C119.641 193.586 90.6079 202.318 85.8163 219.727M212.55 179.875C224.916 192.788 254.626 186.789 261.025 169.891" stroke="#1A1919" stroke-width="5.67059" stroke-linecap="round" stroke-linejoin="round" fill="none" transform="matrix(1 0 0 1.00138 348 -70.0639)"/><path d="M150.368 246.099C132.927 223.142 82.2073 233.624 102.046 292.282" stroke="#1A1919" stroke-width="6.48067" stroke-linecap="round" stroke-linejoin="round" fill="none" transform="matrix(1 0 0 1.00138 348 -70.0639)"/><path d="M51.0069 278.365C51.0069 278.365 39.844 265.132 25.6513 272.824-3.94511 288.864 19.8754 352.184 73.2316 346.89M30.6009 289.941C30.6009 289.941 39.5929 280.978 57.9453 304.984" stroke="#1A1919" stroke-width="5.67059" stroke-linecap="round" stroke-linejoin="round" fill="none" transform="matrix(1 0 0 1.00138 348 -70.0639)"/><path d="M217.949 234.621C221.987 204.623 275.712 191.228 281.241 254.84" stroke="#1A1919" stroke-width="6.48067" stroke-linecap="round" stroke-linejoin="round" fill="none" transform="matrix(1 0 0 1.00138 348 -70.0639)"/><path d="M320.226 222.255C320.226 222.255 325.143 205.652 341.232 206.997 374.777 209.828 380.091 277.012 328.283 293.749M344.059 224.831C344.059 224.831 332.228 220.217 325.042 249.583M197.296 306.406 195.696 298.787" stroke="#1A1919" stroke-width="5.67059" stroke-linecap="round" stroke-linejoin="round" fill="none" transform="matrix(1 0 0 1.00138 348 -70.0639)"/><path d="M155.52 265.379C158.485 279.532 152.928 292.663 143.109 294.721 133.291 296.774 122.934 286.972 119.969 272.82 117.004 258.668 122.562 245.536 132.38 243.479 142.198 241.421 152.555 251.223 155.52 265.379" fill="#1A1919" transform="matrix(1 0 0 1.00138 348 -70.0639)"/><path d="M221.469 251.802C224.43 265.947 234.795 275.757 244.617 273.699 254.439 271.641 259.988 258.502 257.028 244.358 254.067 230.206 243.71 220.404 233.883 222.461 224.065 224.519 218.504 237.65 221.469 251.802" fill="#1A1919" transform="matrix(1 0 0 1.00138 348 -70.0639)"/><path d="M153.414 256.865C154.021 259.774 152.162 262.609 149.262 263.213 146.366 263.824 143.523 261.969 142.911 259.069 142.303 256.161 144.167 253.321 147.067 252.718 149.959 252.11 152.81 253.969 153.414 256.865" fill="#FFFFFE" transform="matrix(1 0 0 1.00138 348 -70.0639)"/><path d="M253.856 236.067C254.464 238.971 252.6 241.81 249.7 242.418 246.804 243.029 243.965 241.174 243.353 238.262 242.75 235.37 244.609 232.514 247.501 231.907 250.401 231.299 253.248 233.162 253.856 236.067" fill="#FFFFFE" transform="matrix(1 0 0 1.00138 348 -70.0639)"/><g clip-path="url(#clip7)"><path d="M152.231 148.12C143.049 158.878 132.955 190.098 132.955 190.098 206.758 175.169 231.684 117.968 231.684 117.968 231.684 117.968 245.528 151.802 280.512 169.952L281.16 153.175C281.16 153.175 304.045 168.145 315.929 208.192 322.474 233.203 329.935 273.788 325.35 308.942 316.771 374.704 251.357 402.895 218.921 409.688 186.489 416.472 115.255 416.898 81.0206 360.103 61.6636 328.015 52.2221 284.967 48.5929 259.81 42.7765 196.336 93.1516 168.809 93.1516 168.809L81.539 197.75C107.62 190.73 145.329 157.367 145.329 157.367M25.6513 272.824C-23.8813 160.866 39.2972 90.2717 39.2972 90.2717 21.7953 96.0152 2.83529 84.909 2.83529 84.909 52.3598 33.4808 125.288 36.7333 125.288 36.7333 116.713 30.5523 108.43 10.8227 108.43 10.8227 202.051-8.78131 248.449 46.4745 248.449 46.4745 248.449 46.4745 317.865 32.9826 351.447 116.405L333.495 117.555C333.495 117.555 350.054 151.214 345.849 205.247M202.237 385.863C202.237 385.863 211.169 376.13 229.797 385.203" stroke="#1A1919" stroke-width="5.67059" stroke-linecap="round" stroke-linejoin="round" fill="none" transform="matrix(1 0 0 1.00138 348 -70.0639)"/><path d="M225.341 496.545C225.341 499.976 222.558 502.762 219.124 502.762 215.689 502.762 212.902 499.976 212.902 496.545 212.902 493.11 215.689 490.328 219.124 490.328 222.558 490.328 225.341 493.11 225.341 496.545ZM225.341 530.285C225.341 533.716 222.558 536.503 219.124 536.503 215.689 536.503 212.902 533.716 212.902 530.285 212.902 526.858 215.689 524.076 219.124 524.076 222.558 524.076 225.341 526.858 225.341 530.285Z" stroke="#1A1919" stroke-width="4.05042" fill="none" transform="matrix(1 0 0 1.00138 348 -70.0639)"/><path d="M386.037 153.989C389.821 146.496 399.047 143.34 406.682 147.192 414.184 150.975 417.27 160.34 413.483 167.837 409.777 175.197 400.558 178.352 392.911 174.496 385.272 170.644 382.331 161.353 386.037 153.989ZM476.342 109.386C470.63 120.703 463.822 122.59 457.507 124.198 451.622 125.664 445.728 127.135 439.851 128.601 428.425 131.185 426.068 135.142 424.014 138.541 422.657 140.513 418.024 148.294 408.967 143.729 402.174 140.303 401.911 134.138 404.767 128.479 409.546 119.001 419.061 112.792 429.632 110.495 434.598 109.442 450.625 106.174 452.185 105.185 454.178 104.059 456.166 102.577 457.523 99.8874 460.233 94.5125 459.135 85.0872 446.968 78.9467 435.931 73.3774 425.367 75.3257 421.365 83.2523 420.725 84.5242 418.931 90.539 418.356 91.6732 416.788 94.7879 412.098 98.0971 405.597 94.8163 395.123 89.5345 400.194 77.7195 401.911 74.3212 408.619 61.0277 427.02 47.4102 456.021 62.0362 481.21 74.7465 483.766 94.6664 476.342 109.386" fill="#73659E" transform="matrix(1 0 0 1.00138 348 -70.0639)"/></g></g></g></g><g clip-path="url(#clip8)"><g clip-path="url(#clip9)"><g clip-path="url(#clip10)"><path d="M248.23 407.011C248.23 407.011 255.007 412.673 257.155 415.829 277.34 422.368 317.01 435.963 331.979 446.41 343.18 454.22 353.061 460.945 343.973 539.48 342.216 554.585 337.072 593.039 329.505 603.132 324.54 609.746 314.774 616.089 304.028 616.089L302.773 643.638 130.835 643.638 127.324 619.102C113.271 619.102 103.828 608.096 103.828 608.096 86.8817 595.693 83.6224 517.497 83.1602 490.634 82.7498 466.659 94.7631 449.442 101.84 444.976 112.235 438.397 155.16 423.129 175.971 415.905 179.908 405.23 196.272 399.668 196.272 399.668L233.67 399.668 248.23 407.011" fill="#6AC7E5" transform="matrix(-1 0 0 1.02017 781.98 -70.3436)"/><path d="M198.3 396.608 197.312 408.111 191.989 409.378C191.989 409.378 188.04 418.311 189.494 425.659 193.14 429.101 211.006 431.213 215.473 431.213 221.621 431.213 241.942 422.368 241.942 422.368L239.225 411.195 233.371 406.788 232.539 395.954" fill="#F8D2B5" transform="matrix(-1 0 0 1.02017 781.98 -70.3436)"/><path d="M197.818 388.109 233.045 388.109 233.348 405.25C233.348 405.25 224.331 425.495 189.171 422.037L190.773 411.187 196.69 408.382 197.818 388.109" fill="#CF957E" transform="matrix(-1 0 0 1.02017 781.98 -70.3436)"/><path d="M168.07 432.795C149.466 437.178 107.98 448.749 96.0461 465.097 83.6384 482.119 95.1456 594.446 95.1456 594.446 95.1456 594.446 84.8815 531.957 83.981 498.898 83.1602 468.313 85.6187 457.483 98.8671 446.41 112.112 435.325 150.171 422.089 173.309 417.953L179.908 409.45 186.55 406.896 191.989 408.609C191.989 408.609 173.624 425.252 168.07 432.795" fill="#D9EFF6" transform="matrix(-1 0 0 1.02017 781.98 -70.3436)"/><path d="M257.007 417.773C328.138 438.708 336.41 449.044 340.267 459.511 342.192 464.747 344.423 472.289 343.188 471.735 342.168 465.651 334.394 455.73 319.926 449.119 312.726 445.824 279.655 434.476 262.378 431.245 261.442 426.826 257.007 417.773 257.007 417.773" fill="#D9EFF6" transform="matrix(-1 0 0 1.02017 781.98 -70.3436)"/><path d="M128.89 551.13 130.52 559.334 131.946 559.892C133.739 560.454 135.652 561.335 137.652 562.657 137.652 562.657 157.837 561.94 167.584 560.283L168.361 558.625C168.408 557.832 168.492 556.983 168.616 556.087 170.193 544.875 176.074 536.906 183.402 533.1L184.92 532.017C184.92 532.017 172.811 524.414 163.778 525.355 154.757 526.315 136.461 534.866 128.623 550.066L128.89 551.13" fill="#F7CCAA" transform="matrix(-1 0 0 1.02017 781.98 -70.3436)"/><path d="M290.947 558.721C293.748 557.262 297.055 555.178 299.099 552.648 299.099 552.648 317.615 557.561 324.612 552.967 331.601 548.369 318.48 543.635 318.48 543.635 318.48 543.635 326.286 544.269 328.549 540.508 331.609 535.451 318.667 532.112 318.667 532.112 318.667 532.112 328.107 527.769 321.544 524.056 314.727 520.207 301.351 514.429 286.369 517.637 271.559 520.82 257.234 537.543 251.497 544.974 251.497 544.974 290.712 558.346 290.947 558.721" fill="#F7CCAA" transform="matrix(-1 0 0 1.02017 781.98 -70.3436)"/><path d="M253.039 546.923 211.086 531.829C211.086 531.829 192.487 531.63 187.115 541.34L197.236 608.096 228.096 597.637 235.822 600.657 253.039 546.923" fill="#6AC7E5" transform="matrix(-1 0 0 1.02017 781.98 -70.3436)"/><path d="M114.024 565.654C114.024 565.654 118.431 559.318 125.316 559.318 132.205 559.318 137.652 562.657 137.652 562.657L167.584 560.283 168.855 567.861 133.309 571.443C133.309 571.443 125.316 559.326 114.024 565.654" fill="#D9EFF6" transform="matrix(-1 0 0 1.02017 781.98 -70.3436)"/><path d="M173.13 416.773C156.415 422.232 131.663 430.524 123.077 433.456 112.084 437.214 89.6948 445.37 84.4233 466.815 77.7214 494.12 86.1287 560.526 90.926 587.357 93.3884 601.163 107.215 624.728 147.466 618.5 186.968 612.384 223.769 595.888 223.769 595.888M259.179 417.953C274.44 422.925 293.234 429.153 300.837 431.759 311.834 435.52 336.598 442.864 341.865 464.32 348.571 491.638 339.988 557.948 335.211 584.783 332.737 598.586 324.768 619.03 280.998 612.332 241.484 606.268 172.273 571.443 172.273 571.443 172.273 571.443 168.942 565.654 169.835 557.653 171.544 542.352 187.841 528.741 202.36 532.694L294.657 560.852" stroke="#1A1919" stroke-width="5.57828" stroke-linecap="round" stroke-linejoin="round" fill="none" transform="matrix(-1 0 0 1.02017 781.98 -70.3436)"/><path d="M192.514 581.078C192.514 581.078 186.813 573.264 188.438 565.379 192.514 545.592 206.898 534.555 221.418 538.507" stroke="#1A1919" stroke-width="3.98449" stroke-linecap="round" stroke-linejoin="round" fill="none" transform="matrix(-1 0 0 1.02017 781.98 -70.3436)"/><path d="M187.115 534.212C187.115 534.212 170.795 523.964 161.683 524.92 152.578 525.877 134.134 534.499 126.229 549.831M112.813 490.881 128.141 559.179M315.524 488.462 307.419 518.533M112.813 564.211C112.813 564.211 121.917 553.668 135.333 562.542 135.333 562.542 159.029 561.769 168.855 560.095M288.835 558.82C291.652 557.366 294.991 555.27 297.055 552.712 297.055 552.712 315.715 557.669 322.767 553.039 329.824 548.393 316.587 543.62 316.587 543.62 316.587 543.62 324.457 544.261 326.744 540.476 329.832 535.372 316.775 532.009 316.775 532.009 316.775 532.009 326.302 527.63 319.675 523.876 312.814 519.995 299.319 514.166 284.206 517.41 268.913 520.697 254.752 537.786 249.258 544.974M316.587 543.62C316.587 543.62 306.08 538.914 300.363 539.117 289.684 539.496 282.269 545.592 282.269 545.592M316.775 532.009C316.775 532.009 303.279 527.466 297.107 527.207 291.242 526.984 283.974 527.403 274.914 535.348M128.141 619.795 129.026 642.698M304.028 616.089 304.399 642.698" stroke="#1A1919" stroke-width="5.57828" stroke-linecap="round" stroke-linejoin="round" fill="none" transform="matrix(-1 0 0 1.02017 781.98 -70.3436)"/><path d="M188.438 424.503C188.438 424.503 217.266 440.991 242.265 422.407L239.563 438.345 215.342 471.735 191.116 438.345 188.438 424.503" fill="#FFF691" transform="matrix(-1 0 0 1.02017 781.98 -70.3436)"/><path d="M198.639 396.644 196.961 413.817M196.961 405.744C196.961 405.744 188.398 408.374 188.398 423.487 188.398 431.058 191.116 438.345 191.116 438.345L162.802 475.114C162.802 475.114 167.456 435.01 168.699 428.954 170.859 418.475 179.696 409.378 182.219 407.211 189.689 400.804 197.005 399.668 197.005 399.668M232.041 396.644 233.714 413.817M233.714 405.744C233.714 405.744 242.281 408.374 242.281 423.487 242.281 431.058 239.563 438.345 239.563 438.345L267.873 475.114C267.873 475.114 263.231 435.01 261.98 428.954 259.816 418.475 250.983 409.378 248.461 407.211 240.99 400.804 233.67 399.668 233.67 399.668M239.563 438.345 215.342 471.735 191.116 438.345" stroke="#1A1919" stroke-width="5.57828" stroke-linecap="round" stroke-linejoin="round" fill="none" transform="matrix(-1 0 0 1.02017 781.98 -70.3436)"/><path d="M192.514 438.537C192.514 438.537 216.975 452.522 238.181 436.756" stroke="#1A1919" stroke-width="3.98449" stroke-linecap="round" stroke-linejoin="round" fill="none" transform="matrix(-1 0 0 1.02017 781.98 -70.3436)"/><path d="M188.43 424.503C188.43 424.503 217.258 440.991 242.257 422.407" stroke="#1A1919" stroke-width="5.57828" stroke-linecap="round" stroke-linejoin="round" fill="none" transform="matrix(-1 0 0 1.02017 781.98 -70.3436)"/><path d="M25.2338 268.383C-23.4925 158.248 38.6575 88.8023 38.6575 88.8023 21.4405 94.4523 2.78914 83.5268 2.78914 83.5268 51.5075 32.9358 123.248 36.1353 123.248 36.1353 114.813 30.055 106.665 10.6465 106.665 10.6465 198.762-8.63837 244.404 45.718 244.404 45.718 244.404 45.718 312.691 32.4457 345.726 114.51L328.067 115.642C328.067 115.642 344.355 148.753 340.219 201.906L338.398 216.254 36.9043 284.986 25.2338 268.383" fill="#40332C" transform="matrix(-1 0 0 1.02017 781.98 -70.3436)"/><path d="M32.4656 271.539C-6.67003 177.274 30.8638 126.237 49.5471 108.159 54.8983 102.983 53.8743 100.68 51.4318 100.549 43.921 100.154 36.6732 98.4885 33.0473 96.2413 18.9423 116.869-14.1808 179.306 25.2338 268.383L32.4656 271.539" fill="#8B7165" transform="matrix(-1 0 0 1.02017 781.98 -70.3436)"/><path d="M141.533 39.1994C136.166 31.3699 123.288 18.0378 123.288 18.0378 160.627 10.2162 190.327 14.5115 212.441 22.3689 189.578 10.4593 154.124 0.370557 105.9 10.4672 105.9 10.4672 114.052 29.8757 122.483 35.952 122.483 35.952 50.7385 32.7485 2.02412 83.3475 2.02412 83.3475 19.2331 88.5194 29.7123 90.1331 65.6046 46.8137 119.2 46.3715 140.027 46.7181 145.494 46.8137 143.76 42.4507 141.533 39.1994" fill="#8B7165" transform="matrix(-1 0 0 1.02017 781.98 -70.3436)"/><path d="M50.1766 273.834C50.1766 273.834 39.1954 260.817 25.2338 268.383-3.88089 284.162 19.5519 346.451 72.0395 341.243" fill="#F8D2B5" transform="matrix(-1 0 0 1.02017 781.98 -70.3436)"/><path d="M315.014 218.637C315.014 218.637 319.851 202.304 335.677 203.627 368.677 206.412 373.904 272.503 322.939 288.967" fill="#F8D2B5" transform="matrix(-1 0 0 1.02017 781.98 -70.3436)"/><path d="M144.322 154.044C137.146 167.325 130.791 187.004 130.791 187.004 203.392 172.317 227.913 116.048 227.913 116.048 227.913 116.048 241.532 149.331 275.946 167.185L276.583 150.681C276.583 150.681 299.096 165.408 310.786 204.803 317.225 229.407 324.564 269.331 320.054 303.913 311.615 368.605 247.265 396.337 215.358 403.019 183.454 409.693 113.379 410.111 79.7017 354.241 60.6598 322.676 51.372 280.329 47.8019 255.581 42.0802 193.14 91.6352 166.061 91.6352 166.061L80.2117 194.531C105.868 187.626 142.963 154.805 142.963 154.805L144.322 154.044" fill="#F8D2B5" transform="matrix(-1 0 0 1.02017 781.98 -70.3436)"/><path d="M155.511 262.888C159.794 283.321 150.554 302.55 134.899 305.833 119.236 309.113 103.055 295.199 98.7794 274.77 94.5001 254.334 103.74 235.121 119.403 231.833 135.058 228.558 151.235 242.456 155.511 262.888" fill="#FFFFFE" transform="matrix(-1 0 0 1.02017 781.98 -70.3436)"/><path d="M273.168 238.332C277.448 258.769 268.22 277.998 252.557 281.277 236.886 284.552 220.721 270.65 216.441 250.218 212.158 229.773 221.39 210.56 237.061 207.273 252.728 203.994 268.885 217.896 273.168 238.332" fill="#FFFFFE" transform="matrix(-1 0 0 1.02017 781.98 -70.3436)"/><path d="M118.586 311.726C119.806 317.544 110.522 324.417 97.855 327.071 85.1804 329.724 73.9202 327.154 72.697 321.329 71.4817 315.508 80.7695 308.63 93.4362 305.981 106.111 303.331 117.367 305.897 118.586 311.726" fill="#EC9896" transform="matrix(-1 0 0 1.02017 781.98 -70.3436)"/><path d="M313.48 270.913C314.691 276.739 305.407 283.612 292.744 286.269 280.062 288.919 268.801 286.345 267.586 280.52 266.371 274.698 275.647 267.829 288.321 265.176 300.992 262.522 312.256 265.096 313.48 270.913" fill="#EC9896" transform="matrix(-1 0 0 1.02017 781.98 -70.3436)"/><path d="M64.0267 321.727 56.7829 298.526C56.7829 298.526 47.272 285.186 36.9043 284.986 23.5563 284.727 27.4013 304.403 38.4702 313.651 55.4083 327.808 64.0267 321.727 64.0267 321.727" fill="#CF957E" transform="matrix(-1 0 0 1.02017 781.98 -70.3436)"/><path d="M323.325 267.439 320.652 243.277C320.652 243.277 324.011 227.235 333.426 222.9 345.551 217.306 349.918 236.87 343.487 249.788 333.657 269.547 323.325 267.439 323.325 267.439" fill="#CF957E" transform="matrix(-1 0 0 1.02017 781.98 -70.3436)"/><path d="M123.806 240.38C130.372 239.001 136.883 238.878 143.091 239.767 136.325 233.288 127.794 230.084 119.403 231.833 109.92 233.818 102.832 241.663 99.6281 252.063 106.306 246.464 114.51 242.325 123.806 240.38" fill="#D2E0EB" transform="matrix(-1 0 0 1.02017 781.98 -70.3436)"/><path d="M236.635 216.832C230.072 218.202 224.06 220.701 218.716 224.016 222.334 215.362 228.853 208.994 237.24 207.245 246.719 205.253 256.362 209.584 263.474 217.828 255.111 215.389 245.93 214.887 236.635 216.832" fill="#D2E0EB" transform="matrix(-1 0 0 1.02017 781.98 -70.3436)"/><path d="M19.1375 146.051C74.6693 146.976 103.943 137.313 122.029 129.125 134.186 123.647 126.205 121.332 120.152 122.109 57.8388 130.125 33.5334 113.701 33.5334 113.701L19.1375 146.051" fill="#8B7165" transform="matrix(-1 0 0 1.02017 781.98 -70.3436)"/><path d="M130.986 201.958C117.694 190.435 89.133 199.025 84.4193 216.15M209.09 176.947C221.255 189.65 250.481 183.749 256.776 167.125" stroke="#1A1919" stroke-width="5.57828" stroke-linecap="round" stroke-linejoin="round" fill="none" transform="matrix(-1 0 0 1.02017 781.98 -70.3436)"/><path d="M147.92 242.093C130.763 219.509 80.8691 229.821 100.385 287.525" stroke="#1A1919" stroke-width="6.37518" stroke-linecap="round" stroke-linejoin="round" fill="none" transform="matrix(-1 0 0 1.02017 781.98 -70.3436)"/><path d="M50.1766 273.834C50.1766 273.834 39.1954 260.817 25.2338 268.383-3.88089 284.162 19.5519 346.451 72.0395 341.243M30.1028 285.222C30.1028 285.222 38.9484 276.404 57.0021 300.02" stroke="#1A1919" stroke-width="5.57828" stroke-linecap="round" stroke-linejoin="round" fill="none" transform="matrix(-1 0 0 1.02017 781.98 -70.3436)"/><path d="M214.401 230.801C218.374 201.292 271.224 188.116 276.663 250.692" stroke="#1A1919" stroke-width="6.37518" stroke-linecap="round" stroke-linejoin="round" fill="none" transform="matrix(-1 0 0 1.02017 781.98 -70.3436)"/><path d="M315.014 218.637C315.014 218.637 319.851 202.304 335.677 203.627 368.677 206.412 373.904 272.503 322.939 288.967M338.458 221.171C338.458 221.171 326.82 216.633 319.751 245.52M194.084 301.418 192.51 293.924" stroke="#1A1919" stroke-width="5.57828" stroke-linecap="round" stroke-linejoin="round" fill="none" transform="matrix(-1 0 0 1.02017 781.98 -70.3436)"/><path d="M152.988 261.06C155.905 274.981 150.438 287.899 140.78 289.923 131.121 291.943 120.933 282.301 118.017 268.379 115.1 254.457 120.567 241.54 130.225 239.515 139.883 237.491 150.072 247.134 152.988 261.06" fill="#1A1919" transform="matrix(-1 0 0 1.02017 781.98 -70.3436)"/><path d="M217.864 247.704C220.776 261.617 230.973 271.268 240.635 269.244 250.298 267.22 255.756 254.294 252.844 240.38 249.931 226.458 239.743 216.816 230.076 218.84 220.418 220.864 214.947 233.782 217.864 247.704" fill="#1A1919" transform="matrix(-1 0 0 1.02017 781.98 -70.3436)"/><path d="M150.916 252.684C151.514 255.545 149.685 258.334 146.832 258.928 143.983 259.53 141.186 257.705 140.585 254.852 139.987 251.991 141.82 249.198 144.673 248.604 147.518 248.006 150.323 249.835 150.916 252.684" fill="#FFFFFE" transform="matrix(-1 0 0 1.02017 781.98 -70.3436)"/><path d="M249.724 232.224C250.321 235.081 248.489 237.874 245.636 238.472 242.787 239.073 239.994 237.248 239.392 234.383 238.798 231.539 240.627 228.729 243.472 228.132 246.325 227.534 249.126 229.367 249.724 232.224" fill="#FFFFFE" transform="matrix(-1 0 0 1.02017 781.98 -70.3436)"/><g clip-path="url(#clip11)"><path d="M149.753 145.709C140.72 156.292 130.791 187.004 130.791 187.004 203.392 172.317 227.913 116.048 227.913 116.048 227.913 116.048 241.532 149.331 275.946 167.185L276.583 150.681C276.583 150.681 299.096 165.408 310.786 204.803 317.225 229.407 324.564 269.331 320.054 303.913 311.615 368.605 247.265 396.337 215.358 403.019 183.454 409.693 113.379 410.111 79.7017 354.241 60.6598 322.676 51.372 280.329 47.8019 255.581 42.0802 193.14 91.6352 166.061 91.6352 166.061L80.2117 194.531C105.868 187.626 142.963 154.805 142.963 154.805M25.2338 268.383C-23.4925 158.248 38.6575 88.8023 38.6575 88.8023 21.4405 94.4523 2.78914 83.5268 2.78914 83.5268 51.5075 32.9358 123.248 36.1353 123.248 36.1353 114.813 30.055 106.665 10.6465 106.665 10.6465 198.762-8.63837 244.404 45.718 244.404 45.718 244.404 45.718 312.691 32.4457 345.726 114.51L328.067 115.642C328.067 115.642 344.355 148.753 340.219 201.906M198.945 379.582C198.945 379.582 207.731 370.007 226.056 378.933" stroke="#1A1919" stroke-width="5.57828" stroke-linecap="round" stroke-linejoin="round" fill="none" transform="matrix(-1 0 0 1.02017 781.98 -70.3436)"/><path d="M221.673 488.462C221.673 491.837 218.936 494.578 215.557 494.578 212.178 494.578 209.437 491.837 209.437 488.462 209.437 485.083 212.178 482.346 215.557 482.346 218.936 482.346 221.673 485.083 221.673 488.462ZM221.673 521.653C221.673 525.028 218.936 527.769 215.557 527.769 212.178 527.769 209.437 525.028 209.437 521.653 209.437 518.282 212.178 515.545 215.557 515.545 218.936 515.545 221.673 518.282 221.673 521.653Z" stroke="#1A1919" stroke-width="3.98449" fill="none" transform="matrix(-1 0 0 1.02017 781.98 -70.3436)"/><path d="M379.754 151.482C383.475 144.111 392.552 141.007 400.062 144.796 407.442 148.518 410.478 157.73 406.752 165.105 403.107 172.345 394.038 175.449 386.515 171.656 379 167.866 376.108 158.726 379.754 151.482ZM468.588 107.605C462.97 118.738 456.272 120.594 450.06 122.176 444.27 123.619 438.473 125.065 432.691 126.507 421.451 129.05 419.132 132.942 417.112 136.285 415.777 138.226 411.219 145.88 402.31 141.39 395.628 138.019 395.369 131.954 398.178 126.388 402.879 117.064 412.239 110.956 422.639 108.697 427.523 107.661 443.29 104.445 444.824 103.473 446.785 102.365 448.741 100.907 450.076 98.2614 452.741 92.974 451.662 83.7021 439.692 77.6616 428.834 72.183 418.443 74.0995 414.506 81.8971 413.877 83.1483 412.112 89.0652 411.546 90.1809 410.004 93.245 405.39 96.5003 398.995 93.2729 388.691 88.0771 393.679 76.4543 395.369 73.1114 401.967 60.0343 420.069 46.6384 448.597 61.0264 473.377 73.5297 475.891 93.1254 468.588 107.605" fill="#73659E" transform="matrix(-1 0 0 1.02017 781.98 -70.3436)"/></g></g></g></g><g clip-path="url(#clip12)"><g clip-path="url(#clip13)"><path d="M409.653 463.342C409.653 463.342 365.514 451.074 339.109 442.879 339.109 442.879 327.15 430.083 321.966 428.127L271.899 425.163C268.076 426.603 252.168 441.171 252.168 441.171 225.503 449.696 179.803 463.342 179.803 463.342L121.059 574.482 180.988 546.741 186.486 688.327 402.832 688.327 406.671 544.212 463.895 573.523 409.653 463.342" fill="#6AC7E5" transform="matrix(1.00599 0 0 1 271.364 -93.6191)"/><path d="M276.082 422.968 275.022 435.304 269.319 436.661C269.319 436.661 265.086 446.246 266.639 454.122 270.546 457.815 289.712 460.076 294.506 460.076 301.093 460.076 322.883 450.592 322.883 450.592L319.973 438.612 313.696 433.885 312.805 422.269" fill="#F8D2B5" transform="matrix(1.00599 0 0 1 271.364 -93.6191)"/><path d="M275.567 413.857 313.345 413.857 313.667 432.239C313.667 432.239 303.999 453.946 266.296 450.236L268.017 438.604 274.361 435.593 275.567 413.857" fill="#CF957E" transform="matrix(1.00599 0 0 1 271.364 -93.6191)"/><path d="M265.145 452.841C265.145 452.841 296.064 470.524 322.867 450.592L319.973 467.685 293.995 503.49 268.017 467.685 265.145 452.841" fill="#FFF691" transform="matrix(1.00599 0 0 1 271.364 -93.6191)"/><path d="M64.1705 397.932C57.8267 403.02 48.556 401.998 43.4768 395.655 38.3934 389.315 39.4235 380.044 45.7673 374.961 52.1111 369.882 92.774 356.172 92.774 356.172 92.774 356.172 70.5143 392.853 64.1705 397.932" fill="#FFFFFE" transform="matrix(1.00599 0 0 1 271.364 -93.6191)"/><path d="M64.1705 397.932C57.8267 403.02 48.556 401.998 43.4768 395.655 38.3934 389.315 39.4235 380.044 45.7673 374.961 52.1111 369.882 92.774 356.172 92.774 356.172 92.774 356.172 70.5143 392.853 64.1705 397.932Z" stroke="#1A1919" stroke-width="5.02477" stroke-linecap="round" stroke-linejoin="round" fill="none" transform="matrix(1.00599 0 0 1 271.364 -93.6191)"/><path d="M13.3073 251.858C5.46863 249.689 0.875148 241.574 3.05255 233.744 5.22576 225.914 13.345 221.324 21.1794 223.502 29.0055 225.671 63.9109 250.636 63.9109 250.636 63.9109 250.636 21.1375 254.04 13.3073 251.858" fill="#FFFFFE" transform="matrix(1.00599 0 0 1 271.364 -93.6191)"/><path d="M13.3073 251.858C5.46863 249.689 0.875148 241.574 3.05255 233.744 5.22576 225.914 13.345 221.324 21.1794 223.502 29.0055 225.671 63.9109 250.636 63.9109 250.636 63.9109 250.636 21.1375 254.04 13.3073 251.858Z" stroke="#1A1919" stroke-width="5.02477" stroke-linecap="round" stroke-linejoin="round" fill="none" transform="matrix(1.00599 0 0 1 271.364 -93.6191)"/><path d="M524.913 397.932C531.261 403.02 540.527 401.998 545.606 395.655 550.69 389.315 549.664 380.044 543.316 374.961 536.976 369.882 496.313 356.172 496.313 356.172 496.313 356.172 518.573 392.853 524.913 397.932" fill="#FFFFFE" transform="matrix(1.00599 0 0 1 271.364 -93.6191)"/><path d="M524.913 397.932C531.261 403.02 540.527 401.998 545.606 395.655 550.69 389.315 549.664 380.044 543.316 374.961 536.976 369.882 496.313 356.172 496.313 356.172 496.313 356.172 518.573 392.853 524.913 397.932Z" stroke="#1A1919" stroke-width="5.02477" stroke-linecap="round" stroke-linejoin="round" fill="none" transform="matrix(1.00599 0 0 1 271.364 -93.6191)"/><path d="M575.776 251.858C583.615 249.689 588.208 241.574 586.039 233.744 583.862 225.914 575.742 221.324 567.904 223.502 560.078 225.671 525.172 250.636 525.172 250.636 525.172 250.636 567.946 254.04 575.776 251.858" fill="#FFFFFE" transform="matrix(1.00599 0 0 1 271.364 -93.6191)"/><path d="M575.776 251.858C583.615 249.689 588.208 241.574 586.039 233.744 583.862 225.914 575.742 221.324 567.904 223.502 560.078 225.671 525.172 250.636 525.172 250.636 525.172 250.636 567.946 254.04 575.776 251.858Z" stroke="#1A1919" stroke-width="5.02477" stroke-linecap="round" stroke-linejoin="round" fill="none" transform="matrix(1.00599 0 0 1 271.364 -93.6191)"/><path d="M336.58 441.384C363.563 448.838 402.802 459.725 410.423 463.342M251.406 441.384C224.427 448.838 185.092 459.519 177.563 463.342 166.864 468.778 153.26 482.738 145.58 501.229M276.082 422.968 274.29 441.384M274.29 432.729C274.29 432.729 265.107 435.547 265.107 451.756 265.107 459.871 268.017 467.685 268.017 467.685L237.659 507.112C237.659 507.112 242.642 464.109 243.982 457.614 246.293 446.384 255.769 436.619 258.478 434.299 266.489 427.428 274.34 426.209 274.34 426.209M311.908 422.968 313.696 441.384M313.696 432.729C313.696 432.729 322.883 435.547 322.883 451.756 322.883 459.871 319.973 467.685 319.973 467.685L350.331 507.112C350.331 507.112 345.348 464.109 344.008 457.614 341.693 446.384 332.217 436.619 329.512 434.299 321.502 427.428 313.65 426.209 313.65 426.209M319.973 467.685 293.995 503.49 268.017 467.685M265.145 452.841C265.145 452.841 296.064 470.524 322.867 450.592" stroke="#1A1919" stroke-width="5.86223" stroke-linecap="round" stroke-linejoin="round" fill="none" transform="matrix(1.00599 0 0 1 271.364 -93.6191)"/><path d="M269.52 467.89C269.52 467.89 295.75 482.889 318.491 465.98" stroke="#1A1919" stroke-width="4.18731" stroke-linecap="round" stroke-linejoin="round" fill="none" transform="matrix(1.00599 0 0 1 271.364 -93.6191)"/><path d="M127.432 253.99C101.031 130.209 179.924 72.1599 179.924 72.1599 160.989 74.2661 144.161 59.0159 144.161 59.0159 205.17 17.4653 278.272 36.2077 278.272 36.2077 270.91 28.1387 266.702 6.41914 266.702 6.41914 365.581 6.41914 400.826 72.1599 400.826 72.1599 400.826 72.1599 473.928 73.2151 490.233 164.737L471.826 162.103C471.826 162.103 481.444 199.668 465.742 253.454L460.78 267.816 135.861 273.582 127.432 253.99" fill="#40332C" transform="matrix(1.00599 0 0 1 271.364 -93.6191)"/><path d="M134.199 258.792C114.238 153.406 163.845 108.987 186.947 94.4238 193.567 90.2449 193.006 87.6613 190.527 86.9955 182.889 84.9689 175.792 81.6986 172.542 78.6042 153.59 96.7855 106.081 153.875 127.432 253.99L134.199 258.792" fill="#8B7165" transform="matrix(1.00599 0 0 1 271.364 -93.6191)"/><path d="M297.165 43.6527C293.329 34.4448 282.966 17.9552 282.966 17.9552 323.051 17.9552 352.672 28.7668 373.734 41.6135 352.785 24.4413 318.474 6.41914 266.702 6.41914 266.702 6.41914 270.91 28.1387 278.272 36.2077 278.272 36.2077 205.17 17.4653 144.161 59.0159 144.161 59.0159 160.747 68.0396 171.181 71.9589 217.426 35.1315 272.652 46.2195 293.995 51.06 299.598 52.3372 298.756 47.4799 297.165 43.6527" fill="#8B7165" transform="matrix(1.00599 0 0 1 271.364 -93.6191)"/><path d="M151.92 264.969C151.92 264.969 143.42 249.212 127.432 253.99 94.0888 263.947 104.779 333.063 159.884 339.017" fill="#F8D2B5" transform="matrix(1.00599 0 0 1 271.364 -93.6191)"/><path d="M436.213 265.237C436.213 265.237 444.717 249.471 460.7 254.249 494.048 264.215 485.183 333.322 429.216 339.281" fill="#F8D2B5" transform="matrix(1.00599 0 0 1 271.364 -93.6191)"/><path d="M274.553 162.032C264.315 174.146 253.537 193.018 253.537 193.018 331.375 193.546 368.722 140.949 368.722 140.949 368.722 140.949 375.56 178.12 407.111 203.893L411.319 187.06C411.319 187.06 431.305 207.05 434.844 250.095 436.171 276.789 435.124 319.437 423.027 354.033 400.416 418.756 328.247 433.424 293.995 433.424 259.743 433.424 187.575 418.756 164.963 354.033 152.184 317.461 151.748 271.903 153.398 245.69 160.964 180.226 217.769 163.041 217.769 163.041L199.89 189.869C227.764 188.291 272.992 162.518 272.992 162.518L274.553 162.032" fill="#F8D2B5" transform="matrix(1.00599 0 0 1 271.364 -93.6191)"/><path d="M396.827 313.789C396.827 320.04 349.309 325.111 290.683 325.111 232.073 325.111 184.543 320.04 184.543 313.789 184.543 307.537 232.073 302.462 290.683 302.462 349.309 302.462 396.827 307.537 396.827 313.789" fill="#EC9896" transform="matrix(1.00599 0 0 1 271.364 -93.6191)"/><path d="M155.847 317.218 153.389 291.788C153.389 291.788 146.476 276.019 135.861 273.582 122.19 270.442 121.905 291.508 131.297 303.404 145.672 321.615 155.847 317.218 155.847 317.218" fill="#CF957E" transform="matrix(1.00599 0 0 1 271.364 -93.6191)"/><path d="M434.249 317.218 436.703 291.788C436.703 291.788 443.62 276.019 454.235 273.582 467.911 270.442 468.187 291.508 458.795 303.404 444.42 321.615 434.249 317.218 434.249 317.218" fill="#CF957E" transform="matrix(1.00599 0 0 1 271.364 -93.6191)"/><path d="M147.506 126.846C204.429 139.756 236.621 136.125 256.988 131.603 270.676 128.576 262.963 124.476 256.565 123.974 190.744 118.798 169.289 96.6766 169.289 96.6766L147.506 126.846" fill="#8B7165" transform="matrix(1.00599 0 0 1 271.364 -93.6191)"/><path d="M250.514 211.769C239.326 226.487 208.101 223.799 199.555 207.196M338 211.769C349.192 226.487 380.413 223.799 388.963 207.196M151.92 264.969C151.92 264.969 143.42 249.212 127.432 253.99 94.0888 263.947 104.779 333.063 159.884 339.017M128.818 272.355C128.818 272.355 139.814 265.186 153.302 293.371M436.213 265.237C436.213 265.237 444.717 249.471 460.7 254.249 494.048 264.215 485.183 333.322 429.216 339.281M459.787 272.887C459.787 272.887 448.796 265.714 435.3 293.903M293.995 324.336 293.995 316.288M281.936 154.625C270.366 163.569 253.537 193.018 253.537 193.018 331.375 193.546 368.722 140.949 368.722 140.949 368.722 140.949 375.56 178.12 407.111 203.893L411.319 187.06C411.319 187.06 431.305 207.05 434.844 250.095 436.171 276.789 435.124 319.437 423.027 354.033 400.416 418.756 328.247 433.424 293.995 433.424 259.743 433.424 187.575 418.756 164.963 354.033 152.184 317.461 151.748 271.903 153.398 245.69 160.964 180.226 217.769 163.041 217.769 163.041L199.89 189.869C227.764 188.291 272.992 162.518 272.992 162.518M127.432 253.99C101.031 130.209 179.924 72.1599 179.924 72.1599 160.989 74.2661 144.161 59.0159 144.161 59.0159 205.17 17.4653 278.272 36.2077 278.272 36.2077 270.91 28.1387 266.702 6.41914 266.702 6.41914 365.581 6.41914 400.826 72.1599 400.826 72.1599 400.826 72.1599 473.928 73.2151 490.233 164.737L471.826 162.103C471.826 162.103 481.444 199.668 465.742 253.454" stroke="#1A1919" stroke-width="5.86223" stroke-linecap="round" stroke-linejoin="round" fill="none" transform="matrix(1.00599 0 0 1 271.364 -93.6191)"/><path d="M210.584 260.296 272.77 291.005 204.441 297.91M376.385 260.296 314.207 291.005 382.527 297.91" stroke="#1A1919" stroke-width="6.69969" stroke-linecap="round" stroke-linejoin="round" fill="none" transform="matrix(1.00599 0 0 1 271.364 -93.6191)"/><path d="M220.173 370.376C236.838 358.275 263.235 370.058 289.829 369.555 317.155 369.036 348.359 360.661 364.283 372.264 390.923 391.689 363.065 418.63 341.337 410.515 315.162 400.751 281.278 396.66 248.571 410.113 220.688 421.582 198.022 386.455 220.173 370.376" fill="#E46E84" transform="matrix(1.00599 0 0 1 271.364 -93.6191)"/><path d="M220.173 370.376C236.838 358.275 263.235 370.058 289.829 369.555 317.155 369.036 348.359 360.661 364.283 372.264 390.923 391.689 363.065 418.63 341.337 410.515 315.162 400.751 281.278 396.66 248.571 410.113 220.688 421.582 198.022 386.455 220.173 370.376Z" stroke="#1A1919" stroke-width="5.02477" fill="none" transform="matrix(1.00599 0 0 1 271.364 -93.6191)"/><path d="M179.941 545.694C179.941 545.694 129.706 571.672 120.636 573.067" stroke="#1A1919" stroke-width="5.86223" stroke-linecap="round" stroke-linejoin="round" fill="none" transform="matrix(1.00599 0 0 1 271.364 -93.6191)"/><path d="M301.235 536.524C301.143 540.766 297.634 544.128 293.396 544.044 289.155 543.952 285.784 540.443 285.872 536.206 285.968 531.972 289.477 528.602 293.719 528.694 297.952 528.778 301.315 532.278 301.235 536.524ZM299.711 585.151C299.61 589.389 296.114 592.764 291.868 592.672 287.63 592.584 284.264 589.066 284.356 584.837 284.444 580.596 287.953 577.237 292.19 577.325 296.432 577.405 299.799 580.91 299.711 585.151ZM301.423 633.737C301.331 637.983 297.831 641.341 293.597 641.265 289.351 641.177 285.985 637.664 286.077 633.418 286.161 629.189 289.674 625.827 293.911 625.911 298.149 625.998 301.507 629.512 301.423 633.737Z" stroke="#1A1919" stroke-width="4.18731" fill="none" transform="matrix(1.00599 0 0 1 271.364 -93.6191)"/><path d="M179.857 533.053C179.715 533.111 186.834 687.975 186.834 687.975M406.667 533.053C406.805 533.111 401.785 687.975 401.785 687.975" stroke="#1A1919" stroke-width="5.86223" stroke-linecap="round" stroke-linejoin="round" fill="none" transform="matrix(1.00599 0 0 1 271.364 -93.6191)"/><path d="M149.005 417.78C149.005 417.78 134.002 415.389 131.641 419.694 129.266 424.011 89.2357 520.545 89.3069 533.279 89.4325 558.105 103.1 571.383 114.778 573.176 130.171 575.541 143.612 562.896 148.8 551.238 153.955 539.61 183.253 461.889 185.117 456.186 186.976 450.475 181.528 443.49 181.528 443.49L149.005 417.78" fill="#6AC7E5" transform="matrix(1.00599 0 0 1 271.364 -93.6191)"/><path d="M149.005 417.78C149.005 417.78 134.002 415.389 131.641 419.694 129.266 424.011 89.2357 520.545 89.3069 533.279 89.4325 558.105 103.1 571.383 114.778 573.176 130.171 575.541 143.612 562.896 148.8 551.238 153.955 539.61 183.253 461.889 185.117 456.186 186.976 450.475 181.528 443.49 181.528 443.49L149.005 417.78Z" stroke="#1A1919" stroke-width="5.86223" stroke-linecap="round" stroke-linejoin="round" fill="none" transform="matrix(1.00599 0 0 1 271.364 -93.6191)"/><path d="M121.239 442.393C121.239 442.393 129.036 481.746 175.239 480.938" stroke="#1A1919" stroke-width="4.18731" stroke-linecap="round" stroke-linejoin="round" fill="none" transform="matrix(1.00599 0 0 1 271.364 -93.6191)"/><path d="M140.706 422.499 146.455 405.411C146.455 405.411 149.031 379.027 161.056 351.123 169.749 330.89 205.995 327.096 222.12 346.701 226.852 352.454 245.422 389.872 235.641 407.505 224.369 427.83 214.466 423.002 204.512 418.542 204.512 418.542 202.054 436.648 181.302 438.847L175.842 454.955C175.842 454.955 151.283 450.956 140.706 422.499" fill="#F8D2B5" transform="matrix(1.00599 0 0 1 271.364 -93.6191)"/><path d="M140.706 422.499 146.455 405.411C146.455 405.411 149.031 379.027 161.056 351.123 169.749 330.89 205.995 327.096 222.12 346.701 226.852 352.454 245.422 389.872 235.641 407.505 224.369 427.83 214.466 423.002 204.512 418.542 204.512 418.542 202.054 436.648 181.302 438.847L175.842 454.955C175.842 454.955 151.283 450.956 140.706 422.499Z" stroke="#1A1919" stroke-width="5.86223" stroke-linecap="round" stroke-linejoin="round" fill="none" transform="matrix(1.00599 0 0 1 271.364 -93.6191)"/><path d="M237.747 391.451C237.747 391.451 223.154 379.718 206.983 378.022M234.598 376.741C234.598 376.741 220.428 364.882 204.039 364.828M229.506 361.562C229.506 361.562 215.131 350.821 197.122 350.553M204.156 419.279C204.387 419.242 208.281 406.006 208.821 397.082 208.821 397.082 214.985 401.923 223.15 404.909" stroke="#1A1919" stroke-width="5.02477" stroke-linecap="round" stroke-linejoin="round" fill="none" transform="matrix(1.00599 0 0 1 271.364 -93.6191)"/><path d="M406.32 545.694C406.32 545.694 456.555 571.672 465.625 573.067" stroke="#1A1919" stroke-width="5.86223" stroke-linecap="round" stroke-linejoin="round" fill="none" transform="matrix(1.00599 0 0 1 271.364 -93.6191)"/><path d="M437.251 417.78C437.251 417.78 452.259 415.389 454.616 419.694 456.995 424.011 497.025 520.545 496.954 533.279 496.828 558.105 483.161 571.383 471.483 573.176 456.086 575.541 442.645 562.896 437.461 551.238 432.306 539.61 403.008 461.889 401.14 456.186 399.285 450.475 404.733 443.49 404.733 443.49L437.251 417.78" fill="#6AC7E5" transform="matrix(1.00599 0 0 1 271.364 -93.6191)"/><path d="M437.251 417.78C437.251 417.78 452.259 415.389 454.616 419.694 456.995 424.011 497.025 520.545 496.954 533.279 496.828 558.105 483.161 571.383 471.483 573.176 456.086 575.541 442.645 562.896 437.461 551.238 432.306 539.61 403.008 461.889 401.14 456.186 399.285 450.475 404.733 443.49 404.733 443.49L437.251 417.78Z" stroke="#1A1919" stroke-width="5.86223" stroke-linecap="round" stroke-linejoin="round" fill="none" transform="matrix(1.00599 0 0 1 271.364 -93.6191)"/><path d="M465.017 442.393C465.017 442.393 457.225 481.746 411.026 480.938" stroke="#1A1919" stroke-width="4.18731" stroke-linecap="round" stroke-linejoin="round" fill="none" transform="matrix(1.00599 0 0 1 271.364 -93.6191)"/><path d="M445.555 422.499 439.806 405.411C439.806 405.411 437.226 379.027 425.204 351.123 416.512 330.89 380.262 327.096 364.141 346.701 359.405 352.454 340.834 389.872 350.616 407.505 361.892 427.83 371.795 423.002 381.753 418.542 381.753 418.542 384.202 436.648 404.959 438.847L410.419 454.955C410.419 454.955 434.978 450.956 445.555 422.499" fill="#F8D2B5" transform="matrix(1.00599 0 0 1 271.364 -93.6191)"/><path d="M445.555 422.499 439.806 405.411C439.806 405.411 437.226 379.027 425.204 351.123 416.512 330.89 380.262 327.096 364.141 346.701 359.405 352.454 340.834 389.872 350.616 407.505 361.892 427.83 371.795 423.002 381.753 418.542 381.753 418.542 384.202 436.648 404.959 438.847L410.419 454.955C410.419 454.955 434.978 450.956 445.555 422.499Z" stroke="#1A1919" stroke-width="5.86223" stroke-linecap="round" stroke-linejoin="round" fill="none" transform="matrix(1.00599 0 0 1 271.364 -93.6191)"/><path d="M348.514 391.451C348.514 391.451 363.102 379.718 379.282 378.022M351.663 376.741C351.663 376.741 365.837 364.882 382.226 364.828M356.75 361.562C356.75 361.562 371.125 350.821 389.135 350.553M382.1 419.279C381.874 419.242 377.98 406.006 377.44 397.082 377.44 397.082 371.272 401.923 363.111 404.909" stroke="#1A1919" stroke-width="5.02477" stroke-linecap="round" stroke-linejoin="round" fill="none" transform="matrix(1.00599 0 0 1 271.364 -93.6191)"/></g></g><path d="M593 376 616.5 406.737" stroke="#1A1919" stroke-width="8" stroke-miterlimit="8" fill="none" fill-rule="evenodd"/><path d="M0 0 27.2739 39.0001" stroke="#1A1919" stroke-width="8" stroke-miterlimit="8" fill="none" fill-rule="evenodd" transform="matrix(-1 0 0 1 541.274 373)"/><path d="M602 338C605.683 343.531 609.367 349.062 612.2 361.395 615.033 373.729 617.017 392.864 619 412" stroke="#1A1919" stroke-width="6" stroke-miterlimit="8" fill="none" fill-rule="evenodd"/><path d="M0 0C3.6833 5.53091 7.3666 11.0618 10.2 23.3952 13.0333 35.7285 15.0167 54.8643 17 74" stroke="#1A1919" stroke-width="6" stroke-miterlimit="8" fill="none" fill-rule="evenodd" transform="matrix(-1 0 0 1 531 338)"/></g></svg>