<svg width="306" height="103" xmlns="http://www.w3.org/2000/svg" xmlns:xlink="http://www.w3.org/1999/xlink" overflow="hidden"><defs><clipPath id="clip0"><rect x="185" y="61" width="306" height="103"/></clipPath></defs><g clip-path="url(#clip0)" transform="translate(-185 -61)"><path d="M187 74.2112C187 72.4377 188.438 71 190.211 71L485.789 71C487.562 71 489 72.4377 489 74.2112L489 158.789C489 160.562 487.562 162 485.789 162L190.211 162C188.438 162 187 160.562 187 158.789Z" stroke="#0D0D0D" stroke-width="2" stroke-miterlimit="8" fill="#828282" fill-rule="evenodd"/><path d="M187 65.2112C187 63.4377 188.438 62 190.211 62L485.789 62C487.562 62 489 63.4377 489 65.2112L489 149.789C489 151.562 487.562 153 485.789 153L190.211 153C188.438 153 187 151.562 187 149.789Z" stroke="#0D0D0D" stroke-width="2" stroke-miterlimit="8" fill="#FFFFFF" fill-rule="evenodd"/></g></svg>