<svg width="117" height="192" xmlns="http://www.w3.org/2000/svg" xmlns:xlink="http://www.w3.org/1999/xlink" overflow="hidden"><defs><clipPath id="clip0"><rect x="36" y="59" width="117" height="192"/></clipPath></defs><g clip-path="url(#clip0)" transform="translate(-36 -59)"><path d="M38 71.9878C38 69.7854 39.7854 68 41.9878 68L147.012 68C149.215 68 151 69.7854 151 71.9878L151 245.012C151 247.215 149.215 249 147.012 249L41.9878 249C39.7854 249 38 247.215 38 245.012Z" stroke="#0D0D0D" stroke-width="2" stroke-miterlimit="8" fill="#828282" fill-rule="evenodd"/><path d="M38 63.9877C38 61.7854 39.7854 60 41.9877 60L147.012 60C149.215 60 151 61.7854 151 63.9877L151 238.012C151 240.215 149.215 242 147.012 242L41.9877 242C39.7854 242 38 240.215 38 238.012Z" stroke="#0D0D0D" stroke-width="2" stroke-miterlimit="8" stroke-opacity="0" fill="#FFFFFF" fill-rule="evenodd" fill-opacity="0"/></g></svg>