<svg width="94" height="103" xmlns="http://www.w3.org/2000/svg" xmlns:xlink="http://www.w3.org/1999/xlink" overflow="hidden"><defs><clipPath id="clip0"><rect x="202" y="184" width="94" height="103"/></clipPath></defs><g clip-path="url(#clip0)" transform="translate(-202 -184)"><path d="M204 197.176C204 195.422 205.422 194 207.176 194L290.824 194C292.578 194 294 195.422 294 197.176L294 281.824C294 283.578 292.578 285 290.824 285L207.176 285C205.422 285 204 283.578 204 281.824Z" stroke="#0D0D0D" stroke-width="2" stroke-miterlimit="8" fill="#828282" fill-rule="evenodd"/><path d="M204 188.176C204 186.422 205.422 185 207.176 185L290.824 185C292.578 185 294 186.422 294 188.176L294 272.824C294 274.578 292.578 276 290.824 276L207.176 276C205.422 276 204 274.578 204 272.824Z" stroke="#0D0D0D" stroke-width="2" stroke-miterlimit="8" stroke-opacity="0" fill="#FFFFFF" fill-rule="evenodd" fill-opacity="0"/></g></svg>