<?xml version="1.0" encoding="UTF-8"?>
<!DOCTYPE svg PUBLIC "-//W3C//DTD SVG 1.1//EN" "http://www.w3.org/Graphics/SVG/1.1/DTD/svg11.dtd">
<svg version="1.1" xmlns="http://www.w3.org/2000/svg" xmlns:xlink="http://www.w3.org/1999/xlink" x="0" y="0" width="973" height="1142" viewBox="0, 0, 973, 1142">
  <defs>
    <clipPath id="Clip_1">
      <path d="M-0,0.42 L972.96,0.42 L972.96,1142 L-0,1142 z"/>
    </clipPath>
  </defs>
  <g id="Layer_1">
    <g clip-path="url(#Clip_1)">
      <path d="M413.715,1136.43 C404.202,1136.58 404.173,1136.58 402.564,1127.34 C394.915,1083.4 387.285,1039.47 379.636,995.534 C379.408,994.228 379.038,992.946 378.751,991.725 C373.511,996.785 368.16,1001.69 363.103,1006.88 C329.968,1040.89 296.074,1074.1 259.047,1103.92 C244.007,1116.04 228.619,1127.74 210.868,1135.76 C198.102,1141.54 184.588,1143.11 170.847,1141.28 C156.604,1139.38 146.754,1130.8 139.651,1118.71 C130.38,1102.94 125.029,1085.61 119.951,1068.22 C103.789,1012.87 89.47,957.022 74.826,901.26 C73.271,895.34 74.495,890.48 78.111,885.893 C83.222,879.409 89.568,874.279 96.334,869.693 C98.687,868.099 99.212,866.614 98.442,863.952 C95.676,854.378 92.769,844.861 89.399,835.476 C85.112,823.539 78.301,813.326 69.804,803.946 C51.695,783.954 33.782,763.757 19.222,740.916 C10.24,726.827 2.426,712.216 0.362,695.224 C-0.895,684.874 1.057,675.325 7.231,666.869 C8.805,664.714 9.333,662.452 9.791,659.993 C12.188,647.113 17.79,636.119 28.556,628.136 C30.001,627.065 31.258,625.669 32.386,624.251 C39.711,615.044 48.247,607.176 58.275,601.015 C60.575,599.602 61.548,598.473 60.481,595.554 C48.452,562.65 37.065,529.502 22.592,497.54 C18.347,488.165 15.805,478.483 17.71,468.017 C20.731,451.422 36.095,444.666 50.053,454.018 C66.376,464.954 75.974,480.91 82.821,498.787 C91.841,522.338 96.181,547.123 101.757,571.579 C102.938,576.761 102.563,583.12 105.532,586.841 C108.467,590.519 115.2,588.345 120.199,589.442 C141.902,594.205 158.215,604.986 164.171,627.754 C164.291,628.21 164.654,628.601 165.045,629.262 C167.337,626.529 169.489,623.881 171.73,621.309 C175.154,617.38 179.174,614.111 183.764,611.694 C189.108,608.879 194.791,607.36 200.336,611.022 C205.556,614.468 206.364,619.944 205.84,625.643 C204.926,635.586 203.85,645.514 202.81,655.445 C200.684,675.736 202.565,695.883 203.839,716.164 C205.711,745.946 197.468,772.842 174.78,793.845 C173.124,795.377 172.43,796.842 172.835,799.035 C174.255,806.725 175.659,814.42 176.922,822.137 C177.36,824.816 178.56,825.12 181.011,824.599 C187.207,823.284 193.543,823.057 199.851,822.596 C204.649,822.246 206.764,824.373 207.584,828.917 C212.251,854.779 217.042,880.619 221.815,906.462 C223.92,917.857 226.082,929.242 228.296,941.048 C230.538,940.124 230.966,938.209 231.818,936.789 C257.052,894.722 283.041,853.125 308.987,811.494 C324.677,786.321 345.762,768.718 371.815,755.71 C412.34,735.475 454.375,719.061 497.319,704.88 C501.13,703.621 503.979,701.856 506.747,699.07 C520.013,685.718 534.892,674.715 552.888,668.42 C557.015,666.976 558.752,662.831 562.258,660.069 C540.224,650.881 520.339,639.024 501.729,624.888 C473.7,603.598 455.479,575.204 441.831,543.396 C436.849,531.785 432.693,519.878 429.082,507.779 C428.498,505.822 428.345,503.998 425.341,504.41 C412.138,506.217 401.669,500.257 393.625,490.892 C370.819,464.339 357.435,433.665 356.948,398.277 C356.734,382.717 361.144,368.355 372.688,356.981 C375.814,353.9 379.31,351.252 383.383,349.793 C386.673,348.614 386.384,347.003 385.485,344.392 C372.224,305.872 367.151,266.086 367.941,225.53 C368.641,189.612 382.578,158.754 405.261,131.399 C430.843,100.548 462.703,77.524 497.114,57.786 C538.749,33.904 582.701,15.736 629.915,6.184 C655.647,0.978 681.538,-2.298 707.677,3.465 C726.482,7.612 743.255,15.535 755.828,30.658 C765.037,41.734 769.938,54.419 767.818,68.983 C767.179,73.37 768.485,74.056 772.366,74.396 C806.497,77.384 833.262,93.242 852.416,121.531 C864.293,139.071 871.251,158.841 876.676,179.18 C885.226,211.23 885.219,243.667 881.218,276.312 C878.275,300.328 873.369,323.879 865.123,346.672 C864.466,348.488 864.08,349.786 866.356,351.116 C881.868,360.18 888.051,374.829 889.772,391.793 C892.155,415.282 885.191,436.849 875.321,457.682 C869.462,470.05 862.688,481.864 852.836,491.618 C844.353,500.016 834.82,505.944 822.241,504.459 C819.218,504.102 819.196,506.082 818.653,508.019 C812.174,531.148 803.492,553.355 791.447,574.221 C771.402,608.947 741.101,632.159 706.416,650.512 C701.92,652.891 697.316,655.066 692.65,657.391 C698.902,663.322 705.075,668.214 713.099,671.323 C728.988,677.479 742.004,688.254 753.771,700.451 C755.45,702.191 757.175,703.275 759.482,704.016 C803.762,718.237 848.189,732.035 890.293,752.214 C910.098,761.707 928.257,772.896 939.803,792.5 C950.164,810.092 955.888,829.285 959.791,849.102 C967.473,888.105 969.473,927.661 970.974,967.257 C973.019,1021.19 973.014,1075.16 972.979,1129.12 C972.974,1136.48 972.978,1136.48 965.788,1136.48 C965.123,1136.48 964.458,1136.49 963.794,1136.49 C962.097,1134.56 962.182,1132.17 962.23,1129.86 C962.937,1096.08 960.937,1062.34 961.196,1028.57 C961.386,1003.79 959.997,979.044 959.187,954.288 C959.084,951.136 959.74,947.975 959.024,944.849 C958.217,936.582 958.2,928.258 957.519,919.964 C954.749,886.241 951.555,852.627 940.536,820.291 C932.234,795.928 917.186,777.928 893.851,766.324 C859.709,749.346 823.969,736.661 787.882,724.763 C782.845,723.103 777.896,721.136 772.328,719.916 C772.161,721.99 773.53,723.101 774.366,724.34 C778.846,730.977 783.041,737.784 786.489,745.012 C788.916,750.1 788.095,752.529 783.126,755.243 C777.863,758.117 772.39,760.591 767.07,763.36 C762.929,765.516 762.822,766.018 766.152,769.394 C778.784,782.2 792.411,793.985 804.79,807.052 C806.05,808.381 807.326,809.703 808.67,810.945 C811.961,813.989 812.407,817.157 810.098,821.175 C803.375,832.875 796.461,844.461 789.658,856.113 C775.128,880.999 760.489,905.821 745.942,930.698 C745.449,931.54 744.734,932.306 744.851,933.483 C745.866,934.692 747.297,934.114 748.538,934.121 C756.534,934.162 764.531,934.162 772.528,934.138 C779.068,934.117 779.197,933.804 779.507,927.478 C780.135,914.641 781.891,901.96 785.392,889.558 C786.217,886.636 787.407,883.894 789.324,881.535 C793.074,876.92 799.43,877.019 803.061,881.753 C805.233,884.585 806.243,887.945 807.17,891.336 C810.528,903.608 811.72,916.219 812.814,928.819 C813.199,933.245 815.142,934.447 819.211,934.185 C829.873,933.5 840.461,935.688 851.133,935.199 C852.972,935.114 854.763,935.592 856.544,936.057 C859.539,936.838 861.114,938.676 860.928,941.824 C860.734,945.106 858.939,947.027 855.73,947.587 C853.751,947.932 851.735,947.922 849.745,947.768 C821.998,945.619 794.198,945.646 766.401,945.872 C757.426,945.946 748.482,947.352 739.474,946.74 C736.372,946.529 735.201,948.872 733.94,951.045 C725.832,965.022 717.602,978.927 709.445,992.875 C691.618,1023.36 673.701,1053.79 655.914,1084.29 C646.421,1099.81 637.423,1115.61 628.24,1131.31 C627.067,1133.32 625.967,1135.37 623.748,1136.45 C621.124,1136.45 618.5,1136.45 615.875,1136.45 C614.245,1133.76 616.611,1132.07 617.662,1130.24 C626.363,1115.08 635.32,1100.07 644.076,1084.94 C663.703,1051.46 683.346,1017.98 702.969,984.493 C734.214,931.169 765.445,877.836 796.752,824.548 C797.343,823.542 797.754,822.415 798.448,821.492 C800.805,818.352 800.185,815.845 797.336,813.29 C782.943,800.383 769.512,786.484 755.836,772.838 C746.779,763.799 747.205,761.554 758.71,756.477 C763.589,754.325 768.283,751.782 773.059,749.414 C775.429,748.238 776.195,746.676 774.813,744.192 C760.117,717.779 741.222,695.417 714.031,681.035 C713.446,680.726 712.873,680.364 712.193,680.298 C712.064,680.285 711.922,680.404 711.477,680.594 C714.024,688.271 716.074,696.121 717.051,704.211 C719.451,724.064 718.094,743.736 714.484,763.344 C710.52,784.876 703.179,805.477 697.23,826.451 C681.274,882.705 664.904,938.842 648.702,995.026 C640.071,1024.96 631.542,1054.92 622.688,1084.79 C618.674,1099.88 613.991,1114.77 609.856,1129.83 C609.061,1132.72 608.314,1135.7 604.72,1136.43 C604.113,1136.43 603.507,1136.44 602.901,1136.44 C599.065,1135.42 598.642,1132.84 599.603,1129.49 C602.126,1120.69 604.269,1111.75 607.254,1103.11 C609.076,1097.84 608.875,1093.48 605.435,1089.16 C604.403,1087.86 603.767,1086.28 602.937,1084.84 C571.104,1030.3 539.306,975.736 507.448,921.209 C488.618,888.983 469.896,856.694 451.009,824.502 C446.02,815.997 446.479,813.599 454.057,807.032 C468.056,794.901 480.363,781.04 493.736,768.271 C496.386,765.74 495.372,764.584 492.657,763.305 C487.533,760.89 482.493,758.296 477.439,755.732 C471.03,752.48 470.061,749.87 473.477,743.394 C477.672,735.441 482.179,727.653 487.833,719.717 C474.524,724.036 462.11,728.819 449.69,733.553 C428.664,741.567 407.968,750.402 387.665,760.092 C374.129,766.552 361.11,774.007 348.684,782.47 C337.815,789.873 330.271,800.209 323.115,810.901 C299.565,846.088 277.627,882.283 255.744,918.515 C249.024,929.641 242.643,940.972 235.669,951.939 C233.354,955.578 232.928,959.108 233.754,963.315 C237.606,982.935 241.261,1002.59 245.177,1022.2 C245.373,1023.18 245.594,1024.16 245.701,1025.16 C246.087,1028.73 244.286,1031 241.046,1031.87 C237.818,1032.73 235.646,1030.87 234.188,1028.15 C233.555,1026.97 233.416,1025.61 233.151,1024.3 C226.581,991.968 220.482,959.544 214.436,927.11 C214.195,925.819 214.096,924.488 213.23,922.925 C210.758,924.652 209.373,927.141 207.551,929.141 C190.481,947.887 168.399,956.155 144.044,959.7 C141.902,960.011 139.776,960.493 137.613,960.604 C133.161,960.833 130.119,958.765 129.786,955.371 C129.411,951.563 131.901,948.804 136.501,948.301 C146.814,947.172 156.925,945.132 166.694,941.625 C182.694,935.88 195.834,926.417 205,911.829 C208.514,906.235 209.949,900.6 208.382,893.816 C205.534,881.487 203.626,868.946 201.336,856.492 C201.068,855.036 200.87,853.558 200.066,851.428 C195.384,858.843 189.524,864.475 183.59,869.969 C161.843,890.107 136.765,903.894 107.361,909.231 C102.391,910.133 97.383,909.835 92.4,909.685 C89.249,909.591 88.67,910.679 89.425,913.523 C97.244,942.997 104.887,972.518 112.899,1001.94 C120.473,1029.75 127.757,1057.65 136.892,1085.01 C140.381,1095.46 144.547,1105.66 150.452,1115.01 C158.79,1128.21 171.149,1132.22 186.18,1130.86 C199.949,1129.61 211.699,1123.77 223.016,1116.47 C241.837,1104.33 258.933,1089.99 275.769,1075.31 C298.75,1055.26 320.752,1034.17 342.21,1012.53 C351.938,1002.73 361.311,992.544 371.16,982.842 C374.545,979.508 375.003,975.866 374.204,971.444 C369.045,942.916 364.241,914.326 359.214,885.774 C358.896,883.968 358.476,882.17 358.75,880.321 C359.148,877.642 360.382,875.515 363.174,874.882 C366.179,874.2 368.312,875.698 369.853,878.154 C370.856,879.754 370.97,881.619 371.279,883.424 C379.564,931.704 388.203,979.922 396.414,1028.21 C396.972,1031.5 397.858,1034.72 398.238,1038.05 C403.828,1068.76 408.936,1099.55 414.39,1130.29 C414.758,1132.36 415.504,1134.56 413.715,1136.43" fill="#2F201B"/>
    </g>
    <path d="M959.921,943.297 C961.339,959.657 961.531,976.068 961.98,992.469 C963.265,1039.33 963.35,1086.2 963.358,1133.08 C963.359,1134.22 963.642,1135.35 963.794,1136.49 C927.425,1136.47 891.057,1136.44 854.688,1136.42 C853.252,1134.62 853.826,1132.62 854.165,1130.68 C861.23,1090.26 868.216,1049.84 875.245,1009.42 C875.558,1007.62 875.922,1005.82 876.81,1004.19 C877.749,1002.57 879.436,1002.22 881.052,1001.9 C899.495,998.342 914.377,988.191 928.492,976.517 C938.148,968.532 946.508,959.292 954.934,950.091 C956.86,947.988 957.75,945.183 959.921,943.297" fill="#E2E3E3"/>
    <path d="M623.748,1136.45 C634.052,1119.06 644.357,1101.66 654.661,1084.27 C672.637,1083.8 690.546,1082.27 708.365,1080.03 C758.331,1073.73 807.043,1062.43 853.538,1042.59 C855.917,1041.58 858.273,1039.9 861.091,1041.38 C862.689,1043.69 862.01,1046.18 861.581,1048.61 C856.734,1076.07 852.118,1103.57 847.218,1131.02 C846.863,1133.01 846.444,1134.94 844.934,1136.42 C771.205,1136.43 697.477,1136.44 623.748,1136.45" fill="#E2E3E3"/>
    <path d="M413.715,1136.43 C411.223,1121.57 408.755,1106.71 406.235,1091.85 C403.16,1073.72 400.041,1055.6 396.942,1037.47 C401.65,1037.62 405.21,1040.72 409.274,1042.45 C453.071,1061.1 498.815,1072.47 545.821,1079.07 C565.08,1081.77 584.458,1083.4 603.888,1084.36 C605.911,1087.56 607.77,1090.89 610.024,1093.92 C611.248,1095.57 610.313,1096.73 609.93,1098.07 C606.959,1108.44 603.964,1118.8 600.949,1129.16 C600.12,1132.01 599.542,1134.73 602.901,1136.44 C539.839,1136.44 476.777,1136.43 413.715,1136.43" fill="#E2E3E3"/>
    <path d="M844.934,1136.42 C849.063,1112.32 853.24,1088.23 857.292,1064.12 C858.558,1056.59 860.487,1049.16 860.852,1041.49 C859.912,1039.73 860.39,1037.91 860.707,1036.12 C869.705,985.326 878.416,934.48 887.303,883.664 C887.389,883.173 887.455,882.677 887.557,882.188 C888.677,876.838 891.518,874.061 895.202,874.713 C898.815,875.353 900.824,878.965 899.916,884.376 C896.362,905.546 892.584,926.678 888.91,947.828 C886.034,964.387 883.154,980.946 880.297,997.508 C879.927,999.656 879.591,1001.79 877.99,1003.45 C872.605,1034.03 867.209,1064.61 861.839,1095.2 C859.428,1108.93 857.07,1122.68 854.688,1136.42 C851.437,1136.42 848.185,1136.42 844.934,1136.42" fill="#2F201B"/>
    <path d="M644.891,1085.51 C635.89,1101.01 626.875,1116.5 617.915,1132.03 C617.11,1133.42 615.799,1134.63 615.875,1136.45 C612.157,1136.45 608.438,1136.44 604.72,1136.43 C606.854,1135.33 607.413,1133.3 608.032,1131.17 C612.571,1115.58 617.193,1100.01 621.788,1084.44 C627.858,1085.33 633.965,1084.97 640.061,1084.98 C641.686,1084.99 643.366,1084.57 644.891,1085.51" fill="#E2E3E3"/>
    <path d="M603.888,1084.36 C601.072,1086.59 597.754,1085.58 594.777,1085.35 C580.082,1084.22 565.36,1083.16 550.747,1081.3 C534.005,1079.17 517.393,1076.12 500.877,1072.54 C471.608,1066.19 442.981,1057.79 415.263,1046.42 C408.982,1043.84 402.455,1041.67 396.942,1037.47 C391.244,1005.05 385.524,972.62 379.855,940.185 C376.447,920.687 373.103,901.177 369.766,881.666 C369.174,878.208 367.836,875.236 363.799,875.887 C359.752,876.539 359.373,879.791 359.976,883.251 C364.69,910.291 368.651,937.493 374.454,964.297 C376.915,975.662 373.592,982.369 365.976,990.129 C330.957,1025.81 295.672,1061.18 257.005,1092.96 C241.957,1105.34 226.537,1117.25 208.929,1125.91 C197.88,1131.34 186.153,1133.03 173.974,1131.86 C163.831,1130.88 156.258,1125.66 150.564,1117.43 C142.904,1106.36 138.168,1093.91 134.246,1081.21 C116.728,1024.52 102.293,966.975 87.205,909.612 C87.091,909.178 87.191,908.688 87.191,908.218 C114.759,910.893 138.31,900.171 160.77,886.267 C176.449,876.56 189.91,864.272 200.999,848.201 C203.022,858.958 204.903,868.866 206.742,878.781 C207.863,884.831 208.646,890.959 210.106,896.924 C211.006,900.603 210.497,903.74 208.955,907.021 C199.991,926.087 184.152,936.869 164.962,943.588 C155.975,946.734 146.682,948.584 137.213,949.482 C133.549,949.829 130.286,950.707 130.801,955.215 C131.279,959.412 134.545,959.727 137.988,959.311 C161.009,956.526 182.634,950.251 200.51,934.492 C205.497,930.096 209.636,924.953 214.106,918.793 C216.458,931.193 218.603,942.713 220.832,954.216 C225.419,977.883 230.095,1001.53 234.616,1025.21 C235.289,1028.73 236.591,1031.67 240.518,1031 C244.723,1030.29 244.99,1027.16 244.204,1023.29 C240.002,1002.59 236.169,981.822 231.904,961.14 C231.09,957.195 232.679,954.586 234.467,951.587 C261.048,907.022 288.498,862.996 315.844,818.898 C331.305,793.967 351.884,776.389 377.721,763.641 C413.844,745.818 451.136,730.944 489.163,717.806 C489.452,717.706 489.806,717.794 490.664,717.794 C484.654,726.524 479.139,735.242 474.395,744.421 C471.158,750.683 471.32,751.34 477.777,754.577 C484.607,758 491.434,761.428 498.939,765.193 C491.954,772.097 485.178,778.849 478.34,785.537 C469.647,794.039 461.065,802.665 452.104,810.877 C448.296,814.368 448.057,817.098 450.657,821.534 C494.112,895.699 537.412,969.955 580.719,1044.21 C588.504,1057.55 596.168,1070.97 603.888,1084.36" fill="#FEFEFE"/>
    <path d="M790.816,428.595 C798.641,420.043 797.4,409.067 798.642,398.805 C799.662,390.383 800.355,381.912 800.893,373.444 C801.099,370.19 802.277,369.213 805.448,369.414 C809.763,369.688 814.143,369.821 818.432,369.387 C822.677,368.958 823.294,370.885 823.395,374.459 C823.896,392.114 823.999,409.769 822.643,427.379 C819.793,464.388 812.333,500.382 799.378,535.282 C781.641,583.067 749.264,617.323 704.421,640.562 C685.118,650.565 665.141,658.534 643.645,662.322 C621.251,666.269 599.567,663.062 578.37,655.566 C544.002,643.413 513.128,625.451 487.833,598.952 C467.604,577.762 454.92,551.9 445.028,524.678 C430.811,485.556 423.602,445.119 423.652,403.445 C423.664,393.632 423.872,383.817 423.746,374.006 C423.704,370.739 424.306,369.354 428.057,369.38 C439.974,369.464 439.853,369.3 440.845,381.377 C441.743,392.326 442.914,403.253 444.03,414.183 C444.685,420.587 447.917,425.746 452.166,430.369 C451.014,432.277 448.933,432.593 447.087,433.247 C444.095,434.309 441.196,435.574 438.492,437.216 C433.361,440.33 432.992,444.546 437.39,448.554 C439.271,450.267 441.488,451.378 443.859,452.218 C462.54,458.842 481.368,458.522 500.287,453.375 C502.219,452.849 504,451.918 505.782,451.015 C513.29,447.208 513.858,445.721 510.776,437.987 C510.586,437.51 510.661,437.013 510.825,436.533 C534.313,436.461 557.802,436.376 581.291,436.322 C596.051,436.288 604.894,428.422 606.37,413.591 C607.374,403.491 608.159,393.362 608.727,383.228 C608.9,380.13 609.88,379.229 612.865,379.422 C616.681,379.67 620.526,379.482 624.358,379.483 C631.031,379.483 631.112,379.478 631.539,386.365 C632.094,395.335 632.484,404.315 632.981,413.289 C633.752,427.197 643.399,436.287 657.363,436.318 C683.519,436.377 709.675,436.444 735.831,436.507 C736.085,437.16 735.995,437.792 735.78,438.443 C733.604,445.022 734.675,448.522 741.253,451.031 C762.765,459.238 784.434,459.789 805.953,450.874 C809.322,449.478 813.129,447.659 812.888,443.281 C812.65,438.941 808.928,436.967 805.365,435.407 C801.858,433.872 798.172,432.8 794.46,431.832 C792.758,431.389 790.67,431.198 790.816,428.595" fill="#FCE3CD"/>
    <path d="M877.99,1003.45 C880.091,991.023 882.147,978.589 884.303,966.173 C889.056,938.803 893.86,911.443 898.637,884.077 C898.751,883.422 898.778,882.752 898.877,882.093 C899.374,878.776 898.175,876.316 894.771,875.849 C891.292,875.372 889.698,877.712 889.151,880.855 C887.384,891.016 885.64,901.182 883.881,911.344 C876.476,954.125 869.071,996.905 861.642,1039.68 C861.533,1040.31 861.122,1040.89 860.852,1041.49 C849.555,1045.8 838.313,1050.27 826.946,1054.39 C811.205,1060.09 795.112,1064.62 778.837,1068.58 C761.636,1072.76 744.328,1076.36 726.821,1078.91 C713.418,1080.87 700.029,1082.96 686.449,1083.57 C677.533,1083.96 668.694,1085.69 659.726,1085.46 C657.987,1085.41 655.999,1086.13 654.661,1084.27 C667.868,1061.58 681.044,1038.88 694.29,1016.21 C707.29,993.971 720.403,971.793 733.353,949.521 C735.17,946.396 736.363,944.756 740.995,945.295 C749.179,946.247 757.598,945.221 765.917,944.968 C794.056,944.113 822.167,944.875 850.267,946.373 C851.597,946.444 852.935,946.401 854.259,946.52 C857.638,946.825 859.987,945.47 860.15,942.009 C860.313,938.537 857.955,937.029 854.692,936.857 C848.876,936.551 843.06,936.229 837.241,936.004 C830.089,935.727 822.928,935.293 815.781,935.424 C812.32,935.488 811.793,934.173 811.611,931.183 C810.79,917.717 809.328,904.318 805.747,891.257 C805.051,888.717 803.98,886.253 802.844,883.867 C801.472,880.986 799.213,879.035 795.844,879.111 C792.486,879.187 790.31,881.26 788.937,884.104 C785.347,891.545 784.021,899.617 782.888,907.676 C781.801,915.413 780.915,923.202 780.478,930.998 C780.286,934.415 779.153,935.101 776.044,935.057 C764.756,934.897 753.465,934.993 741.95,934.993 C747.859,924.863 753.919,914.427 760.026,904.018 C776.176,876.49 792.273,848.93 808.587,821.5 C811.034,817.385 811.063,814.761 807.377,811.266 C792.758,797.401 778.537,783.117 763.99,769.174 C760.838,766.153 760.107,764.685 764.828,762.689 C771.087,760.044 776.968,756.517 783.177,753.738 C787.038,752.01 787.568,749.787 785.756,746.272 C780.728,736.514 775.061,727.146 768.674,718.206 C769.915,716.808 770.89,717.961 771.827,718.258 C809.525,730.185 846.594,743.653 883.004,759.242 C917.941,774.199 938.276,799.623 946.885,835.972 C953.47,863.778 956.658,891.981 958.777,920.369 C959.347,927.998 959.55,935.653 959.921,943.297 C959.864,945.574 958.799,947.496 957.391,949.105 C940.055,968.91 921.553,987.33 897.048,998.317 C891.007,1001.03 884.689,1003.03 877.99,1003.45" fill="#FEFEFE"/>
    <path d="M559.138,145.957 C547.516,155 536.402,164.253 526.108,174.444 C511.85,188.56 498.991,203.759 489.416,221.527 C487.802,224.521 485.791,227.607 489.155,230.489 C492.319,233.199 494.956,230.793 497.599,228.994 C547.569,194.99 600.124,166.034 657.815,147.154 C678.904,140.253 700.431,135.4 722.583,133.425 C726.686,133.059 729.945,134.226 733.213,136.526 C755.586,152.273 772.392,172.926 785.83,196.454 C797.759,217.337 807.69,239.235 812.066,262.951 C817.622,293.072 820.37,323.605 822.369,354.18 C822.523,356.544 821.968,357.471 819.439,357.369 C814.948,357.186 810.436,357.161 805.947,357.374 C803.124,357.509 802.514,356.328 802.814,353.856 C803.235,350.388 803.516,346.913 802.806,343.424 C800.857,333.849 792.183,326.648 782.003,326.513 C771.674,326.377 761.341,326.454 751.011,326.507 C748.965,326.517 747.214,326.075 745.367,325.072 C729.385,316.401 713.259,316.4 697.199,324.83 C695.039,325.964 693.005,326.528 690.605,326.514 C678.109,326.446 665.612,326.446 653.115,326.492 C638.57,326.546 628.377,337.573 629.377,351.994 C629.72,356.952 631.85,363.474 629.531,366.469 C627.053,369.668 620.153,366.872 615.263,367.553 C610.452,368.222 610.16,366.235 610.464,362.104 C610.875,356.512 612.266,350.928 611.082,345.222 C608.836,334.402 599.932,326.666 588.892,326.516 C577.896,326.366 566.897,326.476 555.9,326.489 C554.069,326.492 552.384,326.355 550.659,325.403 C534.035,316.228 517.354,316.209 500.779,325.518 C499.019,326.507 497.318,326.472 495.521,326.475 C483.857,326.49 472.193,326.464 460.529,326.487 C445.972,326.517 436.968,336.102 437.763,350.68 C438.125,357.318 438.125,357.318 431.711,357.318 C424.611,357.318 424.5,357.311 424.992,350.155 C427.025,320.584 430.373,291.158 434.98,261.878 C435.231,260.282 435.871,258.643 436.715,257.259 C465.792,209.584 503.779,171.426 554.652,147.072 C555.7,146.57 556.758,146.083 557.84,145.662 C558.079,145.569 558.439,145.786 559.138,145.957" fill="#FCE3CD"/>
    <path d="M752.876,43.472 C758.408,53.241 760.695,63.406 756.715,74.366 C753.736,82.567 755.073,84.471 763.717,84.448 C765.223,91.224 770.445,93.269 776.336,95.32 C810.842,107.333 837.788,129.207 858.405,159.164 C859.815,161.213 860.288,163.793 862.195,165.526 C866.285,175.888 868.387,186.794 870.74,197.609 C874.766,216.12 874.775,235.005 873.575,253.689 C871.694,282.984 866.799,311.854 857.352,339.845 C855.711,344.706 853.34,347.16 848.604,347.285 C842.166,347.455 837.275,350.624 832.415,355.121 C830.995,350.222 831.779,345.447 831.1,340.834 C829.728,331.519 829.655,322.021 828.761,312.625 C827.963,304.233 826.907,295.86 825.737,287.511 C824.316,277.366 823.366,267.139 820.922,257.158 C815.637,235.576 807.353,215.183 796.645,195.731 C788.612,181.135 779.382,167.344 768.358,154.88 C757.754,142.892 745.916,132.2 731.877,124.24 C728.97,122.592 725.625,123.317 722.556,123.61 C685.91,127.106 651.112,137.575 617.291,151.708 C581.774,166.55 548.114,184.905 515.539,205.321 C514.293,206.102 513.201,207.168 511.056,207.072 C513.347,201.647 517.456,197.795 521.107,193.862 C542.923,170.365 567.402,150.054 594.862,133.403 C597.306,131.921 599.876,130.135 598.306,126.641 C596.775,123.235 593.96,123.176 590.707,123.989 C565.804,130.218 542.772,140.602 521.205,154.492 C502.959,166.243 486.292,179.906 471.378,195.578 C454.411,213.41 439.206,232.698 427.057,254.204 C424.319,259.051 424.683,264.822 423.905,270.183 C421.698,285.394 419.721,300.643 417.986,315.915 C416.94,325.124 416.548,334.405 415.791,343.648 C415.521,346.939 415.041,350.212 414.605,353.944 C411.576,352.231 408.784,350.604 405.945,349.066 C404.492,348.279 403.011,347.25 401.277,347.521 C397.185,348.16 395.574,345.877 394.864,342.385 C395.683,338.091 393.35,334.369 392.502,330.408 C388.379,311.15 386.421,291.707 385.23,272.052 C384.337,257.303 384.768,242.811 387.189,228.322 C391.477,202.655 403.468,180.64 419.445,160.496 C436.26,139.294 456.447,121.748 478.427,106.218 C520.614,76.414 566.163,53.232 615.38,37.354 C635.574,30.839 656.197,26.199 677.203,23.471 C690.424,21.754 703.753,21.555 716.941,24.293 C730.788,27.168 742.996,33.148 752.876,43.472" fill="#5A3229"/>
    <path d="M644.891,1085.51 C637.719,1087.38 630.433,1086.2 623.197,1086.28 C622.292,1086.29 622.048,1085.22 621.788,1084.44 C627.973,1062.72 634.109,1040.98 640.354,1019.28 C661.852,944.558 683.174,869.787 705.04,795.177 C711.768,772.22 716.824,749.131 717.272,725.176 C717.574,709.042 714.874,693.373 709.169,678.175 C710.606,677.101 711.633,678.438 712.654,678.942 C728.539,686.789 741.788,697.802 753.422,711.209 C762.33,721.475 769.687,732.614 776.467,744.273 C778.073,747.034 778.007,748.363 774.831,749.784 C768.164,752.767 761.716,756.239 755.149,759.45 C749.112,762.403 748.675,764.254 753.337,768.824 C768.798,783.984 784.273,799.131 799.854,814.166 C801.79,816.034 802.548,817.193 800.974,819.872 C749.021,908.286 697.166,996.758 645.29,1085.22 C645.213,1085.35 645.026,1085.42 644.891,1085.51" fill="#FEFEFE"/>
    <path d="M115.677,894.613 C112.496,881.386 109.388,868.144 106.085,854.943 C99.633,829.161 87.418,807.076 68.889,787.808 C50.552,768.739 33.898,748.083 21.025,724.733 C16.031,715.675 11.876,706.259 10.233,695.923 C8.393,684.341 11.572,674.472 20.523,666.763 C35.926,653.496 54.425,649.019 74.161,648.342 C84.2,647.997 94.077,649.002 103.644,652.391 C109.891,654.605 114.064,658.266 115.469,665.166 C117.954,677.371 119.039,689.49 116.047,701.757 C113.896,710.579 109.099,716.474 99.821,718.649 C91.718,720.549 83.765,723.073 75.308,722.602 C68.883,722.244 67.443,719.945 69.6,713.851 C71.403,708.756 75.084,705.177 79.145,701.94 C83.47,698.493 88.366,696.004 93.52,694.057 C96.49,692.934 97.806,690.925 97.052,687.867 C96.311,684.861 93.96,684.139 91.221,684.506 C82.812,685.633 74.411,686.827 66.009,688.004 C63.209,688.397 60.404,688.762 57.619,689.243 C54.638,689.758 53.36,691.695 53.691,694.611 C54.042,697.704 56.113,698.835 58.973,698.603 C61.949,698.362 64.91,697.92 68.493,697.493 C65.928,701.315 63.037,704.37 61.278,708.199 C54.864,722.165 60.98,732.161 76.365,732.43 C80.17,732.497 83.985,731.936 87.795,731.664 C98.515,734.755 107.701,740.745 116.628,747.143 C119.961,749.533 123.701,751.613 125.673,755.526 C126.242,758.972 126.82,762.416 127.378,765.864 C127.922,769.228 129.545,771.756 133.267,771.092 C136.971,770.432 137.625,767.595 136.986,764.176 C134.781,752.371 134.87,740.659 138.915,729.202 C142.113,720.145 147.046,712.182 154.236,705.316 C156.143,708.292 155.735,711.537 156.399,714.478 C157.188,717.971 158.822,720.087 162.51,719.366 C166.077,718.669 166.56,715.91 166.013,712.785 C163.652,699.303 162.468,685.737 162.79,672.034 C163.207,654.258 167.785,638.2 181.25,625.634 C183.824,623.232 186.56,621.06 189.783,619.631 C194.396,617.584 196.536,618.912 196.207,623.973 C195.809,630.112 194.857,636.212 194.284,642.341 C192.348,663.058 189.817,683.818 193.145,704.573 C195.841,721.385 194.536,737.753 189.272,753.8 C183.519,771.341 172.991,785.309 156.985,794.848 C153.998,796.627 152.294,798.931 154.07,802.203 C155.739,805.278 158.554,805.186 161.413,803.633 C161.99,803.32 162.623,803.108 163.521,802.725 C166.474,819.7 168.962,836.688 174.18,852.929 C176.646,860.604 174.457,864.376 168.728,868.698 C156.035,878.274 142.699,886.553 127.774,892.15 C123.663,892.586 119.684,893.669 115.677,894.613" fill="#FCE3CD"/>
    <path d="M549.455,677.436 C538.142,706.983 539.561,735.614 545.347,764.391 C552.359,799.265 563.052,833.193 572.117,867.536 C588.271,928.735 605.008,989.78 621.529,1050.88 C622.24,1053.51 622.25,1055.98 621.437,1058.64 C618.764,1067.37 616.299,1076.17 613.713,1085.08 C612.027,1084.08 611.581,1082.47 610.797,1081.13 C560.169,994.44 509.57,907.737 458.869,821.093 C457.058,817.998 457.22,816.24 459.847,813.715 C475.215,798.944 490.401,783.983 505.616,769.053 C510.632,764.13 510.341,762.628 503.883,759.411 C497.045,756.005 490.198,752.615 483.318,749.296 C481.552,748.443 480.844,747.679 481.966,745.63 C496.53,719.035 515.023,696.127 542.056,681.172 C544.054,680.066 546.134,679.107 549.455,677.436" fill="#FEFEFE"/>
    <path d="M752.876,43.472 C750.898,44.292 750.418,42.314 749.444,41.49 C737.513,31.393 723.783,25.832 708.222,24.379 C680.555,21.795 653.993,27.745 627.751,35.118 C577.985,49.101 532.133,71.655 489.24,100.321 C468.996,113.85 449.896,128.837 433.208,146.678 C413.531,167.714 397.287,190.878 390.434,219.394 C386.54,235.6 385.566,252.028 386.388,268.817 C387.545,292.465 390.19,315.785 395.624,338.81 C395.907,340.01 396.421,341.477 394.863,342.385 C388.75,323.717 383.9,304.728 381.367,285.239 C377.716,257.154 375.073,229.012 380.755,200.85 C385.48,177.431 397.008,157.421 411.794,139.014 C435.429,109.59 465.329,87.777 497.49,68.872 C537.295,45.474 579.436,27.595 624.558,17.164 C645.541,12.313 666.763,9.138 688.337,10.58 C709.912,12.022 729.907,17.948 745.679,33.931 C748.501,36.791 750.874,39.992 752.876,43.472" fill="#A77B74"/>
    <path d="M626.188,1040.46 C619.232,1014.57 612.51,989.543 605.778,964.517 C605.217,962.431 604.804,960.271 603.959,958.301 C598.319,945.157 602.604,932.073 604.295,919.051 C607.248,896.322 610.624,873.647 613.87,850.956 C616.081,835.499 618.51,820.073 620.556,804.596 C621.349,798.592 625.807,800.883 628.954,800.316 C632.204,799.731 634.178,800.993 634.717,804.647 C638.374,829.454 642.142,854.244 645.928,879.031 C648.911,898.566 651.926,918.096 655.067,937.606 C655.373,939.504 655.316,941.182 654.805,942.957 C645.687,974.58 636.583,1006.21 627.459,1037.83 C627.281,1038.45 626.899,1039.01 626.188,1040.46" fill="#3A6CB3"/>
    <path d="M690.084,811.149 C678.333,793.728 667.098,777.065 655.855,760.408 C649.811,751.453 643.799,742.475 637.67,733.578 C636.234,731.494 635.456,730.433 638.666,729.024 C657.331,720.831 670.778,706.939 681.034,689.603 C683.361,685.67 684.275,681.879 683.244,677.308 C682.261,672.954 682.1,668.412 681.604,663.95 C681.247,660.727 683.032,660.472 685.182,661.757 C693.406,666.675 699.612,673.306 702.957,682.517 C708.609,698.081 710.881,714.168 709.892,730.587 C708.334,756.464 703.264,781.628 692.818,805.52 C692.094,807.176 691.241,808.776 690.084,811.149" fill="#FEFEFE"/>
    <path d="M568.182,811.109 C560.737,796.632 556.306,782.059 553.338,767.028 C549.723,748.728 546.642,730.367 548.788,711.57 C549.962,701.283 551.965,691.213 555.716,681.531 C558.37,674.676 562.622,669.058 568.597,664.755 C569.853,663.851 571.065,663.133 572.704,663.985 C574.332,664.831 573.774,666.255 573.777,667.49 C573.781,669.149 573.846,670.871 573.453,672.458 C571.162,681.713 574.649,689.136 580.074,696.382 C590.641,710.499 603.191,722.073 619.494,729.199 C621.336,730.005 622.871,730.256 621.103,732.856 C603.536,758.697 586.077,784.613 568.182,811.109" fill="#FEFEFE"/>
    <path d="M26.658,474.979 C26.888,473.219 26.981,471.55 27.336,469.938 C29.691,459.249 36.803,456.513 45.652,462.854 C59.6,472.85 67.838,486.923 73.762,502.567 C82.212,524.88 86.43,548.315 91.738,571.457 C92.554,575.017 92.728,578.801 94.036,582.156 C96.167,587.619 93.76,588.842 88.963,589.265 C83.829,589.717 78.784,591.033 74.107,593.228 C70.926,594.721 69.955,593.496 68.961,590.65 C58.888,561.817 48.426,533.128 36.672,504.926 C33.297,496.829 28.635,489.217 27.37,480.322 C27.114,478.517 26.887,476.708 26.658,474.979" fill="#FCE3CD"/>
    <path d="M675.844,361.429 C679.482,361.644 681.544,359.986 682.842,356.514 C684.803,351.264 687.464,346.326 691.655,342.41 C695.289,339.737 699.414,338.932 703.846,338.974 C712.312,339.055 720.779,339.008 729.246,338.995 C738.706,338.98 746.703,342.305 753.074,349.372 C756.634,355.922 757.713,363.106 758.281,370.381 C758.525,373.494 759.406,375.879 762.739,376.671 C763.955,377.816 764.071,379.284 763.958,380.82 C762.753,397.141 756.203,410.599 742.832,420.452 C739.634,422.808 736.198,424.05 732.176,423.999 C722.188,423.874 712.197,424.023 702.209,423.926 C689.079,419.746 681.697,409.811 676.758,397.793 C672.551,387.556 672.845,376.734 674.066,365.945 C674.247,364.344 674.444,362.613 675.844,361.429" fill="#FEFEFE"/>
    <path d="M484.808,376.599 C487.719,375.262 488.561,372.909 488.709,369.819 C489.047,362.73 490.401,355.833 493.803,349.482 C498.215,343.798 504.235,340.38 511.13,339.641 C523.525,338.313 536.012,338.676 548.46,339.496 C551.024,339.664 553.29,340.57 555.203,342.31 C559.311,346.262 562.018,351.143 563.956,356.388 C565.208,359.781 567.14,361.623 570.8,361.457 C572.274,362.533 572.777,364.153 572.935,365.81 C574.816,385.479 572.542,403.779 556.221,417.641 C551.481,421.666 546.586,424.335 540.051,424.062 C530.911,423.68 521.745,423.98 512.594,423.958 C504.985,422.753 499.943,417.534 495.309,412.169 C487.834,403.515 483.67,393.35 483.509,381.755 C483.484,379.942 483.397,378.07 484.808,376.599" fill="#FEFEFE"/>
    <path d="M855.858,386.658 C857.737,385.908 859.674,385.581 861.709,385.623 C864.93,385.691 866.778,384.052 866.765,380.817 C866.752,377.477 864.501,376.156 861.524,376.052 C854.36,375.803 848.241,378.516 842.755,382.934 C839.372,385.659 836.78,389.097 833.637,392.471 C834.098,384.998 831.099,377.324 833.98,370.239 C840.531,354.127 857.184,352.065 869.097,365.55 C878.503,376.197 881.319,389.245 880.47,402.759 C878.635,431.979 867.304,457.759 849.525,480.74 C844.287,487.51 837.794,493.088 828.931,494.733 C822.367,495.951 822.006,495.385 823.368,488.929 C825.014,481.126 826.462,473.281 827.996,465.455 C828.492,464.062 829.601,463.328 830.928,462.995 C843.167,459.923 849.339,450.373 854.38,440.155 C859.947,428.87 862.069,416.491 863.365,404.067 C863.913,398.808 862.61,393.809 858.058,390.248 C856.928,389.364 855.527,388.502 855.858,386.658" fill="#FCE3CD"/>
    <path d="M418.811,464.463 C420.797,473.547 422.722,482.644 424.809,491.704 C425.392,494.235 424.48,494.947 422.143,495.024 C415.774,495.236 410.513,492.583 405.737,488.762 C396.181,481.116 389.645,471.084 384.113,460.403 C373.379,439.677 365.203,418.191 366.863,394.245 C367.602,383.581 370.699,373.675 378.032,365.502 C381.082,362.103 384.735,359.511 389.002,357.902 C400.739,353.477 414.106,363.001 413.984,375.612 C413.93,381.218 413.975,386.825 413.975,394.01 C410.041,388.716 406.993,384.656 402.794,381.701 C397.767,378.164 392.319,375.96 386.099,376.03 C382.912,376.065 380.425,377.226 380.398,380.855 C380.372,384.438 382.581,385.82 385.957,385.643 C387.654,385.554 389.27,385.845 390.802,386.589 C391.057,387.493 390.758,388.333 390.09,388.83 C384.423,393.054 383.548,399.078 384.169,405.416 C385.725,421.289 388.947,436.655 398.544,449.982 C403.064,456.259 408.517,461.121 416.211,463.033 C417.198,463.278 418.053,463.79 418.811,464.463" fill="#FCE3CD"/>
    <path d="M675.844,361.429 C674.966,370.166 674.111,378.851 675.571,387.669 C678.2,403.553 686.446,415.169 700.764,422.501 C701.202,422.726 701.583,423.061 701.99,423.345 C701.016,424.276 699.791,423.953 698.661,423.954 C684.673,423.974 670.685,423.97 656.696,423.962 C655.709,423.961 654.686,424.112 653.795,423.488 C648.583,422.618 645.857,419.079 645.531,414.269 C644.07,392.721 642.794,371.158 641.729,349.587 C641.417,343.28 646.246,338.792 652.843,338.685 C661.988,338.536 671.137,338.647 680.869,338.647 C678.42,343.427 676.143,347.894 673.845,352.352 C671.997,355.94 672.283,359.041 675.844,361.429" fill="#FCE3CD"/>
    <path d="M678.949,808.38 C682.896,812.223 684.575,817.812 688.897,821.351 C690.049,822.294 689.248,823.126 688.997,823.995 C679.71,856.243 670.414,888.489 661.095,920.728 C660.974,921.148 660.54,921.478 660.04,922.125 C654.261,884.508 648.516,847.213 642.837,809.907 C642.414,807.13 641.424,804.396 641.873,801.512 C642.764,800.593 643.903,800.376 645.092,800.509 C655.543,801.678 665.833,803.674 675.926,806.645 C677.052,806.977 677.984,807.725 678.949,808.38" fill="#FEFEFE"/>
    <path d="M612.937,804.623 C610.134,825.026 607.357,845.432 604.519,865.829 C601.956,884.254 599.33,902.67 596.719,921.088 C596.536,922.381 596.628,923.766 595.218,925.37 C591.913,913.029 588.721,901.06 585.501,889.098 C579.94,868.438 574.386,847.775 568.765,827.131 C567.986,824.27 566.712,821.808 570.756,819.982 C572.603,819.148 573.601,816.432 574.985,814.57 C584.932,805.672 597.309,802.853 609.926,800.741 C612.78,800.264 613.93,801.778 612.937,804.623" fill="#FEFEFE"/>
    <path d="M484.808,376.599 C484.063,395.708 491.448,410.636 507.678,420.991 C509.055,421.87 510.547,422.567 511.986,423.348 C511.014,424.269 509.794,423.969 508.669,423.952 C494.593,423.746 480.509,424.439 466.439,423.591 C460.105,422.125 456.807,418.426 456.068,411.411 C454.571,397.213 453.232,382.998 451.822,368.791 C451.215,362.68 450.532,356.575 449.988,350.457 C449.319,342.925 453.036,338.736 460.519,338.666 C469.325,338.584 478.132,338.647 487.178,338.647 C487.217,341.226 485.547,342.999 484.676,345.035 C481.246,353.052 479.312,361.391 478.786,370.094 C478.521,374.492 480.381,376.67 484.808,376.599" fill="#FCE3CD"/>
    <path d="M466.439,423.591 C481.621,423.511 496.802,423.43 511.985,423.349 C521.955,423.384 531.926,423.345 541.894,423.489 C546.643,423.557 550.178,420.836 553.387,418.18 C565.508,408.148 572.454,395.479 571.867,379.277 C571.651,373.326 572.194,367.337 570.8,361.457 C574.53,359.226 574.653,356.271 573.102,352.496 C571.202,347.872 568.505,343.72 565.656,338.816 C574.173,338.816 582.225,338.374 590.2,338.965 C595.888,339.387 599.467,344.815 598.999,350.863 C597.411,371.408 595.795,391.952 594.058,412.485 C593.367,420.655 589.302,424.287 581.074,424.302 C555.619,424.348 530.163,424.318 504.707,424.319 C493.726,424.319 482.745,424.341 471.764,424.296 C469.978,424.289 468.085,424.78 466.439,423.591" fill="#FCE3CD"/>
    <path d="M653.795,423.488 C669.86,423.441 685.924,423.394 701.989,423.346 C711.943,423.383 721.899,423.571 731.849,423.409 C739.55,423.283 744.203,417.681 749.139,412.861 C759.294,402.945 762.124,390.208 762.74,376.671 C766.676,376.405 768.136,374.269 768.017,370.391 C767.677,359.382 764.55,349.16 759.176,338.832 C767.577,338.832 775.467,338.418 783.287,338.978 C788.511,339.351 791.329,343.906 790.81,350.052 C789.436,366.31 787.856,382.549 786.34,398.794 C785.922,403.269 785.491,407.744 784.974,412.209 C784.144,419.377 779.271,424.241 772.099,424.262 C733.77,424.375 695.441,424.316 657.112,424.309 C655.95,424.308 654.766,424.305 653.795,423.488" fill="#FCE3CD"/>
    <path d="M126.668,699.354 C128.411,687.812 127.445,677.144 125.822,666.431 C123.845,653.379 116.621,645.54 103.981,642.255 C76.705,635.166 50.579,637.975 25.6,651.1 C24.724,651.561 23.858,652.043 22.975,652.492 C22.865,652.548 22.681,652.458 22.164,652.381 C25.547,643.591 30.977,636.44 39.672,633.085 C63.722,623.805 88.564,620.626 114.137,625.39 C122.512,626.95 128.689,631.472 132.727,639.06 C139.282,651.377 143.443,664.16 140.786,678.318 C139.156,686.996 134.755,693.912 126.668,699.354" fill="#FCE3CD"/>
    <path d="M151.046,663.511 C149.976,654.679 147.163,646.389 143.532,638.302 C136.775,623.255 124.725,616.248 108.807,614.41 C90.544,612.301 72.61,614.076 54.783,617.993 C53.99,618.168 53.185,618.292 51.3,618.64 C61.563,609.337 72.319,603.081 84.754,599.945 C98.276,596.535 111.831,596.781 125.188,600.793 C147.849,607.6 159.371,626.463 155.506,650.694 C154.193,658.925 153.208,667.154 152.766,675.462 C150.855,675.552 151.41,674.079 151.347,673.106 C151.138,669.912 151.656,666.694 151.046,663.511" fill="#FCE3CD"/>
    <path d="M591.495,694.553 C584.823,688.084 581.067,680.634 583.189,671.008 C583.675,668.804 583.682,667.446 586.766,668.34 C614.051,676.254 641.191,675.008 668.071,666.348 C671.219,665.334 672.213,665.962 672.292,669.045 C672.339,670.859 672.588,672.668 672.746,674.48 C668.524,679.391 662.787,682.201 657.273,685.165 C639.958,694.474 621.566,699.39 601.73,697.837 C598.046,697.549 594.465,697.027 591.495,694.553" fill="#E8B59F"/>
    <path d="M855.858,386.658 C864.392,392.252 865.706,400.093 864.029,409.618 C862.071,420.74 860.057,431.787 854.996,441.95 C849.277,453.435 841.363,462.641 827.996,465.455 C830.103,451.845 831.132,438.104 832.872,424.463 C834.417,412.348 838.621,400.923 847.569,391.912 C849.923,389.542 852.533,387.523 855.858,386.658" fill="#E8B59F"/>
    <path d="M418.811,464.463 C410.117,464.068 404.145,459.112 398.921,452.76 C389.844,441.723 386.645,428.368 383.848,414.862 C383.248,411.965 383.088,408.974 382.786,406.019 C381.98,398.116 383.671,391.226 390.801,386.589 C398.629,388.831 403.109,394.812 406.612,401.48 C411.427,410.644 414.298,420.362 414.969,430.88 C415.686,442.111 417.485,453.272 418.811,464.463" fill="#E8B59F"/>
    <path d="M790.816,428.595 C793.621,431.697 797.884,430.781 801.285,432.369 C804.572,433.905 808.231,434.627 811.023,437.191 C816.292,442.032 815.84,446.731 809.756,450.504 C803.565,454.342 796.663,456.184 789.604,457.286 C773.971,459.725 758.552,458.753 743.515,453.53 C742.265,453.095 741.024,452.592 739.85,451.983 C731.869,447.835 730.83,443.791 735.831,436.507 C746.925,436.445 758.027,436.096 769.11,436.415 C777.529,436.657 784.716,434.356 790.816,428.595" fill="#F7BAB3"/>
    <path d="M510.825,436.533 C516.692,443.918 515.961,447.617 507.211,451.748 C491.175,459.321 474.283,459.688 457.112,457.105 C451.01,456.187 445.045,454.7 439.603,451.781 C436.279,449.998 432.876,447.865 432.817,443.337 C432.758,438.725 436.02,436.816 439.583,435.025 C443.618,432.996 447.815,431.497 452.166,430.369 C458.554,435.076 465.676,436.639 473.603,436.428 C486,436.098 498.416,436.463 510.825,436.533" fill="#F7BAB3"/>
    <path d="M591.495,694.553 C618.242,700.641 642.13,693.14 664.707,679.239 C667.354,677.609 669.571,675.223 672.746,674.48 C674.736,679.612 673.326,684.004 670.346,688.425 C660.785,702.606 649.124,714.248 633.04,720.928 C630.26,722.082 627.853,722.139 625.025,720.961 C611.363,715.271 600.319,706.343 591.495,694.553" fill="#FCE3CD"/>
    <path d="M862.195,165.526 C856.787,160.999 853.749,154.604 849.448,149.2 C829.127,123.664 803.748,105.522 772.697,95.364 C764.686,92.743 763.84,91.665 763.717,84.448 C770.875,82.199 777.946,84.134 784.684,85.829 C812.312,92.78 834.087,107.896 848.159,133.192 C853.901,143.514 858.628,154.266 862.195,165.526" fill="#A77B74"/>
    <path d="M629.157,734.107 C634.96,742.657 640.353,750.631 645.781,758.58 C646.926,760.257 646.905,761.841 646.205,763.738 C642.926,772.619 639.786,781.551 636.593,790.463 C636.481,790.776 636.293,791.065 636.21,791.383 C635.635,793.588 633.607,794.081 632.346,793.127 C628.247,790.024 621.586,797.901 619.055,790.177 C616.319,781.827 614.349,773.229 611.865,764.792 C611.041,761.99 611.461,759.839 613.168,757.441 C618.54,749.899 623.658,742.176 629.157,734.107" fill="#3A6CB3"/>
    <path d="M151.046,663.511 C153.356,667.244 150.488,671.724 152.766,675.462 C153.007,680.429 153.193,685.4 153.523,690.361 C153.621,691.838 153.243,692.863 152.111,693.821 C133.014,709.975 124.822,730.816 125.673,755.525 C114.175,745.781 101.181,738.412 87.795,731.664 C93.876,730.049 99.966,728.466 106.036,726.811 C112.415,725.072 117.388,721.342 120.711,715.661 C122.111,713.267 123.944,712.149 126.423,710.901 C140.365,703.886 149.069,692.773 150.764,676.921 C151.238,672.491 150.972,667.983 151.046,663.511" fill="#E8B59F"/>
    <path d="M678.949,808.38 C670.202,806.58 661.468,804.711 652.701,803.014 C649.129,802.322 645.485,802.001 641.873,801.512 C640.954,800.099 641.278,798.696 641.81,797.236 C645.221,787.88 648.6,778.513 652.362,768.12 C661.502,781.961 670.226,795.17 678.949,808.38" fill="#C1C2C2"/>
    <path d="M612.937,804.623 C612.669,802.666 612.377,801.577 609.586,801.999 C597.172,803.878 585.767,808.314 574.985,814.57 C584.975,799.577 594.966,784.584 605.48,768.806 C608.408,779.29 611.164,788.78 613.641,798.343 C614.154,800.326 614.153,802.642 612.937,804.623" fill="#C1C2C2"/>
    <path d="M796.496,894.192 C799.51,906.524 801.031,918.688 801.894,930.972 C802.132,934.37 801.024,935.241 797.783,935.248 C789.324,935.268 789.564,935.43 790.392,927.087 C791.379,917.16 792.493,907.273 794.738,897.539 C794.998,896.415 795.062,895.222 796.496,894.192" fill="#EA2214"/>
    <path d="M101.836,877.751 C103.238,884.274 104.528,890.224 105.787,896.18 C106.04,897.376 106.111,898.373 104.324,898.555 C98.336,899.166 92.428,899.32 86.56,897.5 C83.431,896.528 83.62,895.032 85.204,892.858 C89.568,886.869 95.336,882.47 101.836,877.751" fill="#FDFDFD"/>
    <path d="M196.27,832.26 C194.9,841.029 189.97,847.136 184.263,853.871 C182.759,847.866 181.526,842.662 180.13,837.501 C179.554,835.373 180.116,834.501 182.326,834.239 C186.916,833.696 191.482,832.952 196.27,832.26" fill="#FCFCFC"/>
    <path d="M555.203,342.31 C539.908,338.201 524.481,338.184 509.082,341.367 C503.345,342.554 498.753,346.492 493.803,349.482 C494.139,348.564 494.456,347.638 494.815,346.729 C497.188,340.718 501.013,338.08 508.04,338.441 C521.454,339.129 534.929,338.72 548.376,338.582 C551.544,338.549 553.871,339.332 555.203,342.31" fill="#E2EAF4"/>
    <path d="M753.074,349.372 C750.971,348.074 748.909,346.705 746.76,345.488 C739.731,341.508 732.434,338.927 724.072,339.441 C713.229,340.109 702.17,338.156 691.655,342.41 C693.078,339.223 695.618,338.549 698.925,338.585 C712.521,338.73 726.136,339.05 739.707,338.464 C745.912,338.196 749.299,340.558 751.566,345.726 C752.094,346.93 752.572,348.156 753.074,349.372" fill="#E3EAF6"/>
    <path d="M115.677,894.613 C119.105,890.823 123.606,892.307 127.773,892.15 C124.389,893.318 121.004,894.483 117.621,895.655 C116.586,896.014 115.669,896.184 115.677,894.613" fill="#EEEBE9"/>
    <path d="M623.616,572.066 C592.725,571.565 566.261,561.219 545.054,538.545 C544.486,537.938 543.965,537.287 543.425,536.654 C541.334,534.204 540.62,531.514 543.214,529.149 C546.029,526.583 548.673,527.637 550.923,530.319 C558.298,539.11 567.331,545.82 577.378,551.222 C615.982,571.977 666.378,563.321 695.785,530.86 C698.122,528.28 700.62,526.273 703.819,529.02 C707.303,532.011 705.431,535.003 703.005,537.629 C684.471,557.688 661.443,568.678 634.394,571.455 C630.759,571.828 627.091,571.877 623.616,572.066" fill="#2F201B"/>
    <path d="M622.693,487.455 C617.56,487.844 612.373,486.854 607.439,484.716 C605.146,483.722 602.801,482.382 602.809,479.435 C602.815,476.731 604.941,475.264 607.096,474.447 C617.898,470.352 628.788,470.312 639.574,474.504 C641.716,475.337 643.824,476.811 643.762,479.555 C643.701,482.258 641.587,483.587 639.454,484.545 C634.223,486.896 628.672,487.688 622.693,487.455" fill="#D6A393"/>
    <path d="M467.027,293.592 C468.171,286.429 472.549,280.511 478.539,275.669 C490.615,265.907 504.767,263.726 519.551,265.646 C539.215,268.2 555.807,277.205 569.485,291.558 C569.944,292.039 570.388,292.544 570.772,293.085 C572.193,295.086 574.816,297.278 573.443,299.6 C571.817,302.348 568.53,300.653 566.154,300.015 C559.258,298.164 552.471,295.911 545.623,293.875 C527.802,288.578 510.276,288.696 492.943,296.193 C487.185,298.684 481.316,301.264 474.915,301.816 C469.373,302.295 466.647,299.629 467.027,293.592" fill="#2F201B"/>
    <path d="M733.342,265.066 C749.999,265.218 762.729,269.091 772.698,279.791 C776.281,283.637 778.977,288.048 779.738,293.317 C780.643,299.582 777.78,302.352 771.445,301.753 C766.91,301.325 762.789,299.504 758.58,297.985 C749.678,294.772 740.936,291.103 731.32,290.31 C718.43,289.247 706.243,292.364 694.087,295.974 C688.521,297.627 683.127,299.924 677.303,300.645 C675.843,300.825 674.177,301.304 673.278,299.665 C672.544,298.328 673.477,297.037 674.124,295.936 C676.167,292.456 678.943,289.572 681.971,286.941 C697.424,273.518 715.063,265.441 733.342,265.066" fill="#2F201B"/>
    <path d="M732.18,354.044 C728.018,354.532 724.959,356.219 724.658,360.843 C724.437,364.25 725.211,367.116 728.654,368.651 C733.012,370.595 735.385,367.748 737.7,364.762 C744.531,379.123 738.014,400.401 724.509,408.211 C715.621,413.35 705.317,412.404 697.056,405.69 C680.249,392.032 680.854,361.458 698.187,348.534 C709.176,340.34 723.989,342.668 732.18,354.044" fill="#2F201B"/>
    <path d="M559.665,363.234 C563.913,377.884 562.933,391.21 552.913,402.658 C542.585,414.459 526.837,414.434 516.033,403.098 C501.657,388.013 504.023,359.504 520.602,348.05 C531.585,340.463 545.95,342.928 553.969,354.138 C549.038,354.245 546.101,356.583 545.847,361.445 C545.664,364.944 547.162,367.663 550.578,368.846 C555.342,370.495 557.443,367.092 559.665,363.234" fill="#2F201B"/>
  </g>
</svg>
