<?xml version="1.0" encoding="UTF-8"?>
<!DOCTYPE svg PUBLIC "-//W3C//DTD SVG 1.1//EN" "http://www.w3.org/Graphics/SVG/1.1/DTD/svg11.dtd">
<svg version="1.1" xmlns="http://www.w3.org/2000/svg" xmlns:xlink="http://www.w3.org/1999/xlink" x="0" y="0" width="535" height="945" viewBox="0, 0, 535, 945">
  <g id="Layer_1">
    <path d="M35.4,654.325 C35.4,654.325 57.76,641.64 63.36,640.115 C83.085,634.785 215.77,585.04 215.77,585.04" fill="#F4F1A4"/>
    <path d="M348.795,552.715 C348.795,552.715 369.21,578.555 380.42,608.095 C417.855,621.885 460.28,637.285 470.765,640.115 C502.135,648.62 525.7,731.31 528.12,941 L3.62,941 C5.96,888.08 10.71,794.03 15.46,771.465 C22.125,739.805 31.295,685.635 37.96,671.465 C44.625,657.305 54.595,642.94 63.36,640.115 C68.42,638.495 119.225,620.4 161.285,605.38 C168.375,579.805 191.295,553.555 191.295,553.555 L348.795,552.715" fill="#61A8D0"/>
    <path d="M342.125,669.18 C396.5,692.93 439,734.18 471.295,778.135 L441.295,941 L93.795,941 L64.625,768.975 C64.625,768.975 115.395,699.56 192.12,664.02 L152.125,652.305 C152.125,652.305 150.875,621.68 160.875,601.68 C170.875,581.68 191.295,553.555 191.295,553.555 L348.795,552.715 C348.795,552.715 369.625,574.18 377.125,602.305 C382.02,620.67 387.75,652.305 387.75,652.305 C387.75,652.305 331.82,661.005 342.125,669.18" fill="#B9E1ED"/>
    <path d="M465.315,372.43 L76.1,372.43 L71.945,303.16 C71.945,303.16 53.77,262.305 53.855,199.615 C53.92,163.77 66.01,134.18 98.54,101.12 C139.935,59.035 230.455,10.3 306.715,5.37 C370.62,1.235 397.515,42.565 384.42,68.74 C384.42,68.74 415.08,63.23 447.025,91.47 C470.885,112.555 486.22,163.77 486.28,199.615 C486.37,262.305 468.195,303.16 468.195,303.16 L465.315,372.43" fill="#352521"/>
    <path d="M478.52,155.225 C458,117.08 429,92.57 393.875,81.835 C383.125,78.55 390.065,68.96 390.065,68.96 L398.175,68.725 C410.1,69.995 428.315,74.935 447.025,91.47 C456.135,99.52 463.985,111.97 470.23,126.27 L478.52,155.225" fill="#805E5A"/>
    <path d="M83.235,323.99 C83.235,323.99 65.055,283.135 65.15,220.455 C65.21,184.615 77.305,155.02 109.83,121.95 C151.225,79.875 240.015,29.79 315.995,21.535 C351.55,17.67 370.595,27.33 386.875,47.83 C382.205,25.155 355.08,2.24 306.715,5.37 C230.455,10.3 139.935,59.035 98.54,101.12 C66.01,134.18 53.92,163.77 53.855,199.615 C53.77,262.305 71.945,303.16 71.945,303.16 L76.1,372.43 L86.14,372.43 L83.235,323.99" fill="#805E5A"/>
    <path d="M215.48,325.115 C215.48,341.775 204.915,355.29 191.89,355.29 C178.855,355.29 168.29,341.775 168.29,325.115 C168.29,308.455 178.855,294.94 191.89,294.94 C204.915,294.94 215.48,308.455 215.48,325.115" fill="#1A1919"/>
    <path d="M444.68,317.44 C444.68,317.44 451.12,299.18 467.455,303.525 C487.765,308.915 501.935,339.245 482.58,385.085 C464.74,427.33 445.1,434.625 433,428.435" fill="#F8D2B5"/>
    <path d="M444.06,354.59 C439.065,372.07 431.17,394.615 440.94,398.785 C450.72,402.965 464.47,388.26 469.47,370.79 C474.945,351.69 476.6,337.93 466.83,333.76 C457.05,329.58 447.775,341.58 444.06,354.59" fill="#D39985"/>
    <path d="M91.55,317.44 C91.55,317.44 85.1,299.18 68.775,303.525 C48.455,308.915 34.295,339.245 53.645,385.085 C71.485,427.33 91.13,434.625 103.23,428.435" fill="#F8D2B5"/>
    <path d="M92.17,354.59 C97.165,372.07 105.055,394.615 95.28,398.785 C85.51,402.965 71.76,388.26 66.755,370.79 C61.285,351.69 59.625,337.93 69.4,333.76 C79.17,329.58 88.45,341.58 92.17,354.59" fill="#D39985"/>
    <path d="M211.81,565.965 L214.965,603.105 L245.425,646.025 L267.74,669.655 C267.74,669.655 307.135,627.94 311.335,621.19 C315.53,614.43 321.04,598.045 322.095,592.975 C323.15,587.92 323.675,566.94 323.675,566.94 L211.81,565.965" fill="#F7CCAF"/>
    <path d="M222.82,563.975 L324.165,558.73 L322.75,576.68 C322.75,576.68 253.06,625.115 214.625,588.555 C214.625,588.555 212.15,573.79 212.575,567.85 C212.995,561.915 222.82,563.975 222.82,563.975" fill="#C79986"/>
    <path d="M432.81,222.135 C432.81,222.135 449.17,316.725 440.84,384.17 C433.845,440.86 414.29,497.94 382.02,524.805 C351.65,550.075 309.265,575.605 268.11,575.605 C226.54,575.605 185.745,550.075 155.375,524.805 C123.09,497.94 102.385,440.86 95.385,384.17 C87.05,316.725 103.42,222.135 103.42,222.135 C103.42,222.135 150.17,132.8 242.7,110.76 C242.7,110.76 179.58,147.955 155.915,195.485 C155.915,195.485 266.365,114.9 358.18,110.76 C358.18,110.76 409.005,136.25 432.81,222.135" fill="#F8D2B5"/>
    <path d="M149.525,326.52 C149.525,348.985 166.225,367.195 186.81,367.195 C207.41,367.195 224.12,348.985 224.12,326.52 C224.12,304.06 216.955,278.875 186.825,278.875 C156.695,278.875 149.525,304.06 149.525,326.52" fill="#FFFFFE"/>
    <path d="M386.52,326.52 C386.52,348.985 369.82,367.195 349.23,367.195 C328.63,367.195 311.935,348.985 311.935,326.52 C311.935,304.06 319.095,278.875 349.225,278.875 C379.355,278.875 386.52,304.06 386.52,326.52" fill="#FFFFFE"/>
    <path d="M287.96,412.78 C287.96,417.04 278.94,420.495 267.825,420.495 C256.7,420.495 247.69,417.04 247.69,412.78 C247.69,408.505 256.7,405.055 267.825,405.055 C278.94,405.055 287.96,408.505 287.96,412.78" fill="#BA8479"/>
    <path d="M216.885,297.995 C213.02,292.84 202.72,274.825 181.48,279.325 C160.235,283.835 153.155,297.35 151.22,307.01 C151.22,307.01 173.755,277.39 216.885,297.995" fill="#D1DDE9"/>
    <path d="M319.24,297.995 C323.1,292.84 333.405,274.825 354.65,279.325 C375.89,283.835 382.975,297.35 384.9,307.01 C384.9,307.01 362.375,277.39 319.24,297.995" fill="#D1DDE9"/>
    <path d="M175.005,381.705 C175.005,388.77 159.34,394.48 140.01,394.48 C120.69,394.48 105.03,388.77 105.03,381.705 C105.03,374.655 120.69,368.945 140.01,368.945 C159.34,368.945 175.005,374.655 175.005,381.705" fill="#ED9E99"/>
    <path d="M431.19,381.705 C431.19,388.77 415.53,394.48 396.21,394.48 C376.885,394.48 361.22,388.77 361.22,381.705 C361.22,374.655 376.885,368.945 396.21,368.945 C415.53,368.945 431.19,374.655 431.19,381.705" fill="#ED9E99"/>
    <path d="M201.31,453.72 C215.04,460.155 245.52,459.755 267.4,459.755 L266.975,459.755 C288.855,459.755 319.325,460.155 333.065,453.72 C333.065,453.72 311.95,526.26 266.54,526.26 C221.13,526.26 201.31,453.72 201.31,453.72" fill="#DE737E"/>
    <path d="M270.16,458.16 C250.98,458.16 233.045,457.41 217.545,456.12 C216.405,457.265 215.74,458.455 215.74,459.685 C215.74,467.275 238.695,473.425 267.005,473.425 C295.32,473.425 318.275,467.275 318.275,459.685 C318.275,458.61 317.775,457.575 316.905,456.57 C302.795,457.575 286.965,458.16 270.16,458.16" fill="#FFFFFE"/>
    <path d="M242.87,682.545 C242.87,682.545 235.715,656.325 215.855,653.935 C195.99,651.55 148.31,652.34 148.31,652.34 C148.31,652.34 200.755,690.495 242.87,682.545" fill="#3F658D"/>
    <path d="M293.92,685.875 C293.92,685.875 301.775,663.015 320.94,657.275 C354.21,647.305 388.48,655.68 388.48,655.68 C388.48,655.68 336.035,693.825 293.92,685.875" fill="#3F658D"/>
    <path d="M221.595,608.31 C221.595,608.31 243.375,618.27 267.915,618.27 C292.465,618.27 317.005,603.585 317.005,603.585 C317.005,603.585 309.72,619.85 297.565,633.795 C287.055,645.84 269.87,672.995 269.87,672.995 C269.87,672.995 236.36,632.03 229.685,623.26 C221.84,612.965 221.595,608.31 221.595,608.31" fill="#FFFFFE"/>
    <g>
      <path d="M491.87,661.6 L441.295,941 M503.135,758.865 C503.135,758.865 492.35,816.19 459.615,844.815" fill-opacity="0" stroke="#1A1919" stroke-width="7" stroke-linecap="round" stroke-linejoin="round"/>
      <path d="M380.42,607.735 C420.09,622.145 462.955,637.47 472.73,640.115 C503.73,648.525 527.1,766.675 529.98,941" fill-opacity="0" stroke="#1A1919" stroke-width="8" stroke-linecap="round" stroke-linejoin="round"/>
      <path d="M42.08,661.6 L92.625,941 M33.315,758.865 C33.315,758.865 44.1,816.19 76.835,844.815" fill-opacity="0" stroke="#1A1919" stroke-width="7" stroke-linecap="round" stroke-linejoin="round"/>
      <path d="M160.71,605.115 C119.19,620.245 71.59,637.315 61.22,640.115 C30.31,648.495 6.985,767.525 4,941" fill-opacity="0" stroke="#1A1919" stroke-width="8" stroke-linecap="round" stroke-linejoin="round"/>
      <path d="M54.995,729.17 L93.27,941" fill-opacity="0" stroke="#1A1919" stroke-width="7" stroke-linecap="round" stroke-linejoin="round"/>
    </g>
    <path d="M225.36,258.405 C223.585,260.97 211.385,255.05 197.575,251.69 C190.695,249.985 183.5,249.085 177.51,249.42 C171.495,249.7 166.72,251.055 163.725,252.055 C151.85,255.65 141.755,262.15 136.61,259.09 C134.05,257.515 133.78,252.65 136.98,246.845 C140.075,241.095 147.125,234.41 156.955,231.25 C161.775,229.615 169.785,228.295 178.405,229.285 C187.04,230.175 195.945,233.29 203.285,237.31 C218.065,245.43 227.06,256.11 225.36,258.405" fill="#1A1919"/>
    <path d="M310.685,258.405 C308.99,256.11 317.985,245.43 332.76,237.315 C340.1,233.295 349.005,230.175 357.64,229.285 C366.26,228.295 374.27,229.615 379.085,231.25 C388.92,234.41 395.97,241.09 399.065,246.845 C402.26,252.65 401.995,257.52 399.435,259.09 C394.285,262.15 384.2,255.65 372.325,252.05 C369.325,251.055 364.555,249.7 358.535,249.42 C352.545,249.09 345.35,249.985 338.47,251.69 C324.66,255.05 312.46,260.975 310.685,258.405" fill="#1A1919"/>
    <path d="M221.82,307.02 C221.82,307.02 211.255,273.26 176.745,279.45 C148.85,284.46 148.57,320.105 148.57,320.105 M220.065,565.205 C196.07,555.72 172.595,540.8 155.375,524.805 C124.015,495.66 102.385,440.86 95.385,384.17 C87.05,316.725 103.42,222.135 103.42,222.135 C103.42,222.135 150.17,132.8 242.7,110.76 C242.7,110.76 179.58,147.955 155.915,195.485 C155.915,195.485 266.365,114.9 358.18,110.76 C358.18,110.76 409.005,136.25 432.81,222.135 C432.81,222.135 449.17,316.725 440.84,384.17 C433.845,440.86 415.57,493.915 382.02,524.805 C352.925,551.58 306.69,575.605 268.11,575.605 C253.07,575.605 236.445,571.67 220.065,565.205 M314.225,307.02 C314.225,307.02 324.795,273.26 359.305,279.45 C387.195,284.46 387.475,320.105 387.475,320.105 M443.76,317.44 C443.76,317.44 451.12,299.18 467.455,303.525 C487.765,308.915 501.935,339.245 482.58,385.085 C465.995,424.375 447.85,433.435 435.65,429.53 M471.78,328.005 C471.78,328.005 451.12,324.665 442.7,363.75 M92.465,317.44 C92.465,317.44 85.1,299.18 68.775,303.525 C48.455,308.915 34.295,339.245 53.645,385.085 C70.235,424.375 88.38,433.435 100.58,429.53 M64.445,328.005 C64.445,328.005 85.1,324.665 93.525,363.75 M468.195,303.16 C468.195,303.16 486.37,262.305 486.28,199.615 C486.22,163.77 470.885,112.555 447.025,91.47 C415.08,63.23 384.42,68.74 384.42,68.74 C397.515,42.565 370.62,1.235 306.715,5.37 C230.455,10.3 139.935,59.035 98.54,101.12 C66.01,134.18 53.92,163.77 53.855,199.615 C53.77,262.305 71.3,302.155 71.3,302.155" fill-opacity="0" stroke="#1A1919" stroke-width="8" stroke-linecap="round" stroke-linejoin="round"/>
    <path d="M267.825,526.64 C226.13,526.64 201.31,453.72 201.31,453.72 C201.31,453.72 223.55,459.755 267.4,459.755 C311.26,459.755 333.065,453.72 333.065,453.72 C333.065,453.72 309.52,526.64 267.825,526.64 z" fill-opacity="0" stroke="#1A1919" stroke-width="7" stroke-linecap="round" stroke-linejoin="round"/>
    <path d="M215.48,325.115 C215.48,341.14 204.915,354.14 191.89,354.14 C178.855,354.14 168.29,341.14 168.29,325.115 C168.29,309.09 178.855,296.09 191.89,296.09 C204.915,296.09 215.48,309.09 215.48,325.115" fill="#1A1919"/>
    <path d="M320.565,325.115 C320.565,341.14 331.13,354.14 344.16,354.14 C357.19,354.14 367.755,341.14 367.755,325.115 C367.755,309.09 357.19,296.09 344.16,296.09 C331.13,296.09 320.565,309.09 320.565,325.115" fill="#1A1919"/>
    <path d="M213.045,311.54 C213.045,315.03 210.535,317.84 207.43,317.84 C204.335,317.84 201.82,315.03 201.82,311.54 C201.82,308.065 204.335,305.24 207.43,305.24 C210.535,305.24 213.045,308.065 213.045,311.54" fill="#FFFFFE"/>
    <path d="M365.625,311.54 C365.625,315.03 363.115,317.84 360.015,317.84 C356.915,317.84 354.4,315.03 354.4,311.54 C354.4,308.065 356.915,305.24 360.015,305.24 C363.115,305.24 365.625,308.065 365.625,311.54" fill="#FFFFFE"/>
    <path d="M323.785,563.24 C324.41,578.535 322.285,606.93 301.675,629 C288.125,643.515 276.97,659.49 269.575,671.845 M191.695,552.175 C186.035,556.98 180.23,563.575 174.935,572.585 C158.855,599.96 152.425,631.19 149.885,653.815 C149.885,653.815 177.5,646.715 217.85,656.325 C234.545,660.3 252.025,688.115 252.025,688.115 M346.68,551.51 C352.585,556.375 358.685,563.155 364.225,572.585 C380.3,599.96 386.735,631.19 389.275,653.815 C389.275,653.815 361.66,646.715 321.31,656.325 C304.615,660.3 287.135,688.115 287.135,688.115 M212.435,563.555 C211.645,578.505 213.25,606.315 234.445,629 C243.855,639.1 258.38,656.99 268.05,672.08" fill-opacity="0" stroke="#1A1919" stroke-width="8" stroke-linecap="round" stroke-linejoin="round"/>
    <path d="M221.595,608.31 C221.595,608.31 243.375,618.27 267.915,618.27 C292.465,618.27 315.45,606.59 315.45,606.59" fill-opacity="0" stroke="#1A1919" stroke-width="7" stroke-linecap="round" stroke-linejoin="round"/>
    <path d="M340.875,652.93 C340.875,652.93 320.875,779.11 269,825.36 C217.125,779.11 197.125,652.93 197.125,652.93" fill-opacity="0" stroke="#1A1919" stroke-width="6"/>
    <path d="M245.705,818.845 L290.005,818.845 L290.005,887.305 L245.705,887.305 z" fill="#DE4541"/>
    <path d="M245.705,850.095 L290.005,850.095 L290.005,887.305 L245.705,887.305 z" fill="#BA3A3A"/>
    <path d="M245.705,818.845 L290.005,818.845 L290.005,887.305 L245.705,887.305 z" fill-opacity="0" stroke="#1A1919" stroke-width="5" stroke-linecap="round" stroke-linejoin="round"/>
    <path d="M255.77,832.245 L279.935,832.245 L279.935,838.905 L255.77,838.905 z" fill="#551818"/>
  </g>
</svg>
