<?xml version="1.0" encoding="UTF-8"?>
<!DOCTYPE svg PUBLIC "-//W3C//DTD SVG 1.1//EN" "http://www.w3.org/Graphics/SVG/1.1/DTD/svg11.dtd">
<svg version="1.1" xmlns="http://www.w3.org/2000/svg" xmlns:xlink="http://www.w3.org/1999/xlink" x="0" y="0" width="745" height="750" viewBox="0, 0, 745, 750">
  <g id="Layer_1">
    <g>
      <path d="M300.705,32.095 C300.705,32.095 305.045,43.915 343.76,47.95 C361.155,49.77 353.81,54.405 337.865,55.04 C314.435,55.975 285.71,54.19 277.725,44.65 L300.705,32.095" fill="#FFFFFE"/>
      <path d="M207.205,264.68 C207.205,264.68 172.995,131.545 241.575,82.61 C241.575,82.61 254.705,59.57 303.045,32.22 C365.15,-2.9 451.08,11.525 464.25,54.18 C464.25,54.18 502.475,60.135 526.78,94.95 C549.985,128.195 558.34,169.6 546.85,263.685 L537.65,279.16 L216.48,282.51 L207.205,264.68" fill="#1A1919"/>
      <path d="M238.44,91.3 C238.44,91.3 251.565,68.25 299.91,40.9 C362.01,5.77 447.945,20.205 461.115,62.86 C461.115,62.86 497.505,71.01 528.585,108.79 C534.58,116.075 538.57,124.725 542.305,133.915 C538.11,114.835 531.145,100.04 521.76,86.59 C497.455,51.775 459.24,45.815 459.24,45.815 C446.06,3.165 360.13,-11.26 298.03,23.86 C249.685,51.21 236.555,74.25 236.555,74.25 C167.975,123.185 202.19,256.32 202.19,256.32 L205.84,263.34 C199.26,227.06 184.02,130.115 238.44,91.3" fill="#FFFFFE"/>
      <path d="M202.19,256.32 C202.19,256.32 170.48,123.185 239.065,74.25 C239.065,74.25 249.685,51.21 298.03,23.86 C360.13,-11.26 446.06,3.165 459.24,45.815 C459.24,45.815 495.785,51.775 520.085,86.59 C543.295,119.835 553.325,161.24 541.83,255.325" fill-opacity="0" stroke="#1A1919" stroke-width="7" stroke-linecap="round" stroke-linejoin="round"/>
    </g>
    <path d="M645.725,515.455 C635.91,511.225 633.89,515.995 633.89,515.995 C633.89,515.995 628.64,532.94 622.37,553.25 C617.015,560.545 611.14,578.86 606.09,596.25 L602.95,603.41 C602.95,603.41 554.835,541.8 530.685,524.885 L515.24,636.135 C515.24,636.135 568.275,683.46 608.425,697.04 C623.595,702.175 635.95,699.59 650,677.035 C657.585,664.86 678.36,616.13 684.35,583.215 C684.35,583.365 694.24,550.505 694.37,549.4 C695.86,542.52 687.19,537.29 687.19,537.29 L645.725,515.455" fill="#FFFFFE"/>
    <path d="M96.21,515.455 C106.025,511.225 108.05,515.995 108.05,515.995 C108.05,515.995 113.3,532.94 119.57,553.25 C124.925,560.545 130.8,578.86 135.845,596.25 L138.99,603.41 C138.99,603.41 187.1,541.8 209.17,525.72 L224.615,636.97 C224.615,636.97 173.665,683.46 133.515,697.04 C118.345,702.175 105.99,699.59 91.94,677.035 C84.355,664.86 63.575,616.13 57.59,583.215 C57.59,583.365 47.695,550.505 47.57,549.4 C46.075,542.52 54.75,537.29 54.75,537.29 L96.21,515.455" fill="#FFFFFE"/>
    <path d="M224.615,636.97 L175.065,594.655 L208.92,525.905 C238.84,505.535 311.18,484.745 311.18,484.745 L430.58,484.745 C430.58,484.745 502.92,505.535 532.84,525.905 C550.335,537.815 562.2,542.985 566.695,594.655 C567.905,608.49 516.935,637.395 516.935,637.395 L510.265,746.5 L238.25,746.5 L224.615,636.97" fill="#FFFFFE"/>
    <path d="M399.215,450.07 C399.215,450.07 398.925,469.28 405.235,477.255 C405.235,477.255 387.865,517.94 370.88,517.94 C353.9,517.94 336.525,477.255 336.525,477.255 C342.84,469.28 342.545,450.07 342.545,450.07 L399.215,450.07" fill="#F7CCAF"/>
    <path d="M344.25,451.3 L396.45,451.3 L399.865,467.225 C399.865,467.225 371.88,489.66 334.21,481.395 L344.25,451.3" fill="#DB9D88"/>
    <path d="M395.675,517.94 L377.97,554.11 L398.09,674.47 L343.675,674.47 L363.79,554.11 L346.085,517.94" fill="#286AA6"/>
    <path d="M395.675,517.94 L377.97,554.11 L398.09,674.47 L343.675,674.47 L363.79,554.11 L346.085,517.94" fill-opacity="0" stroke="#1A1919" stroke-width="6" stroke-linecap="round" stroke-linejoin="round"/>
    <path d="M363.79,554.11 C363.79,554.11 369.36,548.36 377.97,554.11" fill="#D8232A"/>
    <path d="M363.79,554.11 C363.79,554.11 369.36,548.36 377.97,554.11" fill-opacity="0" stroke="#1A1919" stroke-width="5" stroke-linecap="round" stroke-linejoin="round"/>
    <path d="M342.545,450.07 C342.545,450.07 342.84,469.28 336.525,477.255 M399.215,450.07 C399.215,450.07 398.925,469.28 405.235,477.255" fill-opacity="0" stroke="#1A1919" stroke-width="7" stroke-linecap="round" stroke-linejoin="round"/>
    <path d="M370.85,518.61 C343.675,492.825 336.175,472.045 339.835,461.63 C339.835,461.63 330.15,467.255 323.275,482.985 C308.975,515.69 321.525,544.455 323.045,553.385 C323.045,553.385 355.15,517.94 370.85,518.61" fill="#FFFFFE"/>
    <path d="M370.85,518.61 C343.675,492.825 336.175,472.045 339.835,461.63 C339.835,461.63 330.15,467.255 323.275,482.985 C308.975,515.69 321.525,544.455 323.045,553.385 C323.045,553.385 355.15,517.94 370.85,518.61 z" fill-opacity="0" stroke="#1A1919" stroke-width="7" stroke-linecap="round" stroke-linejoin="round"/>
    <path d="M370.91,518.61 C399.21,492.985 405.59,472.045 401.925,461.63 C401.925,461.63 411.615,467.255 418.49,482.985 C432.785,515.69 420.235,544.455 418.72,553.385 C418.72,553.385 385.46,517.94 370.91,518.61" fill="#FFFFFE"/>
    <path d="M370.91,518.61 C399.21,492.985 405.59,472.045 401.925,461.63 C401.925,461.63 411.615,467.255 418.49,482.985 C432.785,515.69 420.235,544.455 418.72,553.385 C418.72,553.385 385.46,517.94 370.91,518.61 z M323.93,481.555 C323.93,481.555 238.84,505.535 208.92,525.905 M221.09,588.82 C222.34,594.655 233.8,731.82 233.8,731.82 M520.675,588.82 C519.425,594.655 507.96,731.82 507.96,731.82 M138.99,603.41 C138.99,603.41 187.1,541.8 209.17,525.72 M96.21,515.455 C106.025,511.225 108.05,515.995 108.05,515.995 C108.05,515.995 113.3,532.94 119.57,553.25 C129.555,566.84 143.615,624.52 142.97,623.245 M54.75,537.29 C54.75,537.29 46.075,542.52 47.57,549.4 C47.695,550.505 57.59,583.365 57.59,583.215 C63.575,616.13 84.355,664.86 91.94,677.035 C105.99,699.59 118.345,702.175 133.515,697.04 C173.665,683.46 224.615,636.97 224.615,636.97" fill-opacity="0" stroke="#1A1919" stroke-width="7" stroke-linecap="round" stroke-linejoin="round"/>
    <path d="M58.79,585.75 C58.79,585.75 63.965,590.73 77.68,588.005 C101.13,583.365 119.685,565.865 118.78,553.44" fill-opacity="0" stroke="#1A1919" stroke-width="6" stroke-linecap="round" stroke-linejoin="round"/>
    <path d="M46.13,519.95 C46.13,519.95 34.345,508.52 22.945,495.62 C13.64,485.11 1.95,466.725 3.715,453.62 C5.49,440.455 14.87,426.205 27.17,424.88 C27.17,424.88 31.24,414.535 39.58,412.67 C39.58,412.67 41.335,402.945 54.83,401.79 C54.83,401.79 59.305,394.33 68.125,393.33 C76.955,392.33 86.475,391.11 92.175,400.57 C99.065,412.045 99.435,432.7 99.435,432.7 C99.435,432.7 109.325,429.3 112.17,439.405 C115.965,452.85 116.795,472.09 107.4,488.765 C100.585,500.86 95.12,505.605 95.12,505.605 L103.6,532.39 C103.6,532.39 94.555,542.16 85.06,546.35 C72.455,551.915 59.645,553.85 59.645,553.85 L46.13,519.95" fill="#F8D2B5"/>
    <path d="M43.49,484.57 C54.565,482.185 65.43,469.26 68.27,466.355 C71.115,463.46 72.48,456.275 72.48,456.275 L82.76,458.585 C82.76,458.585 79.12,466.19 76.565,469.44 C74.005,472.68 74.05,491.165 74.05,491.165 C74.05,491.165 52.545,483.245 43.49,484.57" fill="#D39985"/>
    <g>
      <path d="M101.935,531.555 L94.41,505.37 C94.41,505.37 100.585,500.86 107.4,488.765 C116.795,472.09 115.965,452.85 112.17,439.405 C109.325,429.3 99.435,432.7 99.435,432.7 C99.435,432.7 99.065,412.045 92.175,400.57 C86.475,391.11 76.955,392.33 68.125,393.33 C59.305,394.33 54.83,401.79 54.83,401.79 C41.335,402.945 39.58,412.67 39.58,412.67 C31.24,414.535 27.17,424.88 27.17,424.88 C14.87,426.205 5.49,440.455 3.715,453.62 C1.95,466.725 11.36,480.685 19.85,491.86 C29.64,504.76 46.76,519.325 46.76,519.325 L59.645,551.555" fill-opacity="0" stroke="#1A1919" stroke-width="7" stroke-linecap="round" stroke-linejoin="round"/>
      <path d="M27.945,424.665 C27.945,424.665 42.305,422.085 46.57,429.195 C49.99,434.9 64.925,469.195 57.87,474.875 C50.82,480.565 41.945,485 35.235,484.665 C28.505,484.345 26.03,482.515 29.805,477.185 C33.58,471.845 39.92,466.865 39.92,466.865 C39.92,466.865 31.79,457.05 31.06,450.685 C31.06,450.685 28.02,457.605 21.975,461.815 M39.58,412.67 C39.58,412.67 55.05,410.3 60.03,416.72 C67.395,426.225 69.965,439.185 69.965,439.185 M54.83,401.79 C54.83,401.79 72.23,398.685 78.015,406.495 C83.105,413.355 86.365,434.665 86.365,434.665 M99.435,432.7 C99.435,432.7 71.59,435.295 67.85,441.855 C64.115,448.41 66.08,457.505 95.43,458.555 M71.22,455.46 C71.22,455.46 73.475,471.125 60.275,473.13 M82.735,459.745 C82.735,459.745 68.91,476.405 74.37,489.495" fill-opacity="0" stroke="#1A1919" stroke-width="6" stroke-linecap="round" stroke-linejoin="round"/>
    </g>
    <path d="M48.615,550.005 C48.615,550.005 53.255,556.28 67.965,552.56 C90.265,546.915 108.81,533.1 109.01,520.72 M418.01,481.555 C418.01,481.555 503.1,505.535 533.02,525.905 M602.95,603.41 C602.95,603.41 554.835,541.8 532.765,525.72 M645.725,515.455 C635.91,511.225 633.89,515.995 633.89,515.995 C633.89,515.995 628.64,532.94 622.37,553.25 C612.385,566.84 598.325,624.52 598.965,623.245 M687.19,537.29 C687.19,537.29 695.86,542.52 694.37,549.4 C694.24,550.505 684.35,583.365 684.35,583.215 C678.36,616.13 657.585,664.86 650,677.035 C635.95,699.59 623.595,702.175 608.425,697.04 C568.275,683.46 517.325,636.97 517.325,636.97" fill-opacity="0" stroke="#1A1919" stroke-width="7" stroke-linecap="round" stroke-linejoin="round"/>
    <path d="M683.145,585.75 C683.145,585.75 677.97,590.73 664.26,588.005 C640.815,583.365 622.25,565.865 623.155,553.44" fill-opacity="0" stroke="#1A1919" stroke-width="6" stroke-linecap="round" stroke-linejoin="round"/>
    <path d="M695.81,519.95 C695.81,519.95 707.59,508.52 718.995,495.62 C728.3,485.11 739.995,466.725 738.225,453.62 C736.45,440.455 727.075,426.205 714.77,424.88 C714.77,424.88 710.7,414.535 702.355,412.67 C702.355,412.67 700.605,402.945 687.11,401.79 C687.11,401.79 682.635,394.33 673.81,393.33 C664.985,392.33 655.46,391.11 649.77,400.57 C642.875,412.045 642.5,432.7 642.5,432.7 C642.5,432.7 632.615,429.3 629.77,439.405 C625.97,452.85 625.145,472.09 634.535,488.765 C641.35,500.86 646.82,505.605 646.82,505.605 L638.335,532.39 C638.335,532.39 647.385,542.16 656.875,546.35 C669.485,551.915 682.295,553.85 682.295,553.85 L695.81,519.95" fill="#F8D2B5"/>
    <path d="M698.45,484.57 C687.375,482.185 676.505,469.26 673.665,466.355 C670.825,463.46 669.46,456.275 669.46,456.275 L659.18,458.585 C659.18,458.585 662.82,466.19 665.375,469.44 C667.93,472.68 667.895,491.165 667.895,491.165 C667.895,491.165 689.395,483.245 698.45,484.57" fill="#D39985"/>
    <g>
      <path d="M640,531.555 L647.525,505.37 C647.525,505.37 641.35,500.86 634.535,488.765 C625.145,472.09 625.97,452.85 629.77,439.405 C632.615,429.3 642.5,432.7 642.5,432.7 C642.5,432.7 642.875,412.045 649.77,400.57 C655.46,391.11 664.985,392.33 673.81,393.33 C682.635,394.33 687.11,401.79 687.11,401.79 C700.605,402.945 702.355,412.67 702.355,412.67 C710.7,414.535 714.77,424.88 714.77,424.88 C727.075,426.205 736.45,440.455 738.225,453.62 C739.995,466.725 730.58,480.685 722.09,491.86 C712.295,504.76 695.18,519.325 695.18,519.325 L682.295,551.555" fill-opacity="0" stroke="#1A1919" stroke-width="7" stroke-linecap="round" stroke-linejoin="round"/>
      <path d="M713.995,424.665 C713.995,424.665 699.63,422.085 695.365,429.195 C691.95,434.9 677.015,469.195 684.065,474.875 C691.12,480.565 699.995,485 706.7,484.665 C713.43,484.345 715.91,482.515 712.13,477.185 C708.36,471.845 702.015,466.865 702.015,466.865 C702.015,466.865 710.15,457.05 710.88,450.685 C710.88,450.685 713.92,457.605 719.965,461.815 M702.355,412.67 C702.355,412.67 686.885,410.3 681.905,416.72 C674.545,426.225 671.975,439.185 671.975,439.185 M687.11,401.79 C687.11,401.79 669.71,398.685 663.925,406.495 C658.83,413.355 655.58,434.665 655.58,434.665 M642.5,432.7 C642.5,432.7 670.345,435.295 674.085,441.855 C677.825,448.41 675.855,457.505 646.505,458.555 M670.72,455.46 C670.72,455.46 668.465,471.125 681.665,473.13 M659.2,459.745 C659.2,459.745 673.03,476.405 667.57,489.495" fill-opacity="0" stroke="#1A1919" stroke-width="6" stroke-linecap="round" stroke-linejoin="round"/>
    </g>
    <path d="M693.325,550.005 C693.325,550.005 688.685,556.28 673.97,552.56 C651.67,546.915 633.125,533.1 632.93,520.72" fill-opacity="0" stroke="#1A1919" stroke-width="7" stroke-linecap="round" stroke-linejoin="round"/>
    <path d="M230.465,746.5 L220.68,671.975 C253.845,643.295 262.55,603.425 262.55,603.425 C262.55,603.425 254.765,524.225 272.205,491.105 L292.81,483.025 C278.59,539.86 289.12,599.2 289.12,599.2 L452.645,599.2 C452.645,599.2 463.175,539.86 448.95,483.025 L469.56,491.105 C487,524.225 479.21,603.425 479.21,603.425 C479.21,603.425 487.08,643.295 520.245,671.975 L510.46,746.5" fill="#D8232A"/>
    <path d="M512.545,664.595 C484.915,688.225 424.955,712.14 358.665,711.35 C253.04,710.1 222.57,686.395 222.57,686.395 L230.465,746.5 L510.46,746.5 L520.245,671.975 C517.49,669.59 514.965,667.11 512.545,664.595" fill="#B2282D"/>
    <path d="M230.465,746.5 L220.68,671.975 C253.845,643.295 262.55,603.425 262.55,603.425 C262.55,603.425 254.765,524.225 272.205,491.105 L292.81,483.025 C278.59,539.86 289.12,599.2 289.12,599.2 L452.645,599.2 C452.645,599.2 463.175,539.86 448.95,483.025 L469.56,491.105 C487,524.225 479.21,603.425 479.21,603.425 C479.21,603.425 487.08,643.295 520.245,671.975 L510.46,746.5" fill-opacity="0" stroke="#1A1919" stroke-width="7" stroke-linecap="round" stroke-linejoin="round"/>
    <path d="M387.98,615.62 L467.835,615.62 L467.835,663.075 L387.98,663.075 z" fill="#FFFFFE"/>
    <path d="M387.98,615.62 L467.835,615.62 L467.835,663.075 L387.98,663.075 z" fill-opacity="0" stroke="#1A1919" stroke-width="6" stroke-linecap="round" stroke-linejoin="round"/>
    <path d="M397.95,626.07 L459.355,626.07 L459.355,636.865 L397.95,636.865 z" fill="#BDBEBD"/>
    <path d="M522.315,259.545 C522.315,259.545 553.225,234.77 564.835,273.625 C578.17,318.265 533.47,366.93 513.185,370.735" fill="#F7CCAF"/>
    <path d="M522.315,259.545 C522.315,259.545 553.225,234.77 564.835,273.625 C578.17,318.265 533.47,366.93 513.185,370.735" fill-opacity="0" stroke="#1A1919" stroke-width="7" stroke-linecap="round" stroke-linejoin="round"/>
    <path d="M542.67,316.835 C536.305,331.295 524.27,339.965 515.765,336.23 C507.27,332.495 505.52,317.75 511.885,303.29 C518.24,288.845 530.285,280.16 538.78,283.9 C547.29,287.64 549.015,302.385 542.67,316.835" fill="#DB9D88"/>
    <path d="M551.45,273.03 C551.45,273.03 535.03,265.825 522.315,293.835" fill-opacity="0" stroke="#1A1919" stroke-width="7" stroke-linecap="round" stroke-linejoin="round"/>
    <path d="M220.105,259.545 C220.105,259.545 189.195,234.77 177.59,273.625 C164.255,318.265 208.95,366.93 229.235,370.735" fill="#F7CCAF"/>
    <path d="M220.105,259.545 C220.105,259.545 189.195,234.77 177.59,273.625 C164.255,318.265 208.95,366.93 229.235,370.735" fill-opacity="0" stroke="#1A1919" stroke-width="7" stroke-linecap="round" stroke-linejoin="round"/>
    <path d="M194.6,316 C200.96,330.45 213,339.135 221.505,335.405 C230.005,331.655 231.75,316.92 225.385,302.46 C219.03,288.015 206.985,279.325 198.49,283.07 C189.985,286.805 188.255,301.545 194.6,316" fill="#DB9D88"/>
    <path d="M190.97,273.03 C190.97,273.03 207.385,265.825 220.105,293.835" fill-opacity="0" stroke="#1A1919" stroke-width="7" stroke-linecap="round" stroke-linejoin="round"/>
    <path d="M496.32,119.035 C534.67,221.02 529.39,361.045 490.395,412.81 C460.285,452.775 419.72,471.53 371.21,471.53 C322.705,471.53 282.14,452.775 252.03,412.81 C211.1,358.48 207.7,204.58 252.45,103.035 L253.3,101.965 C291.375,75.81 349.465,74.075 349.465,74.075 C349.465,74.075 313.345,91.465 318.55,97.14 C323.955,103.035 358.575,105.96 390.445,96.92 C436.45,83.865 447.945,65.21 447.945,65.21 C447.945,65.21 450.855,103.72 497.805,119.66" fill="#F7CCAF"/>
    <path d="M496.32,119.035 C534.67,221.02 529.39,361.045 490.395,412.81 C460.285,452.775 419.72,471.53 371.21,471.53 C322.705,471.53 282.14,452.775 252.03,412.81 C211.1,358.48 207.7,204.58 252.45,103.035 L253.3,101.965 C291.375,75.81 349.465,74.075 349.465,74.075 C349.465,74.075 313.345,91.465 318.55,97.14 C323.955,103.035 358.575,105.96 390.445,96.92 C436.45,83.865 447.945,65.21 447.945,65.21 C447.945,65.21 450.855,103.72 497.805,119.66" fill-opacity="0" stroke="#1A1919" stroke-width="7" stroke-linecap="round" stroke-linejoin="round"/>
    <path d="M278.02,287.51 C278.02,294.91 266.195,300.91 251.61,300.91 C237.025,300.91 225.195,294.91 225.195,287.51 C225.195,280.105 237.025,274.12 251.61,274.12 C266.195,274.12 278.02,280.105 278.02,287.51" fill="#EA8F80"/>
    <path d="M509.69,287.51 C509.69,294.91 497.87,300.91 483.285,300.91 C468.705,300.91 456.865,294.91 456.865,287.51 C456.865,280.105 468.705,274.12 483.285,274.12 C497.87,274.12 509.69,280.105 509.69,287.51" fill="#EA8F80"/>
    <path d="M244.08,110.64 C246.98,107.99 250.065,105.53 253.3,103.26 M497.805,121.415 C499.595,122.04 501.44,122.625 503.355,123.185" fill-opacity="0" stroke="#1A1919" stroke-width="7" stroke-linecap="round" stroke-linejoin="round"/>
    <path d="M341.385,242.92 C341.385,264.695 327.48,282.345 310.33,282.345 C293.16,282.345 279.26,264.695 279.26,242.92 C279.26,221.125 293.16,203.465 310.33,203.465 C327.48,203.465 341.385,221.125 341.385,242.92" fill="#FFFFFE"/>
    <path d="M334.705,244.9 C334.705,257.205 327.095,267.21 317.705,267.21 C308.305,267.21 300.685,257.205 300.685,244.9 C300.685,232.58 308.305,222.6 317.705,222.6 C327.095,222.6 334.705,232.58 334.705,244.9" fill="#1A1919"/>
    <path d="M278.6,235.555 C278.6,235.555 281.905,211.495 304.375,204.8 C330.675,196.98 337.415,223.53 337.415,223.53 C337.415,223.53 323.725,213.34 307.41,217.505 C292.02,221.425 278.6,235.555 278.6,235.555" fill="#D8E9F1"/>
    <path d="M337.415,223.53 C337.415,223.53 330.675,196.98 304.375,204.8 C281.905,211.495 278.6,235.555 278.6,235.555" fill-opacity="0" stroke="#1A1919" stroke-width="7" stroke-linecap="round" stroke-linejoin="round"/>
    <path d="M335.09,233.025 C335.09,235.93 332.755,238.285 329.88,238.285 C327.005,238.285 324.675,235.93 324.675,233.025 C324.675,230.125 327.005,227.765 329.88,227.765 C332.755,227.765 335.09,230.125 335.09,233.025" fill="#FFFFFE"/>
    <path d="M399.84,243.065 C399.84,264.855 413.755,282.505 430.9,282.505 C448.065,282.505 461.965,264.855 461.965,243.065 C461.965,221.28 448.065,203.625 430.9,203.625 C413.755,203.625 399.84,221.28 399.84,243.065" fill="#FFFFFE"/>
    <path d="M406.385,245.11 C406.385,257.41 413.995,267.425 423.39,267.425 C432.785,267.425 440.405,257.41 440.405,245.11 C440.405,232.795 432.785,222.81 423.39,222.81 C413.995,222.81 406.385,232.795 406.385,245.11" fill="#1A1919"/>
    <path d="M462.63,235.71 C462.63,235.71 459.325,211.645 436.85,204.955 C410.555,197.135 403.805,223.68 403.805,223.68 C403.805,223.68 417.505,213.495 433.82,217.655 C449.205,221.57 462.63,235.71 462.63,235.71" fill="#D8E9F1"/>
    <path d="M403.805,223.68 C403.805,223.68 410.555,197.135 436.85,204.955 C459.325,211.645 462.63,235.71 462.63,235.71" fill-opacity="0" stroke="#1A1919" stroke-width="7" stroke-linecap="round" stroke-linejoin="round"/>
    <path d="M428.58,233.24 C428.58,236.14 430.92,238.49 433.795,238.49 C436.66,238.49 438.995,236.14 438.995,233.24 C438.995,230.33 436.66,227.98 433.795,227.98 C430.92,227.98 428.58,230.33 428.58,233.24" fill="#FFFFFE"/>
    <path d="M344.865,175.765 C343.365,177.075 335.295,167.895 323.87,162.065 C318.205,159.17 311.835,157.77 306.31,158.525 C300.765,159.175 296.01,161.58 292.735,163.57 C286.16,167.545 280.525,172.55 276.165,176.09 C271.805,179.66 268.685,181.825 267.12,180.91 C265.565,180.015 266.03,175.875 268.95,170.31 C271.875,164.82 277.29,157.68 285.99,152.375 C290.255,149.775 297.245,146.655 305.605,146.5 C313.97,146.2 322.64,149.595 328.73,154.205 C334.95,158.78 339.225,164.125 341.865,168.205 C344.5,172.325 345.555,175.235 344.865,175.765" fill="#1A1919"/>
    <path d="M397.14,175.765 C396.45,175.235 397.505,172.325 400.14,168.21 C402.78,164.125 407.06,158.78 413.275,154.205 C419.365,149.595 428.035,146.205 436.4,146.5 C444.76,146.655 451.745,149.775 456.015,152.375 C464.715,157.68 470.125,164.82 473.05,170.315 C475.97,175.875 476.435,180.02 474.88,180.91 C473.315,181.825 470.195,179.66 465.835,176.09 C461.47,172.55 455.845,167.545 449.265,163.57 C445.995,161.58 441.24,159.175 435.69,158.525 C430.17,157.775 423.8,159.175 418.135,162.07 C406.71,167.9 398.64,177.08 397.14,175.765" fill="#1A1919"/>
    <path d="M369.54,300.06 L369.54,290.86 M294.935,343.445 C311.63,365.465 338.085,379.69 367.875,379.69 C397.665,379.69 424.12,365.465 440.815,343.445 M440.04,339.935 L450.255,348.445 M299.22,339.935 L289.005,348.445" fill-opacity="0" stroke="#1A1919" stroke-width="7" stroke-linecap="round" stroke-linejoin="round"/>
  </g>
</svg>
