<?xml version="1.0" encoding="UTF-8"?>
<!DOCTYPE svg PUBLIC "-//W3C//DTD SVG 1.1//EN" "http://www.w3.org/Graphics/SVG/1.1/DTD/svg11.dtd">
<svg version="1.1" xmlns="http://www.w3.org/2000/svg" xmlns:xlink="http://www.w3.org/1999/xlink" x="0" y="0" width="585" height="760" viewBox="0, 0, 585, 760">
  <g id="Layer_1">
    <path d="M225.67,646.97 L176.12,604.65 L209.98,535.9 C239.895,515.535 312.235,494.745 312.235,494.745 L431.635,494.745 C431.635,494.745 503.98,515.535 533.895,535.9 C551.39,547.815 563.255,552.98 567.755,604.65 C571.265,644.965 577.16,756.495 577.16,756.495 L239.305,756.495 L225.67,646.97" fill="#FFFFFE"/>
    <path d="M400.275,460.065 C400.275,460.065 399.98,479.28 406.295,487.255 C406.295,487.255 388.92,527.94 371.94,527.94 C354.955,527.94 337.585,487.255 337.585,487.255 C343.895,479.28 343.605,460.065 343.605,460.065 L400.275,460.065" fill="#F7CCAF"/>
    <g>
      <path d="M345.31,461.295 L397.505,461.295 L400.925,477.225 C400.925,477.225 372.935,499.66 335.27,491.395 L345.31,461.295" fill="#DB9D88"/>
      <path d="M207.715,267.11 C207.715,267.11 173.505,133.975 242.085,85.045 C242.085,85.045 255.215,62.005 303.56,34.655 C365.66,-0.465 451.59,13.96 464.76,56.615 C464.76,56.615 502.985,62.57 527.29,97.385 C550.495,130.63 558.855,172.035 547.36,266.12 L538.16,281.595 L216.99,284.945 L207.715,267.11" fill="#1A1919"/>
      <path d="M238.95,93.735 C238.95,93.735 252.075,70.685 300.425,43.335 C362.52,8.205 448.455,22.64 461.625,65.295 C461.625,65.295 498.015,73.445 529.095,111.225 C535.09,118.51 539.08,127.16 542.815,136.35 C538.62,117.27 531.655,102.475 522.27,89.025 C497.965,54.21 459.75,48.25 459.75,48.25 C446.57,5.6 360.64,-8.825 298.54,26.295 C250.195,53.645 237.065,76.685 237.065,76.685 C168.485,125.62 202.7,258.755 202.7,258.755 L210.51,266.45 C199.18,197.42 208.28,115.61 238.95,93.735" fill="#E4E4E3"/>
    </g>
    <path d="M396.735,527.94 L379.03,564.11 L399.145,684.47 L344.73,684.47 L364.85,564.11 L347.145,527.94" fill="#286AA6"/>
    <path d="M396.735,527.94 L379.03,564.11 L399.145,684.47 L344.73,684.47 L364.85,564.11 L347.145,527.94" fill-opacity="0" stroke="#1A1919" stroke-width="6" stroke-linecap="round" stroke-linejoin="round"/>
    <path d="M301.215,34.53 C301.215,34.53 305.55,46.35 344.27,50.385 C361.665,52.205 354.32,56.84 338.375,57.475 C314.945,58.41 286.22,56.625 278.235,47.085 L301.215,34.53" fill="#E4E4E3"/>
    <path d="M364.85,564.11 C364.85,564.11 370.415,558.36 379.03,564.11" fill="#D8232A"/>
    <path d="M364.85,564.11 C364.85,564.11 370.415,558.36 379.03,564.11" fill-opacity="0" stroke="#1A1919" stroke-width="5" stroke-linecap="round" stroke-linejoin="round"/>
    <path d="M97.27,525.45 C107.085,521.225 109.11,525.995 109.11,525.995 C109.11,525.995 114.355,542.94 120.625,563.25 C125.985,570.545 131.855,588.86 136.905,606.25 L140.045,613.405 C140.045,613.405 188.16,551.8 210.225,535.72 L225.67,646.97 C225.67,646.97 174.72,693.46 134.57,707.04 C119.4,712.17 107.05,709.59 92.995,687.035 C85.41,674.855 64.635,626.125 58.645,593.21 C58.645,593.36 48.75,560.5 48.625,559.4 C47.135,552.52 55.805,547.29 55.805,547.29 L97.27,525.45" fill="#FFFFFE"/>
    <path d="M494.095,756.495 L577.16,756.495 L567.755,604.65 C567.755,604.65 540.74,655.1 485.97,659.475 L494.095,756.495" fill="#D3E6E9"/>
    <path d="M343.605,460.065 C343.605,460.065 343.895,479.28 337.585,487.255 M400.275,460.065 C400.275,460.065 399.98,479.28 406.295,487.255" fill-opacity="0" stroke="#1A1919" stroke-width="7" stroke-linecap="round" stroke-linejoin="round"/>
    <path d="M371.91,528.605 C344.73,502.825 337.23,482.045 340.895,471.63 C340.895,471.63 331.205,477.255 324.33,492.98 C310.035,525.685 322.585,554.45 324.1,563.38 C324.1,563.38 356.205,527.94 371.91,528.605" fill="#FFFFFE"/>
    <path d="M371.91,528.605 C344.73,502.825 337.23,482.045 340.895,471.63 C340.895,471.63 331.205,477.255 324.33,492.98 C310.035,525.685 322.585,554.45 324.1,563.38 C324.1,563.38 356.205,527.94 371.91,528.605 z" fill-opacity="0" stroke="#1A1919" stroke-width="7" stroke-linecap="round" stroke-linejoin="round"/>
    <path d="M371.97,528.605 C400.27,502.98 406.645,482.045 402.985,471.63 C402.985,471.63 412.67,477.255 419.545,492.98 C433.845,525.685 421.295,554.45 419.775,563.38 C419.775,563.38 386.52,527.94 371.97,528.605" fill="#FFFFFE"/>
    <g>
      <path d="M371.97,528.605 C400.27,502.98 406.645,482.045 402.985,471.63 C402.985,471.63 412.67,477.255 419.545,492.98 C433.845,525.685 421.295,554.45 419.775,563.38 C419.775,563.38 386.52,527.94 371.97,528.605 z M324.985,491.55 C324.985,491.55 239.895,515.535 209.98,535.9 M419.545,492.98 C419.545,492.98 503.98,515.535 533.895,535.9 C551.39,547.815 563.255,552.98 567.755,604.65 C571.265,644.965 577.16,756.495 577.16,756.495 M222.145,598.815 C223.395,604.65 234.855,741.82 234.855,741.82 M521.735,598.815 C520.485,604.65 509.02,741.82 509.02,741.82" fill-opacity="0" stroke="#1A1919" stroke-width="7" stroke-linecap="round" stroke-linejoin="round"/>
      <path d="M522.825,269.69 C522.825,269.69 553.735,244.915 565.345,283.77 C578.68,328.41 533.98,377.075 513.695,380.88" fill="#F7CCAF"/>
      <path d="M522.825,269.69 C522.825,269.69 553.735,244.915 565.345,283.77 C578.68,328.41 533.98,377.075 513.695,380.88" fill-opacity="0" stroke="#1A1919" stroke-width="7" stroke-linecap="round" stroke-linejoin="round"/>
    </g>
    <path d="M543.18,326.98 C536.815,341.44 524.78,350.11 516.275,346.375 C507.78,342.64 506.03,327.895 512.395,313.435 C518.75,298.985 530.795,290.305 539.29,294.045 C547.8,297.785 549.525,312.535 543.18,326.98" fill="#DB9D88"/>
    <path d="M551.96,283.175 C551.96,283.175 535.54,275.97 522.825,303.975" fill-opacity="0" stroke="#1A1919" stroke-width="7" stroke-linecap="round" stroke-linejoin="round"/>
    <path d="M220.615,269.69 C220.615,269.69 189.705,244.915 178.1,283.77 C164.765,328.41 209.46,377.075 229.745,380.88" fill="#F7CCAF"/>
    <path d="M220.615,269.69 C220.615,269.69 189.705,244.915 178.1,283.77 C164.765,328.41 209.46,377.075 229.745,380.88" fill-opacity="0" stroke="#1A1919" stroke-width="7" stroke-linecap="round" stroke-linejoin="round"/>
    <path d="M195.11,326.145 C201.47,340.595 213.51,349.28 222.015,345.55 C230.515,341.8 232.26,327.065 225.895,312.605 C219.54,298.155 207.495,289.47 199,293.215 C190.495,296.95 188.765,311.69 195.11,326.145" fill="#DB9D88"/>
    <path d="M191.48,283.175 C191.48,283.175 207.895,275.97 220.615,303.975" fill-opacity="0" stroke="#1A1919" stroke-width="7" stroke-linecap="round" stroke-linejoin="round"/>
    <path d="M496.83,123.205 C535.18,227.79 529.9,371.38 490.905,424.465 C460.795,465.445 420.23,484.68 371.725,484.68 C323.22,484.68 282.65,465.445 252.54,424.465 C211.61,368.755 208.21,210.93 252.96,106.8 L253.81,105.695 C291.885,78.88 349.975,77.105 349.975,77.105 C349.975,77.105 313.855,94.93 319.06,100.75 C324.47,106.8 359.085,109.8 390.955,100.525 C436.96,87.14 448.455,68.01 448.455,68.01 C448.455,68.01 451.365,107.5 498.315,123.85" fill="#F7CCAF"/>
    <path d="M496.83,123.205 C535.18,227.79 529.9,371.38 490.905,424.465 C460.795,465.445 420.23,484.68 371.725,484.68 C323.22,484.68 282.65,465.445 252.54,424.465 C211.61,368.755 208.21,210.93 252.96,106.8 L253.81,105.695 C291.885,78.88 349.975,77.105 349.975,77.105 C349.975,77.105 313.855,94.93 319.06,100.75 C324.47,106.8 359.085,109.8 390.955,100.525 C436.96,87.14 448.455,68.01 448.455,68.01 C448.455,68.01 451.365,107.5 498.315,123.85 M202.7,258.755 C202.7,258.755 170.99,125.62 239.58,76.685 C239.58,76.685 250.195,53.645 298.54,26.295 C360.64,-8.825 446.57,5.6 459.75,48.25 C459.75,48.25 496.295,54.21 520.595,89.025 C543.805,122.27 553.835,163.675 542.34,257.76" fill-opacity="0" stroke="#1A1919" stroke-width="7" stroke-linecap="round" stroke-linejoin="round"/>
    <path d="M278.53,289.945 C278.53,297.345 266.705,303.345 252.12,303.345 C237.535,303.345 225.705,297.345 225.705,289.945 C225.705,282.54 237.535,276.555 252.12,276.555 C266.705,276.555 278.53,282.54 278.53,289.945" fill="#EA8F80"/>
    <path d="M510.2,289.945 C510.2,297.345 498.38,303.345 483.795,303.345 C469.215,303.345 457.375,297.345 457.375,289.945 C457.375,282.54 469.215,276.555 483.795,276.555 C498.38,276.555 510.2,282.54 510.2,289.945" fill="#EA8F80"/>
    <path d="M244.595,113.075 C247.495,110.425 250.575,107.965 253.81,105.695 M498.315,123.85 C500.105,124.475 501.95,125.06 503.865,125.62" fill-opacity="0" stroke="#1A1919" stroke-width="7" stroke-linecap="round" stroke-linejoin="round"/>
    <path d="M341.9,245.355 C341.9,267.13 327.99,284.78 310.84,284.78 C293.665,284.78 279.77,267.13 279.77,245.355 C279.77,223.555 293.665,205.9 310.84,205.9 C327.99,205.9 341.9,223.555 341.9,245.355" fill="#FFFFFE"/>
    <path d="M335.215,247.335 C335.215,259.64 327.605,269.645 318.22,269.645 C308.815,269.645 301.195,259.64 301.195,247.335 C301.195,235.015 308.815,225.03 318.22,225.03 C327.605,225.03 335.215,235.015 335.215,247.335" fill="#1A1919"/>
    <path d="M279.11,237.99 C279.11,237.99 282.415,213.93 304.89,207.235 C331.185,199.415 337.925,225.965 337.925,225.965 C337.925,225.965 324.235,215.775 307.92,219.94 C292.53,223.86 279.11,237.99 279.11,237.99" fill="#D8E9F1"/>
    <path d="M337.925,225.965 C337.925,225.965 331.185,199.415 304.89,207.235 C282.415,213.93 279.11,237.99 279.11,237.99" fill-opacity="0" stroke="#1A1919" stroke-width="7" stroke-linecap="round" stroke-linejoin="round"/>
    <path d="M335.6,235.46 C335.6,238.36 333.265,240.72 330.385,240.72 C327.515,240.72 325.18,238.36 325.18,235.46 C325.18,232.56 327.515,230.2 330.385,230.2 C333.265,230.2 335.6,232.56 335.6,235.46" fill="#FFFFFE"/>
    <path d="M400.35,245.5 C400.35,267.29 414.265,284.94 431.41,284.94 C448.575,284.94 462.475,267.29 462.475,245.5 C462.475,223.715 448.575,206.055 431.41,206.055 C414.265,206.055 400.35,223.715 400.35,245.5" fill="#FFFFFE"/>
    <path d="M406.895,247.545 C406.895,259.845 414.505,269.86 423.9,269.86 C433.295,269.86 440.915,259.845 440.915,247.545 C440.915,235.225 433.295,225.245 423.9,225.245 C414.505,225.245 406.895,235.225 406.895,247.545" fill="#1A1919"/>
    <path d="M463.14,238.14 C463.14,238.14 459.835,214.08 437.36,207.39 C411.065,199.57 404.315,226.115 404.315,226.115 C404.315,226.115 418.015,215.93 434.33,220.09 C449.715,224.005 463.14,238.14 463.14,238.14" fill="#D8E9F1"/>
    <path d="M404.315,226.115 C404.315,226.115 411.065,199.57 437.36,207.39 C459.835,214.08 463.14,238.14 463.14,238.14" fill-opacity="0" stroke="#1A1919" stroke-width="7" stroke-linecap="round" stroke-linejoin="round"/>
    <path d="M429.09,235.675 C429.09,238.575 431.43,240.925 434.305,240.925 C437.175,240.925 439.505,238.575 439.505,235.675 C439.505,232.765 437.175,230.415 434.305,230.415 C431.43,230.415 429.09,232.765 429.09,235.675" fill="#FFFFFE"/>
    <path d="M231.52,756.495 L221.735,681.975 C254.9,653.295 263.605,613.425 263.605,613.425 C263.605,613.425 255.82,534.22 273.26,501.1 L293.865,493.025 C279.645,549.855 290.175,609.195 290.175,609.195 L453.7,609.195 C453.7,609.195 464.235,549.855 450.01,493.025 L470.615,501.1 C488.055,534.22 480.27,613.425 480.27,613.425 C480.27,613.425 488.14,653.295 521.305,681.975 L511.52,756.495" fill="#D8232A"/>
    <path d="M513.605,674.595 C485.97,698.225 426.01,722.135 359.72,721.35 C254.095,720.1 223.63,696.395 223.63,696.395 L231.52,756.495 L511.52,756.495 L521.305,681.975 C518.545,679.59 516.02,677.11 513.605,674.595" fill="#B2282D"/>
    <path d="M231.52,756.495 L221.735,681.975 C254.9,653.295 263.605,613.425 263.605,613.425 C263.605,613.425 255.82,534.22 273.26,501.1 L293.865,493.025 C279.645,549.855 290.175,609.195 290.175,609.195 L453.7,609.195 C453.7,609.195 464.235,549.855 450.01,493.025 L470.615,501.1 C488.055,534.22 480.27,613.425 480.27,613.425 C480.27,613.425 488.14,653.295 521.305,681.975 L511.52,756.495" fill-opacity="0" stroke="#1A1919" stroke-width="7" stroke-linecap="round" stroke-linejoin="round"/>
    <path d="M389.04,625.62 L468.895,625.62 L468.895,673.075 L389.04,673.075 z" fill="#FFFFFE"/>
    <path d="M389.04,625.62 L468.895,625.62 L468.895,673.075 L389.04,673.075 z" fill-opacity="0" stroke="#1A1919" stroke-width="6" stroke-linecap="round" stroke-linejoin="round"/>
    <path d="M140.045,613.405 C140.045,613.405 188.16,551.8 210.225,535.72 M97.27,525.45 C107.085,521.225 109.11,525.995 109.11,525.995 C109.11,525.995 114.355,542.94 120.625,563.25 C130.61,576.84 144.675,634.52 144.025,633.245 M55.805,547.29 C55.805,547.29 47.135,552.52 48.625,559.4 C48.75,560.5 58.645,593.36 58.645,593.21 C64.635,626.125 85.41,674.855 92.995,687.035 C107.05,709.59 119.4,712.17 134.57,707.04 C174.72,693.46 225.67,646.97 225.67,646.97 M49.675,560.005 C49.675,560.005 54.31,566.275 69.025,562.555 C91.325,556.91 109.865,543.1 110.065,530.72" fill-opacity="0" stroke="#1A1919" stroke-width="7" stroke-linecap="round" stroke-linejoin="round"/>
    <path d="M59.845,595.75 C59.845,595.75 65.025,600.73 78.74,598 C102.185,593.36 120.745,575.86 119.835,563.44" fill-opacity="0" stroke="#1A1919" stroke-width="6" stroke-linecap="round" stroke-linejoin="round"/>
    <path d="M345.375,178.2 C343.875,179.51 335.805,170.33 324.38,164.5 C318.715,161.605 312.345,160.205 306.82,160.96 C301.275,161.61 296.52,164.015 293.245,166.005 C286.67,169.98 281.04,174.985 276.675,178.525 C272.315,182.095 269.195,184.26 267.63,183.345 C266.075,182.45 266.54,178.31 269.46,172.745 C272.385,167.255 277.8,160.115 286.5,154.805 C290.77,152.21 297.76,149.09 306.12,148.935 C314.48,148.64 323.155,152.03 329.245,156.64 C335.46,161.215 339.735,166.56 342.385,170.64 C345.015,174.76 346.07,177.67 345.375,178.2" fill="#1A1919"/>
    <path d="M397.65,178.2 C396.965,177.67 398.015,174.76 400.65,170.645 C403.29,166.56 407.57,161.215 413.785,156.64 C419.875,152.03 428.545,148.64 436.91,148.935 C445.27,149.09 452.255,152.21 456.525,154.805 C465.225,160.115 470.635,167.255 473.56,172.75 C476.48,178.31 476.945,182.455 475.39,183.345 C473.825,184.26 470.705,182.095 466.345,178.525 C461.98,174.985 456.355,169.98 449.775,166.005 C446.505,164.015 441.75,161.61 436.2,160.96 C430.68,160.21 424.31,161.61 418.645,164.505 C407.22,170.335 399.15,179.515 397.65,178.2" fill="#1A1919"/>
    <path d="M369.52,336.535 C412.285,336.535 434.3,325.415 434.3,325.415 C434.685,351.855 428.675,457.13 371.655,457.13 C314.635,457.13 308.63,351.855 309.01,325.415 C309.01,325.415 326.755,336.535 369.52,336.535" fill="#DC6376"/>
    <path d="M372.405,355.035 C394.35,355.035 414.515,364.32 430.745,378.04 C433.815,358.17 434.435,334.37 434.3,325.415 C434.3,325.415 412.285,336.535 369.52,336.535 C326.755,336.535 309.01,325.415 309.01,325.415 C308.87,334.545 309.505,358.84 312.72,379.145 C328.325,363.765 349.86,355.035 372.405,355.035" fill="#B35251"/>
    <path d="M369.52,336.535 C412.285,336.535 434.3,325.415 434.3,325.415 C434.685,351.855 428.675,457.13 371.655,457.13 C314.635,457.13 308.63,351.855 309.01,325.415 C309.01,325.415 326.755,336.535 369.52,336.535 z M370.05,302.495 L370.05,293.295" fill-opacity="0" stroke="#1A1919" stroke-width="7" stroke-linecap="round" stroke-linejoin="round"/>
    <path d="M399.01,636.065 L460.415,636.065 L460.415,646.865 L399.01,646.865 z" fill="#BDBEBD"/>
    <path d="M43.445,417.86 C43.445,417.86 25.335,364.645 16.745,346.595 C8.16,328.54 18.175,318.255 27.77,324.55 C37.345,330.845 44.405,340.785 49.675,363.255 C54.95,385.745 60.095,411.605 60.095,411.605 L43.445,417.86" fill="#F8D2B5"/>
    <g>
      <path d="M42.98,417.745 C42.98,417.745 24.88,364.515 16.305,346.48 C7.71,328.42 17.915,317.845 27.31,324.425 C35.44,330.125 43.27,339.31 49.23,363.135 C54.83,385.54 59.645,411.495 59.645,411.495" fill-opacity="0" stroke="#1A1919" stroke-width="7" stroke-linecap="round" stroke-linejoin="round"/>
      <path d="M94.995,514.25 C94.995,514.25 96.21,523.87 100.58,538.755 L100.96,539.745 C97.205,546.84 86.355,556.635 71.325,560.09 C66.905,561.105 64.07,561.125 62.29,560.855 L61.2,557.37 C57.55,541.9 52.99,531.605 47.765,524.575 C38.78,512.465 -8.355,467.81 7.015,444.785 L8.955,442.335 C8.955,442.335 9.295,430.94 17.565,423.89 L20.075,422.1 C20.075,422.1 32.695,402.99 54.13,400.96 C75.575,398.935 95.085,409.3 90.965,435.245 L94.675,425.22 C103.675,410.61 115.235,408.39 113.945,419.78 C112.655,431.185 110.175,452.225 112.295,463.5 C114.425,474.77 113.92,503.86 89.97,517.63" fill="#F8D2B5"/>
    </g>
    <path d="M88.26,442.14 C88.26,442.14 83.095,460.21 72.25,463.83 C72.25,463.83 63.14,475.23 46.44,477.415 C46.44,477.415 71.915,488.275 74.745,498.1 C74.745,498.1 70.04,468.33 90.325,460.73 L88.26,442.14" fill="#D39985"/>
    <path d="M61.97,562.18 C62.885,567.315 57.04,537.54 47.32,524.445 C38.1,512.015 -11.38,465.245 7.935,442.835 C24.085,424.145 63.175,426.9 67.08,437.3 C70.865,447.37 71.86,469.35 60.385,473.315 C48.9,477.26 34.5,479.585 36.715,469.61 C38.88,459.625 52.67,455.01 52.67,455.01 L33.485,457.69 M8.515,442.22 C8.515,442.22 8.99,425.63 23.335,420.1 C37.66,414.585 64.61,412.055 73.66,420.1 C80.265,426.01 92.39,453.695 70.195,465.05 M91.36,469.44 C91.36,469.44 85.205,439.73 94.23,425.105 C103.235,410.48 114.785,408.265 113.505,419.67 C112.21,431.06 109.74,452.11 111.85,463.37 C113.97,474.62 113.47,503.755 89.52,517.505 M89.63,458.45 C89.63,458.45 69.335,471.49 75.075,498.605 M19.63,421.98 C19.63,421.98 32.24,402.87 53.695,400.845 C75.115,398.81 94.64,409.18 90.52,435.125 M93.195,515.15 C93.195,515.15 95.14,531.765 101.46,545.1" fill-opacity="0" stroke="#1A1919" stroke-width="7" stroke-linecap="round" stroke-linejoin="round"/>
  </g>
</svg>
