<svg width="640" height="802" xmlns="http://www.w3.org/2000/svg" xmlns:xlink="http://www.w3.org/1999/xlink" overflow="hidden"><defs><clipPath id="clip0"><rect x="281" y="-195" width="640" height="802"/></clipPath><clipPath id="clip1"><rect x="438" y="-194" width="482" height="800"/></clipPath><clipPath id="clip2"><rect x="438" y="-194" width="482" height="801"/></clipPath><clipPath id="clip3"><rect x="275" y="-194" width="645" height="801"/></clipPath><clipPath id="clip4"><rect x="282" y="177" width="218" height="245"/></clipPath><clipPath id="clip5"><rect x="378" y="177" width="123" height="246"/></clipPath><clipPath id="clip6"><rect x="378" y="-173" width="539" height="810"/></clipPath><clipPath id="clip7"><rect x="417" y="422" width="503" height="184"/></clipPath><clipPath id="clip8"><rect x="417" y="422" width="503" height="184"/></clipPath><clipPath id="clip9"><rect x="275" y="-193" width="645" height="799"/></clipPath></defs><g clip-path="url(#clip0)" transform="translate(-281 195)"><g clip-path="url(#clip1)"><g clip-path="url(#clip2)"><g clip-path="url(#clip3)"><path d="M521.401 790.532C524.482 780.108 529.527 748.296 534.377 714.601L536.435 700.076 557.238 795.677 610.973 795.677C610.973 795.677 591.543 628.74 586.778 592.712 582.018 556.694 554.951 540.116 537.234 535.541 519.497 530.971 445.954 507.76 445.954 507.76L393.703 512.355C393.703 512.355 336.552 532.684 321.682 535.541 306.818 538.403 286.244 549.262 278.807 565.275 271.369 581.279 226.261 664.168 226.261 664.168L223.119 651.851C218.754 631.107 215.327 612.476 214.853 608.156 213.789 598.426 200.203 602.437 200.203 602.437L160.859 622.751C160.859 622.751 141.264 641.431 146.743 651.726 152.208 662.01 164.46 723.636 167.891 743.646 171.323 763.66 193.13 779.613 210.203 773.38 239.922 762.516 299.505 673.099 299.505 673.099L300.724 682.104C306.678 725.579 314.18 776.751 318.256 790.532L521.401 790.532" fill="#E46E81" transform="matrix(1 0 0 1.00103 275.667 -194)"/><path d="M445.954 516.675 444.865 496.326 445.954 482.945 394.792 485.992 394.792 496.326 393.703 516.675 398.488 575.295 432.787 575.295 445.954 516.675" fill="#F8D4B3" transform="matrix(1 0 0 1.00103 275.667 -194)"/><path d="M394.792 489.723 444.865 489.723 445.284 514.088C445.284 514.088 435.759 528.069 399.542 533.148L393.193 518.544 394.792 489.723" fill="#CF957E" transform="matrix(1 0 0 1.00103 275.667 -194)"/><path d="M420.085 711.119C377.774 711.119 322.257 702.228 300.234 682.324 304.25 709.191 315.708 781.911 318.256 790.532L521.401 790.532C523.943 781.936 535.086 709.94 539.092 683.178 513.259 702.658 462.147 711.119 420.085 711.119" fill="#CE5262" transform="matrix(1 0 0 1.00103 275.667 -194)"/><path d="M420.59 731.069 450.519 568.911 450.519 509.198 420.15 568.087 390.056 513.634 390.056 568.911 419.071 731.069" fill="#FFFFFE" transform="matrix(1 0 0 1.00103 275.667 -194)"/><path d="M390.371 514.573 386.29 516.675 374.857 576.778 412.563 557.263 390.371 514.573" fill="#FFFFFE" transform="matrix(1 0 0 1.00103 275.667 -194)"/><path d="M427.103 557.263 464.804 576.778 453.351 510.087 450.519 509.198 427.103 557.263" fill="#FFFFFE" transform="matrix(1 0 0 1.00103 275.667 -194)"/><path d="M469.544 491.711C553.832 501.496 569.236 456.123 569.236 456.123L580.055 499.408C609.19 475.263 616.048 370.781 616.048 370.781L627.501 277.273C642.275 65.6171 531.355 55.113 531.355 55.113 507.939 2.66724 336.866-34.794 250.835 90.4964 196.467 169.674 206.426 280.34 206.426 280.34L233.928 375.776C233.928 375.776 255.011 453.626 235.222 490.253 235.222 490.253 272.044 482.766 276.204 471.108 276.204 471.108 287.842 495.248 362.77 490.253" fill="#7D4D3F" transform="matrix(1 0 0 1.00103 275.667 -194)"/><path d="M531.355 55.113C507.939 2.66724 336.866-34.794 250.835 90.4964 196.467 169.674 206.426 280.34 206.426 280.34L223.549 276.134C223.549 276.134 214.049 127.658 301.173 63.4394 400.915-10.0796 493.185 36.9268 529.272 54.2838 530.107 54.2838 531.355 55.113 531.355 55.113" fill="#E0B79F" transform="matrix(1 0 0 1.00103 275.667 -194)"/><path d="M249.896 288.926C249.896 288.926 239.812 269.351 220.832 275.285 181.247 287.657 193.939 373.464 259.352 380.866" fill="#F7CCAA" transform="matrix(1 0 0 1.00103 275.667 -194)"/><path d="M587.382 289.256C587.382 289.256 597.467 269.681 616.447 275.615 656.031 287.982 645.512 373.793 579.081 381.196" fill="#F7CCAA" transform="matrix(1 0 0 1.00103 275.667 -194)"/><path d="M585.334 268.637C580.594 279.86 575.779 286.698 575.779 286.698 560.076 165.993 430.21 112.554 430.21 112.554 498.619 172.701 499.198 206.312 499.198 206.312 383.693 212.555 325.913 130.27 325.913 130.27 325.913 130.27 325.308 144.575 317.776 166.423 308.89 192.191 290.3 228.454 251.745 264.127 251.685 264.671 251.655 264.981 251.655 264.981 249.692 297.532 250.211 354.104 265.38 399.507 292.228 479.863 377.889 498.08 418.557 498.08 459.22 498.08 544.886 479.863 571.733 399.507 586.084 356.546 592.357 302.972 585.754 270.45 585.634 269.846 585.464 269.241 585.334 268.637" fill="#F7CCAA" transform="matrix(1 0 0 1.00103 275.667 -194)"/><path d="M374.193 302.747C374.193 327.546 358.779 347.655 339.763 347.655 320.753 347.655 305.329 327.546 305.329 302.747 305.329 277.942 320.753 257.833 339.763 257.833 358.779 257.833 374.193 277.942 374.193 302.747" fill="#FFFFFE" transform="matrix(1 0 0 1.00103 275.667 -194)"/><path d="M533.628 302.747C533.628 327.546 518.214 347.655 499.198 347.655 480.188 347.655 464.769 327.546 464.769 302.747 464.769 277.942 480.188 257.833 499.198 257.833 518.214 257.833 533.628 277.942 533.628 302.747" fill="#FFFFFE" transform="matrix(1 0 0 1.00103 275.667 -194)"/><path d="M368.828 309.225C368.828 326.123 359.318 339.818 347.6 339.818 335.872 339.818 326.372 326.123 326.372 309.225 326.372 292.333 335.872 278.632 347.6 278.632 359.318 278.632 368.828 292.333 368.828 309.225" fill="#1A1919" transform="matrix(1 0 0 1.00103 275.667 -194)"/><path d="M469.544 309.225C469.544 326.123 479.044 339.818 490.772 339.818 502.5 339.818 512 326.123 512 309.225 512 292.333 502.5 278.632 490.772 278.632 479.044 278.632 469.544 292.333 469.544 309.225" fill="#1A1919" transform="matrix(1 0 0 1.00103 275.667 -194)"/><path d="M419.596 470.054C367.15 470.054 363.404 408.867 362.78 395.131 362.78 395.131 418.557 412.613 474.334 395.131 473.71 408.867 469.964 470.054 417.518 470.054" fill="#DF7370" transform="matrix(1 0 0 1.00103 275.667 -194)"/><path d="M320.633 352.715C320.633 360.477 307.542 366.771 291.394 366.771 275.24 366.771 262.144 360.477 262.144 352.715 262.144 344.948 275.24 338.655 291.394 338.655 307.542 338.655 320.633 344.948 320.633 352.715" fill="#EC9896" transform="matrix(1 0 0 1.00103 275.667 -194)"/><path d="M575.245 352.715C575.245 360.477 562.148 366.771 546 366.771 529.842 366.771 516.75 360.477 516.75 352.715 516.75 344.948 529.842 338.655 546 338.655 562.148 338.655 575.245 344.948 575.245 352.715" fill="#EC9896" transform="matrix(1 0 0 1.00103 275.667 -194)"/><path d="M368.454 298.981C368.454 302.442 365.647 305.249 362.185 305.249 358.719 305.249 355.912 302.442 355.912 298.981 355.912 295.519 358.719 292.712 362.185 292.712 365.647 292.712 368.454 295.519 368.454 298.981" fill="#FFFFFE" transform="matrix(1 0 0 1.00103 275.667 -194)"/><path d="M510.362 298.981C510.362 302.442 507.55 305.249 504.088 305.249 500.627 305.249 497.815 302.442 497.815 298.981 497.815 295.519 500.627 292.712 504.088 292.712 507.55 292.712 510.362 295.519 510.362 298.981" fill="#FFFFFE" transform="matrix(1 0 0 1.00103 275.667 -194)"/><path d="M254.562 353.794 251.645 322.222C251.645 322.222 243.438 302.642 230.836 299.615 214.603 295.719 214.268 321.877 225.422 336.642 242.484 359.253 254.562 353.794 254.562 353.794" fill="#CF957E" transform="matrix(1 0 0 1.00103 275.667 -194)"/><path d="M585.05 353.794 587.967 322.222C587.967 322.222 596.168 302.642 608.775 299.615 625.008 295.719 625.338 321.877 614.19 336.642 597.127 359.253 585.05 353.794 585.05 353.794" fill="#CF957E" transform="matrix(1 0 0 1.00103 275.667 -194)"/><path d="M390.97 569.99 413.522 557.608 420.15 568.087 427.498 557.608 448.776 568.727 447.507 586.503C447.507 586.503 442.877 573.811 421.754 573.811 400.64 573.811 392.239 586.828 392.239 586.828L390.97 569.99" fill="#A8BFD9" transform="matrix(1 0 0 1.00103 275.667 -194)"/><path d="M415.31 415.945C435.045 415.945 452.677 425.155 464.464 439.635 472.826 422.138 474.01 402.254 474.334 395.131 418.557 412.613 362.78 395.131 362.78 395.131 363.069 401.604 364.068 418.617 370.522 434.8 382.095 423.147 397.878 415.945 415.31 415.945" fill="#C35953" transform="matrix(1 0 0 1.00103 275.667 -194)"/><path d="M342.8 268.837C350.772 268.837 358.374 270.285 365.382 272.823 359.083 263.642 349.953 257.833 339.763 257.833 328.255 257.833 318.096 265.226 311.847 276.534 320.973 271.664 331.522 268.837 342.8 268.837" fill="#D2E0EB" transform="matrix(1 0 0 1.00103 275.667 -194)"/><path d="M496.386 268.837C488.41 268.837 480.813 270.285 473.8 272.823 480.103 263.642 489.229 257.833 499.418 257.833 510.931 257.833 521.086 265.226 527.339 276.534 518.214 271.664 507.665 268.837 496.386 268.837" fill="#D2E0EB" transform="matrix(1 0 0 1.00103 275.667 -194)"/><path d="M163.121 650.777C160.849 632.361 148.796 595.988 148.796 595.988 148.796 595.988 116 598.521 64.2235 564.156 64.2235 564.156 33.7351 554.831 9.665 546.43-6.19359 540.885 13.531 534.147 13.531 534.147 13.531 534.147 4.49535 529.682 4.88495 524.372 5.41939 516.995 15.6438 517.22 15.6438 517.22 15.6438 517.22 13.4461 511.261 19.1302 506.761 24.7044 502.35 35.1636 503.279 35.1636 503.279 35.1636 503.279 33.1857 495.942 38.9897 492.765 52.5956 485.318 90.0918 494.788 123.727 513.354L130.81 513.074C128.697 510.412 126.929 507.325 126.06 503.909 122.883 491.397 124.471 485.942 128.337 484.124 132.198 482.306 140.834 488.664 146.289 494.578 151.748 500.497 165.164 513.674 171.308 518.678 175.983 522.494 191.252 540.461 191.567 561.884L190.992 574.076C190.992 574.076 192.85 605.084 202.406 620.198L201.317 625.313C194.249 634.409 183.066 645.138 167.407 649.693L163.121 650.777" fill="#F7CCAA" transform="matrix(1 0 0 1.00103 275.667 -194)"/><path d="M156.988 620.088C156.988 620.088 171.982 640.997 196.082 629.633 196.082 629.633 201.686 631.497 185.923 641.147 170.154 650.797 163.121 650.777 163.121 650.777L156.988 620.088" fill="#CF957E" transform="matrix(1 0 0 1.00103 275.667 -194)"/><path d="M386.555 513.514 333.91 533.039C333.91 533.039 292.487 540.621 278.807 565.275 265.131 589.935 226.92 665.506 226.92 665.506L229.353 681.62C229.353 681.62 285.679 578.397 302.912 559.366 314.13 546.974 384.008 530.921 384.008 530.921L386.555 513.514" fill="#F2BBBC" transform="matrix(1 0 0 1.00103 275.667 -194)"/><path d="M453.351 510.087 455.339 526.076C455.339 526.076 500.412 537.204 541.874 550.61 573.402 560.8 577.697 583.966 587.797 592.262 587.797 592.262 577.607 550.87 542.034 536.5 530.326 531.775 453.351 510.087 453.351 510.087" fill="#F2BBBC" transform="matrix(1 0 0 1.00103 275.667 -194)"/><path d="M270.31 81.7554C324.834 100.056 361.041 100.261 381.34 97.4692 394.971 95.5961 387.789 90.7261 381.575 89.6373 317.691 78.4388 298.626 53.9092 298.626 53.9092L270.31 81.7554" fill="#E0B79F" transform="matrix(1 0 0 1.00103 275.667 -194)"/><path d="M163.121 650.777C160.849 632.361 148.796 595.988 148.796 595.988M369.023 220.936C355.912 210.947 322.821 205.952 304.715 227.804" stroke="#1A1919" stroke-width="6.99276" stroke-linecap="round" stroke-linejoin="round" fill="none" transform="matrix(1 0 0 1.00103 275.667 -194)"/><path d="M370.427 276.714C355.982 246.255 295.444 246.12 304.09 317.966" stroke="#1A1919" stroke-width="7.99173" stroke-linecap="round" stroke-linejoin="round" fill="none" transform="matrix(1 0 0 1.00103 275.667 -194)"/><path d="M249.896 288.926C249.896 288.926 239.812 269.351 220.832 275.285 181.247 287.657 193.939 373.464 259.352 380.866M221.541 298.416C221.541 298.416 234.592 289.52 250.606 324.514M251.655 264.981C249.692 297.532 250.211 354.104 265.38 399.507 292.228 479.863 377.889 498.08 418.557 498.08 459.22 498.08 544.886 479.863 571.733 399.507 586.084 356.546 587.327 303.596 585.754 270.45M467.047 220.936C480.158 210.947 513.249 205.952 531.355 227.804" stroke="#1A1919" stroke-width="6.99276" stroke-linecap="round" stroke-linejoin="round" fill="none" transform="matrix(1 0 0 1.00103 275.667 -194)"/><path d="M467.117 279.661C478.929 246.33 543.598 243.868 534.682 317.966" stroke="#1A1919" stroke-width="7.99173" stroke-linecap="round" stroke-linejoin="round" fill="none" transform="matrix(1 0 0 1.00103 275.667 -194)"/><path d="M587.382 289.256C587.382 289.256 597.467 269.681 616.447 275.615 656.031 287.982 645.512 373.793 579.081 381.196M615.358 298.746C615.358 298.746 602.317 289.85 586.298 324.844M292.228 296.738 303.251 303.606M535.521 303.606 550.291 296.738M418.557 375.776 418.557 365.787M581.723 179.309C613.455 233.423 575.779 286.698 575.779 286.698 560.076 165.993 430.21 112.554 430.21 112.554 498.619 172.701 499.198 206.312 499.198 206.312 383.693 212.555 325.913 130.27 325.913 130.27 325.913 130.27 322.956 200.218 248.628 267.024 248.628 267.024 237.909 220.112 253.518 185.138M207.52 284.136C207.52 284.136 196.467 169.674 250.835 90.4964 336.866-34.794 507.939 2.66724 531.355 55.113 531.355 55.113 641.921 68.5341 627.146 280.19M233.928 375.776C233.928 375.776 255.011 453.626 235.222 490.253 235.222 490.253 272.044 482.766 276.204 471.108 276.204 471.108 287.842 495.248 362.77 490.253M616.048 370.781C616.048 370.781 609.19 475.263 580.055 499.408L569.236 456.123C569.236 456.123 553.832 501.496 469.544 491.711M190.992 574.076C190.992 574.076 192.85 605.084 202.406 620.198M197.236 603.246C197.236 603.246 213.624 597.057 214.853 608.156 215.927 617.871 231.925 700.076 239.922 715.635M208.339 614.654C203.015 624.269 186.137 649.748 155.884 651.601M158.031 625.668C152.822 631.327 142.597 643.929 146.743 651.726 152.208 662.01 164.46 723.636 167.891 743.646 171.323 763.66 193.13 779.613 210.203 773.38 239.922 762.516 299.505 673.099 299.505 673.099M393.703 512.355C393.703 512.355 336.552 532.684 321.682 535.541 306.818 538.403 286.244 549.262 278.807 565.275 271.369 581.279 226.261 664.168 226.261 664.168M445.954 507.76C445.954 507.76 519.497 530.971 537.234 535.541 554.951 540.116 582.018 556.694 586.778 592.712 591.543 628.74 610.973 795.677 610.973 795.677M291.958 615.583C291.958 615.583 310.818 765.378 318.256 790.532M547.698 615.583C547.698 615.583 528.843 765.378 521.401 790.532M536.435 700.076 557.238 795.677M390.056 513.634 420.15 568.087 450.519 509.198M412.563 557.263 374.857 576.778 386.29 516.675M390.056 568.911 419.071 731.069M374.997 518.853 344.244 568.087 359.623 582.427 342.266 601.617 408.592 727.068M453.351 510.087 464.804 576.778 427.103 557.263M450.519 568.911 420.59 731.069M462.402 512.924 495.417 568.087 480.038 582.427 497.39 601.617 431.074 727.068M393.703 516.675 394.831 497.375M445.954 516.675 444.865 496.326M419.596 470.054C367.15 470.054 363.404 408.867 362.78 395.131 362.78 395.131 418.557 412.613 474.334 395.131 473.71 408.867 469.964 470.054 417.518 470.054M159.255 596.213C159.255 596.213 118.108 600.304 64.2235 564.156 64.2235 564.156 33.7351 554.831 9.665 546.43-6.19359 540.885 13.531 534.147 13.531 534.147 13.531 534.147 4.49535 529.682 4.88495 524.372 5.41939 516.995 15.6438 517.22 15.6438 517.22 15.6438 517.22 13.4461 511.261 19.1302 506.761 24.7044 502.35 35.1636 503.279 35.1636 503.279 35.1636 503.279 33.1857 495.942 38.9897 492.765 52.5956 485.318 90.0918 494.788 123.727 513.354M186.767 582.567C201.766 553.013 177.441 523.683 171.308 518.678 165.164 513.674 151.748 500.497 146.289 494.578 140.834 488.664 132.198 482.306 128.337 484.124 124.471 485.942 122.883 491.397 126.06 503.909 129.236 516.411 144.476 524.372 144.476 524.372 144.476 524.372 139.016 555.74 157.887 565.745M127.653 513.908C127.653 513.908 93.0937 520.956 67.8548 553.697M15.0095 534.192C15.0095 534.192 39.5691 532.384 70.2573 546.939M15.3341 517.325C15.3341 517.325 47.1662 514.138 88.3186 532.319M34.4743 503.05C35.1736 502.995 71.556 502.35 103.388 523.448" stroke="#1A1919" stroke-width="6.99276" stroke-linecap="round" stroke-linejoin="round" fill="none" transform="matrix(1 0 0 1.00103 275.667 -194)"/></g></g></g><g clip-path="url(#clip4)"><g clip-path="url(#clip5)"><g clip-path="url(#clip6)"><path d="M429.383 775.216C432.556 764.459 437.764 731.613 442.774 696.832L444.903 681.83 466.374 780.528 521.857 780.528C521.857 780.528 501.788 608.178 496.873 570.993 491.957 533.808 464.013 516.691 445.716 511.969 427.418 507.247 351.485 483.288 351.485 483.288L297.547 488.029C297.547 488.029 238.542 509.018 223.195 511.969 207.849 514.92 186.601 526.135 178.927 542.661 171.254 559.188 124.677 644.763 124.677 644.763L121.429 632.047C116.929 610.633 113.392 591.396 112.901 586.929 111.805 576.895 97.7814 581.027 97.7814 581.027L57.154 602.006C57.154 602.006 36.9348 621.286 42.5822 631.91 48.2249 642.534 60.8796 706.158 64.4211 726.816 67.9625 747.474 90.4766 763.949 108.099 757.508 138.791 746.294 200.294 653.99 200.294 653.99L201.56 663.278C207.703 708.16 215.447 760.993 219.654 775.216" fill="#656DA5" transform="matrix(1 0 0 1.03232 378.657 -172.512)"/><path d="M124.677 644.763C124.677 644.763 171.254 559.188 178.927 542.661 186.601 526.135 207.849 514.92 223.195 511.969 232.271 510.222 274.32 496.136 292.702 489.842 292.537 489.903 289.028 498.289 289.028 498.289 289.028 498.289 269.173 510.255 269.234 510.496 237.064 518.759 208.831 527.707 196.337 541.778 174.531 566.332 128.167 654.807 128.167 654.807L124.677 644.763" fill="#C3C6DA" transform="matrix(1 0 0 1.03232 378.657 -172.512)"/><path d="M351.485 492.491 350.361 471.478 351.485 457.667 298.671 460.816 298.671 471.478 297.547 492.491 302.486 553.007 337.9 553.007 351.485 492.491" fill="#F8D4B3" transform="matrix(1 0 0 1.03232 378.657 -172.512)"/><path d="M298.671 464.665 350.361 464.665 351.013 487.415C351.013 487.415 321.959 509.702 298.671 498.204L298.109 487.977 298.671 464.665" fill="#C79986" transform="matrix(1 0 0 1.03232 378.657 -172.512)"/><path d="M325.302 713.831 356.202 546.42 356.202 484.771 324.849 545.57 293.779 489.351 293.779 546.42 323.734 713.831" fill="#FFFFFE" transform="matrix(1 0 0 1.03232 378.657 -172.512)"/><path d="M317.01 534.388 278.088 554.546 289.892 492.491 294.024 490.135" fill="#FFFFFE" transform="matrix(1 0 0 1.03232 378.657 -172.512)"/><path d="M332.021 534.388 370.949 554.546 359.13 485.691" fill="#FFFFFE" transform="matrix(1 0 0 1.03232 378.657 -172.512)"/><path d="M37.8131 442.014C37.8131 442.014 21.6264 387.277 13.6605 368.616 5.68991 349.95 16.267 339.916 25.7344 346.702 35.2019 353.492 43.7627 363.229 48.1871 386.248 52.6163 409.267 54.9772 436.338 54.9772 436.338L37.8131 442.014" fill="#F8D4B3" transform="matrix(1 0 0 1.03232 378.657 -172.512)"/><path d="M93.2767 553.007C93.2767 553.007 94.1125 581.617 102.286 598.144L100.94 601.931C94.1786 611.445 82.5249 623.973 65.5024 629.313L61.4699 626.475C61.4699 626.475 53.7968 574.534 44.9432 561.549 36.4673 549.121-8.15002 503.252 6.08655 480.101L8.93386 476.54C8.93386 476.54 9.74131 465.09 18.321 458.266L21.0361 456.472C21.0361 456.472 34.6116 437.599 56.4505 436.418 78.2893 435.238 97.6539 446.556 92.4079 472.706L91.9309 474.803C92.8517 470.288 94.3202 466.058 96.5868 462.686 106.328 448.223 118.133 446.452 116.362 457.964 114.591 469.472 111.215 490.72 112.901 502.232 114.591 513.74 112.901 543.251 88.0306 556.237" fill="#F8D4B3" transform="matrix(1 0 0 1.03232 378.657 -172.512)"/><path d="M371.936 466.686C451.618 475.936 466.18 433.042 466.18 433.042L476.408 473.962C503.951 451.136 510.434 352.363 510.434 352.363L521.262 263.964C535.229 63.8733 430.369 53.9431 430.369 53.9431 408.233 4.36305 246.508-31.0513 165.173 87.3932 113.775 162.245 123.19 266.864 123.19 266.864L149.189 357.085C149.189 357.085 169.12 430.681 150.417 465.307 150.417 465.307 185.227 458.229 189.16 447.208 189.16 447.208 200.162 470.029 270.995 465.307" fill="#7D5144" transform="matrix(1 0 0 1.03232 378.657 -172.512)"/><path d="M430.369 53.9431C408.233 4.36305 246.508-31.0513 165.173 87.3932 113.775 162.245 123.19 266.864 123.19 266.864L126.24 277.445C125.882 244.293 126.897 166.329 167.123 108.245 250.469-12.0975 380.586 21.4847 418.456 60.9363 418.456 60.9363 478.42 81.453 506.827 132.473 506.827 132.473 494.88 72.7269 430.369 53.9431" fill="#E0B79F" transform="matrix(1 0 0 1.03232 378.657 -172.512)"/><path d="M164.29 274.981C164.29 274.981 154.751 256.475 136.813 262.085 99.3868 273.781 111.39 354.899 173.228 361.897" fill="#F8D4B3" transform="matrix(1 0 0 1.03232 378.657 -172.512)"/><path d="M481.796 257.514C488.033 288.259 482.107 338.906 468.541 379.519 443.161 455.485 362.176 472.706 323.734 472.706 285.289 472.706 204.308 455.485 178.927 379.519 164.587 336.597 164.096 283.117 165.947 252.344 165.947 252.344 174.206 174.942 188.371 153.694 202.537 132.445 210.21 110.016 227.917 103.523 245.625 97.0306 296.385 79.3234 319.404 85.8161 342.424 92.3087 393.184 111.787 415.613 135.986 438.043 160.186 471.842 208.458 481.796 257.514" fill="#F8D4B3" transform="matrix(1 0 0 1.03232 378.657 -172.512)"/><path d="M281.79 288.046C281.79 311.49 267.218 330.501 249.246 330.501 231.27 330.501 216.693 311.49 216.693 288.046 216.693 264.597 231.27 245.587 249.246 245.587 267.218 245.587 281.79 264.597 281.79 288.046" fill="#FFFFFE" transform="matrix(1 0 0 1.03232 378.657 -172.512)"/><path d="M432.518 288.046C432.518 311.49 417.946 330.501 399.97 330.501 381.993 330.501 367.422 311.49 367.422 288.046 367.422 264.597 381.993 245.587 399.97 245.587 417.946 245.587 432.518 264.597 432.518 288.046" fill="#FFFFFE" transform="matrix(1 0 0 1.03232 378.657 -172.512)"/><path d="M483.33 275.292C483.33 275.292 492.869 256.787 510.812 262.397 548.233 274.088 538.289 355.211 475.483 362.209" fill="#F8D4B3" transform="matrix(1 0 0 1.03232 378.657 -172.512)"/><path d="M477.985 171.354C507.984 222.511 472.366 272.875 472.366 272.875 457.52 158.765 334.751 108.245 334.751 108.245 399.422 165.106 399.97 196.88 399.97 196.88 290.775 202.783 236.152 124.994 236.152 124.994 236.152 124.994 233.357 191.119 163.09 254.275 163.09 254.275 152.957 209.927 167.713 176.864 167.713 176.864 178.927 105.889 199.388 90.9346 219.852 75.9803 304.847 54.7317 323.734 61.8146 342.622 68.8974 380.983 67.3251 399.97 77.5527 418.961 87.7851 477.985 171.354 477.985 171.354" fill="#7D5144" transform="matrix(1 0 0 1.03232 378.657 -172.512)"/><path d="M276.718 294.171C276.718 310.145 267.733 323.092 256.65 323.092 245.568 323.092 236.582 310.145 236.582 294.171 236.582 278.201 245.568 265.249 256.65 265.249 267.733 265.249 276.718 278.201 276.718 294.171" fill="#1A1919" transform="matrix(1 0 0 1.03232 378.657 -172.512)"/><path d="M371.936 294.171C371.936 310.145 380.917 323.092 392.004 323.092 403.086 323.092 412.072 310.145 412.072 294.171 412.072 278.201 403.086 265.249 392.004 265.249 380.917 265.249 371.936 278.201 371.936 294.171" fill="#1A1919" transform="matrix(1 0 0 1.03232 378.657 -172.512)"/><path d="M324.717 446.211C275.136 446.211 271.595 388.368 271.005 375.383 271.005 375.383 323.734 391.909 376.464 375.383 375.874 388.368 372.332 446.211 322.752 446.211" fill="#DF7370" transform="matrix(1 0 0 1.03232 378.657 -172.512)"/><path d="M231.166 335.284C231.166 342.622 218.785 348.572 203.519 348.572 188.249 348.572 175.868 342.622 175.868 335.284 175.868 327.942 188.249 321.992 203.519 321.992 218.785 321.992 231.166 327.942 231.166 335.284" fill="#F1B1A2" transform="matrix(1 0 0 1.03232 378.657 -172.512)"/><path d="M471.861 335.284C471.861 342.622 459.48 348.572 444.209 348.572 428.939 348.572 416.563 342.622 416.563 335.284 416.563 327.942 428.939 321.992 444.209 321.992 459.48 321.992 471.861 327.942 471.861 335.284" fill="#F1B1A2" transform="matrix(1 0 0 1.03232 378.657 -172.512)"/><path d="M276.364 284.486C276.364 287.758 273.71 290.412 270.438 290.412 267.166 290.412 264.512 287.758 264.512 284.486 264.512 281.214 267.166 278.56 270.438 278.56 273.71 278.56 276.364 281.214 276.364 284.486" fill="#FFFFFE" transform="matrix(1 0 0 1.03232 378.657 -172.512)"/><path d="M410.518 284.486C410.518 287.758 407.865 290.412 404.592 290.412 401.315 290.412 398.662 287.758 398.662 284.486 398.662 281.214 401.315 278.56 404.592 278.56 407.865 278.56 410.518 281.214 410.518 284.486" fill="#FFFFFE" transform="matrix(1 0 0 1.03232 378.657 -172.512)"/><path d="M186.426 75.5459C237.975 92.847 272.204 93.0406 291.389 90.401 304.275 88.6303 297.485 84.0265 291.616 82.9971 231.218 72.4106 213.199 49.2165 213.199 49.2165L186.426 75.5459" fill="#E0B79F" transform="matrix(1 0 0 1.03232 378.657 -172.512)"/><path d="M357.473 485.115C357.473 485.115 451.028 509.905 463.125 520.232 475.228 530.564 485.852 543.842 485.852 543.842 485.852 543.842 455.75 522.593 443.647 520.53 431.55 518.461 361.311 499.281 361.311 499.281L357.473 485.115" fill="#C3C6DA" transform="matrix(1 0 0 1.03232 378.657 -172.512)"/><path d="M162.344 309.857C166.429 321.553 170.494 330.77 162.495 333.565 154.496 336.356 144.703 329.141 140.614 317.45 136.529 305.753 139.703 294.01 147.701 291.215 155.71 288.419 158.26 298.165 162.344 309.857" fill="#C79986" transform="matrix(1 0 0 1.03232 378.657 -172.512)"/><path d="M483.491 307.746C479.402 319.442 478.769 330.765 484.516 333.565 492.141 337.272 502.313 329.141 506.397 317.45 510.481 305.753 507.313 294.01 499.309 291.215 491.306 288.419 487.575 296.055 483.491 307.746" fill="#C79986" transform="matrix(1 0 0 1.03232 378.657 -172.512)"/><path d="M276.907 210.706C264.512 201.262 233.229 196.54 216.113 217.199" stroke="#1A1919" stroke-width="6.61068" stroke-linecap="round" stroke-linejoin="round" fill="none" transform="matrix(1 0 0 1.03232 378.657 -172.512)"/><path d="M278.234 263.436C264.574 234.641 207.349 234.514 215.522 302.434" stroke="#1A1919" stroke-width="7.55506" stroke-linecap="round" stroke-linejoin="round" fill="none" transform="matrix(1 0 0 1.03232 378.657 -172.512)"/><path d="M164.29 274.981C164.29 274.981 154.751 256.475 136.813 262.085 99.3868 273.781 111.39 354.899 173.228 361.897M137.483 283.952C137.483 283.952 149.817 275.543 164.96 308.624" stroke="#1A1919" stroke-width="6.61068" stroke-linecap="round" stroke-linejoin="round" fill="none" transform="matrix(1 0 0 1.03232 378.657 -172.512)"/><path d="M165.947 252.344C164.096 283.117 164.587 336.597 178.927 379.519 204.308 455.485 284.741 474.59 323.182 474.59 361.628 474.59 443.161 455.485 468.541 379.519 482.107 338.906 483.283 288.849 481.796 257.514" stroke="#1A1919" stroke-width="5.6663" stroke-linecap="round" stroke-linejoin="round" fill="none" transform="matrix(1 0 0 1.03232 378.657 -172.512)"/><path d="M369.575 210.706C381.97 201.262 413.252 196.54 430.369 217.199" stroke="#1A1919" stroke-width="6.61068" stroke-linecap="round" stroke-linejoin="round" fill="none" transform="matrix(1 0 0 1.03232 378.657 -172.512)"/><path d="M369.641 266.221C380.803 234.712 441.943 232.384 433.514 302.434" stroke="#1A1919" stroke-width="7.55506" stroke-linecap="round" stroke-linejoin="round" fill="none" transform="matrix(1 0 0 1.03232 378.657 -172.512)"/><path d="M483.33 275.292C483.33 275.292 492.869 256.787 510.812 262.397 548.233 274.088 538.289 355.211 475.483 362.209M509.783 284.264C509.783 284.264 497.454 275.854 482.31 308.936M204.308 282.366 214.724 288.858M434.307 288.858 448.27 282.366M323.734 357.085 323.734 347.641M477.985 171.354C507.984 222.511 472.366 272.875 472.366 272.875 457.52 158.765 334.751 108.245 334.751 108.245 399.422 165.106 399.97 196.88 399.97 196.88 290.775 202.783 236.152 124.994 236.152 124.994 236.152 124.994 233.357 191.119 163.09 254.275 163.09 254.275 152.957 209.927 167.713 176.864M124.229 270.452C124.229 270.452 113.775 162.245 165.173 87.3932 246.508-31.0513 408.233 4.36305 430.369 53.9431 430.369 53.9431 534.889 66.6309 520.922 266.722M149.189 357.085C149.189 357.085 169.12 430.681 150.417 465.307 150.417 465.307 185.227 458.229 189.16 447.208 189.16 447.208 200.162 471.242 270.995 466.52M510.434 352.363C510.434 352.363 503.951 451.136 476.408 473.962L466.18 433.042C466.18 433.042 451.618 477.149 371.936 467.899M61.4699 626.475C61.4699 626.475 53.7968 574.534 44.9432 561.549 36.0896 548.564-12.192 499.102 8.34834 477.145 25.4653 458.847 65.0113 463.229 68.5527 473.962 71.9761 484.336 72.0942 506.657 60.2894 510.198 48.4846 513.74 33.79 515.51 36.4154 505.476 39.0408 495.442 53.2065 491.31 53.2065 491.31M8.93386 476.54C8.93386 476.54 10.1191 459.735 24.875 454.716 39.631 449.701 67.0748 448.223 75.9284 456.784 82.3927 463.031 93.5553 491.627 70.5596 502.232M91.8648 507.544C91.8648 507.544 86.8502 477.145 96.5868 462.686 106.328 448.223 118.133 446.452 116.362 457.964 114.591 469.472 111.215 490.72 112.901 502.232 114.591 513.74 112.901 543.251 88.0306 556.237M90.5758 496.33C90.5758 496.33 69.4357 508.725 74.1577 536.466M21.0361 456.472C21.0361 456.472 34.6116 437.599 56.4505 436.418 78.2893 435.238 97.6539 446.556 92.4079 472.706M37.8131 442.014C37.8131 442.014 21.6264 387.277 13.6605 368.616 5.68991 349.95 16.267 339.916 25.7344 346.702 35.2019 353.492 43.7627 363.229 48.1871 386.248 52.6163 409.267 54.9772 436.338 54.9772 436.338M93.2767 553.007C93.2767 553.007 94.1125 581.617 102.286 598.144M97.7814 581.027C97.7814 581.027 111.805 576.895 112.901 586.929 114.001 596.963 130.528 681.83 138.791 697.894M108.099 589.88C108.099 589.88 90.5758 629.426 52.026 631.787M57.154 602.006C57.154 602.006 36.9348 621.286 42.5822 631.91 48.2249 642.534 60.8796 706.158 64.4211 726.816 67.9625 747.474 90.4766 763.949 108.099 757.508 138.791 746.294 200.294 653.99 200.294 653.99M297.547 488.029C297.547 488.029 238.542 509.018 223.195 511.969 207.849 514.92 186.601 526.135 178.927 542.661 171.254 559.188 124.677 644.763 124.677 644.763M351.485 483.288C351.485 483.288 427.418 507.247 445.716 511.969 464.013 516.691 491.957 533.808 496.873 570.993 501.788 608.178 521.857 780.528 521.857 780.528M192.503 594.602C192.503 594.602 211.981 749.245 219.654 775.216M456.534 594.602C456.534 594.602 437.056 749.245 429.383 775.216M444.903 681.83 466.374 780.528M293.779 489.351 324.849 545.57 356.202 484.771M317.01 534.388 278.088 554.546 289.892 492.491M293.779 546.42 323.734 713.831M278.234 494.743 246.479 545.57 262.359 560.368 244.444 580.186 312.912 709.699M359.13 485.691 370.949 554.546 332.021 534.388M356.202 546.42 325.302 713.831M368.465 488.619 402.553 545.57 386.678 560.368 404.592 580.186 336.125 709.699M297.547 492.491 298.944 473.018M351.485 492.491 350.687 473.211M324.717 446.211C275.136 446.211 271.595 388.368 271.005 375.383 271.005 375.383 323.734 391.909 376.464 375.383 375.874 388.368 372.332 446.211 322.752 446.211" stroke="#1A1919" stroke-width="6.61068" stroke-linecap="round" stroke-linejoin="round" fill="none" transform="matrix(1 0 0 1.03232 378.657 -172.512)"/></g></g></g><g clip-path="url(#clip7)"><g clip-path="url(#clip8)"><g clip-path="url(#clip9)"><path d="M520.672 789.428C523.75 779.018 528.788 747.251 533.631 713.603L535.686 699.098 556.46 794.565 610.119 794.565C610.119 794.565 590.717 627.861 585.958 591.884 581.205 555.916 554.176 539.362 536.484 534.793 518.772 530.229 445.331 507.05 445.331 507.05L393.153 511.639C393.153 511.639 336.082 531.94 321.233 534.793 306.389 537.651 285.844 548.495 278.417 564.486 270.99 580.467 225.945 663.24 225.945 663.24L222.808 650.94C218.448 630.226 215.026 611.621 214.553 607.306 213.49 597.59 199.923 601.595 199.923 601.595L160.634 621.881C160.634 621.881 141.067 640.535 146.538 650.815 151.995 661.085 164.23 722.626 167.657 742.607 171.083 762.593 192.86 778.524 209.909 772.3 239.587 761.451 299.087 672.158 299.087 672.158L300.304 681.152C306.249 724.566 313.741 775.666 317.811 789.428L520.672 789.428" fill="#E46E81" transform="matrix(1.00122 0 0 1 275.781 -192.057)"/><path d="M445.331 515.954 444.243 495.633 445.331 482.271 394.24 485.313 394.24 495.633 393.153 515.954 397.931 574.491 432.183 574.491 445.331 515.954" fill="#F8D4B3" transform="matrix(1.00122 0 0 1 275.781 -192.057)"/><path d="M394.24 489.039 444.243 489.039 444.662 513.37C444.662 513.37 435.15 527.331 398.984 532.404L392.644 517.819 394.24 489.039" fill="#CF957E" transform="matrix(1.00122 0 0 1 275.781 -192.057)"/><path d="M419.499 710.126C377.246 710.126 321.806 701.248 299.815 681.371 303.825 708.201 315.267 780.819 317.811 789.428L520.672 789.428C523.211 780.844 534.339 708.949 538.339 682.224 512.542 701.677 461.501 710.126 419.499 710.126" fill="#CE5262" transform="matrix(1.00122 0 0 1 275.781 -192.057)"/><path d="M420.002 730.047 449.89 568.117 449.89 508.487 419.563 567.294 389.512 512.916 389.512 568.117 418.486 730.047" fill="#FFFFFE" transform="matrix(1.00122 0 0 1 275.781 -192.057)"/><path d="M389.826 513.854 385.751 515.954 374.334 575.973 411.987 556.485 389.826 513.854" fill="#FFFFFE" transform="matrix(1.00122 0 0 1 275.781 -192.057)"/><path d="M426.507 556.485 464.155 575.973 452.718 509.375 449.89 508.487 426.507 556.485" fill="#FFFFFE" transform="matrix(1.00122 0 0 1 275.781 -192.057)"/><path d="M468.888 491.024C553.058 500.796 568.441 455.486 568.441 455.486L579.245 498.711C608.339 474.599 615.187 370.263 615.187 370.263L626.624 276.886C641.378 65.5255 530.613 55.036 530.613 55.036 507.23 2.66351 336.396-34.7454 250.485 90.37 196.192 169.437 206.138 279.948 206.138 279.948L233.601 375.251C233.601 375.251 254.655 452.992 234.893 489.568 234.893 489.568 271.664 482.091 275.818 470.45 275.818 470.45 287.44 494.556 362.263 489.568" fill="#7D4D3F" transform="matrix(1.00122 0 0 1 275.781 -192.057)"/><path d="M530.613 55.036C507.23 2.66351 336.396-34.7454 250.485 90.37 196.192 169.437 206.138 279.948 206.138 279.948L223.236 275.749C223.236 275.749 213.75 127.48 300.753 63.3508 400.355-10.0655 492.496 36.8752 528.533 54.208 529.366 54.208 530.613 55.036 530.613 55.036" fill="#E0B79F" transform="matrix(1.00122 0 0 1 275.781 -192.057)"/><path d="M249.547 288.523C249.547 288.523 239.477 268.975 220.523 274.901 180.994 287.256 193.668 372.942 258.989 380.334" fill="#F7CCAA" transform="matrix(1.00122 0 0 1 275.781 -192.057)"/><path d="M586.562 288.852C586.562 288.852 596.632 269.304 615.586 275.23 655.115 287.58 644.61 373.271 578.272 380.663" fill="#F7CCAA" transform="matrix(1.00122 0 0 1 275.781 -192.057)"/><path d="M584.517 268.262C579.783 279.47 574.975 286.298 574.975 286.298 559.293 165.761 429.609 112.396 429.609 112.396 497.923 172.46 498.501 206.023 498.501 206.023 383.157 212.258 325.458 130.088 325.458 130.088 325.458 130.088 324.854 144.373 317.332 166.19 308.459 191.923 289.894 228.135 251.393 263.758 251.333 264.301 251.303 264.611 251.303 264.611 249.343 297.117 249.862 353.609 265.01 398.949 291.819 479.193 377.361 497.384 417.972 497.384 458.578 497.384 544.125 479.193 570.935 398.949 585.265 356.048 591.53 302.548 584.936 270.072 584.816 269.469 584.646 268.865 584.517 268.262" fill="#F7CCAA" transform="matrix(1.00122 0 0 1 275.781 -192.057)"/><path d="M373.67 302.324C373.67 327.089 358.278 347.17 339.289 347.17 320.305 347.17 304.903 327.089 304.903 302.324 304.903 277.554 320.305 257.473 339.289 257.473 358.278 257.473 373.67 277.554 373.67 302.324" fill="#FFFFFE" transform="matrix(1.00122 0 0 1 275.781 -192.057)"/><path d="M532.883 302.324C532.883 327.089 517.49 347.17 498.501 347.17 479.517 347.17 464.12 327.089 464.12 302.324 464.12 277.554 479.517 257.473 498.501 257.473 517.49 257.473 532.883 277.554 532.883 302.324" fill="#FFFFFE" transform="matrix(1.00122 0 0 1 275.781 -192.057)"/><path d="M368.313 308.793C368.313 325.667 358.816 339.344 347.115 339.344 335.403 339.344 325.916 325.667 325.916 308.793 325.916 291.924 335.403 278.243 347.115 278.243 358.816 278.243 368.313 291.924 368.313 308.793" fill="#1A1919" transform="matrix(1.00122 0 0 1 275.781 -192.057)"/><path d="M468.888 308.793C468.888 325.667 478.375 339.344 490.087 339.344 501.798 339.344 511.285 325.667 511.285 308.793 511.285 291.924 501.798 278.243 490.087 278.243 478.375 278.243 468.888 291.924 468.888 308.793" fill="#1A1919" transform="matrix(1.00122 0 0 1 275.781 -192.057)"/><path d="M419.01 469.397C366.637 469.397 362.896 408.296 362.273 394.579 362.273 394.579 417.972 412.037 473.672 394.579 473.048 408.296 469.307 469.397 416.935 469.397" fill="#DF7370" transform="matrix(1.00122 0 0 1 275.781 -192.057)"/><path d="M320.185 352.222C320.185 359.974 307.112 366.258 290.987 366.258 274.856 366.258 261.778 359.974 261.778 352.222 261.778 344.466 274.856 338.182 290.987 338.182 307.112 338.182 320.185 344.466 320.185 352.222" fill="#EC9896" transform="matrix(1.00122 0 0 1 275.781 -192.057)"/><path d="M574.441 352.222C574.441 359.974 561.363 366.258 545.237 366.258 529.102 366.258 516.029 359.974 516.029 352.222 516.029 344.466 529.102 338.182 545.237 338.182 561.363 338.182 574.441 344.466 574.441 352.222" fill="#EC9896" transform="matrix(1.00122 0 0 1 275.781 -192.057)"/><path d="M367.939 298.563C367.939 302.02 365.136 304.823 361.679 304.823 358.218 304.823 355.415 302.02 355.415 298.563 355.415 295.106 358.218 292.303 361.679 292.303 365.136 292.303 367.939 295.106 367.939 298.563" fill="#FFFFFE" transform="matrix(1.00122 0 0 1 275.781 -192.057)"/><path d="M509.649 298.563C509.649 302.02 506.841 304.823 503.384 304.823 499.928 304.823 497.12 302.02 497.12 298.563 497.12 295.106 499.928 292.303 503.384 292.303 506.841 292.303 509.649 295.106 509.649 298.563" fill="#FFFFFE" transform="matrix(1.00122 0 0 1 275.781 -192.057)"/><path d="M254.206 353.3 251.293 321.772C251.293 321.772 243.098 302.219 230.514 299.197 214.303 295.306 213.969 321.427 225.107 336.171 242.145 358.752 254.206 353.3 254.206 353.3" fill="#CF957E" transform="matrix(1.00122 0 0 1 275.781 -192.057)"/><path d="M584.233 353.3 587.145 321.772C587.145 321.772 595.335 302.219 607.925 299.197 624.135 295.306 624.465 321.427 613.332 336.171 596.293 358.752 584.233 353.3 584.233 353.3" fill="#CF957E" transform="matrix(1.00122 0 0 1 275.781 -192.057)"/><path d="M390.424 569.194 412.945 556.829 419.563 567.294 426.901 556.829 448.149 567.932 446.882 585.684C446.882 585.684 442.258 573.01 421.165 573.01 400.081 573.01 391.691 586.008 391.691 586.008L390.424 569.194" fill="#A8BFD9" transform="matrix(1.00122 0 0 1 275.781 -192.057)"/><path d="M414.73 415.364C434.437 415.364 452.044 424.561 463.816 439.021 472.165 421.549 473.348 401.692 473.672 394.579 417.972 412.037 362.273 394.579 362.273 394.579 362.562 401.044 363.56 418.032 370.004 434.193 381.561 422.556 397.323 415.364 414.73 415.364" fill="#C35953" transform="matrix(1.00122 0 0 1 275.781 -192.057)"/><path d="M342.322 268.461C350.282 268.461 357.874 269.908 364.872 272.442 358.582 263.274 349.464 257.473 339.289 257.473 327.797 257.473 317.652 264.855 311.412 276.148 320.525 271.284 331.059 268.461 342.322 268.461" fill="#D2E0EB" transform="matrix(1.00122 0 0 1 275.781 -192.057)"/><path d="M495.693 268.461C487.727 268.461 480.141 269.908 473.138 272.442 479.433 263.274 488.545 257.473 498.721 257.473 510.218 257.473 520.358 264.855 526.603 276.148 517.49 271.284 506.956 268.461 495.693 268.461" fill="#D2E0EB" transform="matrix(1.00122 0 0 1 275.781 -192.057)"/><path d="M162.893 649.868C160.624 631.477 148.588 595.156 148.588 595.156 148.588 595.156 115.838 597.685 64.1339 563.368 64.1339 563.368 33.688 554.056 9.6515 545.666-6.18494 540.13 13.5121 533.401 13.5121 533.401 13.5121 533.401 4.48907 528.942 4.87812 523.64 5.41182 516.273 15.622 516.497 15.622 516.497 15.622 516.497 13.4273 510.547 19.1035 506.053 24.6699 501.649 35.1145 502.576 35.1145 502.576 35.1145 502.576 33.1393 495.249 38.9352 492.077 52.5221 484.64 89.966 494.097 123.554 512.637L130.627 512.357C128.517 509.699 126.751 506.616 125.883 503.205 122.711 490.71 124.297 485.263 128.158 483.448 132.014 481.632 140.638 487.982 146.084 493.887 151.536 499.798 164.933 512.956 171.068 517.954 175.737 521.765 190.985 539.706 191.299 561.099L190.726 573.274C190.726 573.274 192.581 604.239 202.123 619.332L201.036 624.44C193.978 633.523 182.81 644.236 167.173 648.785L162.893 649.868" fill="#F7CCAA" transform="matrix(1.00122 0 0 1 275.781 -192.057)"/><path d="M156.768 619.222C156.768 619.222 171.742 640.101 195.808 628.754 195.808 628.754 201.405 630.615 185.663 640.251 169.916 649.888 162.893 649.868 162.893 649.868L156.768 619.222" fill="#CF957E" transform="matrix(1.00122 0 0 1 275.781 -192.057)"/><path d="M386.015 512.796 333.443 532.294C333.443 532.294 292.079 539.866 278.417 564.486 264.76 589.111 226.603 664.577 226.603 664.577L229.032 680.668C229.032 680.668 285.28 577.589 302.488 558.585 313.691 546.21 383.471 530.179 383.471 530.179L386.015 512.796" fill="#F2BBBC" transform="matrix(1.00122 0 0 1 275.781 -192.057)"/><path d="M452.718 509.375 454.703 525.341C454.703 525.341 499.713 536.454 541.117 549.841 572.601 560.016 576.89 583.15 586.976 591.435 586.976 591.435 576.801 550.101 541.277 535.751 529.586 531.032 452.718 509.375 452.718 509.375" fill="#F2BBBC" transform="matrix(1.00122 0 0 1 275.781 -192.057)"/><path d="M269.933 81.6412C324.38 99.9167 360.537 100.121 380.808 97.333 394.42 95.4626 387.247 90.5994 381.042 89.5121 317.248 78.3293 298.209 53.8339 298.209 53.8339L269.933 81.6412" fill="#E0B79F" transform="matrix(1.00122 0 0 1 275.781 -192.057)"/><path d="M162.893 649.868C160.624 631.477 148.588 595.156 148.588 595.156M368.508 220.628C355.415 210.652 322.37 205.664 304.289 227.486" stroke="#1A1919" stroke-width="6.983" stroke-linecap="round" stroke-linejoin="round" fill="none" transform="matrix(1.00122 0 0 1 275.781 -192.057)"/><path d="M369.909 276.327C355.484 245.911 295.032 245.777 303.666 317.522" stroke="#1A1919" stroke-width="7.98057" stroke-linecap="round" stroke-linejoin="round" fill="none" transform="matrix(1.00122 0 0 1 275.781 -192.057)"/><path d="M249.547 288.523C249.547 288.523 239.477 268.975 220.523 274.901 180.994 287.256 193.668 372.942 258.989 380.334M221.231 297.999C221.231 297.999 234.265 289.116 250.256 324.061M251.303 264.611C249.343 297.117 249.862 353.609 265.01 398.949 291.819 479.193 377.361 497.384 417.972 497.384 458.578 497.384 544.125 479.193 570.935 398.949 585.265 356.048 586.507 303.172 584.936 270.072M466.394 220.628C479.488 210.652 512.532 205.664 530.613 227.486" stroke="#1A1919" stroke-width="6.983" stroke-linecap="round" stroke-linejoin="round" fill="none" transform="matrix(1.00122 0 0 1 275.781 -192.057)"/><path d="M466.464 279.27C478.261 245.986 542.838 243.527 533.935 317.522" stroke="#1A1919" stroke-width="7.98057" stroke-linecap="round" stroke-linejoin="round" fill="none" transform="matrix(1.00122 0 0 1 275.781 -192.057)"/><path d="M586.562 288.852C586.562 288.852 596.632 269.304 615.586 275.23 655.115 287.58 644.61 373.271 578.272 380.663M614.499 298.329C614.499 298.329 601.476 289.445 585.479 324.39M291.819 296.324 302.828 303.182M534.773 303.182 549.522 296.324M417.972 375.251 417.972 365.276M580.911 179.059C612.598 233.097 574.975 286.298 574.975 286.298 559.293 165.761 429.609 112.396 429.609 112.396 497.923 172.46 498.501 206.023 498.501 206.023 383.157 212.258 325.458 130.088 325.458 130.088 325.458 130.088 322.505 199.938 248.28 266.651 248.28 266.651 237.577 219.805 253.164 184.88M207.23 283.739C207.23 283.739 196.192 169.437 250.485 90.37 336.396-34.7454 507.23 2.66351 530.613 55.036 530.613 55.036 641.024 68.4384 626.27 279.799M233.601 375.251C233.601 375.251 254.655 452.992 234.893 489.568 234.893 489.568 271.664 482.091 275.818 470.45 275.818 470.45 287.44 494.556 362.263 489.568M615.187 370.263C615.187 370.263 608.339 474.599 579.245 498.711L568.441 455.486C568.441 455.486 553.058 500.796 468.888 491.024M190.726 573.274C190.726 573.274 192.581 604.239 202.123 619.332M196.96 602.403C196.96 602.403 213.326 596.223 214.553 607.306 215.625 617.008 231.601 699.098 239.587 714.635M208.048 613.796C202.731 623.397 185.877 648.84 155.666 650.691M157.811 624.794C152.608 630.445 142.398 643.029 146.538 650.815 151.995 661.085 164.23 722.626 167.657 742.607 171.083 762.593 192.86 778.524 209.909 772.3 239.587 761.451 299.087 672.158 299.087 672.158M393.153 511.639C393.153 511.639 336.082 531.94 321.233 534.793 306.389 537.651 285.844 548.495 278.417 564.486 270.99 580.467 225.945 663.24 225.945 663.24M445.331 507.05C445.331 507.05 518.772 530.229 536.484 534.793 554.176 539.362 581.205 555.916 585.958 591.884 590.717 627.861 610.119 794.565 610.119 794.565M291.55 614.723C291.55 614.723 310.384 764.309 317.811 789.428M546.933 614.723C546.933 614.723 528.104 764.309 520.672 789.428M535.686 699.098 556.46 794.565M389.512 512.916 419.563 567.294 449.89 508.487M411.987 556.485 374.334 575.973 385.751 515.954M389.512 568.117 418.486 730.047M374.473 518.128 343.763 567.294 359.121 581.614 341.788 600.777 408.022 726.052M452.718 509.375 464.155 575.973 426.507 556.485M449.89 568.117 420.002 730.047M461.756 512.208 494.725 567.294 479.368 581.614 496.696 600.777 430.472 726.052M393.153 515.954 394.28 496.681M445.331 515.954 444.243 495.633M419.01 469.397C366.637 469.397 362.896 408.296 362.273 394.579 362.273 394.579 417.972 412.037 473.672 394.579 473.048 408.296 469.307 469.397 416.935 469.397M159.033 595.38C159.033 595.38 117.943 599.465 64.1339 563.368 64.1339 563.368 33.688 554.056 9.6515 545.666-6.18494 540.13 13.5121 533.401 13.5121 533.401 13.5121 533.401 4.48907 528.942 4.87812 523.64 5.41182 516.273 15.622 516.497 15.622 516.497 15.622 516.497 13.4273 510.547 19.1035 506.053 24.6699 501.649 35.1145 502.576 35.1145 502.576 35.1145 502.576 33.1393 495.249 38.9352 492.077 52.5221 484.64 89.966 494.097 123.554 512.637M186.506 581.754C201.484 552.24 177.194 522.952 171.068 517.954 164.933 512.956 151.536 499.798 146.084 493.887 140.638 487.982 132.014 481.632 128.158 483.448 124.297 485.263 122.711 490.71 125.883 503.205 129.056 515.689 144.274 523.64 144.274 523.64 144.274 523.64 138.822 554.964 157.666 564.954M127.475 513.19C127.475 513.19 92.9637 520.228 67.76 552.924M14.9885 533.446C14.9885 533.446 39.5138 531.641 70.1592 546.175M15.3127 516.602C15.3127 516.602 47.1003 513.42 88.1953 531.576M34.4262 502.347C35.1245 502.292 71.456 501.649 103.244 522.717" stroke="#1A1919" stroke-width="6.983" stroke-linecap="round" stroke-linejoin="round" fill="none" transform="matrix(1.00122 0 0 1 275.781 -192.057)"/></g></g></g></g></svg>