<svg width="646" height="801" xmlns="http://www.w3.org/2000/svg" xmlns:xlink="http://www.w3.org/1999/xlink" overflow="hidden"><defs><clipPath id="clip0"><rect x="572" y="-133" width="646" height="801"/></clipPath><clipPath id="clip1"><rect x="573" y="-133" width="645" height="800"/></clipPath><clipPath id="clip2"><rect x="573" y="-133" width="645" height="801"/></clipPath><clipPath id="clip3"><rect x="573" y="-133" width="645" height="801"/></clipPath><clipPath id="clip4"><rect x="902" y="267" width="176" height="61"/></clipPath><clipPath id="clip5"><rect x="902" y="267" width="176" height="61"/></clipPath><clipPath id="clip6"><rect x="767" y="-115" width="451" height="812"/></clipPath><clipPath id="clip7"><rect x="940" y="326" width="113" height="19"/></clipPath><clipPath id="clip8"><rect x="940" y="326" width="113" height="19"/></clipPath><clipPath id="clip9"><rect x="669" y="207" width="1092" height="253"/></clipPath><clipPath id="clip10"><rect x="926" y="252" width="127" height="21"/></clipPath><clipPath id="clip11"><rect x="926" y="252" width="127" height="21"/></clipPath><clipPath id="clip12"><rect x="621" y="120" width="1228" height="280"/></clipPath></defs><g clip-path="url(#clip0)" transform="translate(-572 133)"><g clip-path="url(#clip1)"><g clip-path="url(#clip2)"><g clip-path="url(#clip3)"><path d="M1094.94 658.35C1098.03 647.915 1103.07 616.07 1107.93 582.34L1109.99 567.8 1130.81 663.5 1184.6 663.5C1184.6 663.5 1165.16 496.39 1160.39 460.325 1155.62 424.27 1128.53 407.675 1110.79 403.095 1093.03 398.52 1019.42 375.285 1019.42 375.285L967.11 379.885C967.11 379.885 909.9 400.235 895.015 403.095 880.135 405.96 859.54 416.83 852.095 432.86 844.65 448.88 799.495 531.855 799.495 531.855L796.35 519.525C791.98 498.76 788.55 480.11 788.075 475.785 787.01 466.045 773.41 470.06 773.41 470.06L734.025 490.395C734.025 490.395 714.41 509.095 719.895 519.4 725.365 529.695 737.63 591.385 741.065 611.415 744.5 631.45 766.33 647.42 783.42 641.18 813.17 630.305 872.815 540.795 872.815 540.795L874.035 549.81C879.995 593.33 887.505 644.555 891.585 658.35L1094.94 658.35" fill="#E46E81"/><path d="M1019.42 384.21 1018.33 363.84 1019.42 350.445 968.2 353.495 968.2 363.84 967.11 384.21 971.9 442.89 1006.23 442.89 1019.42 384.21" fill="#F8D4B3"/><path d="M968.2 357.23 1018.33 357.23 1018.74 381.62C1018.74 381.62 1009.21 395.615 972.955 400.7L966.6 386.08 968.2 357.23" fill="#CF957E"/><path d="M993.52 578.855C951.165 578.855 895.59 569.955 873.545 550.03 877.565 576.925 889.035 649.72 891.585 658.35L1094.94 658.35C1097.48 649.745 1108.64 577.675 1112.65 550.885 1086.79 570.385 1035.63 578.855 993.52 578.855" fill="#CE5262"/><path d="M994.025 598.825 1023.98 436.5 1023.98 376.725 993.585 435.675 963.46 381.165 963.46 436.5 992.505 598.825" fill="#FFFFFE"/><path d="M963.775 382.105 959.69 384.21 948.245 444.375 985.99 424.84 963.775 382.105" fill="#FFFFFE"/><path d="M1000.55 424.84 1038.29 444.375 1026.82 377.615 1023.98 376.725 1000.55 424.84" fill="#FFFFFE"/><path d="M1043.03 359.22C1127.41 369.015 1142.82 323.595 1142.82 323.595L1153.66 366.925C1182.82 342.755 1189.69 238.165 1189.69 238.165L1201.15 144.56C1215.94-67.315 1104.91-77.83 1104.91-77.83 1081.46-130.33 910.215-167.83 824.095-42.41 769.67 36.85 779.64 147.63 779.64 147.63L807.17 243.165C807.17 243.165 828.275 321.095 808.465 357.76 808.465 357.76 845.325 350.265 849.49 338.595 849.49 338.595 861.14 362.76 936.145 357.76" fill="#7D4D3F"/><path d="M1104.91-77.83C1081.46-130.33 910.215-167.83 824.095-42.41 769.67 36.85 779.64 147.63 779.64 147.63L796.78 143.42C796.78 143.42 787.27-5.21 874.485-69.495 974.33-143.09 1066.7-96.035 1102.82-78.66 1103.66-78.66 1104.91-77.83 1104.91-77.83" fill="#E0B79F"/><path d="M823.155 156.225C823.155 156.225 813.06 136.63 794.06 142.57 754.435 154.955 767.14 240.85 832.62 248.26" fill="#F7CCAA"/><path d="M1160.99 156.555C1160.99 156.555 1171.08 136.96 1190.08 142.9 1229.71 155.28 1219.18 241.18 1152.68 248.59" fill="#F7CCAA"/><path d="M1158.94 135.915C1154.2 147.15 1149.38 153.995 1149.38 153.995 1133.66 33.165 1003.66-20.33 1003.66-20.33 1072.14 39.88 1072.71 73.525 1072.71 73.525 957.09 79.775 899.25-2.595 899.25-2.595 899.25-2.595 898.645 11.725 891.105 33.595 882.21 59.39 863.6 95.69 825.005 131.4 824.945 131.945 824.915 132.255 824.915 132.255 822.95 164.84 823.47 221.47 838.655 266.92 865.53 347.36 951.28 365.595 991.99 365.595 1032.7 365.595 1118.45 347.36 1145.32 266.92 1159.69 223.915 1165.97 170.285 1159.36 137.73 1159.24 137.125 1159.07 136.52 1158.94 135.915" fill="#F7CCAA"/><path d="M947.58 170.06C947.58 194.885 932.15 215.015 913.115 215.015 894.085 215.015 878.645 194.885 878.645 170.06 878.645 145.23 894.085 125.1 913.115 125.1 932.15 125.1 947.58 145.23 947.58 170.06" fill="#FFFFFE"/><path d="M1107.18 170.06C1107.18 194.885 1091.75 215.015 1072.71 215.015 1053.69 215.015 1038.25 194.885 1038.25 170.06 1038.25 145.23 1053.69 125.1 1072.71 125.1 1091.75 125.1 1107.18 145.23 1107.18 170.06" fill="#FFFFFE"/><path d="M942.21 176.545C942.21 193.46 932.69 207.17 920.96 207.17 909.22 207.17 899.71 193.46 899.71 176.545 899.71 159.635 909.22 145.92 920.96 145.92 932.69 145.92 942.21 159.635 942.21 176.545" fill="#1A1919"/><path d="M1043.03 176.545C1043.03 193.46 1052.54 207.17 1064.28 207.17 1076.02 207.17 1085.53 193.46 1085.53 176.545 1085.53 159.635 1076.02 145.92 1064.28 145.92 1052.54 145.92 1043.03 159.635 1043.03 176.545" fill="#1A1919"/><path d="M993.03 337.54C940.53 337.54 936.78 276.29 936.155 262.54 936.155 262.54 991.99 280.04 1047.82 262.54 1047.2 276.29 1043.45 337.54 990.95 337.54" fill="#DF7370"/><path d="M893.965 220.08C893.965 227.85 880.86 234.15 864.695 234.15 848.525 234.15 835.415 227.85 835.415 220.08 835.415 212.305 848.525 206.005 864.695 206.005 880.86 206.005 893.965 212.305 893.965 220.08" fill="#EC9896"/><path d="M1148.84 220.08C1148.84 227.85 1135.73 234.15 1119.56 234.15 1103.39 234.15 1090.28 227.85 1090.28 220.08 1090.28 212.305 1103.39 206.005 1119.56 206.005 1135.73 206.005 1148.84 212.305 1148.84 220.08" fill="#EC9896"/><path d="M941.835 166.29C941.835 169.755 939.025 172.565 935.56 172.565 932.09 172.565 929.28 169.755 929.28 166.29 929.28 162.825 932.09 160.015 935.56 160.015 939.025 160.015 941.835 162.825 941.835 166.29" fill="#FFFFFE"/><path d="M1083.89 166.29C1083.89 169.755 1081.07 172.565 1077.61 172.565 1074.15 172.565 1071.33 169.755 1071.33 166.29 1071.33 162.825 1074.15 160.015 1077.61 160.015 1081.07 160.015 1083.89 162.825 1083.89 166.29" fill="#FFFFFE"/><path d="M827.825 221.16 824.905 189.555C824.905 189.555 816.69 169.955 804.075 166.925 787.825 163.025 787.49 189.21 798.655 203.99 815.735 226.625 827.825 221.16 827.825 221.16" fill="#CF957E"/><path d="M1158.66 221.16 1161.57 189.555C1161.57 189.555 1169.78 169.955 1182.41 166.925 1198.66 163.025 1198.98 189.21 1187.82 203.99 1170.74 226.625 1158.66 221.16 1158.66 221.16" fill="#CF957E"/><path d="M964.375 437.58 986.95 425.185 993.585 435.675 1000.94 425.185 1022.24 436.315 1020.97 454.11C1020.97 454.11 1016.33 441.405 995.19 441.405 974.055 441.405 965.645 454.435 965.645 454.435L964.375 437.58" fill="#A8BFD9"/><path d="M988.74 283.375C1008.49 283.375 1026.15 292.595 1037.95 307.09 1046.31 289.575 1047.5 269.67 1047.82 262.54 991.99 280.04 936.155 262.54 936.155 262.54 936.445 269.02 937.445 286.05 943.905 302.25 955.49 290.585 971.29 283.375 988.74 283.375" fill="#C35953"/><path d="M916.155 136.115C924.135 136.115 931.745 137.565 938.76 140.105 932.455 130.915 923.315 125.1 913.115 125.1 901.595 125.1 891.425 132.5 885.17 143.82 894.305 138.945 904.865 136.115 916.155 136.115" fill="#D2E0EB"/><path d="M1069.9 136.115C1061.92 136.115 1054.31 137.565 1047.29 140.105 1053.6 130.915 1062.73 125.1 1072.94 125.1 1084.46 125.1 1094.63 132.5 1100.89 143.82 1091.75 138.945 1081.19 136.115 1069.9 136.115" fill="#D2E0EB"/><path d="M736.29 518.45C734.015 500.015 721.95 463.605 721.95 463.605 721.95 463.605 689.12 466.14 637.29 431.74 637.29 431.74 606.77 422.405 582.675 413.995 566.8 408.445 586.545 401.7 586.545 401.7 586.545 401.7 577.5 397.23 577.89 391.915 578.425 384.53 588.66 384.755 588.66 384.755 588.66 384.755 586.46 378.79 592.15 374.285 597.73 369.87 608.2 370.8 608.2 370.8 608.2 370.8 606.22 363.455 612.03 360.275 625.65 352.82 663.185 362.3 696.855 380.885L703.945 380.605C701.83 377.94 700.06 374.85 699.19 371.43 696.01 358.905 697.6 353.445 701.47 351.625 705.335 349.805 713.98 356.17 719.44 362.09 724.905 368.015 738.335 381.205 744.485 386.215 749.165 390.035 764.45 408.02 764.765 429.465L764.19 441.67C764.19 441.67 766.05 472.71 775.615 487.84L774.525 492.96C767.45 502.065 756.255 512.805 740.58 517.365L736.29 518.45" fill="#F7CCAA"/><path d="M730.15 487.73C730.15 487.73 745.16 508.66 769.285 497.285 769.285 497.285 774.895 499.15 759.115 508.81 743.33 518.47 736.29 518.45 736.29 518.45L730.15 487.73" fill="#CF957E"/><path d="M959.955 381.045 907.255 400.59C907.255 400.59 865.79 408.18 852.095 432.86 838.405 457.545 800.155 533.195 800.155 533.195L802.59 549.325C802.59 549.325 858.975 445.995 876.225 426.945 887.455 414.54 957.405 398.47 957.405 398.47L959.955 381.045" fill="#F2BBBC"/><path d="M1026.82 377.615 1028.81 393.62C1028.81 393.62 1073.93 404.76 1115.44 418.18 1146.99 428.38 1151.29 451.57 1161.41 459.875 1161.41 459.875 1151.21 418.44 1115.59 404.055 1103.88 399.325 1026.82 377.615 1026.82 377.615" fill="#F2BBBC"/><path d="M843.59-51.16C898.17-32.84 934.415-32.635 954.735-35.43 968.38-37.305 961.19-42.18 954.97-43.27 891.02-54.48 871.935-79.035 871.935-79.035L843.59-51.16" fill="#E0B79F"/><path d="M736.29 518.45C734.015 500.015 721.95 463.605 721.95 463.605M942.405 88.165C929.28 78.165 896.155 73.165 878.03 95.04" stroke="#1A1919" stroke-width="7" stroke-linecap="round" stroke-linejoin="round" fill="none"/><path d="M943.81 144C929.35 113.51 868.75 113.375 877.405 185.295" stroke="#1A1919" stroke-width="8" stroke-linecap="round" stroke-linejoin="round" fill="none"/><path d="M823.155 156.225C823.155 156.225 813.06 136.63 794.06 142.57 754.435 154.955 767.14 240.85 832.62 248.26M794.77 165.725C794.77 165.725 807.835 156.82 823.865 191.85M824.915 132.255C822.95 164.84 823.47 221.47 838.655 266.92 865.53 347.36 951.28 365.595 991.99 365.595 1032.7 365.595 1118.45 347.36 1145.32 266.92 1159.69 223.915 1160.94 170.91 1159.36 137.73M1040.53 88.165C1053.66 78.165 1086.78 73.165 1104.91 95.04" stroke="#1A1919" stroke-width="7" stroke-linecap="round" stroke-linejoin="round" fill="none"/><path d="M1040.6 146.95C1052.43 113.585 1117.16 111.12 1108.23 185.295" stroke="#1A1919" stroke-width="8" stroke-linecap="round" stroke-linejoin="round" fill="none"/><path d="M1160.99 156.555C1160.99 156.555 1171.08 136.96 1190.08 142.9 1229.71 155.28 1219.18 241.18 1152.68 248.59M1188.99 166.055C1188.99 166.055 1175.94 157.15 1159.91 192.18M865.53 164.045 876.565 170.92M1109.07 170.92 1123.86 164.045M991.99 243.165 991.99 233.165M1155.32 46.495C1187.09 100.665 1149.38 153.995 1149.38 153.995 1133.66 33.165 1003.66-20.33 1003.66-20.33 1072.14 39.88 1072.71 73.525 1072.71 73.525 957.09 79.775 899.25-2.595 899.25-2.595 899.25-2.595 896.29 67.425 821.885 134.3 821.885 134.3 811.155 87.34 826.78 52.33M780.735 151.43C780.735 151.43 769.67 36.85 824.095-42.41 910.215-167.83 1081.46-130.33 1104.91-77.83 1104.91-77.83 1215.58-64.395 1200.79 147.48M807.17 243.165C807.17 243.165 828.275 321.095 808.465 357.76 808.465 357.76 845.325 350.265 849.49 338.595 849.49 338.595 861.14 362.76 936.145 357.76M1189.69 238.165C1189.69 238.165 1182.82 342.755 1153.66 366.925L1142.82 323.595C1142.82 323.595 1127.41 369.015 1043.03 359.22M764.19 441.67C764.19 441.67 766.05 472.71 775.615 487.84M770.44 470.87C770.44 470.87 786.845 464.675 788.075 475.785 789.15 485.51 805.165 567.8 813.17 583.375M781.555 482.29C776.225 491.915 759.33 517.42 729.045 519.275M731.195 493.315C725.98 498.98 715.745 511.595 719.895 519.4 725.365 529.695 737.63 591.385 741.065 611.415 744.5 631.45 766.33 647.42 783.42 641.18 813.17 630.305 872.815 540.795 872.815 540.795M967.11 379.885C967.11 379.885 909.9 400.235 895.015 403.095 880.135 405.96 859.54 416.83 852.095 432.86 844.65 448.88 799.495 531.855 799.495 531.855M1019.42 375.285C1019.42 375.285 1093.03 398.52 1110.79 403.095 1128.53 407.675 1155.62 424.27 1160.39 460.325 1165.16 496.39 1184.6 663.5 1184.6 663.5M865.26 483.22C865.26 483.22 884.14 633.17 891.585 658.35M1121.27 483.22C1121.27 483.22 1102.39 633.17 1094.94 658.35M1109.99 567.8 1130.81 663.5M963.46 381.165 993.585 435.675 1023.98 376.725M985.99 424.84 948.245 444.375 959.69 384.21M963.46 436.5 992.505 598.825M948.385 386.39 917.6 435.675 932.995 450.03 915.62 469.24 982.015 594.82M1026.82 377.615 1038.29 444.375 1000.55 424.84M1023.98 436.5 994.025 598.825M1035.88 380.455 1068.93 435.675 1053.54 450.03 1070.91 469.24 1004.52 594.82M967.11 384.21 968.24 364.89M1019.42 384.21 1018.33 363.84M993.03 337.54C940.53 337.54 936.78 276.29 936.155 262.54 936.155 262.54 991.99 280.04 1047.82 262.54 1047.2 276.29 1043.45 337.54 990.95 337.54M732.42 463.83C732.42 463.83 691.23 467.925 637.29 431.74 637.29 431.74 606.77 422.405 582.675 413.995 566.8 408.445 586.545 401.7 586.545 401.7 586.545 401.7 577.5 397.23 577.89 391.915 578.425 384.53 588.66 384.755 588.66 384.755 588.66 384.755 586.46 378.79 592.15 374.285 597.73 369.87 608.2 370.8 608.2 370.8 608.2 370.8 606.22 363.455 612.03 360.275 625.65 352.82 663.185 362.3 696.855 380.885M759.96 450.17C774.975 420.585 750.625 391.225 744.485 386.215 738.335 381.205 724.905 368.015 719.44 362.09 713.98 356.17 705.335 349.805 701.47 351.625 697.6 353.445 696.01 358.905 699.19 371.43 702.37 383.945 717.625 391.915 717.625 391.915 717.625 391.915 712.16 423.315 731.05 433.33M700.785 381.44C700.785 381.44 666.19 388.495 640.925 421.27M588.025 401.745C588.025 401.745 612.61 399.935 643.33 414.505M588.35 384.86C588.35 384.86 620.215 381.67 661.41 399.87M607.51 370.57C608.21 370.515 644.63 369.87 676.495 390.99" stroke="#1A1919" stroke-width="7" stroke-linecap="round" stroke-linejoin="round" fill="none"/></g></g></g><g clip-path="url(#clip4)"><g clip-path="url(#clip5)"><g clip-path="url(#clip6)"><path d="M394.181 803.387C409.171 645.89 398.606 559.192 371.097 551.472 357.512 547.663 278.089 518.518 251.819 508.353L195.021 508.028C168.746 518.188 94.4329 545.198 80.8532 549.008 53.3488 556.727 38.3641 564.947 46.124 727.388L52.8638 779.107C52.8638 779.107 55.9187 799.767 80.2932 805.702 104.668 811.642 111.887 793.777 111.887 793.777L394.181 803.387" fill="#F7CCAA" transform="matrix(1 0 0 1.00094 767.894 -114.307)"/><path d="M199.975 496.869 197.596 522.338C197.596 522.338 211.97 541.923 224.675 541.923 243.424 541.923 251.144 516.188 251.144 516.188L250.064 495.824" fill="#F7CCAA" transform="matrix(1 0 0 1.00094 767.894 -114.307)"/><path d="M250.744 507.973C250.744 507.973 369.902 550.893 374.491 553.392 377.071 554.797 385.451 560.112 391.271 571.097 391.151 570.677 394.026 586.867 393.771 586.927 387.481 579.457 379.201 568.587 370.022 565.262 355.147 559.882 256.529 525.948 256.529 525.948L250.744 507.973" fill="#F7CCAA" transform="matrix(1 0 0 1.00094 767.894 -114.307)"/><path d="M197.885 507.973C197.885 507.973 78.7282 550.893 74.1383 553.392 71.5584 554.797 59.2087 559.407 53.3888 570.397 53.5038 569.977 50.1839 590.612 50.4389 590.672 56.6887 581.092 65.5635 569.757 74.6083 566.092 92.1079 559.007 192.106 525.948 192.106 525.948L197.885 507.973" fill="#F7CCAA" transform="matrix(1 0 0 1.00094 767.894 -114.307)"/><path d="M199.935 477.129 250.064 477.129 250.484 501.519C250.484 501.519 244.309 524.073 196.456 522.163L198.331 505.978 199.935 477.129" fill="#F7CCAA" transform="matrix(1 0 0 1.00094 767.894 -114.307)"/><path d="M245.609 732.783C181.751 737.378 118.917 726.654 97.4628 706.219 102.993 733.113 96.8678 794.772 100.378 803.397L395.266 803.397C398.771 794.792 402.441 707.239 402.951 665.35 378.426 691.914 316.468 727.688 245.609 732.783" fill="#F7CCAA" transform="matrix(1 0 0 1.00094 767.894 -114.307)"/><path d="M224.26 781.497C260.649 636.271 256.119 552.577 252.874 525.048L251.144 516.188C251.144 516.188 243.424 541.923 224.675 541.923 211.97 541.923 197.596 522.338 197.596 522.338L195.856 526.303C192.526 555.282 188.486 638.715 224.26 781.497" fill="#F7CCAA" transform="matrix(1 0 0 1.00094 767.894 -114.307)"/><path d="M204.36 566.812C204.36 566.812 222.35 542.963 225.345 542.828 228.335 542.693 242.075 566.812 242.075 566.812 242.075 566.812 228.04 553.257 204.36 566.812" fill="#F7CCAA" transform="matrix(1 0 0 1.00094 767.894 -114.307)"/><path d="M196.896 507.348C170.621 517.508 87.663 547.663 74.0833 551.472M251.819 508.353C278.089 518.518 357.512 547.663 371.097 551.472 398.606 559.192 409.171 645.89 395.011 800.887" stroke="#1A1919" stroke-width="6.99984" stroke-linecap="round" stroke-linejoin="round" fill="#F7CCAA" transform="matrix(1 0 0 1.00094 767.894 -114.307)"/><path d="M367.592 594.422 331.337 801.087M80.9332 594.422 112.722 775.667" stroke="#1A1919" stroke-width="5.99986" stroke-linecap="round" stroke-linejoin="round" fill="#F7CCAA" transform="matrix(1 0 0 1.00094 767.894 -114.307)"/><path d="M380.176 651.745C380.176 651.745 371.477 701.064 345.092 725.669" stroke="#1A1919" stroke-width="4.99989" stroke-linecap="round" stroke-linejoin="round" fill="#F7CCAA" transform="matrix(1 0 0 1.00094 767.894 -114.307)"/><path d="M274.879 490.094C359.262 499.914 374.671 454.53 374.671 454.53L385.491 497.824C414.671 473.684 421.58 369.097 421.58 369.097L433.085 275.514C447.95 63.6386 336.907 53.0938 336.907 53.0938 313.478 0.564987 142.242-36.9742 56.0837 88.433 1.62996 167.651 11.5647 278.434 11.5647 278.434L39.0691 373.977C39.0691 373.977 60.1386 451.905 40.3241 488.559 40.3241 488.559 77.1832 481.064 81.3532 469.414 81.3532 469.414 92.9979 493.569 168.006 488.609" fill="#F7CCAA" transform="matrix(1 0 0 1.00094 767.894 -114.307)"/><path d="M336.907 53.0938C313.478 0.564987 142.242-36.9742 56.0837 88.433 1.62996 167.651 11.5647 278.434 11.5647 278.434L28.7143 274.229C28.7143 274.229 19.2396 125.597 106.488 61.3386 206.345-12.2297 298.693 34.8692 334.807 52.2438 335.657 52.2538 336.907 53.0938 336.907 53.0938" fill="#F7CCAA" transform="matrix(1 0 0 1.00094 767.894 -114.307)"/><path d="M55.0788 287.048C55.0788 287.048 44.989 267.449 25.9944 273.379-13.6397 285.749-0.954978 371.642 64.5085 379.066" fill="#F7CCAA" transform="matrix(1 0 0 1.00094 767.894 -114.307)"/><path d="M392.891 287.478C392.891 287.478 403.011 267.889 422.01 273.829 461.609 286.243 451.055 372.127 384.541 379.521" fill="#F7CCAA" transform="matrix(1 0 0 1.00094 767.894 -114.307)"/><path d="M390.861 266.844C386.096 278.079 381.291 284.909 381.291 284.909 365.617 164.081 235.64 110.552 235.64 110.552 304.093 170.791 304.673 204.42 304.673 204.42 189.036 210.645 131.227 128.257 131.227 128.257 131.227 128.257 130.617 142.572 123.082 164.426 114.157 190.241 95.5428 226.525 56.9387 262.214 56.8737 262.759 56.8487 263.074 56.8487 263.074 54.8688 295.653 55.3737 352.287 70.5384 397.736 97.3978 478.194 183.136 496.449 223.84 496.454 264.544 496.469 350.312 478.279 377.196 397.841 391.561 354.842 397.881 301.213 391.281 268.649 391.151 268.064 390.986 267.434 390.861 266.844" fill="#F7CCAA" transform="matrix(1 0 0 1.00094 767.894 -114.307)"/><path d="M179.496 300.913C179.491 325.748 164.051 345.862 145.022 345.857 125.987 345.852 110.552 325.728 110.562 300.903 110.572 276.054 126.017 255.944 145.052 255.939 164.081 255.959 179.501 276.084 179.496 300.913" fill="#F7CCAA" transform="matrix(1 0 0 1.00094 767.894 -114.307)"/><path d="M339.092 300.973C339.082 325.803 323.653 345.917 304.613 345.912 285.589 345.897 270.149 325.773 270.159 300.943 270.169 276.109 285.618 255.994 304.653 256.004 323.673 256.009 339.112 276.144 339.092 300.973" fill="#F7CCAA" transform="matrix(1 0 0 1.00094 767.894 -114.307)"/><path d="M125.872 350.922C125.872 358.692 112.762 364.997 96.5878 364.987 80.4232 364.987 67.3185 358.667 67.3185 350.897 67.3185 343.122 80.4332 336.837 96.5978 336.842 112.767 336.842 125.877 343.152 125.872 350.922" fill="#F7CCAA" transform="matrix(1 0 0 1.00094 767.894 -114.307)"/><path d="M380.731 351.007C380.731 358.782 367.617 365.057 351.467 365.077 335.297 365.062 322.188 358.747 322.178 350.977 322.188 343.217 335.302 336.917 351.457 336.922 367.637 336.922 380.721 343.232 380.731 351.007" fill="#F7CCAA" transform="matrix(1 0 0 1.00094 767.894 -114.307)"/><path d="M59.7236 351.977 56.8187 320.368C56.8187 320.368 48.6089 300.778 35.9992 297.728 19.7546 293.823 19.4146 320.013 30.5643 334.807 47.6339 357.437 59.7236 351.977 59.7236 351.977" fill="#F7CCAA" transform="matrix(1 0 0 1.00094 767.894 -114.307)"/><path d="M390.536 352.082 393.476 320.478C393.476 320.478 401.701 300.888 414.316 297.858 430.575 293.958 430.89 320.148 419.715 334.932 402.636 357.562 390.536 352.082 390.536 352.082" fill="#F7CCAA" transform="matrix(1 0 0 1.00094 767.894 -114.307)"/><path d="M148.082 266.959C156.061 266.954 163.671 268.419 170.691 270.959 164.381 261.774 155.251 255.944 145.052 255.939 133.532 255.934 123.357 263.329 117.082 274.659 126.232 269.789 136.792 266.959 148.082 266.959" fill="#F7CCAA" transform="matrix(1 0 0 1.00094 767.894 -114.307)"/><path d="M301.838 267.014C293.833 267.009 286.233 268.459 279.224 270.989 285.529 261.809 294.663 255.994 304.858 255.994 316.378 256.004 326.563 263.404 332.812 274.729 323.683 269.849 313.108 267.019 301.838 267.014" fill="#F7CCAA" transform="matrix(1 0 0 1.00094 767.894 -114.307)"/><path d="M75.5833 79.6682C130.157 98.0028 166.396 98.2328 186.711 95.4378 200.37 93.5679 193.176 88.678 186.966 87.598 123.012 76.3533 103.938 51.8038 103.938 51.8038L75.5833 79.6682" fill="#F7CCAA" transform="matrix(1 0 0 1.00094 767.894 -114.307)"/><path d="M175.736 274.859C161.286 244.374 100.698 244.209 109.323 316.133" stroke="#1A1919" stroke-width="7.99982" stroke-linecap="round" stroke-linejoin="round" fill="#F7CCAA" transform="matrix(1 0 0 1.00094 767.894 -114.307)"/><path d="M55.0788 287.048C55.0788 287.048 44.989 267.449 25.9944 273.379-13.6397 285.749-0.954978 371.642 64.5085 379.066M26.6844 296.523C26.6844 296.523 39.7641 287.638 55.7737 322.668M56.8487 263.074C54.8688 295.653 55.3737 352.287 70.5384 397.736 97.3978 478.194 183.136 496.449 223.84 496.454 264.544 496.469 350.312 478.279 377.196 397.841 391.561 354.842 392.831 301.853 391.281 268.649M272.464 219.055C285.599 209.055 318.733 204.075 336.847 225.965M177.591 219.055C164.461 209.055 131.327 204.075 113.212 225.965" stroke="#1A1919" stroke-width="6.99984" stroke-linecap="round" stroke-linejoin="round" fill="#F7CCAA" transform="matrix(1 0 0 1.00094 767.894 -114.307)"/><path d="M272.519 277.834C284.369 244.479 349.102 242.04 340.147 316.208" stroke="#1A1919" stroke-width="7.99982" stroke-linecap="round" stroke-linejoin="round" fill="#F7CCAA" transform="matrix(1 0 0 1.00094 767.894 -114.307)"/><path d="M392.891 287.478C392.891 287.478 403.011 267.889 422.01 273.829 461.609 286.243 451.055 372.127 384.541 379.521M420.92 296.998C420.92 296.998 407.851 288.083 391.806 323.113M97.4628 294.878 108.483 301.753M340.997 301.828 355.762 294.963M223.875 374.032 223.88 364.027M387.276 177.421C419.025 231.6 381.291 284.909 381.291 284.909 365.617 164.081 235.64 110.552 235.64 110.552 304.093 170.791 304.673 204.42 304.673 204.42 189.036 210.645 131.227 128.257 131.227 128.257 131.227 128.257 128.237 198.281 53.8188 265.119 53.8188 265.119 43.099 218.145 58.7337 183.151M12.6697 282.239C12.6697 282.239 1.62996 167.651 56.0837 88.433 142.242-36.9742 313.478 0.564987 336.907 53.0938 336.907 53.0938 447.58 66.5585 432.725 278.414M39.0691 373.977C39.0691 373.977 60.1386 451.905 40.3241 488.559 40.3241 488.559 77.1832 481.064 81.3532 469.414 81.3532 469.414 92.9979 493.569 168.006 488.609M421.58 369.097C421.58 369.097 414.671 473.684 385.491 497.824L374.671 454.53C374.671 454.53 359.262 499.914 274.879 490.094" stroke="#1A1919" stroke-width="6.99984" stroke-linecap="round" stroke-linejoin="round" fill="#F7CCAA" transform="matrix(1 0 0 1.00094 767.894 -114.307)"/><path d="M265.269 514.308 307.173 562.752 291.778 577.107 309.153 596.316 236.255 775.667M185.086 512.753 143.007 562.752 158.396 577.107 141.027 596.316 213.93 775.667" stroke="#1A1919" stroke-width="5.99986" stroke-linecap="round" stroke-linejoin="round" fill="#F7CCAA" transform="matrix(1 0 0 1.00094 767.894 -114.307)"/><path d="M199.755 495.129 197.596 522.338C197.596 522.338 211.97 541.923 224.675 541.923 243.424 541.923 251.144 516.188 251.144 516.188L250.579 495.554M197.596 514.638C197.596 514.638 178.846 600.251 224.26 781.497M251.339 514.843C251.339 514.843 269.674 600.251 224.26 781.497" stroke="#1A1919" stroke-width="6.99984" stroke-linecap="round" stroke-linejoin="round" fill="#F7CCAA" transform="matrix(1 0 0 1.00094 767.894 -114.307)"/><path d="M195.091 578.172 224.675 541.923 254.464 581.922" stroke="#1A1919" stroke-width="5.99986" stroke-linecap="round" stroke-linejoin="round" fill="#F7CCAA" transform="matrix(1 0 0 1.00094 767.894 -114.307)"/><path d="M174.136 315.543C174.116 332.457 164.591 346.162 152.862 346.162 141.132 346.162 131.627 332.442 131.632 315.533 131.637 298.618 141.152 284.904 152.882 284.914 164.616 284.919 174.136 298.633 174.136 315.543" fill="#F7CCAA" transform="matrix(1 0 0 1.00094 767.894 -114.307)"/><path d="M274.944 315.568C274.934 332.492 284.459 346.197 296.183 346.202 307.923 346.212 317.433 332.502 317.453 315.588 317.453 298.663 307.943 284.959 296.213 284.959 284.474 284.954 274.944 298.653 274.944 315.568" fill="#F7CCAA" transform="matrix(1 0 0 1.00094 767.894 -114.307)"/><path d="M173.756 305.298C173.751 308.753 170.946 311.563 167.471 311.563 164.006 311.563 161.201 308.753 161.201 305.298 161.206 301.813 164.016 299.013 167.486 299.023 170.951 299.023 173.751 301.828 173.756 305.298" fill="#F7CCAA" transform="matrix(1 0 0 1.00094 767.894 -114.307)"/><path d="M315.793 305.338C315.803 308.808 312.983 311.608 309.523 311.598 306.068 311.608 303.253 308.798 303.243 305.328 303.243 301.863 306.058 299.058 309.543 299.058 313.003 299.058 315.823 301.883 315.793 305.338" fill="#F7CCAA" transform="matrix(1 0 0 1.00094 767.894 -114.307)"/><path d="M276.564 396.511C269.524 407.471 253.309 427.03 225.115 427.03 196.926 427.03 180.711 407.471 173.651 396.511" stroke="#1A1919" stroke-width="6.99984" stroke-linecap="round" stroke-linejoin="round" fill="#F7CCAA" transform="matrix(1 0 0 1.00094 767.894 -114.307)"/><path d="M96.0078 805.702C103.823 803.827 121.632 784.767 136.007 765.393 150.382 746.018 181.881 686.504 184.101 678.54 187.641 665.83 176.516 644.875 176.516 644.875L172.566 631.456 148.402 610.041C145.072 607.121 135.397 605.121 131.367 611.601 115.432 637.226 96.1128 671.54 83.4031 689.244 76.8733 698.334 60.7986 716.459 57.0487 725.208L96.0078 805.702" fill="#F7CCAA" transform="matrix(1 0 0 1.00094 767.894 -114.307)"/><path d="M57.0487 725.208C60.7986 716.459 76.8733 698.334 83.4031 689.244 96.1128 671.54 116.222 637.496 132.157 611.871 136.187 605.391 144.137 606.496 147.467 609.416L153.737 612.661C150.402 609.741 144.817 613.536 140.792 620.011 124.852 645.635 101.353 683.875 88.643 701.579 82.5181 710.114 70.6984 720.499 59.6586 738.833 56.9437 743.798 50.2839 762.793 50.2839 762.793L47.5739 740.293C47.5739 740.293 55.0938 728.403 57.0487 725.208" fill="#F7CCAA" transform="matrix(1 0 0 1.00094 767.894 -114.307)"/><path d="M237.095 572.812 242.085 543.558 268.234 577.177C268.234 577.177 255.129 565.902 237.095 572.812" fill="#F7CCAA" transform="matrix(1 0 0 1.00094 767.894 -114.307)"/><path d="M252.914 483.769C252.914 483.769 252.689 499.754 257.499 507.723M74.0833 551.472C63.9885 555.182 50.0739 566.332 47.1589 591.542 41.3291 666.955 45.074 754.453 53.5088 781.327 61.9486 808.202 88.198 807.577 96.0078 805.702" stroke="#1A1919" stroke-width="6.99984" stroke-linecap="round" stroke-linejoin="round" fill="#F7CCAA" transform="matrix(1 0 0 1.00094 767.894 -114.307)"/><path d="M260.979 574.587C260.979 577.712 258.434 580.257 255.309 580.257L181.026 580.257C177.906 580.257 175.356 577.712 175.356 574.587L175.356 456.095C175.356 452.975 177.906 450.425 181.026 450.425L255.309 450.425C258.434 450.425 260.979 452.975 260.979 456.095L260.979 574.587" fill="#F7CCAA" transform="matrix(1 0 0 1.00094 767.894 -114.307)"/><path d="M175.671 554.172 175.671 524.303 261.414 474.954 261.604 512.298 175.671 554.172" fill="#F7CCAA" transform="matrix(1 0 0 1.00094 767.894 -114.307)"/><path d="M260.979 574.587C260.979 577.712 258.434 580.257 255.309 580.257L181.026 580.257C177.906 580.257 175.356 577.712 175.356 574.587L175.356 456.095C175.356 452.975 177.906 450.425 181.026 450.425L255.309 450.425C258.434 450.425 260.979 452.975 260.979 456.095L260.979 574.587ZM57.0487 725.208C60.7986 716.459 76.8733 698.334 83.4031 689.244 96.1128 671.54 113.407 641.035 129.657 615.206 133.722 608.746 140.487 606.456 145.487 609.371L172.566 631.456 177.526 650.36C177.526 650.36 188.151 668.17 184.611 680.88 182.391 688.849 150.382 746.018 136.007 765.393 121.632 784.767 103.823 803.827 96.0078 805.702" stroke="#1A1919" stroke-width="6.99984" stroke-linecap="round" stroke-linejoin="round" fill="#F7CCAA" transform="matrix(1 0 0 1.00094 767.894 -114.307)"/><path d="M132.882 627.076C132.882 627.076 130.477 632.206 132.157 639.58 135.907 656.035 161.531 692.909 170.066 688.329 170.066 688.329 184.151 666.255 184.236 662.08 184.441 652.495 176.841 644.575 176.841 644.575 176.841 644.575 155.116 604.136 149.652 605.411 143.402 606.871 132.882 627.076 132.882 627.076" fill="#F7CCAA" transform="matrix(1 0 0 1.00094 767.894 -114.307)"/><path d="M132.882 627.076C132.882 627.076 130.477 632.206 132.157 639.58 135.907 656.035 161.531 692.909 170.066 688.329 170.066 688.329 184.151 666.255 184.236 662.08 184.441 652.495 176.841 644.575 176.841 644.575 176.841 644.575 155.116 604.136 149.652 605.411 143.402 606.871 132.882 627.076 132.882 627.076Z" stroke="#1A1919" stroke-width="5.99986" stroke-linecap="round" stroke-linejoin="round" fill="#F7CCAA" transform="matrix(1 0 0 1.00094 767.894 -114.307)"/><path d="M147.362 621.456C147.362 621.456 146.737 627.081 146.947 628.121 147.157 629.161 160.281 651.875 161.531 653.955 162.781 656.035 174.026 663.54 176.111 658.955 178.196 654.37 175.071 644.785 175.071 644.785L154.656 621.661 147.362 621.456" fill="#F7CCAA" transform="matrix(1 0 0 1.00094 767.894 -114.307)"/><path d="M147.362 620.206C154.861 610.831 152.652 606.351 152.652 606.351 152.652 606.351 150.987 565.097 152.652 559.682 154.316 554.267 160.151 535.913 160.566 530.518 161.396 519.683 160.771 510.308 158.896 504.679 157.461 500.364 168.586 500.624 171.396 506.559 174.211 512.498 175.356 515.098 175.356 528.848L175.356 550.727C175.356 550.727 209.935 523.648 215.145 519.478 220.355 515.308 257.434 490.314 264.519 488.229 271.604 486.144 278.684 492.184 272.434 501.144 266.189 510.103 221.605 542.598 221.605 542.598 221.605 542.598 258.819 519.443 261.919 518.068 271.294 513.903 280.894 526.223 269.829 534.528 266.504 537.028 230.355 560.307 230.355 560.307 230.355 560.307 259.979 543.988 263.169 542.128 272.544 536.663 279.264 547.753 270.044 556.972 264.594 562.422 241.45 578.537 241.45 578.537 241.45 578.537 257.104 569.447 260.979 567.597 271.134 562.752 276.759 571.347 266.919 581.662 258.204 590.797 251.189 596.976 244.729 602.181 240.305 605.746 230 624.206 195.131 634.196 191.451 635.251 188.571 638.81 188.571 638.81L173.816 660.205" fill="#F7CCAA" transform="matrix(1 0 0 1.00094 767.894 -114.307)"/><path d="M147.362 620.206C154.861 610.831 152.652 606.351 152.652 606.351 152.652 606.351 150.987 565.097 152.652 559.682 154.316 554.267 160.151 535.913 160.566 530.518 161.396 519.683 160.771 510.308 158.896 504.679 157.461 500.364 168.586 500.624 171.396 506.559 174.211 512.498 175.356 515.098 175.356 528.848L175.356 550.727C175.356 550.727 209.935 523.648 215.145 519.478 220.355 515.308 257.434 490.314 264.519 488.229 271.604 486.144 278.684 492.184 272.434 501.144 266.189 510.103 221.605 542.598 221.605 542.598 221.605 542.598 258.819 519.443 261.919 518.068 271.294 513.903 280.894 526.223 269.829 534.528 266.504 537.028 230.355 560.307 230.355 560.307 230.355 560.307 259.979 543.988 263.169 542.128 272.544 536.663 279.264 547.753 270.044 556.972 264.594 562.422 241.45 578.537 241.45 578.537 241.45 578.537 257.104 569.447 260.979 567.597 271.134 562.752 276.759 571.347 266.919 581.662 258.204 590.797 251.189 596.976 244.729 602.181 240.305 605.746 230 624.206 195.131 634.196 191.451 635.251 188.571 638.81 188.571 638.81L173.816 660.205" stroke="#1A1919" stroke-width="6.99984" stroke-linecap="round" stroke-linejoin="round" fill="#F7CCAA" transform="matrix(1 0 0 1.00094 767.894 -114.307)"/><path d="M147.362 614.786C147.362 614.786 145.402 621.651 147.362 628.956 150.637 641.13 165.486 665.205 176.316 663.955" stroke="#1A1919" stroke-width="5.99986" stroke-linecap="round" stroke-linejoin="round" fill="#F7CCAA" transform="matrix(1 0 0 1.00094 767.894 -114.307)"/><path d="M198.895 472.094C198.895 475.939 195.781 479.054 191.936 479.054 188.086 479.054 184.971 475.939 184.971 472.094 184.971 468.244 188.086 465.129 191.936 465.129 195.781 465.129 198.895 468.244 198.895 472.094" fill="#F7CCAA" transform="matrix(1 0 0 1.00094 767.894 -114.307)"/><path d="M198.895 472.094C198.895 475.939 195.781 479.054 191.936 479.054 188.086 479.054 184.971 475.939 184.971 472.094 184.971 468.244 188.086 465.129 191.936 465.129 195.781 465.129 198.895 468.244 198.895 472.094Z" stroke="#1A1919" stroke-width="4.99989" stroke-linecap="round" stroke-linejoin="round" fill="#F7CCAA" transform="matrix(1 0 0 1.00094 767.894 -114.307)"/></g></g></g><g clip-path="url(#clip7)"><g clip-path="url(#clip8)"><g clip-path="url(#clip9)"><path d="M122.893 250.469C127.566 201.367 124.272 174.338 115.696 171.931 111.46 170.743 86.6988 161.657 78.5089 158.488L60.8009 158.386C52.6094 161.554 29.441 169.974 25.2073 171.162 16.6324 173.569 11.9607 176.132 14.3799 226.775L16.4812 242.9C16.4812 242.9 17.4336 249.341 25.0327 251.191 32.6319 253.043 34.8828 247.473 34.8828 247.473L122.893 250.469" fill="#F7CCAA" transform="matrix(7.78226 0 0 1 669.204 207.232)"/><path d="M62.3457 154.907 61.6037 162.848C61.6037 162.848 66.0852 168.953 70.0461 168.953 75.8916 168.953 78.2984 160.93 78.2984 160.93L77.9617 154.581" fill="#F7CCAA" transform="matrix(7.78226 0 0 1 669.204 207.232)"/><path d="M78.1737 158.369C78.1737 158.369 115.323 171.75 116.754 172.529 117.558 172.967 120.171 174.624 121.985 178.049 121.948 177.918 122.844 182.965 122.765 182.984 120.804 180.655 118.222 177.266 115.36 176.23 110.723 174.553 79.9772 163.973 79.9772 163.973L78.1737 158.369" fill="#F7CCAA" transform="matrix(7.78226 0 0 1 669.204 207.232)"/><path d="M61.6941 158.369C61.6941 158.369 24.5448 171.75 23.1139 172.529 22.3095 172.967 18.4593 174.405 16.6448 177.831 16.6807 177.7 15.6457 184.133 15.7252 184.152 17.6736 181.165 20.4405 177.631 23.2604 176.489 28.7162 174.28 59.8921 163.973 59.8921 163.973L61.6941 158.369" fill="#F7CCAA" transform="matrix(7.78226 0 0 1 669.204 207.232)"/><path d="M62.3332 148.753 77.9617 148.753 78.0927 156.357C78.0927 156.357 76.1675 163.389 61.2483 162.793L61.8328 157.747 62.3332 148.753" fill="#F7CCAA" transform="matrix(7.78226 0 0 1 669.204 207.232)"/><path d="M76.5728 228.457C56.6639 229.89 37.0744 226.546 30.3856 220.176 32.1097 228.56 30.2001 247.783 31.2944 250.472L123.231 250.472C124.323 247.79 125.468 220.494 125.627 207.434 117.981 215.716 98.6641 226.869 76.5728 228.457" fill="#F7CCAA" transform="matrix(7.78226 0 0 1 669.204 207.232)"/><path d="M69.9168 243.645C81.2617 198.368 79.8494 172.275 78.8378 163.692L78.2984 160.93C78.2984 160.93 75.8916 168.953 70.0461 168.953 66.0852 168.953 61.6037 162.848 61.6037 162.848L61.0612 164.084C60.0231 173.119 58.7636 199.13 69.9168 243.645" fill="#F7CCAA" transform="matrix(7.78226 0 0 1 669.204 207.232)"/><path d="M63.7127 176.713C63.7127 176.713 69.3213 169.278 70.255 169.236 71.1872 169.193 75.4708 176.713 75.4708 176.713 75.4708 176.713 71.0952 172.487 63.7127 176.713" fill="#F7CCAA" transform="matrix(7.78226 0 0 1 669.204 207.232)"/><path d="M61.3855 158.174C53.194 161.342 27.3304 170.743 23.0967 171.931M78.5089 158.488C86.6988 161.657 111.46 170.743 115.696 171.931 124.272 174.338 127.566 201.367 123.151 249.69" stroke="#1A1919" stroke-width="2.18232" stroke-linecap="round" stroke-linejoin="round" fill="#F7CCAA" transform="matrix(7.78226 0 0 1 669.204 207.232)"/><path d="M114.603 185.321 103.3 249.752M25.2323 185.321 35.1431 241.827" stroke="#1A1919" stroke-width="1.87056" stroke-linecap="round" stroke-linejoin="round" fill="#F7CCAA" transform="matrix(7.78226 0 0 1 669.204 207.232)"/><path d="M118.526 203.192C118.526 203.192 115.814 218.568 107.588 226.239" stroke="#1A1919" stroke-width="1.5588" stroke-linecap="round" stroke-linejoin="round" fill="#F7CCAA" transform="matrix(7.78226 0 0 1 669.204 207.232)"/><path d="M85.698 152.795C112.006 155.856 116.81 141.707 116.81 141.707L120.183 155.205C129.28 147.679 131.435 115.072 131.435 115.072L135.022 85.896C139.656 19.8404 105.036 16.5529 105.036 16.5529 97.7319 0.176144 44.3462-11.5273 17.485 27.5705 0.508168 52.268 3.6055 86.8063 3.6055 86.8063L12.1804 116.593C12.1804 116.593 18.7492 140.889 12.5717 152.316 12.5717 152.316 24.0632 149.98 25.3632 146.348 25.3632 146.348 28.9936 153.878 52.3787 152.332" fill="#F7CCAA" transform="matrix(7.78226 0 0 1 669.204 207.232)"/><path d="M105.036 16.5529C97.7319 0.176144 44.3462-11.5273 17.485 27.5705 0.508168 52.268 3.6055 86.8063 3.6055 86.8063L8.95218 85.4954C8.95218 85.4954 5.99825 39.157 33.1993 19.1233 64.3316-3.81282 93.1226 10.8711 104.382 16.2879 104.647 16.291 105.036 16.5529 105.036 16.5529" fill="#F7CCAA" transform="matrix(7.78226 0 0 1 669.204 207.232)"/><path d="M17.1717 89.4921C17.1717 89.4921 14.0261 83.3817 8.10419 85.2304-4.2524 89.0869-0.29773 115.865 20.1116 118.18" fill="#F7CCAA" transform="matrix(7.78226 0 0 1 669.204 207.232)"/><path d="M122.49 89.6262C122.49 89.6262 125.645 83.5188 131.569 85.3707 143.914 89.2412 140.624 116.017 119.887 118.322" fill="#F7CCAA" transform="matrix(7.78226 0 0 1 669.204 207.232)"/><path d="M121.857 83.193C120.372 86.6957 118.874 88.825 118.874 88.825 113.987 51.1551 73.4646 34.4666 73.4646 34.4666 94.8061 53.247 94.9869 63.7314 94.9869 63.7314 58.935 65.6721 40.9122 39.9863 40.9122 39.9863 40.9122 39.9863 40.722 44.4491 38.3729 51.2626 35.5905 59.3107 29.7871 70.6229 17.7516 81.7496 17.7313 81.9195 17.7235 82.0177 17.7235 82.0177 17.1062 92.1748 17.2637 109.831 21.9915 124.001 30.3654 149.085 57.0956 154.776 69.7858 154.778 82.476 154.782 109.216 149.111 117.597 124.034 122.076 110.628 124.046 93.9082 121.988 83.7558 121.948 83.5734 121.896 83.377 121.857 83.193" fill="#F7CCAA" transform="matrix(7.78226 0 0 1 669.204 207.232)"/><path d="M55.9608 93.8147C55.9593 101.557 51.1457 107.828 45.2129 107.827 39.2786 107.825 34.4666 101.551 34.4697 93.8116 34.4728 86.0643 39.2879 79.7949 45.2223 79.7933 51.1551 79.7995 55.9624 86.0737 55.9608 93.8147" fill="#F7CCAA" transform="matrix(7.78226 0 0 1 669.204 207.232)"/><path d="M105.718 93.8334C105.715 101.574 100.904 107.845 94.9682 107.844 89.037 107.839 84.2234 101.565 84.2265 93.824 84.2296 86.0815 89.0463 79.8104 94.9807 79.8136 100.91 79.8151 105.724 86.0924 105.718 93.8334" fill="#F7CCAA" transform="matrix(7.78226 0 0 1 669.204 207.232)"/><path d="M39.2427 109.406C39.2427 111.828 35.1556 113.794 30.1129 113.791 25.0733 113.791 20.9877 111.82 20.9877 109.398 20.9877 106.974 25.0764 105.015 30.116 105.016 35.1571 105.016 39.2443 106.983 39.2427 109.406" fill="#F7CCAA" transform="matrix(7.78226 0 0 1 669.204 207.232)"/><path d="M118.699 109.432C118.699 111.856 114.611 113.813 109.576 113.819 104.535 113.814 100.447 111.845 100.444 109.423 100.447 107.004 104.536 105.04 109.573 105.041 114.617 105.041 118.696 107.008 118.699 109.432" fill="#F7CCAA" transform="matrix(7.78226 0 0 1 669.204 207.232)"/><path d="M18.6198 109.735 17.7142 99.88C17.7142 99.88 15.1546 93.7726 11.2233 92.8217 6.15881 91.6043 6.05281 99.7693 9.52893 104.382 14.8507 111.437 18.6198 109.735 18.6198 109.735" fill="#F7CCAA" transform="matrix(7.78226 0 0 1 669.204 207.232)"/><path d="M121.756 109.767 122.673 99.9143C122.673 99.9143 125.237 93.8069 129.17 92.8623 134.239 91.6464 134.337 99.8114 130.853 104.421 125.528 111.476 121.756 109.767 121.756 109.767" fill="#F7CCAA" transform="matrix(7.78226 0 0 1 669.204 207.232)"/><path d="M46.1669 83.2289C48.6548 83.2273 51.0272 83.6841 53.2158 84.4759 51.2486 81.6124 48.4022 79.7949 45.2223 79.7933 41.6308 79.7917 38.4587 82.0972 36.5024 85.6294 39.355 84.1112 42.6471 83.2289 46.1669 83.2289" fill="#F7CCAA" transform="matrix(7.78226 0 0 1 669.204 207.232)"/><path d="M94.1031 83.246C91.6074 83.2445 89.2381 83.6965 87.0526 84.4853 89.0183 81.6233 91.8662 79.8104 95.0446 79.8104 98.6361 79.8136 101.811 82.1206 103.76 85.6513 100.913 84.1299 97.6166 83.2476 94.1031 83.246" fill="#F7CCAA" transform="matrix(7.78226 0 0 1 669.204 207.232)"/><path d="M23.5643 24.8379C40.5786 30.554 51.8768 30.6257 58.2102 29.7543 62.4688 29.1713 60.2257 27.6468 58.2897 27.3101 38.3511 23.8044 32.4043 16.1507 32.4043 16.1507L23.5643 24.8379" fill="#F7CCAA" transform="matrix(7.78226 0 0 1 669.204 207.232)"/><path d="M54.7886 85.6918C50.2837 76.1878 31.3942 76.1364 34.0831 98.5597" stroke="#1A1919" stroke-width="2.49408" stroke-linecap="round" stroke-linejoin="round" fill="#F7CCAA" transform="matrix(7.78226 0 0 1 669.204 207.232)"/><path d="M17.1717 89.4921C17.1717 89.4921 14.0261 83.3817 8.10419 85.2304-4.2524 89.0869-0.29773 115.865 20.1116 118.18M8.3193 92.4461C8.3193 92.4461 12.3971 89.6761 17.3884 100.597M17.7235 82.0177C17.1062 92.1748 17.2637 109.831 21.9915 124.001 30.3654 149.085 57.0956 154.776 69.7858 154.778 82.476 154.782 109.216 149.111 117.597 124.034 122.076 110.628 122.472 94.1077 121.988 83.7558M84.9451 68.2941C89.0401 65.1765 99.3702 63.6239 105.018 70.4483M55.3669 68.2941C51.2735 65.1765 40.9434 63.6239 35.2959 70.4483" stroke="#1A1919" stroke-width="2.18232" stroke-linecap="round" stroke-linejoin="round" fill="#F7CCAA" transform="matrix(7.78226 0 0 1 669.204 207.232)"/><path d="M84.9623 86.6193C88.6566 76.2205 108.838 75.4598 106.047 98.583" stroke="#1A1919" stroke-width="2.49408" stroke-linecap="round" stroke-linejoin="round" fill="#F7CCAA" transform="matrix(7.78226 0 0 1 669.204 207.232)"/><path d="M122.49 89.6262C122.49 89.6262 125.645 83.5188 131.569 85.3707 143.914 89.2412 140.624 116.017 119.887 118.322M131.229 92.5941C131.229 92.5941 127.154 89.8148 122.152 100.736M30.3856 91.9332 33.8212 94.0766M106.312 94.0999 110.915 91.9597M69.7967 116.611 69.7983 113.491M120.74 55.3139C130.638 72.2051 118.874 88.825 118.874 88.825 113.987 51.1551 73.4646 34.4666 73.4646 34.4666 94.8061 53.247 94.9869 63.7314 94.9869 63.7314 58.935 65.6721 40.9122 39.9863 40.9122 39.9863 40.9122 39.9863 39.98 61.8172 16.7789 82.6553 16.7789 82.6553 13.4368 68.0103 18.3112 57.1003M3.94999 87.9926C3.94999 87.9926 0.508168 52.268 17.485 27.5705 44.3462-11.5273 97.7319 0.176144 105.036 16.5529 105.036 16.5529 139.54 20.7507 134.909 86.8001M12.1804 116.593C12.1804 116.593 18.7492 140.889 12.5717 152.316 12.5717 152.316 24.0632 149.98 25.3632 146.348 25.3632 146.348 28.9936 153.878 52.3787 152.332M131.435 115.072C131.435 115.072 129.28 147.679 120.183 155.205L116.81 141.707C116.81 141.707 112.006 155.856 85.698 152.795" stroke="#1A1919" stroke-width="2.18232" stroke-linecap="round" stroke-linejoin="round" fill="#F7CCAA" transform="matrix(7.78226 0 0 1 669.204 207.232)"/><path d="M82.702 160.344 95.7663 175.447 90.9668 179.923 96.3836 185.912 73.6563 241.827M57.7036 159.859 44.5847 175.447 49.3827 179.923 43.9674 185.912 66.6963 241.827" stroke="#1A1919" stroke-width="1.87056" stroke-linecap="round" stroke-linejoin="round" fill="#F7CCAA" transform="matrix(7.78226 0 0 1 669.204 207.232)"/><path d="M62.2771 154.365 61.6037 162.848C61.6037 162.848 66.0852 168.953 70.0461 168.953 75.8916 168.953 78.2984 160.93 78.2984 160.93L78.1223 154.497M61.6037 160.447C61.6037 160.447 55.7582 187.138 69.9168 243.645M78.3592 160.511C78.3592 160.511 84.0753 187.138 69.9168 243.645" stroke="#1A1919" stroke-width="2.18232" stroke-linecap="round" stroke-linejoin="round" fill="#F7CCAA" transform="matrix(7.78226 0 0 1 669.204 207.232)"/><path d="M60.8227 180.255 70.0461 168.953 79.3335 181.424" stroke="#1A1919" stroke-width="1.87056" stroke-linecap="round" stroke-linejoin="round" fill="#F7CCAA" transform="matrix(7.78226 0 0 1 669.204 207.232)"/><path d="M54.2898 98.3757C54.2836 103.649 51.3141 107.922 47.6571 107.922 44.0002 107.922 41.0369 103.644 41.0385 98.3726 41.04 93.0992 44.0064 88.8234 47.6634 88.8265 51.3219 88.8281 54.2898 93.1039 54.2898 98.3757" fill="#F7CCAA" transform="matrix(7.78226 0 0 1 669.204 207.232)"/><path d="M85.7183 98.3835C85.7152 103.66 88.6847 107.933 92.3401 107.934 96.0001 107.937 98.965 103.663 98.9712 98.3898 98.9712 93.1132 96.0064 88.8406 92.3494 88.8406 88.6894 88.839 85.7183 93.1101 85.7183 98.3835" fill="#F7CCAA" transform="matrix(7.78226 0 0 1 669.204 207.232)"/><path d="M54.1713 95.1817C54.1698 96.2589 53.2953 97.1349 52.2119 97.1349 51.1317 97.1349 50.2572 96.2589 50.2572 95.1817 50.2588 94.0953 51.1348 93.2223 52.2166 93.2255 53.2969 93.2255 54.1698 94.0999 54.1713 95.1817" fill="#F7CCAA" transform="matrix(7.78226 0 0 1 669.204 207.232)"/><path d="M98.4537 95.1942C98.4568 96.276 97.5776 97.149 96.4989 97.1458 95.4218 97.149 94.5442 96.2729 94.5411 95.1911 94.5411 94.1109 95.4187 93.2364 96.5052 93.2364 97.5839 93.2364 98.463 94.1171 98.4537 95.1942" fill="#F7CCAA" transform="matrix(7.78226 0 0 1 669.204 207.232)"/><path d="M86.2233 123.619C84.0286 127.036 78.9734 133.134 70.1833 133.134 61.3948 133.134 56.3396 127.036 54.1386 123.619" stroke="#1A1919" stroke-width="2.18232" stroke-linecap="round" stroke-linejoin="round" fill="#F7CCAA" transform="matrix(7.78226 0 0 1 669.204 207.232)"/><path d="M29.932 251.191C32.3684 250.606 37.9209 244.664 42.4024 238.624 46.884 232.584 56.7044 214.029 57.3965 211.546 58.5001 207.584 55.0318 201.051 55.0318 201.051L53.8004 196.867 46.2667 190.19C45.2285 189.28 42.2122 188.657 40.9559 190.677 35.988 198.666 29.9648 209.364 26.0023 214.883 23.9665 217.717 18.955 223.368 17.7859 226.096L29.932 251.191" fill="#F7CCAA" transform="matrix(7.78226 0 0 1 669.204 207.232)"/><path d="M17.7859 226.096C18.955 223.368 23.9665 217.717 26.0023 214.883 29.9648 209.364 36.2343 198.75 41.2021 190.761 42.4585 188.741 44.937 189.085 45.9752 189.996L47.9299 191.007C46.8902 190.097 45.149 191.28 43.8942 193.299 38.9247 201.288 31.5984 213.209 27.6359 218.729 25.7264 221.39 22.0414 224.627 18.5996 230.344 17.7531 231.891 15.6768 237.813 15.6768 237.813L14.832 230.799C14.832 230.799 17.1764 227.092 17.7859 226.096" fill="#F7CCAA" transform="matrix(7.78226 0 0 1 669.204 207.232)"/><path d="M73.9182 178.584 75.4739 169.463 83.6264 179.945C83.6264 179.945 79.5408 176.429 73.9182 178.584" fill="#F7CCAA" transform="matrix(7.78226 0 0 1 669.204 207.232)"/><path d="M78.8502 150.823C78.8502 150.823 78.7801 155.807 80.2796 158.291M23.0967 171.931C19.9495 173.087 15.6114 176.563 14.7026 184.423 12.885 207.934 14.0526 235.213 16.6823 243.592 19.3135 251.97 27.4972 251.775 29.932 251.191" stroke="#1A1919" stroke-width="2.18232" stroke-linecap="round" stroke-linejoin="round" fill="#F7CCAA" transform="matrix(7.78226 0 0 1 669.204 207.232)"/><path d="M81.3646 179.137C81.3646 180.111 80.5711 180.905 79.5969 180.905L56.4378 180.905C55.4651 180.905 54.6702 180.111 54.6702 179.137L54.6702 142.195C54.6702 141.222 55.4651 140.427 56.4378 140.427L79.5969 140.427C80.5711 140.427 81.3646 141.222 81.3646 142.195L81.3646 179.137" fill="#F7CCAA" transform="matrix(7.78226 0 0 1 669.204 207.232)"/><path d="M54.7684 172.772 54.7684 163.46 81.5002 148.075 81.5594 159.718 54.7684 172.772" fill="#F7CCAA" transform="matrix(7.78226 0 0 1 669.204 207.232)"/><path d="M81.3646 179.137C81.3646 180.111 80.5711 180.905 79.5969 180.905L56.4378 180.905C55.4651 180.905 54.6702 180.111 54.6702 179.137L54.6702 142.195C54.6702 141.222 55.4651 140.427 56.4378 140.427L79.5969 140.427C80.5711 140.427 81.3646 141.222 81.3646 142.195L81.3646 179.137ZM17.7859 226.096C18.955 223.368 23.9665 217.717 26.0023 214.883 29.9648 209.364 35.3567 199.853 40.4227 191.801 41.69 189.787 43.7991 189.073 45.3579 189.982L53.8004 196.867 55.3467 202.761C55.3467 202.761 58.6591 208.313 57.5555 212.276 56.8634 214.76 46.884 232.584 42.4024 238.624 37.9209 244.664 32.3684 250.606 29.932 251.191" stroke="#1A1919" stroke-width="2.18232" stroke-linecap="round" stroke-linejoin="round" fill="#F7CCAA" transform="matrix(7.78226 0 0 1 669.204 207.232)"/><path d="M41.4282 195.501C41.4282 195.501 40.6784 197.101 41.2021 199.4 42.3712 204.53 50.3601 216.026 53.021 214.598 53.021 214.598 57.4121 207.716 57.4386 206.414 57.5025 203.426 55.1331 200.957 55.1331 200.957 55.1331 200.957 48.3601 188.35 46.6564 188.747 44.7079 189.202 41.4282 195.501 41.4282 195.501" fill="#F7CCAA" transform="matrix(7.78226 0 0 1 669.204 207.232)"/><path d="M41.4282 195.501C41.4282 195.501 40.6784 197.101 41.2021 199.4 42.3712 204.53 50.3601 216.026 53.021 214.598 53.021 214.598 57.4121 207.716 57.4386 206.414 57.5025 203.426 55.1331 200.957 55.1331 200.957 55.1331 200.957 48.3601 188.35 46.6564 188.747 44.7079 189.202 41.4282 195.501 41.4282 195.501Z" stroke="#1A1919" stroke-width="1.87056" stroke-linecap="round" stroke-linejoin="round" fill="#F7CCAA" transform="matrix(7.78226 0 0 1 669.204 207.232)"/><path d="M45.9424 193.749C45.9424 193.749 45.7476 195.503 45.8131 195.827 45.8785 196.151 49.9704 203.233 50.3601 203.881 50.7498 204.53 54.2555 206.87 54.9055 205.44 55.5556 204.011 54.5813 201.023 54.5813 201.023L48.2167 193.813 45.9424 193.749" fill="#F7CCAA" transform="matrix(7.78226 0 0 1 669.204 207.232)"/><path d="M45.9424 193.36C48.2806 190.437 47.5917 189.04 47.5917 189.04 47.5917 189.04 47.0726 176.178 47.5917 174.49 48.1107 172.802 49.9299 167.08 50.0592 165.398 50.318 162.02 50.1231 159.097 49.5386 157.342 49.0912 155.997 52.5595 156.078 53.4356 157.928 54.3132 159.78 54.6702 160.59 54.6702 164.877L54.6702 171.698C54.6702 171.698 65.4508 163.256 67.0751 161.956 68.6993 160.656 80.2594 152.864 82.4682 152.213 84.677 151.563 86.8843 153.447 84.9358 156.24 82.9888 159.033 69.089 169.164 69.089 169.164 69.089 169.164 80.6912 161.945 81.6576 161.516 84.5804 160.218 87.5733 164.059 84.1236 166.648 83.087 167.427 71.8169 174.685 71.8169 174.685 71.8169 174.685 81.0528 169.597 82.0473 169.017 84.9701 167.314 87.0651 170.771 84.1907 173.645 82.4916 175.344 75.2759 180.368 75.2759 180.368 75.2759 180.368 80.1565 177.535 81.3646 176.958 84.5305 175.447 86.2841 178.127 83.2164 181.343 80.4994 184.191 78.3124 186.117 76.2985 187.74 74.9189 188.851 71.7063 194.607 60.8352 197.721 59.6879 198.05 58.7901 199.16 58.7901 199.16L54.19 205.83" fill="#F7CCAA" transform="matrix(7.78226 0 0 1 669.204 207.232)"/><path d="M45.9424 193.36C48.2806 190.437 47.5917 189.04 47.5917 189.04 47.5917 189.04 47.0726 176.178 47.5917 174.49 48.1107 172.802 49.9299 167.08 50.0592 165.398 50.318 162.02 50.1231 159.097 49.5386 157.342 49.0912 155.997 52.5595 156.078 53.4356 157.928 54.3132 159.78 54.6702 160.59 54.6702 164.877L54.6702 171.698C54.6702 171.698 65.4508 163.256 67.0751 161.956 68.6993 160.656 80.2594 152.864 82.4682 152.213 84.677 151.563 86.8843 153.447 84.9358 156.24 82.9888 159.033 69.089 169.164 69.089 169.164 69.089 169.164 80.6912 161.945 81.6576 161.516 84.5804 160.218 87.5733 164.059 84.1236 166.648 83.087 167.427 71.8169 174.685 71.8169 174.685 71.8169 174.685 81.0528 169.597 82.0473 169.017 84.9701 167.314 87.0651 170.771 84.1907 173.645 82.4916 175.344 75.2759 180.368 75.2759 180.368 75.2759 180.368 80.1565 177.535 81.3646 176.958 84.5305 175.447 86.2841 178.127 83.2164 181.343 80.4994 184.191 78.3124 186.117 76.2985 187.74 74.9189 188.851 71.7063 194.607 60.8352 197.721 59.6879 198.05 58.7901 199.16 58.7901 199.16L54.19 205.83" stroke="#1A1919" stroke-width="2.18232" stroke-linecap="round" stroke-linejoin="round" fill="#F7CCAA" transform="matrix(7.78226 0 0 1 669.204 207.232)"/><path d="M45.9424 191.67C45.9424 191.67 45.3314 193.81 45.9424 196.087 46.9635 199.883 51.5931 207.389 54.9694 206.999" stroke="#1A1919" stroke-width="1.87056" stroke-linecap="round" stroke-linejoin="round" fill="#F7CCAA" transform="matrix(7.78226 0 0 1 669.204 207.232)"/><path d="M62.009 147.183C62.009 148.382 61.0378 149.353 59.8391 149.353 58.6389 149.353 57.6677 148.382 57.6677 147.183 57.6677 145.983 58.6389 145.012 59.8391 145.012 61.0378 145.012 62.009 145.983 62.009 147.183" fill="#F7CCAA" transform="matrix(7.78226 0 0 1 669.204 207.232)"/><path d="M62.009 147.183C62.009 148.382 61.0378 149.353 59.8391 149.353 58.6389 149.353 57.6677 148.382 57.6677 147.183 57.6677 145.983 58.6389 145.012 59.8391 145.012 61.0378 145.012 62.009 145.983 62.009 147.183Z" stroke="#1A1919" stroke-width="1.5588" stroke-linecap="round" stroke-linejoin="round" fill="#F7CCAA" transform="matrix(7.78226 0 0 1 669.204 207.232)"/></g></g></g><g clip-path="url(#clip10)"><g clip-path="url(#clip11)"><g clip-path="url(#clip12)"><path d="M135.829 276.834C140.994 222.564 137.353 192.689 127.874 190.029 123.193 188.716 95.825 178.673 86.7729 175.171L67.201 175.059C58.1473 178.559 32.5401 187.866 27.8607 189.179 18.3831 191.839 13.2197 194.672 15.8936 250.647L18.216 268.468C18.216 268.468 19.2687 275.587 27.6678 277.632 36.0668 279.679 38.5546 273.523 38.5546 273.523L135.829 276.834" fill="#F7CCAA" transform="matrix(7.91344 0 0 1 621.654 120.73)"/><path d="M68.9084 171.213 68.0883 179.989C68.0883 179.989 73.0416 186.738 77.4194 186.738 83.8802 186.738 86.5404 177.87 86.5404 177.87L86.1682 170.853" fill="#F7CCAA" transform="matrix(7.91344 0 0 1 621.654 120.73)"/><path d="M86.4025 175.04C86.4025 175.04 127.462 189.829 129.044 190.69 129.933 191.174 132.82 193.006 134.826 196.791 134.784 196.646 135.775 202.225 135.687 202.246 133.52 199.672 130.667 195.926 127.504 194.78 122.378 192.927 88.3959 181.233 88.3959 181.233L86.4025 175.04" fill="#F7CCAA" transform="matrix(7.91344 0 0 1 621.654 120.73)"/><path d="M68.1882 175.04C68.1882 175.04 27.1285 189.829 25.5469 190.69 24.6579 191.174 20.4024 192.763 18.3969 196.55 18.4366 196.405 17.2926 203.515 17.3804 203.536 19.534 200.235 22.5921 196.329 25.7088 195.066 31.7389 192.625 66.1966 181.233 66.1966 181.233L68.1882 175.04" fill="#F7CCAA" transform="matrix(7.91344 0 0 1 621.654 120.73)"/><path d="M68.8946 164.411 86.1682 164.411 86.3129 172.815C86.3129 172.815 84.1852 180.587 67.6955 179.929L68.3416 174.352 68.8946 164.411" fill="#F7CCAA" transform="matrix(7.91344 0 0 1 621.654 120.73)"/><path d="M84.6331 252.506C62.6285 254.089 40.977 250.393 33.5841 243.352 35.4896 252.619 33.3791 273.866 34.5886 276.838L136.202 276.838C137.41 273.873 138.675 243.703 138.85 229.269 130.4 238.423 109.05 250.75 84.6331 252.506" fill="#F7CCAA" transform="matrix(7.91344 0 0 1 621.654 120.73)"/><path d="M77.2764 269.292C89.8156 219.249 88.2546 190.409 87.1365 180.923L86.5404 177.87C86.5404 177.87 83.8802 186.738 77.4194 186.738 73.0416 186.738 68.0883 179.989 68.0883 179.989L67.4887 181.356C66.3413 191.342 64.9492 220.091 77.2764 269.292" fill="#F7CCAA" transform="matrix(7.91344 0 0 1 621.654 120.73)"/><path d="M70.4193 195.314C70.4193 195.314 76.6183 187.096 77.6503 187.05 78.6806 187.003 83.415 195.314 83.415 195.314 83.415 195.314 78.5789 190.644 70.4193 195.314" fill="#F7CCAA" transform="matrix(7.91344 0 0 1 621.654 120.73)"/><path d="M67.8471 174.824C58.7933 178.325 30.2073 188.716 25.5279 190.029M86.7729 175.171C95.825 178.673 123.193 188.716 127.874 190.029 137.353 192.689 140.994 222.564 136.115 275.973" stroke="#1A1919" stroke-width="2.41203" stroke-linecap="round" stroke-linejoin="round" fill="#F7CCAA" transform="matrix(7.91344 0 0 1 621.654 120.73)"/><path d="M126.666 204.828 114.174 276.042M27.8883 204.828 38.8424 267.283" stroke="#1A1919" stroke-width="2.06746" stroke-linecap="round" stroke-linejoin="round" fill="#F7CCAA" transform="matrix(7.91344 0 0 1 621.654 120.73)"/><path d="M131.003 224.581C131.003 224.581 128.005 241.576 118.913 250.054" stroke="#1A1919" stroke-width="1.72288" stroke-linecap="round" stroke-linejoin="round" fill="#F7CCAA" transform="matrix(7.91344 0 0 1 621.654 120.73)"/><path d="M94.7189 168.879C123.796 172.262 129.106 156.624 129.106 156.624L132.834 171.542C142.889 163.224 145.27 127.185 145.27 127.185L149.234 94.9377C154.356 21.9288 116.093 18.2953 116.093 18.2953 108.02 0.194686 49.0143-12.7407 19.3256 30.4726 0.561659 57.77 3.98503 95.9438 3.98503 95.9438L13.4626 128.866C13.4626 128.866 20.7228 155.719 13.895 168.35 13.895 168.35 26.5961 165.767 28.033 161.753 28.033 161.753 32.0456 170.076 57.8923 168.367" fill="#F7CCAA" transform="matrix(7.91344 0 0 1 621.654 120.73)"/><path d="M116.093 18.2953C108.02 0.194686 49.0143-12.7407 19.3256 30.4726 0.561659 57.77 3.98503 95.9438 3.98503 95.9438L9.89451 94.4949C9.89451 94.4949 6.62965 43.2788 36.6939 21.1363 71.1033-4.21417 102.925 12.0154 115.369 18.0024 115.662 18.0058 116.093 18.2953 116.093 18.2953" fill="#F7CCAA" transform="matrix(7.91344 0 0 1 621.654 120.73)"/><path d="M18.9793 98.9124C18.9793 98.9124 15.5025 92.1587 8.95726 94.202-4.70002 98.4644-0.32907 128.062 22.2286 130.62" fill="#F7CCAA" transform="matrix(7.91344 0 0 1 621.654 120.73)"/><path d="M135.384 99.0605C135.384 99.0605 138.871 92.3103 145.418 94.3571 159.063 98.635 155.426 128.229 132.507 130.777" fill="#F7CCAA" transform="matrix(7.91344 0 0 1 621.654 120.73)"/><path d="M134.685 91.9502C133.043 95.8215 131.387 98.175 131.387 98.175 125.986 56.5398 81.1977 38.0946 81.1977 38.0946 104.786 58.8519 104.986 70.44 104.986 70.44 65.1387 72.585 45.2188 44.1954 45.2188 44.1954 45.2188 44.1954 45.0086 49.128 42.4122 56.6587 39.3368 65.5539 32.9225 78.0569 19.6202 90.3548 19.5978 90.5426 19.5892 90.6511 19.5892 90.6511 18.9069 101.877 19.0809 121.393 24.3064 137.054 33.5617 164.778 63.1057 171.068 77.1317 171.07 91.1577 171.075 120.712 164.807 129.976 137.09 134.926 122.273 137.103 103.793 134.829 92.5722 134.784 92.3706 134.728 92.1535 134.685 91.9502" fill="#F7CCAA" transform="matrix(7.91344 0 0 1 621.654 120.73)"/><path d="M61.8515 103.69C61.8497 112.247 56.5295 119.179 49.9722 119.177 43.4132 119.175 38.0946 112.241 38.0981 103.686 38.1015 95.1237 43.4235 88.1943 49.9825 88.1926 56.5398 88.1995 61.8532 95.1341 61.8515 103.69" fill="#F7CCAA" transform="matrix(7.91344 0 0 1 621.654 120.73)"/><path d="M116.846 103.711C116.842 112.266 111.526 119.198 104.965 119.196 98.4093 119.191 93.089 112.256 93.0925 103.7 93.0959 95.1427 98.4196 88.2115 104.979 88.215 111.532 88.2167 116.853 95.1548 116.846 103.711" fill="#F7CCAA" transform="matrix(7.91344 0 0 1 621.654 120.73)"/><path d="M43.3736 120.922C43.3736 123.6 38.8562 125.772 33.2826 125.769 27.7126 125.769 23.1969 123.591 23.1969 120.914 23.1969 118.234 27.716 116.069 33.2861 116.071 38.8579 116.071 43.3753 118.245 43.3736 120.922" fill="#F7CCAA" transform="matrix(7.91344 0 0 1 621.654 120.73)"/><path d="M131.194 120.951C131.194 123.631 126.675 125.793 121.11 125.8 115.538 125.794 111.021 123.618 111.017 120.941 111.021 118.267 115.54 116.096 121.107 116.098 126.682 116.098 131.191 118.272 131.194 120.951" fill="#F7CCAA" transform="matrix(7.91344 0 0 1 621.654 120.73)"/><path d="M20.5798 121.286 19.5788 110.394C19.5788 110.394 16.7499 103.643 12.4047 102.592 6.80711 101.247 6.68995 110.271 10.532 115.369 16.4139 123.167 20.5798 121.286 20.5798 121.286" fill="#F7CCAA" transform="matrix(7.91344 0 0 1 621.654 120.73)"/><path d="M134.573 121.322 135.586 110.432C135.586 110.432 138.42 103.681 142.767 102.637 148.369 101.293 148.478 110.318 144.627 115.412 138.742 123.21 134.573 121.322 134.573 121.322" fill="#F7CCAA" transform="matrix(7.91344 0 0 1 621.654 120.73)"/><path d="M51.0266 91.9898C53.7763 91.9881 56.3985 92.4929 58.8175 93.3681 56.6432 90.2032 53.4972 88.1943 49.9825 88.1926 46.013 88.1909 42.5069 90.739 40.3447 94.6431 43.4976 92.965 47.1363 91.9898 51.0266 91.9898" fill="#F7CCAA" transform="matrix(7.91344 0 0 1 621.654 120.73)"/><path d="M104.009 92.0088C101.25 92.0071 98.6315 92.5067 96.2161 93.3785 98.3886 90.2153 101.536 88.2115 105.049 88.2115 109.019 88.215 112.528 90.7649 114.682 94.6672 111.536 92.9857 107.892 92.0105 104.009 92.0088" fill="#F7CCAA" transform="matrix(7.91344 0 0 1 621.654 120.73)"/><path d="M26.0448 27.4524C44.8501 33.7702 57.3375 33.8495 64.3376 32.8864 69.0445 32.242 66.5653 30.557 64.4254 30.1849 42.3881 26.3101 35.8153 17.8508 35.8153 17.8508L26.0448 27.4524" fill="#F7CCAA" transform="matrix(7.91344 0 0 1 621.654 120.73)"/><path d="M60.5559 94.712C55.5767 84.2076 34.6988 84.1507 37.6708 108.934" stroke="#1A1919" stroke-width="2.75661" stroke-linecap="round" stroke-linejoin="round" fill="#F7CCAA" transform="matrix(7.91344 0 0 1 621.654 120.73)"/><path d="M18.9793 98.9124C18.9793 98.9124 15.5025 92.1587 8.95726 94.202-4.70002 98.4644-0.32907 128.062 22.2286 130.62M9.19502 102.177C9.19502 102.177 13.7021 99.1157 19.2187 111.186M19.5892 90.6511C18.9069 101.877 19.0809 121.393 24.3064 137.054 33.5617 164.778 63.1057 171.068 77.1317 171.07 91.1577 171.075 120.712 164.807 129.976 137.09 134.926 122.273 135.363 104.014 134.829 92.5722M93.8867 75.4829C98.4127 72.0371 109.83 70.3211 116.072 77.8639M61.195 75.4829C56.6707 72.0371 45.2532 70.3211 39.0112 77.8639" stroke="#1A1919" stroke-width="2.41203" stroke-linecap="round" stroke-linejoin="round" fill="#F7CCAA" transform="matrix(7.91344 0 0 1 621.654 120.73)"/><path d="M93.9057 95.7371C97.9889 84.2438 120.295 83.403 117.209 108.96" stroke="#1A1919" stroke-width="2.75661" stroke-linecap="round" stroke-linejoin="round" fill="#F7CCAA" transform="matrix(7.91344 0 0 1 621.654 120.73)"/><path d="M135.384 99.0605C135.384 99.0605 138.871 92.3103 145.418 94.3571 159.063 98.635 155.426 128.229 132.507 130.777M145.043 102.341C145.043 102.341 140.539 99.269 135.01 111.34M33.5841 101.61 37.3814 103.979M117.502 104.005 122.59 101.64M77.1438 128.885 77.1455 125.438M133.449 61.1365C144.39 79.8056 131.387 98.175 131.387 98.175 125.986 56.5398 81.1977 38.0946 81.1977 38.0946 104.786 58.8519 104.986 70.44 104.986 70.44 65.1387 72.585 45.2188 44.1954 45.2188 44.1954 45.2188 44.1954 44.1885 68.3243 18.5451 91.3558 18.5451 91.3558 14.8512 75.1693 20.2387 63.1109M4.36578 97.255C4.36578 97.255 0.561659 57.77 19.3256 30.4726 49.0143-12.7407 108.02 0.194686 116.093 18.2953 116.093 18.2953 154.229 22.935 149.11 95.937M13.4626 128.866C13.4626 128.866 20.7228 155.719 13.895 168.35 13.895 168.35 26.5961 165.767 28.033 161.753 28.033 161.753 32.0456 170.076 57.8923 168.367M145.27 127.185C145.27 127.185 142.889 163.224 132.834 171.542L129.106 156.624C129.106 156.624 123.796 172.262 94.7189 168.879" stroke="#1A1919" stroke-width="2.41203" stroke-linecap="round" stroke-linejoin="round" fill="#F7CCAA" transform="matrix(7.91344 0 0 1 621.654 120.73)"/><path d="M91.4075 177.223 105.847 193.916 100.542 198.862 106.529 205.481 81.4096 267.283M63.7776 176.687 49.2779 193.916 54.5809 198.862 48.5956 205.481 73.7169 267.283" stroke="#1A1919" stroke-width="2.06746" stroke-linecap="round" stroke-linejoin="round" fill="#F7CCAA" transform="matrix(7.91344 0 0 1 621.654 120.73)"/><path d="M68.8326 170.614 68.0883 179.989C68.0883 179.989 73.0416 186.738 77.4194 186.738 83.8802 186.738 86.5404 177.87 86.5404 177.87L86.3457 170.76M68.0883 177.336C68.0883 177.336 61.6275 206.837 77.2764 269.292M86.6075 177.407C86.6075 177.407 92.9253 206.837 77.2764 269.292" stroke="#1A1919" stroke-width="2.41203" stroke-linecap="round" stroke-linejoin="round" fill="#F7CCAA" transform="matrix(7.91344 0 0 1 621.654 120.73)"/><path d="M67.2251 199.229 77.4194 186.738 87.6843 200.521" stroke="#1A1919" stroke-width="2.06746" stroke-linecap="round" stroke-linejoin="round" fill="#F7CCAA" transform="matrix(7.91344 0 0 1 621.654 120.73)"/><path d="M60.0045 108.731C59.9976 114.56 56.7155 119.282 52.6737 119.282 48.6318 119.282 45.3566 114.554 45.3583 108.728 45.36 102.899 48.6387 98.1732 52.6806 98.1767 56.7242 98.1784 60.0045 102.904 60.0045 108.731" fill="#F7CCAA" transform="matrix(7.91344 0 0 1 621.654 120.73)"/><path d="M94.7413 108.74C94.7378 114.572 98.0199 119.294 102.06 119.296 106.105 119.299 109.382 114.575 109.389 108.747 109.389 102.915 106.112 98.1922 102.07 98.1922 98.0251 98.1905 94.7413 102.911 94.7413 108.74" fill="#F7CCAA" transform="matrix(7.91344 0 0 1 621.654 120.73)"/><path d="M59.8736 105.201C59.8719 106.391 58.9053 107.36 57.7079 107.36 56.514 107.36 55.5474 106.391 55.5474 105.201 55.5492 104 56.5174 103.035 57.7131 103.039 58.9071 103.039 59.8719 104.005 59.8736 105.201" fill="#F7CCAA" transform="matrix(7.91344 0 0 1 621.654 120.73)"/><path d="M108.817 105.215C108.821 106.41 107.849 107.375 106.657 107.372 105.466 107.375 104.496 106.407 104.493 105.211 104.493 104.017 105.463 103.051 106.664 103.051 107.856 103.051 108.828 104.024 108.817 105.215" fill="#F7CCAA" transform="matrix(7.91344 0 0 1 621.654 120.73)"/><path d="M95.2995 136.631C92.8737 140.408 87.2864 147.148 77.571 147.148 67.8574 147.148 62.2701 140.408 59.8374 136.631" stroke="#1A1919" stroke-width="2.41203" stroke-linecap="round" stroke-linejoin="round" fill="#F7CCAA" transform="matrix(7.91344 0 0 1 621.654 120.73)"/><path d="M33.0828 277.632C35.7756 276.986 41.9125 270.418 46.8658 263.742 51.8191 257.066 62.6733 236.559 63.4382 233.814 64.658 229.434 60.8246 222.214 60.8246 222.214L59.4635 217.59 51.1369 210.211C49.9894 209.204 46.6556 208.515 45.267 210.748 39.7762 219.578 33.119 231.402 28.7394 237.503 26.4893 240.635 20.9502 246.88 19.6581 249.895L33.0828 277.632" fill="#F7CCAA" transform="matrix(7.91344 0 0 1 621.654 120.73)"/><path d="M19.6581 249.895C20.9502 246.88 26.4893 240.635 28.7394 237.503 33.119 231.402 40.0484 219.671 45.5392 210.841 46.9279 208.608 49.6672 208.989 50.8147 209.995L52.9752 211.113C51.826 210.107 49.9016 211.415 48.5146 213.646 43.0221 222.476 34.9245 235.652 30.545 241.753 28.4344 244.694 24.3615 248.272 20.5574 254.59 19.6219 256.301 17.327 262.846 17.327 262.846L16.3932 255.093C16.3932 255.093 18.9844 250.996 19.6581 249.895" fill="#F7CCAA" transform="matrix(7.91344 0 0 1 621.654 120.73)"/><path d="M81.6991 197.382 83.4185 187.301 92.4292 198.886C92.4292 198.886 87.9135 195.001 81.6991 197.382" fill="#F7CCAA" transform="matrix(7.91344 0 0 1 621.654 120.73)"/><path d="M87.1503 166.699C87.1503 166.699 87.0727 172.207 88.7301 174.953M25.5279 190.029C22.0494 191.307 17.2547 195.149 16.2502 203.836 14.2413 229.822 15.5318 259.973 18.4383 269.233 21.3465 278.493 30.3916 278.278 33.0828 277.632" stroke="#1A1919" stroke-width="2.41203" stroke-linecap="round" stroke-linejoin="round" fill="#F7CCAA" transform="matrix(7.91344 0 0 1 621.654 120.73)"/><path d="M89.9293 197.994C89.9293 199.07 89.0523 199.947 87.9755 199.947L62.3787 199.947C61.3036 199.947 60.4249 199.07 60.4249 197.994L60.4249 157.163C60.4249 156.088 61.3036 155.209 62.3787 155.209L87.9755 155.209C89.0523 155.209 89.9293 156.088 89.9293 157.163L89.9293 197.994" fill="#F7CCAA" transform="matrix(7.91344 0 0 1 621.654 120.73)"/><path d="M60.5335 190.959 60.5335 180.667 90.0792 163.662 90.1446 176.53 60.5335 190.959" fill="#F7CCAA" transform="matrix(7.91344 0 0 1 621.654 120.73)"/><path d="M89.9293 197.994C89.9293 199.07 89.0523 199.947 87.9755 199.947L62.3787 199.947C61.3036 199.947 60.4249 199.07 60.4249 197.994L60.4249 157.163C60.4249 156.088 61.3036 155.209 62.3787 155.209L87.9755 155.209C89.0523 155.209 89.9293 156.088 89.9293 157.163L89.9293 197.994ZM19.6581 249.895C20.9502 246.88 26.4893 240.635 28.7394 237.503 33.119 231.402 39.0784 220.891 44.6778 211.99 46.0785 209.764 48.4095 208.975 50.1324 209.98L59.4635 217.59 61.1726 224.104C61.1726 224.104 64.8338 230.241 63.614 234.62 62.849 237.367 51.8191 257.066 46.8658 263.742 41.9125 270.418 35.7756 276.986 33.0828 277.632" stroke="#1A1919" stroke-width="2.41203" stroke-linecap="round" stroke-linejoin="round" fill="#F7CCAA" transform="matrix(7.91344 0 0 1 621.654 120.73)"/><path d="M45.789 216.08C45.789 216.08 44.9603 217.848 45.5392 220.389 46.8314 226.059 55.6611 238.766 58.6021 237.187 58.6021 237.187 63.4555 229.581 63.4847 228.142 63.5554 224.84 60.9366 222.11 60.9366 222.11 60.9366 222.11 53.4507 208.176 51.5676 208.615 49.414 209.118 45.789 216.08 45.789 216.08" fill="#F7CCAA" transform="matrix(7.91344 0 0 1 621.654 120.73)"/><path d="M45.789 216.08C45.789 216.08 44.9603 217.848 45.5392 220.389 46.8314 226.059 55.6611 238.766 58.6021 237.187 58.6021 237.187 63.4555 229.581 63.4847 228.142 63.5554 224.84 60.9366 222.11 60.9366 222.11 60.9366 222.11 53.4507 208.176 51.5676 208.615 49.414 209.118 45.789 216.08 45.789 216.08Z" stroke="#1A1919" stroke-width="2.06746" stroke-linecap="round" stroke-linejoin="round" fill="#F7CCAA" transform="matrix(7.91344 0 0 1 621.654 120.73)"/><path d="M50.7785 214.144C50.7785 214.144 50.5631 216.082 50.6355 216.44 50.7079 216.799 55.2304 224.626 55.6611 225.343 56.0919 226.059 59.9666 228.645 60.6851 227.065 61.4035 225.486 60.3267 222.183 60.3267 222.183L53.2922 214.215 50.7785 214.144" fill="#F7CCAA" transform="matrix(7.91344 0 0 1 621.654 120.73)"/><path d="M50.7785 213.713C53.3628 210.483 52.6013 208.939 52.6013 208.939 52.6013 208.939 52.0276 194.724 52.6013 192.858 53.175 190.992 55.1856 184.667 55.3286 182.808 55.6146 179.075 55.3993 175.844 54.7532 173.904 54.2587 172.417 58.0921 172.507 59.0604 174.552 60.0304 176.599 60.4249 177.495 60.4249 182.233L60.4249 189.772C60.4249 189.772 72.3404 180.441 74.1356 179.004 75.9308 177.567 88.7077 168.954 91.1491 168.236 93.5904 167.518 96.03 169.599 93.8764 172.686 91.7245 175.774 76.3616 186.971 76.3616 186.971 76.3616 186.971 89.185 178.992 90.2532 178.518 93.4836 177.083 96.7915 181.328 92.9788 184.19 91.833 185.051 79.3766 193.073 79.3766 193.073 79.3766 193.073 89.5847 187.45 90.6839 186.809 93.9143 184.926 96.2298 188.747 93.0528 191.924 91.1749 193.802 83.1997 199.355 83.1997 199.355 83.1997 199.355 88.594 196.222 89.9293 195.585 93.4284 193.916 95.3667 196.877 91.976 200.431 88.9731 203.579 86.5559 205.709 84.3299 207.502 82.8051 208.731 79.2543 215.091 67.2389 218.534 65.9709 218.897 64.9785 220.124 64.9785 220.124L59.8943 227.496" fill="#F7CCAA" transform="matrix(7.91344 0 0 1 621.654 120.73)"/><path d="M50.7785 213.713C53.3628 210.483 52.6013 208.939 52.6013 208.939 52.6013 208.939 52.0276 194.724 52.6013 192.858 53.175 190.992 55.1856 184.667 55.3286 182.808 55.6146 179.075 55.3993 175.844 54.7532 173.904 54.2587 172.417 58.0921 172.507 59.0604 174.552 60.0304 176.599 60.4249 177.495 60.4249 182.233L60.4249 189.772C60.4249 189.772 72.3404 180.441 74.1356 179.004 75.9308 177.567 88.7077 168.954 91.1491 168.236 93.5904 167.518 96.03 169.599 93.8764 172.686 91.7245 175.774 76.3616 186.971 76.3616 186.971 76.3616 186.971 89.185 178.992 90.2532 178.518 93.4836 177.083 96.7915 181.328 92.9788 184.19 91.833 185.051 79.3766 193.073 79.3766 193.073 79.3766 193.073 89.5847 187.45 90.6839 186.809 93.9143 184.926 96.2298 188.747 93.0528 191.924 91.1749 193.802 83.1997 199.355 83.1997 199.355 83.1997 199.355 88.594 196.222 89.9293 195.585 93.4284 193.916 95.3667 196.877 91.976 200.431 88.9731 203.579 86.5559 205.709 84.3299 207.502 82.8051 208.731 79.2543 215.091 67.2389 218.534 65.9709 218.897 64.9785 220.124 64.9785 220.124L59.8943 227.496" stroke="#1A1919" stroke-width="2.41203" stroke-linecap="round" stroke-linejoin="round" fill="#F7CCAA" transform="matrix(7.91344 0 0 1 621.654 120.73)"/><path d="M50.7785 211.846C50.7785 211.846 50.1031 214.211 50.7785 216.728 51.907 220.923 57.0239 229.219 60.7557 228.788" stroke="#1A1919" stroke-width="2.06746" stroke-linecap="round" stroke-linejoin="round" fill="#F7CCAA" transform="matrix(7.91344 0 0 1 621.654 120.73)"/><path d="M68.5362 162.676C68.5362 164.001 67.4629 165.074 66.138 165.074 64.8114 165.074 63.738 164.001 63.738 162.676 63.738 161.35 64.8114 160.276 66.138 160.276 67.4629 160.276 68.5362 161.35 68.5362 162.676" fill="#F7CCAA" transform="matrix(7.91344 0 0 1 621.654 120.73)"/><path d="M68.5362 162.676C68.5362 164.001 67.4629 165.074 66.138 165.074 64.8114 165.074 63.738 164.001 63.738 162.676 63.738 161.35 64.8114 160.276 66.138 160.276 67.4629 160.276 68.5362 161.35 68.5362 162.676Z" stroke="#1A1919" stroke-width="1.72288" stroke-linecap="round" stroke-linejoin="round" fill="#F7CCAA" transform="matrix(7.91344 0 0 1 621.654 120.73)"/></g></g></g></g></svg>