<svg width="365" height="669" xmlns="http://www.w3.org/2000/svg" xmlns:xlink="http://www.w3.org/1999/xlink" overflow="hidden"><defs><clipPath id="clip0"><rect x="799" y="-26" width="365" height="669"/></clipPath><clipPath id="clip1"><rect x="800" y="-26" width="364" height="668"/></clipPath><clipPath id="clip2"><rect x="800" y="-26" width="364" height="668"/></clipPath><clipPath id="clip3"><rect x="415" y="-26" width="749" height="668"/></clipPath></defs><g clip-path="url(#clip0)" transform="translate(-799 26)"><g clip-path="url(#clip1)"><g clip-path="url(#clip2)"><g clip-path="url(#clip3)"><path d="M25.468 665.2C25.468 665.2 28.8 519.536 32.132 498.2 35.464 476.864 48.8 460.536 62.132 453.404 75.464 446.272 133.44 428.368 133.44 428.368L223.496 428.368C223.496 428.368 281.472 446.272 294.804 453.404 308.136 460.536 321.472 476.864 324.804 498.2 328.136 519.536 337.468 665.2 337.468 665.2L25.468 665.2" fill="#4B6BA5" transform="matrix(1.00122 0 0 1 415.09 -26)"/><path d="M106.468 600.536C78.86 600.536 52.316 597.916 27.444 593.132 26.252 630.884 25.468 665.2 25.468 665.2L337.468 665.2C337.468 665.2 331.56 572.996 327.468 524.572 284.212 569.88 201.48 600.536 106.468 600.536" fill="#3E5C8A" transform="matrix(1.00122 0 0 1 415.09 -26)"/><path d="M423.468 665.2C423.468 665.2 430.64 532.508 434.356 511.24 439.024 484.572 452.528 470.908 470.548 462.916 486.708 455.748 549.448 439.732 549.448 439.732L587.488 439.732C587.488 439.732 650.224 455.748 666.384 462.916 684.404 470.908 697.908 484.572 702.576 511.24 706.296 532.508 713.468 665.2 713.468 665.2L423.468 665.2" fill="#E77B8C" transform="matrix(1.00122 0 0 1 415.09 -26)"/><path d="M524.468 616.2C490.1 616.2 457.348 612.172 427.476 604.912 425.236 644.4 423.468 665.2 423.468 665.2L713.468 665.2C713.468 665.2 710.512 619.832 707.412 570.372 661.34 598.592 596.44 616.2 524.468 616.2" fill="#E3667B" transform="matrix(1.00122 0 0 1 415.09 -26)"/><path d="M206.984 458.4C206.984 458.4 191.484 483.648 179.984 483.648 168.484 483.648 152.984 458.4 152.984 458.4 152.984 458.4 154.732 448.648 156.484 446.148 158.232 443.648 166.984 434.024 166.984 434.024L192.484 432.648C192.484 432.648 204.732 438.524 205.856 442.524 206.984 446.524 206.984 458.4 206.984 458.4" fill="#FFFFFE" transform="matrix(1.00122 0 0 1 415.09 -26)"/><path d="M196.068 396.672 197.856 407.776C197.856 407.776 210.608 415.9 207.608 427.024 205.78 430.684 199.968 436.936 186.664 438.608 186.232 440.152 182.3 449.448 179.74 449.448 176.94 449.448 172.396 440.152 171.808 438.024 158.456 434.528 151.364 423.064 151.364 423.064L160.132 407.104 160.992 396.004" fill="#F8D2B5" transform="matrix(1.00122 0 0 1 415.09 -26)"/><path d="M161.144 387.968 197.232 387.968 197.612 411.076C197.612 411.076 186.32 426.4 157.484 429.9 153.108 430.432 152.148 422.732 152.284 422.724L159.988 408.736 161.144 387.968" fill="#CF957E" transform="matrix(1.00122 0 0 1 415.09 -26)"/><path d="M161.156 407.368C161.156 407.368 153.636 407.368 148.64 410.94 144.704 413.752 136.968 425.368 136.468 428.368 135.968 431.368 134.972 467.196 139.804 475.032 139.804 475.032 162.636 439.868 170.304 438.532 162.012 437.032 145.968 427.2 154.468 417.368L159.732 415.48 161.156 407.368" fill="#FFFFFE" transform="matrix(1.00122 0 0 1 415.09 -26)"/><path d="M198.804 407.368C198.804 407.368 206.328 407.368 211.324 410.94 215.256 413.752 222.996 425.368 223.496 428.368 223.996 431.368 224.992 467.196 220.16 475.032 220.16 475.032 197.328 439.868 189.664 438.532 197.948 437.032 213.992 427.2 205.492 417.368L198.984 415.98 198.804 407.368" fill="#FFFFFE" transform="matrix(1.00122 0 0 1 415.09 -26)"/><path d="M552.28 665.2 531.444 469.32 530.5 459.68C530.5 459.68 568.084 482.332 608.712 456.864L607.52 468.948 586.656 665.2 552.28 665.2" fill="#FFF7AD" transform="matrix(1.00122 0 0 1 415.09 -26)"/><path d="M587.488 439.732 584.248 415.564 555.568 417.812 552.28 439.732 529.708 445.392 531.78 459.068C531.78 459.068 545.592 468.964 569.468 468.964 593.34 468.964 608.34 458.4 608.34 458.4L609.832 445.48 587.488 439.732" fill="#F8D2B5" transform="matrix(1.00122 0 0 1 415.09 -26)"/><path d="M558.296 444.032C571.56 444.032 582.74 438.452 586.292 430.816L584.52 417.592C584.008 416.932 583.448 416.292 582.82 415.676L555.568 417.812 552.28 439.732 544.224 441.752C548.396 443.204 553.192 444.032 558.296 444.032" fill="#CF957E" transform="matrix(1.00122 0 0 1 415.09 -26)"/><path d="M162.444 402.82 161.156 421.452M161.156 407.368C161.156 407.368 153.636 407.368 148.64 410.94 144.704 413.752 136.968 425.368 136.468 428.368 135.968 431.368 134.972 467.196 139.804 475.032 139.804 475.032 162.636 439.868 170.304 438.532 162.012 437.032 145.968 427.2 154.468 417.368M197.504 403.02 198.804 421.452M198.804 407.368C198.804 407.368 206.328 407.368 211.324 410.94 215.256 413.752 222.996 425.368 223.496 428.368 223.996 431.368 224.992 467.196 220.16 475.032 220.16 475.032 197.328 439.868 189.664 438.532 197.948 437.032 213.992 427.2 205.492 417.368M170.044 438.736C170.044 438.736 173.788 449.484 179.74 449.448 183.004 449.424 189.436 438.448 189.436 438.592M65.636 523.7 75.636 665.2M293.304 523.7 283.304 665.2M223.496 428.368C223.496 428.368 281.472 446.272 294.804 453.404 308.136 460.536 321.472 476.864 324.804 498.2 328.136 519.536 337.468 665.2 337.468 665.2M133.44 428.368C133.44 428.368 75.464 446.272 62.132 453.404 48.8 460.536 35.464 476.864 32.132 498.2 28.8 519.536 25.468 665.2 25.468 665.2M206.984 458.4C206.984 458.4 191.484 483.648 179.984 483.648 168.484 483.648 152.984 458.4 152.984 458.4M555.568 417.812 552.28 444.032M584.248 415.564 587.488 444.032M461.508 539.364 475.172 665.2M674.468 543.2 662.672 665.2M587.488 439.732C587.488 439.732 650.224 455.748 666.384 462.916 684.404 470.908 697.908 484.572 702.576 511.24 706.296 532.508 713.468 665.2 713.468 665.2M529.104 445.516 552.28 665.2M609.832 445.516 586.656 665.2M530.5 459.68C530.5 459.68 568.084 482.332 608.712 456.864" stroke="#1A1919" stroke-width="5.6" stroke-linecap="round" stroke-linejoin="round" fill="none" transform="matrix(1.00122 0 0 1 415.09 -26)"/><path d="M531.78 473.564C531.78 473.564 568.136 494.228 607.436 470.992M490.732 456.864C490.732 456.864 532.684 506.664 536.28 518.364M648.2 456.864C648.2 456.864 606.248 506.664 602.656 518.364" stroke="#1A1919" stroke-width="4.8" stroke-linecap="round" stroke-linejoin="round" fill="none" transform="matrix(1.00122 0 0 1 415.09 -26)"/><path d="M462.468 543.2 474.26 665.2M550.968 439.2C550.968 439.2 486.708 455.748 470.548 462.916 452.528 470.908 439.024 484.572 434.356 511.24 430.64 532.508 423.468 665.2 423.468 665.2" stroke="#1A1919" stroke-width="5.6" stroke-linecap="round" stroke-linejoin="round" fill="none" transform="matrix(1.00122 0 0 1 415.09 -26)"/><path d="M488.732 456.864C488.732 456.864 530.684 506.664 534.28 518.364" stroke="#1A1919" stroke-width="4.8" stroke-linecap="round" stroke-linejoin="round" fill="none" transform="matrix(1.00122 0 0 1 415.09 -26)"/><path d="M20.872 234.244C-4.344 115.996 71.012 60.548 71.012 60.548 52.928 62.56 45.136 49.748 45.136 49.748 103.416 10.06 164.968 26.208 164.968 26.208 157.928 18.488 149.968 3.584 149.968 3.584 244.428 3.584 280.052 58.164 280.052 58.164 280.052 58.164 352.304 67.164 364.304 154.916L344.804 146.164C344.804 146.164 359.04 182.348 344.04 233.732L339.308 247.452 28.92 252.96 20.872 234.244" fill="#4F3B31" transform="matrix(1.00122 0 0 1 415.09 -26)"/><path d="M62.664 60.352C52.692 56.616 45.636 48.916 45.636 48.916 103.916 9.224 164.968 26.208 164.968 26.208 157.928 18.488 149.968 3.584 149.968 3.584 199.428 3.584 236.136 14.968 256.152 31.364 236.032 19.096 207.74 8.772 169.444 8.772 169.444 8.772 179.348 24.516 183.012 33.316 184.528 36.972 185.332 41.608 179.984 40.396 162.124 36.34 119.452 27.716 79.452 49.256 79.452 49.256 74.396 52.612 79.396 55.612 84.396 58.612 88.028 67.652 74.32 79.764 54.764 97.036 8.264 138.152 27.332 238.828L20.872 234.244C-4.196 143.416 31.804 85.416 63.968 66.7 63.968 66.7 67.804 63.084 66.804 62.248 65.804 61.416 62.664 60.352 62.664 60.352" fill="#9B7B6D" transform="matrix(1.00122 0 0 1 415.09 -26)"/><path d="M44.264 244.732C44.264 244.732 36.148 229.676 20.872 234.244-10.988 243.756-0.768 309.78 51.864 315.468" fill="#F8D2B5" transform="matrix(1.00122 0 0 1 415.09 -26)"/><path d="M315.84 244.984C315.84 244.984 323.956 229.928 339.228 234.488 371.08 244.008 362.62 310.028 309.152 315.72" fill="#F8D2B5" transform="matrix(1.00122 0 0 1 415.09 -26)"/><path d="M161.412 146.4C151.632 157.972 141.332 175.996 141.332 175.996 215.692 176.5 251.36 126.264 251.36 126.264 251.36 126.264 257.892 161.768 288.032 186.388L292.056 170.304C292.056 170.304 311.152 189.404 314.524 230.52 315.792 256.02 314.792 296.764 303.244 329.812 281.644 391.636 212.7 405.648 179.984 405.648 147.264 405.648 78.324 391.636 56.724 329.812 44.512 294.876 44.1 251.352 45.676 226.312 52.904 163.78 107.16 147.364 107.16 147.364L90.084 172.988C116.716 171.48 159.92 146.864 159.92 146.864L161.412 146.4" fill="#F8D2B5" transform="matrix(1.00122 0 0 1 415.09 -26)"/><path d="M150.004 252.52C150.004 275.548 136.984 294.216 120.92 294.216 104.856 294.216 91.824 275.548 91.824 252.52 91.824 229.496 104.856 210.836 120.92 210.836 136.984 210.836 150.004 229.496 150.004 252.52" fill="#FFFFFE" transform="matrix(1.00122 0 0 1 415.09 -26)"/><path d="M270.664 252.608C270.664 275.64 257.644 294.3 241.58 294.3 225.508 294.3 212.492 275.64 212.492 252.608 212.492 229.58 225.508 210.916 241.58 210.916 257.644 210.916 270.664 229.58 270.664 252.608" fill="#FFFFFE" transform="matrix(1.00122 0 0 1 415.09 -26)"/><path d="M103.676 296.036C103.676 302.004 93.148 306.848 80.148 306.848 67.156 306.848 56.616 302.004 56.616 296.036 56.616 290.064 67.156 285.216 80.148 285.216 93.148 285.216 103.676 290.064 103.676 296.036" fill="#EC9896" transform="matrix(1.00122 0 0 1 415.09 -26)"/><path d="M303.572 296.036C303.572 302.004 293.032 306.848 280.04 306.848 267.032 306.848 256.504 302.004 256.504 296.036 256.504 290.064 267.032 285.216 280.04 285.216 293.032 285.216 303.572 290.064 303.572 296.036" fill="#EC9896" transform="matrix(1.00122 0 0 1 415.09 -26)"/><path d="M48.012 294.64 45.668 270.348C45.668 270.348 39.06 255.288 28.92 252.96 15.856 249.96 15.592 270.084 24.56 281.448 38.296 298.84 48.012 294.64 48.012 294.64" fill="#CF957E" transform="matrix(1.00122 0 0 1 415.09 -26)"/><path d="M313.956 294.64 316.308 270.348C316.308 270.348 322.908 255.288 333.048 252.96 346.112 249.96 346.376 270.084 337.408 281.448 323.68 298.84 313.956 294.64 313.956 294.64" fill="#CF957E" transform="matrix(1.00122 0 0 1 415.09 -26)"/><path d="M123.484 221.052C130.216 221.052 136.648 222.388 142.568 224.752 137.24 216.228 129.528 210.836 120.92 210.836 111.192 210.836 102.608 217.692 97.324 228.2 105.036 223.668 113.952 221.052 123.484 221.052" fill="#D2E0EB" transform="matrix(1.00122 0 0 1 415.09 -26)"/><path d="M239.196 221.14C232.464 221.14 226.04 222.472 220.116 224.836 225.44 216.312 233.16 210.916 241.76 210.916 251.488 210.916 260.072 217.78 265.352 228.28 257.644 223.76 248.728 221.14 239.196 221.14" fill="#D2E0EB" transform="matrix(1.00122 0 0 1 415.09 -26)"/><path d="M45.428 107.004C99.804 119.336 130.552 115.872 150.004 111.544 163.084 108.656 155.716 104.744 149.608 104.264 86.724 99.316 66.232 78.184 66.232 78.184L45.428 107.004" fill="#9B7B6D" transform="matrix(1.00122 0 0 1 415.09 -26)"/><path d="M138.444 190.732C127.756 176.672 97.928 179.24 89.764 195.1M222.02 190.732C232.704 176.672 262.532 179.24 270.696 195.1" stroke="#1A1919" stroke-width="5.6" stroke-linecap="round" stroke-linejoin="round" fill="none" transform="matrix(1.00122 0 0 1 415.09 -26)"/><path d="M146.824 228.356C134.624 200.092 83.468 199.952 90.78 266.652" stroke="#1A1919" stroke-width="6.708" stroke-linecap="round" stroke-linejoin="round" fill="none" transform="matrix(1.00122 0 0 1 415.09 -26)"/><path d="M44.264 244.732C44.264 244.732 36.148 229.676 20.872 234.244-10.988 243.756-0.768 309.78 51.864 315.468M22.192 251.788C22.192 251.788 32.692 244.94 45.584 271.864" stroke="#1A1919" stroke-width="5.6" stroke-linecap="round" stroke-linejoin="round" fill="none" transform="matrix(1.00122 0 0 1 415.09 -26)"/><path d="M214.476 231.188C224.448 200.236 279.096 197.952 271.556 266.74" stroke="#1A1919" stroke-width="6.708" stroke-linecap="round" stroke-linejoin="round" fill="none" transform="matrix(1.00122 0 0 1 415.09 -26)"/><path d="M315.84 244.984C315.84 244.984 323.956 229.928 339.228 234.488 371.08 244.008 362.62 310.028 309.152 315.72M338.352 252.296C338.352 252.296 327.852 245.444 314.964 272.372M179.984 301.444 179.984 293.756M168.46 139.32C157.412 147.868 141.332 175.996 141.332 175.996 215.692 176.5 251.36 126.264 251.36 126.264 251.36 126.264 257.892 161.768 288.032 186.388L292.056 170.304C292.056 170.304 311.152 189.404 314.524 230.52 315.792 256.02 314.792 296.764 303.244 329.812 281.644 391.636 212.7 405.648 179.984 405.648 147.264 405.648 78.324 391.636 56.724 329.812 44.512 294.876 44.1 251.352 45.676 226.312 52.904 163.78 107.16 147.364 107.16 147.364L90.084 172.988C116.716 171.48 159.92 146.864 159.92 146.864M20.872 234.244C-13.196 107.248 71.012 60.548 71.012 60.548 52.928 62.56 45.472 49.248 45.472 49.248 103.752 9.56 164.968 26.208 164.968 26.208 157.928 18.488 150.804 3.916 150.804 3.916 252.14 0.584 278.14 57.916 278.14 57.916 278.14 57.916 354.804 66.584 364.804 155.248L344.804 145.916C344.804 145.916 360.804 186.584 344.04 233.732" stroke="#1A1919" stroke-width="5.6" stroke-linecap="round" stroke-linejoin="round" fill="none" transform="matrix(1.00122 0 0 1 415.09 -26)"/><path d="M145.476 258.544C145.476 274.224 137.444 286.944 127.536 286.944 117.632 286.944 109.6 274.224 109.6 258.544 109.6 242.852 117.632 230.14 127.536 230.14 137.444 230.14 145.476 242.852 145.476 258.544" fill="#1A1919" transform="matrix(1.00122 0 0 1 415.09 -26)"/><path d="M216.52 258.632C216.52 274.312 224.548 287.028 234.456 287.028 244.368 287.028 252.392 274.312 252.392 258.632 252.392 242.94 244.368 230.228 234.456 230.228 224.548 230.228 216.52 242.94 216.52 258.632" fill="#1A1919" transform="matrix(1.00122 0 0 1 415.09 -26)"/><path d="M145.164 249.032C145.164 252.252 142.788 254.852 139.856 254.852 136.936 254.852 134.56 252.252 134.56 249.032 134.56 245.816 136.936 243.212 139.856 243.212 142.788 243.212 145.164 245.816 145.164 249.032" fill="#FFFFFE" transform="matrix(1.00122 0 0 1 415.09 -26)"/><path d="M251.008 249.116C251.008 252.336 248.636 254.94 245.704 254.94 242.784 254.94 240.408 252.336 240.408 249.116 240.408 245.904 242.784 243.292 245.704 243.292 248.636 243.292 251.008 245.904 251.008 249.116" fill="#FFFFFE" transform="matrix(1.00122 0 0 1 415.09 -26)"/><path d="M632.176 410.452C677.48 408.44 686.516 382.972 686.516 382.972L694.968 415.296C713.42 400.672 720.44 346.596 722.42 326.68L733.748 261.792C766.34 99.028 662.188 90.912 662.188 90.912 639.008 42.22 490.148 31.448 428.44 136.24 391.508 198.968 408.36 258.18 408.36 258.18L428.92 332.228C432.82 349.748 439.292 387.84 427.652 408.456 427.652 408.456 456.412 402.872 459.664 394.156 459.664 394.156 465.968 406.668 501.888 408.684" fill="#4F3B31" transform="matrix(1.00122 0 0 1 415.09 -26)"/><path d="M443.492 404.208C445.512 384.656 441.484 361.904 438.716 349.48L418.164 275.432C418.164 275.432 401.312 216.208 438.24 153.488 499.94 48.692 648.816 59.468 671.988 108.164 671.988 108.164 705.716 110.808 728.784 143.08 707.204 94.428 662.188 90.912 662.188 90.912 639.008 42.22 490.148 31.448 428.44 136.24 391.508 198.968 408.36 258.18 408.36 258.18L428.92 332.228C432.82 349.748 439.292 387.84 427.652 408.456 427.652 408.456 435.52 406.916 443.492 404.208" fill="#9B7B6D" transform="matrix(1.00122 0 0 1 415.09 -26)"/><path d="M437.184 266.688C437.184 266.688 429.276 252.012 414.38 256.464 383.34 265.736 393.3 330.088 444.604 335.636" fill="#F8D2B5" transform="matrix(1.00122 0 0 1 415.09 -26)"/><path d="M701.896 266.936C701.896 266.936 709.808 252.256 724.68 256.704 755.74 265.984 747.492 330.324 695.384 335.888" fill="#F8D2B5" transform="matrix(1.00122 0 0 1 415.09 -26)"/><path d="M438.564 248.728C474.5 130.208 629.976 153.544 629.976 153.544L647.224 130.232 640.972 156.816C640.972 156.816 688.592 198.356 700.62 252.828 701.848 277.684 700.876 317.4 689.62 349.612 668.556 409.876 601.372 423.536 569.468 423.536 537.58 423.536 470.388 409.876 449.332 349.612 437.444 315.56 437.024 273.136 438.564 248.728" fill="#F8D2B5" transform="matrix(1.00122 0 0 1 415.09 -26)"/><path d="M540.256 275.372C540.256 297.092 527.56 314.688 511.9 314.688 496.256 314.688 483.544 297.092 483.544 275.372 483.544 253.652 496.256 236.052 511.9 236.052 527.56 236.052 540.256 253.652 540.256 275.372" fill="#FFFFFE" transform="matrix(1.00122 0 0 1 415.09 -26)"/><path d="M657.864 275.456C657.864 297.164 645.168 314.772 629.508 314.772 613.852 314.772 601.16 297.164 601.16 275.456 601.16 253.732 613.852 236.132 629.508 236.132 645.168 236.132 657.864 253.732 657.864 275.456" fill="#FFFFFE" transform="matrix(1.00122 0 0 1 415.09 -26)"/><path d="M495.1 316.688C495.1 322.508 484.836 327.24 472.172 327.24 459.5 327.24 449.232 322.508 449.232 316.688 449.232 310.872 459.5 306.152 472.172 306.152 484.836 306.152 495.1 310.872 495.1 316.688" fill="#EC9896" transform="matrix(1.00122 0 0 1 415.09 -26)"/><path d="M689.948 316.688C689.948 322.508 679.668 327.24 667 327.24 654.332 327.24 644.056 322.508 644.056 316.688 644.056 310.872 654.332 306.152 667 306.152 679.668 306.152 689.948 310.872 689.948 316.688" fill="#EC9896" transform="matrix(1.00122 0 0 1 415.09 -26)"/><path d="M440.844 315.328 438.556 291.652C438.556 291.652 432.124 276.968 422.24 274.704 409.504 271.784 409.24 291.392 417.992 302.468 431.38 319.428 440.844 315.328 440.844 315.328" fill="#CF957E" transform="matrix(1.00122 0 0 1 415.09 -26)"/><path d="M700.064 315.328 702.36 291.652C702.36 291.652 708.788 276.968 718.672 274.704 731.408 271.784 731.664 291.392 722.92 302.468 709.536 319.428 700.064 315.328 700.064 315.328" fill="#CF957E" transform="matrix(1.00122 0 0 1 415.09 -26)"/><path d="M514.404 245.688C520.976 245.688 527.232 246.96 533.004 249.176 527.82 241.14 520.304 236.052 511.9 236.052 502.428 236.052 494.068 242.516 488.904 252.42 496.436 248.156 505.12 245.688 514.404 245.688" fill="#D2E0EB" transform="matrix(1.00122 0 0 1 415.09 -26)"/><path d="M627.204 245.768C620.624 245.768 614.364 247.028 608.6 249.256 613.78 241.22 621.308 236.132 629.688 236.132 639.176 236.132 647.532 242.596 652.68 252.508 645.168 248.232 636.488 245.768 627.204 245.768" fill="#D2E0EB" transform="matrix(1.00122 0 0 1 415.09 -26)"/><path d="M447.208 125.392C498.944 142 529.1 141.26 548.36 138.716 561.304 137.028 554.488 132.6 548.584 131.616 487.96 121.452 469.86 99.184 469.86 99.184L447.208 125.392" fill="#9B7B6D" transform="matrix(1.00122 0 0 1 415.09 -26)"/><path d="M408.36 258.18C408.36 258.18 391.508 198.968 428.44 136.24 490.148 31.448 639.008 42.22 662.188 90.912 662.188 90.912 766.34 99.028 733.748 261.792M428.92 332.228C432.82 349.748 439.292 387.84 427.652 408.456 427.652 408.456 456.412 402.872 459.664 394.156 459.664 394.156 465.968 406.668 501.888 408.684M722.42 326.68C720.44 346.596 713.42 400.672 694.968 415.296L686.516 382.972C686.516 382.972 677.48 408.44 632.176 410.452M528.992 208.272C516.328 195.096 489.5 197.052 481.544 212.524M610.444 208.272C622.572 196.408 649.944 197.052 657.896 212.524" stroke="#1A1919" stroke-width="5.6" stroke-linecap="round" stroke-linejoin="round" fill="none" transform="matrix(1.00122 0 0 1 415.09 -26)"/><path d="M537.16 252.584C525.264 225.912 475.412 225.796 482.524 288.708" stroke="#1A1919" stroke-width="6.4" stroke-linecap="round" stroke-linejoin="round" fill="none" transform="matrix(1.00122 0 0 1 415.09 -26)"/><path d="M437.184 266.688C437.184 266.688 429.276 252.012 414.38 256.464 383.34 265.736 393.3 330.088 444.604 335.636M415.68 273.564C415.68 273.564 425.92 266.888 438.472 293.136" stroke="#1A1919" stroke-width="5.6" stroke-linecap="round" stroke-linejoin="round" fill="none" transform="matrix(1.00122 0 0 1 415.09 -26)"/><path d="M603.088 255.244C612.82 226.056 666.072 223.908 658.74 288.78" stroke="#1A1919" stroke-width="6.4" stroke-linecap="round" stroke-linejoin="round" fill="none" transform="matrix(1.00122 0 0 1 415.09 -26)"/><path d="M701.896 266.936C701.896 266.936 709.808 252.256 724.68 256.704 755.74 265.984 747.492 330.324 695.384 335.888M723.832 274.052C723.832 274.052 713.616 267.384 701.044 293.628M569.468 322.028 569.468 314.544" stroke="#1A1919" stroke-width="5.6" stroke-linecap="round" stroke-linejoin="round" fill="none" transform="matrix(1.00122 0 0 1 415.09 -26)"/><path d="M535.848 281.052C535.848 295.84 528.012 307.832 518.356 307.832 508.708 307.832 500.872 295.84 500.872 281.052 500.872 266.256 508.708 254.26 518.356 254.26 528.012 254.26 535.848 266.256 535.848 281.052" fill="#1A1919" transform="matrix(1.00122 0 0 1 415.09 -26)"/><path d="M605.088 281.128C605.088 295.924 612.912 307.912 622.564 307.912 632.232 307.912 640.06 295.924 640.06 281.128 640.06 266.336 632.232 254.336 622.564 254.336 612.912 254.336 605.088 266.336 605.088 281.128" fill="#1A1919" transform="matrix(1.00122 0 0 1 415.09 -26)"/><path d="M535.536 272.084C535.536 275.116 533.228 277.572 530.372 277.572 527.516 277.572 525.212 275.116 525.212 272.084 525.212 269.048 527.516 266.588 530.372 266.588 533.228 266.588 535.536 269.048 535.536 272.084" fill="#FFFFFE" transform="matrix(1.00122 0 0 1 415.09 -26)"/><path d="M638.704 272.164C638.704 275.192 636.38 277.636 633.54 277.636 630.684 277.636 628.372 275.192 628.372 272.164 628.372 269.132 630.684 266.676 633.54 266.676 636.38 266.676 638.704 269.132 638.704 272.164" fill="#FFFFFE" transform="matrix(1.00122 0 0 1 415.09 -26)"/><path d="M438.564 248.728C473.984 129.68 629.976 153.544 629.976 153.544L647.224 130.232 640.972 156.816C640.972 156.816 690.944 188.124 700.62 252.828 701.848 277.684 700.876 317.4 689.62 349.612 668.556 409.876 601.372 423.536 569.468 423.536 537.58 423.536 470.388 409.876 449.332 349.612 437.444 315.56 437.024 273.136 438.564 248.728Z" stroke="#1A1919" stroke-width="5.6" stroke-linecap="round" stroke-linejoin="round" fill="none" transform="matrix(1.00122 0 0 1 415.09 -26)"/><path d="M701.168 152.904C706.036 157.4 695.168 177.124 683.432 189.844 671.684 202.564 668.188 198.432 663.332 193.94 658.456 189.444 654.056 186.296 665.792 173.568 677.532 160.848 696.296 148.416 701.168 152.904" fill="#E05652" transform="matrix(1.00122 0 0 1 415.09 -26)"/><path d="M701.168 152.904C706.036 157.4 695.168 177.124 683.432 189.844 671.684 202.564 668.188 198.432 663.332 193.94 658.456 189.444 654.056 186.296 665.792 173.568 677.532 160.848 696.296 148.416 701.168 152.904ZM469.568 266.3 480.676 270.46M671.012 266.3 659.908 270.46M130.172 333.772C137.24 346.336 151.548 360.9 179.912 360.9 209.268 360.9 223.56 345.3 230.356 332.468M525 354.244C532.676 366.724 546.116 378.82 569.368 378.82 593.548 378.82 607.12 365.736 614.624 352.744" stroke="#1A1919" stroke-width="5.6" stroke-linecap="round" stroke-linejoin="round" fill="none" transform="matrix(1.00122 0 0 1 415.09 -26)"/><path d="M25.468 665.2C25.468 665.2 28.8 519.536 32.132 498.2 35.464 476.864 48.8 460.536 62.132 453.404 75.464 446.272 133.44 428.368 133.44 428.368L223.496 428.368C223.496 428.368 281.472 446.272 294.804 453.404 308.136 460.536 321.472 476.864 324.804 498.2 328.136 519.536 337.468 665.2 337.468 665.2L25.468 665.2" fill="#4B6BA5" transform="matrix(1.00122 0 0 1 415.09 -26)"/><path d="M106.468 600.536C78.86 600.536 52.316 597.916 27.444 593.132 26.252 630.884 25.468 665.2 25.468 665.2L337.468 665.2C337.468 665.2 331.56 572.996 327.468 524.572 284.212 569.88 201.48 600.536 106.468 600.536" fill="#3E5C8A" transform="matrix(1.00122 0 0 1 415.09 -26)"/><path d="M423.468 665.2C423.468 665.2 430.64 532.508 434.356 511.24 439.024 484.572 452.528 470.908 470.548 462.916 486.708 455.748 549.448 439.732 549.448 439.732L587.488 439.732C587.488 439.732 650.224 455.748 666.384 462.916 684.404 470.908 697.908 484.572 702.576 511.24 706.296 532.508 713.468 665.2 713.468 665.2L423.468 665.2" fill="#E77B8C" transform="matrix(1.00122 0 0 1 415.09 -26)"/><path d="M524.468 616.2C490.1 616.2 457.348 612.172 427.476 604.912 425.236 644.4 423.468 665.2 423.468 665.2L713.468 665.2C713.468 665.2 710.512 619.832 707.412 570.372 661.34 598.592 596.44 616.2 524.468 616.2" fill="#E3667B" transform="matrix(1.00122 0 0 1 415.09 -26)"/><path d="M206.984 458.4C206.984 458.4 191.484 483.648 179.984 483.648 168.484 483.648 152.984 458.4 152.984 458.4 152.984 458.4 154.732 448.648 156.484 446.148 158.232 443.648 166.984 434.024 166.984 434.024L192.484 432.648C192.484 432.648 204.732 438.524 205.856 442.524 206.984 446.524 206.984 458.4 206.984 458.4" fill="#FFFFFE" transform="matrix(1.00122 0 0 1 415.09 -26)"/><path d="M196.068 396.672 197.856 407.776C197.856 407.776 210.608 415.9 207.608 427.024 205.78 430.684 199.968 436.936 186.664 438.608 186.232 440.152 182.3 449.448 179.74 449.448 176.94 449.448 172.396 440.152 171.808 438.024 158.456 434.528 151.364 423.064 151.364 423.064L160.132 407.104 160.992 396.004" fill="#F8D2B5" transform="matrix(1.00122 0 0 1 415.09 -26)"/><path d="M161.144 387.968 197.232 387.968 197.612 411.076C197.612 411.076 186.32 426.4 157.484 429.9 153.108 430.432 152.148 422.732 152.284 422.724L159.988 408.736 161.144 387.968" fill="#CF957E" transform="matrix(1.00122 0 0 1 415.09 -26)"/><path d="M161.156 407.368C161.156 407.368 153.636 407.368 148.64 410.94 144.704 413.752 136.968 425.368 136.468 428.368 135.968 431.368 134.972 467.196 139.804 475.032 139.804 475.032 162.636 439.868 170.304 438.532 162.012 437.032 145.968 427.2 154.468 417.368L159.732 415.48 161.156 407.368" fill="#FFFFFE" transform="matrix(1.00122 0 0 1 415.09 -26)"/><path d="M198.804 407.368C198.804 407.368 206.328 407.368 211.324 410.94 215.256 413.752 222.996 425.368 223.496 428.368 223.996 431.368 224.992 467.196 220.16 475.032 220.16 475.032 197.328 439.868 189.664 438.532 197.948 437.032 213.992 427.2 205.492 417.368L198.984 415.98 198.804 407.368" fill="#FFFFFE" transform="matrix(1.00122 0 0 1 415.09 -26)"/><path d="M552.28 665.2 531.444 469.32 530.5 459.68C530.5 459.68 568.084 482.332 608.712 456.864L607.52 468.948 586.656 665.2 552.28 665.2" fill="#FFF7AD" transform="matrix(1.00122 0 0 1 415.09 -26)"/><path d="M587.488 439.732 584.248 415.564 555.568 417.812 552.28 439.732 529.708 445.392 531.78 459.068C531.78 459.068 545.592 468.964 569.468 468.964 593.34 468.964 608.34 458.4 608.34 458.4L609.832 445.48 587.488 439.732" fill="#F8D2B5" transform="matrix(1.00122 0 0 1 415.09 -26)"/><path d="M558.296 444.032C571.56 444.032 582.74 438.452 586.292 430.816L584.52 417.592C584.008 416.932 583.448 416.292 582.82 415.676L555.568 417.812 552.28 439.732 544.224 441.752C548.396 443.204 553.192 444.032 558.296 444.032" fill="#CF957E" transform="matrix(1.00122 0 0 1 415.09 -26)"/><path d="M162.444 402.82 161.156 421.452M161.156 407.368C161.156 407.368 153.636 407.368 148.64 410.94 144.704 413.752 136.968 425.368 136.468 428.368 135.968 431.368 134.972 467.196 139.804 475.032 139.804 475.032 162.636 439.868 170.304 438.532 162.012 437.032 145.968 427.2 154.468 417.368M197.504 403.02 198.804 421.452M198.804 407.368C198.804 407.368 206.328 407.368 211.324 410.94 215.256 413.752 222.996 425.368 223.496 428.368 223.996 431.368 224.992 467.196 220.16 475.032 220.16 475.032 197.328 439.868 189.664 438.532 197.948 437.032 213.992 427.2 205.492 417.368M170.044 438.736C170.044 438.736 173.788 449.484 179.74 449.448 183.004 449.424 189.436 438.448 189.436 438.592M65.636 523.7 75.636 665.2M293.304 523.7 283.304 665.2M223.496 428.368C223.496 428.368 281.472 446.272 294.804 453.404 308.136 460.536 321.472 476.864 324.804 498.2 328.136 519.536 337.468 665.2 337.468 665.2M133.44 428.368C133.44 428.368 75.464 446.272 62.132 453.404 48.8 460.536 35.464 476.864 32.132 498.2 28.8 519.536 25.468 665.2 25.468 665.2M206.984 458.4C206.984 458.4 191.484 483.648 179.984 483.648 168.484 483.648 152.984 458.4 152.984 458.4M555.568 417.812 552.28 444.032M584.248 415.564 587.488 444.032M461.508 539.364 475.172 665.2M674.468 543.2 662.672 665.2M587.488 439.732C587.488 439.732 650.224 455.748 666.384 462.916 684.404 470.908 697.908 484.572 702.576 511.24 706.296 532.508 713.468 665.2 713.468 665.2M529.104 445.516 552.28 665.2M609.832 445.516 586.656 665.2M530.5 459.68C530.5 459.68 568.084 482.332 608.712 456.864" stroke="#1A1919" stroke-width="5.6" stroke-linecap="round" stroke-linejoin="round" fill="none" transform="matrix(1.00122 0 0 1 415.09 -26)"/><path d="M531.78 473.564C531.78 473.564 568.136 494.228 607.436 470.992M490.732 456.864C490.732 456.864 532.684 506.664 536.28 518.364M648.2 456.864C648.2 456.864 606.248 506.664 602.656 518.364" stroke="#1A1919" stroke-width="4.8" stroke-linecap="round" stroke-linejoin="round" fill="none" transform="matrix(1.00122 0 0 1 415.09 -26)"/><path d="M462.468 543.2 474.26 665.2M550.968 439.2C550.968 439.2 486.708 455.748 470.548 462.916 452.528 470.908 439.024 484.572 434.356 511.24 430.64 532.508 423.468 665.2 423.468 665.2" stroke="#1A1919" stroke-width="5.6" stroke-linecap="round" stroke-linejoin="round" fill="none" transform="matrix(1.00122 0 0 1 415.09 -26)"/><path d="M488.732 456.864C488.732 456.864 530.684 506.664 534.28 518.364" stroke="#1A1919" stroke-width="4.8" stroke-linecap="round" stroke-linejoin="round" fill="none" transform="matrix(1.00122 0 0 1 415.09 -26)"/><path d="M20.872 234.244C-4.344 115.996 71.012 60.548 71.012 60.548 52.928 62.56 45.136 49.748 45.136 49.748 103.416 10.06 164.968 26.208 164.968 26.208 157.928 18.488 149.968 3.584 149.968 3.584 244.428 3.584 280.052 58.164 280.052 58.164 280.052 58.164 352.304 67.164 364.304 154.916L344.804 146.164C344.804 146.164 359.04 182.348 344.04 233.732L339.308 247.452 28.92 252.96 20.872 234.244" fill="#4F3B31" transform="matrix(1.00122 0 0 1 415.09 -26)"/><path d="M62.664 60.352C52.692 56.616 45.636 48.916 45.636 48.916 103.916 9.224 164.968 26.208 164.968 26.208 157.928 18.488 149.968 3.584 149.968 3.584 199.428 3.584 236.136 14.968 256.152 31.364 236.032 19.096 207.74 8.772 169.444 8.772 169.444 8.772 179.348 24.516 183.012 33.316 184.528 36.972 185.332 41.608 179.984 40.396 162.124 36.34 119.452 27.716 79.452 49.256 79.452 49.256 74.396 52.612 79.396 55.612 84.396 58.612 88.028 67.652 74.32 79.764 54.764 97.036 8.264 138.152 27.332 238.828L20.872 234.244C-4.196 143.416 31.804 85.416 63.968 66.7 63.968 66.7 67.804 63.084 66.804 62.248 65.804 61.416 62.664 60.352 62.664 60.352" fill="#9B7B6D" transform="matrix(1.00122 0 0 1 415.09 -26)"/><path d="M44.264 244.732C44.264 244.732 36.148 229.676 20.872 234.244-10.988 243.756-0.768 309.78 51.864 315.468" fill="#F8D2B5" transform="matrix(1.00122 0 0 1 415.09 -26)"/><path d="M315.84 244.984C315.84 244.984 323.956 229.928 339.228 234.488 371.08 244.008 362.62 310.028 309.152 315.72" fill="#F8D2B5" transform="matrix(1.00122 0 0 1 415.09 -26)"/><path d="M161.412 146.4C151.632 157.972 141.332 175.996 141.332 175.996 215.692 176.5 251.36 126.264 251.36 126.264 251.36 126.264 257.892 161.768 288.032 186.388L292.056 170.304C292.056 170.304 311.152 189.404 314.524 230.52 315.792 256.02 314.792 296.764 303.244 329.812 281.644 391.636 212.7 405.648 179.984 405.648 147.264 405.648 78.324 391.636 56.724 329.812 44.512 294.876 44.1 251.352 45.676 226.312 52.904 163.78 107.16 147.364 107.16 147.364L90.084 172.988C116.716 171.48 159.92 146.864 159.92 146.864L161.412 146.4" fill="#F8D2B5" transform="matrix(1.00122 0 0 1 415.09 -26)"/><path d="M150.004 252.52C150.004 275.548 136.984 294.216 120.92 294.216 104.856 294.216 91.824 275.548 91.824 252.52 91.824 229.496 104.856 210.836 120.92 210.836 136.984 210.836 150.004 229.496 150.004 252.52" fill="#FFFFFE" transform="matrix(1.00122 0 0 1 415.09 -26)"/><path d="M270.664 252.608C270.664 275.64 257.644 294.3 241.58 294.3 225.508 294.3 212.492 275.64 212.492 252.608 212.492 229.58 225.508 210.916 241.58 210.916 257.644 210.916 270.664 229.58 270.664 252.608" fill="#FFFFFE" transform="matrix(1.00122 0 0 1 415.09 -26)"/><path d="M103.676 296.036C103.676 302.004 93.148 306.848 80.148 306.848 67.156 306.848 56.616 302.004 56.616 296.036 56.616 290.064 67.156 285.216 80.148 285.216 93.148 285.216 103.676 290.064 103.676 296.036" fill="#EC9896" transform="matrix(1.00122 0 0 1 415.09 -26)"/><path d="M303.572 296.036C303.572 302.004 293.032 306.848 280.04 306.848 267.032 306.848 256.504 302.004 256.504 296.036 256.504 290.064 267.032 285.216 280.04 285.216 293.032 285.216 303.572 290.064 303.572 296.036" fill="#EC9896" transform="matrix(1.00122 0 0 1 415.09 -26)"/><path d="M48.012 294.64 45.668 270.348C45.668 270.348 39.06 255.288 28.92 252.96 15.856 249.96 15.592 270.084 24.56 281.448 38.296 298.84 48.012 294.64 48.012 294.64" fill="#CF957E" transform="matrix(1.00122 0 0 1 415.09 -26)"/><path d="M313.956 294.64 316.308 270.348C316.308 270.348 322.908 255.288 333.048 252.96 346.112 249.96 346.376 270.084 337.408 281.448 323.68 298.84 313.956 294.64 313.956 294.64" fill="#CF957E" transform="matrix(1.00122 0 0 1 415.09 -26)"/><path d="M123.484 221.052C130.216 221.052 136.648 222.388 142.568 224.752 137.24 216.228 129.528 210.836 120.92 210.836 111.192 210.836 102.608 217.692 97.324 228.2 105.036 223.668 113.952 221.052 123.484 221.052" fill="#D2E0EB" transform="matrix(1.00122 0 0 1 415.09 -26)"/><path d="M239.196 221.14C232.464 221.14 226.04 222.472 220.116 224.836 225.44 216.312 233.16 210.916 241.76 210.916 251.488 210.916 260.072 217.78 265.352 228.28 257.644 223.76 248.728 221.14 239.196 221.14" fill="#D2E0EB" transform="matrix(1.00122 0 0 1 415.09 -26)"/><path d="M45.428 107.004C99.804 119.336 130.552 115.872 150.004 111.544 163.084 108.656 155.716 104.744 149.608 104.264 86.724 99.316 66.232 78.184 66.232 78.184L45.428 107.004" fill="#9B7B6D" transform="matrix(1.00122 0 0 1 415.09 -26)"/><path d="M138.444 190.732C127.756 176.672 97.928 179.24 89.764 195.1M222.02 190.732C232.704 176.672 262.532 179.24 270.696 195.1" stroke="#1A1919" stroke-width="5.6" stroke-linecap="round" stroke-linejoin="round" fill="none" transform="matrix(1.00122 0 0 1 415.09 -26)"/><path d="M146.824 228.356C134.624 200.092 83.468 199.952 90.78 266.652" stroke="#1A1919" stroke-width="6.708" stroke-linecap="round" stroke-linejoin="round" fill="none" transform="matrix(1.00122 0 0 1 415.09 -26)"/><path d="M44.264 244.732C44.264 244.732 36.148 229.676 20.872 234.244-10.988 243.756-0.768 309.78 51.864 315.468M22.192 251.788C22.192 251.788 32.692 244.94 45.584 271.864" stroke="#1A1919" stroke-width="5.6" stroke-linecap="round" stroke-linejoin="round" fill="none" transform="matrix(1.00122 0 0 1 415.09 -26)"/><path d="M214.476 231.188C224.448 200.236 279.096 197.952 271.556 266.74" stroke="#1A1919" stroke-width="6.708" stroke-linecap="round" stroke-linejoin="round" fill="none" transform="matrix(1.00122 0 0 1 415.09 -26)"/><path d="M315.84 244.984C315.84 244.984 323.956 229.928 339.228 234.488 371.08 244.008 362.62 310.028 309.152 315.72M338.352 252.296C338.352 252.296 327.852 245.444 314.964 272.372M179.984 301.444 179.984 293.756M168.46 139.32C157.412 147.868 141.332 175.996 141.332 175.996 215.692 176.5 251.36 126.264 251.36 126.264 251.36 126.264 257.892 161.768 288.032 186.388L292.056 170.304C292.056 170.304 311.152 189.404 314.524 230.52 315.792 256.02 314.792 296.764 303.244 329.812 281.644 391.636 212.7 405.648 179.984 405.648 147.264 405.648 78.324 391.636 56.724 329.812 44.512 294.876 44.1 251.352 45.676 226.312 52.904 163.78 107.16 147.364 107.16 147.364L90.084 172.988C116.716 171.48 159.92 146.864 159.92 146.864M20.872 234.244C-13.196 107.248 71.012 60.548 71.012 60.548 52.928 62.56 45.472 49.248 45.472 49.248 103.752 9.56 164.968 26.208 164.968 26.208 157.928 18.488 150.804 3.916 150.804 3.916 252.14 0.584 278.14 57.916 278.14 57.916 278.14 57.916 354.804 66.584 364.804 155.248L344.804 145.916C344.804 145.916 360.804 186.584 344.04 233.732" stroke="#1A1919" stroke-width="5.6" stroke-linecap="round" stroke-linejoin="round" fill="none" transform="matrix(1.00122 0 0 1 415.09 -26)"/><path d="M145.476 258.544C145.476 274.224 137.444 286.944 127.536 286.944 117.632 286.944 109.6 274.224 109.6 258.544 109.6 242.852 117.632 230.14 127.536 230.14 137.444 230.14 145.476 242.852 145.476 258.544" fill="#1A1919" transform="matrix(1.00122 0 0 1 415.09 -26)"/><path d="M216.52 258.632C216.52 274.312 224.548 287.028 234.456 287.028 244.368 287.028 252.392 274.312 252.392 258.632 252.392 242.94 244.368 230.228 234.456 230.228 224.548 230.228 216.52 242.94 216.52 258.632" fill="#1A1919" transform="matrix(1.00122 0 0 1 415.09 -26)"/><path d="M145.164 249.032C145.164 252.252 142.788 254.852 139.856 254.852 136.936 254.852 134.56 252.252 134.56 249.032 134.56 245.816 136.936 243.212 139.856 243.212 142.788 243.212 145.164 245.816 145.164 249.032" fill="#FFFFFE" transform="matrix(1.00122 0 0 1 415.09 -26)"/><path d="M251.008 249.116C251.008 252.336 248.636 254.94 245.704 254.94 242.784 254.94 240.408 252.336 240.408 249.116 240.408 245.904 242.784 243.292 245.704 243.292 248.636 243.292 251.008 245.904 251.008 249.116" fill="#FFFFFE" transform="matrix(1.00122 0 0 1 415.09 -26)"/><path d="M632.176 410.452C677.48 408.44 686.516 382.972 686.516 382.972L694.968 415.296C713.42 400.672 720.44 346.596 722.42 326.68L733.748 261.792C766.34 99.028 662.188 90.912 662.188 90.912 639.008 42.22 490.148 31.448 428.44 136.24 391.508 198.968 408.36 258.18 408.36 258.18L428.92 332.228C432.82 349.748 439.292 387.84 427.652 408.456 427.652 408.456 456.412 402.872 459.664 394.156 459.664 394.156 465.968 406.668 501.888 408.684" fill="#4F3B31" transform="matrix(1.00122 0 0 1 415.09 -26)"/><path d="M443.492 404.208C445.512 384.656 441.484 361.904 438.716 349.48L418.164 275.432C418.164 275.432 401.312 216.208 438.24 153.488 499.94 48.692 648.816 59.468 671.988 108.164 671.988 108.164 705.716 110.808 728.784 143.08 707.204 94.428 662.188 90.912 662.188 90.912 639.008 42.22 490.148 31.448 428.44 136.24 391.508 198.968 408.36 258.18 408.36 258.18L428.92 332.228C432.82 349.748 439.292 387.84 427.652 408.456 427.652 408.456 435.52 406.916 443.492 404.208" fill="#9B7B6D" transform="matrix(1.00122 0 0 1 415.09 -26)"/><path d="M437.184 266.688C437.184 266.688 429.276 252.012 414.38 256.464 383.34 265.736 393.3 330.088 444.604 335.636" fill="#F8D2B5" transform="matrix(1.00122 0 0 1 415.09 -26)"/><path d="M701.896 266.936C701.896 266.936 709.808 252.256 724.68 256.704 755.74 265.984 747.492 330.324 695.384 335.888" fill="#F8D2B5" transform="matrix(1.00122 0 0 1 415.09 -26)"/><path d="M438.564 248.728C474.5 130.208 629.976 153.544 629.976 153.544L647.224 130.232 640.972 156.816C640.972 156.816 688.592 198.356 700.62 252.828 701.848 277.684 700.876 317.4 689.62 349.612 668.556 409.876 601.372 423.536 569.468 423.536 537.58 423.536 470.388 409.876 449.332 349.612 437.444 315.56 437.024 273.136 438.564 248.728" fill="#F8D2B5" transform="matrix(1.00122 0 0 1 415.09 -26)"/><path d="M540.256 275.372C540.256 297.092 527.56 314.688 511.9 314.688 496.256 314.688 483.544 297.092 483.544 275.372 483.544 253.652 496.256 236.052 511.9 236.052 527.56 236.052 540.256 253.652 540.256 275.372" fill="#FFFFFE" transform="matrix(1.00122 0 0 1 415.09 -26)"/><path d="M657.864 275.456C657.864 297.164 645.168 314.772 629.508 314.772 613.852 314.772 601.16 297.164 601.16 275.456 601.16 253.732 613.852 236.132 629.508 236.132 645.168 236.132 657.864 253.732 657.864 275.456" fill="#FFFFFE" transform="matrix(1.00122 0 0 1 415.09 -26)"/><path d="M495.1 316.688C495.1 322.508 484.836 327.24 472.172 327.24 459.5 327.24 449.232 322.508 449.232 316.688 449.232 310.872 459.5 306.152 472.172 306.152 484.836 306.152 495.1 310.872 495.1 316.688" fill="#EC9896" transform="matrix(1.00122 0 0 1 415.09 -26)"/><path d="M689.948 316.688C689.948 322.508 679.668 327.24 667 327.24 654.332 327.24 644.056 322.508 644.056 316.688 644.056 310.872 654.332 306.152 667 306.152 679.668 306.152 689.948 310.872 689.948 316.688" fill="#EC9896" transform="matrix(1.00122 0 0 1 415.09 -26)"/><path d="M440.844 315.328 438.556 291.652C438.556 291.652 432.124 276.968 422.24 274.704 409.504 271.784 409.24 291.392 417.992 302.468 431.38 319.428 440.844 315.328 440.844 315.328" fill="#CF957E" transform="matrix(1.00122 0 0 1 415.09 -26)"/><path d="M700.064 315.328 702.36 291.652C702.36 291.652 708.788 276.968 718.672 274.704 731.408 271.784 731.664 291.392 722.92 302.468 709.536 319.428 700.064 315.328 700.064 315.328" fill="#CF957E" transform="matrix(1.00122 0 0 1 415.09 -26)"/><path d="M514.404 245.688C520.976 245.688 527.232 246.96 533.004 249.176 527.82 241.14 520.304 236.052 511.9 236.052 502.428 236.052 494.068 242.516 488.904 252.42 496.436 248.156 505.12 245.688 514.404 245.688" fill="#D2E0EB" transform="matrix(1.00122 0 0 1 415.09 -26)"/><path d="M627.204 245.768C620.624 245.768 614.364 247.028 608.6 249.256 613.78 241.22 621.308 236.132 629.688 236.132 639.176 236.132 647.532 242.596 652.68 252.508 645.168 248.232 636.488 245.768 627.204 245.768" fill="#D2E0EB" transform="matrix(1.00122 0 0 1 415.09 -26)"/><path d="M447.208 125.392C498.944 142 529.1 141.26 548.36 138.716 561.304 137.028 554.488 132.6 548.584 131.616 487.96 121.452 469.86 99.184 469.86 99.184L447.208 125.392" fill="#9B7B6D" transform="matrix(1.00122 0 0 1 415.09 -26)"/><path d="M408.36 258.18C408.36 258.18 391.508 198.968 428.44 136.24 490.148 31.448 639.008 42.22 662.188 90.912 662.188 90.912 766.34 99.028 733.748 261.792M428.92 332.228C432.82 349.748 439.292 387.84 427.652 408.456 427.652 408.456 456.412 402.872 459.664 394.156 459.664 394.156 465.968 406.668 501.888 408.684M722.42 326.68C720.44 346.596 713.42 400.672 694.968 415.296L686.516 382.972C686.516 382.972 677.48 408.44 632.176 410.452M528.992 208.272C516.328 195.096 489.5 197.052 481.544 212.524M610.444 208.272C622.572 196.408 649.944 197.052 657.896 212.524" stroke="#1A1919" stroke-width="5.6" stroke-linecap="round" stroke-linejoin="round" fill="none" transform="matrix(1.00122 0 0 1 415.09 -26)"/><path d="M537.16 252.584C525.264 225.912 475.412 225.796 482.524 288.708" stroke="#1A1919" stroke-width="6.4" stroke-linecap="round" stroke-linejoin="round" fill="none" transform="matrix(1.00122 0 0 1 415.09 -26)"/><path d="M437.184 266.688C437.184 266.688 429.276 252.012 414.38 256.464 383.34 265.736 393.3 330.088 444.604 335.636M415.68 273.564C415.68 273.564 425.92 266.888 438.472 293.136" stroke="#1A1919" stroke-width="5.6" stroke-linecap="round" stroke-linejoin="round" fill="none" transform="matrix(1.00122 0 0 1 415.09 -26)"/><path d="M603.088 255.244C612.82 226.056 666.072 223.908 658.74 288.78" stroke="#1A1919" stroke-width="6.4" stroke-linecap="round" stroke-linejoin="round" fill="none" transform="matrix(1.00122 0 0 1 415.09 -26)"/><path d="M701.896 266.936C701.896 266.936 709.808 252.256 724.68 256.704 755.74 265.984 747.492 330.324 695.384 335.888M723.832 274.052C723.832 274.052 713.616 267.384 701.044 293.628M569.468 322.028 569.468 314.544" stroke="#1A1919" stroke-width="5.6" stroke-linecap="round" stroke-linejoin="round" fill="none" transform="matrix(1.00122 0 0 1 415.09 -26)"/><path d="M535.848 281.052C535.848 295.84 528.012 307.832 518.356 307.832 508.708 307.832 500.872 295.84 500.872 281.052 500.872 266.256 508.708 254.26 518.356 254.26 528.012 254.26 535.848 266.256 535.848 281.052" fill="#1A1919" transform="matrix(1.00122 0 0 1 415.09 -26)"/><path d="M605.088 281.128C605.088 295.924 612.912 307.912 622.564 307.912 632.232 307.912 640.06 295.924 640.06 281.128 640.06 266.336 632.232 254.336 622.564 254.336 612.912 254.336 605.088 266.336 605.088 281.128" fill="#1A1919" transform="matrix(1.00122 0 0 1 415.09 -26)"/><path d="M535.536 272.084C535.536 275.116 533.228 277.572 530.372 277.572 527.516 277.572 525.212 275.116 525.212 272.084 525.212 269.048 527.516 266.588 530.372 266.588 533.228 266.588 535.536 269.048 535.536 272.084" fill="#FFFFFE" transform="matrix(1.00122 0 0 1 415.09 -26)"/><path d="M638.704 272.164C638.704 275.192 636.38 277.636 633.54 277.636 630.684 277.636 628.372 275.192 628.372 272.164 628.372 269.132 630.684 266.676 633.54 266.676 636.38 266.676 638.704 269.132 638.704 272.164" fill="#FFFFFE" transform="matrix(1.00122 0 0 1 415.09 -26)"/><path d="M438.564 248.728C473.984 129.68 629.976 153.544 629.976 153.544L647.224 130.232 640.972 156.816C640.972 156.816 690.944 188.124 700.62 252.828 701.848 277.684 700.876 317.4 689.62 349.612 668.556 409.876 601.372 423.536 569.468 423.536 537.58 423.536 470.388 409.876 449.332 349.612 437.444 315.56 437.024 273.136 438.564 248.728Z" stroke="#1A1919" stroke-width="5.6" stroke-linecap="round" stroke-linejoin="round" fill="none" transform="matrix(1.00122 0 0 1 415.09 -26)"/><path d="M701.168 152.904C706.036 157.4 695.168 177.124 683.432 189.844 671.684 202.564 668.188 198.432 663.332 193.94 658.456 189.444 654.056 186.296 665.792 173.568 677.532 160.848 696.296 148.416 701.168 152.904" fill="#E05652" transform="matrix(1.00122 0 0 1 415.09 -26)"/><path d="M701.168 152.904C706.036 157.4 695.168 177.124 683.432 189.844 671.684 202.564 668.188 198.432 663.332 193.94 658.456 189.444 654.056 186.296 665.792 173.568 677.532 160.848 696.296 148.416 701.168 152.904ZM469.568 266.3 480.676 270.46M671.012 266.3 659.908 270.46M130.172 333.772C137.24 346.336 151.548 360.9 179.912 360.9 209.268 360.9 223.56 345.3 230.356 332.468M525 354.244C532.676 366.724 546.116 378.82 569.368 378.82 593.548 378.82 607.12 365.736 614.624 352.744" stroke="#1A1919" stroke-width="5.6" stroke-linecap="round" stroke-linejoin="round" fill="none" transform="matrix(1.00122 0 0 1 415.09 -26)"/></g></g></g></g></svg>