<?xml version="1.0" encoding="UTF-8"?>
<!DOCTYPE svg PUBLIC "-//W3C//DTD SVG 1.1//EN" "http://www.w3.org/Graphics/SVG/1.1/DTD/svg11.dtd">
<svg version="1.1" xmlns="http://www.w3.org/2000/svg" xmlns:xlink="http://www.w3.org/1999/xlink" x="0" y="0" width="528" height="680" viewBox="0, 0, 528, 680">
  <g id="Layer_1">
    <path d="M524.144,170.532 C523.328,223.868 441.852,234.272 337.644,234.272 C233.432,234.272 154.2,229.42 154.2,170.532 C154.2,111.644 192.28,4.744 337.644,4.744 C483.004,4.744 524.144,111.644 524.144,170.532" fill="#F1F9FB"/>
    <path d="M337.644,170.668 C247.984,170.668 197.18,135.96 171.38,95.552 C159.324,120.2 154.2,147.968 154.2,170.532 C154.2,229.42 233.432,234.272 337.644,234.272 C441.852,234.272 523.664,221.532 524.144,170.532 C524.352,147.968 519.932,120.66 503.9,95.552 C478.1,135.96 427.3,170.668 337.644,170.668" fill="#BFD2E2"/>
    <path d="M169.92,207.512 C157.128,199.26 154.2,182.212 154.2,170.532 C154.2,111.644 193.456,3.568 338.82,3.568 C484.18,3.568 524.144,111.644 524.144,170.532 C524.144,181.328 516.764,200.244 504.956,206.148" fill-opacity="0" stroke="#1A1919" stroke-width="5.6" stroke-linecap="round" stroke-linejoin="round"/>
    <path d="M427.328,91.276 C408.576,49.276 271.576,19.276 202.676,119.608 C159.14,183.02 167.116,271.644 167.116,271.644 L187.176,341.276 L180.924,341.276 C180.924,341.276 217.244,439.236 297.244,461.488 L373.492,459.736 C453.744,439.988 489.124,358.82 492.996,344.988 L504.324,269.188 C516.156,99.688 427.328,91.276 427.328,91.276" fill="#744C45"/>
    <path d="M213.256,141.276 C309.924,11.276 491.26,117.944 503.924,197.276 C492.592,107.276 427.328,91.276 427.328,91.276 C408.576,49.276 271.576,19.276 202.676,119.608 C159.14,183.02 167.116,271.644 167.116,271.644 C167.116,271.644 178.928,277.692 178.592,277.944 C174.592,237.94 185.856,178.128 213.256,141.276" fill="#C99B88"/>
    <path d="M195.768,150.692 C198.86,165.276 290.62,171.716 313.868,165.372 C326.836,161.832 322.032,158.768 313.204,157.384 C237.704,145.548 222.992,114.2 222.992,114.2 L195.768,150.692" fill="#C99B88"/>
    <path d="M222.992,636.784 L238.992,614.2 L250.524,676.412 L419.26,676.412 C421.728,668.064 426.244,639.032 426.244,639.032 L495.996,616.032 C495.996,616.032 473.56,532.7 471.616,517.996 C467.808,489.152 445.684,477.696 431.496,474.032 C422.728,471.776 377.532,460.768 377.532,460.768 L360.368,446.16 L313.744,446.16 L294.916,461.296 C294.916,461.296 265.632,471 259.324,472.208 C247.416,474.504 224.888,483.196 218.936,496.02 C214.456,505.66 176.492,561.784 168.244,576.032 C168.244,576.032 209.18,631.596 212.744,634.784 C217.492,639.032 222.992,636.784 222.992,636.784" fill="#F1F9FB"/>
    <path d="M365.152,464.596 C365.152,464.596 358.264,461.556 357.004,459.204 C355.004,455.472 355.564,441.648 355.564,441.648 L317.9,441.648 C317.9,441.648 318.464,455.472 316.464,459.204 C315.2,461.556 308.316,464.596 308.316,464.596 C308.316,464.596 309.244,487.16 336.492,487.16 C363.744,487.16 364.932,465.532 365.152,464.596" fill="#F8D2B5"/>
    <path d="M317.868,430.964 L356.744,431.144 L358.024,456.896 C358.024,456.896 350.148,475.896 319.308,471.576 C308.512,470.064 307.932,462.716 307.932,462.716 L317.592,457.652 L317.868,430.964" fill="#CF957E"/>
    <g>
      <path d="M338.128,619.364 C304.24,619.364 255.988,612.988 238.352,597.044 C241.568,618.56 248.548,669.292 249.992,677.196 L418.744,677.196 C420.784,670.316 428.576,619.04 431.784,597.604 C411.096,613.204 371.812,619.364 338.128,619.364" fill="#BFD2E2"/>
      <path d="M129.872,565.92 C127.752,551.212 120.052,522.692 120.052,522.692 C120.052,522.692 93.836,525.268 51.82,498.6 C51.82,498.6 27.256,491.644 7.836,485.308 C-4.948,481.132 10.732,475.408 10.732,475.408 C10.732,475.408 3.424,471.988 3.648,467.724 C3.956,461.812 12.148,461.824 12.148,461.824 C12.148,461.824 10.292,457.088 14.768,453.392 C19.16,449.764 27.548,450.34 27.548,450.34 C27.548,450.34 25.836,444.5 30.44,441.852 C41.208,435.676 71.384,442.636 98.624,456.944 L104.288,456.604 C102.552,454.512 101.088,452.064 100.336,449.348 C97.584,439.384 98.768,434.988 101.832,433.472 C104.888,431.948 111.912,436.9 116.376,441.54 C120.844,446.192 131.808,456.52 136.808,460.424 C140.608,463.4 153.132,477.536 153.736,494.684 L153.48,504.456 L162.588,545.308 L173.66,590.868 L180.328,585.2 C180.328,585.2 190.992,589.868 199.66,599.868 C212.26,614.4 212.328,618.868 212.328,618.868 C212.328,618.868 190.52,649.684 182.108,653.86 C173.692,658.036 156.496,657.144 151.924,653.484 C147.344,649.824 144.164,641.14 144.164,641.14 L129.872,565.92" fill="#F8D2B5"/>
    </g>
    <path d="M311.272,454.568 L269.112,470.204 C269.112,470.204 235.408,473.176 218.936,496.02 C207.336,512.104 169.996,574.032 169.996,574.032 L171.496,580.032 L177.744,582.032 C177.744,582.032 222.904,510.436 236.704,495.192 C245.684,485.272 309.232,468.512 309.232,468.512 L311.272,454.568" fill="#FFFFFE"/>
    <path d="M364.492,455.532 L366.088,468.336 C366.088,468.336 402.18,477.248 435.388,487.984 C460.636,496.144 464.076,514.696 472.164,521.344 C472.164,521.344 472.244,487.784 439.744,475.784 C430.26,472.284 364.492,455.532 364.492,455.532" fill="#FFFFFE"/>
    <g>
      <path d="M201.928,278.52 C201.928,278.52 193.848,262.844 178.652,267.592 C146.952,277.5 157.116,346.216 209.5,352.144" fill="#F8D2B5"/>
      <path d="M472.192,278.784 C472.192,278.784 480.272,263.108 495.472,267.86 C527.168,277.764 518.748,346.48 465.544,352.408" fill="#F8D2B5"/>
    </g>
    <path d="M470.892,263.72 C471.54,290.288 471.156,332.672 459.664,367.072 C438.164,431.432 369.56,446.02 336.992,446.02 C304.428,446.02 235.828,431.432 214.324,367.072 C202.176,330.712 201.764,285.412 203.332,259.344 C203.332,259.344 202.676,239.276 227.924,221.276 C252.148,204.004 331.312,194.3 357.508,182.276 C403.276,161.276 408.424,136.276 408.424,136.276 C408.424,136.276 468.924,183.276 470.892,263.72" fill="#F8D2B5"/>
    <path d="M301.464,289.584 C301.464,309.448 289.12,325.552 273.896,325.552 C258.668,325.552 246.32,309.448 246.32,289.584 C246.32,269.72 258.668,253.616 273.896,253.616 C289.12,253.616 301.464,269.72 301.464,289.584" fill="#FFFFFE"/>
    <path d="M429.148,289.584 C429.148,309.448 416.804,325.552 401.576,325.552 C386.348,325.552 374.004,309.448 374.004,289.584 C374.004,269.72 386.348,253.616 401.576,253.616 C416.804,253.616 429.148,269.72 429.148,289.584" fill="#FFFFFE"/>
    <path d="M297.164,294.776 C297.164,308.308 289.556,319.276 280.164,319.276 C270.78,319.276 263.168,308.308 263.168,294.776 C263.168,281.244 270.78,270.276 280.164,270.276 C289.556,270.276 297.164,281.244 297.164,294.776" fill="#1A1919"/>
    <path d="M377.824,294.776 C377.824,308.308 385.436,319.276 394.824,319.276 C404.216,319.276 411.828,308.308 411.828,294.776 C411.828,281.244 404.216,270.276 394.824,270.276 C385.436,270.276 377.824,281.244 377.824,294.776" fill="#1A1919"/>
    <path d="M337.824,423.572 C295.824,423.572 292.824,374.572 292.324,363.572 C292.324,363.572 336.992,377.572 381.66,363.572 C381.16,374.572 378.16,423.572 336.16,423.572" fill="#DE716E"/>
    <path d="M258.576,329.604 C258.576,335.82 248.092,340.86 235.16,340.86 C222.224,340.86 211.736,335.82 211.736,329.604 C211.736,323.384 222.224,318.344 235.16,318.344 C248.092,318.344 258.576,323.384 258.576,329.604" fill="#EC9896"/>
    <path d="M462.476,329.604 C462.476,335.82 451.988,340.86 439.052,340.86 C426.116,340.86 415.632,335.82 415.632,329.604 C415.632,323.384 426.116,318.344 439.052,318.344 C451.988,318.344 462.476,323.384 462.476,329.604" fill="#EC9896"/>
    <path d="M296.868,286.572 C296.868,289.344 294.62,291.592 291.844,291.592 C289.072,291.592 286.824,289.344 286.824,286.572 C286.824,283.796 289.072,281.548 291.844,281.548 C294.62,281.548 296.868,283.796 296.868,286.572" fill="#FFFFFE"/>
    <path d="M410.512,286.572 C410.512,289.344 408.264,291.592 405.492,291.592 C402.716,291.592 400.468,289.344 400.468,286.572 C400.468,283.796 402.716,281.548 405.492,281.548 C408.264,281.548 410.512,283.796 410.512,286.572" fill="#FFFFFE"/>
    <path d="M205.66,333.94 L203.324,306.94 C203.324,306.94 196.756,290.196 186.66,287.608 C173.66,284.276 173.396,306.644 182.324,319.276 C195.992,338.608 205.66,333.94 205.66,333.94" fill="#CF957E"/>
    <path d="M470.328,333.94 L472.664,306.94 C472.664,306.94 479.232,290.196 489.328,287.608 C502.328,284.276 502.592,306.644 493.664,319.276 C480,338.608 470.328,333.94 470.328,333.94" fill="#CF957E"/>
    <path d="M334.396,380.236 C350.196,380.236 364.32,387.62 373.76,399.212 C380.456,385.196 381.404,369.276 381.66,363.572 C336.992,377.572 292.324,363.572 292.324,363.572 C292.564,368.752 293.356,382.376 298.524,395.34 C307.796,386.008 320.436,380.236 334.396,380.236" fill="#C15A4A"/>
    <path d="M276.324,262.428 C282.712,262.428 288.8,263.588 294.416,265.624 C289.364,258.272 282.056,253.616 273.896,253.616 C264.676,253.616 256.544,259.536 251.536,268.596 C258.844,264.692 267.296,262.428 276.324,262.428" fill="#D2E0EB"/>
    <path d="M399.324,262.428 C392.936,262.428 386.848,263.588 381.236,265.624 C386.284,258.272 393.592,253.616 401.752,253.616 C410.972,253.616 419.104,259.536 424.112,268.596 C416.804,264.692 408.352,262.428 399.324,262.428" fill="#D2E0EB"/>
    <path d="M297.164,294.776 C297.164,308.308 289.556,319.276 280.164,319.276 C270.78,319.276 263.168,308.308 263.168,294.776 C263.168,281.244 270.78,270.276 280.164,270.276 C289.556,270.276 297.164,281.244 297.164,294.776" fill="#1A1919"/>
    <path d="M377.824,294.776 C377.824,308.308 385.436,319.276 394.824,319.276 C404.216,319.276 411.828,308.308 411.828,294.776 C411.828,281.244 404.216,270.276 394.824,270.276 C385.436,270.276 377.824,281.244 377.824,294.776" fill="#1A1919"/>
    <path d="M296.868,286.572 C296.868,289.344 294.62,291.592 291.844,291.592 C289.072,291.592 286.824,289.344 286.824,286.572 C286.824,283.796 289.072,281.548 291.844,281.548 C294.62,281.548 296.868,283.796 296.868,286.572" fill="#FFFFFE"/>
    <path d="M410.512,286.572 C410.512,289.344 408.264,291.592 405.492,291.592 C402.716,291.592 400.468,289.344 400.468,286.572 C400.468,283.796 402.716,281.548 405.492,281.548 C408.264,281.548 410.512,283.796 410.512,286.572" fill="#FFFFFE"/>
    <path d="M331.744,487.532 L340.992,487.284 L366.744,521.032 C366.744,521.032 330.244,511.532 304.992,521.532 L331.744,487.532" fill="#B5CCE0"/>
    <path d="M307.932,462.716 C307.932,462.716 306.66,451.484 310.2,448.824 C313.744,446.16 318.424,447.12 318.424,447.12 C318.424,447.12 319.288,456.464 316.588,458.596 C313.888,460.728 307.932,462.716 307.932,462.716" fill="#BCACAE"/>
    <path d="M366.352,462.716 C366.352,462.716 367.628,451.484 364.084,448.824 C360.54,446.16 355.86,447.12 355.86,447.12 C355.86,447.12 354.996,456.464 357.696,458.596 C360.396,460.728 366.352,462.716 366.352,462.716" fill="#BCACAE"/>
    <path d="M436.996,636.532 L478.996,623.868 L486.996,677.196 L446.996,677.196 L436.996,636.532" fill="#F8D2B5"/>
    <path d="M215.16,619.284 L209.16,627.784 C209.16,627.784 215.632,637.78 218.744,636.532 C226.244,633.532 215.16,619.284 215.16,619.284" fill="#B5CCE0"/>
    <path d="M436.996,636.532 L480.28,623.268 L481.844,638.932 L444.676,664.736 L436.996,636.532" fill="#CF957E"/>
    <path d="M213.02,619.112 L193.088,643.748 C193.088,643.748 206.956,614.472 195,597.464 C211.204,610.228 213.168,618.576 213.02,619.112" fill="#CF957E"/>
    <path d="M237.34,595.624 C237.34,595.624 224.196,619.232 218.6,622.64 L222.008,633.836 L240.264,611.444 L237.34,595.624" fill="#BFD2E2"/>
    <path d="M422.472,584.324 C422.472,585.572 421.452,586.592 420.2,586.592 L374.076,586.592 C372.824,586.592 371.808,585.572 371.808,584.324 L371.808,556.324 C371.808,555.072 372.824,554.052 374.076,554.052 L420.2,554.052 C421.452,554.052 422.472,555.072 422.472,556.324 L422.472,584.324" fill="#BFD2E2"/>
    <path d="M153.4,505.04 C153.4,505.04 167.96,575.416 179.796,608.032 M119.928,523.188 C119.928,523.188 135.548,598.664 141.764,634.104 C145.856,657.424 166.564,665.54 185.496,650.948 C193.064,645.124 201.312,635.108 213.492,618.032 M180.468,583.184 L175.244,589.284 M295.412,461.98 C285.328,465.488 268.372,470.04 259.324,472.208 C247.532,475.032 228.516,480.26 218.936,496.02 C214.136,503.924 169.996,573.032 169.996,573.032 M376.188,459.712 C393.856,465.212 423.964,471.776 431.744,473.784 C445.936,477.448 465.364,490.768 471.616,517.996 C476.332,538.532 496.496,617.032 496.496,617.032 L427.496,638.532 M232.948,537.88 C232.948,537.88 245.244,655.784 249.992,677.196 M440.324,536.312 C440.324,536.312 423.48,656.824 418.744,677.196 M437.996,636.532 L446.996,677.196 M317.9,445.352 C317.9,445.352 318.464,453.824 316.464,457.556 C315.2,459.908 308.316,462.948 308.316,462.948 M128.304,523.224 C128.304,523.224 95.416,527.088 51.756,498.92 C51.756,498.92 27.208,491.896 7.812,485.512 C-4.968,481.308 10.728,475.624 10.728,475.624 C10.728,475.624 3.436,472.184 3.664,467.924 C3.992,462.012 12.176,462.04 12.176,462.04 C12.176,462.04 10.332,457.3 14.82,453.62 C19.22,450.004 27.612,450.596 27.612,450.596 C27.612,450.596 25.92,444.752 30.516,442.12 C41.308,435.964 71.468,443.012 98.664,457.388 M150.14,511.9 C161.724,488.02 141.824,464.884 136.836,460.968 C131.848,457.048 120.916,446.688 116.464,442.028 C112.008,437.376 105,432.408 101.936,433.92 C98.868,435.432 97.672,439.824 100.4,449.792 C103.12,459.756 115.436,465.912 115.436,465.912 C115.436,465.912 111.516,491.108 126.776,498.848 M101.82,457.776 C101.82,457.776 74.248,463.916 54.504,490.496 M11.496,475.144 C11.496,475.144 31.136,473.34 55.916,484.552 M11.932,462.128 C11.932,462.128 37.376,459.12 70.588,473.088 M27.056,450.424 C27.616,450.368 56.732,449.328 82.524,465.768 M297.324,224.068 C286.824,216.068 260.324,212.068 245.828,229.568" fill-opacity="0" stroke="#1A1919" stroke-width="5.6" stroke-linecap="round" stroke-linejoin="round"/>
    <path d="M298.456,268.736 C286.88,244.348 238.404,244.236 245.324,301.776" fill-opacity="0" stroke="#1A1919" stroke-width="6.4" stroke-linecap="round" stroke-linejoin="round"/>
    <path d="M201.928,278.52 C201.928,278.52 193.848,262.844 178.652,267.592 C146.952,277.5 157.116,346.216 209.5,352.144 M179.216,286.12 C179.216,286.12 189.668,278.996 202.492,307.02 M470.892,263.72 C471.54,290.288 471.156,332.672 459.664,367.072 C438.164,431.432 369.56,446.02 336.992,446.02 C304.428,446.02 235.828,431.432 214.324,367.072 C202.176,330.712 201.764,285.412 203.332,259.344 C203.332,259.344 202.676,239.276 227.924,221.276 C252.148,204.004 331.312,194.3 357.508,182.276 C403.276,161.276 408.424,136.276 408.424,136.276 C408.424,136.276 468.924,183.276 470.892,263.72 z M375.824,224.068 C386.324,216.068 412.828,212.068 427.328,229.568" fill-opacity="0" stroke="#1A1919" stroke-width="5.6" stroke-linecap="round" stroke-linejoin="round"/>
    <g>
      <path d="M375.884,271.1 C385.34,244.408 437.132,242.436 429.992,301.776" fill-opacity="0" stroke="#1A1919" stroke-width="6.4" stroke-linecap="round" stroke-linejoin="round"/>
      <path d="M472.192,278.784 C472.192,278.784 480.272,263.108 495.472,267.86 C527.168,277.764 518.748,346.48 465.544,352.408 M494.6,286.384 C494.6,286.384 484.156,279.26 471.328,307.284 M235.828,284.776 L244.656,290.276 M430.664,290.276 L442.492,284.776 M336.992,348.068 L336.992,340.068 M167.992,274.684 C167.992,274.684 159.14,183.02 202.676,119.608 C271.576,19.276 408.576,49.276 427.328,91.276 C427.328,91.276 515.868,102.02 504.036,271.52 M337.824,423.572 C295.824,423.572 292.824,374.572 292.324,363.572 C292.324,363.572 336.992,377.572 381.66,363.572 C381.16,374.572 378.16,423.572 336.16,423.572 M179.424,339.776 C179.424,339.776 209.516,432.9 296.388,460.316 M493.996,341.2 C493.996,341.2 464.44,432.996 377.48,460.352 M308.46,449.924 C308.46,449.924 297.456,459.168 295.84,462.836 C294.944,464.876 279.584,514.212 299.344,522.588 C309.616,526.944 332.852,486.96 332.852,486.96 C332.852,486.96 299.948,481.62 308.46,449.924 C312.628,445.86 315.504,446.388 315.504,446.388 M355.564,445.352 C355.564,445.352 355.004,453.824 357.004,457.556 C358.264,459.908 365.152,462.948 365.152,462.948 M365.004,449.924 C365.004,449.924 376.008,459.168 377.624,462.836 C378.52,464.876 393.88,514.212 374.12,522.588 C363.848,526.944 340.612,486.96 340.612,486.96 C340.612,486.96 373.516,481.62 365.004,449.924 C360.84,445.86 357.964,446.388 357.964,446.388 M332.852,486.96 L341.492,486.96" fill-opacity="0" stroke="#1A1919" stroke-width="5.6" stroke-linecap="round" stroke-linejoin="round"/>
    </g>
    <path d="M344.168,512.736 C344.168,516.696 340.96,519.908 336.992,519.908 C333.036,519.908 329.824,516.696 329.824,512.736 C329.824,508.784 333.036,505.572 336.992,505.572 C340.96,505.572 344.168,508.784 344.168,512.736" fill="#FFFFFE"/>
    <path d="M344.168,512.736 C344.168,516.696 340.96,519.908 336.992,519.908 C333.036,519.908 329.824,516.696 329.824,512.736 C329.824,508.784 333.036,505.572 336.992,505.572 C340.96,505.572 344.168,508.784 344.168,512.736 z" fill-opacity="0" stroke="#1A1919" stroke-width="4.8" stroke-linecap="round" stroke-linejoin="round"/>
    <path d="M344.168,577.972 C344.168,581.924 340.96,585.136 336.992,585.136 C333.036,585.136 329.824,581.924 329.824,577.972 C329.824,574.012 333.036,570.8 336.992,570.8 C340.96,570.8 344.168,574.012 344.168,577.972" fill="#FFFFFE"/>
    <path d="M344.168,577.972 C344.168,581.924 340.96,585.136 336.992,585.136 C333.036,585.136 329.824,581.924 329.824,577.972 C329.824,574.012 333.036,570.8 336.992,570.8 C340.96,570.8 344.168,574.012 344.168,577.972 z" fill-opacity="0" stroke="#1A1919" stroke-width="4.8" stroke-linecap="round" stroke-linejoin="round"/>
    <path d="M344.168,643.196 C344.168,647.16 340.96,650.368 336.992,650.368 C333.036,650.368 329.824,647.16 329.824,643.196 C329.824,639.244 333.036,636.032 336.992,636.032 C340.96,636.032 344.168,639.244 344.168,643.196" fill="#FFFFFE"/>
    <g>
      <path d="M344.168,643.196 C344.168,647.16 340.96,650.368 336.992,650.368 C333.036,650.368 329.824,647.16 329.824,643.196 C329.824,639.244 333.036,636.032 336.992,636.032 C340.96,636.032 344.168,639.244 344.168,643.196 z" fill-opacity="0" stroke="#1A1919" stroke-width="4.8" stroke-linecap="round" stroke-linejoin="round"/>
      <path d="M479.468,623.532 L486.996,677.196 M171.244,579.284 C171.244,579.284 193.288,582.508 218.244,625.532 C221.86,631.772 222.768,636.144 222.768,636.144 M207.992,625.532 C207.992,625.532 217.36,642.128 222.768,636.144 C226.064,632.488 240.328,610.196 240.328,610.196" fill-opacity="0" stroke="#1A1919" stroke-width="5.6" stroke-linecap="round" stroke-linejoin="round"/>
    </g>
    <path d="M371.66,546.784 L422.328,546.784 L422.328,579.324 L371.66,579.324 z" fill="#FFFFFE"/>
    <path d="M371.66,546.784 L422.328,546.784 L422.328,579.324 L371.66,579.324 z" fill-opacity="0" stroke="#1A1919" stroke-width="5.6" stroke-linecap="round" stroke-linejoin="round"/>
  </g>
</svg>
