<?xml version="1.0" encoding="UTF-8"?>
<!DOCTYPE svg PUBLIC "-//W3C//DTD SVG 1.1//EN" "http://www.w3.org/Graphics/SVG/1.1/DTD/svg11.dtd">
<svg version="1.1" xmlns="http://www.w3.org/2000/svg" xmlns:xlink="http://www.w3.org/1999/xlink" x="0" y="0" width="1440" height="1824" viewBox="0, 0, 1440, 1824">
  <g id="Layer_1">
    <path d="M548.04,1071.324 C862.44,1013.304 895.812,644.364 895.812,644.364 C948.156,365.892 739.368,59.748 620.628,75.252 C587.772,19.188 464.256,-6.576 343.764,37.368 C223.284,81.3 -44.232,276.48 24.924,644.364 C24.924,644.364 70.44,1050.804 372.684,1071.324" fill="#73453C"/>
    <path d="M9.936,1815.6 C9.936,1815.6 1.944,1568.808 22.44,1434.804 C39.792,1321.308 57.18,1306.644 97.428,1282.56 C169.896,1239.216 338.94,1177.56 338.94,1177.56 C338.94,1177.56 370.44,1132.56 407.94,1120.56 L512.94,1116.06 C554.94,1128.06 581.184,1175.304 581.184,1175.304 C581.184,1175.304 742.092,1237.14 814.572,1280.484 C814.572,1280.484 851.196,1298.04 883.944,1346.808 C907.536,1381.944 972.552,1525.596 972.552,1525.596 L979.92,1496.484 C992.94,1426.668 1005.612,1357.008 1005.612,1357.008 C1005.612,1357.008 1028.352,1356.9 1041.708,1361.856 L1135.152,1413.708 C1135.152,1413.708 1163.028,1434.072 1159.692,1447.02 C1157.892,1453.98 1114.428,1663.044 1098.384,1707.024 C1080.096,1756.956 1063.644,1776.948 1011.948,1766.808 C945.492,1753.752 805.944,1568.808 805.944,1568.808 L797.208,1597.368 L761.94,1815.6 L9.936,1815.6" fill="#FFFFFE"/>
    <path d="M393.312,1165.188 L402.288,1159.248 C413.496,1141.248 417.264,1107.96 418.5,1090.74 L502.752,1089.948 C503.916,1106.916 507.624,1140.972 519.012,1159.248 L529.44,1166.304 L536.94,1231.8 C536.94,1231.8 495.936,1255.8 456.432,1255.8 C416.94,1255.8 380.94,1238.808 380.94,1238.808 C380.94,1238.808 385.188,1175.556 393.312,1165.188" fill="#F8D2B5"/>
    <path d="M414.12,1092.132 L509.064,1092.132 L509.064,1114.644 C509.064,1114.644 480.084,1158.504 405.96,1143.504 L414.12,1092.132" fill="#DB9D88"/>
    <path d="M380.952,1238.532 C380.952,1238.532 454.848,1275.036 535.8,1236.144 L541.116,1251.768 C546.948,1338.72 540.192,1481.628 469.44,1650.804 L463.008,1641.816 C390.504,1453.32 376.932,1326.696 379.452,1250.796 L380.952,1238.532" fill="#43BAC8"/>
    <path d="M10.44,1635.804 C10.164,1707.732 9.936,1815.6 9.936,1815.6 L761.94,1815.6 L803.94,1571.304 C635.94,1745.304 209.94,1775.304 10.44,1635.804" fill="#D7E2EC"/>
    <path d="M1029.684,1401.06 C1029.684,1401.06 1001.94,1365.06 1007.184,1360.56 C1012.44,1356.06 1046.94,1365.804 1046.94,1365.804 L1029.684,1401.06" fill="#D7E2EC"/>
    <path d="M1135.152,1413.708 L1125.684,1455.06 C1125.684,1455.06 1154.184,1458.06 1157.94,1450.56 C1161.684,1443.06 1153.62,1418.844 1135.152,1413.708" fill="#D7E2EC"/>
    <g>
      <path d="M581.184,1175.304 L670.44,1268.304 L605.316,1308.432 L670.86,1362.852 C670.86,1362.852 634.524,1522.536 485.94,1683.804" fill-opacity="0" stroke="#1A1919" stroke-width="12" stroke-linecap="round" stroke-linejoin="round"/>
      <path d="M9.936,1815.6 C9.936,1815.6 1.944,1568.808 22.44,1434.804 C39.792,1321.308 57.18,1306.644 97.428,1282.56 C169.896,1239.216 338.94,1177.56 338.94,1177.56 C338.94,1177.56 370.44,1132.56 407.94,1120.56" fill-opacity="0" stroke="#1A1919" stroke-width="16.8" stroke-linecap="round" stroke-linejoin="round"/>
      <path d="M117.936,1438.8 L170.94,1815.6 M819.948,1456.8 L761.94,1815.6 M527.94,1161.312 C527.94,1161.312 586.944,1369.812 469.44,1650.804" fill-opacity="0" stroke="#1A1919" stroke-width="14.4" stroke-linecap="round" stroke-linejoin="round"/>
      <path d="M338.94,1177.56 L253.224,1277.592 L323.928,1316.772 L258.336,1371.204 C258.336,1371.204 323.916,1607.04 516.36,1815.6" fill-opacity="0" stroke="#1A1919" stroke-width="12" stroke-linecap="round" stroke-linejoin="round"/>
      <path d="M972.552,1525.596 C972.552,1525.596 907.536,1381.944 883.944,1346.808 C851.196,1298.04 814.572,1280.484 814.572,1280.484 C742.092,1237.14 581.184,1175.304 581.184,1175.304 C581.184,1175.304 554.94,1128.06 512.94,1116.06" fill-opacity="0" stroke="#1A1919" stroke-width="16.8" stroke-linecap="round" stroke-linejoin="round"/>
      <path d="M394.44,1160.316 C394.44,1160.316 327.936,1304.808 472.44,1665.804 C499.908,1734.432 540.216,1815.6 540.216,1815.6" fill-opacity="0" stroke="#1A1919" stroke-width="14.4" stroke-linecap="round" stroke-linejoin="round"/>
      <path d="M1041.708,1361.856 C1028.352,1356.9 1005.612,1357.008 1005.612,1357.008 C1005.612,1357.008 968.052,1563.312 955.86,1621.752 M1135.152,1413.708 C1135.152,1413.708 1163.028,1434.072 1159.692,1447.02 C1157.892,1453.98 1114.428,1663.044 1098.384,1707.024 C1080.096,1756.956 1063.644,1776.948 1011.948,1766.808 C945.492,1753.752 805.944,1568.808 805.944,1568.808" fill-opacity="0" stroke="#1A1919" stroke-width="16.8" stroke-linecap="round" stroke-linejoin="round"/>
    </g>
    <path d="M988.044,1457.904 C988.044,1457.904 1001.256,1517.412 1093.908,1526.256" fill-opacity="0" stroke="#1A1919" stroke-width="14.4" stroke-linecap="round" stroke-linejoin="round"/>
    <g>
      <path d="M1121.976,1454.784 L1149.852,1355.208 C1149.852,1355.208 1216.284,1339.128 1309.116,1251.516 C1309.116,1251.516 1368.012,1212.372 1413.876,1186.992 C1444.032,1170.252 1398.924,1164.276 1398.924,1164.276 C1398.924,1164.276 1418.052,1160.976 1415.424,1150.344 C1411.764,1135.596 1386.408,1137.468 1386.408,1137.468 C1386.408,1137.468 1393.5,1126.776 1380.48,1119.66 C1367.604,1112.676 1346.796,1118.208 1346.796,1118.208 C1346.796,1118.208 1351.5,1106.04 1338.612,1101.636 C1308.516,1091.28 1221.012,1127.364 1169.892,1177.152 L1154.4,1178.448 C1157.772,1172.364 1159.668,1159.512 1160.232,1152.372 C1162.32,1125.888 1158.924,1119.24 1150.488,1116.936 C1142.016,1114.572 1127.796,1125.372 1118.82,1139.208 C1109.832,1153.044 1087.272,1184.46 1076.58,1196.688 C1068.432,1206.06 1039.788,1250.004 1046.628,1293.516 L1059.876,1336.38 L1033.692,1402.716 C1033.692,1402.716 1043.964,1415.976 1070.472,1432.308 C1096.992,1448.676 1121.976,1454.784 1121.976,1454.784" fill="#F8D2B5"/>
      <path d="M1129.32,1358.7 C1129.32,1358.7 1215.168,1350.588 1311.024,1255.068 C1311.024,1255.068 1368.564,1218.744 1410.12,1185.492 C1440.12,1161.492 1398.876,1161.492 1398.876,1161.492 C1398.876,1161.492 1419.48,1160.628 1416.588,1149.96 C1412.532,1134.984 1386.972,1137.42 1386.972,1137.42 C1386.972,1137.42 1393.812,1126.452 1380.384,1119.54 C1367.196,1112.736 1346.172,1118.808 1346.172,1118.808 C1346.172,1118.808 1350.504,1106.436 1337.376,1102.236 C1306.548,1092.42 1230.336,1123.428 1168.908,1174.872 L1152.876,1177.992 M1067.556,1341.756 C1025.028,1287.228 1063.092,1217.472 1073.652,1204.764 C1084.188,1192.092 1110.468,1159.548 1119.876,1145.736 C1131.12,1129.236 1139.16,1114.692 1147.764,1116.888 C1156.416,1119.048 1161.528,1125.24 1156.62,1151.736 C1152.876,1171.992 1130.82,1205.7 1130.82,1205.7 C1130.82,1205.7 1147.62,1243.248 1138.62,1278.492" fill-opacity="0" stroke="#1A1919" stroke-width="16.8" stroke-linecap="round" stroke-linejoin="round"/>
      <path d="M1172.376,1175.736 C1172.376,1175.736 1234.668,1178.16 1299.432,1235.112 M1399.62,1160.736 C1399.62,1160.736 1337.448,1178.76 1288.62,1219.992 M1387.62,1137.492 C1387.62,1137.492 1325.964,1145.844 1249.008,1199.532 M1347.456,1118.088 C1346.04,1118.244 1278.12,1126.992 1218.876,1183.992" fill-opacity="0" stroke="#1A1919" stroke-width="14.4" stroke-linecap="round" stroke-linejoin="round"/>
    </g>
    <path d="M1059.384,1333.836 C1059.384,1333.836 1052.088,1361.352 1034.448,1397.724" fill-opacity="0" stroke="#1A1919" stroke-width="19.2" stroke-linecap="round" stroke-linejoin="round"/>
    <path d="M1155.852,1354.752 C1155.852,1354.752 1131.192,1418.532 1122.54,1455.78 M1156.932,1450.692 C1156.932,1450.692 1153.104,1464.168 1119.264,1454.952 C1056.78,1437.864 1008.948,1384.056 1006.656,1363.932" fill-opacity="0" stroke="#1A1919" stroke-width="16.8" stroke-linecap="round" stroke-linejoin="round"/>
    <path d="M380.952,1238.532 C380.952,1238.532 454.848,1275.036 535.8,1236.144" fill-opacity="0" stroke="#1A1919" stroke-width="14.4" stroke-linecap="round" stroke-linejoin="round"/>
    <path d="M605.94,1455.804 L766.44,1455.804 L766.44,1577.304 L605.94,1577.304 z" fill="#FFFFFE"/>
    <path d="M605.94,1455.804 L766.44,1455.804 L766.44,1577.304 L605.94,1577.304 z" fill-opacity="0" stroke="#1A1919" stroke-width="14.4" stroke-linecap="round" stroke-linejoin="round"/>
    <g>
      <path d="M626.94,1476.804 L743.94,1476.804 L743.94,1496.304 L626.94,1496.304 z" fill="#B4B5B4"/>
      <path d="M366.492,94.368 C482.808,50.436 602.04,76.2 633.768,132.24 C664.08,113.592 797.676,185.88 860.136,341.112 C809.16,147.276 648.924,55.32 615.12,76.104 C583.416,20.04 464.172,-5.724 347.844,38.232 C231.528,82.164 -46.5,251.364 20.256,619.248 L29.94,640.248 C0.876,292.248 255.36,136.332 366.492,94.368" fill="#CA9F8D"/>
    </g>
    <path d="M224.448,138.396 C224.448,138.396 323.388,232.92 488.676,233.472 C488.676,233.472 535.62,246.48 450.996,251.664 C366.336,256.92 219.072,243.252 165.432,208.704 L224.448,138.396" fill="#CA9F8D"/>
    <path d="M113.232,661.704 C121.716,764.712 154.248,878.328 201.324,942.804 C271.848,1039.356 403.74,1093.74 460.632,1093.74 C517.524,1093.74 649.44,1039.356 719.94,942.804 C764.88,881.256 796.08,774.156 805.992,680.544 C713.148,545.508 613.464,326.748 621.228,252.24 C621.228,252.24 553.212,483.228 356.184,518.484 C356.184,518.484 487.644,429.24 490.644,318.252 C490.644,318.252 399.612,504.252 208.128,526.752 C208.128,526.752 307.62,412.752 300.132,339.24 C300.132,339.24 165.144,424.74 113.232,661.704" fill="#F8D2B5"/>
    <path d="M392.424,640.248 C392.424,687.576 357.048,725.964 313.428,725.964 C269.772,725.964 234.42,687.576 234.42,640.248 C234.42,592.896 269.772,554.532 313.428,554.532 C357.048,554.532 392.424,592.896 392.424,640.248" fill="#FFFFFE"/>
    <path d="M233.7,626.22 C233.7,626.22 242.016,571.932 298.512,556.872 C364.656,539.232 381.612,599.076 381.612,599.076 C381.612,599.076 347.172,576.132 306.156,585.504 C267.48,594.36 233.7,626.22 233.7,626.22" fill="#D8E9F1"/>
    <path d="M528.864,640.248 C528.864,687.576 564.228,725.964 607.86,725.964 C651.504,725.964 686.856,687.576 686.856,640.248 C686.856,592.896 651.504,554.532 607.86,554.532 C564.228,554.532 528.864,592.896 528.864,640.248" fill="#FFFFFE"/>
    <path d="M687.576,626.22 C687.576,626.22 679.272,571.932 622.752,556.872 C556.608,539.232 539.664,599.076 539.664,599.076 C539.664,599.076 574.092,576.132 615.12,585.504 C653.808,594.36 687.576,626.22 687.576,626.22" fill="#D8E9F1"/>
    <path d="M161.064,775.284 C161.064,793.164 189.624,807.648 224.856,807.648 C260.076,807.648 288.66,793.164 288.66,775.284 C288.66,757.416 260.076,742.944 224.856,742.944 C189.624,742.944 161.064,757.416 161.064,775.284" fill="#EB9294"/>
    <path d="M631.68,775.284 C631.68,793.164 660.24,807.648 695.472,807.648 C730.68,807.648 759.276,793.164 759.276,775.284 C759.276,757.416 730.68,742.944 695.472,742.944 C660.24,742.944 631.68,757.416 631.68,775.284" fill="#EB9294"/>
    <path d="M460.44,795.852 L460.44,778.02" fill-opacity="0" stroke="#1A1919" stroke-width="16.8" stroke-linecap="round" stroke-linejoin="round"/>
    <path d="M543.144,490.248 C543.144,490.248 621.228,433.248 670.38,502.008" fill-opacity="0" stroke="#1A1919" stroke-width="14.4" stroke-linecap="round" stroke-linejoin="round"/>
    <path d="M384.648,603.96 C384.648,603.96 363.876,534.024 298.992,550.452 C228.048,568.464 233.892,665.28 233.892,665.28" fill-opacity="0" stroke="#1A1919" stroke-width="16.8" stroke-linecap="round" stroke-linejoin="round"/>
    <path d="M231.264,639.576 L208.128,634.128" fill-opacity="0" stroke="#1A1919" stroke-width="14.4" stroke-linecap="round" stroke-linejoin="round"/>
    <path d="M536.628,603.96 C536.628,603.96 557.412,534.024 622.296,550.452 C693.228,568.464 687.396,665.28 687.396,665.28" fill-opacity="0" stroke="#1A1919" stroke-width="16.8" stroke-linecap="round" stroke-linejoin="round"/>
    <path d="M690.012,639.576 L713.148,634.128" fill-opacity="0" stroke="#1A1919" stroke-width="14.4" stroke-linecap="round" stroke-linejoin="round"/>
    <path d="M415.176,1090.74 C413.856,1107.96 409.8,1141.248 397.692,1159.248 M588.936,1053.312 C875.172,972.768 895.812,644.364 895.812,644.364 C948.156,365.892 739.368,59.748 620.628,75.252 C587.772,19.188 464.256,-6.576 343.764,37.368 C223.284,81.3 -44.232,276.48 24.924,644.364 C24.924,644.364 54.972,1006.416 344.94,1059.312 M506.04,1089.948 C507.288,1106.916 511.296,1140.972 523.572,1159.248" fill-opacity="0" stroke="#1A1919" stroke-width="16.8" stroke-linecap="round" stroke-linejoin="round"/>
    <path d="M371.904,646.392 C371.904,683.22 354.024,713.1 332.016,713.1 C309.984,713.1 292.092,683.22 292.092,646.392 C292.092,609.504 309.984,579.624 332.016,579.624 C354.024,579.624 371.904,609.504 371.904,646.392" fill="#1A1919"/>
    <path d="M370.344,621.504 C370.344,629.4 363.996,635.796 356.172,635.796 C348.348,635.796 342.024,629.4 342.024,621.504 C342.024,613.572 348.348,607.164 356.172,607.164 C363.996,607.164 370.344,613.572 370.344,621.504" fill="#FFFFFE"/>
    <path d="M549.396,646.392 C549.396,683.22 567.252,713.1 589.272,713.1 C611.316,713.1 629.184,683.22 629.184,646.392 C629.184,609.504 611.316,579.624 589.272,579.624 C567.252,579.624 549.396,609.504 549.396,646.392" fill="#1A1919"/>
    <path d="M627.624,621.504 C627.624,629.4 621.288,635.796 613.452,635.796 C605.64,635.796 599.304,629.4 599.304,621.504 C599.304,613.572 605.64,607.164 613.452,607.164 C621.288,607.164 627.624,613.572 627.624,621.504" fill="#FFFFFE"/>
    <path d="M113.232,661.704 C121.716,764.712 154.248,878.328 201.324,942.804 C271.848,1039.356 403.74,1093.74 460.632,1093.74 C517.524,1093.74 649.44,1039.356 719.94,942.804 C764.88,881.256 796.08,774.156 805.992,680.544 C713.148,554.532 613.464,326.748 621.228,252.24 C621.228,252.24 553.212,483.228 356.184,518.484 C356.184,518.484 487.644,429.24 490.644,318.252 C490.644,318.252 399.612,504.252 208.128,526.752 C208.128,526.752 307.62,412.752 300.132,339.24 C300.132,339.24 165.144,424.74 113.232,661.704 z" fill-opacity="0" stroke="#1A1919" stroke-width="16.8" stroke-linecap="round" stroke-linejoin="round"/>
    <path d="M361.02,847.812 C381.864,862.644 428.076,873.516 461.292,873.516 L460.632,873.516 C493.836,873.516 540.048,862.644 560.892,847.812 C560.892,847.812 528.84,1014.876 459.984,1014.876 C391.116,1014.876 361.02,847.812 361.02,847.812" fill="#DE737E"/>
    <path d="M386.268,932.052 C406.728,914.892 431.472,904.812 458.172,904.812 C486.768,904.812 513.06,916.464 534.3,935.916 C550.656,890.448 560.892,847.812 560.892,847.812 C561.984,847.62 494.124,861.636 460.944,861.708 C427.8,861.636 361.02,847.812 361.02,847.812 C361.02,847.812 370.692,888.048 386.268,932.052" fill="#C35953"/>
    <path d="M461.94,1015.764 C398.676,1015.764 361.02,847.812 361.02,847.812 C361.02,847.812 394.776,861.708 461.292,861.708 C527.808,861.708 560.892,847.812 560.892,847.812 C560.892,847.812 525.18,1015.764 461.94,1015.764 z" fill-opacity="0" stroke="#1A1919" stroke-width="14.4" stroke-linecap="round" stroke-linejoin="round"/>
    <path d="M433.14,653.928 C433.14,653.928 453.732,637.416 482.232,655.2" fill-opacity="0" stroke="#1A1919" stroke-width="12"/>
    <path d="M290.124,570.6 C210.504,570.6 145.98,608.868 145.98,656.064 C145.98,703.272 210.504,741.528 290.124,741.528 C369.72,741.528 434.256,703.272 434.256,656.064 C434.256,608.868 369.72,570.6 290.124,570.6 z M290.124,582.6 C361.74,582.6 422.244,616.248 422.244,656.064 C422.244,695.892 361.74,729.528 290.124,729.528 C218.496,729.528 157.98,695.892 157.98,656.064 C157.98,616.248 218.496,582.6 290.124,582.6" fill="#FFFFFE"/>
    <path d="M434.256,656.064 C434.256,703.272 369.72,741.528 290.124,741.528 C210.504,741.528 145.98,703.272 145.98,656.064 C145.98,608.868 210.504,570.6 290.124,570.6 C369.72,570.6 434.256,608.868 434.256,656.064 z" fill-opacity="0" stroke="#1A1919" stroke-width="12"/>
    <path d="M624.756,570.6 C545.16,570.6 480.624,608.868 480.624,656.064 C480.624,703.272 545.16,741.528 624.756,741.528 C704.376,741.528 768.9,703.272 768.9,656.064 C768.9,608.868 704.376,570.6 624.756,570.6 z M624.756,582.6 C696.384,582.6 756.9,616.248 756.9,656.064 C756.9,695.892 696.384,729.528 624.756,729.528 C553.128,729.528 492.624,695.892 492.624,656.064 C492.624,616.248 553.128,582.6 624.756,582.6" fill="#FFFFFE"/>
    <path d="M480.624,656.064 C480.624,703.272 545.16,741.528 624.756,741.528 C704.376,741.528 768.9,703.272 768.9,656.064 C768.9,608.868 704.376,570.6 624.756,570.6 C545.16,570.6 480.624,608.868 480.624,656.064 z" fill-opacity="0" stroke="#1A1919" stroke-width="12"/>
  </g>
</svg>
