<?xml version="1.0" encoding="UTF-8"?>
<!DOCTYPE svg PUBLIC "-//W3C//DTD SVG 1.1//EN" "http://www.w3.org/Graphics/SVG/1.1/DTD/svg11.dtd">
<svg version="1.1" xmlns="http://www.w3.org/2000/svg" xmlns:xlink="http://www.w3.org/1999/xlink" x="0" y="0" width="448" height="680" viewBox="0, 0, 448, 680">
  <g id="Layer_1">
    <path d="M443.824,170.532 C443.008,223.868 361.536,234.272 257.324,234.272 C153.112,234.272 73.884,229.42 73.884,170.532 C73.884,111.644 111.96,4.744 257.324,4.744 C402.688,4.744 443.824,111.644 443.824,170.532" fill="#F1F9FB"/>
    <path d="M257.324,170.668 C167.664,170.668 116.864,135.96 91.064,95.552 C79.008,120.2 73.884,147.968 73.884,170.532 C73.884,229.42 153.112,234.272 257.324,234.272 C361.536,234.272 443.344,221.532 443.824,170.532 C444.036,147.968 439.612,120.66 423.584,95.552 C397.78,135.96 346.98,170.668 257.324,170.668" fill="#BFD2E2"/>
    <path d="M89.6,207.512 C76.808,199.26 73.884,182.212 73.884,170.532 C73.884,111.644 113.136,3.568 258.5,3.568 C403.864,3.568 443.824,111.644 443.824,170.532 C443.824,181.328 436.444,200.244 424.636,206.148" fill-opacity="0" stroke="#1A1919" stroke-width="5.6" stroke-linecap="round" stroke-linejoin="round"/>
    <path d="M347.008,91.276 C328.256,49.276 191.256,19.276 122.36,119.608 C78.82,183.02 86.796,271.644 86.796,271.644 L106.86,341.276 L100.604,341.276 C100.604,341.276 136.924,439.236 216.924,461.488 L293.176,459.736 C373.424,439.988 408.804,358.82 412.676,344.988 L424.004,269.188 C435.836,99.688 347.008,91.276 347.008,91.276" fill="#744C45"/>
    <path d="M132.936,141.276 C229.604,11.276 410.94,117.944 423.604,197.276 C412.272,107.276 347.008,91.276 347.008,91.276 C328.256,49.276 191.256,19.276 122.36,119.608 C78.82,183.02 86.796,271.644 86.796,271.644 C86.796,271.644 98.608,277.692 98.272,277.944 C94.272,237.94 105.54,178.128 132.936,141.276" fill="#C99B88"/>
    <path d="M115.448,150.692 C118.544,165.276 210.3,171.716 233.552,165.372 C246.52,161.832 241.716,158.768 232.888,157.384 C157.388,145.548 142.676,114.2 142.676,114.2 L115.448,150.692" fill="#C99B88"/>
    <path d="M142.676,636.784 L158.676,614.2 L170.208,676.412 L338.94,676.412 C341.412,668.064 345.924,639.032 345.924,639.032 L415.676,616.032 C415.676,616.032 393.244,532.7 391.296,517.996 C387.488,489.152 365.368,477.696 351.176,474.032 C342.412,471.776 297.216,460.768 297.216,460.768 L280.052,446.16 L233.424,446.16 L214.596,461.296 C214.596,461.296 185.312,471 179.004,472.208 C167.096,474.504 144.572,483.196 138.616,496.02 C134.136,505.66 96.176,561.784 87.924,576.032 C87.924,576.032 128.864,631.596 132.424,634.784 C137.176,639.032 142.676,636.784 142.676,636.784" fill="#F1F9FB"/>
    <path d="M284.832,464.596 C284.832,464.596 277.944,461.556 276.684,459.204 C274.684,455.472 275.248,441.648 275.248,441.648 L237.584,441.648 C237.584,441.648 238.144,455.472 236.144,459.204 C234.884,461.556 227.996,464.596 227.996,464.596 C227.996,464.596 228.924,487.16 256.176,487.16 C283.424,487.16 284.612,465.532 284.832,464.596" fill="#F8D2B5"/>
    <path d="M237.552,430.964 L276.424,431.144 L277.708,456.896 C277.708,456.896 269.828,475.896 238.988,471.576 C228.196,470.064 227.612,462.716 227.612,462.716 L237.272,457.652 L237.552,430.964" fill="#CF957E"/>
    <path d="M257.808,619.364 C223.924,619.364 175.668,612.988 158.036,597.044 C161.252,618.56 168.232,669.292 169.676,677.196 L338.424,677.196 C340.464,670.316 348.256,619.04 351.464,597.604 C330.776,613.204 291.492,619.364 257.808,619.364" fill="#BFD2E2"/>
    <g>
      <path d="M73.416,494.684 L73.16,504.456 L82.268,545.308 L93.344,590.868 L100.012,585.2 C100.012,585.2 110.676,589.868 119.344,599.868 C131.94,614.4 132.012,618.868 132.012,618.868 C132.012,618.868 110.204,649.684 101.788,653.86 C93.376,658.036 76.18,657.144 71.604,653.484 C67.028,649.824 63.848,641.14 63.848,641.14 L49.556,565.92 C47.432,551.212 39.736,522.692 39.736,522.692" fill="#F8D2B5"/>
      <path d="M73.012,510.868 C87.012,498.868 92.536,480.352 90.832,471.304 C89.132,462.256 87.524,442.98 88.56,433.832 C89.588,424.676 81.844,427.968 74.608,439.704 C72.916,442.448 71.896,445.84 71.316,449.44 L71.624,447.764 C74.932,426.924 59.264,418.588 42.04,420.216 C24.816,421.848 14.68,437.2 14.68,437.2 L12.584,438.712 C6.028,444.376 5.748,453.456 5.748,453.456 L3.608,456.36 C-6.9,475.116 38.68,519.532 38.68,519.532 L46.012,560.2 C59.3,555.444 83.432,546.62 83.432,546.62 C78.68,532.532 73.012,510.868 73.012,510.868" fill="#F8D2B5"/>
    </g>
    <path d="M230.952,454.568 L188.792,470.204 C188.792,470.204 155.088,473.176 138.616,496.02 C127.02,512.104 89.676,574.032 89.676,574.032 L91.176,580.032 L97.424,582.032 C97.424,582.032 142.584,510.436 156.388,495.192 C165.368,485.272 228.916,468.512 228.916,468.512 L230.952,454.568" fill="#FFFFFE"/>
    <path d="M284.176,455.532 L285.768,468.336 C285.768,468.336 321.864,477.248 355.072,487.984 C380.316,496.144 383.756,514.696 391.844,521.344 C391.844,521.344 391.924,487.784 359.424,475.784 C349.94,472.284 284.176,455.532 284.176,455.532" fill="#FFFFFE"/>
    <g>
      <path d="M121.608,278.52 C121.608,278.52 113.532,262.844 98.332,267.592 C66.632,277.5 76.796,346.216 129.18,352.144" fill="#F8D2B5"/>
      <path d="M391.876,278.784 C391.876,278.784 399.952,263.108 415.152,267.86 C446.852,277.764 438.428,346.48 385.228,352.408" fill="#F8D2B5"/>
    </g>
    <path d="M390.576,263.72 C391.224,290.288 390.836,332.672 379.344,367.072 C357.844,431.432 289.244,446.02 256.676,446.02 C224.108,446.02 155.508,431.432 134.008,367.072 C121.86,330.712 121.444,285.412 123.016,259.344 C123.016,259.344 122.36,239.276 147.604,221.276 C171.828,204.004 250.992,194.3 277.192,182.276 C322.956,161.276 328.104,136.276 328.104,136.276 C328.104,136.276 388.604,183.276 390.576,263.72" fill="#F8D2B5"/>
    <path d="M221.144,289.584 C221.144,309.448 208.8,325.552 193.58,325.552 C178.352,325.552 166,309.448 166,289.584 C166,269.72 178.352,253.616 193.58,253.616 C208.8,253.616 221.144,269.72 221.144,289.584" fill="#FFFFFE"/>
    <path d="M348.828,289.584 C348.828,309.448 336.484,325.552 321.256,325.552 C306.032,325.552 293.684,309.448 293.684,289.584 C293.684,269.72 306.032,253.616 321.256,253.616 C336.484,253.616 348.828,269.72 348.828,289.584" fill="#FFFFFE"/>
    <path d="M216.848,294.776 C216.848,308.308 209.24,319.276 199.848,319.276 C190.46,319.276 182.852,308.308 182.852,294.776 C182.852,281.244 190.46,270.276 199.848,270.276 C209.24,270.276 216.848,281.244 216.848,294.776" fill="#1A1919"/>
    <path d="M297.508,294.776 C297.508,308.308 305.116,319.276 314.508,319.276 C323.9,319.276 331.508,308.308 331.508,294.776 C331.508,281.244 323.9,270.276 314.508,270.276 C305.116,270.276 297.508,281.244 297.508,294.776" fill="#1A1919"/>
    <path d="M178.256,329.604 C178.256,335.82 167.772,340.86 154.84,340.86 C141.908,340.86 131.416,335.82 131.416,329.604 C131.416,323.384 141.908,318.344 154.84,318.344 C167.772,318.344 178.256,323.384 178.256,329.604" fill="#EC9896"/>
    <path d="M382.156,329.604 C382.156,335.82 371.668,340.86 358.736,340.86 C345.796,340.86 335.312,335.82 335.312,329.604 C335.312,323.384 345.796,318.344 358.736,318.344 C371.668,318.344 382.156,323.384 382.156,329.604" fill="#EC9896"/>
    <path d="M216.552,286.572 C216.552,289.344 214.3,291.592 211.528,291.592 C208.752,291.592 206.508,289.344 206.508,286.572 C206.508,283.796 208.752,281.548 211.528,281.548 C214.3,281.548 216.552,283.796 216.552,286.572" fill="#FFFFFE"/>
    <path d="M330.196,286.572 C330.196,289.344 327.944,291.592 325.172,291.592 C322.4,291.592 320.148,289.344 320.148,286.572 C320.148,283.796 322.4,281.548 325.172,281.548 C327.944,281.548 330.196,283.796 330.196,286.572" fill="#FFFFFE"/>
    <path d="M125.344,333.94 L123.008,306.94 C123.008,306.94 116.436,290.196 106.344,287.608 C93.344,284.276 93.08,306.644 102.008,319.276 C115.672,338.608 125.344,333.94 125.344,333.94" fill="#CF957E"/>
    <path d="M390.008,333.94 L392.344,306.94 C392.344,306.94 398.916,290.196 409.008,287.608 C422.008,284.276 422.272,306.644 413.344,319.276 C399.68,338.608 390.008,333.94 390.008,333.94" fill="#CF957E"/>
    <path d="M196.004,262.428 C202.396,262.428 208.48,263.588 214.096,265.624 C209.048,258.272 201.74,253.616 193.58,253.616 C184.36,253.616 176.228,259.536 171.22,268.596 C178.528,264.692 186.976,262.428 196.004,262.428" fill="#D2E0EB"/>
    <path d="M319.004,262.428 C312.616,262.428 306.532,263.588 300.916,265.624 C305.964,258.272 313.272,253.616 321.432,253.616 C330.652,253.616 338.784,259.536 343.792,268.596 C336.484,264.692 328.036,262.428 319.004,262.428" fill="#D2E0EB"/>
    <path d="M216.848,294.776 C216.848,308.308 209.24,319.276 199.848,319.276 C190.46,319.276 182.852,308.308 182.852,294.776 C182.852,281.244 190.46,270.276 199.848,270.276 C209.24,270.276 216.848,281.244 216.848,294.776" fill="#1A1919"/>
    <path d="M297.508,294.776 C297.508,308.308 305.116,319.276 314.508,319.276 C323.9,319.276 331.508,308.308 331.508,294.776 C331.508,281.244 323.9,270.276 314.508,270.276 C305.116,270.276 297.508,281.244 297.508,294.776" fill="#1A1919"/>
    <path d="M216.552,286.572 C216.552,289.344 214.3,291.592 211.528,291.592 C208.752,291.592 206.508,289.344 206.508,286.572 C206.508,283.796 208.752,281.548 211.528,281.548 C214.3,281.548 216.552,283.796 216.552,286.572" fill="#FFFFFE"/>
    <path d="M330.196,286.572 C330.196,289.344 327.944,291.592 325.172,291.592 C322.4,291.592 320.148,289.344 320.148,286.572 C320.148,283.796 322.4,281.548 325.172,281.548 C327.944,281.548 330.196,283.796 330.196,286.572" fill="#FFFFFE"/>
    <path d="M251.424,487.532 L260.676,487.284 L286.424,521.032 C286.424,521.032 249.924,511.532 224.676,521.532 L251.424,487.532" fill="#B5CCE0"/>
    <path d="M227.612,462.716 C227.612,462.716 226.34,451.484 229.884,448.824 C233.424,446.16 238.104,447.12 238.104,447.12 C238.104,447.12 238.968,456.464 236.268,458.596 C233.572,460.728 227.612,462.716 227.612,462.716" fill="#BCACAE"/>
    <path d="M286.036,462.716 C286.036,462.716 287.308,451.484 283.764,448.824 C280.224,446.16 275.544,447.12 275.544,447.12 C275.544,447.12 274.68,456.464 277.38,458.596 C280.08,460.728 286.036,462.716 286.036,462.716" fill="#BCACAE"/>
    <path d="M356.676,636.532 L398.676,623.868 L406.676,677.196 L366.676,677.196 L356.676,636.532" fill="#F8D2B5"/>
    <path d="M134.84,619.284 L128.84,627.784 C128.84,627.784 135.312,637.78 138.424,636.532 C145.924,633.532 134.84,619.284 134.84,619.284" fill="#B5CCE0"/>
    <path d="M356.676,636.532 L399.96,623.268 L401.528,638.932 L364.36,664.736 L356.676,636.532" fill="#CF957E"/>
    <path d="M132.704,619.112 L112.768,643.748 C112.768,643.748 124.464,621.236 111.196,592.228 C127.4,604.996 132.852,618.576 132.704,619.112" fill="#CF957E"/>
    <path d="M157.024,595.624 C157.024,595.624 143.88,619.232 138.28,622.64 L141.692,633.836 L159.944,611.444 L157.024,595.624" fill="#BFD2E2"/>
    <path d="M342.152,584.324 C342.152,585.572 341.132,586.592 339.884,586.592 L293.756,586.592 C292.508,586.592 291.488,585.572 291.488,584.324 L291.488,556.324 C291.488,555.072 292.508,554.052 293.756,554.052 L339.884,554.052 C341.132,554.052 342.152,555.072 342.152,556.324 L342.152,584.324" fill="#BFD2E2"/>
    <path d="M256.676,348.068 L256.676,340.068" fill-opacity="0" stroke="#1A1919" stroke-width="5.6" stroke-linecap="round" stroke-linejoin="round"/>
    <path d="M301.624,371.58 C295.6,380.956 281.736,397.68 257.624,397.68 C233.516,397.68 219.648,380.956 213.612,371.58" fill-opacity="0" stroke="#1A1919" stroke-width="6.4" stroke-linecap="round" stroke-linejoin="round"/>
    <path d="M264.852,512.736 C264.852,516.696 261.64,519.908 257.676,519.908 C253.72,519.908 250.508,516.696 250.508,512.736 C250.508,508.784 253.72,505.572 257.676,505.572 C261.64,505.572 264.852,508.784 264.852,512.736" fill="#FFFFFE"/>
    <path d="M264.852,512.736 C264.852,516.696 261.64,519.908 257.676,519.908 C253.72,519.908 250.508,516.696 250.508,512.736 C250.508,508.784 253.72,505.572 257.676,505.572 C261.64,505.572 264.852,508.784 264.852,512.736 z" fill-opacity="0" stroke="#1A1919" stroke-width="4.8" stroke-linecap="round" stroke-linejoin="round"/>
    <path d="M264.852,577.972 C264.852,581.924 261.64,585.136 257.676,585.136 C253.72,585.136 250.508,581.924 250.508,577.972 C250.508,574.012 253.72,570.8 257.676,570.8 C261.64,570.8 264.852,574.012 264.852,577.972" fill="#FFFFFE"/>
    <path d="M264.852,577.972 C264.852,581.924 261.64,585.136 257.676,585.136 C253.72,585.136 250.508,581.924 250.508,577.972 C250.508,574.012 253.72,570.8 257.676,570.8 C261.64,570.8 264.852,574.012 264.852,577.972 z" fill-opacity="0" stroke="#1A1919" stroke-width="4.8" stroke-linecap="round" stroke-linejoin="round"/>
    <path d="M264.852,643.196 C264.852,647.16 261.64,650.368 257.676,650.368 C253.72,650.368 250.508,647.16 250.508,643.196 C250.508,639.244 253.72,636.032 257.676,636.032 C261.64,636.032 264.852,639.244 264.852,643.196" fill="#FFFFFE"/>
    <path d="M264.852,643.196 C264.852,647.16 261.64,650.368 257.676,650.368 C253.72,650.368 250.508,647.16 250.508,643.196 C250.508,639.244 253.72,636.032 257.676,636.032 C261.64,636.032 264.852,639.244 264.852,643.196 z" fill-opacity="0" stroke="#1A1919" stroke-width="4.8" stroke-linecap="round" stroke-linejoin="round"/>
    <path d="M73.664,512.22 C73.664,512.22 87.64,575.416 99.476,608.032 M37.676,518.032 C37.676,518.032 53.796,597.76 60.012,633.2 C64.104,656.52 86.224,664.04 105.156,649.448 C112.724,643.62 120.076,635.108 132.256,618.032 M100.148,583.184 L94.924,589.284 M215.092,461.98 C205.012,465.488 188.056,470.04 179.004,472.208 C167.216,475.032 148.2,480.26 138.616,496.02 C133.816,503.924 89.676,573.032 89.676,573.032 M295.872,459.712 C313.54,465.212 343.644,471.776 351.424,473.784 C365.616,477.448 385.048,490.768 391.296,517.996 C396.012,538.532 416.176,617.032 416.176,617.032 L347.176,638.532 M152.628,537.88 C152.628,537.88 164.924,655.784 169.676,677.196 M360.004,536.312 C360.004,536.312 343.16,656.824 338.424,677.196 M357.676,636.532 L366.676,677.196 M237.584,445.352 C237.584,445.352 238.144,453.824 236.144,457.556 C234.884,459.908 227.996,462.948 227.996,462.948 M217.008,224.068 C206.508,216.068 180.008,212.068 165.508,229.568" fill-opacity="0" stroke="#1A1919" stroke-width="5.6" stroke-linecap="round" stroke-linejoin="round"/>
    <path d="M218.136,268.736 C206.564,244.348 158.084,244.236 165.008,301.776" fill-opacity="0" stroke="#1A1919" stroke-width="6.4" stroke-linecap="round" stroke-linejoin="round"/>
    <path d="M121.608,278.52 C121.608,278.52 113.532,262.844 98.332,267.592 C66.632,277.5 76.796,346.216 129.18,352.144 M98.9,286.12 C98.9,286.12 109.352,278.996 122.176,307.02 M390.576,263.72 C391.224,290.288 390.836,332.672 379.344,367.072 C357.844,431.432 289.244,446.02 256.676,446.02 C224.108,446.02 155.508,431.432 134.008,367.072 C121.86,330.712 121.444,285.412 123.016,259.344 C123.016,259.344 122.36,239.276 147.604,221.276 C171.828,204.004 250.992,194.3 277.192,182.276 C322.956,161.276 328.104,136.276 328.104,136.276 C328.104,136.276 388.604,183.276 390.576,263.72 z M295.508,224.068 C306.008,216.068 332.508,212.068 347.008,229.568" fill-opacity="0" stroke="#1A1919" stroke-width="5.6" stroke-linecap="round" stroke-linejoin="round"/>
    <g>
      <path d="M295.568,271.1 C305.024,244.408 356.812,242.436 349.672,301.776" fill-opacity="0" stroke="#1A1919" stroke-width="6.4" stroke-linecap="round" stroke-linejoin="round"/>
      <path d="M391.876,278.784 C391.876,278.784 399.952,263.108 415.152,267.86 C446.852,277.764 438.428,346.48 385.228,352.408 M414.28,286.384 C414.28,286.384 403.836,279.26 391.008,307.284 M155.508,284.776 L164.336,290.276 M350.344,290.276 L362.172,284.776 M87.672,274.684 C87.672,274.684 78.82,183.02 122.36,119.608 C191.256,19.276 328.256,49.276 347.008,91.276 C347.008,91.276 435.552,102.02 423.72,271.52 M99.104,339.776 C99.104,339.776 129.2,432.9 216.072,460.316 M413.676,341.2 C413.676,341.2 384.12,432.996 297.16,460.352 M228.14,449.924 C228.14,449.924 217.136,459.168 215.524,462.836 C214.624,464.876 199.264,514.212 219.028,522.588 C229.296,526.944 252.536,486.96 252.536,486.96 C252.536,486.96 219.628,481.62 228.14,449.924 C232.308,445.86 235.184,446.388 235.184,446.388 M275.248,445.352 C275.248,445.352 274.684,453.824 276.684,457.556 C277.944,459.908 284.832,462.948 284.832,462.948 M284.688,449.924 C284.688,449.924 295.692,459.168 297.304,462.836 C298.204,464.876 313.564,514.212 293.8,522.588 C283.532,526.944 260.292,486.96 260.292,486.96 C260.292,486.96 293.2,481.62 284.688,449.924 C280.52,445.86 277.644,446.388 277.644,446.388 M252.536,486.96 L261.176,486.96 M399.148,623.532 L406.676,677.196 M90.924,579.284 C90.924,579.284 112.968,582.508 137.924,625.532 C141.544,631.772 142.448,636.144 142.448,636.144 M127.676,625.532 C127.676,625.532 137.044,642.128 142.448,636.144 C145.748,632.488 160.012,610.196 160.012,610.196" fill-opacity="0" stroke="#1A1919" stroke-width="5.6" stroke-linecap="round" stroke-linejoin="round"/>
    </g>
    <path d="M291.344,546.784 L342.008,546.784 L342.008,579.324 L291.344,579.324 z" fill="#FFFFFE"/>
    <path d="M291.344,546.784 L342.008,546.784 L342.008,579.324 L291.344,579.324 z" fill-opacity="0" stroke="#1A1919" stroke-width="5.6" stroke-linecap="round" stroke-linejoin="round"/>
    <g>
      <path d="M28.424,423.54 C28.424,423.54 13.884,380.788 6.984,366.284 C0.092,351.784 8.132,343.52 15.844,348.58 C23.54,353.644 30.612,361.072 34.844,379.128 C39.08,397.192 41.808,418.512 41.808,418.512 L28.424,423.54" fill="#F8D4B3"/>
      <path d="M44.676,522.868 C32.012,516.532 -9.288,470.268 6.248,452.26 C19.2,437.244 50.6,439.448 53.744,447.824 C56.776,455.912 57.584,473.564 48.364,476.732 C39.144,479.908 27.584,481.78 29.34,473.756 C31.092,465.744 42.16,462.028 42.16,462.028 M6.692,451.764 C6.692,451.764 7.088,438.432 18.596,434.004 C30.1,429.564 51.752,427.524 59.028,434.004 C64.336,438.736 74.072,460.988 56.232,470.104 M73.244,473.632 C73.244,473.632 68.304,449.76 75.544,438.012 C82.784,426.276 90.992,425.524 89.96,434.684 C88.924,443.836 86.84,455.752 89.7,468.752 C91.68,477.744 89.184,498.928 71.76,512.24 M69.74,461.992 C69.74,461.992 57.596,471.352 59.68,495.284 M15.62,435.508 C15.62,435.508 25.752,420.152 42.98,418.524 C60.204,416.892 75.876,425.228 72.564,446.068 M28.424,423.54 C28.424,423.54 13.884,380.788 6.984,366.284 C0.092,351.784 8.132,343.52 15.844,348.58 C23.54,353.644 30.612,361.072 34.844,379.128 C39.08,397.192 41.808,418.512 41.808,418.512 M22.916,465.46 C22.916,465.46 37.14,466.152 42.688,461.3" fill-opacity="0" stroke="#1A1919" stroke-width="5.6" stroke-linecap="round" stroke-linejoin="round"/>
    </g>
  </g>
</svg>
