<?xml version="1.0" encoding="UTF-8"?>
<!DOCTYPE svg PUBLIC "-//W3C//DTD SVG 1.1//EN" "http://www.w3.org/Graphics/SVG/1.1/DTD/svg11.dtd">
<svg version="1.1" xmlns="http://www.w3.org/2000/svg" xmlns:xlink="http://www.w3.org/1999/xlink" x="0" y="0" width="1440" height="1980" viewBox="0, 0, 1440, 1980">
  <g id="Layer_1">
    <path d="M897.432,1072.44 C1211.82,1014.42 1245.204,645.48 1245.204,645.48 C1297.548,367.008 1088.76,60.864 970.02,76.368 C937.164,20.304 813.648,-5.46 693.156,38.484 C572.676,82.416 305.16,277.596 374.304,645.48 C374.304,645.48 419.82,1051.92 722.076,1072.44" fill="#73453C"/>
    <path d="M1261.5,1651.884 C1260.48,1578.852 1257.024,1496.04 1247.82,1435.92 C1230.456,1322.424 1213.08,1307.76 1172.832,1283.676 C1100.352,1240.332 931.32,1178.676 931.32,1178.676 C931.32,1178.676 899.82,1133.676 862.32,1121.676 L757.32,1117.176 C715.32,1129.176 689.076,1176.42 689.076,1176.42 C689.076,1176.42 528.168,1238.256 455.688,1281.6 C455.688,1281.6 419.064,1299.156 386.316,1347.924 C362.724,1383.06 297.708,1526.712 297.708,1526.712 L290.34,1497.6 C277.32,1427.784 264.648,1358.124 264.648,1358.124 C264.648,1358.124 241.908,1358.016 228.552,1362.972 L135.108,1414.824 C135.108,1414.824 107.244,1435.188 110.568,1448.136 C112.368,1455.096 155.832,1664.16 171.876,1708.14 C190.164,1758.072 206.616,1778.064 258.312,1767.924 C324.768,1754.868 464.316,1569.924 464.316,1569.924 L473.052,1598.484 L508.32,1816.716 L1108.248,1816.716 L1261.5,1651.884" fill="#FFFFFE"/>
    <path d="M742.704,1166.304 L751.68,1160.376 C762.888,1142.376 766.656,1109.076 767.88,1091.868 L852.144,1091.064 C853.296,1108.032 857.016,1142.088 868.404,1160.376 L878.82,1167.42 L886.32,1232.916 C886.32,1232.916 845.316,1256.916 805.812,1256.916 C766.32,1256.916 730.32,1239.924 730.32,1239.924 C730.32,1239.924 734.568,1176.672 742.704,1166.304" fill="#F8D2B5"/>
    <path d="M763.512,1093.248 L858.456,1093.248 L858.456,1115.76 C858.456,1115.76 829.476,1159.62 755.34,1144.62 L763.512,1093.248" fill="#DB9D88"/>
    <path d="M730.344,1239.648 C730.344,1239.648 804.24,1276.152 885.192,1237.26 L890.508,1252.884 C896.328,1339.836 889.584,1482.744 818.82,1651.92 L812.4,1642.932 C739.884,1454.436 726.312,1327.812 728.832,1251.912 L730.344,1239.648" fill="#43BAC8"/>
    <path d="M499.92,1740.288 L540.24,1972.812 L1079.412,1972.812 L1142.844,1613.484 C1008.768,1766.616 705.78,1820.808 499.92,1740.288" fill="#D7E2EC"/>
    <path d="M240.576,1402.176 C240.576,1402.176 268.32,1366.176 263.076,1361.676 C257.82,1357.176 227.796,1365.048 227.796,1365.048 L240.576,1402.176" fill="#D7E2EC"/>
    <path d="M135.108,1414.824 L144.576,1456.176 C144.576,1456.176 116.076,1459.176 112.32,1451.676 C108.576,1444.176 116.64,1419.96 135.108,1414.824" fill="#D7E2EC"/>
    <path d="M98.124,1084.488 C98.124,1084.488 55.668,959.628 35.496,917.304 C15.36,874.944 34.164,852.636 55.74,868.74 C70.272,879.564 93.9,899.748 107.028,955.788 C119.4,1008.516 137.196,1069.812 137.196,1069.812 L98.124,1084.488" fill="#F8D2B5"/>
    <g>
      <path d="M97.044,1084.224 C97.044,1084.224 54.06,959.604 34.452,917.064 C11.556,867.288 33.696,853.32 55.74,868.74 C74.82,882.096 89.664,896.952 107.028,955.788 C122.376,1007.724 136.14,1069.536 136.14,1069.536" fill-opacity="0" stroke="#1A1919" stroke-width="16.8" stroke-linecap="round" stroke-linejoin="round"/>
      <path d="M219.06,1310.592 C219.06,1310.592 223.812,1354.404 234.012,1389.336 L238.344,1401.732 C229.536,1418.376 191.772,1436.292 169.932,1446.612 C160.344,1451.136 148.704,1450.572 144.552,1449.948 L141.684,1433.016 C133.128,1396.728 132.12,1361.832 123.432,1342.26 C95.628,1313.124 -13.248,1183.596 12.696,1147.62 L17.244,1141.896 C17.244,1141.896 18.012,1115.184 37.416,1098.624 L43.32,1094.436 C43.32,1094.436 72.18,1058.304 122.472,1053.528 C172.764,1048.752 219.264,1064.412 209.616,1125.276 L218.316,1101.744 C239.424,1067.46 257.46,1061.544 254.4,1088.28 C251.4,1115.04 247.98,1153.068 252.936,1179.468 C257.916,1205.952 249.9,1270.968 207.276,1318.5" fill="#F8D2B5"/>
    </g>
    <path d="M203.268,1141.416 C203.268,1141.416 174.672,1188.168 149.244,1196.652 C149.244,1196.652 140.64,1211.94 101.448,1217.088 C101.448,1217.088 164.916,1249.644 171.588,1272.696 C171.588,1272.696 160.536,1202.892 208.116,1185.048 L203.268,1141.416" fill="#D39985"/>
    <path d="M144.552,1449.948 C146.688,1461.96 143.748,1384.152 126.768,1347.816 C95.604,1315.74 -19.896,1183.596 14.844,1143.072 C53.844,1108.32 144,1110.852 153.6,1130.076 C164.868,1152.684 160.656,1199.628 133.752,1208.892 C106.8,1218.156 73.812,1224.072 82.344,1205.892 C92.544,1184.16 114.948,1169.676 114.948,1169.676 C114.948,1169.676 87.9,1181.868 60.54,1179 M16.2,1141.632 C16.2,1141.632 17.304,1102.692 50.952,1089.732 C76.908,1080.36 140.4,1077.696 169.02,1089.732 C184.512,1103.58 205.752,1176.444 153.216,1195.176 M206.472,1191.096 C206.472,1191.096 202.512,1130.352 215.844,1098.912 C228.78,1068.432 256.392,1061.28 253.392,1088.04 C250.356,1114.752 246.948,1152.768 251.892,1179.192 C256.86,1205.604 244.788,1264.896 211.812,1308.696 M203.244,1179.684 C203.244,1179.684 171.78,1200.792 171.78,1269.18 M42.264,1094.136 C42.264,1094.136 72.756,1062.696 122.472,1053.528 C172.656,1044.228 218.208,1064.112 208.56,1124.964 M218.016,1304.7 C218.016,1304.7 225.252,1360.512 235.512,1395.42 M180.108,1172.556 C180.108,1172.556 200.196,1163.46 205.956,1149.54" fill-opacity="0" stroke="#1A1919" stroke-width="16.8" stroke-linecap="round" stroke-linejoin="round"/>
    <path d="M930.576,1176.42 L1019.82,1269.42 L954.708,1309.548 L1020.252,1363.968 C1020.252,1363.968 983.916,1523.652 835.32,1684.92" fill-opacity="0" stroke="#1A1919" stroke-width="12" stroke-linecap="round" stroke-linejoin="round"/>
    <g>
      <path d="M1172.832,1283.676 C1100.352,1240.332 931.32,1178.676 931.32,1178.676 C931.32,1178.676 899.82,1133.676 862.32,1121.676" fill-opacity="0" stroke="#1A1919" stroke-width="16.8" stroke-linecap="round" stroke-linejoin="round"/>
      <path d="M450.312,1457.916 L540.24,1972.812 M1169.328,1457.916 L1079.412,1972.812 M877.32,1162.428 C877.32,1162.428 936.324,1370.928 818.82,1651.92" fill-opacity="0" stroke="#1A1919" stroke-width="14.4" stroke-linecap="round" stroke-linejoin="round"/>
    </g>
    <path d="M688.32,1178.676 L602.616,1278.708 L673.308,1317.888 L607.728,1372.32 C607.728,1372.32 653.592,1558.056 846.036,1766.616" fill-opacity="0" stroke="#1A1919" stroke-width="12" stroke-linecap="round" stroke-linejoin="round"/>
    <g>
      <path d="M297.708,1526.712 C297.708,1526.712 362.724,1383.06 386.316,1347.924 C419.064,1299.156 455.688,1281.6 455.688,1281.6 C528.168,1238.256 689.076,1176.42 689.076,1176.42 C689.076,1176.42 715.32,1129.176 757.32,1117.176" fill-opacity="0" stroke="#1A1919" stroke-width="16.8" stroke-linecap="round" stroke-linejoin="round"/>
      <path d="M743.82,1161.432 C743.82,1161.432 679.164,1305.204 821.82,1666.92 C833.232,1695.852 849.264,1730.46 865.932,1764.408 L865.932,1972.812" fill-opacity="0" stroke="#1A1919" stroke-width="14.4" stroke-linecap="round" stroke-linejoin="round"/>
    </g>
    <path d="M231.756,1361.928 C245.124,1356.972 264.648,1358.124 264.648,1358.124 C264.648,1358.124 302.208,1564.428 314.4,1622.868 M135.108,1414.824 C135.108,1414.824 107.244,1435.188 110.568,1448.136 C112.368,1455.096 155.832,1664.16 171.876,1708.14 C190.164,1758.072 206.616,1778.064 258.312,1767.924 C324.768,1754.868 464.316,1569.924 464.316,1569.924" fill-opacity="0" stroke="#1A1919" stroke-width="16.8" stroke-linecap="round" stroke-linejoin="round"/>
    <path d="M282.216,1459.02 C282.216,1459.02 269.004,1518.528 176.352,1527.372 M730.344,1239.648 C730.344,1239.648 804.24,1276.152 885.192,1237.26" fill-opacity="0" stroke="#1A1919" stroke-width="14.4" stroke-linecap="round" stroke-linejoin="round"/>
    <path d="M955.32,1456.92 L1115.82,1456.92 L1115.82,1578.42 L955.32,1578.42 z" fill="#FFFFFE"/>
    <path d="M955.32,1456.92 L1115.82,1456.92 L1115.82,1578.42 L955.32,1578.42 z" fill-opacity="0" stroke="#1A1919" stroke-width="14.4" stroke-linecap="round" stroke-linejoin="round"/>
    <path d="M976.32,1477.92 L1093.32,1477.92 L1093.32,1497.42 L976.32,1497.42 z" fill="#B4B5B4"/>
    <g>
      <path d="M113.328,1451.808 C113.328,1451.808 117.156,1465.284 150.996,1456.068 C213.48,1438.98 261.312,1385.172 263.604,1365.048" fill-opacity="0" stroke="#1A1919" stroke-width="16.8" stroke-linecap="round" stroke-linejoin="round"/>
      <path d="M843.828,1932.12 C843.828,1939.272 838.032,1945.068 830.868,1945.068 C823.728,1945.068 817.92,1939.272 817.92,1932.12 C817.92,1924.956 823.728,1919.16 830.868,1919.16 C838.032,1919.16 843.828,1924.956 843.828,1932.12 z M843.828,1799.124 C843.828,1806.276 838.032,1812.072 830.868,1812.072 C823.728,1812.072 817.92,1806.276 817.92,1799.124 C817.92,1791.96 823.728,1786.164 830.868,1786.164 C838.032,1786.164 843.828,1791.96 843.828,1799.124 z" fill-opacity="0" stroke="#1A1919" stroke-width="12" stroke-linecap="round" stroke-linejoin="round"/>
      <path d="M715.872,95.484 C832.2,51.552 951.432,77.316 983.16,133.356 C1013.472,114.708 1147.068,186.996 1209.528,342.228 C1158.552,148.392 998.304,56.436 964.512,77.22 C932.796,21.156 813.564,-4.608 697.236,39.348 C580.92,83.28 302.892,252.48 369.648,620.376 L379.32,641.376 C350.268,293.364 604.752,137.448 715.872,95.484" fill="#CA9F8D"/>
    </g>
    <path d="M573.828,139.512 C573.828,139.512 672.768,234.036 838.068,234.588 C838.068,234.588 885.012,247.596 800.376,252.78 C715.728,258.036 568.464,244.368 514.812,209.82 L573.828,139.512" fill="#CA9F8D"/>
    <path d="M462.624,662.82 C471.108,765.828 503.64,879.444 550.716,943.92 C621.24,1040.472 753.132,1094.868 810.024,1094.868 C866.904,1094.868 998.82,1040.472 1069.32,943.92 C1114.26,882.384 1145.472,775.272 1155.384,681.66 C1062.54,546.636 962.844,327.864 970.62,253.368 C970.62,253.368 902.604,484.344 705.576,519.6 C705.576,519.6 837.036,430.368 840.036,319.368 C840.036,319.368 749.004,505.368 557.52,527.868 C557.52,527.868 657.012,413.868 649.524,340.368 C649.524,340.368 514.536,425.868 462.624,662.82" fill="#F8D2B5"/>
    <path d="M741.804,641.376 C741.804,688.692 706.44,727.08 662.808,727.08 C619.164,727.08 583.8,688.692 583.8,641.376 C583.8,594.012 619.164,555.648 662.808,555.648 C706.44,555.648 741.804,594.012 741.804,641.376" fill="#FFFFFE"/>
    <path d="M583.092,627.336 C583.092,627.336 591.396,573.048 647.904,557.988 C714.048,540.348 731.004,600.192 731.004,600.192 C731.004,600.192 696.564,577.248 655.548,586.632 C616.86,595.476 583.092,627.336 583.092,627.336" fill="#D8E9F1"/>
    <path d="M878.244,641.376 C878.244,688.692 913.62,727.08 957.252,727.08 C1000.896,727.08 1036.248,688.692 1036.248,641.376 C1036.248,594.012 1000.896,555.648 957.252,555.648 C913.62,555.648 878.244,594.012 878.244,641.376" fill="#FFFFFE"/>
    <path d="M1036.968,627.336 C1036.968,627.336 1028.664,573.048 972.144,557.988 C906,540.348 889.056,600.192 889.056,600.192 C889.056,600.192 923.484,577.248 964.512,586.632 C1003.2,595.476 1036.968,627.336 1036.968,627.336" fill="#D8E9F1"/>
    <path d="M510.456,776.4 C510.456,794.28 539.016,808.764 574.248,808.764 C609.468,808.764 638.052,794.28 638.052,776.4 C638.052,758.532 609.468,744.06 574.248,744.06 C539.016,744.06 510.456,758.532 510.456,776.4" fill="#EB9294"/>
    <path d="M981.072,776.4 C981.072,794.28 1009.632,808.764 1044.852,808.764 C1080.072,808.764 1108.668,794.28 1108.668,776.4 C1108.668,758.532 1080.072,744.06 1044.852,744.06 C1009.632,744.06 981.072,758.532 981.072,776.4" fill="#EB9294"/>
    <path d="M809.82,796.968 L809.82,779.136" fill-opacity="0" stroke="#1A1919" stroke-width="16.8" stroke-linecap="round" stroke-linejoin="round"/>
    <path d="M892.536,491.364 C892.536,491.364 970.62,434.364 1019.76,503.124" fill-opacity="0" stroke="#1A1919" stroke-width="14.4" stroke-linecap="round" stroke-linejoin="round"/>
    <path d="M734.04,605.076 C734.04,605.076 713.256,535.14 648.372,551.568 C577.44,569.58 583.272,666.396 583.272,666.396" fill-opacity="0" stroke="#1A1919" stroke-width="16.8" stroke-linecap="round" stroke-linejoin="round"/>
    <path d="M580.656,640.692 L557.52,635.244" fill-opacity="0" stroke="#1A1919" stroke-width="14.4" stroke-linecap="round" stroke-linejoin="round"/>
    <path d="M886.02,605.076 C886.02,605.076 906.792,535.14 971.688,551.568 C1042.62,569.58 1036.776,666.396 1036.776,666.396" fill-opacity="0" stroke="#1A1919" stroke-width="16.8" stroke-linecap="round" stroke-linejoin="round"/>
    <path d="M1039.404,640.692 L1062.54,635.244" fill-opacity="0" stroke="#1A1919" stroke-width="14.4" stroke-linecap="round" stroke-linejoin="round"/>
    <path d="M764.568,1091.868 C763.248,1109.076 759.192,1142.376 747.084,1160.376 M938.316,1054.428 C1224.564,973.884 1245.204,645.48 1245.204,645.48 C1297.548,367.008 1088.76,60.864 970.02,76.368 C937.164,20.304 813.648,-5.46 693.156,38.484 C572.676,82.416 305.16,277.596 374.304,645.48 C374.304,645.48 404.352,1007.532 694.32,1060.428 M855.432,1091.064 C856.68,1108.032 860.688,1142.088 872.964,1160.376" fill-opacity="0" stroke="#1A1919" stroke-width="16.8" stroke-linecap="round" stroke-linejoin="round"/>
    <path d="M721.284,647.508 C721.284,684.336 703.416,714.216 681.396,714.216 C659.364,714.216 641.484,684.336 641.484,647.508 C641.484,610.62 659.364,580.74 681.396,580.74 C703.416,580.74 721.284,610.62 721.284,647.508" fill="#1A1919"/>
    <path d="M719.736,622.62 C719.736,630.516 713.388,636.912 705.564,636.912 C697.74,636.912 691.404,630.516 691.404,622.62 C691.404,614.688 697.74,608.28 705.564,608.28 C713.388,608.28 719.736,614.688 719.736,622.62" fill="#FFFFFE"/>
    <path d="M898.776,647.508 C898.776,684.336 916.644,714.216 938.664,714.216 C960.708,714.216 978.576,684.336 978.576,647.508 C978.576,610.62 960.708,580.74 938.664,580.74 C916.644,580.74 898.776,610.62 898.776,647.508" fill="#1A1919"/>
    <path d="M977.016,622.62 C977.016,630.516 970.68,636.912 962.832,636.912 C955.032,636.912 948.696,630.516 948.696,622.62 C948.696,614.688 955.032,608.28 962.832,608.28 C970.68,608.28 977.016,614.688 977.016,622.62" fill="#FFFFFE"/>
    <path d="M462.624,662.82 C471.108,765.828 503.64,879.444 550.716,943.92 C621.24,1040.472 753.132,1094.868 810.024,1094.868 C866.904,1094.868 998.82,1040.472 1069.32,943.92 C1114.26,882.384 1145.472,775.272 1155.384,681.66 C1062.54,555.648 962.844,327.864 970.62,253.368 C970.62,253.368 902.604,484.344 705.576,519.6 C705.576,519.6 837.036,430.368 840.036,319.368 C840.036,319.368 749.004,505.368 557.52,527.868 C557.52,527.868 657.012,413.868 649.524,340.368 C649.524,340.368 514.536,425.868 462.624,662.82 z" fill-opacity="0" stroke="#1A1919" stroke-width="16.8" stroke-linecap="round" stroke-linejoin="round"/>
    <path d="M782.52,655.044 C782.52,655.044 803.124,638.532 831.624,656.316" fill-opacity="0" stroke="#1A1919" stroke-width="12"/>
    <path d="M639.504,571.716 C559.884,571.716 495.36,609.984 495.36,657.18 C495.36,704.388 559.884,742.644 639.504,742.644 C719.1,742.644 783.648,704.388 783.648,657.18 C783.648,609.984 719.1,571.716 639.504,571.716 z M639.504,583.716 C711.132,583.716 771.648,617.364 771.648,657.18 C771.648,697.008 711.132,730.644 639.504,730.644 C567.876,730.644 507.36,697.008 507.36,657.18 C507.36,617.364 567.876,583.716 639.504,583.716" fill="#FFFFFE"/>
    <path d="M783.648,657.18 C783.648,704.388 719.1,742.644 639.504,742.644 C559.884,742.644 495.36,704.388 495.36,657.18 C495.36,609.984 559.884,571.716 639.504,571.716 C719.1,571.716 783.648,609.984 783.648,657.18 z" fill-opacity="0" stroke="#1A1919" stroke-width="12"/>
    <path d="M974.148,571.716 C894.552,571.716 830.004,609.984 830.004,657.18 C830.004,704.388 894.552,742.644 974.148,742.644 C1053.756,742.644 1118.28,704.388 1118.28,657.18 C1118.28,609.984 1053.756,571.716 974.148,571.716 z M974.148,583.716 C1045.764,583.716 1106.28,617.364 1106.28,657.18 C1106.28,697.008 1045.764,730.644 974.148,730.644 C902.52,730.644 842.004,697.008 842.004,657.18 C842.004,617.364 902.52,583.716 974.148,583.716" fill="#FFFFFE"/>
    <path d="M830.004,657.18 C830.004,704.388 894.552,742.644 974.148,742.644 C1053.756,742.644 1118.28,704.388 1118.28,657.18 C1118.28,609.984 1053.756,571.716 974.148,571.716 C894.552,571.716 830.004,609.984 830.004,657.18 z" fill-opacity="0" stroke="#1A1919" stroke-width="12"/>
    <path d="M1047.108,1169.448 L695.424,1670.616 L1096.176,1931.328 L1430.7,1454.7 L1047.108,1169.448" fill="#9E9F9E"/>
    <path d="M1047.108,1169.448 L695.424,1670.616 L1096.176,1931.328 L1430.7,1454.7 L1047.108,1169.448 z" fill-opacity="0" stroke="#1A1919" stroke-width="16.8" stroke-linecap="round" stroke-linejoin="round"/>
    <path d="M1059.732,1468.452 L1117.224,1546.044 L1051.812,1626 L972.852,1529.232" fill="#F8D2B5"/>
    <path d="M1059.732,1468.452 L1117.224,1546.044 L1051.812,1626 L972.852,1529.232" fill-opacity="0" stroke="#1A1919" stroke-width="16.8" stroke-linecap="round" stroke-linejoin="round"/>
    <path d="M985.752,1541.34 C936.588,1529.304 879.6,1502.64 856.44,1466.244 C834.588,1431.888 839.196,1416.096 845.088,1402.992 C861.78,1365.876 860.748,1366.32 882.684,1329.276 C882.684,1329.276 880.104,1291.452 899.556,1280.52 C925.98,1265.676 940.488,1289.652 955.284,1307.148 C955.284,1307.148 956.856,1271.232 970.956,1259.652 C988.164,1245.468 988.44,1292.592 1022.496,1329.876 C1030.608,1338.756 1058.256,1363.008 1065.696,1396.836 C1072.56,1427.976 1063.212,1483.428 1063.212,1483.428" fill="#F8D2B5"/>
    <path d="M985.752,1541.34 C936.588,1529.304 879.6,1502.64 856.44,1466.244 C834.588,1431.888 839.196,1416.096 845.088,1402.992 C861.78,1365.876 860.748,1366.32 882.684,1329.276 C882.684,1329.276 880.104,1291.452 899.556,1280.52 C925.98,1265.676 940.488,1289.652 955.284,1307.148 C955.284,1307.148 956.856,1271.232 970.956,1259.652 C988.164,1245.468 988.44,1292.592 1022.496,1329.876 C1030.608,1338.756 1058.256,1363.008 1065.696,1396.836 C1072.56,1427.976 1063.212,1483.428 1063.212,1483.428" fill-opacity="0" stroke="#1A1919" stroke-width="16.8" stroke-linecap="round" stroke-linejoin="round"/>
    <path d="M950.856,1300.956 C950.856,1300.956 986.94,1347.504 1006.092,1375.128" fill="#F8D2B5"/>
    <path d="M950.856,1300.956 C950.856,1300.956 986.94,1347.504 1006.092,1375.128" fill-opacity="0" stroke="#1A1919" stroke-width="16.8" stroke-linecap="round" stroke-linejoin="round"/>
    <path d="M1090.32,1462.152 C1090.32,1462.152 1197.84,1599.216 1254.516,1652.088 C1304.46,1698.672 1321.812,1736.7 1307.82,1784.976 C1297.8,1819.476 1232.652,1867.524 1170.084,1807.74 C1116.012,1756.14 1008.036,1600.152 1008.036,1600.152 L1090.32,1462.152" fill="#FFFFFE"/>
    <path d="M1090.32,1462.152 C1090.32,1462.152 1197.84,1599.216 1254.516,1652.088 C1304.46,1698.672 1321.812,1736.7 1307.82,1784.976 C1297.8,1819.476 1232.652,1867.524 1170.084,1807.74 C1116.012,1756.14 1008.036,1600.152 1008.036,1600.152 L1090.32,1462.152 z" fill-opacity="0" stroke="#1A1919" stroke-width="16.8" stroke-linecap="round" stroke-linejoin="round"/>
    <path d="M1117.224,1546.044 L1050.864,1660.2" fill="#FFFFFE"/>
    <path d="M1117.224,1546.044 L1050.864,1660.2 M681.408,867.456 C681.408,867.456 726.336,943.92 808.248,943.92 C890.244,943.92 935.112,867.456 935.112,867.456" fill-opacity="0" stroke="#1A1919" stroke-width="16.8" stroke-linecap="round" stroke-linejoin="round"/>
  </g>
</svg>
