<svg width="388" height="683" xmlns="http://www.w3.org/2000/svg" xmlns:xlink="http://www.w3.org/1999/xlink" overflow="hidden"><defs><clipPath id="clip0"><rect x="820" y="-12" width="388" height="683"/></clipPath><clipPath id="clip1"><rect x="934" y="-12" width="273" height="680"/></clipPath><clipPath id="clip2"><rect x="934" y="-12" width="273" height="680"/></clipPath><clipPath id="clip3"><rect x="678" y="-12" width="529" height="680"/></clipPath><clipPath id="clip4"><rect x="826" y="446" width="113" height="224"/></clipPath><clipPath id="clip5"><rect x="826" y="446" width="113" height="224"/></clipPath><clipPath id="clip6"><rect x="826" y="-10" width="452" height="680"/></clipPath><clipPath id="clip7"><rect x="929" y="532" width="39" height="48"/></clipPath><clipPath id="clip8"><rect x="929" y="531" width="39" height="49"/></clipPath><clipPath id="clip9"><rect x="745" y="-22" width="446" height="682"/></clipPath><clipPath id="clip10"><rect x="820" y="-12" width="387" height="456"/></clipPath><clipPath id="clip11"><rect x="820" y="-12" width="387" height="456"/></clipPath><clipPath id="clip12"><rect x="679" y="-12" width="528" height="681"/></clipPath></defs><g clip-path="url(#clip0)" transform="translate(-820 12)"><g clip-path="url(#clip1)"><g clip-path="url(#clip2)"><g clip-path="url(#clip3)"><path d="M524.144 170.532C523.328 223.868 441.852 234.272 337.644 234.272 233.432 234.272 154.2 229.42 154.2 170.532 154.2 111.644 192.28 4.744 337.644 4.744 483.004 4.744 524.144 111.644 524.144 170.532" fill="#F1F9FB" transform="matrix(1.00017 0 0 1 678.913 -12)"/><path d="M337.644 170.668C247.984 170.668 197.18 135.96 171.38 95.552 159.324 120.2 154.2 147.968 154.2 170.532 154.2 229.42 233.432 234.272 337.644 234.272 441.852 234.272 523.664 221.532 524.144 170.532 524.352 147.968 519.932 120.66 503.9 95.552 478.1 135.96 427.3 170.668 337.644 170.668" fill="#BFD2E2" transform="matrix(1.00017 0 0 1 678.913 -12)"/><path d="M169.92 207.512C157.128 199.26 154.2 182.212 154.2 170.532 154.2 111.644 193.456 3.568 338.82 3.568 484.18 3.568 524.144 111.644 524.144 170.532 524.144 181.328 516.764 200.244 504.956 206.148" stroke="#1A1919" stroke-width="5.6" stroke-linecap="round" stroke-linejoin="round" fill="none" transform="matrix(1.00017 0 0 1 678.913 -12)"/><path d="M427.328 91.276C408.576 49.276 271.576 19.276 202.676 119.608 159.14 183.02 167.116 271.644 167.116 271.644L187.176 341.276 180.924 341.276C180.924 341.276 217.244 439.236 297.244 461.488L373.492 459.736C453.744 439.988 489.124 358.82 492.996 344.988L504.324 269.188C516.156 99.688 427.328 91.276 427.328 91.276" fill="#744C45" transform="matrix(1.00017 0 0 1 678.913 -12)"/><path d="M213.256 141.276C309.924 11.276 491.26 117.944 503.924 197.276 492.592 107.276 427.328 91.276 427.328 91.276 408.576 49.276 271.576 19.276 202.676 119.608 159.14 183.02 167.116 271.644 167.116 271.644 167.116 271.644 178.928 277.692 178.592 277.944 174.592 237.94 185.856 178.128 213.256 141.276" fill="#C99B88" transform="matrix(1.00017 0 0 1 678.913 -12)"/><path d="M195.768 150.692C198.86 165.276 290.62 171.716 313.868 165.372 326.836 161.832 322.032 158.768 313.204 157.384 237.704 145.548 222.992 114.2 222.992 114.2L195.768 150.692" fill="#C99B88" transform="matrix(1.00017 0 0 1 678.913 -12)"/><path d="M222.992 636.784 238.992 614.2 250.524 676.412 419.26 676.412C421.728 668.064 426.244 639.032 426.244 639.032L495.996 616.032C495.996 616.032 473.56 532.7 471.616 517.996 467.808 489.152 445.684 477.696 431.496 474.032 422.728 471.776 377.532 460.768 377.532 460.768L360.368 446.16 313.744 446.16 294.916 461.296C294.916 461.296 265.632 471 259.324 472.208 247.416 474.504 224.888 483.196 218.936 496.02 214.456 505.66 176.492 561.784 168.244 576.032 168.244 576.032 209.18 631.596 212.744 634.784 217.492 639.032 222.992 636.784 222.992 636.784" fill="#F1F9FB" transform="matrix(1.00017 0 0 1 678.913 -12)"/><path d="M365.152 464.596C365.152 464.596 358.264 461.556 357.004 459.204 355.004 455.472 355.564 441.648 355.564 441.648L317.9 441.648C317.9 441.648 318.464 455.472 316.464 459.204 315.2 461.556 308.316 464.596 308.316 464.596 308.316 464.596 309.244 487.16 336.492 487.16 363.744 487.16 364.932 465.532 365.152 464.596" fill="#F8D2B5" transform="matrix(1.00017 0 0 1 678.913 -12)"/><path d="M317.868 430.964 356.744 431.144 358.024 456.896C358.024 456.896 350.148 475.896 319.308 471.576 308.512 470.064 307.932 462.716 307.932 462.716L317.592 457.652 317.868 430.964" fill="#CF957E" transform="matrix(1.00017 0 0 1 678.913 -12)"/><path d="M338.128 619.364C304.24 619.364 255.988 612.988 238.352 597.044 241.568 618.56 248.548 669.292 249.992 677.196L418.744 677.196C420.784 670.316 428.576 619.04 431.784 597.604 411.096 613.204 371.812 619.364 338.128 619.364" fill="#BFD2E2" transform="matrix(1.00017 0 0 1 678.913 -12)"/><path d="M129.872 565.92C127.752 551.212 120.052 522.692 120.052 522.692 120.052 522.692 93.836 525.268 51.82 498.6 51.82 498.6 27.256 491.644 7.836 485.308-4.948 481.132 10.732 475.408 10.732 475.408 10.732 475.408 3.424 471.988 3.648 467.724 3.956 461.812 12.148 461.824 12.148 461.824 12.148 461.824 10.292 457.088 14.768 453.392 19.16 449.764 27.548 450.34 27.548 450.34 27.548 450.34 25.836 444.5 30.44 441.852 41.208 435.676 71.384 442.636 98.624 456.944L104.288 456.604C102.552 454.512 101.088 452.064 100.336 449.348 97.584 439.384 98.768 434.988 101.832 433.472 104.888 431.948 111.912 436.9 116.376 441.54 120.844 446.192 131.808 456.52 136.808 460.424 140.608 463.4 153.132 477.536 153.736 494.684L153.48 504.456 162.588 545.308 173.66 590.868 180.328 585.2C180.328 585.2 190.992 589.868 199.66 599.868 212.26 614.4 212.328 618.868 212.328 618.868 212.328 618.868 190.52 649.684 182.108 653.86 173.692 658.036 156.496 657.144 151.924 653.484 147.344 649.824 144.164 641.14 144.164 641.14L129.872 565.92" fill="#F8D2B5" transform="matrix(1.00017 0 0 1 678.913 -12)"/><path d="M311.272 454.568 269.112 470.204C269.112 470.204 235.408 473.176 218.936 496.02 207.336 512.104 169.996 574.032 169.996 574.032L171.496 580.032 177.744 582.032C177.744 582.032 222.904 510.436 236.704 495.192 245.684 485.272 309.232 468.512 309.232 468.512L311.272 454.568" fill="#FFFFFE" transform="matrix(1.00017 0 0 1 678.913 -12)"/><path d="M364.492 455.532 366.088 468.336C366.088 468.336 402.18 477.248 435.388 487.984 460.636 496.144 464.076 514.696 472.164 521.344 472.164 521.344 472.244 487.784 439.744 475.784 430.26 472.284 364.492 455.532 364.492 455.532" fill="#FFFFFE" transform="matrix(1.00017 0 0 1 678.913 -12)"/><path d="M201.928 278.52C201.928 278.52 193.848 262.844 178.652 267.592 146.952 277.5 157.116 346.216 209.5 352.144" fill="#F8D2B5" transform="matrix(1.00017 0 0 1 678.913 -12)"/><path d="M472.192 278.784C472.192 278.784 480.272 263.108 495.472 267.86 527.168 277.764 518.748 346.48 465.544 352.408" fill="#F8D2B5" transform="matrix(1.00017 0 0 1 678.913 -12)"/><path d="M470.892 263.72C471.54 290.288 471.156 332.672 459.664 367.072 438.164 431.432 369.56 446.02 336.992 446.02 304.428 446.02 235.828 431.432 214.324 367.072 202.176 330.712 201.764 285.412 203.332 259.344 203.332 259.344 202.676 239.276 227.924 221.276 252.148 204.004 331.312 194.3 357.508 182.276 403.276 161.276 408.424 136.276 408.424 136.276 408.424 136.276 468.924 183.276 470.892 263.72" fill="#F8D2B5" transform="matrix(1.00017 0 0 1 678.913 -12)"/><path d="M301.464 289.584C301.464 309.448 289.12 325.552 273.896 325.552 258.668 325.552 246.32 309.448 246.32 289.584 246.32 269.72 258.668 253.616 273.896 253.616 289.12 253.616 301.464 269.72 301.464 289.584" fill="#FFFFFE" transform="matrix(1.00017 0 0 1 678.913 -12)"/><path d="M429.148 289.584C429.148 309.448 416.804 325.552 401.576 325.552 386.348 325.552 374.004 309.448 374.004 289.584 374.004 269.72 386.348 253.616 401.576 253.616 416.804 253.616 429.148 269.72 429.148 289.584" fill="#FFFFFE" transform="matrix(1.00017 0 0 1 678.913 -12)"/><path d="M297.164 294.776C297.164 308.308 289.556 319.276 280.164 319.276 270.78 319.276 263.168 308.308 263.168 294.776 263.168 281.244 270.78 270.276 280.164 270.276 289.556 270.276 297.164 281.244 297.164 294.776" fill="#1A1919" transform="matrix(1.00017 0 0 1 678.913 -12)"/><path d="M377.824 294.776C377.824 308.308 385.436 319.276 394.824 319.276 404.216 319.276 411.828 308.308 411.828 294.776 411.828 281.244 404.216 270.276 394.824 270.276 385.436 270.276 377.824 281.244 377.824 294.776" fill="#1A1919" transform="matrix(1.00017 0 0 1 678.913 -12)"/><path d="M337.824 423.572C295.824 423.572 292.824 374.572 292.324 363.572 292.324 363.572 336.992 377.572 381.66 363.572 381.16 374.572 378.16 423.572 336.16 423.572" fill="#DE716E" transform="matrix(1.00017 0 0 1 678.913 -12)"/><path d="M258.576 329.604C258.576 335.82 248.092 340.86 235.16 340.86 222.224 340.86 211.736 335.82 211.736 329.604 211.736 323.384 222.224 318.344 235.16 318.344 248.092 318.344 258.576 323.384 258.576 329.604" fill="#EC9896" transform="matrix(1.00017 0 0 1 678.913 -12)"/><path d="M462.476 329.604C462.476 335.82 451.988 340.86 439.052 340.86 426.116 340.86 415.632 335.82 415.632 329.604 415.632 323.384 426.116 318.344 439.052 318.344 451.988 318.344 462.476 323.384 462.476 329.604" fill="#EC9896" transform="matrix(1.00017 0 0 1 678.913 -12)"/><path d="M296.868 286.572C296.868 289.344 294.62 291.592 291.844 291.592 289.072 291.592 286.824 289.344 286.824 286.572 286.824 283.796 289.072 281.548 291.844 281.548 294.62 281.548 296.868 283.796 296.868 286.572" fill="#FFFFFE" transform="matrix(1.00017 0 0 1 678.913 -12)"/><path d="M410.512 286.572C410.512 289.344 408.264 291.592 405.492 291.592 402.716 291.592 400.468 289.344 400.468 286.572 400.468 283.796 402.716 281.548 405.492 281.548 408.264 281.548 410.512 283.796 410.512 286.572" fill="#FFFFFE" transform="matrix(1.00017 0 0 1 678.913 -12)"/><path d="M205.66 333.94 203.324 306.94C203.324 306.94 196.756 290.196 186.66 287.608 173.66 284.276 173.396 306.644 182.324 319.276 195.992 338.608 205.66 333.94 205.66 333.94" fill="#CF957E" transform="matrix(1.00017 0 0 1 678.913 -12)"/><path d="M470.328 333.94 472.664 306.94C472.664 306.94 479.232 290.196 489.328 287.608 502.328 284.276 502.592 306.644 493.664 319.276 480 338.608 470.328 333.94 470.328 333.94" fill="#CF957E" transform="matrix(1.00017 0 0 1 678.913 -12)"/><path d="M334.396 380.236C350.196 380.236 364.32 387.62 373.76 399.212 380.456 385.196 381.404 369.276 381.66 363.572 336.992 377.572 292.324 363.572 292.324 363.572 292.564 368.752 293.356 382.376 298.524 395.34 307.796 386.008 320.436 380.236 334.396 380.236" fill="#C15A4A" transform="matrix(1.00017 0 0 1 678.913 -12)"/><path d="M276.324 262.428C282.712 262.428 288.8 263.588 294.416 265.624 289.364 258.272 282.056 253.616 273.896 253.616 264.676 253.616 256.544 259.536 251.536 268.596 258.844 264.692 267.296 262.428 276.324 262.428" fill="#D2E0EB" transform="matrix(1.00017 0 0 1 678.913 -12)"/><path d="M399.324 262.428C392.936 262.428 386.848 263.588 381.236 265.624 386.284 258.272 393.592 253.616 401.752 253.616 410.972 253.616 419.104 259.536 424.112 268.596 416.804 264.692 408.352 262.428 399.324 262.428" fill="#D2E0EB" transform="matrix(1.00017 0 0 1 678.913 -12)"/><path d="M297.164 294.776C297.164 308.308 289.556 319.276 280.164 319.276 270.78 319.276 263.168 308.308 263.168 294.776 263.168 281.244 270.78 270.276 280.164 270.276 289.556 270.276 297.164 281.244 297.164 294.776" fill="#1A1919" transform="matrix(1.00017 0 0 1 678.913 -12)"/><path d="M377.824 294.776C377.824 308.308 385.436 319.276 394.824 319.276 404.216 319.276 411.828 308.308 411.828 294.776 411.828 281.244 404.216 270.276 394.824 270.276 385.436 270.276 377.824 281.244 377.824 294.776" fill="#1A1919" transform="matrix(1.00017 0 0 1 678.913 -12)"/><path d="M296.868 286.572C296.868 289.344 294.62 291.592 291.844 291.592 289.072 291.592 286.824 289.344 286.824 286.572 286.824 283.796 289.072 281.548 291.844 281.548 294.62 281.548 296.868 283.796 296.868 286.572" fill="#FFFFFE" transform="matrix(1.00017 0 0 1 678.913 -12)"/><path d="M410.512 286.572C410.512 289.344 408.264 291.592 405.492 291.592 402.716 291.592 400.468 289.344 400.468 286.572 400.468 283.796 402.716 281.548 405.492 281.548 408.264 281.548 410.512 283.796 410.512 286.572" fill="#FFFFFE" transform="matrix(1.00017 0 0 1 678.913 -12)"/><path d="M331.744 487.532 340.992 487.284 366.744 521.032C366.744 521.032 330.244 511.532 304.992 521.532L331.744 487.532" fill="#B5CCE0" transform="matrix(1.00017 0 0 1 678.913 -12)"/><path d="M307.932 462.716C307.932 462.716 306.66 451.484 310.2 448.824 313.744 446.16 318.424 447.12 318.424 447.12 318.424 447.12 319.288 456.464 316.588 458.596 313.888 460.728 307.932 462.716 307.932 462.716" fill="#BCACAE" transform="matrix(1.00017 0 0 1 678.913 -12)"/><path d="M366.352 462.716C366.352 462.716 367.628 451.484 364.084 448.824 360.54 446.16 355.86 447.12 355.86 447.12 355.86 447.12 354.996 456.464 357.696 458.596 360.396 460.728 366.352 462.716 366.352 462.716" fill="#BCACAE" transform="matrix(1.00017 0 0 1 678.913 -12)"/><path d="M436.996 636.532 478.996 623.868 486.996 677.196 446.996 677.196 436.996 636.532" fill="#F8D2B5" transform="matrix(1.00017 0 0 1 678.913 -12)"/><path d="M215.16 619.284 209.16 627.784C209.16 627.784 215.632 637.78 218.744 636.532 226.244 633.532 215.16 619.284 215.16 619.284" fill="#B5CCE0" transform="matrix(1.00017 0 0 1 678.913 -12)"/><path d="M436.996 636.532 480.28 623.268 481.844 638.932 444.676 664.736 436.996 636.532" fill="#CF957E" transform="matrix(1.00017 0 0 1 678.913 -12)"/><path d="M213.02 619.112 193.088 643.748C193.088 643.748 206.956 614.472 195 597.464 211.204 610.228 213.168 618.576 213.02 619.112" fill="#CF957E" transform="matrix(1.00017 0 0 1 678.913 -12)"/><path d="M237.34 595.624C237.34 595.624 224.196 619.232 218.6 622.64L222.008 633.836 240.264 611.444 237.34 595.624" fill="#BFD2E2" transform="matrix(1.00017 0 0 1 678.913 -12)"/><path d="M422.472 584.324C422.472 585.572 421.452 586.592 420.2 586.592L374.076 586.592C372.824 586.592 371.808 585.572 371.808 584.324L371.808 556.324C371.808 555.072 372.824 554.052 374.076 554.052L420.2 554.052C421.452 554.052 422.472 555.072 422.472 556.324L422.472 584.324" fill="#BFD2E2" transform="matrix(1.00017 0 0 1 678.913 -12)"/><path d="M153.4 505.04C153.4 505.04 167.96 575.416 179.796 608.032M119.928 523.188C119.928 523.188 135.548 598.664 141.764 634.104 145.856 657.424 166.564 665.54 185.496 650.948 193.064 645.124 201.312 635.108 213.492 618.032M180.468 583.184 175.244 589.284M295.412 461.98C285.328 465.488 268.372 470.04 259.324 472.208 247.532 475.032 228.516 480.26 218.936 496.02 214.136 503.924 169.996 573.032 169.996 573.032M376.188 459.712C393.856 465.212 423.964 471.776 431.744 473.784 445.936 477.448 465.364 490.768 471.616 517.996 476.332 538.532 496.496 617.032 496.496 617.032L427.496 638.532M232.948 537.88C232.948 537.88 245.244 655.784 249.992 677.196M440.324 536.312C440.324 536.312 423.48 656.824 418.744 677.196M437.996 636.532 446.996 677.196M317.9 445.352C317.9 445.352 318.464 453.824 316.464 457.556 315.2 459.908 308.316 462.948 308.316 462.948M128.304 523.224C128.304 523.224 95.416 527.088 51.756 498.92 51.756 498.92 27.208 491.896 7.812 485.512-4.968 481.308 10.728 475.624 10.728 475.624 10.728 475.624 3.436 472.184 3.664 467.924 3.992 462.012 12.176 462.04 12.176 462.04 12.176 462.04 10.332 457.3 14.82 453.62 19.22 450.004 27.612 450.596 27.612 450.596 27.612 450.596 25.92 444.752 30.516 442.12 41.308 435.964 71.468 443.012 98.664 457.388M150.14 511.9C161.724 488.02 141.824 464.884 136.836 460.968 131.848 457.048 120.916 446.688 116.464 442.028 112.008 437.376 105 432.408 101.936 433.92 98.868 435.432 97.672 439.824 100.4 449.792 103.12 459.756 115.436 465.912 115.436 465.912 115.436 465.912 111.516 491.108 126.776 498.848M101.82 457.776C101.82 457.776 74.248 463.916 54.504 490.496M11.496 475.144C11.496 475.144 31.136 473.34 55.916 484.552M11.932 462.128C11.932 462.128 37.376 459.12 70.588 473.088M27.056 450.424C27.616 450.368 56.732 449.328 82.524 465.768M297.324 224.068C286.824 216.068 260.324 212.068 245.828 229.568" stroke="#1A1919" stroke-width="5.6" stroke-linecap="round" stroke-linejoin="round" fill="none" transform="matrix(1.00017 0 0 1 678.913 -12)"/><path d="M298.456 268.736C286.88 244.348 238.404 244.236 245.324 301.776" stroke="#1A1919" stroke-width="6.4" stroke-linecap="round" stroke-linejoin="round" fill="none" transform="matrix(1.00017 0 0 1 678.913 -12)"/><path d="M201.928 278.52C201.928 278.52 193.848 262.844 178.652 267.592 146.952 277.5 157.116 346.216 209.5 352.144M179.216 286.12C179.216 286.12 189.668 278.996 202.492 307.02M470.892 263.72C471.54 290.288 471.156 332.672 459.664 367.072 438.164 431.432 369.56 446.02 336.992 446.02 304.428 446.02 235.828 431.432 214.324 367.072 202.176 330.712 201.764 285.412 203.332 259.344 203.332 259.344 202.676 239.276 227.924 221.276 252.148 204.004 331.312 194.3 357.508 182.276 403.276 161.276 408.424 136.276 408.424 136.276 408.424 136.276 468.924 183.276 470.892 263.72ZM375.824 224.068C386.324 216.068 412.828 212.068 427.328 229.568" stroke="#1A1919" stroke-width="5.6" stroke-linecap="round" stroke-linejoin="round" fill="none" transform="matrix(1.00017 0 0 1 678.913 -12)"/><path d="M375.884 271.1C385.34 244.408 437.132 242.436 429.992 301.776" stroke="#1A1919" stroke-width="6.4" stroke-linecap="round" stroke-linejoin="round" fill="none" transform="matrix(1.00017 0 0 1 678.913 -12)"/><path d="M472.192 278.784C472.192 278.784 480.272 263.108 495.472 267.86 527.168 277.764 518.748 346.48 465.544 352.408M494.6 286.384C494.6 286.384 484.156 279.26 471.328 307.284M235.828 284.776 244.656 290.276M430.664 290.276 442.492 284.776M336.992 348.068 336.992 340.068M167.992 274.684C167.992 274.684 159.14 183.02 202.676 119.608 271.576 19.276 408.576 49.276 427.328 91.276 427.328 91.276 515.868 102.02 504.036 271.52M337.824 423.572C295.824 423.572 292.824 374.572 292.324 363.572 292.324 363.572 336.992 377.572 381.66 363.572 381.16 374.572 378.16 423.572 336.16 423.572M179.424 339.776C179.424 339.776 209.516 432.9 296.388 460.316M493.996 341.2C493.996 341.2 464.44 432.996 377.48 460.352M308.46 449.924C308.46 449.924 297.456 459.168 295.84 462.836 294.944 464.876 279.584 514.212 299.344 522.588 309.616 526.944 332.852 486.96 332.852 486.96 332.852 486.96 299.948 481.62 308.46 449.924 312.628 445.86 315.504 446.388 315.504 446.388M355.564 445.352C355.564 445.352 355.004 453.824 357.004 457.556 358.264 459.908 365.152 462.948 365.152 462.948M365.004 449.924C365.004 449.924 376.008 459.168 377.624 462.836 378.52 464.876 393.88 514.212 374.12 522.588 363.848 526.944 340.612 486.96 340.612 486.96 340.612 486.96 373.516 481.62 365.004 449.924 360.84 445.86 357.964 446.388 357.964 446.388M332.852 486.96 341.492 486.96" stroke="#1A1919" stroke-width="5.6" stroke-linecap="round" stroke-linejoin="round" fill="none" transform="matrix(1.00017 0 0 1 678.913 -12)"/><path d="M344.168 512.736C344.168 516.696 340.96 519.908 336.992 519.908 333.036 519.908 329.824 516.696 329.824 512.736 329.824 508.784 333.036 505.572 336.992 505.572 340.96 505.572 344.168 508.784 344.168 512.736" fill="#FFFFFE" transform="matrix(1.00017 0 0 1 678.913 -12)"/><path d="M344.168 512.736C344.168 516.696 340.96 519.908 336.992 519.908 333.036 519.908 329.824 516.696 329.824 512.736 329.824 508.784 333.036 505.572 336.992 505.572 340.96 505.572 344.168 508.784 344.168 512.736Z" stroke="#1A1919" stroke-width="4.8" stroke-linecap="round" stroke-linejoin="round" fill="none" transform="matrix(1.00017 0 0 1 678.913 -12)"/><path d="M344.168 577.972C344.168 581.924 340.96 585.136 336.992 585.136 333.036 585.136 329.824 581.924 329.824 577.972 329.824 574.012 333.036 570.8 336.992 570.8 340.96 570.8 344.168 574.012 344.168 577.972" fill="#FFFFFE" transform="matrix(1.00017 0 0 1 678.913 -12)"/><path d="M344.168 577.972C344.168 581.924 340.96 585.136 336.992 585.136 333.036 585.136 329.824 581.924 329.824 577.972 329.824 574.012 333.036 570.8 336.992 570.8 340.96 570.8 344.168 574.012 344.168 577.972Z" stroke="#1A1919" stroke-width="4.8" stroke-linecap="round" stroke-linejoin="round" fill="none" transform="matrix(1.00017 0 0 1 678.913 -12)"/><path d="M344.168 643.196C344.168 647.16 340.96 650.368 336.992 650.368 333.036 650.368 329.824 647.16 329.824 643.196 329.824 639.244 333.036 636.032 336.992 636.032 340.96 636.032 344.168 639.244 344.168 643.196" fill="#FFFFFE" transform="matrix(1.00017 0 0 1 678.913 -12)"/><path d="M344.168 643.196C344.168 647.16 340.96 650.368 336.992 650.368 333.036 650.368 329.824 647.16 329.824 643.196 329.824 639.244 333.036 636.032 336.992 636.032 340.96 636.032 344.168 639.244 344.168 643.196Z" stroke="#1A1919" stroke-width="4.8" stroke-linecap="round" stroke-linejoin="round" fill="none" transform="matrix(1.00017 0 0 1 678.913 -12)"/><path d="M479.468 623.532 486.996 677.196M171.244 579.284C171.244 579.284 193.288 582.508 218.244 625.532 221.86 631.772 222.768 636.144 222.768 636.144M207.992 625.532C207.992 625.532 217.36 642.128 222.768 636.144 226.064 632.488 240.328 610.196 240.328 610.196" stroke="#1A1919" stroke-width="5.6" stroke-linecap="round" stroke-linejoin="round" fill="none" transform="matrix(1.00017 0 0 1 678.913 -12)"/><path d="M371.66 546.784 422.328 546.784 422.328 579.324 371.66 579.324Z" fill="#FFFFFE" transform="matrix(1.00017 0 0 1 678.913 -12)"/><path d="M371.66 546.784 422.328 546.784 422.328 579.324 371.66 579.324Z" stroke="#1A1919" stroke-width="5.6" stroke-linecap="round" stroke-linejoin="round" fill="none" transform="matrix(1.00017 0 0 1 678.913 -12)"/></g></g></g><g clip-path="url(#clip4)"><g clip-path="url(#clip5)"><g clip-path="url(#clip6)"><path d="M443.221 170.3C442.406 223.564 361.045 233.954 256.974 233.954 152.904 233.954 73.7836 229.108 73.7836 170.3 73.7836 111.492 111.808 4.73755 256.974 4.73755 402.141 4.73755 443.221 111.492 443.221 170.3" fill="#F1F9FB" transform="matrix(-1.00913 0 0 1 1277.48 -9.07597)"/><path d="M256.974 170.436C167.436 170.436 116.705 135.775 90.9403 95.4222 78.9006 120.037 73.7836 147.767 73.7836 170.3 73.7836 229.108 152.904 233.954 256.974 233.954 361.045 233.954 442.742 221.231 443.221 170.3 443.433 147.767 439.015 120.496 423.008 95.4222 397.239 135.775 346.509 170.436 256.974 170.436" fill="#BFD2E2" transform="matrix(-1.00913 0 0 1 1277.48 -9.07597)"/><path d="M89.4782 207.23C76.7036 198.989 73.7836 181.964 73.7836 170.3 73.7836 111.492 112.982 3.56315 258.149 3.56315 403.315 3.56315 443.221 111.492 443.221 170.3 443.221 181.082 435.851 199.972 424.059 205.868" stroke="#1A1919" stroke-width="5.59239" stroke-linecap="round" stroke-linejoin="round" fill="none" transform="matrix(-1.00913 0 0 1 1277.48 -9.07597)"/><path d="M346.536 91.152C327.81 49.209 190.996 19.2498 122.194 119.445 78.7129 182.771 86.6781 271.275 86.6781 271.275L106.715 340.812 100.467 340.812C100.467 340.812 136.738 438.639 216.629 460.861L292.778 459.111C372.917 439.39 408.248 358.332 412.115 344.519L423.428 268.822C435.244 99.5525 346.536 91.152 346.536 91.152" fill="#744C45" transform="matrix(-1.00913 0 0 1 1277.48 -9.07597)"/><path d="M132.755 141.084C229.292 11.2607 410.382 117.784 423.028 197.008 411.712 107.13 346.536 91.152 346.536 91.152 327.81 49.209 190.996 19.2498 122.194 119.445 78.7129 182.771 86.6781 271.275 86.6781 271.275 86.6781 271.275 98.474 277.315 98.1385 277.566 94.1439 237.617 105.397 177.886 132.755 141.084" fill="#C99B88" transform="matrix(-1.00913 0 0 1 1277.48 -9.07597)"/><path d="M115.291 150.487C118.383 165.051 210.014 171.483 233.235 165.147 246.185 161.612 241.388 158.552 232.572 157.17 157.174 145.35 142.482 114.045 142.482 114.045L115.291 150.487" fill="#C99B88" transform="matrix(-1.00913 0 0 1 1277.48 -9.07597)"/><path d="M142.482 635.919 158.46 613.365 169.977 675.493 338.479 675.493C340.948 667.156 345.454 638.164 345.454 638.164L415.111 615.195C415.111 615.195 392.71 531.976 390.764 517.292 386.961 488.487 364.872 477.047 350.699 473.388 341.947 471.135 296.812 460.142 296.812 460.142L279.671 445.554 233.107 445.554 214.304 460.669C214.304 460.669 185.06 470.36 178.761 471.566 166.869 473.859 144.376 482.539 138.428 495.346 133.954 504.973 96.0453 561.021 87.8045 575.249 87.8045 575.249 128.689 630.738 132.244 633.921 136.99 638.164 142.482 635.919 142.482 635.919" fill="#F1F9FB" transform="matrix(-1.00913 0 0 1 1277.48 -9.07597)"/><path d="M284.445 463.965C284.445 463.965 277.566 460.929 276.308 458.58 274.311 454.853 274.874 441.048 274.874 441.048L237.261 441.048C237.261 441.048 237.82 454.853 235.823 458.58 234.565 460.929 227.686 463.965 227.686 463.965 227.686 463.965 228.613 486.498 255.828 486.498 283.039 486.498 284.225 464.899 284.445 463.965" fill="#F8D2B5" transform="matrix(-1.00913 0 0 1 1277.48 -9.07597)"/><path d="M237.229 430.378 276.048 430.558 277.331 456.275C277.331 456.275 269.461 475.249 238.663 470.935 227.886 469.425 227.303 462.087 227.303 462.087L236.95 457.03 237.229 430.378" fill="#CF957E" transform="matrix(-1.00913 0 0 1 1277.48 -9.07597)"/><path d="M257.458 618.522C223.62 618.522 175.429 612.155 157.821 596.233 161.033 617.719 168.003 668.383 169.445 676.276L337.964 676.276C340.001 669.405 347.783 618.199 350.986 596.792 330.327 612.371 291.096 618.522 257.458 618.522" fill="#BFD2E2" transform="matrix(-1.00913 0 0 1 1277.48 -9.07597)"/><path d="M73.3162 494.012 73.0606 503.771 82.1562 544.567 93.2172 590.065 99.8761 584.405C99.8761 584.405 110.526 589.066 119.182 599.053 131.761 613.565 131.833 618.027 131.833 618.027 131.833 618.027 110.054 648.801 101.65 652.971 93.2491 657.142 76.0765 656.251 71.5067 652.596 66.9369 648.941 63.7612 640.269 63.7612 640.269L49.4887 565.151C47.3675 550.463 39.682 521.982 39.682 521.982" fill="#F8D2B5" transform="matrix(-1.00913 0 0 1 1277.48 -9.07597)"/><path d="M72.9128 510.174C86.8938 498.19 92.4103 479.699 90.7086 470.664 89.0109 461.628 87.4051 442.378 88.4397 433.242 89.4663 424.099 81.7328 427.386 74.5066 439.107 72.8169 441.847 71.7983 445.234 71.2191 448.829L71.5267 447.156C74.8302 426.344 59.1835 418.019 41.9829 419.645 24.7823 421.275 14.6601 436.606 14.6601 436.606L12.5669 438.116C6.01981 443.772 5.74019 452.84 5.74019 452.84L3.6031 455.74C-6.89062 474.47 38.6274 518.826 38.6274 518.826L45.9495 559.439C59.2194 554.689 83.3186 545.877 83.3186 545.877 78.5731 531.808 72.9128 510.174 72.9128 510.174" fill="#F8D2B5" transform="matrix(-1.00913 0 0 1 1277.48 -9.07597)"/><path d="M230.638 453.95 188.535 469.565C188.535 469.565 154.877 472.533 138.428 495.346 126.847 511.408 89.5541 573.252 89.5541 573.252L91.0521 579.244 97.2916 581.241C97.2916 581.241 142.39 509.742 156.175 494.519 165.143 484.613 228.605 467.875 228.605 467.875L230.638 453.95" fill="#FFFFFE" transform="matrix(-1.00913 0 0 1 1277.48 -9.07597)"/><path d="M283.79 454.913 285.38 467.7C285.38 467.7 321.427 476.599 354.59 487.321 379.799 495.47 383.235 513.997 391.312 520.636 391.312 520.636 391.391 487.121 358.936 475.137 349.464 471.642 283.79 454.913 283.79 454.913" fill="#FFFFFE" transform="matrix(-1.00913 0 0 1 1277.48 -9.07597)"/><path d="M121.443 278.142C121.443 278.142 113.378 262.487 98.1984 267.228 66.5415 277.123 76.6916 345.746 129.004 351.665" fill="#F8D2B5" transform="matrix(-1.00913 0 0 1 1277.48 -9.07597)"/><path d="M391.344 278.405C391.344 278.405 399.409 262.75 414.588 267.496 446.245 277.387 437.832 346.009 384.705 351.929" fill="#F8D2B5" transform="matrix(-1.00913 0 0 1 1277.48 -9.07597)"/><path d="M390.045 263.362C390.692 289.894 390.305 332.22 378.829 366.573 357.358 430.846 288.851 445.414 256.327 445.414 223.803 445.414 155.297 430.846 133.826 366.573 121.694 330.263 121.279 285.024 122.849 258.992 122.849 258.992 122.194 238.951 147.403 220.975 171.595 203.727 250.651 194.036 276.815 182.028 322.517 161.057 327.658 136.091 327.658 136.091 327.658 136.091 388.076 183.027 390.045 263.362" fill="#F8D2B5" transform="matrix(-1.00913 0 0 1 1277.48 -9.07597)"/><path d="M220.843 289.191C220.843 309.027 208.516 325.11 193.317 325.11 178.11 325.11 165.774 309.027 165.774 289.191 165.774 269.353 178.11 253.271 193.317 253.271 208.516 253.271 220.843 269.353 220.843 289.191" fill="#FFFFFE" transform="matrix(-1.00913 0 0 1 1277.48 -9.07597)"/><path d="M348.354 289.191C348.354 309.027 336.027 325.11 320.819 325.11 305.616 325.11 293.285 309.027 293.285 289.191 293.285 269.353 305.616 253.271 320.819 253.271 336.027 253.271 348.354 269.353 348.354 289.191" fill="#FFFFFE" transform="matrix(-1.00913 0 0 1 1277.48 -9.07597)"/><path d="M216.553 294.375C216.553 307.889 208.956 318.842 199.576 318.842 190.201 318.842 182.604 307.889 182.604 294.375 182.604 280.862 190.201 269.909 199.576 269.909 208.956 269.909 216.553 280.862 216.553 294.375" fill="#1A1919" transform="matrix(-1.00913 0 0 1 1277.48 -9.07597)"/><path d="M297.104 294.375C297.104 307.889 304.701 318.842 314.081 318.842 323.46 318.842 331.058 307.889 331.058 294.375 331.058 280.862 323.46 269.909 314.081 269.909 304.701 269.909 297.104 280.862 297.104 294.375" fill="#1A1919" transform="matrix(-1.00913 0 0 1 1277.48 -9.07597)"/><path d="M178.014 329.156C178.014 335.364 167.544 340.397 154.63 340.397 141.715 340.397 131.237 335.364 131.237 329.156 131.237 322.945 141.715 317.911 154.63 317.911 167.544 317.911 178.014 322.945 178.014 329.156" fill="#EC9896" transform="matrix(-1.00913 0 0 1 1277.48 -9.07597)"/><path d="M381.637 329.156C381.637 335.364 371.163 340.397 358.249 340.397 345.326 340.397 334.856 335.364 334.856 329.156 334.856 322.945 345.326 317.911 358.249 317.911 371.163 317.911 381.637 322.945 381.637 329.156" fill="#EC9896" transform="matrix(-1.00913 0 0 1 1277.48 -9.07597)"/><path d="M216.258 286.183C216.258 288.951 214.009 291.196 211.241 291.196 208.468 291.196 206.227 288.951 206.227 286.183 206.227 283.41 208.468 281.165 211.241 281.165 214.009 281.165 216.258 283.41 216.258 286.183" fill="#FFFFFE" transform="matrix(-1.00913 0 0 1 1277.48 -9.07597)"/><path d="M329.747 286.183C329.747 288.951 327.498 291.196 324.73 291.196 321.962 291.196 319.713 288.951 319.713 286.183 319.713 283.41 321.962 281.165 324.73 281.165 327.498 281.165 329.747 283.41 329.747 286.183" fill="#FFFFFE" transform="matrix(-1.00913 0 0 1 1277.48 -9.07597)"/><path d="M125.174 333.486 122.841 306.523C122.841 306.523 116.278 289.802 106.199 287.217 93.2172 283.89 92.9535 306.227 101.869 318.842 115.515 338.148 125.174 333.486 125.174 333.486" fill="#CF957E" transform="matrix(-1.00913 0 0 1 1277.48 -9.07597)"/><path d="M389.478 333.486 391.811 306.523C391.811 306.523 398.374 289.802 408.452 287.217 421.435 283.89 421.698 306.227 412.782 318.842 399.137 338.148 389.478 333.486 389.478 333.486" fill="#CF957E" transform="matrix(-1.00913 0 0 1 1277.48 -9.07597)"/><path d="M195.738 262.071C202.121 262.071 208.197 263.23 213.805 265.263 208.764 257.921 201.466 253.271 193.317 253.271 184.109 253.271 175.989 259.183 170.987 268.231 178.285 264.332 186.722 262.071 195.738 262.071" fill="#D2E0EB" transform="matrix(-1.00913 0 0 1 1277.48 -9.07597)"/><path d="M318.571 262.071C312.191 262.071 306.115 263.23 300.507 265.263 305.548 257.921 312.846 253.271 320.995 253.271 330.203 253.271 338.324 259.183 343.325 268.231 336.027 264.332 327.59 262.071 318.571 262.071" fill="#D2E0EB" transform="matrix(-1.00913 0 0 1 1277.48 -9.07597)"/><path d="M216.553 294.375C216.553 307.889 208.956 318.842 199.576 318.842 190.201 318.842 182.604 307.889 182.604 294.375 182.604 280.862 190.201 269.909 199.576 269.909 208.956 269.909 216.553 280.862 216.553 294.375" fill="#1A1919" transform="matrix(-1.00913 0 0 1 1277.48 -9.07597)"/><path d="M297.104 294.375C297.104 307.889 304.701 318.842 314.081 318.842 323.46 318.842 331.058 307.889 331.058 294.375 331.058 280.862 323.46 269.909 314.081 269.909 304.701 269.909 297.104 280.862 297.104 294.375" fill="#1A1919" transform="matrix(-1.00913 0 0 1 1277.48 -9.07597)"/><path d="M216.258 286.183C216.258 288.951 214.009 291.196 211.241 291.196 208.468 291.196 206.227 288.951 206.227 286.183 206.227 283.41 208.468 281.165 211.241 281.165 214.009 281.165 216.258 283.41 216.258 286.183" fill="#FFFFFE" transform="matrix(-1.00913 0 0 1 1277.48 -9.07597)"/><path d="M329.747 286.183C329.747 288.951 327.498 291.196 324.73 291.196 321.962 291.196 319.713 288.951 319.713 286.183 319.713 283.41 321.962 281.165 324.73 281.165 327.498 281.165 329.747 283.41 329.747 286.183" fill="#FFFFFE" transform="matrix(-1.00913 0 0 1 1277.48 -9.07597)"/><path d="M251.082 486.87 260.322 486.622 286.035 520.324C286.035 520.324 249.584 510.837 224.371 520.823L251.082 486.87" fill="#B5CCE0" transform="matrix(-1.00913 0 0 1 1277.48 -9.07597)"/><path d="M227.303 462.087C227.303 462.087 226.032 450.871 229.572 448.214 233.107 445.554 237.78 446.512 237.78 446.512 237.78 446.512 238.643 455.844 235.947 457.973 233.255 460.102 227.303 462.087 227.303 462.087" fill="#BCACAE" transform="matrix(-1.00913 0 0 1 1277.48 -9.07597)"/><path d="M285.647 462.087C285.647 462.087 286.918 450.871 283.378 448.214 279.843 445.554 275.17 446.512 275.17 446.512 275.17 446.512 274.307 455.844 277.003 457.973 279.699 460.102 285.647 462.087 285.647 462.087" fill="#BCACAE" transform="matrix(-1.00913 0 0 1 1277.48 -9.07597)"/><path d="M356.191 635.667 398.134 623.02 406.123 676.276 366.178 676.276 356.191 635.667" fill="#F8D2B5" transform="matrix(-1.00913 0 0 1 1277.48 -9.07597)"/><path d="M134.657 618.442 128.665 626.931C128.665 626.931 135.128 636.913 138.236 635.667 145.726 632.671 134.657 618.442 134.657 618.442" fill="#B5CCE0" transform="matrix(-1.00913 0 0 1 1277.48 -9.07597)"/><path d="M356.191 635.667 399.417 622.421 400.982 638.064 363.865 663.833 356.191 635.667" fill="#CF957E" transform="matrix(-1.00913 0 0 1 1277.48 -9.07597)"/><path d="M132.524 618.271 112.615 642.873C112.615 642.873 124.295 620.392 111.045 591.423 127.227 604.174 132.671 617.735 132.524 618.271" fill="#CF957E" transform="matrix(-1.00913 0 0 1 1277.48 -9.07597)"/><path d="M156.811 594.815C156.811 594.815 143.684 618.391 138.092 621.794L141.499 632.975 159.727 610.613 156.811 594.815" fill="#BFD2E2" transform="matrix(-1.00913 0 0 1 1277.48 -9.07597)"/><path d="M341.687 583.53C341.687 584.776 340.668 585.795 339.422 585.795L293.357 585.795C292.111 585.795 291.092 584.776 291.092 583.53L291.092 555.568C291.092 554.318 292.111 553.299 293.357 553.299L339.422 553.299C340.668 553.299 341.687 554.318 341.687 555.568L341.687 583.53" fill="#BFD2E2" transform="matrix(-1.00913 0 0 1 1277.48 -9.07597)"/><path d="M256.327 347.595 256.327 339.606" stroke="#1A1919" stroke-width="5.59239" stroke-linecap="round" stroke-linejoin="round" fill="none" transform="matrix(-1.00913 0 0 1 1277.48 -9.07597)"/><path d="M301.214 371.075C295.198 380.438 281.353 397.14 257.274 397.14 233.199 397.14 219.35 380.438 213.322 371.075" stroke="#1A1919" stroke-width="6.3913" stroke-linecap="round" stroke-linejoin="round" fill="none" transform="matrix(-1.00913 0 0 1 1277.48 -9.07597)"/><path d="M264.492 512.039C264.492 515.994 261.284 519.202 257.326 519.202 253.375 519.202 250.168 515.994 250.168 512.039 250.168 508.093 253.375 504.885 257.326 504.885 261.284 504.885 264.492 508.093 264.492 512.039" fill="#FFFFFE" transform="matrix(-1.00913 0 0 1 1277.48 -9.07597)"/><path d="M264.492 512.039C264.492 515.994 261.284 519.202 257.326 519.202 253.375 519.202 250.168 515.994 250.168 512.039 250.168 508.093 253.375 504.885 257.326 504.885 261.284 504.885 264.492 508.093 264.492 512.039Z" stroke="#1A1919" stroke-width="4.79348" stroke-linecap="round" stroke-linejoin="round" fill="none" transform="matrix(-1.00913 0 0 1 1277.48 -9.07597)"/><path d="M264.492 577.187C264.492 581.133 261.284 584.341 257.326 584.341 253.375 584.341 250.168 581.133 250.168 577.187 250.168 573.232 253.375 570.024 257.326 570.024 261.284 570.024 264.492 573.232 264.492 577.187" fill="#FFFFFE" transform="matrix(-1.00913 0 0 1 1277.48 -9.07597)"/><path d="M264.492 577.187C264.492 581.133 261.284 584.341 257.326 584.341 253.375 584.341 250.168 581.133 250.168 577.187 250.168 573.232 253.375 570.024 257.326 570.024 261.284 570.024 264.492 573.232 264.492 577.187Z" stroke="#1A1919" stroke-width="4.79348" stroke-linecap="round" stroke-linejoin="round" fill="none" transform="matrix(-1.00913 0 0 1 1277.48 -9.07597)"/><path d="M264.492 642.322C264.492 646.281 261.284 649.484 257.326 649.484 253.375 649.484 250.168 646.281 250.168 642.322 250.168 638.375 253.375 635.168 257.326 635.168 261.284 635.168 264.492 638.375 264.492 642.322" fill="#FFFFFE" transform="matrix(-1.00913 0 0 1 1277.48 -9.07597)"/><path d="M264.492 642.322C264.492 646.281 261.284 649.484 257.326 649.484 253.375 649.484 250.168 646.281 250.168 642.322 250.168 638.375 253.375 635.168 257.326 635.168 261.284 635.168 264.492 638.375 264.492 642.322Z" stroke="#1A1919" stroke-width="4.79348" stroke-linecap="round" stroke-linejoin="round" fill="none" transform="matrix(-1.00913 0 0 1 1277.48 -9.07597)"/><path d="M73.5639 511.524C73.5639 511.524 87.5209 574.634 99.3408 607.206M37.6248 517.328C37.6248 517.328 53.7229 596.948 59.9305 632.34 64.0169 655.628 86.1068 663.138 105.013 648.565 112.571 642.745 119.913 634.245 132.076 617.192M100.012 582.392 94.795 588.483M214.8 461.352C204.733 464.855 187.8 469.401 178.761 471.566 166.989 474.387 147.999 479.607 138.428 495.346 133.634 503.239 89.5541 572.253 89.5541 572.253M295.47 459.087C313.114 464.58 343.177 471.135 350.946 473.14 365.119 476.799 384.525 490.101 390.764 517.292 395.474 537.8 415.61 616.194 415.61 616.194L346.704 637.664M152.421 537.149C152.421 537.149 164.7 654.893 169.445 676.276M359.515 535.583C359.515 535.583 342.694 655.931 337.964 676.276M357.19 635.667 366.178 676.276M237.261 444.747C237.261 444.747 237.82 453.207 235.823 456.934 234.565 459.283 227.686 462.319 227.686 462.319M216.713 223.764C206.227 215.774 179.763 211.78 165.283 229.256" stroke="#1A1919" stroke-width="5.59239" stroke-linecap="round" stroke-linejoin="round" fill="none" transform="matrix(-1.00913 0 0 1 1277.48 -9.07597)"/><path d="M217.84 268.371C206.283 244.016 157.869 243.904 164.784 301.366" stroke="#1A1919" stroke-width="6.3913" stroke-linecap="round" stroke-linejoin="round" fill="none" transform="matrix(-1.00913 0 0 1 1277.48 -9.07597)"/><path d="M121.443 278.142C121.443 278.142 113.378 262.487 98.1984 267.228 66.5415 277.123 76.6916 345.746 129.004 351.665M98.7656 285.731C98.7656 285.731 109.203 278.617 122.01 306.603M390.045 263.362C390.692 289.894 390.305 332.22 378.829 366.573 357.358 430.846 288.851 445.414 256.327 445.414 223.803 445.414 155.297 430.846 133.826 366.573 121.694 330.263 121.279 285.024 122.849 258.992 122.849 258.992 122.194 238.951 147.403 220.975 171.595 203.727 250.651 194.036 276.815 182.028 322.517 161.057 327.658 136.091 327.658 136.091 327.658 136.091 388.076 183.027 390.045 263.362ZM295.106 223.764C305.592 215.774 332.056 211.78 346.536 229.256" stroke="#1A1919" stroke-width="5.59239" stroke-linecap="round" stroke-linejoin="round" fill="none" transform="matrix(-1.00913 0 0 1 1277.48 -9.07597)"/><path d="M295.166 270.732C304.609 244.076 356.327 242.107 349.197 301.366" stroke="#1A1919" stroke-width="6.3913" stroke-linecap="round" stroke-linejoin="round" fill="none" transform="matrix(-1.00913 0 0 1 1277.48 -9.07597)"/><path d="M391.344 278.405C391.344 278.405 399.409 262.75 414.588 267.496 446.245 277.387 437.832 346.009 384.705 351.929M413.717 285.995C413.717 285.995 403.287 278.881 390.477 306.866M155.297 284.389 164.113 289.882M349.868 289.882 361.68 284.389M87.5529 274.311C87.5529 274.311 78.7129 182.771 122.194 119.445 190.996 19.2498 327.81 49.209 346.536 91.152 346.536 91.152 434.96 101.881 423.144 271.151M98.9693 339.314C98.9693 339.314 129.024 432.312 215.778 459.69M413.114 340.736C413.114 340.736 383.598 432.408 296.756 459.726M227.83 449.313C227.83 449.313 216.841 458.544 215.231 462.207 214.332 464.244 198.993 513.513 218.73 521.878 228.984 526.228 252.193 486.298 252.193 486.298 252.193 486.298 219.33 480.966 227.83 449.313 231.992 445.254 234.864 445.781 234.864 445.781M274.874 444.747C274.874 444.747 274.311 453.207 276.308 456.934 277.566 459.283 284.445 462.319 284.445 462.319M284.301 449.313C284.301 449.313 295.29 458.544 296.9 462.207 297.799 464.244 313.138 513.513 293.401 521.878 283.147 526.228 259.938 486.298 259.938 486.298 259.938 486.298 292.802 480.966 284.301 449.313 280.139 445.254 277.267 445.781 277.267 445.781M252.193 486.298 260.821 486.298M398.606 622.685 406.123 676.276M90.8005 578.497C90.8005 578.497 112.814 581.716 137.737 624.682 141.352 630.913 142.254 635.28 142.254 635.28M127.503 624.682C127.503 624.682 136.858 641.255 142.254 635.28 145.55 631.628 159.795 609.367 159.795 609.367" stroke="#1A1919" stroke-width="5.59239" stroke-linecap="round" stroke-linejoin="round" fill="none" transform="matrix(-1.00913 0 0 1 1277.48 -9.07597)"/><path d="M290.948 546.041 341.543 546.041 341.543 578.537 290.948 578.537Z" fill="#FFFFFE" transform="matrix(-1.00913 0 0 1 1277.48 -9.07597)"/><path d="M290.948 546.041 341.543 546.041 341.543 578.537 290.948 578.537Z" stroke="#1A1919" stroke-width="5.59239" stroke-linecap="round" stroke-linejoin="round" fill="none" transform="matrix(-1.00913 0 0 1 1277.48 -9.07597)"/><path d="M28.3854 422.964C28.3854 422.964 13.8651 380.271 6.97451 365.786 0.091875 351.306 8.12095 343.053 15.8225 348.106 23.508 353.163 30.5704 360.581 34.7967 378.613 39.0269 396.652 41.7512 417.943 41.7512 417.943L28.3854 422.964" fill="#F8D4B3" transform="matrix(-1.00913 0 0 1 1277.48 -9.07597)"/><path d="M44.6153 522.157C31.9685 515.83-9.27538 469.629 6.23951 451.645 19.1739 436.65 50.5312 438.851 53.671 447.215 56.6988 455.292 57.5057 472.92 48.2983 476.084 39.0908 479.256 27.5465 481.125 29.3001 473.112 31.0497 465.111 42.1027 461.4 42.1027 461.4M6.68291 451.15C6.68291 451.15 7.07837 437.836 18.5707 433.414 30.0591 428.98 51.6817 426.943 58.9478 433.414 64.2486 438.14 73.9713 460.362 56.1556 469.465M73.1445 472.988C73.1445 472.988 68.2112 449.149 75.4413 437.417 82.6715 425.697 90.8683 424.946 89.8378 434.093 88.8032 443.233 86.722 455.133 89.5781 468.115 91.5554 477.095 89.0628 498.25 71.6625 511.544M69.6452 461.364C69.6452 461.364 57.5177 470.711 59.5989 494.611M15.5988 434.916C15.5988 434.916 25.717 419.581 42.9216 417.955 60.1222 416.326 75.7729 424.65 72.4654 445.462M28.3854 422.964C28.3854 422.964 13.8651 380.271 6.97451 365.786 0.091875 351.306 8.12095 343.053 15.8225 348.106 23.508 353.163 30.5704 360.581 34.7967 378.613 39.0269 396.652 41.7512 417.943 41.7512 417.943M22.8849 464.827C22.8849 464.827 37.0895 465.519 42.63 460.673" stroke="#1A1919" stroke-width="5.59239" stroke-linecap="round" stroke-linejoin="round" fill="none" transform="matrix(-1.00913 0 0 1 1277.48 -9.07597)"/></g></g></g><g clip-path="url(#clip7)"><g clip-path="url(#clip8)"><g clip-path="url(#clip9)"><path d="M440.553 169.275C439.743 222.218 358.871 232.545 255.427 232.545 151.983 232.545 73.3394 227.729 73.3394 169.275 73.3394 110.821 111.135 4.70903 255.427 4.70903 399.72 4.70903 440.553 110.821 440.553 169.275" fill="#F1F9FB" transform="matrix(1 0 0 1.00983 745.651 -21.6768)"/><path d="M255.427 169.41C166.428 169.41 116.003 134.958 90.3928 94.8477 78.4256 119.314 73.3394 146.877 73.3394 169.275 73.3394 227.729 151.983 232.545 255.427 232.545 358.871 232.545 440.076 219.899 440.553 169.275 440.763 146.877 436.372 119.771 420.462 94.8477 394.848 134.958 344.422 169.41 255.427 169.41" fill="#BFD2E2" transform="matrix(1 0 0 1.00983 745.651 -21.6768)"/><path d="M88.9396 205.982C76.2419 197.791 73.3394 180.869 73.3394 169.275 73.3394 110.821 112.302 3.5417 256.595 3.5417 400.887 3.5417 440.553 110.821 440.553 169.275 440.553 179.991 433.227 198.768 421.506 204.628" stroke="#1A1919" stroke-width="5.55872" stroke-linecap="round" stroke-linejoin="round" fill="none" transform="matrix(1 0 0 1.00983 745.651 -21.6768)"/><path d="M344.45 90.6032C325.836 48.9128 189.846 19.1339 121.458 118.726 78.239 181.671 86.1562 269.642 86.1562 269.642L106.072 338.76 99.8625 338.76C99.8625 338.76 135.915 435.998 215.325 458.086L291.015 456.347C370.672 436.745 405.791 356.175 409.634 342.445L420.879 267.204C432.624 98.9532 344.45 90.6032 344.45 90.6032" fill="#744C45" transform="matrix(1 0 0 1.00983 745.651 -21.6768)"/><path d="M131.956 140.235C227.912 11.1929 407.911 117.075 420.482 195.822 409.233 106.485 344.45 90.6032 344.45 90.6032 325.836 48.9128 189.846 19.1339 121.458 118.726 78.239 181.671 86.1562 269.642 86.1562 269.642 86.1562 269.642 97.8812 275.645 97.5477 275.895 93.5771 236.186 104.762 176.815 131.956 140.235" fill="#C99B88" transform="matrix(1 0 0 1.00983 745.651 -21.6768)"/><path d="M114.597 149.581C117.67 164.058 208.75 170.45 231.831 164.153 244.703 160.639 239.934 157.598 231.171 156.224 156.228 144.475 141.624 113.358 141.624 113.358L114.597 149.581" fill="#C99B88" transform="matrix(1 0 0 1.00983 745.651 -21.6768)"/><path d="M141.624 632.09 157.506 609.673 168.953 671.426 336.442 671.426C338.895 663.14 343.374 634.322 343.374 634.322L412.612 611.491C412.612 611.491 390.345 528.774 388.412 514.178 384.632 485.547 362.675 474.175 348.588 470.538 339.888 468.299 295.025 457.372 295.025 457.372L277.988 442.871 231.703 442.871 213.014 457.896C213.014 457.896 183.946 467.528 177.685 468.727 165.864 471.006 143.506 479.634 137.594 492.364 133.147 501.933 95.4671 557.643 87.2759 571.786 87.2759 571.786 127.914 626.941 131.448 630.105 136.165 634.322 141.624 632.09 141.624 632.09" fill="#F1F9FB" transform="matrix(1 0 0 1.00983 745.651 -21.6768)"/><path d="M282.733 461.172C282.733 461.172 275.895 458.154 274.645 455.819 272.659 452.115 273.219 438.393 273.219 438.393L235.833 438.393C235.833 438.393 236.389 452.115 234.403 455.819 233.153 458.154 226.315 461.172 226.315 461.172 226.315 461.172 227.237 483.569 254.288 483.569 281.335 483.569 282.514 462.101 282.733 461.172" fill="#F8D2B5" transform="matrix(1 0 0 1.00983 745.651 -21.6768)"/><path d="M235.801 427.787 274.387 427.966 275.661 453.528C275.661 453.528 267.839 472.388 237.226 468.1 226.514 466.599 225.934 459.305 225.934 459.305L235.523 454.279 235.801 427.787" fill="#CF957E" transform="matrix(1 0 0 1.00983 745.651 -21.6768)"/><path d="M255.908 614.799C222.273 614.799 174.373 608.47 156.871 592.643 160.063 614.001 166.992 664.359 168.425 672.204L335.93 672.204C337.954 665.375 345.689 614.477 348.873 593.199 328.338 608.684 289.343 614.799 255.908 614.799" fill="#BFD2E2" transform="matrix(1 0 0 1.00983 745.651 -21.6768)"/><path d="M72.8749 491.038 72.6208 500.738 81.6616 541.289 92.656 586.513 99.2748 580.887C99.2748 580.887 109.86 585.52 118.464 595.446 130.967 609.871 131.039 614.306 131.039 614.306 131.039 614.306 109.392 644.895 101.038 649.04 92.6877 653.186 75.6185 652.3 71.0762 648.667 66.5339 645.034 63.3774 636.414 63.3774 636.414L49.1907 561.749C47.0824 547.149 39.4431 518.839 39.4431 518.839" fill="#F8D2B5" transform="matrix(1 0 0 1.00983 745.651 -21.6768)"/><path d="M72.4738 507.102C86.3706 495.191 91.8539 476.811 90.1625 467.83 88.475 458.849 86.8789 439.715 87.9072 430.634 88.9277 421.546 81.2407 424.813 74.0581 436.463 72.3785 439.187 71.3661 442.554 70.7903 446.127L71.0961 444.464C74.3797 423.777 58.8272 415.503 41.7301 417.119 24.6331 418.739 14.5718 433.977 14.5718 433.977L12.4912 435.478C5.98357 441.101 5.70563 450.114 5.70563 450.114L3.58141 452.996C-6.84914 471.614 38.3949 515.703 38.3949 515.703L45.6729 556.071C58.8629 551.35 82.817 542.591 82.817 542.591 78.1001 528.607 72.4738 507.102 72.4738 507.102" fill="#F8D2B5" transform="matrix(1 0 0 1.00983 745.651 -21.6768)"/><path d="M229.25 451.217 187.4 466.738C187.4 466.738 153.945 469.688 137.594 492.364 126.084 508.329 89.015 569.801 89.015 569.801L90.504 575.757 96.7059 577.742C96.7059 577.742 141.533 506.674 155.235 491.542 164.149 481.695 227.229 465.059 227.229 465.059L229.25 451.217" fill="#FFFFFE" transform="matrix(1 0 0 1.00983 745.651 -21.6768)"/><path d="M282.081 452.174 283.662 464.884C283.662 464.884 319.492 473.73 352.455 484.387 377.513 492.487 380.927 510.902 388.956 517.501 388.956 517.501 389.035 484.189 356.775 472.277 347.361 468.803 282.081 452.174 282.081 452.174" fill="#FFFFFE" transform="matrix(1 0 0 1.00983 745.651 -21.6768)"/><path d="M120.712 276.467C120.712 276.467 112.695 260.907 97.6072 265.62 66.1409 275.455 76.2299 343.664 128.228 349.548" fill="#F8D2B5" transform="matrix(1 0 0 1.00983 745.651 -21.6768)"/><path d="M388.988 276.729C388.988 276.729 397.004 261.169 412.092 265.886 443.558 275.717 435.196 343.926 382.389 349.81" fill="#F8D2B5" transform="matrix(1 0 0 1.00983 745.651 -21.6768)"/><path d="M387.697 261.776C388.34 288.148 387.955 330.22 376.548 364.366 355.206 428.252 287.112 442.732 254.784 442.732 222.456 442.732 154.362 428.252 133.02 364.366 120.962 328.274 120.549 283.308 122.109 257.432 122.109 257.432 121.458 237.512 146.516 219.645 170.561 202.5 249.142 192.868 275.149 180.932 320.576 160.087 325.686 135.272 325.686 135.272 325.686 135.272 385.74 181.925 387.697 261.776" fill="#F8D2B5" transform="matrix(1 0 0 1.00983 745.651 -21.6768)"/><path d="M219.514 287.45C219.514 307.167 207.261 323.152 192.153 323.152 177.037 323.152 164.776 307.167 164.776 287.45 164.776 267.732 177.037 251.747 192.153 251.747 207.261 251.747 219.514 267.732 219.514 287.45" fill="#FFFFFE" transform="matrix(1 0 0 1.00983 745.651 -21.6768)"/><path d="M346.257 287.45C346.257 307.167 334.004 323.152 318.888 323.152 303.776 323.152 291.519 307.167 291.519 287.45 291.519 267.732 303.776 251.747 318.888 251.747 334.004 251.747 346.257 267.732 346.257 287.45" fill="#FFFFFE" transform="matrix(1 0 0 1.00983 745.651 -21.6768)"/><path d="M215.25 292.603C215.25 306.036 207.698 316.923 198.375 316.923 189.056 316.923 181.504 306.036 181.504 292.603 181.504 279.171 189.056 268.284 198.375 268.284 207.698 268.284 215.25 279.171 215.25 292.603" fill="#1A1919" transform="matrix(1 0 0 1.00983 745.651 -21.6768)"/><path d="M295.315 292.603C295.315 306.036 302.867 316.923 312.19 316.923 321.513 316.923 329.064 306.036 329.064 292.603 329.064 279.171 321.513 268.284 312.19 268.284 302.867 268.284 295.315 279.171 295.315 292.603" fill="#1A1919" transform="matrix(1 0 0 1.00983 745.651 -21.6768)"/><path d="M176.942 327.175C176.942 333.345 166.535 338.348 153.699 338.348 140.862 338.348 130.447 333.345 130.447 327.175 130.447 321 140.862 315.998 153.699 315.998 166.535 315.998 176.942 321 176.942 327.175" fill="#EC9896" transform="matrix(1 0 0 1.00983 745.651 -21.6768)"/><path d="M379.339 327.175C379.339 333.345 368.928 338.348 356.092 338.348 343.247 338.348 332.84 333.345 332.84 327.175 332.84 321 343.247 315.998 356.092 315.998 368.928 315.998 379.339 321 379.339 327.175" fill="#EC9896" transform="matrix(1 0 0 1.00983 745.651 -21.6768)"/><path d="M214.956 284.46C214.956 287.211 212.72 289.443 209.969 289.443 207.213 289.443 204.986 287.211 204.986 284.46 204.986 281.704 207.213 279.473 209.969 279.473 212.72 279.473 214.956 281.704 214.956 284.46" fill="#FFFFFE" transform="matrix(1 0 0 1.00983 745.651 -21.6768)"/><path d="M327.762 284.46C327.762 287.211 325.527 289.443 322.775 289.443 320.024 289.443 317.788 287.211 317.788 284.46 317.788 281.704 320.024 279.473 322.775 279.473 325.527 279.473 327.762 281.704 327.762 284.46" fill="#FFFFFE" transform="matrix(1 0 0 1.00983 745.651 -21.6768)"/><path d="M124.42 331.479 122.101 304.678C122.101 304.678 115.578 288.057 105.56 285.488 92.656 282.181 92.3939 304.384 101.256 316.923 114.819 336.112 124.42 331.479 124.42 331.479" fill="#CF957E" transform="matrix(1 0 0 1.00983 745.651 -21.6768)"/><path d="M387.133 331.479 389.452 304.678C389.452 304.678 395.976 288.057 405.993 285.488 418.897 282.181 419.159 304.384 410.297 316.923 396.734 336.112 387.133 331.479 387.133 331.479" fill="#CF957E" transform="matrix(1 0 0 1.00983 745.651 -21.6768)"/><path d="M194.559 260.494C200.904 260.494 206.943 261.645 212.518 263.666 207.507 256.368 200.253 251.747 192.153 251.747 183.001 251.747 174.929 257.623 169.958 266.616 177.212 262.741 185.598 260.494 194.559 260.494" fill="#D2E0EB" transform="matrix(1 0 0 1.00983 745.651 -21.6768)"/><path d="M316.653 260.494C310.312 260.494 304.273 261.645 298.698 263.666 303.709 256.368 310.963 251.747 319.063 251.747 328.215 251.747 336.287 257.623 341.258 266.616 334.004 262.741 325.618 260.494 316.653 260.494" fill="#D2E0EB" transform="matrix(1 0 0 1.00983 745.651 -21.6768)"/><path d="M215.25 292.603C215.25 306.036 207.698 316.923 198.375 316.923 189.056 316.923 181.504 306.036 181.504 292.603 181.504 279.171 189.056 268.284 198.375 268.284 207.698 268.284 215.25 279.171 215.25 292.603" fill="#1A1919" transform="matrix(1 0 0 1.00983 745.651 -21.6768)"/><path d="M295.315 292.603C295.315 306.036 302.867 316.923 312.19 316.923 321.513 316.923 329.064 306.036 329.064 292.603 329.064 279.171 321.513 268.284 312.19 268.284 302.867 268.284 295.315 279.171 295.315 292.603" fill="#1A1919" transform="matrix(1 0 0 1.00983 745.651 -21.6768)"/><path d="M214.956 284.46C214.956 287.211 212.72 289.443 209.969 289.443 207.213 289.443 204.986 287.211 204.986 284.46 204.986 281.704 207.213 279.473 209.969 279.473 212.72 279.473 214.956 281.704 214.956 284.46" fill="#FFFFFE" transform="matrix(1 0 0 1.00983 745.651 -21.6768)"/><path d="M327.762 284.46C327.762 287.211 325.527 289.443 322.775 289.443 320.024 289.443 317.788 287.211 317.788 284.46 317.788 281.704 320.024 279.473 322.775 279.473 325.527 279.473 327.762 281.704 327.762 284.46" fill="#FFFFFE" transform="matrix(1 0 0 1.00983 745.651 -21.6768)"/><path d="M249.571 483.938 258.755 483.692 284.313 517.192C284.313 517.192 248.082 507.762 223.02 517.688L249.571 483.938" fill="#B5CCE0" transform="matrix(1 0 0 1.00983 745.651 -21.6768)"/><path d="M225.934 459.305C225.934 459.305 224.672 448.156 228.19 445.516 231.703 442.871 236.349 443.824 236.349 443.824 236.349 443.824 237.207 453.099 234.527 455.216 231.85 457.332 225.934 459.305 225.934 459.305" fill="#BCACAE" transform="matrix(1 0 0 1.00983 745.651 -21.6768)"/><path d="M283.928 459.305C283.928 459.305 285.19 448.156 281.672 445.516 278.159 442.871 273.513 443.824 273.513 443.824 273.513 443.824 272.655 453.099 275.335 455.216 278.016 457.332 283.928 459.305 283.928 459.305" fill="#BCACAE" transform="matrix(1 0 0 1.00983 745.651 -21.6768)"/><path d="M354.047 631.84 395.737 619.27 403.678 672.204 363.973 672.204 354.047 631.84" fill="#F8D2B5" transform="matrix(1 0 0 1.00983 745.651 -21.6768)"/><path d="M133.846 614.719 127.89 623.157C127.89 623.157 134.315 633.079 137.404 631.84 144.848 628.862 133.846 614.719 133.846 614.719" fill="#B5CCE0" transform="matrix(1 0 0 1.00983 745.651 -21.6768)"/><path d="M354.047 631.84 397.012 618.674 398.568 634.223 361.674 659.836 354.047 631.84" fill="#CF957E" transform="matrix(1 0 0 1.00983 745.651 -21.6768)"/><path d="M131.726 614.549 111.937 639.003C111.937 639.003 123.547 616.657 110.376 587.863 126.461 600.537 131.873 614.017 131.726 614.549" fill="#CF957E" transform="matrix(1 0 0 1.00983 745.651 -21.6768)"/><path d="M155.867 591.234C155.867 591.234 142.819 614.668 137.261 618.051L140.648 629.164 158.765 606.937 155.867 591.234" fill="#BFD2E2" transform="matrix(1 0 0 1.00983 745.651 -21.6768)"/><path d="M339.63 580.017C339.63 581.256 338.618 582.268 337.379 582.268L291.591 582.268C290.352 582.268 289.339 581.256 289.339 580.017L289.339 552.223C289.339 550.981 290.352 549.968 291.591 549.968L337.379 549.968C338.618 549.968 339.63 550.981 339.63 552.223L339.63 580.017" fill="#BFD2E2" transform="matrix(1 0 0 1.00983 745.651 -21.6768)"/><path d="M254.784 345.502 254.784 337.561" stroke="#1A1919" stroke-width="5.55872" stroke-linecap="round" stroke-linejoin="round" fill="none" transform="matrix(1 0 0 1.00983 745.651 -21.6768)"/><path d="M299.401 368.841C293.421 378.148 279.659 394.749 255.725 394.749 231.795 394.749 218.029 378.148 212.037 368.841" stroke="#1A1919" stroke-width="6.35283" stroke-linecap="round" stroke-linejoin="round" fill="none" transform="matrix(1 0 0 1.00983 745.651 -21.6768)"/><path d="M262.9 508.957C262.9 512.887 259.711 516.076 255.777 516.076 251.85 516.076 248.662 512.887 248.662 508.957 248.662 505.034 251.85 501.845 255.777 501.845 259.711 501.845 262.9 505.034 262.9 508.957" fill="#FFFFFE" transform="matrix(1 0 0 1.00983 745.651 -21.6768)"/><path d="M262.9 508.957C262.9 512.887 259.711 516.076 255.777 516.076 251.85 516.076 248.662 512.887 248.662 508.957 248.662 505.034 251.85 501.845 255.777 501.845 259.711 501.845 262.9 505.034 262.9 508.957Z" stroke="#1A1919" stroke-width="4.76462" stroke-linecap="round" stroke-linejoin="round" fill="none" transform="matrix(1 0 0 1.00983 745.651 -21.6768)"/><path d="M262.9 573.712C262.9 577.635 259.711 580.823 255.777 580.823 251.85 580.823 248.662 577.635 248.662 573.712 248.662 569.781 251.85 566.593 255.777 566.593 259.711 566.593 262.9 569.781 262.9 573.712" fill="#FFFFFE" transform="matrix(1 0 0 1.00983 745.651 -21.6768)"/><path d="M262.9 573.712C262.9 577.635 259.711 580.823 255.777 580.823 251.85 580.823 248.662 577.635 248.662 573.712 248.662 569.781 251.85 566.593 255.777 566.593 259.711 566.593 262.9 569.781 262.9 573.712Z" stroke="#1A1919" stroke-width="4.76462" stroke-linecap="round" stroke-linejoin="round" fill="none" transform="matrix(1 0 0 1.00983 745.651 -21.6768)"/><path d="M262.9 638.455C262.9 642.39 259.711 645.574 255.777 645.574 251.85 645.574 248.662 642.39 248.662 638.455 248.662 634.532 251.85 631.344 255.777 631.344 259.711 631.344 262.9 634.532 262.9 638.455" fill="#FFFFFE" transform="matrix(1 0 0 1.00983 745.651 -21.6768)"/><path d="M262.9 638.455C262.9 642.39 259.711 645.574 255.777 645.574 251.85 645.574 248.662 642.39 248.662 638.455 248.662 634.532 251.85 631.344 255.777 631.344 259.711 631.344 262.9 634.532 262.9 638.455Z" stroke="#1A1919" stroke-width="4.76462" stroke-linecap="round" stroke-linejoin="round" fill="none" transform="matrix(1 0 0 1.00983 745.651 -21.6768)"/><path d="M73.121 508.444C73.121 508.444 86.994 571.175 98.7428 603.55M37.3983 514.214C37.3983 514.214 53.3995 593.354 59.5697 628.533 63.6315 651.681 85.5885 659.145 104.381 644.661 111.893 638.876 119.191 630.427 131.281 613.477M99.4098 578.885 94.2243 584.94M213.507 458.575C203.501 462.057 186.67 466.575 177.685 468.727 165.983 471.531 147.108 476.72 137.594 492.364 132.83 500.21 89.015 568.808 89.015 568.808M293.691 456.324C311.229 461.783 341.111 468.299 348.834 470.292 362.921 473.929 382.21 487.151 388.412 514.178 393.093 534.563 413.108 612.484 413.108 612.484L344.617 633.825M151.503 533.915C151.503 533.915 163.708 650.95 168.425 672.204M357.35 532.359C357.35 532.359 340.631 651.983 335.93 672.204M355.04 631.84 363.973 672.204M235.833 442.069C235.833 442.069 236.389 450.479 234.403 454.183 233.153 456.518 226.315 459.536 226.315 459.536M215.408 222.416C204.986 214.475 178.681 210.505 164.288 227.876" stroke="#1A1919" stroke-width="5.55872" stroke-linecap="round" stroke-linejoin="round" fill="none" transform="matrix(1 0 0 1.00983 745.651 -21.6768)"/><path d="M216.528 266.755C205.041 242.547 156.919 242.436 163.792 299.552" stroke="#1A1919" stroke-width="6.35283" stroke-linecap="round" stroke-linejoin="round" fill="none" transform="matrix(1 0 0 1.00983 745.651 -21.6768)"/><path d="M120.712 276.467C120.712 276.467 112.695 260.907 97.6072 265.62 66.1409 275.455 76.2299 343.664 128.228 349.548M98.171 284.011C98.171 284.011 108.546 276.94 121.275 304.757M387.697 261.776C388.34 288.148 387.955 330.22 376.548 364.366 355.206 428.252 287.112 442.732 254.784 442.732 222.456 442.732 154.362 428.252 133.02 364.366 120.962 328.274 120.549 283.308 122.109 257.432 122.109 257.432 121.458 237.512 146.516 219.645 170.561 202.5 249.142 192.868 275.149 180.932 320.576 160.087 325.686 135.272 325.686 135.272 325.686 135.272 385.74 181.925 387.697 261.776ZM293.33 222.416C303.752 214.475 330.057 210.505 344.45 227.876" stroke="#1A1919" stroke-width="5.55872" stroke-linecap="round" stroke-linejoin="round" fill="none" transform="matrix(1 0 0 1.00983 745.651 -21.6768)"/><path d="M293.389 269.102C302.776 242.607 354.182 240.649 347.095 299.552" stroke="#1A1919" stroke-width="6.35283" stroke-linecap="round" stroke-linejoin="round" fill="none" transform="matrix(1 0 0 1.00983 745.651 -21.6768)"/><path d="M388.988 276.729C388.988 276.729 397.004 261.169 412.092 265.886 443.558 275.717 435.196 343.926 382.389 349.81M411.226 284.273C411.226 284.273 400.859 277.202 388.126 305.019M154.362 282.677 163.125 288.136M347.762 288.136 359.502 282.677M87.0258 272.659C87.0258 272.659 78.239 181.671 121.458 118.726 189.846 19.1339 325.836 48.9128 344.45 90.6032 344.45 90.6032 432.342 101.268 420.597 269.519M98.3735 337.272C98.3735 337.272 128.248 429.709 214.479 456.923M410.627 338.685C410.627 338.685 381.289 429.804 294.97 456.959M226.458 446.608C226.458 446.608 215.536 455.784 213.935 459.424 213.042 461.449 197.795 510.422 217.414 518.736 227.606 523.06 250.675 483.371 250.675 483.371 250.675 483.371 218.009 478.07 226.458 446.608 230.596 442.574 233.45 443.098 233.45 443.098M273.219 442.069C273.219 442.069 272.659 450.479 274.645 454.183 275.895 456.518 282.733 459.536 282.733 459.536M282.59 446.608C282.59 446.608 293.512 455.784 295.113 459.424 296.006 461.449 311.253 510.422 291.634 518.736 281.442 523.06 258.373 483.371 258.373 483.371 258.373 483.371 291.039 478.07 282.59 446.608 278.452 442.574 275.598 443.098 275.598 443.098M250.675 483.371 259.251 483.371M396.206 618.936 403.678 672.204M90.2538 575.014C90.2538 575.014 112.135 578.214 136.907 620.921 140.501 627.115 141.398 631.455 141.398 631.455M126.735 620.921C126.735 620.921 136.034 637.395 141.398 631.455 144.674 627.826 158.833 605.698 158.833 605.698" stroke="#1A1919" stroke-width="5.55872" stroke-linecap="round" stroke-linejoin="round" fill="none" transform="matrix(1 0 0 1.00983 745.651 -21.6768)"/><path d="M289.197 542.754 339.487 542.754 339.487 575.054 289.197 575.054Z" fill="#FFFFFE" transform="matrix(1 0 0 1.00983 745.651 -21.6768)"/><path d="M289.197 542.754 339.487 542.754 339.487 575.054 289.197 575.054Z" stroke="#1A1919" stroke-width="5.55872" stroke-linecap="round" stroke-linejoin="round" fill="none" transform="matrix(1 0 0 1.00983 745.651 -21.6768)"/><path d="M28.2145 420.418C28.2145 420.418 13.7817 377.981 6.93252 363.584 0.0913219 349.191 8.07206 340.988 15.7272 346.011 23.3665 351.037 30.3864 358.411 34.5872 376.333 38.7919 394.264 41.4998 415.427 41.4998 415.427L28.2145 420.418" fill="#F8D4B3" transform="matrix(1 0 0 1.00983 745.651 -21.6768)"/><path d="M44.3467 519.014C31.776 512.725-9.21954 466.802 6.20195 448.926 19.0585 434.021 50.227 436.209 53.3479 444.523 56.3575 452.552 57.1596 470.073 48.0075 473.218 38.8555 476.371 27.3807 478.229 29.1237 470.264 30.8628 462.311 41.8492 458.622 41.8492 458.622M6.64267 448.434C6.64267 448.434 7.03576 435.2 18.4589 430.805 29.8781 426.398 51.3705 424.373 58.5929 430.805 63.8618 435.502 73.526 457.59 55.8175 466.639M72.7041 470.141C72.7041 470.141 67.8005 446.445 74.9872 434.783 82.1738 423.134 90.3213 422.387 89.2969 431.48 88.2686 440.565 86.1999 452.393 89.0388 465.297 91.0042 474.223 88.5266 495.25 71.2311 508.464M69.226 458.587C69.226 458.587 57.1715 467.878 59.2401 491.633M15.5049 432.298C15.5049 432.298 25.5622 417.055 42.6632 415.439 59.7602 413.819 75.3167 422.094 72.0291 442.78M28.2145 420.418C28.2145 420.418 13.7817 377.981 6.93252 363.584 0.0913219 349.191 8.07206 340.988 15.7272 346.011 23.3665 351.037 30.3864 358.411 34.5872 376.333 38.7919 394.264 41.4998 415.427 41.4998 415.427M22.7471 462.029C22.7471 462.029 36.8662 462.716 42.3734 457.9" stroke="#1A1919" stroke-width="5.55872" stroke-linecap="round" stroke-linejoin="round" fill="none" transform="matrix(1 0 0 1.00983 745.651 -21.6768)"/></g></g></g><g clip-path="url(#clip10)"><g clip-path="url(#clip11)"><g clip-path="url(#clip12)"><path d="M524.09 170.514C523.274 223.845 441.807 234.248 337.609 234.248 233.408 234.248 154.184 229.396 154.184 170.514 154.184 111.633 192.26 4.74351 337.609 4.74351 482.954 4.74351 524.09 111.633 524.09 170.514" fill="#F1F9FB" transform="matrix(1 0 0 1.00077 679.054 -12)"/><path d="M337.609 170.65C247.958 170.65 197.16 135.946 171.362 95.5422 159.308 120.188 154.184 147.953 154.184 170.514 154.184 229.396 233.408 234.248 337.609 234.248 441.807 234.248 523.61 221.509 524.09 170.514 524.298 147.953 519.878 120.648 503.848 95.5422 478.051 135.946 427.256 170.65 337.609 170.65" fill="#BFD2E2" transform="matrix(1 0 0 1.00077 679.054 -12)"/><path d="M169.903 207.491C157.112 199.239 154.184 182.193 154.184 170.514 154.184 111.633 193.436 3.56763 338.785 3.56763 484.13 3.56763 524.09 111.633 524.09 170.514 524.09 181.309 516.711 200.223 504.904 206.127" stroke="#1A1919" stroke-width="5.59942" stroke-linecap="round" stroke-linejoin="round" fill="none" transform="matrix(1 0 0 1.00077 679.054 -12)"/><path d="M427.284 91.2666C408.534 49.2709 271.548 19.274 202.655 119.596 159.124 183.001 167.099 271.616 167.099 271.616L187.157 341.241 180.905 341.241C180.905 341.241 217.222 439.191 297.213 461.44L373.454 459.689C453.697 439.943 489.074 358.783 492.945 344.952L504.272 269.16C516.103 99.6777 427.284 91.2666 427.284 91.2666" fill="#744C45" transform="matrix(1 0 0 1.00077 679.054 -12)"/><path d="M213.234 141.261C309.892 11.2748 491.209 117.932 503.872 197.256 492.541 107.265 427.284 91.2666 427.284 91.2666 408.534 49.2709 271.548 19.274 202.655 119.596 159.124 183.001 167.099 271.616 167.099 271.616 167.099 271.616 178.91 277.663 178.574 277.915 174.574 237.916 185.837 178.11 213.234 141.261" fill="#C99B88" transform="matrix(1 0 0 1.00077 679.054 -12)"/><path d="M195.748 150.676C198.84 165.259 290.59 171.698 313.836 165.355 326.802 161.815 321.999 158.752 313.172 157.368 237.68 145.533 222.969 114.188 222.969 114.188L195.748 150.676" fill="#C99B88" transform="matrix(1 0 0 1.00077 679.054 -12)"/><path d="M222.969 636.718 238.967 614.137 250.498 676.342 419.217 676.342C421.685 667.995 426.2 638.966 426.2 638.966L495.945 615.969C495.945 615.969 473.511 532.645 471.567 517.943 467.76 489.102 445.638 477.647 431.452 473.983 422.684 471.727 377.493 460.721 377.493 460.721L360.331 446.114 313.712 446.114 294.886 461.249C294.886 461.249 265.605 470.952 259.297 472.159 247.391 474.455 224.865 483.146 218.913 495.969 214.434 505.608 176.474 561.726 168.227 575.973 168.227 575.973 209.158 631.531 212.722 634.719 217.47 638.966 222.969 636.718 222.969 636.718" fill="#F1F9FB" transform="matrix(1 0 0 1.00077 679.054 -12)"/><path d="M365.114 464.548C365.114 464.548 358.227 461.508 356.967 459.157 354.967 455.425 355.527 441.603 355.527 441.603L317.867 441.603C317.867 441.603 318.431 455.425 316.431 459.157 315.168 461.508 308.284 464.548 308.284 464.548 308.284 464.548 309.212 487.11 336.457 487.11 363.707 487.11 364.894 465.484 365.114 464.548" fill="#F8D2B5" transform="matrix(1 0 0 1.00077 679.054 -12)"/><path d="M317.835 430.92 356.707 431.1 357.987 456.849C357.987 456.849 350.112 475.847 319.275 471.527 308.48 470.016 307.9 462.668 307.9 462.668L317.559 457.605 317.835 430.92" fill="#CF957E" transform="matrix(1 0 0 1.00077 679.054 -12)"/><path d="M338.093 619.3C304.209 619.3 255.962 612.925 238.327 596.983 241.543 618.496 248.522 669.223 249.966 677.126L418.701 677.126C420.741 670.247 428.532 618.976 431.74 597.542 411.054 613.141 371.774 619.3 338.093 619.3" fill="#BFD2E2" transform="matrix(1 0 0 1.00077 679.054 -12)"/><path d="M129.859 565.862C127.739 551.155 120.04 522.638 120.04 522.638 120.04 522.638 93.8263 525.214 51.8147 498.549 51.8147 498.549 27.2532 491.593 7.83519 485.258-4.94749 481.082 10.7309 475.359 10.7309 475.359 10.7309 475.359 3.42365 471.939 3.64762 467.676 3.95559 461.764 12.1467 461.776 12.1467 461.776 12.1467 461.776 10.2909 457.041 14.7665 453.345 19.158 449.718 27.5452 450.294 27.5452 450.294 27.5452 450.294 25.8333 444.454 30.4369 441.807 41.2038 435.631 71.3767 442.59 98.6138 456.897L104.277 456.557C102.541 454.465 101.078 452.017 100.326 449.302 97.574 439.339 98.7578 434.943 101.822 433.427 104.877 431.904 111.9 436.855 116.364 441.495 120.832 446.146 131.794 456.473 136.794 460.377 140.594 463.352 153.116 477.487 153.72 494.633L153.464 504.404 162.571 545.252 173.642 590.807 180.309 585.14C180.309 585.14 190.972 589.807 199.639 599.806 212.238 614.337 212.306 618.804 212.306 618.804 212.306 618.804 190.5 649.617 182.089 653.793 173.674 657.968 156.48 657.076 151.908 653.417 147.329 649.757 144.149 641.074 144.149 641.074L129.859 565.862" fill="#F8D2B5" transform="matrix(1 0 0 1.00077 679.054 -12)"/><path d="M311.24 454.521 269.084 470.156C269.084 470.156 235.384 473.127 218.913 495.969 207.315 512.051 169.979 573.973 169.979 573.973L171.478 579.972 177.726 581.972C177.726 581.972 222.881 510.383 236.68 495.141 245.659 485.222 309.2 468.464 309.2 468.464L311.24 454.521" fill="#FFFFFE" transform="matrix(1 0 0 1.00077 679.054 -12)"/><path d="M364.454 455.485 366.05 468.288C366.05 468.288 402.139 477.199 435.343 487.934 460.589 496.093 464.028 514.643 472.115 521.29 472.115 521.29 472.195 487.734 439.699 475.735 430.216 472.235 364.454 455.485 364.454 455.485" fill="#FFFFFE" transform="matrix(1 0 0 1.00077 679.054 -12)"/><path d="M201.907 278.491C201.907 278.491 193.828 262.817 178.634 267.564 146.937 277.471 157.1 346.18 209.478 352.108" fill="#F8D2B5" transform="matrix(1 0 0 1.00077 679.054 -12)"/><path d="M472.143 278.755C472.143 278.755 480.223 263.081 495.421 267.832 527.114 277.735 518.695 346.444 465.496 352.372" fill="#F8D2B5" transform="matrix(1 0 0 1.00077 679.054 -12)"/><path d="M470.844 263.693C471.491 290.258 471.108 332.638 459.617 367.034 438.119 431.388 369.522 445.974 336.957 445.974 304.397 445.974 235.804 431.388 214.302 367.034 202.155 330.678 201.743 285.383 203.311 259.317 203.311 259.317 202.655 239.251 227.901 221.253 252.122 203.983 331.278 194.28 357.471 182.257 403.234 161.259 408.382 136.262 408.382 136.262 408.382 136.262 468.876 183.257 470.844 263.693" fill="#F8D2B5" transform="matrix(1 0 0 1.00077 679.054 -12)"/><path d="M301.433 289.554C301.433 309.416 289.09 325.518 273.868 325.518 258.641 325.518 246.295 309.416 246.295 289.554 246.295 269.692 258.641 253.59 273.868 253.59 289.09 253.59 301.433 269.692 301.433 289.554" fill="#FFFFFE" transform="matrix(1 0 0 1.00077 679.054 -12)"/><path d="M429.104 289.554C429.104 309.416 416.761 325.518 401.535 325.518 386.308 325.518 373.965 309.416 373.965 289.554 373.965 269.692 386.308 253.59 401.535 253.59 416.761 253.59 429.104 269.692 429.104 289.554" fill="#FFFFFE" transform="matrix(1 0 0 1.00077 679.054 -12)"/><path d="M297.133 294.746C297.133 308.276 289.526 319.243 280.135 319.243 270.752 319.243 263.141 308.276 263.141 294.746 263.141 281.215 270.752 270.248 280.135 270.248 289.526 270.248 297.133 281.215 297.133 294.746" fill="#1A1919" transform="matrix(1 0 0 1.00077 679.054 -12)"/><path d="M377.785 294.746C377.785 308.276 385.396 319.243 394.783 319.243 404.174 319.243 411.786 308.276 411.786 294.746 411.786 281.215 404.174 270.248 394.783 270.248 385.396 270.248 377.785 281.215 377.785 294.746" fill="#1A1919" transform="matrix(1 0 0 1.00077 679.054 -12)"/><path d="M337.789 423.528C295.794 423.528 292.794 374.533 292.294 363.535 292.294 363.535 336.957 377.533 381.621 363.535 381.121 374.533 378.121 423.528 336.125 423.528" fill="#DE716E" transform="matrix(1 0 0 1.00077 679.054 -12)"/><path d="M258.549 329.57C258.549 335.785 248.066 340.825 235.136 340.825 222.201 340.825 211.714 335.785 211.714 329.57 211.714 323.351 222.201 318.311 235.136 318.311 248.066 318.311 258.549 323.351 258.549 329.57" fill="#EC9896" transform="matrix(1 0 0 1.00077 679.054 -12)"/><path d="M462.428 329.57C462.428 335.785 451.941 340.825 439.007 340.825 426.072 340.825 415.589 335.785 415.589 329.57 415.589 323.351 426.072 318.311 439.007 318.311 451.941 318.311 462.428 323.351 462.428 329.57" fill="#EC9896" transform="matrix(1 0 0 1.00077 679.054 -12)"/><path d="M296.837 286.542C296.837 289.314 294.59 291.562 291.814 291.562 289.042 291.562 286.794 289.314 286.794 286.542 286.794 283.767 289.042 281.519 291.814 281.519 294.59 281.519 296.837 283.767 296.837 286.542" fill="#FFFFFE" transform="matrix(1 0 0 1.00077 679.054 -12)"/><path d="M410.47 286.542C410.47 289.314 408.222 291.562 405.45 291.562 402.675 291.562 400.427 289.314 400.427 286.542 400.427 283.767 402.675 281.519 405.45 281.519 408.222 281.519 410.47 283.767 410.47 286.542" fill="#FFFFFE" transform="matrix(1 0 0 1.00077 679.054 -12)"/><path d="M205.639 333.906 203.303 306.908C203.303 306.908 196.736 290.166 186.641 287.578 173.642 284.247 173.378 306.612 182.305 319.243 195.972 338.573 205.639 333.906 205.639 333.906" fill="#CF957E" transform="matrix(1 0 0 1.00077 679.054 -12)"/><path d="M470.28 333.906 472.615 306.908C472.615 306.908 479.183 290.166 489.278 287.578 502.276 284.247 502.54 306.612 493.613 319.243 479.951 338.573 470.28 333.906 470.28 333.906" fill="#CF957E" transform="matrix(1 0 0 1.00077 679.054 -12)"/><path d="M334.362 380.197C350.16 380.197 364.283 387.58 373.722 399.171 380.417 385.156 381.365 369.238 381.621 363.535 336.957 377.533 292.294 363.535 292.294 363.535 292.534 368.714 293.326 382.337 298.493 395.299 307.764 385.968 320.403 380.197 334.362 380.197" fill="#C15A4A" transform="matrix(1 0 0 1.00077 679.054 -12)"/><path d="M276.296 262.401C282.683 262.401 288.77 263.561 294.386 265.597 289.334 258.245 282.027 253.59 273.868 253.59 264.649 253.59 256.518 259.509 251.51 268.568 258.817 264.665 267.268 262.401 276.296 262.401" fill="#D2E0EB" transform="matrix(1 0 0 1.00077 679.054 -12)"/><path d="M399.283 262.401C392.896 262.401 386.808 263.561 381.197 265.597 386.244 258.245 393.551 253.59 401.711 253.59 410.93 253.59 419.061 259.509 424.068 268.568 416.761 264.665 408.31 262.401 399.283 262.401" fill="#D2E0EB" transform="matrix(1 0 0 1.00077 679.054 -12)"/><path d="M297.133 294.746C297.133 308.276 289.526 319.243 280.135 319.243 270.752 319.243 263.141 308.276 263.141 294.746 263.141 281.215 270.752 270.248 280.135 270.248 289.526 270.248 297.133 281.215 297.133 294.746" fill="#1A1919" transform="matrix(1 0 0 1.00077 679.054 -12)"/><path d="M377.785 294.746C377.785 308.276 385.396 319.243 394.783 319.243 404.174 319.243 411.786 308.276 411.786 294.746 411.786 281.215 404.174 270.248 394.783 270.248 385.396 270.248 377.785 281.215 377.785 294.746" fill="#1A1919" transform="matrix(1 0 0 1.00077 679.054 -12)"/><path d="M296.837 286.542C296.837 289.314 294.59 291.562 291.814 291.562 289.042 291.562 286.794 289.314 286.794 286.542 286.794 283.767 289.042 281.519 291.814 281.519 294.59 281.519 296.837 283.767 296.837 286.542" fill="#FFFFFE" transform="matrix(1 0 0 1.00077 679.054 -12)"/><path d="M410.47 286.542C410.47 289.314 408.222 291.562 405.45 291.562 402.675 291.562 400.427 289.314 400.427 286.542 400.427 283.767 402.675 281.519 405.45 281.519 408.222 281.519 410.47 283.767 410.47 286.542" fill="#FFFFFE" transform="matrix(1 0 0 1.00077 679.054 -12)"/><path d="M331.71 487.482 340.957 487.234 366.706 520.978C366.706 520.978 330.21 511.479 304.961 521.478L331.71 487.482" fill="#B5CCE0" transform="matrix(1 0 0 1.00077 679.054 -12)"/><path d="M307.9 462.668C307.9 462.668 306.628 451.438 310.168 448.778 313.712 446.114 318.391 447.074 318.391 447.074 318.391 447.074 319.255 456.417 316.555 458.549 313.856 460.681 307.9 462.668 307.9 462.668" fill="#BCACAE" transform="matrix(1 0 0 1.00077 679.054 -12)"/><path d="M366.314 462.668C366.314 462.668 367.59 451.438 364.047 448.778 360.503 446.114 355.823 447.074 355.823 447.074 355.823 447.074 354.959 456.417 357.659 458.549 360.359 460.681 366.314 462.668 366.314 462.668" fill="#BCACAE" transform="matrix(1 0 0 1.00077 679.054 -12)"/><path d="M436.951 636.466 478.947 623.804 486.946 677.126 446.95 677.126 436.951 636.466" fill="#F8D2B5" transform="matrix(1 0 0 1.00077 679.054 -12)"/><path d="M215.138 619.22 209.138 627.719C209.138 627.719 215.61 637.714 218.721 636.466 226.221 633.467 215.138 619.22 215.138 619.22" fill="#B5CCE0" transform="matrix(1 0 0 1.00077 679.054 -12)"/><path d="M436.951 636.466 480.231 623.204 481.794 638.866 444.63 664.668 436.951 636.466" fill="#CF957E" transform="matrix(1 0 0 1.00077 679.054 -12)"/><path d="M212.998 619.048 193.068 643.682C193.068 643.682 206.935 614.409 194.98 597.402 211.182 610.165 213.146 618.512 212.998 619.048" fill="#CF957E" transform="matrix(1 0 0 1.00077 679.054 -12)"/><path d="M237.316 595.563C237.316 595.563 224.173 619.168 218.577 622.576L221.985 633.771 240.239 611.381 237.316 595.563" fill="#BFD2E2" transform="matrix(1 0 0 1.00077 679.054 -12)"/><path d="M422.428 584.264C422.428 585.512 421.409 586.532 420.157 586.532L374.037 586.532C372.786 586.532 371.77 585.512 371.77 584.264L371.77 556.267C371.77 555.015 372.786 553.995 374.037 553.995L420.157 553.995C421.409 553.995 422.428 555.015 422.428 556.267L422.428 584.264" fill="#BFD2E2" transform="matrix(1 0 0 1.00077 679.054 -12)"/><path d="M153.384 504.988C153.384 504.988 167.943 575.357 179.777 607.969M119.916 523.134C119.916 523.134 135.534 598.602 141.749 634.039 145.841 657.356 166.547 665.471 185.477 650.881 193.044 645.058 201.291 635.043 213.47 617.968M180.449 583.124 175.226 589.223M295.382 461.932C285.299 465.44 268.344 469.992 259.297 472.159 247.507 474.983 228.492 480.211 218.913 495.969 214.114 503.872 169.979 572.973 169.979 572.973M376.149 459.665C393.815 465.164 423.92 471.727 431.7 473.735 445.89 477.399 465.316 490.717 471.567 517.943 476.283 538.477 496.445 616.968 496.445 616.968L427.452 638.466M232.924 537.825C232.924 537.825 245.219 655.716 249.966 677.126M440.279 536.257C440.279 536.257 423.436 656.756 418.701 677.126M437.951 636.466 446.95 677.126M317.867 445.306C317.867 445.306 318.431 453.777 316.431 457.509 315.168 459.861 308.284 462.9 308.284 462.9M128.291 523.17C128.291 523.17 95.4062 527.034 51.7507 498.869 51.7507 498.869 27.2052 491.845 7.8112 485.462-4.96749 481.258 10.7269 475.575 10.7269 475.575 10.7269 475.575 3.43565 472.135 3.66362 467.876 3.99159 461.964 12.1747 461.992 12.1747 461.992 12.1747 461.992 10.3309 457.253 14.8185 453.573 19.218 449.958 27.6092 450.55 27.6092 450.55 27.6092 450.55 25.9173 444.706 30.5129 442.074 41.3037 435.919 71.4606 442.966 98.6538 457.341M150.125 511.847C161.707 487.97 141.809 464.836 136.822 460.921 131.834 457.001 120.904 446.642 116.452 441.983 111.996 437.331 104.989 432.363 101.926 433.875 98.8578 435.387 97.6619 439.779 100.39 449.746 103.109 459.709 115.424 465.864 115.424 465.864 115.424 465.864 111.505 491.057 126.763 498.797M101.81 457.729C101.81 457.729 74.2404 463.868 54.4984 490.446M11.4948 475.095C11.4948 475.095 31.1328 473.291 55.9102 484.502M11.9308 462.08C11.9308 462.08 37.3722 459.073 70.5807 473.039M27.0532 450.378C27.6132 450.322 56.7262 449.282 82.5155 465.72M297.293 224.045C286.794 216.046 260.297 212.046 245.803 229.544" stroke="#1A1919" stroke-width="5.59942" stroke-linecap="round" stroke-linejoin="round" fill="none" transform="matrix(1 0 0 1.00077 679.054 -12)"/><path d="M298.425 268.708C286.85 244.323 238.379 244.211 245.299 301.745" stroke="#1A1919" stroke-width="6.39934" stroke-linecap="round" stroke-linejoin="round" fill="none" transform="matrix(1 0 0 1.00077 679.054 -12)"/><path d="M201.907 278.491C201.907 278.491 193.828 262.817 178.634 267.564 146.937 277.471 157.1 346.18 209.478 352.108M179.198 286.091C179.198 286.091 189.648 278.967 202.471 306.988M470.844 263.693C471.491 290.258 471.108 332.638 459.617 367.034 438.119 431.388 369.522 445.974 336.957 445.974 304.397 445.974 235.804 431.388 214.302 367.034 202.155 330.678 201.743 285.383 203.311 259.317 203.311 259.317 202.655 239.251 227.901 221.253 252.122 203.983 331.278 194.28 357.471 182.257 403.234 161.259 408.382 136.262 408.382 136.262 408.382 136.262 468.876 183.257 470.844 263.693ZM375.785 224.045C386.284 216.046 412.786 212.046 427.284 229.544" stroke="#1A1919" stroke-width="5.59942" stroke-linecap="round" stroke-linejoin="round" fill="none" transform="matrix(1 0 0 1.00077 679.054 -12)"/><path d="M375.845 271.072C385.3 244.383 437.087 242.411 429.948 301.745" stroke="#1A1919" stroke-width="6.39934" stroke-linecap="round" stroke-linejoin="round" fill="none" transform="matrix(1 0 0 1.00077 679.054 -12)"/><path d="M472.143 278.755C472.143 278.755 480.223 263.081 495.421 267.832 527.114 277.735 518.695 346.444 465.496 352.372M494.549 286.355C494.549 286.355 484.106 279.231 471.279 307.252M235.804 284.747 244.631 290.246M430.62 290.246 442.446 284.747M336.957 348.032 336.957 340.033M167.975 274.656C167.975 274.656 159.124 183.001 202.655 119.596 271.548 19.274 408.534 49.2709 427.284 91.2666 427.284 91.2666 515.815 102.009 503.984 271.492M337.789 423.528C295.794 423.528 292.794 374.533 292.294 363.535 292.294 363.535 336.957 377.533 381.621 363.535 381.121 374.533 378.121 423.528 336.125 423.528M179.406 339.741C179.406 339.741 209.494 432.855 296.357 460.269M493.945 341.165C493.945 341.165 464.392 432.951 377.441 460.305M308.428 449.878C308.428 449.878 297.425 459.121 295.81 462.788 294.914 464.828 279.555 514.159 299.313 522.534 309.584 526.89 332.818 486.91 332.818 486.91 332.818 486.91 299.917 481.57 308.428 449.878 312.596 445.814 315.472 446.342 315.472 446.342M355.527 445.306C355.527 445.306 354.967 453.777 356.967 457.509 358.227 459.861 365.114 462.9 365.114 462.9M364.966 449.878C364.966 449.878 375.969 459.121 377.585 462.788 378.481 464.828 393.839 514.159 374.081 522.534 363.811 526.89 340.577 486.91 340.577 486.91 340.577 486.91 373.478 481.57 364.966 449.878 360.803 445.814 357.927 446.342 357.927 446.342M332.818 486.91 341.457 486.91" stroke="#1A1919" stroke-width="5.59942" stroke-linecap="round" stroke-linejoin="round" fill="none" transform="matrix(1 0 0 1.00077 679.054 -12)"/><path d="M344.133 512.683C344.133 516.643 340.925 519.854 336.957 519.854 333.002 519.854 329.79 516.643 329.79 512.683 329.79 508.732 333.002 505.52 336.957 505.52 340.925 505.52 344.133 508.732 344.133 512.683" fill="#FFFFFE" transform="matrix(1 0 0 1.00077 679.054 -12)"/><path d="M344.133 512.683C344.133 516.643 340.925 519.854 336.957 519.854 333.002 519.854 329.79 516.643 329.79 512.683 329.79 508.732 333.002 505.52 336.957 505.52 340.925 505.52 344.133 508.732 344.133 512.683Z" stroke="#1A1919" stroke-width="4.79951" stroke-linecap="round" stroke-linejoin="round" fill="none" transform="matrix(1 0 0 1.00077 679.054 -12)"/><path d="M344.133 577.912C344.133 581.864 340.925 585.076 336.957 585.076 333.002 585.076 329.79 581.864 329.79 577.912 329.79 573.953 333.002 570.741 336.957 570.741 340.925 570.741 344.133 573.953 344.133 577.912" fill="#FFFFFE" transform="matrix(1 0 0 1.00077 679.054 -12)"/><path d="M344.133 577.912C344.133 581.864 340.925 585.076 336.957 585.076 333.002 585.076 329.79 581.864 329.79 577.912 329.79 573.953 333.002 570.741 336.957 570.741 340.925 570.741 344.133 573.953 344.133 577.912Z" stroke="#1A1919" stroke-width="4.79951" stroke-linecap="round" stroke-linejoin="round" fill="none" transform="matrix(1 0 0 1.00077 679.054 -12)"/><path d="M344.133 643.13C344.133 647.093 340.925 650.301 336.957 650.301 333.002 650.301 329.79 647.093 329.79 643.13 329.79 639.178 333.002 635.966 336.957 635.966 340.925 635.966 344.133 639.178 344.133 643.13" fill="#FFFFFE" transform="matrix(1 0 0 1.00077 679.054 -12)"/><path d="M344.133 643.13C344.133 647.093 340.925 650.301 336.957 650.301 333.002 650.301 329.79 647.093 329.79 643.13 329.79 639.178 333.002 635.966 336.957 635.966 340.925 635.966 344.133 639.178 344.133 643.13Z" stroke="#1A1919" stroke-width="4.79951" stroke-linecap="round" stroke-linejoin="round" fill="none" transform="matrix(1 0 0 1.00077 679.054 -12)"/><path d="M479.419 623.468 486.946 677.126M171.226 579.224C171.226 579.224 193.268 582.448 218.222 625.468 221.837 631.707 222.745 636.078 222.745 636.078M207.971 625.468C207.971 625.468 217.338 642.062 222.745 636.078 226.041 632.423 240.303 610.133 240.303 610.133" stroke="#1A1919" stroke-width="5.59942" stroke-linecap="round" stroke-linejoin="round" fill="none" transform="matrix(1 0 0 1.00077 679.054 -12)"/><path d="M371.622 546.728 422.285 546.728 422.285 579.264 371.622 579.264Z" fill="#FFFFFE" transform="matrix(1 0 0 1.00077 679.054 -12)"/><path d="M371.622 546.728 422.285 546.728 422.285 579.264 371.622 579.264Z" stroke="#1A1919" stroke-width="5.59942" stroke-linecap="round" stroke-linejoin="round" fill="none" transform="matrix(1 0 0 1.00077 679.054 -12)"/></g></g></g></g></svg>